<?xml version="1.0" encoding="utf-8" standalone="no"?>
<!DOCTYPE svg PUBLIC "-//W3C//DTD SVG 1.1//EN"
  "http://www.w3.org/Graphics/SVG/1.1/DTD/svg11.dtd">
<svg xmlns:xlink="http://www.w3.org/1999/xlink" width="342.050625pt" height="236.39175pt" viewBox="0 0 342.050625 236.39175" xmlns="http://www.w3.org/2000/svg" version="1.1">
 <metadata>
  <rdf:RDF xmlns:dc="http://purl.org/dc/elements/1.1/" xmlns:cc="http://creativecommons.org/ns#" xmlns:rdf="http://www.w3.org/1999/02/22-rdf-syntax-ns#">
   <cc:Work>
    <dc:type rdf:resource="http://purl.org/dc/dcmitype/StillImage"/>
    <dc:date>2025-01-27T16:06:40.007940</dc:date>
    <dc:format>image/svg+xml</dc:format>
    <dc:creator>
     <cc:Agent>
      <dc:title>Matplotlib v3.5.2, https://matplotlib.org/</dc:title>
     </cc:Agent>
    </dc:creator>
   </cc:Work>
  </rdf:RDF>
 </metadata>
 <defs>
  <style type="text/css">*{stroke-linejoin: round; stroke-linecap: butt}</style>
 </defs>
 <g id="figure_1">
  <g id="patch_1">
   <path d="M 0 236.39175 
L 342.050625 236.39175 
L 342.050625 0 
L 0 0 
L 0 236.39175 
z
" style="fill: none"/>
  </g>
  <g id="axes_1">
   <g id="patch_2">
    <path d="M 43.78125 198.8355 
L 322.78125 198.8355 
L 322.78125 35.7555 
L 43.78125 35.7555 
z
" style="fill: #ffffff"/>
   </g>
   <g id="PolyCollection_1">
    <defs>
     <path id="m84112b1f9c" d="M 56.463068 -40.468393 
L 56.463068 -40.468393 
L 56.923005 -40.740179 
L 57.149591 -40.743695 
L 57.368568 -40.834759 
L 57.587545 -40.875661 
L 57.807368 -40.913165 
L 58.026345 -40.930628 
L 58.246167 -40.995908 
L 58.465145 -41.149088 
L 58.684967 -41.278008 
L 58.903944 -41.455331 
L 59.123767 -41.44279 
L 59.342744 -41.370009 
L 59.562567 -41.281289 
L 59.780698 -41.239683 
L 60.000521 -41.219408 
L 60.219498 -41.204641 
L 60.43932 -41.293595 
L 60.658298 -41.439626 
L 60.87812 -41.568897 
L 61.097097 -41.660196 
L 61.31692 -41.785716 
L 61.536742 -41.880531 
L 61.755719 -42.080473 
L 61.974697 -42.14927 
L 62.194519 -42.198728 
L 62.413496 -42.298347 
L 62.633319 -42.38402 
L 62.85145 -42.474381 
L 63.071273 -42.569313 
L 63.291096 -42.722727 
L 63.510918 -42.676082 
L 63.729895 -42.63471 
L 63.949718 -42.545521 
L 64.168695 -42.556069 
L 64.387672 -42.560289 
L 64.606649 -42.516339 
L 64.825626 -42.487625 
L 65.045449 -42.527824 
L 65.265271 -42.513409 
L 65.484249 -42.545873 
L 65.704071 -42.607989 
L 65.923894 -42.72765 
L 66.142871 -42.84356 
L 66.361848 -42.867937 
L 66.580825 -42.895245 
L 66.800648 -42.857272 
L 67.019625 -42.885635 
L 67.239447 -42.910481 
L 67.458424 -42.797149 
L 67.677402 -42.675144 
L 67.895533 -42.593339 
L 68.11451 -42.501454 
L 68.334333 -42.396092 
L 68.55331 -42.481296 
L 68.773133 -42.498876 
L 68.99211 -42.551381 
L 69.211932 -42.544935 
L 69.430909 -42.551967 
L 69.651577 -42.518331 
L 69.870555 -42.433127 
L 70.089532 -42.409921 
L 70.309354 -42.379918 
L 70.528331 -42.367847 
L 70.748154 -42.285104 
L 70.967131 -42.306434 
L 71.186108 -42.282174 
L 71.405931 -42.346516 
L 71.624908 -42.346985 
L 71.843885 -42.390584 
L 72.063707 -42.457504 
L 72.28353 -42.485867 
L 72.502507 -42.504736 
L 72.72233 -42.472975 
L 72.941307 -42.45141 
L 73.160284 -42.387068 
L 73.375034 -42.316513 
L 73.594011 -42.253929 
L 73.812988 -42.204236 
L 74.03281 -42.214901 
L 74.251788 -42.288503 
L 74.47161 -42.275728 
L 74.690587 -42.379332 
L 74.91041 -42.459262 
L 75.129387 -42.369956 
L 75.34921 -42.284401 
L 75.569032 -42.239865 
L 75.788855 -42.276314 
L 76.007832 -42.326475 
L 76.227654 -42.389646 
L 76.446631 -42.416367 
L 76.666454 -42.41332 
L 76.884586 -42.50333 
L 77.104408 -42.502744 
L 77.323385 -42.538021 
L 77.543208 -42.483757 
L 77.762185 -42.434416 
L 77.982008 -42.415078 
L 78.20183 -42.431838 
L 78.420807 -42.407812 
L 78.639784 -42.413203 
L 78.858762 -42.461255 
L 79.078584 -42.678777 
L 79.297561 -42.75777 
L 79.517384 -42.762341 
L 79.736361 -42.733744 
L 79.956183 -42.703975 
L 80.175161 -42.679246 
L 80.394138 -42.672566 
L 80.613115 -42.758942 
L 80.832937 -42.839575 
L 81.05276 -42.837466 
L 81.271737 -42.862546 
L 81.492405 -42.866765 
L 81.711382 -42.828207 
L 81.931205 -42.774764 
L 82.149336 -42.703858 
L 82.369159 -42.665182 
L 82.588136 -42.662955 
L 82.807113 -42.66026 
L 83.026936 -42.645961 
L 83.246758 -42.610802 
L 83.465736 -42.654283 
L 83.684713 -42.662018 
L 83.90369 -42.632718 
L 84.123512 -42.673621 
L 84.342489 -42.700459 
L 84.561467 -42.823402 
L 84.781289 -42.800899 
L 85.001112 -42.767146 
L 85.220089 -42.717922 
L 85.439911 -42.631663 
L 85.658888 -42.591464 
L 85.877866 -42.622053 
L 86.096843 -42.620412 
L 86.31582 -42.636351 
L 86.537333 -42.497704 
L 86.75631 -42.474264 
L 86.976133 -42.464888 
L 87.19511 -42.490672 
L 87.414087 -42.554663 
L 87.633064 -42.639984 
L 87.84866 -42.772654 
L 88.068482 -42.826918 
L 88.288305 -42.879189 
L 88.507282 -42.87286 
L 88.726259 -42.868055 
L 88.945236 -42.886103 
L 89.164213 -42.879306 
L 89.384036 -42.81133 
L 89.603013 -42.832895 
L 89.82199 -42.92138 
L 90.042658 -42.922318 
L 90.261635 -42.932514 
L 90.480612 -42.889151 
L 90.700435 -42.822112 
L 90.919412 -42.849654 
L 91.138389 -42.845201 
L 91.357366 -42.984785 
L 91.577189 -43.07292 
L 91.796166 -43.09132 
L 92.015143 -43.112299 
L 92.234965 -43.000607 
L 92.453943 -42.970604 
L 92.67292 -42.908254 
L 92.892742 -42.867 
L 93.112565 -42.803126 
L 93.331542 -42.782616 
L 93.551364 -42.765974 
L 93.770342 -42.733744 
L 93.990164 -42.644438 
L 94.209141 -42.712765 
L 94.428118 -42.703741 
L 94.647941 -42.671394 
L 94.866918 -42.658385 
L 95.085895 -42.687333 
L 95.305718 -42.63975 
L 95.52554 -42.606231 
L 95.747899 -42.592753 
L 95.966876 -42.666589 
L 96.185854 -42.734799 
L 96.405676 -42.746401 
L 96.624653 -42.709015 
L 96.844476 -42.67866 
L 97.063453 -42.564391 
L 97.28243 -42.46817 
L 97.502253 -42.365034 
L 97.72123 -42.288385 
L 97.940207 -42.259203 
L 98.159184 -42.23377 
L 98.378161 -42.232012 
L 98.597984 -42.25264 
L 98.816961 -42.274204 
L 99.036783 -42.277369 
L 99.25576 -42.255218 
L 99.475583 -42.3539 
L 99.69456 -42.434885 
L 99.912692 -42.485164 
L 100.132514 -42.449652 
L 100.352337 -42.426798 
L 100.572159 -42.423282 
L 100.791137 -42.392693 
L 101.010114 -42.367261 
L 101.229091 -42.241271 
L 101.448068 -42.073324 
L 101.66789 -42.003239 
L 101.887713 -41.921902 
L 102.107536 -41.891899 
L 102.326513 -41.922606 
L 102.546335 -41.964446 
L 102.766158 -41.918972 
L 102.985135 -41.961985 
L 103.203267 -41.920379 
L 103.423089 -41.95882 
L 103.637839 -41.958 
L 103.856816 -42.02328 
L 104.076639 -42.169897 
L 104.295616 -42.32964 
L 104.515438 -42.364214 
L 104.734415 -42.432424 
L 104.953393 -42.457387 
L 105.173215 -42.558531 
L 105.393038 -42.59873 
L 105.61286 -42.553725 
L 105.831837 -42.539779 
L 106.050814 -42.531106 
L 106.270637 -42.528527 
L 106.489614 -42.508018 
L 106.708591 -42.53052 
L 106.928414 -42.648891 
L 107.148236 -42.686747 
L 107.368059 -42.790937 
L 107.587882 -42.838638 
L 107.80855 -42.871688 
L 108.028372 -42.762927 
L 108.248195 -42.714992 
L 108.467172 -42.669167 
L 108.686149 -42.66905 
L 108.905972 -42.741596 
L 109.124949 -42.758356 
L 109.343926 -42.85153 
L 109.563748 -42.809103 
L 109.783571 -42.71968 
L 110.003394 -42.595566 
L 110.222371 -42.526183 
L 110.441348 -42.678191 
L 110.66117 -42.623928 
L 110.880147 -42.593222 
L 111.09997 -42.573298 
L 111.323174 -42.603418 
L 111.542152 -42.700928 
L 111.761129 -42.71968 
L 111.980106 -42.786718 
L 112.199928 -42.808166 
L 112.419751 -42.780741 
L 112.638728 -42.774178 
L 112.858551 -42.825746 
L 113.077528 -42.832543 
L 113.29735 -42.721204 
L 113.517173 -42.733158 
L 113.73615 -42.797032 
L 113.956818 -42.856569 
L 114.176641 -42.945289 
L 114.395618 -42.837583 
L 114.614595 -42.754254 
L 114.833572 -42.692138 
L 115.052549 -42.576345 
L 115.272372 -42.468756 
L 115.491349 -42.401131 
L 115.711171 -42.362221 
L 115.930148 -42.288971 
L 116.149971 -42.210448 
L 116.369794 -42.222519 
L 116.588771 -42.312763 
L 116.808593 -42.38824 
L 117.02757 -42.444964 
L 117.246547 -42.374879 
L 117.465525 -42.328702 
L 117.687884 -42.25346 
L 117.907706 -42.17353 
L 118.127529 -42.132862 
L 118.346506 -42.11868 
L 118.566328 -42.137667 
L 118.785306 -42.200134 
L 119.004283 -42.305145 
L 119.224105 -42.273384 
L 119.443928 -42.232364 
L 119.664596 -42.266704 
L 119.884418 -42.192751 
L 120.104241 -42.102038 
L 120.324064 -42.04168 
L 120.543041 -41.929637 
L 120.762018 -41.873147 
L 120.980995 -41.793334 
L 121.199972 -41.767316 
L 121.419795 -41.721608 
L 121.638772 -41.650351 
L 121.858594 -41.604526 
L 122.077571 -41.601127 
L 122.297394 -41.755596 
L 122.516371 -41.822751 
L 122.735348 -41.826971 
L 122.954325 -41.809625 
L 123.174993 -41.829666 
L 123.39397 -41.830838 
L 123.613793 -41.802242 
L 123.83277 -41.837636 
L 124.052593 -41.801773 
L 124.27157 -41.771418 
L 124.491392 -41.816774 
L 124.710369 -41.830955 
L 124.92681 -41.914519 
L 125.145787 -41.944405 
L 125.36561 -42.005114 
L 125.584587 -41.953077 
L 125.800182 -41.979447 
L 126.018314 -41.917332 
L 126.237291 -41.824627 
L 126.457114 -41.854044 
L 126.676936 -41.853809 
L 126.895913 -41.892837 
L 127.11489 -41.923191 
L 127.333867 -42.004294 
L 127.55369 -41.999371 
L 127.772667 -42.043438 
L 127.99249 -42.135557 
L 128.211467 -42.10321 
L 128.430444 -42.092076 
L 128.650266 -42.20072 
L 128.870089 -42.311474 
L 129.089066 -42.285573 
L 129.308889 -42.395271 
L 129.527866 -42.384138 
L 129.746843 -42.416367 
L 129.96582 -42.473326 
L 130.185643 -42.557359 
L 130.40462 -42.578337 
L 130.624442 -42.469693 
L 130.843419 -42.490906 
L 131.063242 -42.440511 
L 131.286446 -42.399959 
L 131.505424 -42.451176 
L 131.724401 -42.416719 
L 131.944223 -42.517628 
L 132.1632 -42.513526 
L 132.383023 -42.578806 
L 132.602 -42.632835 
L 132.821823 -42.650063 
L 133.0408 -42.599433 
L 133.259777 -42.562047 
L 133.479599 -42.539427 
L 133.698577 -42.545287 
L 133.918399 -42.567555 
L 134.137376 -42.574118 
L 134.357199 -42.618302 
L 134.576176 -42.655455 
L 134.795153 -42.73433 
L 135.014976 -42.756481 
L 135.233953 -42.71007 
L 135.453775 -42.666471 
L 135.672752 -42.627678 
L 135.891729 -42.575876 
L 136.111552 -42.572008 
L 136.331375 -42.566969 
L 136.550352 -42.598027 
L 136.770174 -42.468521 
L 136.989997 -42.420352 
L 137.208974 -42.355775 
L 137.427951 -42.455629 
L 137.647774 -42.518683 
L 137.866751 -42.525715 
L 138.085728 -42.500165 
L 138.335142 -42.433361 
L 138.554965 -42.395623 
L 138.773942 -42.360346 
L 138.993764 -42.331046 
L 139.212741 -42.393045 
L 139.432564 -42.367026 
L 139.651541 -42.379567 
L 139.871364 -42.416133 
L 140.090341 -42.418477 
L 140.309318 -42.40078 
L 140.528295 -42.362924 
L 140.748118 -42.366675 
L 140.967095 -42.349329 
L 141.186917 -42.350267 
L 141.40674 -42.276548 
L 141.625717 -42.221699 
L 141.844694 -42.203533 
L 142.067898 -42.277603 
L 142.287721 -42.402186 
L 142.506698 -42.422931 
L 142.726521 -42.425509 
L 142.945498 -42.502158 
L 143.164475 -42.489734 
L 143.384298 -42.413789 
L 143.603275 -42.450824 
L 143.822252 -42.475905 
L 144.041229 -42.467232 
L 144.261051 -42.491844 
L 144.480029 -42.431603 
L 144.699006 -42.443909 
L 144.918828 -42.513526 
L 145.138651 -42.521847 
L 145.357628 -42.594394 
L 145.57745 -42.72343 
L 145.797273 -42.755309 
L 146.01625 -42.794688 
L 146.236073 -42.739018 
L 146.45505 -42.748394 
L 146.674027 -42.762458 
L 146.89385 -42.737494 
L 147.111981 -42.818128 
L 147.331804 -42.764216 
L 147.550781 -42.825628 
L 147.770603 -42.862546 
L 147.989581 -42.79879 
L 148.208558 -42.794805 
L 148.42838 -42.830668 
L 148.647357 -42.845787 
L 148.866334 -42.832074 
L 149.086157 -42.840396 
L 149.30598 -42.802423 
L 149.525802 -42.84438 
L 149.745625 -42.841333 
L 149.964602 -42.835825 
L 150.183579 -42.939781 
L 150.403402 -42.912473 
L 150.622379 -42.899347 
L 150.842201 -42.829613 
L 151.062024 -42.853288 
L 151.281001 -42.807814 
L 151.500823 -42.768201 
L 151.719801 -42.722493 
L 151.939623 -42.670456 
L 152.1586 -42.682059 
L 152.378423 -42.695185 
L 152.598245 -42.706671 
L 152.817223 -42.709484 
L 153.0362 -42.697881 
L 153.26025 -42.732806 
L 153.479227 -42.716281 
L 153.698204 -42.742417 
L 153.917181 -42.704561 
L 154.136158 -42.679832 
L 154.355135 -42.723665 
L 154.574112 -42.782147 
L 154.793935 -42.943648 
L 155.013757 -42.912708 
L 155.232734 -42.852116 
L 155.451712 -42.736557 
L 155.671534 -42.730931 
L 155.889666 -42.687567 
L 156.109488 -42.694951 
L 156.328465 -42.809572 
L 156.548288 -42.87954 
L 156.768111 -42.899699 
L 156.987088 -42.901925 
L 157.206065 -42.834418 
L 157.425887 -42.759645 
L 157.644865 -42.704444 
L 157.864687 -42.7205 
L 158.083664 -42.765388 
L 158.303487 -42.769959 
L 158.522464 -42.788711 
L 158.742286 -42.830785 
L 158.961264 -42.757301 
L 159.177704 -42.769373 
L 159.39499 -42.797852 
L 159.614813 -42.80172 
L 159.832945 -42.756129 
L 160.052767 -42.760465 
L 160.270899 -42.851178 
L 160.490721 -42.92267 
L 160.709699 -42.97834 
L 160.929521 -43.029673 
L 161.147653 -43.012327 
L 161.367475 -43.100461 
L 161.587298 -43.108665 
L 161.806275 -43.102337 
L 162.026098 -43.222232 
L 162.245075 -43.227389 
L 162.464897 -43.419596 
L 162.683874 -43.39932 
L 162.902852 -43.407173 
L 163.121829 -43.420768 
L 163.341651 -43.368263 
L 163.560628 -43.338025 
L 163.779605 -43.309311 
L 163.999428 -43.231022 
L 164.218405 -43.229029 
L 164.438228 -43.290559 
L 164.657205 -43.33404 
L 164.876182 -43.346346 
L 165.096004 -43.342361 
L 165.319209 -43.351972 
L 165.537341 -43.316343 
L 165.757163 -43.264541 
L 165.97614 -43.231491 
L 166.195117 -43.259033 
L 166.414094 -43.160585 
L 166.633917 -43.097883 
L 166.852894 -43.089679 
L 167.071871 -43.152147 
L 167.290848 -43.176055 
L 167.510671 -43.239343 
L 167.729648 -43.285285 
L 167.949471 -43.341658 
L 168.168448 -43.313765 
L 168.387425 -43.273682 
L 168.607247 -43.215083 
L 168.82707 -43.204652 
L 169.046893 -43.171953 
L 169.26587 -43.109369 
L 169.485692 -43.061434 
L 169.705515 -43.031431 
L 169.925337 -43.087218 
L 170.14516 -43.052058 
L 170.364137 -43.008108 
L 170.58396 -43.051589 
L 170.802937 -42.991817 
L 171.023605 -42.994279 
L 171.242582 -42.987715 
L 171.461559 -42.955954 
L 171.681382 -42.988184 
L 171.900359 -42.973417 
L 172.120181 -42.993927 
L 172.339158 -42.936148 
L 172.558981 -42.996505 
L 172.778804 -42.993341 
L 172.998626 -43.011507 
L 173.217603 -43.024633 
L 173.437426 -43.089914 
L 173.656403 -43.044557 
L 173.876226 -42.967792 
L 174.095203 -42.920443 
L 174.315025 -42.94107 
L 174.534848 -43.126011 
L 174.753825 -43.156717 
L 174.973647 -43.107845 
L 175.192625 -43.107728 
L 175.411602 -43.081475 
L 175.63227 -43.122612 
L 175.852092 -43.084757 
L 176.071915 -43.011038 
L 176.291737 -43.005295 
L 176.510715 -43.110423 
L 176.730537 -43.099993 
L 176.949514 -43.149568 
L 177.167646 -43.174883 
L 177.386623 -43.205004 
L 177.606446 -43.212856 
L 177.825423 -43.195628 
L 178.0444 -43.149568 
L 178.264222 -43.224107 
L 178.483199 -43.199847 
L 178.703022 -43.229615 
L 178.921999 -43.252235 
L 179.140976 -43.253759 
L 179.360799 -43.295364 
L 179.580621 -43.340135 
L 179.800444 -43.306733 
L 180.020267 -43.330524 
L 180.239244 -43.447372 
L 180.458221 -43.532459 
L 180.678043 -43.588715 
L 180.897866 -43.665832 
L 181.117689 -43.654816 
L 181.336666 -43.646963 
L 181.557334 -43.630907 
L 181.772929 -43.646026 
L 181.991906 -43.689155 
L 182.210883 -43.667004 
L 182.42986 -43.724784 
L 182.649683 -43.76346 
L 182.86866 -43.776469 
L 183.088483 -43.800612 
L 183.308305 -43.847843 
L 183.527282 -43.827216 
L 183.747105 -43.83167 
L 183.966927 -43.789126 
L 184.185904 -43.742246 
L 184.405727 -43.779516 
L 184.626395 -43.878081 
L 184.846218 -43.950627 
L 185.06604 -44.020361 
L 185.285017 -44.060795 
L 185.50484 -44.12045 
L 185.723817 -44.110605 
L 185.942794 -44.143186 
L 186.162617 -44.075562 
L 186.382439 -44.127013 
L 186.602262 -44.275973 
L 186.821239 -44.296132 
L 187.044443 -44.313829 
L 187.264266 -44.308438 
L 187.483243 -44.337972 
L 187.703066 -44.263433 
L 187.922043 -44.243509 
L 188.141865 -44.263785 
L 188.361688 -44.183151 
L 188.582356 -44.170377 
L 188.802179 -44.160063 
L 189.021156 -44.1133 
L 189.240133 -44.134514 
L 189.459955 -44.19159 
L 189.678932 -44.1719 
L 189.898755 -44.214444 
L 190.118578 -44.24726 
L 190.337555 -44.279138 
L 190.557377 -44.352505 
L 190.776354 -44.359654 
L 190.996177 -44.449898 
L 191.216 -44.416613 
L 191.434977 -44.412863 
L 191.654799 -44.356841 
L 191.873776 -44.321213 
L 192.093599 -44.334339 
L 192.313422 -44.311251 
L 192.532399 -44.298241 
L 192.752221 -44.242689 
L 192.972889 -44.211631 
L 193.191866 -44.120567 
L 193.409998 -44.007821 
L 193.629821 -44.051185 
L 193.849643 -44.02001 
L 194.069466 -44.075797 
L 194.288443 -44.11541 
L 194.508265 -44.104628 
L 194.728088 -44.047786 
L 194.947911 -44.093025 
L 195.167733 -44.035831 
L 195.387556 -44.057279 
L 195.606533 -44.02751 
L 195.826355 -44.053177 
L 196.045333 -43.988834 
L 196.26431 -44.093611 
L 196.484132 -44.067944 
L 196.703955 -44.037003 
L 196.922932 -43.969262 
L 197.142755 -43.923085 
L 197.361732 -43.947697 
L 197.581554 -43.977232 
L 197.801377 -43.971137 
L 198.020354 -43.946174 
L 198.239331 -43.984381 
L 198.458308 -43.979107 
L 198.678131 -43.946057 
L 198.897953 -43.962933 
L 199.117776 -43.922148 
L 199.337598 -43.961644 
L 199.557421 -44.024229 
L 199.776398 -44.075445 
L 199.991993 -44.111308 
L 200.21097 -44.176002 
L 200.430793 -44.134162 
L 200.650616 -44.118692 
L 200.870438 -44.131818 
L 201.089415 -44.080133 
L 201.308392 -44.09994 
L 201.527369 -44.087868 
L 201.751419 -44.101112 
L 201.970397 -44.161469 
L 202.190219 -44.274567 
L 202.409196 -44.358834 
L 202.629019 -44.342191 
L 202.847996 -44.286756 
L 203.067818 -44.233196 
L 203.286796 -44.173893 
L 203.506618 -44.172955 
L 203.726441 -44.18866 
L 203.945418 -44.200849 
L 204.164395 -44.214326 
L 204.384218 -44.18362 
L 204.603195 -44.230383 
L 204.823017 -44.313829 
L 205.041149 -44.376414 
L 205.260126 -44.30375 
L 205.479949 -44.329651 
L 205.698926 -44.294843 
L 205.918748 -44.274215 
L 206.138571 -44.25476 
L 206.357548 -44.253237 
L 206.576525 -44.247494 
L 206.795502 -44.250658 
L 207.015325 -44.31629 
L 207.235147 -44.373835 
L 207.454124 -44.373601 
L 207.673101 -44.38157 
L 207.892924 -44.36317 
L 208.109365 -44.359302 
L 208.328342 -44.343363 
L 208.547319 -44.25183 
L 208.766296 -44.293436 
L 208.986119 -44.226515 
L 209.205096 -44.245033 
L 209.425764 -44.238235 
L 209.644741 -44.206357 
L 209.863718 -44.266832 
L 210.083541 -44.313712 
L 210.300827 -44.314063 
L 210.520649 -44.299648 
L 210.739626 -44.307852 
L 210.959449 -44.314063 
L 211.179272 -44.345824 
L 211.398249 -44.479198 
L 211.618071 -44.377937 
L 211.837048 -44.376179 
L 212.056025 -44.318048 
L 212.275848 -44.31922 
L 212.494825 -44.351333 
L 212.714648 -44.377 
L 212.93447 -44.427864 
L 213.154293 -44.453062 
L 213.374115 -44.515881 
L 213.593093 -44.519749 
L 213.81207 -44.542017 
L 214.031892 -44.512951 
L 214.250869 -44.510607 
L 214.470692 -44.524085 
L 214.690515 -44.514592 
L 214.909492 -44.52596 
L 215.129314 -44.586201 
L 215.348291 -44.559948 
L 215.567268 -44.536157 
L 215.787091 -44.577762 
L 216.006914 -44.573309 
L 216.225891 -44.578466 
L 216.445713 -44.588896 
L 216.668072 -44.716761 
L 216.887049 -44.686641 
L 217.104336 -44.598155 
L 217.323313 -44.589131 
L 217.54229 -44.635307 
L 217.762112 -44.627103 
L 217.981935 -44.646676 
L 218.200912 -44.630268 
L 218.420735 -44.568269 
L 218.642248 -44.593584 
L 218.861225 -44.642925 
L 219.080202 -44.619134 
L 219.299179 -44.627689 
L 219.518157 -44.670936 
L 219.737134 -44.726489 
L 219.956956 -44.791183 
L 220.175933 -44.929127 
L 220.395756 -44.853064 
L 220.614733 -44.973546 
L 220.83371 -45.009995 
L 221.053533 -45.0516 
L 221.27251 -45.095433 
L 221.492332 -45.060508 
L 221.71131 -45.096371 
L 221.931132 -45.08676 
L 222.150955 -45.093323 
L 222.369932 -45.088401 
L 222.589754 -45.1102 
L 222.808731 -45.139852 
L 223.028554 -45.178762 
L 223.248377 -45.170206 
L 223.463972 -45.170441 
L 223.682949 -45.225759 
L 223.902772 -45.274983 
L 224.121749 -45.291977 
L 224.340726 -45.31694 
L 224.560548 -45.343662 
L 224.779525 -45.401793 
L 224.999348 -45.415036 
L 225.219171 -45.466135 
L 225.438993 -45.380463 
L 225.65797 -45.379877 
L 225.877793 -45.413044 
L 226.09677 -45.455939 
L 226.316593 -45.527314 
L 226.53557 -45.576655 
L 226.757929 -45.618261 
L 226.977751 -45.634082 
L 227.197574 -45.595055 
L 227.416551 -45.576186 
L 227.636373 -45.607478 
L 227.855351 -45.678501 
L 228.074328 -45.682955 
L 228.29415 -45.748469 
L 228.513973 -45.738742 
L 228.73295 -45.761361 
L 228.951927 -45.770972 
L 229.170904 -45.788434 
L 229.389881 -45.917471 
L 229.608858 -46.005722 
L 229.828681 -46.085535 
L 230.047658 -46.125618 
L 230.266635 -46.188554 
L 230.486458 -46.341382 
L 230.70628 -46.409592 
L 230.925257 -46.449674 
L 231.14508 -46.479678 
L 231.364057 -46.641413 
L 231.583034 -46.709975 
L 231.802011 -46.731774 
L 232.021834 -46.771036 
L 232.240811 -46.751346 
L 232.460634 -46.767989 
L 232.679611 -46.791194 
L 232.899433 -46.901362 
L 233.11841 -46.902182 
L 233.338233 -46.965822 
L 233.55721 -46.959141 
L 233.777033 -46.893041 
L 233.993473 -46.896908 
L 234.213296 -46.969337 
L 234.433118 -46.958672 
L 234.652096 -46.995004 
L 234.871073 -46.974729 
L 235.09005 -46.974025 
L 235.309872 -46.97508 
L 235.529695 -46.951758 
L 235.749518 -46.972267 
L 235.968495 -46.899369 
L 236.187472 -46.922458 
L 236.407294 -46.852489 
L 236.625426 -46.852724 
L 236.845249 -46.799046 
L 237.065071 -46.806313 
L 237.284894 -46.737165 
L 237.504716 -46.82987 
L 237.724539 -46.825182 
L 237.944361 -46.836199 
L 238.163339 -46.891283 
L 238.382316 -46.873703 
L 238.601293 -46.807368 
L 238.821115 -46.778537 
L 239.040938 -46.798929 
L 239.259915 -46.754745 
L 239.479738 -46.6863 
L 239.698715 -46.610824 
L 239.91431 -46.576367 
L 240.134133 -46.485655 
L 240.353955 -46.453894 
L 240.572932 -46.401037 
L 240.792755 -46.374901 
L 241.011732 -46.411467 
L 241.230709 -46.424125 
L 241.449686 -46.402326 
L 241.669509 -46.356266 
L 241.888486 -46.386269 
L 242.107463 -46.371854 
L 242.327285 -46.384629 
L 242.546263 -46.396583 
L 242.766085 -46.313606 
L 242.985908 -46.28958 
L 243.20573 -46.349234 
L 243.424707 -46.357087 
L 243.643685 -46.373495 
L 243.862662 -46.353336 
L 244.082484 -46.354157 
L 244.302307 -46.219963 
L 244.521284 -46.267195 
L 244.741106 -46.348531 
L 244.960084 -46.441822 
L 245.175679 -46.415218 
L 245.394656 -46.395763 
L 245.613633 -46.358376 
L 245.833456 -46.331186 
L 246.053278 -46.294854 
L 246.272255 -46.289228 
L 246.492078 -46.221956 
L 246.711055 -46.239184 
L 246.930032 -46.272234 
L 247.149009 -46.268015 
L 247.368832 -46.258756 
L 247.587809 -46.287705 
L 247.806786 -46.281845 
L 248.026609 -46.176717 
L 248.246431 -46.156207 
L 248.465408 -46.197813 
L 248.684385 -46.198516 
L 248.905053 -46.204024 
L 249.124876 -46.179881 
L 249.343853 -46.124797 
L 249.56283 -46.124563 
L 249.782653 -46.132064 
L 250.002475 -46.145073 
L 250.221452 -46.100771 
L 250.441275 -46.083543 
L 250.660252 -46.179529 
L 250.879229 -46.118937 
L 251.098206 -46.07698 
L 251.318029 -46.122922 
L 251.537006 -46.084832 
L 251.756829 -46.090926 
L 251.975806 -46.176717 
L 252.195628 -46.160543 
L 252.414605 -46.118351 
L 252.633583 -46.122688 
L 252.85256 -46.265085 
L 253.072382 -46.234144 
L 253.291359 -46.215978 
L 253.511182 -46.237895 
L 253.731004 -46.193945 
L 253.949982 -46.196758 
L 254.168959 -46.222307 
L 254.387936 -46.167927 
L 254.607758 -46.210001 
L 254.827581 -46.27493 
L 255.046558 -46.273055 
L 255.266381 -46.276805 
L 255.485358 -46.273523 
L 255.70518 -46.306808 
L 255.924157 -46.382167 
L 256.143135 -46.423891 
L 256.362112 -46.457644 
L 256.579398 -46.441939 
L 256.798375 -46.37244 
L 257.018197 -46.349117 
L 257.237175 -46.339038 
L 257.456997 -46.397403 
L 257.67682 -46.416741 
L 257.895797 -46.412639 
L 258.115619 -46.464559 
L 258.335442 -46.438541 
L 258.550192 -46.464793 
L 258.769169 -46.501711 
L 258.988991 -46.537223 
L 259.207969 -46.535816 
L 259.426946 -46.592072 
L 259.646768 -46.581641 
L 259.865745 -46.540035 
L 260.084722 -46.569101 
L 260.3037 -46.575078 
L 260.523522 -46.598635 
L 260.742499 -46.645749 
L 260.962322 -46.688293 
L 261.181299 -46.749354 
L 261.400276 -46.769512 
L 261.619253 -46.819908 
L 261.83823 -46.794358 
L 262.058053 -46.827174 
L 262.27703 -46.893861 
L 262.496007 -46.898666 
L 262.71583 -46.935467 
L 262.935652 -46.93617 
L 263.154629 -46.962657 
L 263.374452 -46.930896 
L 263.593429 -47.069192 
L 263.812406 -47.084896 
L 264.032229 -47.016217 
L 264.251206 -46.927028 
L 264.470183 -46.881086 
L 264.68916 -46.861514 
L 264.908137 -46.87089 
L 265.12796 -46.852958 
L 265.346937 -46.857412 
L 265.566759 -46.854951 
L 265.785736 -46.748416 
L 266.004714 -46.770919 
L 266.224536 -46.676221 
L 266.443513 -46.634264 
L 266.663336 -46.673291 
L 266.882313 -46.754862 
L 267.10129 -46.795648 
L 267.320267 -46.771973 
L 267.54009 -46.758495 
L 267.759067 -46.793304 
L 267.978044 -46.797523 
L 268.197021 -46.789671 
L 268.415998 -46.811118 
L 268.635821 -46.848622 
L 268.854798 -46.850966 
L 269.07462 -46.855537 
L 269.297825 -46.861514 
L 269.516802 -46.767637 
L 269.735779 -46.738337 
L 269.953065 -46.755683 
L 270.172888 -46.797171 
L 270.391865 -46.825768 
L 270.611688 -46.77924 
L 270.83151 -46.803617 
L 271.050487 -46.867491 
L 271.269464 -46.873117 
L 271.489287 -46.885657 
L 271.708264 -46.877336 
L 271.927241 -46.919762 
L 272.147064 -47.013522 
L 272.366886 -46.943671 
L 272.585863 -47.053487 
L 272.805686 -47.014928 
L 273.025509 -47.016803 
L 273.244486 -47.093569 
L 273.463463 -47.147364 
L 273.684131 -47.178539 
L 273.903108 -47.254836 
L 274.12293 -47.259524 
L 274.341908 -47.294098 
L 274.56173 -47.303356 
L 274.781553 -47.295152 
L 275.00053 -47.29609 
L 275.219507 -47.331484 
L 275.43933 -47.382583 
L 275.658307 -47.451145 
L 275.878129 -47.53506 
L 276.097952 -47.603973 
L 276.316929 -47.663159 
L 276.535906 -47.778718 
L 276.754883 -47.770631 
L 276.97386 -47.797939 
L 277.193683 -47.795829 
L 277.413505 -47.781062 
L 277.632482 -47.802744 
L 277.852305 -47.768873 
L 278.071282 -47.675699 
L 278.291105 -47.66269 
L 278.510082 -47.688123 
L 278.729059 -47.732893 
L 278.948036 -47.717423 
L 279.167859 -47.747191 
L 279.386836 -47.721407 
L 279.605813 -47.681677 
L 279.825635 -47.754809 
L 280.045458 -47.775788 
L 280.264435 -47.660464 
L 280.483412 -47.654135 
L 280.702389 -47.638782 
L 280.922212 -47.649681 
L 281.141189 -47.616631 
L 281.361012 -47.629171 
L 281.580834 -47.617803 
L 281.799811 -47.595183 
L 282.019634 -47.54596 
L 282.238611 -47.479273 
L 282.458434 -47.514902 
L 282.677411 -47.462865 
L 282.897233 -47.507049 
L 283.11621 -47.472827 
L 283.336033 -47.467436 
L 283.55501 -47.380708 
L 283.773987 -47.391139 
L 283.992964 -47.371567 
L 284.212787 -47.318944 
L 284.431764 -47.225653 
L 284.651586 -47.247101 
L 284.870564 -47.207253 
L 285.090386 -47.145723 
L 285.309363 -47.185336 
L 285.529186 -47.258938 
L 285.748163 -47.306638 
L 285.967986 -47.338047 
L 286.186963 -47.298434 
L 286.407631 -47.216863 
L 286.627453 -47.211589 
L 286.84643 -47.207253 
L 287.067098 -47.232568 
L 287.286076 -47.270072 
L 287.505053 -47.244874 
L 287.72403 -47.19061 
L 287.943852 -47.191196 
L 288.162829 -47.19858 
L 288.382652 -47.160256 
L 288.601629 -47.108805 
L 288.820606 -47.107633 
L 289.040429 -47.101773 
L 289.260251 -47.130604 
L 289.479229 -47.175726 
L 289.699051 -47.151114 
L 289.918874 -47.200338 
L 290.138696 -47.215574 
L 290.357673 -47.208776 
L 290.577496 -47.173734 
L 290.797319 -47.118533 
L 291.01545 -47.064269 
L 291.235273 -46.993832 
L 291.455095 -46.961602 
L 291.674072 -46.994887 
L 291.89305 -47.014811 
L 292.112872 -47.086303 
L 292.332695 -47.113024 
L 292.551672 -47.17221 
L 292.770649 -47.132479 
L 292.989626 -47.166467 
L 293.209449 -47.240889 
L 293.428426 -47.238545 
L 293.647403 -47.30992 
L 293.867225 -47.275697 
L 294.086202 -47.385044 
L 294.306025 -47.48525 
L 294.525002 -47.544202 
L 294.746516 -47.597176 
L 294.965493 -47.606435 
L 295.185315 -47.627062 
L 295.405138 -47.660464 
L 295.624115 -47.65683 
L 295.843092 -47.60913 
L 296.062069 -47.580651 
L 296.283583 -47.543147 
L 296.503405 -47.470483 
L 296.723228 -47.382583 
L 296.942205 -47.354338 
L 297.161182 -47.377309 
L 297.381005 -47.339571 
L 297.600827 -47.339571 
L 297.819804 -47.31285 
L 298.039627 -47.263743 
L 298.258604 -47.236553 
L 298.478427 -47.219793 
L 298.697404 -47.239717 
L 298.917226 -47.215105 
L 299.136203 -47.194595 
L 299.356026 -47.274056 
L 299.575003 -47.319178 
L 299.794826 -47.245694 
L 300.014648 -47.263626 
L 300.234471 -47.29691 
L 300.449221 -47.305349 
L 300.668198 -47.318827 
L 300.88802 -47.363011 
L 301.107843 -47.421728 
L 301.32682 -47.354221 
L 301.545797 -47.351174 
L 301.766465 -47.391022 
L 301.985442 -47.455716 
L 302.205265 -47.438839 
L 302.424242 -47.453958 
L 302.644065 -47.476577 
L 302.863042 -47.50658 
L 303.082864 -47.451028 
L 303.300996 -47.526036 
L 303.520818 -47.563422 
L 303.739796 -47.568931 
L 303.958773 -47.537638 
L 304.17775 -47.541858 
L 304.397572 -47.572681 
L 304.616549 -47.547483 
L 304.836372 -47.521699 
L 305.054504 -47.553695 
L 305.274326 -47.570103 
L 305.493303 -47.564829 
L 305.713126 -47.634914 
L 305.932948 -47.664214 
L 306.151926 -47.681911 
L 306.370903 -47.663159 
L 306.590725 -47.674527 
L 306.809702 -47.627999 
L 307.029525 -47.702538 
L 307.248502 -47.783523 
L 307.468325 -47.820324 
L 307.687302 -47.840013 
L 307.907124 -47.80333 
L 308.125256 -47.783054 
L 308.345079 -47.74684 
L 308.56321 -47.740276 
L 308.782187 -47.791375 
L 309.00201 -47.764068 
L 309.220987 -47.743792 
L 309.441655 -47.850678 
L 309.660632 -47.889237 
L 309.879609 -47.904708 
L 310.099432 -47.986161 
L 310.099432 -47.986161 
L 310.099432 -47.986161 
L 309.879609 -47.904708 
L 309.660632 -47.889237 
L 309.441655 -47.850678 
L 309.220987 -47.743792 
L 309.00201 -47.764068 
L 308.782187 -47.791375 
L 308.56321 -47.740276 
L 308.345079 -47.74684 
L 308.125256 -47.783054 
L 307.907124 -47.80333 
L 307.687302 -47.840013 
L 307.468325 -47.820324 
L 307.248502 -47.783523 
L 307.029525 -47.702538 
L 306.809702 -47.627999 
L 306.590725 -47.674527 
L 306.370903 -47.663159 
L 306.151926 -47.681911 
L 305.932948 -47.664214 
L 305.713126 -47.634914 
L 305.493303 -47.564829 
L 305.274326 -47.570103 
L 305.054504 -47.553695 
L 304.836372 -47.521699 
L 304.616549 -47.547483 
L 304.397572 -47.572681 
L 304.17775 -47.541858 
L 303.958773 -47.537638 
L 303.739796 -47.568931 
L 303.520818 -47.563422 
L 303.300996 -47.526036 
L 303.082864 -47.451028 
L 302.863042 -47.50658 
L 302.644065 -47.476577 
L 302.424242 -47.453958 
L 302.205265 -47.438839 
L 301.985442 -47.455716 
L 301.766465 -47.391022 
L 301.545797 -47.351174 
L 301.32682 -47.354221 
L 301.107843 -47.421728 
L 300.88802 -47.363011 
L 300.668198 -47.318827 
L 300.449221 -47.305349 
L 300.234471 -47.29691 
L 300.014648 -47.263626 
L 299.794826 -47.245694 
L 299.575003 -47.319178 
L 299.356026 -47.274056 
L 299.136203 -47.194595 
L 298.917226 -47.215105 
L 298.697404 -47.239717 
L 298.478427 -47.219793 
L 298.258604 -47.236553 
L 298.039627 -47.263743 
L 297.819804 -47.31285 
L 297.600827 -47.339571 
L 297.381005 -47.339571 
L 297.161182 -47.377309 
L 296.942205 -47.354338 
L 296.723228 -47.382583 
L 296.503405 -47.470483 
L 296.283583 -47.543147 
L 296.062069 -47.580651 
L 295.843092 -47.60913 
L 295.624115 -47.65683 
L 295.405138 -47.660464 
L 295.185315 -47.627062 
L 294.965493 -47.606435 
L 294.746516 -47.597176 
L 294.525002 -47.544202 
L 294.306025 -47.48525 
L 294.086202 -47.385044 
L 293.867225 -47.275697 
L 293.647403 -47.30992 
L 293.428426 -47.238545 
L 293.209449 -47.240889 
L 292.989626 -47.166467 
L 292.770649 -47.132479 
L 292.551672 -47.17221 
L 292.332695 -47.113024 
L 292.112872 -47.086303 
L 291.89305 -47.014811 
L 291.674072 -46.994887 
L 291.455095 -46.961602 
L 291.235273 -46.993832 
L 291.01545 -47.064269 
L 290.797319 -47.118533 
L 290.577496 -47.173734 
L 290.357673 -47.208776 
L 290.138696 -47.215574 
L 289.918874 -47.200338 
L 289.699051 -47.151114 
L 289.479229 -47.175726 
L 289.260251 -47.130604 
L 289.040429 -47.101773 
L 288.820606 -47.107633 
L 288.601629 -47.108805 
L 288.382652 -47.160256 
L 288.162829 -47.19858 
L 287.943852 -47.191196 
L 287.72403 -47.19061 
L 287.505053 -47.244874 
L 287.286076 -47.270072 
L 287.067098 -47.232568 
L 286.84643 -47.207253 
L 286.627453 -47.211589 
L 286.407631 -47.216863 
L 286.186963 -47.298434 
L 285.967986 -47.338047 
L 285.748163 -47.306638 
L 285.529186 -47.258938 
L 285.309363 -47.185336 
L 285.090386 -47.145723 
L 284.870564 -47.207253 
L 284.651586 -47.247101 
L 284.431764 -47.225653 
L 284.212787 -47.318944 
L 283.992964 -47.371567 
L 283.773987 -47.391139 
L 283.55501 -47.380708 
L 283.336033 -47.467436 
L 283.11621 -47.472827 
L 282.897233 -47.507049 
L 282.677411 -47.462865 
L 282.458434 -47.514902 
L 282.238611 -47.479273 
L 282.019634 -47.54596 
L 281.799811 -47.595183 
L 281.580834 -47.617803 
L 281.361012 -47.629171 
L 281.141189 -47.616631 
L 280.922212 -47.649681 
L 280.702389 -47.638782 
L 280.483412 -47.654135 
L 280.264435 -47.660464 
L 280.045458 -47.775788 
L 279.825635 -47.754809 
L 279.605813 -47.681677 
L 279.386836 -47.721407 
L 279.167859 -47.747191 
L 278.948036 -47.717423 
L 278.729059 -47.732893 
L 278.510082 -47.688123 
L 278.291105 -47.66269 
L 278.071282 -47.675699 
L 277.852305 -47.768873 
L 277.632482 -47.802744 
L 277.413505 -47.781062 
L 277.193683 -47.795829 
L 276.97386 -47.797939 
L 276.754883 -47.770631 
L 276.535906 -47.778718 
L 276.316929 -47.663159 
L 276.097952 -47.603973 
L 275.878129 -47.53506 
L 275.658307 -47.451145 
L 275.43933 -47.382583 
L 275.219507 -47.331484 
L 275.00053 -47.29609 
L 274.781553 -47.295152 
L 274.56173 -47.303356 
L 274.341908 -47.294098 
L 274.12293 -47.259524 
L 273.903108 -47.254836 
L 273.684131 -47.178539 
L 273.463463 -47.147364 
L 273.244486 -47.093569 
L 273.025509 -47.016803 
L 272.805686 -47.014928 
L 272.585863 -47.053487 
L 272.366886 -46.943671 
L 272.147064 -47.013522 
L 271.927241 -46.919762 
L 271.708264 -46.877336 
L 271.489287 -46.885657 
L 271.269464 -46.873117 
L 271.050487 -46.867491 
L 270.83151 -46.803617 
L 270.611688 -46.77924 
L 270.391865 -46.825768 
L 270.172888 -46.797171 
L 269.953065 -46.755683 
L 269.735779 -46.738337 
L 269.516802 -46.767637 
L 269.297825 -46.861514 
L 269.07462 -46.855537 
L 268.854798 -46.850966 
L 268.635821 -46.848622 
L 268.415998 -46.811118 
L 268.197021 -46.789671 
L 267.978044 -46.797523 
L 267.759067 -46.793304 
L 267.54009 -46.758495 
L 267.320267 -46.771973 
L 267.10129 -46.795648 
L 266.882313 -46.754862 
L 266.663336 -46.673291 
L 266.443513 -46.634264 
L 266.224536 -46.676221 
L 266.004714 -46.770919 
L 265.785736 -46.748416 
L 265.566759 -46.854951 
L 265.346937 -46.857412 
L 265.12796 -46.852958 
L 264.908137 -46.87089 
L 264.68916 -46.861514 
L 264.470183 -46.881086 
L 264.251206 -46.927028 
L 264.032229 -47.016217 
L 263.812406 -47.084896 
L 263.593429 -47.069192 
L 263.374452 -46.930896 
L 263.154629 -46.962657 
L 262.935652 -46.93617 
L 262.71583 -46.935467 
L 262.496007 -46.898666 
L 262.27703 -46.893861 
L 262.058053 -46.827174 
L 261.83823 -46.794358 
L 261.619253 -46.819908 
L 261.400276 -46.769512 
L 261.181299 -46.749354 
L 260.962322 -46.688293 
L 260.742499 -46.645749 
L 260.523522 -46.598635 
L 260.3037 -46.575078 
L 260.084722 -46.569101 
L 259.865745 -46.540035 
L 259.646768 -46.581641 
L 259.426946 -46.592072 
L 259.207969 -46.535816 
L 258.988991 -46.537223 
L 258.769169 -46.501711 
L 258.550192 -46.464793 
L 258.335442 -46.438541 
L 258.115619 -46.464559 
L 257.895797 -46.412639 
L 257.67682 -46.416741 
L 257.456997 -46.397403 
L 257.237175 -46.339038 
L 257.018197 -46.349117 
L 256.798375 -46.37244 
L 256.579398 -46.441939 
L 256.362112 -46.457644 
L 256.143135 -46.423891 
L 255.924157 -46.382167 
L 255.70518 -46.306808 
L 255.485358 -46.273523 
L 255.266381 -46.276805 
L 255.046558 -46.273055 
L 254.827581 -46.27493 
L 254.607758 -46.210001 
L 254.387936 -46.167927 
L 254.168959 -46.222307 
L 253.949982 -46.196758 
L 253.731004 -46.193945 
L 253.511182 -46.237895 
L 253.291359 -46.215978 
L 253.072382 -46.234144 
L 252.85256 -46.265085 
L 252.633583 -46.122688 
L 252.414605 -46.118351 
L 252.195628 -46.160543 
L 251.975806 -46.176717 
L 251.756829 -46.090926 
L 251.537006 -46.084832 
L 251.318029 -46.122922 
L 251.098206 -46.07698 
L 250.879229 -46.118937 
L 250.660252 -46.179529 
L 250.441275 -46.083543 
L 250.221452 -46.100771 
L 250.002475 -46.145073 
L 249.782653 -46.132064 
L 249.56283 -46.124563 
L 249.343853 -46.124797 
L 249.124876 -46.179881 
L 248.905053 -46.204024 
L 248.684385 -46.198516 
L 248.465408 -46.197813 
L 248.246431 -46.156207 
L 248.026609 -46.176717 
L 247.806786 -46.281845 
L 247.587809 -46.287705 
L 247.368832 -46.258756 
L 247.149009 -46.268015 
L 246.930032 -46.272234 
L 246.711055 -46.239184 
L 246.492078 -46.221956 
L 246.272255 -46.289228 
L 246.053278 -46.294854 
L 245.833456 -46.331186 
L 245.613633 -46.358376 
L 245.394656 -46.395763 
L 245.175679 -46.415218 
L 244.960084 -46.441822 
L 244.741106 -46.348531 
L 244.521284 -46.267195 
L 244.302307 -46.219963 
L 244.082484 -46.354157 
L 243.862662 -46.353336 
L 243.643685 -46.373495 
L 243.424707 -46.357087 
L 243.20573 -46.349234 
L 242.985908 -46.28958 
L 242.766085 -46.313606 
L 242.546263 -46.396583 
L 242.327285 -46.384629 
L 242.107463 -46.371854 
L 241.888486 -46.386269 
L 241.669509 -46.356266 
L 241.449686 -46.402326 
L 241.230709 -46.424125 
L 241.011732 -46.411467 
L 240.792755 -46.374901 
L 240.572932 -46.401037 
L 240.353955 -46.453894 
L 240.134133 -46.485655 
L 239.91431 -46.576367 
L 239.698715 -46.610824 
L 239.479738 -46.6863 
L 239.259915 -46.754745 
L 239.040938 -46.798929 
L 238.821115 -46.778537 
L 238.601293 -46.807368 
L 238.382316 -46.873703 
L 238.163339 -46.891283 
L 237.944361 -46.836199 
L 237.724539 -46.825182 
L 237.504716 -46.82987 
L 237.284894 -46.737165 
L 237.065071 -46.806313 
L 236.845249 -46.799046 
L 236.625426 -46.852724 
L 236.407294 -46.852489 
L 236.187472 -46.922458 
L 235.968495 -46.899369 
L 235.749518 -46.972267 
L 235.529695 -46.951758 
L 235.309872 -46.97508 
L 235.09005 -46.974025 
L 234.871073 -46.974729 
L 234.652096 -46.995004 
L 234.433118 -46.958672 
L 234.213296 -46.969337 
L 233.993473 -46.896908 
L 233.777033 -46.893041 
L 233.55721 -46.959141 
L 233.338233 -46.965822 
L 233.11841 -46.902182 
L 232.899433 -46.901362 
L 232.679611 -46.791194 
L 232.460634 -46.767989 
L 232.240811 -46.751346 
L 232.021834 -46.771036 
L 231.802011 -46.731774 
L 231.583034 -46.709975 
L 231.364057 -46.641413 
L 231.14508 -46.479678 
L 230.925257 -46.449674 
L 230.70628 -46.409592 
L 230.486458 -46.341382 
L 230.266635 -46.188554 
L 230.047658 -46.125618 
L 229.828681 -46.085535 
L 229.608858 -46.005722 
L 229.389881 -45.917471 
L 229.170904 -45.788434 
L 228.951927 -45.770972 
L 228.73295 -45.761361 
L 228.513973 -45.738742 
L 228.29415 -45.748469 
L 228.074328 -45.682955 
L 227.855351 -45.678501 
L 227.636373 -45.607478 
L 227.416551 -45.576186 
L 227.197574 -45.595055 
L 226.977751 -45.634082 
L 226.757929 -45.618261 
L 226.53557 -45.576655 
L 226.316593 -45.527314 
L 226.09677 -45.455939 
L 225.877793 -45.413044 
L 225.65797 -45.379877 
L 225.438993 -45.380463 
L 225.219171 -45.466135 
L 224.999348 -45.415036 
L 224.779525 -45.401793 
L 224.560548 -45.343662 
L 224.340726 -45.31694 
L 224.121749 -45.291977 
L 223.902772 -45.274983 
L 223.682949 -45.225759 
L 223.463972 -45.170441 
L 223.248377 -45.170206 
L 223.028554 -45.178762 
L 222.808731 -45.139852 
L 222.589754 -45.1102 
L 222.369932 -45.088401 
L 222.150955 -45.093323 
L 221.931132 -45.08676 
L 221.71131 -45.096371 
L 221.492332 -45.060508 
L 221.27251 -45.095433 
L 221.053533 -45.0516 
L 220.83371 -45.009995 
L 220.614733 -44.973546 
L 220.395756 -44.853064 
L 220.175933 -44.929127 
L 219.956956 -44.791183 
L 219.737134 -44.726489 
L 219.518157 -44.670936 
L 219.299179 -44.627689 
L 219.080202 -44.619134 
L 218.861225 -44.642925 
L 218.642248 -44.593584 
L 218.420735 -44.568269 
L 218.200912 -44.630268 
L 217.981935 -44.646676 
L 217.762112 -44.627103 
L 217.54229 -44.635307 
L 217.323313 -44.589131 
L 217.104336 -44.598155 
L 216.887049 -44.686641 
L 216.668072 -44.716761 
L 216.445713 -44.588896 
L 216.225891 -44.578466 
L 216.006914 -44.573309 
L 215.787091 -44.577762 
L 215.567268 -44.536157 
L 215.348291 -44.559948 
L 215.129314 -44.586201 
L 214.909492 -44.52596 
L 214.690515 -44.514592 
L 214.470692 -44.524085 
L 214.250869 -44.510607 
L 214.031892 -44.512951 
L 213.81207 -44.542017 
L 213.593093 -44.519749 
L 213.374115 -44.515881 
L 213.154293 -44.453062 
L 212.93447 -44.427864 
L 212.714648 -44.377 
L 212.494825 -44.351333 
L 212.275848 -44.31922 
L 212.056025 -44.318048 
L 211.837048 -44.376179 
L 211.618071 -44.377937 
L 211.398249 -44.479198 
L 211.179272 -44.345824 
L 210.959449 -44.314063 
L 210.739626 -44.307852 
L 210.520649 -44.299648 
L 210.300827 -44.314063 
L 210.083541 -44.313712 
L 209.863718 -44.266832 
L 209.644741 -44.206357 
L 209.425764 -44.238235 
L 209.205096 -44.245033 
L 208.986119 -44.226515 
L 208.766296 -44.293436 
L 208.547319 -44.25183 
L 208.328342 -44.343363 
L 208.109365 -44.359302 
L 207.892924 -44.36317 
L 207.673101 -44.38157 
L 207.454124 -44.373601 
L 207.235147 -44.373835 
L 207.015325 -44.31629 
L 206.795502 -44.250658 
L 206.576525 -44.247494 
L 206.357548 -44.253237 
L 206.138571 -44.25476 
L 205.918748 -44.274215 
L 205.698926 -44.294843 
L 205.479949 -44.329651 
L 205.260126 -44.30375 
L 205.041149 -44.376414 
L 204.823017 -44.313829 
L 204.603195 -44.230383 
L 204.384218 -44.18362 
L 204.164395 -44.214326 
L 203.945418 -44.200849 
L 203.726441 -44.18866 
L 203.506618 -44.172955 
L 203.286796 -44.173893 
L 203.067818 -44.233196 
L 202.847996 -44.286756 
L 202.629019 -44.342191 
L 202.409196 -44.358834 
L 202.190219 -44.274567 
L 201.970397 -44.161469 
L 201.751419 -44.101112 
L 201.527369 -44.087868 
L 201.308392 -44.09994 
L 201.089415 -44.080133 
L 200.870438 -44.131818 
L 200.650616 -44.118692 
L 200.430793 -44.134162 
L 200.21097 -44.176002 
L 199.991993 -44.111308 
L 199.776398 -44.075445 
L 199.557421 -44.024229 
L 199.337598 -43.961644 
L 199.117776 -43.922148 
L 198.897953 -43.962933 
L 198.678131 -43.946057 
L 198.458308 -43.979107 
L 198.239331 -43.984381 
L 198.020354 -43.946174 
L 197.801377 -43.971137 
L 197.581554 -43.977232 
L 197.361732 -43.947697 
L 197.142755 -43.923085 
L 196.922932 -43.969262 
L 196.703955 -44.037003 
L 196.484132 -44.067944 
L 196.26431 -44.093611 
L 196.045333 -43.988834 
L 195.826355 -44.053177 
L 195.606533 -44.02751 
L 195.387556 -44.057279 
L 195.167733 -44.035831 
L 194.947911 -44.093025 
L 194.728088 -44.047786 
L 194.508265 -44.104628 
L 194.288443 -44.11541 
L 194.069466 -44.075797 
L 193.849643 -44.02001 
L 193.629821 -44.051185 
L 193.409998 -44.007821 
L 193.191866 -44.120567 
L 192.972889 -44.211631 
L 192.752221 -44.242689 
L 192.532399 -44.298241 
L 192.313422 -44.311251 
L 192.093599 -44.334339 
L 191.873776 -44.321213 
L 191.654799 -44.356841 
L 191.434977 -44.412863 
L 191.216 -44.416613 
L 190.996177 -44.449898 
L 190.776354 -44.359654 
L 190.557377 -44.352505 
L 190.337555 -44.279138 
L 190.118578 -44.24726 
L 189.898755 -44.214444 
L 189.678932 -44.1719 
L 189.459955 -44.19159 
L 189.240133 -44.134514 
L 189.021156 -44.1133 
L 188.802179 -44.160063 
L 188.582356 -44.170377 
L 188.361688 -44.183151 
L 188.141865 -44.263785 
L 187.922043 -44.243509 
L 187.703066 -44.263433 
L 187.483243 -44.337972 
L 187.264266 -44.308438 
L 187.044443 -44.313829 
L 186.821239 -44.296132 
L 186.602262 -44.275973 
L 186.382439 -44.127013 
L 186.162617 -44.075562 
L 185.942794 -44.143186 
L 185.723817 -44.110605 
L 185.50484 -44.12045 
L 185.285017 -44.060795 
L 185.06604 -44.020361 
L 184.846218 -43.950627 
L 184.626395 -43.878081 
L 184.405727 -43.779516 
L 184.185904 -43.742246 
L 183.966927 -43.789126 
L 183.747105 -43.83167 
L 183.527282 -43.827216 
L 183.308305 -43.847843 
L 183.088483 -43.800612 
L 182.86866 -43.776469 
L 182.649683 -43.76346 
L 182.42986 -43.724784 
L 182.210883 -43.667004 
L 181.991906 -43.689155 
L 181.772929 -43.646026 
L 181.557334 -43.630907 
L 181.336666 -43.646963 
L 181.117689 -43.654816 
L 180.897866 -43.665832 
L 180.678043 -43.588715 
L 180.458221 -43.532459 
L 180.239244 -43.447372 
L 180.020267 -43.330524 
L 179.800444 -43.306733 
L 179.580621 -43.340135 
L 179.360799 -43.295364 
L 179.140976 -43.253759 
L 178.921999 -43.252235 
L 178.703022 -43.229615 
L 178.483199 -43.199847 
L 178.264222 -43.224107 
L 178.0444 -43.149568 
L 177.825423 -43.195628 
L 177.606446 -43.212856 
L 177.386623 -43.205004 
L 177.167646 -43.174883 
L 176.949514 -43.149568 
L 176.730537 -43.099993 
L 176.510715 -43.110423 
L 176.291737 -43.005295 
L 176.071915 -43.011038 
L 175.852092 -43.084757 
L 175.63227 -43.122612 
L 175.411602 -43.081475 
L 175.192625 -43.107728 
L 174.973647 -43.107845 
L 174.753825 -43.156717 
L 174.534848 -43.126011 
L 174.315025 -42.94107 
L 174.095203 -42.920443 
L 173.876226 -42.967792 
L 173.656403 -43.044557 
L 173.437426 -43.089914 
L 173.217603 -43.024633 
L 172.998626 -43.011507 
L 172.778804 -42.993341 
L 172.558981 -42.996505 
L 172.339158 -42.936148 
L 172.120181 -42.993927 
L 171.900359 -42.973417 
L 171.681382 -42.988184 
L 171.461559 -42.955954 
L 171.242582 -42.987715 
L 171.023605 -42.994279 
L 170.802937 -42.991817 
L 170.58396 -43.051589 
L 170.364137 -43.008108 
L 170.14516 -43.052058 
L 169.925337 -43.087218 
L 169.705515 -43.031431 
L 169.485692 -43.061434 
L 169.26587 -43.109369 
L 169.046893 -43.171953 
L 168.82707 -43.204652 
L 168.607247 -43.215083 
L 168.387425 -43.273682 
L 168.168448 -43.313765 
L 167.949471 -43.341658 
L 167.729648 -43.285285 
L 167.510671 -43.239343 
L 167.290848 -43.176055 
L 167.071871 -43.152147 
L 166.852894 -43.089679 
L 166.633917 -43.097883 
L 166.414094 -43.160585 
L 166.195117 -43.259033 
L 165.97614 -43.231491 
L 165.757163 -43.264541 
L 165.537341 -43.316343 
L 165.319209 -43.351972 
L 165.096004 -43.342361 
L 164.876182 -43.346346 
L 164.657205 -43.33404 
L 164.438228 -43.290559 
L 164.218405 -43.229029 
L 163.999428 -43.231022 
L 163.779605 -43.309311 
L 163.560628 -43.338025 
L 163.341651 -43.368263 
L 163.121829 -43.420768 
L 162.902852 -43.407173 
L 162.683874 -43.39932 
L 162.464897 -43.419596 
L 162.245075 -43.227389 
L 162.026098 -43.222232 
L 161.806275 -43.102337 
L 161.587298 -43.108665 
L 161.367475 -43.100461 
L 161.147653 -43.012327 
L 160.929521 -43.029673 
L 160.709699 -42.97834 
L 160.490721 -42.92267 
L 160.270899 -42.851178 
L 160.052767 -42.760465 
L 159.832945 -42.756129 
L 159.614813 -42.80172 
L 159.39499 -42.797852 
L 159.177704 -42.769373 
L 158.961264 -42.757301 
L 158.742286 -42.830785 
L 158.522464 -42.788711 
L 158.303487 -42.769959 
L 158.083664 -42.765388 
L 157.864687 -42.7205 
L 157.644865 -42.704444 
L 157.425887 -42.759645 
L 157.206065 -42.834418 
L 156.987088 -42.901925 
L 156.768111 -42.899699 
L 156.548288 -42.87954 
L 156.328465 -42.809572 
L 156.109488 -42.694951 
L 155.889666 -42.687567 
L 155.671534 -42.730931 
L 155.451712 -42.736557 
L 155.232734 -42.852116 
L 155.013757 -42.912708 
L 154.793935 -42.943648 
L 154.574112 -42.782147 
L 154.355135 -42.723665 
L 154.136158 -42.679832 
L 153.917181 -42.704561 
L 153.698204 -42.742417 
L 153.479227 -42.716281 
L 153.26025 -42.732806 
L 153.0362 -42.697881 
L 152.817223 -42.709484 
L 152.598245 -42.706671 
L 152.378423 -42.695185 
L 152.1586 -42.682059 
L 151.939623 -42.670456 
L 151.719801 -42.722493 
L 151.500823 -42.768201 
L 151.281001 -42.807814 
L 151.062024 -42.853288 
L 150.842201 -42.829613 
L 150.622379 -42.899347 
L 150.403402 -42.912473 
L 150.183579 -42.939781 
L 149.964602 -42.835825 
L 149.745625 -42.841333 
L 149.525802 -42.84438 
L 149.30598 -42.802423 
L 149.086157 -42.840396 
L 148.866334 -42.832074 
L 148.647357 -42.845787 
L 148.42838 -42.830668 
L 148.208558 -42.794805 
L 147.989581 -42.79879 
L 147.770603 -42.862546 
L 147.550781 -42.825628 
L 147.331804 -42.764216 
L 147.111981 -42.818128 
L 146.89385 -42.737494 
L 146.674027 -42.762458 
L 146.45505 -42.748394 
L 146.236073 -42.739018 
L 146.01625 -42.794688 
L 145.797273 -42.755309 
L 145.57745 -42.72343 
L 145.357628 -42.594394 
L 145.138651 -42.521847 
L 144.918828 -42.513526 
L 144.699006 -42.443909 
L 144.480029 -42.431603 
L 144.261051 -42.491844 
L 144.041229 -42.467232 
L 143.822252 -42.475905 
L 143.603275 -42.450824 
L 143.384298 -42.413789 
L 143.164475 -42.489734 
L 142.945498 -42.502158 
L 142.726521 -42.425509 
L 142.506698 -42.422931 
L 142.287721 -42.402186 
L 142.067898 -42.277603 
L 141.844694 -42.203533 
L 141.625717 -42.221699 
L 141.40674 -42.276548 
L 141.186917 -42.350267 
L 140.967095 -42.349329 
L 140.748118 -42.366675 
L 140.528295 -42.362924 
L 140.309318 -42.40078 
L 140.090341 -42.418477 
L 139.871364 -42.416133 
L 139.651541 -42.379567 
L 139.432564 -42.367026 
L 139.212741 -42.393045 
L 138.993764 -42.331046 
L 138.773942 -42.360346 
L 138.554965 -42.395623 
L 138.335142 -42.433361 
L 138.085728 -42.500165 
L 137.866751 -42.525715 
L 137.647774 -42.518683 
L 137.427951 -42.455629 
L 137.208974 -42.355775 
L 136.989997 -42.420352 
L 136.770174 -42.468521 
L 136.550352 -42.598027 
L 136.331375 -42.566969 
L 136.111552 -42.572008 
L 135.891729 -42.575876 
L 135.672752 -42.627678 
L 135.453775 -42.666471 
L 135.233953 -42.71007 
L 135.014976 -42.756481 
L 134.795153 -42.73433 
L 134.576176 -42.655455 
L 134.357199 -42.618302 
L 134.137376 -42.574118 
L 133.918399 -42.567555 
L 133.698577 -42.545287 
L 133.479599 -42.539427 
L 133.259777 -42.562047 
L 133.0408 -42.599433 
L 132.821823 -42.650063 
L 132.602 -42.632835 
L 132.383023 -42.578806 
L 132.1632 -42.513526 
L 131.944223 -42.517628 
L 131.724401 -42.416719 
L 131.505424 -42.451176 
L 131.286446 -42.399959 
L 131.063242 -42.440511 
L 130.843419 -42.490906 
L 130.624442 -42.469693 
L 130.40462 -42.578337 
L 130.185643 -42.557359 
L 129.96582 -42.473326 
L 129.746843 -42.416367 
L 129.527866 -42.384138 
L 129.308889 -42.395271 
L 129.089066 -42.285573 
L 128.870089 -42.311474 
L 128.650266 -42.20072 
L 128.430444 -42.092076 
L 128.211467 -42.10321 
L 127.99249 -42.135557 
L 127.772667 -42.043438 
L 127.55369 -41.999371 
L 127.333867 -42.004294 
L 127.11489 -41.923191 
L 126.895913 -41.892837 
L 126.676936 -41.853809 
L 126.457114 -41.854044 
L 126.237291 -41.824627 
L 126.018314 -41.917332 
L 125.800182 -41.979447 
L 125.584587 -41.953077 
L 125.36561 -42.005114 
L 125.145787 -41.944405 
L 124.92681 -41.914519 
L 124.710369 -41.830955 
L 124.491392 -41.816774 
L 124.27157 -41.771418 
L 124.052593 -41.801773 
L 123.83277 -41.837636 
L 123.613793 -41.802242 
L 123.39397 -41.830838 
L 123.174993 -41.829666 
L 122.954325 -41.809625 
L 122.735348 -41.826971 
L 122.516371 -41.822751 
L 122.297394 -41.755596 
L 122.077571 -41.601127 
L 121.858594 -41.604526 
L 121.638772 -41.650351 
L 121.419795 -41.721608 
L 121.199972 -41.767316 
L 120.980995 -41.793334 
L 120.762018 -41.873147 
L 120.543041 -41.929637 
L 120.324064 -42.04168 
L 120.104241 -42.102038 
L 119.884418 -42.192751 
L 119.664596 -42.266704 
L 119.443928 -42.232364 
L 119.224105 -42.273384 
L 119.004283 -42.305145 
L 118.785306 -42.200134 
L 118.566328 -42.137667 
L 118.346506 -42.11868 
L 118.127529 -42.132862 
L 117.907706 -42.17353 
L 117.687884 -42.25346 
L 117.465525 -42.328702 
L 117.246547 -42.374879 
L 117.02757 -42.444964 
L 116.808593 -42.38824 
L 116.588771 -42.312763 
L 116.369794 -42.222519 
L 116.149971 -42.210448 
L 115.930148 -42.288971 
L 115.711171 -42.362221 
L 115.491349 -42.401131 
L 115.272372 -42.468756 
L 115.052549 -42.576345 
L 114.833572 -42.692138 
L 114.614595 -42.754254 
L 114.395618 -42.837583 
L 114.176641 -42.945289 
L 113.956818 -42.856569 
L 113.73615 -42.797032 
L 113.517173 -42.733158 
L 113.29735 -42.721204 
L 113.077528 -42.832543 
L 112.858551 -42.825746 
L 112.638728 -42.774178 
L 112.419751 -42.780741 
L 112.199928 -42.808166 
L 111.980106 -42.786718 
L 111.761129 -42.71968 
L 111.542152 -42.700928 
L 111.323174 -42.603418 
L 111.09997 -42.573298 
L 110.880147 -42.593222 
L 110.66117 -42.623928 
L 110.441348 -42.678191 
L 110.222371 -42.526183 
L 110.003394 -42.595566 
L 109.783571 -42.71968 
L 109.563748 -42.809103 
L 109.343926 -42.85153 
L 109.124949 -42.758356 
L 108.905972 -42.741596 
L 108.686149 -42.66905 
L 108.467172 -42.669167 
L 108.248195 -42.714992 
L 108.028372 -42.762927 
L 107.80855 -42.871688 
L 107.587882 -42.838638 
L 107.368059 -42.790937 
L 107.148236 -42.686747 
L 106.928414 -42.648891 
L 106.708591 -42.53052 
L 106.489614 -42.508018 
L 106.270637 -42.528527 
L 106.050814 -42.531106 
L 105.831837 -42.539779 
L 105.61286 -42.553725 
L 105.393038 -42.59873 
L 105.173215 -42.558531 
L 104.953393 -42.457387 
L 104.734415 -42.432424 
L 104.515438 -42.364214 
L 104.295616 -42.32964 
L 104.076639 -42.169897 
L 103.856816 -42.02328 
L 103.637839 -41.958 
L 103.423089 -41.95882 
L 103.203267 -41.920379 
L 102.985135 -41.961985 
L 102.766158 -41.918972 
L 102.546335 -41.964446 
L 102.326513 -41.922606 
L 102.107536 -41.891899 
L 101.887713 -41.921902 
L 101.66789 -42.003239 
L 101.448068 -42.073324 
L 101.229091 -42.241271 
L 101.010114 -42.367261 
L 100.791137 -42.392693 
L 100.572159 -42.423282 
L 100.352337 -42.426798 
L 100.132514 -42.449652 
L 99.912692 -42.485164 
L 99.69456 -42.434885 
L 99.475583 -42.3539 
L 99.25576 -42.255218 
L 99.036783 -42.277369 
L 98.816961 -42.274204 
L 98.597984 -42.25264 
L 98.378161 -42.232012 
L 98.159184 -42.23377 
L 97.940207 -42.259203 
L 97.72123 -42.288385 
L 97.502253 -42.365034 
L 97.28243 -42.46817 
L 97.063453 -42.564391 
L 96.844476 -42.67866 
L 96.624653 -42.709015 
L 96.405676 -42.746401 
L 96.185854 -42.734799 
L 95.966876 -42.666589 
L 95.747899 -42.592753 
L 95.52554 -42.606231 
L 95.305718 -42.63975 
L 95.085895 -42.687333 
L 94.866918 -42.658385 
L 94.647941 -42.671394 
L 94.428118 -42.703741 
L 94.209141 -42.712765 
L 93.990164 -42.644438 
L 93.770342 -42.733744 
L 93.551364 -42.765974 
L 93.331542 -42.782616 
L 93.112565 -42.803126 
L 92.892742 -42.867 
L 92.67292 -42.908254 
L 92.453943 -42.970604 
L 92.234965 -43.000607 
L 92.015143 -43.112299 
L 91.796166 -43.09132 
L 91.577189 -43.07292 
L 91.357366 -42.984785 
L 91.138389 -42.845201 
L 90.919412 -42.849654 
L 90.700435 -42.822112 
L 90.480612 -42.889151 
L 90.261635 -42.932514 
L 90.042658 -42.922318 
L 89.82199 -42.92138 
L 89.603013 -42.832895 
L 89.384036 -42.81133 
L 89.164213 -42.879306 
L 88.945236 -42.886103 
L 88.726259 -42.868055 
L 88.507282 -42.87286 
L 88.288305 -42.879189 
L 88.068482 -42.826918 
L 87.84866 -42.772654 
L 87.633064 -42.639984 
L 87.414087 -42.554663 
L 87.19511 -42.490672 
L 86.976133 -42.464888 
L 86.75631 -42.474264 
L 86.537333 -42.497704 
L 86.31582 -42.636351 
L 86.096843 -42.620412 
L 85.877866 -42.622053 
L 85.658888 -42.591464 
L 85.439911 -42.631663 
L 85.220089 -42.717922 
L 85.001112 -42.767146 
L 84.781289 -42.800899 
L 84.561467 -42.823402 
L 84.342489 -42.700459 
L 84.123512 -42.673621 
L 83.90369 -42.632718 
L 83.684713 -42.662018 
L 83.465736 -42.654283 
L 83.246758 -42.610802 
L 83.026936 -42.645961 
L 82.807113 -42.66026 
L 82.588136 -42.662955 
L 82.369159 -42.665182 
L 82.149336 -42.703858 
L 81.931205 -42.774764 
L 81.711382 -42.828207 
L 81.492405 -42.866765 
L 81.271737 -42.862546 
L 81.05276 -42.837466 
L 80.832937 -42.839575 
L 80.613115 -42.758942 
L 80.394138 -42.672566 
L 80.175161 -42.679246 
L 79.956183 -42.703975 
L 79.736361 -42.733744 
L 79.517384 -42.762341 
L 79.297561 -42.75777 
L 79.078584 -42.678777 
L 78.858762 -42.461255 
L 78.639784 -42.413203 
L 78.420807 -42.407812 
L 78.20183 -42.431838 
L 77.982008 -42.415078 
L 77.762185 -42.434416 
L 77.543208 -42.483757 
L 77.323385 -42.538021 
L 77.104408 -42.502744 
L 76.884586 -42.50333 
L 76.666454 -42.41332 
L 76.446631 -42.416367 
L 76.227654 -42.389646 
L 76.007832 -42.326475 
L 75.788855 -42.276314 
L 75.569032 -42.239865 
L 75.34921 -42.284401 
L 75.129387 -42.369956 
L 74.91041 -42.459262 
L 74.690587 -42.379332 
L 74.47161 -42.275728 
L 74.251788 -42.288503 
L 74.03281 -42.214901 
L 73.812988 -42.204236 
L 73.594011 -42.253929 
L 73.375034 -42.316513 
L 73.160284 -42.387068 
L 72.941307 -42.45141 
L 72.72233 -42.472975 
L 72.502507 -42.504736 
L 72.28353 -42.485867 
L 72.063707 -42.457504 
L 71.843885 -42.390584 
L 71.624908 -42.346985 
L 71.405931 -42.346516 
L 71.186108 -42.282174 
L 70.967131 -42.306434 
L 70.748154 -42.285104 
L 70.528331 -42.367847 
L 70.309354 -42.379918 
L 70.089532 -42.409921 
L 69.870555 -42.433127 
L 69.651577 -42.518331 
L 69.430909 -42.551967 
L 69.211932 -42.544935 
L 68.99211 -42.551381 
L 68.773133 -42.498876 
L 68.55331 -42.481296 
L 68.334333 -42.396092 
L 68.11451 -42.501454 
L 67.895533 -42.593339 
L 67.677402 -42.675144 
L 67.458424 -42.797149 
L 67.239447 -42.910481 
L 67.019625 -42.885635 
L 66.800648 -42.857272 
L 66.580825 -42.895245 
L 66.361848 -42.867937 
L 66.142871 -42.84356 
L 65.923894 -42.72765 
L 65.704071 -42.607989 
L 65.484249 -42.545873 
L 65.265271 -42.513409 
L 65.045449 -42.527824 
L 64.825626 -42.487625 
L 64.606649 -42.516339 
L 64.387672 -42.560289 
L 64.168695 -42.556069 
L 63.949718 -42.545521 
L 63.729895 -42.63471 
L 63.510918 -42.676082 
L 63.291096 -42.722727 
L 63.071273 -42.569313 
L 62.85145 -42.474381 
L 62.633319 -42.38402 
L 62.413496 -42.298347 
L 62.194519 -42.198728 
L 61.974697 -42.14927 
L 61.755719 -42.080473 
L 61.536742 -41.880531 
L 61.31692 -41.785716 
L 61.097097 -41.660196 
L 60.87812 -41.568897 
L 60.658298 -41.439626 
L 60.43932 -41.293595 
L 60.219498 -41.204641 
L 60.000521 -41.219408 
L 59.780698 -41.239683 
L 59.562567 -41.281289 
L 59.342744 -41.370009 
L 59.123767 -41.44279 
L 58.903944 -41.455331 
L 58.684967 -41.278008 
L 58.465145 -41.149088 
L 58.246167 -40.995908 
L 58.026345 -40.930628 
L 57.807368 -40.913165 
L 57.587545 -40.875661 
L 57.368568 -40.834759 
L 57.149591 -40.743695 
L 56.923005 -40.740179 
L 56.463068 -40.468393 
z
" style="stroke: #1f77b4; stroke-opacity: 0.2"/>
    </defs>
    <g clip-path="url(#p6fbbf1d7b8)">
     <use xlink:href="#m84112b1f9c" x="0" y="236.39175" style="fill: #1f77b4; fill-opacity: 0.2; stroke: #1f77b4; stroke-opacity: 0.2"/>
    </g>
   </g>
   <g id="matplotlib.axis_1">
    <g id="xtick_1">
     <g id="line2d_1">
      <defs>
       <path id="m9240dca951" d="M 0 0 
L 0 3.5 
" style="stroke: #000000; stroke-width: 0.8"/>
      </defs>
      <g>
       <use xlink:href="#m9240dca951" x="56.428404" y="198.8355" style="stroke: #000000; stroke-width: 0.8"/>
      </g>
     </g>
     <g id="text_1">
      <!-- 0 -->
      <g transform="translate(53.247154 213.433938)scale(0.1 -0.1)">
       <defs>
        <path id="DejaVuSans-30" d="M 2034 4250 
Q 1547 4250 1301 3770 
Q 1056 3291 1056 2328 
Q 1056 1369 1301 889 
Q 1547 409 2034 409 
Q 2525 409 2770 889 
Q 3016 1369 3016 2328 
Q 3016 3291 2770 3770 
Q 2525 4250 2034 4250 
z
M 2034 4750 
Q 2819 4750 3233 4129 
Q 3647 3509 3647 2328 
Q 3647 1150 3233 529 
Q 2819 -91 2034 -91 
Q 1250 -91 836 529 
Q 422 1150 422 2328 
Q 422 3509 836 4129 
Q 1250 4750 2034 4750 
z
" transform="scale(0.015625)"/>
       </defs>
       <use xlink:href="#DejaVuSans-30"/>
      </g>
     </g>
    </g>
    <g id="xtick_2">
     <g id="line2d_2">
      <g>
       <use xlink:href="#m9240dca951" x="98.701977" y="198.8355" style="stroke: #000000; stroke-width: 0.8"/>
      </g>
     </g>
     <g id="text_2">
      <!-- 50 -->
      <g transform="translate(92.339477 213.433938)scale(0.1 -0.1)">
       <defs>
        <path id="DejaVuSans-35" d="M 691 4666 
L 3169 4666 
L 3169 4134 
L 1269 4134 
L 1269 2991 
Q 1406 3038 1543 3061 
Q 1681 3084 1819 3084 
Q 2600 3084 3056 2656 
Q 3513 2228 3513 1497 
Q 3513 744 3044 326 
Q 2575 -91 1722 -91 
Q 1428 -91 1123 -41 
Q 819 9 494 109 
L 494 744 
Q 775 591 1075 516 
Q 1375 441 1709 441 
Q 2250 441 2565 725 
Q 2881 1009 2881 1497 
Q 2881 1984 2565 2268 
Q 2250 2553 1709 2553 
Q 1456 2553 1204 2497 
Q 953 2441 691 2322 
L 691 4666 
z
" transform="scale(0.015625)"/>
       </defs>
       <use xlink:href="#DejaVuSans-35"/>
       <use xlink:href="#DejaVuSans-30" x="63.623047"/>
      </g>
     </g>
    </g>
    <g id="xtick_3">
     <g id="line2d_3">
      <g>
       <use xlink:href="#m9240dca951" x="140.975549" y="198.8355" style="stroke: #000000; stroke-width: 0.8"/>
      </g>
     </g>
     <g id="text_3">
      <!-- 100 -->
      <g transform="translate(131.431799 213.433938)scale(0.1 -0.1)">
       <defs>
        <path id="DejaVuSans-31" d="M 794 531 
L 1825 531 
L 1825 4091 
L 703 3866 
L 703 4441 
L 1819 4666 
L 2450 4666 
L 2450 531 
L 3481 531 
L 3481 0 
L 794 0 
L 794 531 
z
" transform="scale(0.015625)"/>
       </defs>
       <use xlink:href="#DejaVuSans-31"/>
       <use xlink:href="#DejaVuSans-30" x="63.623047"/>
       <use xlink:href="#DejaVuSans-30" x="127.246094"/>
      </g>
     </g>
    </g>
    <g id="xtick_4">
     <g id="line2d_4">
      <g>
       <use xlink:href="#m9240dca951" x="183.249122" y="198.8355" style="stroke: #000000; stroke-width: 0.8"/>
      </g>
     </g>
     <g id="text_4">
      <!-- 150 -->
      <g transform="translate(173.705372 213.433938)scale(0.1 -0.1)">
       <use xlink:href="#DejaVuSans-31"/>
       <use xlink:href="#DejaVuSans-35" x="63.623047"/>
       <use xlink:href="#DejaVuSans-30" x="127.246094"/>
      </g>
     </g>
    </g>
    <g id="xtick_5">
     <g id="line2d_5">
      <g>
       <use xlink:href="#m9240dca951" x="225.522695" y="198.8355" style="stroke: #000000; stroke-width: 0.8"/>
      </g>
     </g>
     <g id="text_5">
      <!-- 200 -->
      <g transform="translate(215.978945 213.433938)scale(0.1 -0.1)">
       <defs>
        <path id="DejaVuSans-32" d="M 1228 531 
L 3431 531 
L 3431 0 
L 469 0 
L 469 531 
Q 828 903 1448 1529 
Q 2069 2156 2228 2338 
Q 2531 2678 2651 2914 
Q 2772 3150 2772 3378 
Q 2772 3750 2511 3984 
Q 2250 4219 1831 4219 
Q 1534 4219 1204 4116 
Q 875 4013 500 3803 
L 500 4441 
Q 881 4594 1212 4672 
Q 1544 4750 1819 4750 
Q 2544 4750 2975 4387 
Q 3406 4025 3406 3419 
Q 3406 3131 3298 2873 
Q 3191 2616 2906 2266 
Q 2828 2175 2409 1742 
Q 1991 1309 1228 531 
z
" transform="scale(0.015625)"/>
       </defs>
       <use xlink:href="#DejaVuSans-32"/>
       <use xlink:href="#DejaVuSans-30" x="63.623047"/>
       <use xlink:href="#DejaVuSans-30" x="127.246094"/>
      </g>
     </g>
    </g>
    <g id="xtick_6">
     <g id="line2d_6">
      <g>
       <use xlink:href="#m9240dca951" x="267.796268" y="198.8355" style="stroke: #000000; stroke-width: 0.8"/>
      </g>
     </g>
     <g id="text_6">
      <!-- 250 -->
      <g transform="translate(258.252518 213.433938)scale(0.1 -0.1)">
       <use xlink:href="#DejaVuSans-32"/>
       <use xlink:href="#DejaVuSans-35" x="63.623047"/>
       <use xlink:href="#DejaVuSans-30" x="127.246094"/>
      </g>
     </g>
    </g>
    <g id="xtick_7">
     <g id="line2d_7">
      <g>
       <use xlink:href="#m9240dca951" x="310.06984" y="198.8355" style="stroke: #000000; stroke-width: 0.8"/>
      </g>
     </g>
     <g id="text_7">
      <!-- 300 -->
      <g transform="translate(300.52609 213.433938)scale(0.1 -0.1)">
       <defs>
        <path id="DejaVuSans-33" d="M 2597 2516 
Q 3050 2419 3304 2112 
Q 3559 1806 3559 1356 
Q 3559 666 3084 287 
Q 2609 -91 1734 -91 
Q 1441 -91 1130 -33 
Q 819 25 488 141 
L 488 750 
Q 750 597 1062 519 
Q 1375 441 1716 441 
Q 2309 441 2620 675 
Q 2931 909 2931 1356 
Q 2931 1769 2642 2001 
Q 2353 2234 1838 2234 
L 1294 2234 
L 1294 2753 
L 1863 2753 
Q 2328 2753 2575 2939 
Q 2822 3125 2822 3475 
Q 2822 3834 2567 4026 
Q 2313 4219 1838 4219 
Q 1578 4219 1281 4162 
Q 984 4106 628 3988 
L 628 4550 
Q 988 4650 1302 4700 
Q 1616 4750 1894 4750 
Q 2613 4750 3031 4423 
Q 3450 4097 3450 3541 
Q 3450 3153 3228 2886 
Q 3006 2619 2597 2516 
z
" transform="scale(0.015625)"/>
       </defs>
       <use xlink:href="#DejaVuSans-33"/>
       <use xlink:href="#DejaVuSans-30" x="63.623047"/>
       <use xlink:href="#DejaVuSans-30" x="127.246094"/>
      </g>
     </g>
    </g>
    <g id="text_8">
     <!-- Time [s] -->
     <g transform="translate(162.952344 227.112063)scale(0.1 -0.1)">
      <defs>
       <path id="DejaVuSans-54" d="M -19 4666 
L 3928 4666 
L 3928 4134 
L 2272 4134 
L 2272 0 
L 1638 0 
L 1638 4134 
L -19 4134 
L -19 4666 
z
" transform="scale(0.015625)"/>
       <path id="DejaVuSans-69" d="M 603 3500 
L 1178 3500 
L 1178 0 
L 603 0 
L 603 3500 
z
M 603 4863 
L 1178 4863 
L 1178 4134 
L 603 4134 
L 603 4863 
z
" transform="scale(0.015625)"/>
       <path id="DejaVuSans-6d" d="M 3328 2828 
Q 3544 3216 3844 3400 
Q 4144 3584 4550 3584 
Q 5097 3584 5394 3201 
Q 5691 2819 5691 2113 
L 5691 0 
L 5113 0 
L 5113 2094 
Q 5113 2597 4934 2840 
Q 4756 3084 4391 3084 
Q 3944 3084 3684 2787 
Q 3425 2491 3425 1978 
L 3425 0 
L 2847 0 
L 2847 2094 
Q 2847 2600 2669 2842 
Q 2491 3084 2119 3084 
Q 1678 3084 1418 2786 
Q 1159 2488 1159 1978 
L 1159 0 
L 581 0 
L 581 3500 
L 1159 3500 
L 1159 2956 
Q 1356 3278 1631 3431 
Q 1906 3584 2284 3584 
Q 2666 3584 2933 3390 
Q 3200 3197 3328 2828 
z
" transform="scale(0.015625)"/>
       <path id="DejaVuSans-65" d="M 3597 1894 
L 3597 1613 
L 953 1613 
Q 991 1019 1311 708 
Q 1631 397 2203 397 
Q 2534 397 2845 478 
Q 3156 559 3463 722 
L 3463 178 
Q 3153 47 2828 -22 
Q 2503 -91 2169 -91 
Q 1331 -91 842 396 
Q 353 884 353 1716 
Q 353 2575 817 3079 
Q 1281 3584 2069 3584 
Q 2775 3584 3186 3129 
Q 3597 2675 3597 1894 
z
M 3022 2063 
Q 3016 2534 2758 2815 
Q 2500 3097 2075 3097 
Q 1594 3097 1305 2825 
Q 1016 2553 972 2059 
L 3022 2063 
z
" transform="scale(0.015625)"/>
       <path id="DejaVuSans-20" transform="scale(0.015625)"/>
       <path id="DejaVuSans-5b" d="M 550 4863 
L 1875 4863 
L 1875 4416 
L 1125 4416 
L 1125 -397 
L 1875 -397 
L 1875 -844 
L 550 -844 
L 550 4863 
z
" transform="scale(0.015625)"/>
       <path id="DejaVuSans-73" d="M 2834 3397 
L 2834 2853 
Q 2591 2978 2328 3040 
Q 2066 3103 1784 3103 
Q 1356 3103 1142 2972 
Q 928 2841 928 2578 
Q 928 2378 1081 2264 
Q 1234 2150 1697 2047 
L 1894 2003 
Q 2506 1872 2764 1633 
Q 3022 1394 3022 966 
Q 3022 478 2636 193 
Q 2250 -91 1575 -91 
Q 1294 -91 989 -36 
Q 684 19 347 128 
L 347 722 
Q 666 556 975 473 
Q 1284 391 1588 391 
Q 1994 391 2212 530 
Q 2431 669 2431 922 
Q 2431 1156 2273 1281 
Q 2116 1406 1581 1522 
L 1381 1569 
Q 847 1681 609 1914 
Q 372 2147 372 2553 
Q 372 3047 722 3315 
Q 1072 3584 1716 3584 
Q 2034 3584 2315 3537 
Q 2597 3491 2834 3397 
z
" transform="scale(0.015625)"/>
       <path id="DejaVuSans-5d" d="M 1947 4863 
L 1947 -844 
L 622 -844 
L 622 -397 
L 1369 -397 
L 1369 4416 
L 622 4416 
L 622 4863 
L 1947 4863 
z
" transform="scale(0.015625)"/>
      </defs>
      <use xlink:href="#DejaVuSans-54"/>
      <use xlink:href="#DejaVuSans-69" x="57.958984"/>
      <use xlink:href="#DejaVuSans-6d" x="85.742188"/>
      <use xlink:href="#DejaVuSans-65" x="183.154297"/>
      <use xlink:href="#DejaVuSans-20" x="244.677734"/>
      <use xlink:href="#DejaVuSans-5b" x="276.464844"/>
      <use xlink:href="#DejaVuSans-73" x="315.478516"/>
      <use xlink:href="#DejaVuSans-5d" x="367.578125"/>
     </g>
    </g>
   </g>
   <g id="matplotlib.axis_2">
    <g id="ytick_1">
     <g id="line2d_8">
      <defs>
       <path id="ma957c23863" d="M 0 0 
L -3.5 0 
" style="stroke: #000000; stroke-width: 0.8"/>
      </defs>
      <g>
       <use xlink:href="#ma957c23863" x="43.78125" y="195.923357" style="stroke: #000000; stroke-width: 0.8"/>
      </g>
     </g>
     <g id="text_9">
      <!-- 0.0 -->
      <g transform="translate(20.878125 199.722576)scale(0.1 -0.1)">
       <defs>
        <path id="DejaVuSans-2e" d="M 684 794 
L 1344 794 
L 1344 0 
L 684 0 
L 684 794 
z
" transform="scale(0.015625)"/>
       </defs>
       <use xlink:href="#DejaVuSans-30"/>
       <use xlink:href="#DejaVuSans-2e" x="63.623047"/>
       <use xlink:href="#DejaVuSans-30" x="95.410156"/>
      </g>
     </g>
    </g>
    <g id="ytick_2">
     <g id="line2d_9">
      <g>
       <use xlink:href="#ma957c23863" x="43.78125" y="166.801929" style="stroke: #000000; stroke-width: 0.8"/>
      </g>
     </g>
     <g id="text_10">
      <!-- 0.2 -->
      <g transform="translate(20.878125 170.601147)scale(0.1 -0.1)">
       <use xlink:href="#DejaVuSans-30"/>
       <use xlink:href="#DejaVuSans-2e" x="63.623047"/>
       <use xlink:href="#DejaVuSans-32" x="95.410156"/>
      </g>
     </g>
    </g>
    <g id="ytick_3">
     <g id="line2d_10">
      <g>
       <use xlink:href="#ma957c23863" x="43.78125" y="137.6805" style="stroke: #000000; stroke-width: 0.8"/>
      </g>
     </g>
     <g id="text_11">
      <!-- 0.4 -->
      <g transform="translate(20.878125 141.479719)scale(0.1 -0.1)">
       <defs>
        <path id="DejaVuSans-34" d="M 2419 4116 
L 825 1625 
L 2419 1625 
L 2419 4116 
z
M 2253 4666 
L 3047 4666 
L 3047 1625 
L 3713 1625 
L 3713 1100 
L 3047 1100 
L 3047 0 
L 2419 0 
L 2419 1100 
L 313 1100 
L 313 1709 
L 2253 4666 
z
" transform="scale(0.015625)"/>
       </defs>
       <use xlink:href="#DejaVuSans-30"/>
       <use xlink:href="#DejaVuSans-2e" x="63.623047"/>
       <use xlink:href="#DejaVuSans-34" x="95.410156"/>
      </g>
     </g>
    </g>
    <g id="ytick_4">
     <g id="line2d_11">
      <g>
       <use xlink:href="#ma957c23863" x="43.78125" y="108.559071" style="stroke: #000000; stroke-width: 0.8"/>
      </g>
     </g>
     <g id="text_12">
      <!-- 0.6 -->
      <g transform="translate(20.878125 112.35829)scale(0.1 -0.1)">
       <defs>
        <path id="DejaVuSans-36" d="M 2113 2584 
Q 1688 2584 1439 2293 
Q 1191 2003 1191 1497 
Q 1191 994 1439 701 
Q 1688 409 2113 409 
Q 2538 409 2786 701 
Q 3034 994 3034 1497 
Q 3034 2003 2786 2293 
Q 2538 2584 2113 2584 
z
M 3366 4563 
L 3366 3988 
Q 3128 4100 2886 4159 
Q 2644 4219 2406 4219 
Q 1781 4219 1451 3797 
Q 1122 3375 1075 2522 
Q 1259 2794 1537 2939 
Q 1816 3084 2150 3084 
Q 2853 3084 3261 2657 
Q 3669 2231 3669 1497 
Q 3669 778 3244 343 
Q 2819 -91 2113 -91 
Q 1303 -91 875 529 
Q 447 1150 447 2328 
Q 447 3434 972 4092 
Q 1497 4750 2381 4750 
Q 2619 4750 2861 4703 
Q 3103 4656 3366 4563 
z
" transform="scale(0.015625)"/>
       </defs>
       <use xlink:href="#DejaVuSans-30"/>
       <use xlink:href="#DejaVuSans-2e" x="63.623047"/>
       <use xlink:href="#DejaVuSans-36" x="95.410156"/>
      </g>
     </g>
    </g>
    <g id="ytick_5">
     <g id="line2d_12">
      <g>
       <use xlink:href="#ma957c23863" x="43.78125" y="79.437643" style="stroke: #000000; stroke-width: 0.8"/>
      </g>
     </g>
     <g id="text_13">
      <!-- 0.8 -->
      <g transform="translate(20.878125 83.236862)scale(0.1 -0.1)">
       <defs>
        <path id="DejaVuSans-38" d="M 2034 2216 
Q 1584 2216 1326 1975 
Q 1069 1734 1069 1313 
Q 1069 891 1326 650 
Q 1584 409 2034 409 
Q 2484 409 2743 651 
Q 3003 894 3003 1313 
Q 3003 1734 2745 1975 
Q 2488 2216 2034 2216 
z
M 1403 2484 
Q 997 2584 770 2862 
Q 544 3141 544 3541 
Q 544 4100 942 4425 
Q 1341 4750 2034 4750 
Q 2731 4750 3128 4425 
Q 3525 4100 3525 3541 
Q 3525 3141 3298 2862 
Q 3072 2584 2669 2484 
Q 3125 2378 3379 2068 
Q 3634 1759 3634 1313 
Q 3634 634 3220 271 
Q 2806 -91 2034 -91 
Q 1263 -91 848 271 
Q 434 634 434 1313 
Q 434 1759 690 2068 
Q 947 2378 1403 2484 
z
M 1172 3481 
Q 1172 3119 1398 2916 
Q 1625 2713 2034 2713 
Q 2441 2713 2670 2916 
Q 2900 3119 2900 3481 
Q 2900 3844 2670 4047 
Q 2441 4250 2034 4250 
Q 1625 4250 1398 4047 
Q 1172 3844 1172 3481 
z
" transform="scale(0.015625)"/>
       </defs>
       <use xlink:href="#DejaVuSans-30"/>
       <use xlink:href="#DejaVuSans-2e" x="63.623047"/>
       <use xlink:href="#DejaVuSans-38" x="95.410156"/>
      </g>
     </g>
    </g>
    <g id="ytick_6">
     <g id="line2d_13">
      <g>
       <use xlink:href="#ma957c23863" x="43.78125" y="50.316214" style="stroke: #000000; stroke-width: 0.8"/>
      </g>
     </g>
     <g id="text_14">
      <!-- 1.0 -->
      <g transform="translate(20.878125 54.115433)scale(0.1 -0.1)">
       <use xlink:href="#DejaVuSans-31"/>
       <use xlink:href="#DejaVuSans-2e" x="63.623047"/>
       <use xlink:href="#DejaVuSans-30" x="95.410156"/>
      </g>
     </g>
    </g>
    <g id="text_15">
     <!-- (F-F$^o$)/F$^o$ -->
     <g transform="translate(14.798438 137.9955)rotate(-90)scale(0.1 -0.1)">
      <defs>
       <path id="DejaVuSans-28" d="M 1984 4856 
Q 1566 4138 1362 3434 
Q 1159 2731 1159 2009 
Q 1159 1288 1364 580 
Q 1569 -128 1984 -844 
L 1484 -844 
Q 1016 -109 783 600 
Q 550 1309 550 2009 
Q 550 2706 781 3412 
Q 1013 4119 1484 4856 
L 1984 4856 
z
" transform="scale(0.015625)"/>
       <path id="DejaVuSans-46" d="M 628 4666 
L 3309 4666 
L 3309 4134 
L 1259 4134 
L 1259 2759 
L 3109 2759 
L 3109 2228 
L 1259 2228 
L 1259 0 
L 628 0 
L 628 4666 
z
" transform="scale(0.015625)"/>
       <path id="DejaVuSans-2d" d="M 313 2009 
L 1997 2009 
L 1997 1497 
L 313 1497 
L 313 2009 
z
" transform="scale(0.015625)"/>
       <path id="DejaVuSans-Oblique-6f" d="M 1625 -91 
Q 1009 -91 651 289 
Q 294 669 294 1325 
Q 294 1706 417 2101 
Q 541 2497 738 2766 
Q 1047 3184 1428 3384 
Q 1809 3584 2291 3584 
Q 2888 3584 3255 3212 
Q 3622 2841 3622 2241 
Q 3622 1825 3500 1412 
Q 3378 1000 3181 728 
Q 2875 309 2494 109 
Q 2113 -91 1625 -91 
z
M 891 1344 
Q 891 869 1089 633 
Q 1288 397 1691 397 
Q 2269 397 2648 901 
Q 3028 1406 3028 2181 
Q 3028 2634 2825 2865 
Q 2622 3097 2228 3097 
Q 1903 3097 1650 2945 
Q 1397 2794 1197 2484 
Q 1050 2253 970 1956 
Q 891 1659 891 1344 
z
" transform="scale(0.015625)"/>
       <path id="DejaVuSans-29" d="M 513 4856 
L 1013 4856 
Q 1481 4119 1714 3412 
Q 1947 2706 1947 2009 
Q 1947 1309 1714 600 
Q 1481 -109 1013 -844 
L 513 -844 
Q 928 -128 1133 580 
Q 1338 1288 1338 2009 
Q 1338 2731 1133 3434 
Q 928 4138 513 4856 
z
" transform="scale(0.015625)"/>
       <path id="DejaVuSans-2f" d="M 1625 4666 
L 2156 4666 
L 531 -594 
L 0 -594 
L 1625 4666 
z
" transform="scale(0.015625)"/>
      </defs>
      <use xlink:href="#DejaVuSans-28" transform="translate(0 0.51875)"/>
      <use xlink:href="#DejaVuSans-46" transform="translate(39.013672 0.51875)"/>
      <use xlink:href="#DejaVuSans-2d" transform="translate(96.533203 0.51875)"/>
      <use xlink:href="#DejaVuSans-46" transform="translate(132.617188 0.51875)"/>
      <use xlink:href="#DejaVuSans-Oblique-6f" transform="translate(191.09375 38.8)scale(0.7)"/>
      <use xlink:href="#DejaVuSans-29" transform="translate(236.655273 0.51875)"/>
      <use xlink:href="#DejaVuSans-2f" transform="translate(275.668945 0.51875)"/>
      <use xlink:href="#DejaVuSans-46" transform="translate(309.360352 0.51875)"/>
      <use xlink:href="#DejaVuSans-Oblique-6f" transform="translate(367.836914 38.8)scale(0.7)"/>
     </g>
    </g>
   </g>
   <g id="line2d_14">
    <path d="M 56.463068 195.923357 
L 56.923005 195.651571 
L 57.368568 195.556991 
L 58.465145 195.242662 
L 59.123767 194.94896 
L 60.000521 195.172342 
L 60.43932 195.098155 
L 61.31692 194.606034 
L 63.510918 193.715668 
L 64.825626 193.904125 
L 65.923894 193.6641 
L 66.361848 193.523813 
L 67.239447 193.481269 
L 68.334333 193.995658 
L 68.99211 193.840369 
L 70.089532 193.981829 
L 71.186108 194.109576 
L 72.063707 193.934246 
L 72.72233 193.918775 
L 73.375034 194.075237 
L 74.03281 194.176849 
L 74.91041 193.932488 
L 75.569032 194.151885 
L 77.543208 193.907993 
L 78.20183 193.959912 
L 78.858762 193.930495 
L 79.297561 193.63398 
L 81.931205 193.616986 
L 82.588136 193.728795 
L 84.342489 193.691291 
L 84.561467 193.568348 
L 85.439911 193.760087 
L 86.096843 193.771338 
L 86.31582 193.755399 
L 86.75631 193.917486 
L 87.414087 193.837087 
L 88.507282 193.51889 
L 91.138389 193.546549 
L 91.577189 193.31883 
L 92.015143 193.279451 
L 92.453943 193.421146 
L 93.551364 193.625776 
L 94.866918 193.733365 
L 95.305718 193.752 
L 95.747899 193.798997 
L 96.405676 193.645349 
L 97.063453 193.827359 
L 97.940207 194.132547 
L 98.597984 194.13911 
L 100.791137 193.999057 
L 101.229091 194.150479 
L 101.66789 194.388511 
L 102.107536 194.499851 
L 102.985135 194.429765 
L 103.423089 194.43293 
L 103.856816 194.36847 
L 104.515438 194.027536 
L 105.393038 193.79302 
L 106.270637 193.863223 
L 106.708591 193.86123 
L 107.368059 193.600813 
L 107.80855 193.520062 
L 108.467172 193.722583 
L 109.124949 193.633394 
L 109.343926 193.54022 
L 109.783571 193.67207 
L 110.222371 193.865567 
L 110.441348 193.713559 
L 111.09997 193.818452 
L 113.077528 193.559207 
L 113.517173 193.658592 
L 114.176641 193.446461 
L 115.491349 193.990619 
L 116.588771 194.078987 
L 117.02757 193.946786 
L 118.346506 194.27307 
L 118.785306 194.191616 
L 119.004283 194.086605 
L 120.324064 194.35007 
L 120.980995 194.598416 
L 122.077571 194.790623 
L 122.516371 194.568999 
L 125.145787 194.447345 
L 125.584587 194.438673 
L 126.018314 194.474418 
L 126.237291 194.567123 
L 128.650266 194.19103 
L 128.870089 194.080276 
L 129.089066 194.106177 
L 129.527866 194.007612 
L 130.843419 193.900844 
L 131.505424 193.940574 
L 131.724401 193.975031 
L 132.1632 193.878224 
L 132.821823 193.741687 
L 133.698577 193.846463 
L 135.453775 193.725279 
L 136.331375 193.824781 
L 136.550352 193.793723 
L 136.989997 193.971398 
L 137.208974 194.035975 
L 137.647774 193.873067 
L 138.335142 193.958389 
L 139.212741 193.998705 
L 139.871364 193.975617 
L 141.186917 194.041483 
L 141.844694 194.188217 
L 142.945498 193.889592 
L 144.699006 193.947841 
L 146.01625 193.597062 
L 146.45505 193.643356 
L 149.086157 193.551354 
L 149.525802 193.54737 
L 151.719801 193.669257 
L 152.1586 193.709691 
L 153.917181 193.687189 
L 154.355135 193.668085 
L 155.232734 193.539634 
L 155.671534 193.660819 
L 156.109488 193.696799 
L 156.548288 193.51221 
L 157.206065 193.557332 
L 157.864687 193.67125 
L 158.742286 193.560965 
L 159.177704 193.622377 
L 159.832945 193.635621 
L 160.270899 193.540572 
L 160.929521 193.362077 
L 161.367475 193.291289 
L 162.245075 193.164361 
L 162.464897 192.972154 
L 164.438228 193.101191 
L 165.096004 193.049389 
L 165.757163 193.127209 
L 167.071871 193.239603 
L 168.607247 193.176667 
L 169.26587 193.282381 
L 169.705515 193.360319 
L 170.14516 193.339692 
L 170.802937 193.399933 
L 174.534848 193.265739 
L 175.192625 193.284022 
L 176.291737 193.386455 
L 176.730537 193.291757 
L 177.606446 193.178894 
L 178.703022 193.162135 
L 180.239244 192.944378 
L 180.897866 192.725918 
L 182.210883 192.724746 
L 183.308305 192.543907 
L 184.405727 192.612234 
L 185.285017 192.330955 
L 185.942794 192.248564 
L 186.162617 192.316188 
L 187.483243 192.053778 
L 187.922043 192.148241 
L 188.361688 192.208599 
L 189.678932 192.21985 
L 191.434977 191.978887 
L 192.093599 192.057411 
L 193.191866 192.271183 
L 193.409998 192.383929 
L 194.288443 192.27634 
L 199.337598 192.430106 
L 200.21097 192.215748 
L 201.089415 192.311617 
L 202.190219 192.117183 
L 202.629019 192.049559 
L 203.506618 192.218795 
L 206.138571 192.13699 
L 207.015325 192.07546 
L 207.673101 192.01018 
L 209.863718 192.124918 
L 210.520649 192.092102 
L 211.179272 192.045926 
L 211.398249 191.912552 
L 211.837048 192.015571 
L 212.275848 192.07253 
L 214.250869 191.881143 
L 217.981935 191.745074 
L 219.299179 191.764061 
L 219.956956 191.600567 
L 220.175933 191.462623 
L 220.395756 191.538686 
L 220.83371 191.381755 
L 221.71131 191.295379 
L 222.808731 191.251898 
L 225.219171 190.925615 
L 225.65797 191.011873 
L 228.951927 190.620778 
L 229.170904 190.603316 
L 229.828681 190.306215 
L 230.266635 190.203196 
L 230.70628 189.982158 
L 231.364057 189.750337 
L 232.021834 189.620714 
L 232.679611 189.600556 
L 233.11841 189.489568 
L 233.55721 189.432609 
L 233.993473 189.494842 
L 234.433118 189.433078 
L 235.09005 189.417725 
L 236.187472 189.469292 
L 236.845249 189.592704 
L 239.040938 189.592821 
L 241.669509 190.035484 
L 242.546263 189.995167 
L 242.985908 190.10217 
L 243.643685 190.018255 
L 244.741106 190.043219 
L 245.175679 189.976532 
L 248.684385 190.193234 
L 250.002475 190.246677 
L 250.441275 190.308207 
L 250.660252 190.212221 
L 251.098206 190.31477 
L 251.537006 190.306918 
L 252.633583 190.269062 
L 252.85256 190.126665 
L 253.949982 190.194992 
L 256.579398 189.949811 
L 257.237175 190.052712 
L 258.115619 189.927191 
L 258.550192 189.926957 
L 259.646768 189.810109 
L 260.084722 189.822649 
L 260.962322 189.703457 
L 261.619253 189.571842 
L 262.058053 189.564576 
L 262.71583 189.456283 
L 263.374452 189.460854 
L 263.812406 189.306854 
L 264.68916 189.530236 
L 265.566759 189.536799 
L 265.785736 189.643334 
L 266.004714 189.620831 
L 266.443513 189.757486 
L 267.978044 189.594227 
L 269.07462 189.536213 
L 269.516802 189.624113 
L 269.953065 189.636067 
L 270.611688 189.61251 
L 275.43933 189.009167 
L 276.97386 188.593811 
L 277.852305 188.622877 
L 278.291105 188.72906 
L 279.386836 188.670343 
L 279.605813 188.710073 
L 280.045458 188.615962 
L 280.483412 188.737615 
L 284.212787 189.072806 
L 284.651586 189.144649 
L 285.309363 189.206414 
L 285.967986 189.053703 
L 287.067098 189.159182 
L 287.505053 189.146876 
L 287.943852 189.200554 
L 288.601629 189.282945 
L 289.918874 189.191412 
L 290.577496 189.218016 
L 291.674072 189.396863 
L 293.428426 189.153205 
L 294.746516 188.794574 
L 296.062069 188.811099 
L 298.697404 189.152033 
L 299.356026 189.117694 
L 299.575003 189.072572 
L 300.014648 189.128124 
L 301.32682 189.037529 
L 302.205265 188.952911 
L 306.590725 188.717223 
L 306.809702 188.763751 
L 307.687302 188.551737 
L 308.56321 188.651474 
L 309.00201 188.627682 
L 309.220987 188.647958 
L 309.660632 188.502513 
L 310.099432 188.405589 
L 310.099432 188.405589 
" clip-path="url(#p6fbbf1d7b8)" style="fill: none; stroke: #1f77b4; stroke-width: 1.5; stroke-linecap: square"/>
   </g>
   <g id="patch_3">
    <path d="M 43.78125 198.8355 
L 43.78125 35.7555 
" style="fill: none; stroke: #000000; stroke-width: 0.8; stroke-linejoin: miter; stroke-linecap: square"/>
   </g>
   <g id="patch_4">
    <path d="M 322.78125 198.8355 
L 322.78125 35.7555 
" style="fill: none; stroke: #000000; stroke-width: 0.8; stroke-linejoin: miter; stroke-linecap: square"/>
   </g>
   <g id="patch_5">
    <path d="M 43.78125 198.8355 
L 322.78125 198.8355 
" style="fill: none; stroke: #000000; stroke-width: 0.8; stroke-linejoin: miter; stroke-linecap: square"/>
   </g>
   <g id="patch_6">
    <path d="M 43.78125 35.7555 
L 322.78125 35.7555 
" style="fill: none; stroke: #000000; stroke-width: 0.8; stroke-linejoin: miter; stroke-linecap: square"/>
   </g>
   <g id="text_16">
    <!-- After equalize -->
    <g transform="translate(141.814687 16.318125)scale(0.12 -0.12)">
     <defs>
      <path id="DejaVuSans-41" d="M 2188 4044 
L 1331 1722 
L 3047 1722 
L 2188 4044 
z
M 1831 4666 
L 2547 4666 
L 4325 0 
L 3669 0 
L 3244 1197 
L 1141 1197 
L 716 0 
L 50 0 
L 1831 4666 
z
" transform="scale(0.015625)"/>
      <path id="DejaVuSans-66" d="M 2375 4863 
L 2375 4384 
L 1825 4384 
Q 1516 4384 1395 4259 
Q 1275 4134 1275 3809 
L 1275 3500 
L 2222 3500 
L 2222 3053 
L 1275 3053 
L 1275 0 
L 697 0 
L 697 3053 
L 147 3053 
L 147 3500 
L 697 3500 
L 697 3744 
Q 697 4328 969 4595 
Q 1241 4863 1831 4863 
L 2375 4863 
z
" transform="scale(0.015625)"/>
      <path id="DejaVuSans-74" d="M 1172 4494 
L 1172 3500 
L 2356 3500 
L 2356 3053 
L 1172 3053 
L 1172 1153 
Q 1172 725 1289 603 
Q 1406 481 1766 481 
L 2356 481 
L 2356 0 
L 1766 0 
Q 1100 0 847 248 
Q 594 497 594 1153 
L 594 3053 
L 172 3053 
L 172 3500 
L 594 3500 
L 594 4494 
L 1172 4494 
z
" transform="scale(0.015625)"/>
      <path id="DejaVuSans-72" d="M 2631 2963 
Q 2534 3019 2420 3045 
Q 2306 3072 2169 3072 
Q 1681 3072 1420 2755 
Q 1159 2438 1159 1844 
L 1159 0 
L 581 0 
L 581 3500 
L 1159 3500 
L 1159 2956 
Q 1341 3275 1631 3429 
Q 1922 3584 2338 3584 
Q 2397 3584 2469 3576 
Q 2541 3569 2628 3553 
L 2631 2963 
z
" transform="scale(0.015625)"/>
      <path id="DejaVuSans-71" d="M 947 1747 
Q 947 1113 1208 752 
Q 1469 391 1925 391 
Q 2381 391 2643 752 
Q 2906 1113 2906 1747 
Q 2906 2381 2643 2742 
Q 2381 3103 1925 3103 
Q 1469 3103 1208 2742 
Q 947 2381 947 1747 
z
M 2906 525 
Q 2725 213 2448 61 
Q 2172 -91 1784 -91 
Q 1150 -91 751 415 
Q 353 922 353 1747 
Q 353 2572 751 3078 
Q 1150 3584 1784 3584 
Q 2172 3584 2448 3432 
Q 2725 3281 2906 2969 
L 2906 3500 
L 3481 3500 
L 3481 -1331 
L 2906 -1331 
L 2906 525 
z
" transform="scale(0.015625)"/>
      <path id="DejaVuSans-75" d="M 544 1381 
L 544 3500 
L 1119 3500 
L 1119 1403 
Q 1119 906 1312 657 
Q 1506 409 1894 409 
Q 2359 409 2629 706 
Q 2900 1003 2900 1516 
L 2900 3500 
L 3475 3500 
L 3475 0 
L 2900 0 
L 2900 538 
Q 2691 219 2414 64 
Q 2138 -91 1772 -91 
Q 1169 -91 856 284 
Q 544 659 544 1381 
z
M 1991 3584 
L 1991 3584 
z
" transform="scale(0.015625)"/>
      <path id="DejaVuSans-61" d="M 2194 1759 
Q 1497 1759 1228 1600 
Q 959 1441 959 1056 
Q 959 750 1161 570 
Q 1363 391 1709 391 
Q 2188 391 2477 730 
Q 2766 1069 2766 1631 
L 2766 1759 
L 2194 1759 
z
M 3341 1997 
L 3341 0 
L 2766 0 
L 2766 531 
Q 2569 213 2275 61 
Q 1981 -91 1556 -91 
Q 1019 -91 701 211 
Q 384 513 384 1019 
Q 384 1609 779 1909 
Q 1175 2209 1959 2209 
L 2766 2209 
L 2766 2266 
Q 2766 2663 2505 2880 
Q 2244 3097 1772 3097 
Q 1472 3097 1187 3025 
Q 903 2953 641 2809 
L 641 3341 
Q 956 3463 1253 3523 
Q 1550 3584 1831 3584 
Q 2591 3584 2966 3190 
Q 3341 2797 3341 1997 
z
" transform="scale(0.015625)"/>
      <path id="DejaVuSans-6c" d="M 603 4863 
L 1178 4863 
L 1178 0 
L 603 0 
L 603 4863 
z
" transform="scale(0.015625)"/>
      <path id="DejaVuSans-7a" d="M 353 3500 
L 3084 3500 
L 3084 2975 
L 922 459 
L 3084 459 
L 3084 0 
L 275 0 
L 275 525 
L 2438 3041 
L 353 3041 
L 353 3500 
z
" transform="scale(0.015625)"/>
     </defs>
     <use xlink:href="#DejaVuSans-41"/>
     <use xlink:href="#DejaVuSans-66" x="64.783203"/>
     <use xlink:href="#DejaVuSans-74" x="98.238281"/>
     <use xlink:href="#DejaVuSans-65" x="137.447266"/>
     <use xlink:href="#DejaVuSans-72" x="198.970703"/>
     <use xlink:href="#DejaVuSans-20" x="240.083984"/>
     <use xlink:href="#DejaVuSans-65" x="271.871094"/>
     <use xlink:href="#DejaVuSans-71" x="333.394531"/>
     <use xlink:href="#DejaVuSans-75" x="396.871094"/>
     <use xlink:href="#DejaVuSans-61" x="460.25"/>
     <use xlink:href="#DejaVuSans-6c" x="521.529297"/>
     <use xlink:href="#DejaVuSans-69" x="549.3125"/>
     <use xlink:href="#DejaVuSans-7a" x="577.095703"/>
     <use xlink:href="#DejaVuSans-65" x="629.585938"/>
    </g>
    <!-- noNTR_C2_003_crop - Intensity Equalized, ROI=16 -->
    <g transform="translate(31.711875 29.7555)scale(0.12 -0.12)">
     <defs>
      <path id="DejaVuSans-6e" d="M 3513 2113 
L 3513 0 
L 2938 0 
L 2938 2094 
Q 2938 2591 2744 2837 
Q 2550 3084 2163 3084 
Q 1697 3084 1428 2787 
Q 1159 2491 1159 1978 
L 1159 0 
L 581 0 
L 581 3500 
L 1159 3500 
L 1159 2956 
Q 1366 3272 1645 3428 
Q 1925 3584 2291 3584 
Q 2894 3584 3203 3211 
Q 3513 2838 3513 2113 
z
" transform="scale(0.015625)"/>
      <path id="DejaVuSans-6f" d="M 1959 3097 
Q 1497 3097 1228 2736 
Q 959 2375 959 1747 
Q 959 1119 1226 758 
Q 1494 397 1959 397 
Q 2419 397 2687 759 
Q 2956 1122 2956 1747 
Q 2956 2369 2687 2733 
Q 2419 3097 1959 3097 
z
M 1959 3584 
Q 2709 3584 3137 3096 
Q 3566 2609 3566 1747 
Q 3566 888 3137 398 
Q 2709 -91 1959 -91 
Q 1206 -91 779 398 
Q 353 888 353 1747 
Q 353 2609 779 3096 
Q 1206 3584 1959 3584 
z
" transform="scale(0.015625)"/>
      <path id="DejaVuSans-4e" d="M 628 4666 
L 1478 4666 
L 3547 763 
L 3547 4666 
L 4159 4666 
L 4159 0 
L 3309 0 
L 1241 3903 
L 1241 0 
L 628 0 
L 628 4666 
z
" transform="scale(0.015625)"/>
      <path id="DejaVuSans-52" d="M 2841 2188 
Q 3044 2119 3236 1894 
Q 3428 1669 3622 1275 
L 4263 0 
L 3584 0 
L 2988 1197 
Q 2756 1666 2539 1819 
Q 2322 1972 1947 1972 
L 1259 1972 
L 1259 0 
L 628 0 
L 628 4666 
L 2053 4666 
Q 2853 4666 3247 4331 
Q 3641 3997 3641 3322 
Q 3641 2881 3436 2590 
Q 3231 2300 2841 2188 
z
M 1259 4147 
L 1259 2491 
L 2053 2491 
Q 2509 2491 2742 2702 
Q 2975 2913 2975 3322 
Q 2975 3731 2742 3939 
Q 2509 4147 2053 4147 
L 1259 4147 
z
" transform="scale(0.015625)"/>
      <path id="DejaVuSans-5f" d="M 3263 -1063 
L 3263 -1509 
L -63 -1509 
L -63 -1063 
L 3263 -1063 
z
" transform="scale(0.015625)"/>
      <path id="DejaVuSans-43" d="M 4122 4306 
L 4122 3641 
Q 3803 3938 3442 4084 
Q 3081 4231 2675 4231 
Q 1875 4231 1450 3742 
Q 1025 3253 1025 2328 
Q 1025 1406 1450 917 
Q 1875 428 2675 428 
Q 3081 428 3442 575 
Q 3803 722 4122 1019 
L 4122 359 
Q 3791 134 3420 21 
Q 3050 -91 2638 -91 
Q 1578 -91 968 557 
Q 359 1206 359 2328 
Q 359 3453 968 4101 
Q 1578 4750 2638 4750 
Q 3056 4750 3426 4639 
Q 3797 4528 4122 4306 
z
" transform="scale(0.015625)"/>
      <path id="DejaVuSans-63" d="M 3122 3366 
L 3122 2828 
Q 2878 2963 2633 3030 
Q 2388 3097 2138 3097 
Q 1578 3097 1268 2742 
Q 959 2388 959 1747 
Q 959 1106 1268 751 
Q 1578 397 2138 397 
Q 2388 397 2633 464 
Q 2878 531 3122 666 
L 3122 134 
Q 2881 22 2623 -34 
Q 2366 -91 2075 -91 
Q 1284 -91 818 406 
Q 353 903 353 1747 
Q 353 2603 823 3093 
Q 1294 3584 2113 3584 
Q 2378 3584 2631 3529 
Q 2884 3475 3122 3366 
z
" transform="scale(0.015625)"/>
      <path id="DejaVuSans-70" d="M 1159 525 
L 1159 -1331 
L 581 -1331 
L 581 3500 
L 1159 3500 
L 1159 2969 
Q 1341 3281 1617 3432 
Q 1894 3584 2278 3584 
Q 2916 3584 3314 3078 
Q 3713 2572 3713 1747 
Q 3713 922 3314 415 
Q 2916 -91 2278 -91 
Q 1894 -91 1617 61 
Q 1341 213 1159 525 
z
M 3116 1747 
Q 3116 2381 2855 2742 
Q 2594 3103 2138 3103 
Q 1681 3103 1420 2742 
Q 1159 2381 1159 1747 
Q 1159 1113 1420 752 
Q 1681 391 2138 391 
Q 2594 391 2855 752 
Q 3116 1113 3116 1747 
z
" transform="scale(0.015625)"/>
      <path id="DejaVuSans-49" d="M 628 4666 
L 1259 4666 
L 1259 0 
L 628 0 
L 628 4666 
z
" transform="scale(0.015625)"/>
      <path id="DejaVuSans-79" d="M 2059 -325 
Q 1816 -950 1584 -1140 
Q 1353 -1331 966 -1331 
L 506 -1331 
L 506 -850 
L 844 -850 
Q 1081 -850 1212 -737 
Q 1344 -625 1503 -206 
L 1606 56 
L 191 3500 
L 800 3500 
L 1894 763 
L 2988 3500 
L 3597 3500 
L 2059 -325 
z
" transform="scale(0.015625)"/>
      <path id="DejaVuSans-45" d="M 628 4666 
L 3578 4666 
L 3578 4134 
L 1259 4134 
L 1259 2753 
L 3481 2753 
L 3481 2222 
L 1259 2222 
L 1259 531 
L 3634 531 
L 3634 0 
L 628 0 
L 628 4666 
z
" transform="scale(0.015625)"/>
      <path id="DejaVuSans-64" d="M 2906 2969 
L 2906 4863 
L 3481 4863 
L 3481 0 
L 2906 0 
L 2906 525 
Q 2725 213 2448 61 
Q 2172 -91 1784 -91 
Q 1150 -91 751 415 
Q 353 922 353 1747 
Q 353 2572 751 3078 
Q 1150 3584 1784 3584 
Q 2172 3584 2448 3432 
Q 2725 3281 2906 2969 
z
M 947 1747 
Q 947 1113 1208 752 
Q 1469 391 1925 391 
Q 2381 391 2643 752 
Q 2906 1113 2906 1747 
Q 2906 2381 2643 2742 
Q 2381 3103 1925 3103 
Q 1469 3103 1208 2742 
Q 947 2381 947 1747 
z
" transform="scale(0.015625)"/>
      <path id="DejaVuSans-2c" d="M 750 794 
L 1409 794 
L 1409 256 
L 897 -744 
L 494 -744 
L 750 256 
L 750 794 
z
" transform="scale(0.015625)"/>
      <path id="DejaVuSans-4f" d="M 2522 4238 
Q 1834 4238 1429 3725 
Q 1025 3213 1025 2328 
Q 1025 1447 1429 934 
Q 1834 422 2522 422 
Q 3209 422 3611 934 
Q 4013 1447 4013 2328 
Q 4013 3213 3611 3725 
Q 3209 4238 2522 4238 
z
M 2522 4750 
Q 3503 4750 4090 4092 
Q 4678 3434 4678 2328 
Q 4678 1225 4090 567 
Q 3503 -91 2522 -91 
Q 1538 -91 948 565 
Q 359 1222 359 2328 
Q 359 3434 948 4092 
Q 1538 4750 2522 4750 
z
" transform="scale(0.015625)"/>
      <path id="DejaVuSans-3d" d="M 678 2906 
L 4684 2906 
L 4684 2381 
L 678 2381 
L 678 2906 
z
M 678 1631 
L 4684 1631 
L 4684 1100 
L 678 1100 
L 678 1631 
z
" transform="scale(0.015625)"/>
     </defs>
     <use xlink:href="#DejaVuSans-6e"/>
     <use xlink:href="#DejaVuSans-6f" x="63.378906"/>
     <use xlink:href="#DejaVuSans-4e" x="124.560547"/>
     <use xlink:href="#DejaVuSans-54" x="199.365234"/>
     <use xlink:href="#DejaVuSans-52" x="260.449219"/>
     <use xlink:href="#DejaVuSans-5f" x="329.931641"/>
     <use xlink:href="#DejaVuSans-43" x="379.931641"/>
     <use xlink:href="#DejaVuSans-32" x="449.755859"/>
     <use xlink:href="#DejaVuSans-5f" x="513.378906"/>
     <use xlink:href="#DejaVuSans-30" x="563.378906"/>
     <use xlink:href="#DejaVuSans-30" x="627.001953"/>
     <use xlink:href="#DejaVuSans-33" x="690.625"/>
     <use xlink:href="#DejaVuSans-5f" x="754.248047"/>
     <use xlink:href="#DejaVuSans-63" x="804.248047"/>
     <use xlink:href="#DejaVuSans-72" x="859.228516"/>
     <use xlink:href="#DejaVuSans-6f" x="898.091797"/>
     <use xlink:href="#DejaVuSans-70" x="959.273438"/>
     <use xlink:href="#DejaVuSans-20" x="1022.75"/>
     <use xlink:href="#DejaVuSans-2d" x="1054.537109"/>
     <use xlink:href="#DejaVuSans-20" x="1090.621094"/>
     <use xlink:href="#DejaVuSans-49" x="1122.408203"/>
     <use xlink:href="#DejaVuSans-6e" x="1151.900391"/>
     <use xlink:href="#DejaVuSans-74" x="1215.279297"/>
     <use xlink:href="#DejaVuSans-65" x="1254.488281"/>
     <use xlink:href="#DejaVuSans-6e" x="1316.011719"/>
     <use xlink:href="#DejaVuSans-73" x="1379.390625"/>
     <use xlink:href="#DejaVuSans-69" x="1431.490234"/>
     <use xlink:href="#DejaVuSans-74" x="1459.273438"/>
     <use xlink:href="#DejaVuSans-79" x="1498.482422"/>
     <use xlink:href="#DejaVuSans-20" x="1557.662109"/>
     <use xlink:href="#DejaVuSans-45" x="1589.449219"/>
     <use xlink:href="#DejaVuSans-71" x="1652.632812"/>
     <use xlink:href="#DejaVuSans-75" x="1716.109375"/>
     <use xlink:href="#DejaVuSans-61" x="1779.488281"/>
     <use xlink:href="#DejaVuSans-6c" x="1840.767578"/>
     <use xlink:href="#DejaVuSans-69" x="1868.550781"/>
     <use xlink:href="#DejaVuSans-7a" x="1896.333984"/>
     <use xlink:href="#DejaVuSans-65" x="1948.824219"/>
     <use xlink:href="#DejaVuSans-64" x="2010.347656"/>
     <use xlink:href="#DejaVuSans-2c" x="2073.824219"/>
     <use xlink:href="#DejaVuSans-20" x="2105.611328"/>
     <use xlink:href="#DejaVuSans-52" x="2137.398438"/>
     <use xlink:href="#DejaVuSans-4f" x="2206.880859"/>
     <use xlink:href="#DejaVuSans-49" x="2285.591797"/>
     <use xlink:href="#DejaVuSans-3d" x="2315.083984"/>
     <use xlink:href="#DejaVuSans-31" x="2398.873047"/>
     <use xlink:href="#DejaVuSans-36" x="2462.496094"/>
    </g>
   </g>
  </g>
 </g>
 <defs>
  <clipPath id="p6fbbf1d7b8">
   <rect x="43.78125" y="35.7555" width="279" height="163.08"/>
  </clipPath>
 </defs>
</svg>
