<?xml version="1.0" encoding="utf-8" standalone="no"?>
<!DOCTYPE svg PUBLIC "-//W3C//DTD SVG 1.1//EN"
  "http://www.w3.org/Graphics/SVG/1.1/DTD/svg11.dtd">
<svg xmlns:xlink="http://www.w3.org/1999/xlink" width="334.576875pt" height="236.39175pt" viewBox="0 0 334.576875 236.39175" xmlns="http://www.w3.org/2000/svg" version="1.1">
 <metadata>
  <rdf:RDF xmlns:dc="http://purl.org/dc/elements/1.1/" xmlns:cc="http://creativecommons.org/ns#" xmlns:rdf="http://www.w3.org/1999/02/22-rdf-syntax-ns#">
   <cc:Work>
    <dc:type rdf:resource="http://purl.org/dc/dcmitype/StillImage"/>
    <dc:date>2025-01-27T16:06:41.726712</dc:date>
    <dc:format>image/svg+xml</dc:format>
    <dc:creator>
     <cc:Agent>
      <dc:title>Matplotlib v3.5.2, https://matplotlib.org/</dc:title>
     </cc:Agent>
    </dc:creator>
   </cc:Work>
  </rdf:RDF>
 </metadata>
 <defs>
  <style type="text/css">*{stroke-linejoin: round; stroke-linecap: butt}</style>
 </defs>
 <g id="figure_1">
  <g id="patch_1">
   <path d="M 0 236.39175 
L 334.576875 236.39175 
L 334.576875 0 
L 0 0 
L 0 236.39175 
z
" style="fill: none"/>
  </g>
  <g id="axes_1">
   <g id="patch_2">
    <path d="M 43.78125 198.8355 
L 322.78125 198.8355 
L 322.78125 35.7555 
L 43.78125 35.7555 
z
" style="fill: #ffffff"/>
   </g>
   <g id="matplotlib.axis_1">
    <g id="xtick_1">
     <g id="line2d_1">
      <defs>
       <path id="m9e028b4013" d="M 0 0 
L 0 3.5 
" style="stroke: #000000; stroke-width: 0.8"/>
      </defs>
      <g>
       <use xlink:href="#m9e028b4013" x="56.427557" y="198.8355" style="stroke: #000000; stroke-width: 0.8"/>
      </g>
     </g>
     <g id="text_1">
      <!-- 0 -->
      <g transform="translate(53.246307 213.433938)scale(0.1 -0.1)">
       <defs>
        <path id="DejaVuSans-30" d="M 2034 4250 
Q 1547 4250 1301 3770 
Q 1056 3291 1056 2328 
Q 1056 1369 1301 889 
Q 1547 409 2034 409 
Q 2525 409 2770 889 
Q 3016 1369 3016 2328 
Q 3016 3291 2770 3770 
Q 2525 4250 2034 4250 
z
M 2034 4750 
Q 2819 4750 3233 4129 
Q 3647 3509 3647 2328 
Q 3647 1150 3233 529 
Q 2819 -91 2034 -91 
Q 1250 -91 836 529 
Q 422 1150 422 2328 
Q 422 3509 836 4129 
Q 1250 4750 2034 4750 
z
" transform="scale(0.015625)"/>
       </defs>
       <use xlink:href="#DejaVuSans-30"/>
      </g>
     </g>
    </g>
    <g id="xtick_2">
     <g id="line2d_2">
      <g>
       <use xlink:href="#m9e028b4013" x="98.703102" y="198.8355" style="stroke: #000000; stroke-width: 0.8"/>
      </g>
     </g>
     <g id="text_2">
      <!-- 50 -->
      <g transform="translate(92.340602 213.433938)scale(0.1 -0.1)">
       <defs>
        <path id="DejaVuSans-35" d="M 691 4666 
L 3169 4666 
L 3169 4134 
L 1269 4134 
L 1269 2991 
Q 1406 3038 1543 3061 
Q 1681 3084 1819 3084 
Q 2600 3084 3056 2656 
Q 3513 2228 3513 1497 
Q 3513 744 3044 326 
Q 2575 -91 1722 -91 
Q 1428 -91 1123 -41 
Q 819 9 494 109 
L 494 744 
Q 775 591 1075 516 
Q 1375 441 1709 441 
Q 2250 441 2565 725 
Q 2881 1009 2881 1497 
Q 2881 1984 2565 2268 
Q 2250 2553 1709 2553 
Q 1456 2553 1204 2497 
Q 953 2441 691 2322 
L 691 4666 
z
" transform="scale(0.015625)"/>
       </defs>
       <use xlink:href="#DejaVuSans-35"/>
       <use xlink:href="#DejaVuSans-30" x="63.623047"/>
      </g>
     </g>
    </g>
    <g id="xtick_3">
     <g id="line2d_3">
      <g>
       <use xlink:href="#m9e028b4013" x="140.978648" y="198.8355" style="stroke: #000000; stroke-width: 0.8"/>
      </g>
     </g>
     <g id="text_3">
      <!-- 100 -->
      <g transform="translate(131.434898 213.433938)scale(0.1 -0.1)">
       <defs>
        <path id="DejaVuSans-31" d="M 794 531 
L 1825 531 
L 1825 4091 
L 703 3866 
L 703 4441 
L 1819 4666 
L 2450 4666 
L 2450 531 
L 3481 531 
L 3481 0 
L 794 0 
L 794 531 
z
" transform="scale(0.015625)"/>
       </defs>
       <use xlink:href="#DejaVuSans-31"/>
       <use xlink:href="#DejaVuSans-30" x="63.623047"/>
       <use xlink:href="#DejaVuSans-30" x="127.246094"/>
      </g>
     </g>
    </g>
    <g id="xtick_4">
     <g id="line2d_4">
      <g>
       <use xlink:href="#m9e028b4013" x="183.254194" y="198.8355" style="stroke: #000000; stroke-width: 0.8"/>
      </g>
     </g>
     <g id="text_4">
      <!-- 150 -->
      <g transform="translate(173.710444 213.433938)scale(0.1 -0.1)">
       <use xlink:href="#DejaVuSans-31"/>
       <use xlink:href="#DejaVuSans-35" x="63.623047"/>
       <use xlink:href="#DejaVuSans-30" x="127.246094"/>
      </g>
     </g>
    </g>
    <g id="xtick_5">
     <g id="line2d_5">
      <g>
       <use xlink:href="#m9e028b4013" x="225.529739" y="198.8355" style="stroke: #000000; stroke-width: 0.8"/>
      </g>
     </g>
     <g id="text_5">
      <!-- 200 -->
      <g transform="translate(215.985989 213.433938)scale(0.1 -0.1)">
       <defs>
        <path id="DejaVuSans-32" d="M 1228 531 
L 3431 531 
L 3431 0 
L 469 0 
L 469 531 
Q 828 903 1448 1529 
Q 2069 2156 2228 2338 
Q 2531 2678 2651 2914 
Q 2772 3150 2772 3378 
Q 2772 3750 2511 3984 
Q 2250 4219 1831 4219 
Q 1534 4219 1204 4116 
Q 875 4013 500 3803 
L 500 4441 
Q 881 4594 1212 4672 
Q 1544 4750 1819 4750 
Q 2544 4750 2975 4387 
Q 3406 4025 3406 3419 
Q 3406 3131 3298 2873 
Q 3191 2616 2906 2266 
Q 2828 2175 2409 1742 
Q 1991 1309 1228 531 
z
" transform="scale(0.015625)"/>
       </defs>
       <use xlink:href="#DejaVuSans-32"/>
       <use xlink:href="#DejaVuSans-30" x="63.623047"/>
       <use xlink:href="#DejaVuSans-30" x="127.246094"/>
      </g>
     </g>
    </g>
    <g id="xtick_6">
     <g id="line2d_6">
      <g>
       <use xlink:href="#m9e028b4013" x="267.805285" y="198.8355" style="stroke: #000000; stroke-width: 0.8"/>
      </g>
     </g>
     <g id="text_6">
      <!-- 250 -->
      <g transform="translate(258.261535 213.433938)scale(0.1 -0.1)">
       <use xlink:href="#DejaVuSans-32"/>
       <use xlink:href="#DejaVuSans-35" x="63.623047"/>
       <use xlink:href="#DejaVuSans-30" x="127.246094"/>
      </g>
     </g>
    </g>
    <g id="xtick_7">
     <g id="line2d_7">
      <g>
       <use xlink:href="#m9e028b4013" x="310.080831" y="198.8355" style="stroke: #000000; stroke-width: 0.8"/>
      </g>
     </g>
     <g id="text_7">
      <!-- 300 -->
      <g transform="translate(300.537081 213.433938)scale(0.1 -0.1)">
       <defs>
        <path id="DejaVuSans-33" d="M 2597 2516 
Q 3050 2419 3304 2112 
Q 3559 1806 3559 1356 
Q 3559 666 3084 287 
Q 2609 -91 1734 -91 
Q 1441 -91 1130 -33 
Q 819 25 488 141 
L 488 750 
Q 750 597 1062 519 
Q 1375 441 1716 441 
Q 2309 441 2620 675 
Q 2931 909 2931 1356 
Q 2931 1769 2642 2001 
Q 2353 2234 1838 2234 
L 1294 2234 
L 1294 2753 
L 1863 2753 
Q 2328 2753 2575 2939 
Q 2822 3125 2822 3475 
Q 2822 3834 2567 4026 
Q 2313 4219 1838 4219 
Q 1578 4219 1281 4162 
Q 984 4106 628 3988 
L 628 4550 
Q 988 4650 1302 4700 
Q 1616 4750 1894 4750 
Q 2613 4750 3031 4423 
Q 3450 4097 3450 3541 
Q 3450 3153 3228 2886 
Q 3006 2619 2597 2516 
z
" transform="scale(0.015625)"/>
       </defs>
       <use xlink:href="#DejaVuSans-33"/>
       <use xlink:href="#DejaVuSans-30" x="63.623047"/>
       <use xlink:href="#DejaVuSans-30" x="127.246094"/>
      </g>
     </g>
    </g>
    <g id="text_8">
     <!-- Time [s] -->
     <g transform="translate(162.952344 227.112063)scale(0.1 -0.1)">
      <defs>
       <path id="DejaVuSans-54" d="M -19 4666 
L 3928 4666 
L 3928 4134 
L 2272 4134 
L 2272 0 
L 1638 0 
L 1638 4134 
L -19 4134 
L -19 4666 
z
" transform="scale(0.015625)"/>
       <path id="DejaVuSans-69" d="M 603 3500 
L 1178 3500 
L 1178 0 
L 603 0 
L 603 3500 
z
M 603 4863 
L 1178 4863 
L 1178 4134 
L 603 4134 
L 603 4863 
z
" transform="scale(0.015625)"/>
       <path id="DejaVuSans-6d" d="M 3328 2828 
Q 3544 3216 3844 3400 
Q 4144 3584 4550 3584 
Q 5097 3584 5394 3201 
Q 5691 2819 5691 2113 
L 5691 0 
L 5113 0 
L 5113 2094 
Q 5113 2597 4934 2840 
Q 4756 3084 4391 3084 
Q 3944 3084 3684 2787 
Q 3425 2491 3425 1978 
L 3425 0 
L 2847 0 
L 2847 2094 
Q 2847 2600 2669 2842 
Q 2491 3084 2119 3084 
Q 1678 3084 1418 2786 
Q 1159 2488 1159 1978 
L 1159 0 
L 581 0 
L 581 3500 
L 1159 3500 
L 1159 2956 
Q 1356 3278 1631 3431 
Q 1906 3584 2284 3584 
Q 2666 3584 2933 3390 
Q 3200 3197 3328 2828 
z
" transform="scale(0.015625)"/>
       <path id="DejaVuSans-65" d="M 3597 1894 
L 3597 1613 
L 953 1613 
Q 991 1019 1311 708 
Q 1631 397 2203 397 
Q 2534 397 2845 478 
Q 3156 559 3463 722 
L 3463 178 
Q 3153 47 2828 -22 
Q 2503 -91 2169 -91 
Q 1331 -91 842 396 
Q 353 884 353 1716 
Q 353 2575 817 3079 
Q 1281 3584 2069 3584 
Q 2775 3584 3186 3129 
Q 3597 2675 3597 1894 
z
M 3022 2063 
Q 3016 2534 2758 2815 
Q 2500 3097 2075 3097 
Q 1594 3097 1305 2825 
Q 1016 2553 972 2059 
L 3022 2063 
z
" transform="scale(0.015625)"/>
       <path id="DejaVuSans-20" transform="scale(0.015625)"/>
       <path id="DejaVuSans-5b" d="M 550 4863 
L 1875 4863 
L 1875 4416 
L 1125 4416 
L 1125 -397 
L 1875 -397 
L 1875 -844 
L 550 -844 
L 550 4863 
z
" transform="scale(0.015625)"/>
       <path id="DejaVuSans-73" d="M 2834 3397 
L 2834 2853 
Q 2591 2978 2328 3040 
Q 2066 3103 1784 3103 
Q 1356 3103 1142 2972 
Q 928 2841 928 2578 
Q 928 2378 1081 2264 
Q 1234 2150 1697 2047 
L 1894 2003 
Q 2506 1872 2764 1633 
Q 3022 1394 3022 966 
Q 3022 478 2636 193 
Q 2250 -91 1575 -91 
Q 1294 -91 989 -36 
Q 684 19 347 128 
L 347 722 
Q 666 556 975 473 
Q 1284 391 1588 391 
Q 1994 391 2212 530 
Q 2431 669 2431 922 
Q 2431 1156 2273 1281 
Q 2116 1406 1581 1522 
L 1381 1569 
Q 847 1681 609 1914 
Q 372 2147 372 2553 
Q 372 3047 722 3315 
Q 1072 3584 1716 3584 
Q 2034 3584 2315 3537 
Q 2597 3491 2834 3397 
z
" transform="scale(0.015625)"/>
       <path id="DejaVuSans-5d" d="M 1947 4863 
L 1947 -844 
L 622 -844 
L 622 -397 
L 1369 -397 
L 1369 4416 
L 622 4416 
L 622 4863 
L 1947 4863 
z
" transform="scale(0.015625)"/>
      </defs>
      <use xlink:href="#DejaVuSans-54"/>
      <use xlink:href="#DejaVuSans-69" x="57.958984"/>
      <use xlink:href="#DejaVuSans-6d" x="85.742188"/>
      <use xlink:href="#DejaVuSans-65" x="183.154297"/>
      <use xlink:href="#DejaVuSans-20" x="244.677734"/>
      <use xlink:href="#DejaVuSans-5b" x="276.464844"/>
      <use xlink:href="#DejaVuSans-73" x="315.478516"/>
      <use xlink:href="#DejaVuSans-5d" x="367.578125"/>
     </g>
    </g>
   </g>
   <g id="matplotlib.axis_2">
    <g id="ytick_1">
     <g id="line2d_8">
      <defs>
       <path id="m513d82975b" d="M 0 0 
L -3.5 0 
" style="stroke: #000000; stroke-width: 0.8"/>
      </defs>
      <g>
       <use xlink:href="#m513d82975b" x="43.78125" y="195.923357" style="stroke: #000000; stroke-width: 0.8"/>
      </g>
     </g>
     <g id="text_9">
      <!-- 0.0 -->
      <g transform="translate(20.878125 199.722576)scale(0.1 -0.1)">
       <defs>
        <path id="DejaVuSans-2e" d="M 684 794 
L 1344 794 
L 1344 0 
L 684 0 
L 684 794 
z
" transform="scale(0.015625)"/>
       </defs>
       <use xlink:href="#DejaVuSans-30"/>
       <use xlink:href="#DejaVuSans-2e" x="63.623047"/>
       <use xlink:href="#DejaVuSans-30" x="95.410156"/>
      </g>
     </g>
    </g>
    <g id="ytick_2">
     <g id="line2d_9">
      <g>
       <use xlink:href="#m513d82975b" x="43.78125" y="166.801929" style="stroke: #000000; stroke-width: 0.8"/>
      </g>
     </g>
     <g id="text_10">
      <!-- 0.2 -->
      <g transform="translate(20.878125 170.601147)scale(0.1 -0.1)">
       <use xlink:href="#DejaVuSans-30"/>
       <use xlink:href="#DejaVuSans-2e" x="63.623047"/>
       <use xlink:href="#DejaVuSans-32" x="95.410156"/>
      </g>
     </g>
    </g>
    <g id="ytick_3">
     <g id="line2d_10">
      <g>
       <use xlink:href="#m513d82975b" x="43.78125" y="137.6805" style="stroke: #000000; stroke-width: 0.8"/>
      </g>
     </g>
     <g id="text_11">
      <!-- 0.4 -->
      <g transform="translate(20.878125 141.479719)scale(0.1 -0.1)">
       <defs>
        <path id="DejaVuSans-34" d="M 2419 4116 
L 825 1625 
L 2419 1625 
L 2419 4116 
z
M 2253 4666 
L 3047 4666 
L 3047 1625 
L 3713 1625 
L 3713 1100 
L 3047 1100 
L 3047 0 
L 2419 0 
L 2419 1100 
L 313 1100 
L 313 1709 
L 2253 4666 
z
" transform="scale(0.015625)"/>
       </defs>
       <use xlink:href="#DejaVuSans-30"/>
       <use xlink:href="#DejaVuSans-2e" x="63.623047"/>
       <use xlink:href="#DejaVuSans-34" x="95.410156"/>
      </g>
     </g>
    </g>
    <g id="ytick_4">
     <g id="line2d_11">
      <g>
       <use xlink:href="#m513d82975b" x="43.78125" y="108.559071" style="stroke: #000000; stroke-width: 0.8"/>
      </g>
     </g>
     <g id="text_12">
      <!-- 0.6 -->
      <g transform="translate(20.878125 112.35829)scale(0.1 -0.1)">
       <defs>
        <path id="DejaVuSans-36" d="M 2113 2584 
Q 1688 2584 1439 2293 
Q 1191 2003 1191 1497 
Q 1191 994 1439 701 
Q 1688 409 2113 409 
Q 2538 409 2786 701 
Q 3034 994 3034 1497 
Q 3034 2003 2786 2293 
Q 2538 2584 2113 2584 
z
M 3366 4563 
L 3366 3988 
Q 3128 4100 2886 4159 
Q 2644 4219 2406 4219 
Q 1781 4219 1451 3797 
Q 1122 3375 1075 2522 
Q 1259 2794 1537 2939 
Q 1816 3084 2150 3084 
Q 2853 3084 3261 2657 
Q 3669 2231 3669 1497 
Q 3669 778 3244 343 
Q 2819 -91 2113 -91 
Q 1303 -91 875 529 
Q 447 1150 447 2328 
Q 447 3434 972 4092 
Q 1497 4750 2381 4750 
Q 2619 4750 2861 4703 
Q 3103 4656 3366 4563 
z
" transform="scale(0.015625)"/>
       </defs>
       <use xlink:href="#DejaVuSans-30"/>
       <use xlink:href="#DejaVuSans-2e" x="63.623047"/>
       <use xlink:href="#DejaVuSans-36" x="95.410156"/>
      </g>
     </g>
    </g>
    <g id="ytick_5">
     <g id="line2d_12">
      <g>
       <use xlink:href="#m513d82975b" x="43.78125" y="79.437643" style="stroke: #000000; stroke-width: 0.8"/>
      </g>
     </g>
     <g id="text_13">
      <!-- 0.8 -->
      <g transform="translate(20.878125 83.236862)scale(0.1 -0.1)">
       <defs>
        <path id="DejaVuSans-38" d="M 2034 2216 
Q 1584 2216 1326 1975 
Q 1069 1734 1069 1313 
Q 1069 891 1326 650 
Q 1584 409 2034 409 
Q 2484 409 2743 651 
Q 3003 894 3003 1313 
Q 3003 1734 2745 1975 
Q 2488 2216 2034 2216 
z
M 1403 2484 
Q 997 2584 770 2862 
Q 544 3141 544 3541 
Q 544 4100 942 4425 
Q 1341 4750 2034 4750 
Q 2731 4750 3128 4425 
Q 3525 4100 3525 3541 
Q 3525 3141 3298 2862 
Q 3072 2584 2669 2484 
Q 3125 2378 3379 2068 
Q 3634 1759 3634 1313 
Q 3634 634 3220 271 
Q 2806 -91 2034 -91 
Q 1263 -91 848 271 
Q 434 634 434 1313 
Q 434 1759 690 2068 
Q 947 2378 1403 2484 
z
M 1172 3481 
Q 1172 3119 1398 2916 
Q 1625 2713 2034 2713 
Q 2441 2713 2670 2916 
Q 2900 3119 2900 3481 
Q 2900 3844 2670 4047 
Q 2441 4250 2034 4250 
Q 1625 4250 1398 4047 
Q 1172 3844 1172 3481 
z
" transform="scale(0.015625)"/>
       </defs>
       <use xlink:href="#DejaVuSans-30"/>
       <use xlink:href="#DejaVuSans-2e" x="63.623047"/>
       <use xlink:href="#DejaVuSans-38" x="95.410156"/>
      </g>
     </g>
    </g>
    <g id="ytick_6">
     <g id="line2d_13">
      <g>
       <use xlink:href="#m513d82975b" x="43.78125" y="50.316214" style="stroke: #000000; stroke-width: 0.8"/>
      </g>
     </g>
     <g id="text_14">
      <!-- 1.0 -->
      <g transform="translate(20.878125 54.115433)scale(0.1 -0.1)">
       <use xlink:href="#DejaVuSans-31"/>
       <use xlink:href="#DejaVuSans-2e" x="63.623047"/>
       <use xlink:href="#DejaVuSans-30" x="95.410156"/>
      </g>
     </g>
    </g>
    <g id="text_15">
     <!-- (F-F$^o$)/F$^o$ -->
     <g transform="translate(14.798438 137.9955)rotate(-90)scale(0.1 -0.1)">
      <defs>
       <path id="DejaVuSans-28" d="M 1984 4856 
Q 1566 4138 1362 3434 
Q 1159 2731 1159 2009 
Q 1159 1288 1364 580 
Q 1569 -128 1984 -844 
L 1484 -844 
Q 1016 -109 783 600 
Q 550 1309 550 2009 
Q 550 2706 781 3412 
Q 1013 4119 1484 4856 
L 1984 4856 
z
" transform="scale(0.015625)"/>
       <path id="DejaVuSans-46" d="M 628 4666 
L 3309 4666 
L 3309 4134 
L 1259 4134 
L 1259 2759 
L 3109 2759 
L 3109 2228 
L 1259 2228 
L 1259 0 
L 628 0 
L 628 4666 
z
" transform="scale(0.015625)"/>
       <path id="DejaVuSans-2d" d="M 313 2009 
L 1997 2009 
L 1997 1497 
L 313 1497 
L 313 2009 
z
" transform="scale(0.015625)"/>
       <path id="DejaVuSans-Oblique-6f" d="M 1625 -91 
Q 1009 -91 651 289 
Q 294 669 294 1325 
Q 294 1706 417 2101 
Q 541 2497 738 2766 
Q 1047 3184 1428 3384 
Q 1809 3584 2291 3584 
Q 2888 3584 3255 3212 
Q 3622 2841 3622 2241 
Q 3622 1825 3500 1412 
Q 3378 1000 3181 728 
Q 2875 309 2494 109 
Q 2113 -91 1625 -91 
z
M 891 1344 
Q 891 869 1089 633 
Q 1288 397 1691 397 
Q 2269 397 2648 901 
Q 3028 1406 3028 2181 
Q 3028 2634 2825 2865 
Q 2622 3097 2228 3097 
Q 1903 3097 1650 2945 
Q 1397 2794 1197 2484 
Q 1050 2253 970 1956 
Q 891 1659 891 1344 
z
" transform="scale(0.015625)"/>
       <path id="DejaVuSans-29" d="M 513 4856 
L 1013 4856 
Q 1481 4119 1714 3412 
Q 1947 2706 1947 2009 
Q 1947 1309 1714 600 
Q 1481 -109 1013 -844 
L 513 -844 
Q 928 -128 1133 580 
Q 1338 1288 1338 2009 
Q 1338 2731 1133 3434 
Q 928 4138 513 4856 
z
" transform="scale(0.015625)"/>
       <path id="DejaVuSans-2f" d="M 1625 4666 
L 2156 4666 
L 531 -594 
L 0 -594 
L 1625 4666 
z
" transform="scale(0.015625)"/>
      </defs>
      <use xlink:href="#DejaVuSans-28" transform="translate(0 0.51875)"/>
      <use xlink:href="#DejaVuSans-46" transform="translate(39.013672 0.51875)"/>
      <use xlink:href="#DejaVuSans-2d" transform="translate(96.533203 0.51875)"/>
      <use xlink:href="#DejaVuSans-46" transform="translate(132.617188 0.51875)"/>
      <use xlink:href="#DejaVuSans-Oblique-6f" transform="translate(191.09375 38.8)scale(0.7)"/>
      <use xlink:href="#DejaVuSans-29" transform="translate(236.655273 0.51875)"/>
      <use xlink:href="#DejaVuSans-2f" transform="translate(275.668945 0.51875)"/>
      <use xlink:href="#DejaVuSans-46" transform="translate(309.360352 0.51875)"/>
      <use xlink:href="#DejaVuSans-Oblique-6f" transform="translate(367.836914 38.8)scale(0.7)"/>
     </g>
    </g>
   </g>
   <g id="line2d_14">
    <path d="M 56.463068 136.985039 
L 56.851158 136.404494 
L 56.985594 137.042977 
L 57.254466 136.336657 
L 57.389748 137.253767 
L 57.524184 136.645563 
L 57.793902 136.545991 
L 58.065311 135.615488 
L 58.200593 136.422399 
L 58.335029 136.277117 
L 58.603902 137.740563 
L 58.739184 137.409239 
L 58.874465 138.536994 
L 59.008902 137.898365 
L 59.41221 139.658489 
L 59.547492 141.333161 
L 59.816364 140.42333 
L 59.951646 140.543719 
L 60.086082 140.14907 
L 60.223055 140.981311 
L 60.357491 140.943317 
L 60.491928 141.151341 
L 60.627209 141.133581 
L 60.896927 139.898248 
L 61.031364 140.616942 
L 61.301082 139.958806 
L 61.435518 140.498737 
L 61.569954 140.304105 
L 61.705236 139.531403 
L 61.839672 140.716659 
L 61.974108 140.630771 
L 62.10939 140.70909 
L 62.378263 141.602472 
L 62.513544 141.364314 
L 62.647135 140.365974 
L 62.920235 140.406298 
L 63.054671 140.202641 
L 63.189107 140.579384 
L 63.324389 141.549629 
L 63.458825 140.651297 
L 63.593262 141.047256 
L 63.727698 140.879556 
L 63.993188 139.213472 
L 64.12847 139.193092 
L 64.262906 138.314267 
L 64.397343 138.975314 
L 64.532624 140.578219 
L 64.667061 140.478065 
L 64.801497 140.187501 
L 64.936779 140.936038 
L 65.071215 140.961222 
L 65.205651 139.288879 
L 65.340933 139.148401 
L 65.475369 139.526745 
L 65.610651 139.064987 
L 65.745087 139.857196 
L 65.879523 139.415673 
L 66.149241 140.151545 
L 66.418114 139.921976 
L 66.55255 140.721609 
L 66.822268 139.723706 
L 66.956704 141.048129 
L 67.09114 141.239704 
L 67.226422 140.609663 
L 67.49614 141.714709 
L 67.765858 141.038667 
L 67.900294 141.89158 
L 68.034731 140.858157 
L 68.169167 140.946374 
L 68.302757 142.304134 
L 68.438039 140.64067 
L 68.573321 140.880575 
L 68.707757 140.825548 
L 68.843039 141.328794 
L 68.977475 141.060794 
L 69.111911 141.442778 
L 69.247193 141.314674 
L 69.381629 140.676481 
L 69.516066 140.871258 
L 69.650502 141.328503 
L 69.785784 141.188753 
L 69.92022 139.685274 
L 70.189092 140.723356 
L 70.324374 140.033048 
L 70.45881 140.560023 
L 70.594092 140.180951 
L 70.729374 140.597435 
L 70.86381 139.830847 
L 70.999092 139.962009 
L 71.267964 139.661983 
L 71.403246 139.683818 
L 71.538528 139.406065 
L 71.672964 138.679364 
L 71.942682 140.320701 
L 72.077964 139.015784 
L 72.2124 139.124527 
L 72.346836 139.613216 
L 72.481272 139.241859 
L 72.75099 139.583955 
L 72.886272 139.779751 
L 73.020708 139.523979 
L 73.15599 138.379193 
L 73.425708 139.257726 
L 73.559299 139.615836 
L 73.694581 140.537313 
L 73.830708 140.654354 
L 74.100426 140.016162 
L 74.369298 141.445253 
L 74.50458 141.208405 
L 74.773453 142.137889 
L 75.04317 141.873238 
L 75.178452 142.469359 
L 75.312888 142.344458 
L 75.44817 143.086589 
L 75.582606 142.151573 
L 75.717888 142.585818 
L 75.852324 142.469796 
L 75.986761 142.10368 
L 76.122042 143.019917 
L 76.256479 142.354502 
L 76.526197 143.899324 
L 76.930351 144.050137 
L 77.065633 144.295865 
L 77.200069 143.573531 
L 77.334505 143.582848 
L 77.469787 143.408742 
L 77.738659 144.650481 
L 78.008377 143.894811 
L 78.278095 145.482722 
L 78.412531 145.872421 
L 78.547813 145.491602 
L 78.682249 146.701751 
L 78.950276 146.093692 
L 79.084713 147.026525 
L 79.219149 146.160074 
L 79.354431 146.735087 
L 79.488867 146.09704 
L 79.623303 146.28745 
L 79.893021 145.946372 
L 80.028303 144.78499 
L 80.162739 146.135181 
L 80.298021 145.929631 
L 80.432457 147.187528 
L 80.70133 146.0474 
L 80.836611 146.019596 
L 80.970202 146.215537 
L 81.511329 145.365536 
L 81.645765 146.833204 
L 81.914638 145.944043 
L 82.049074 146.179289 
L 82.187738 147.107754 
L 82.322174 146.349464 
L 82.457456 147.208782 
L 82.591892 146.565495 
L 82.860764 148.026757 
L 82.996046 146.920547 
L 83.129637 148.151659 
L 83.399355 147.02143 
L 83.534637 148.375987 
L 83.669073 148.528402 
L 83.803509 147.649432 
L 84.073227 149.15029 
L 84.207663 148.415146 
L 84.344636 148.598714 
L 84.479072 148.184995 
L 84.74879 148.729293 
L 84.884072 148.642677 
L 85.018508 148.055726 
L 85.152944 149.019129 
L 85.287381 148.774275 
L 85.421817 149.179259 
L 85.557099 148.810959 
L 85.691535 149.817306 
L 85.826817 148.018314 
L 85.961253 149.221475 
L 86.095689 149.32687 
L 86.364562 148.808485 
L 86.499843 149.798236 
L 86.63428 148.833814 
L 86.769561 150.457536 
L 86.903998 150.461613 
L 87.043507 150.186043 
L 87.177943 150.628876 
L 87.446816 150.352869 
L 87.582097 149.536496 
L 87.717379 150.668326 
L 87.986252 150.145428 
L 88.121533 151.227036 
L 88.25597 150.968498 
L 88.390406 150.399744 
L 88.524842 151.037354 
L 88.793714 150.164498 
L 88.928996 151.46432 
L 89.197869 150.673276 
L 89.33315 151.261245 
L 89.467587 150.521006 
L 89.602023 151.656185 
L 89.737305 150.320552 
L 90.006177 152.933443 
L 90.14315 152.561795 
L 90.412868 154.290912 
L 90.547304 154.028881 
L 90.680895 154.751506 
L 90.950613 154.830406 
L 91.08674 154.594141 
L 91.221176 155.224909 
L 91.356458 154.101958 
L 91.490894 154.878009 
L 91.626176 154.222784 
L 91.760612 154.715403 
L 92.029485 154.590793 
L 92.299203 154.277374 
L 92.434484 154.705796 
L 92.568921 154.002095 
L 92.973075 155.028531 
L 93.107511 154.484525 
L 93.241947 154.452207 
L 93.377229 153.996418 
L 93.646102 155.040323 
L 93.781383 154.722391 
L 93.91582 153.654758 
L 94.050256 154.837539 
L 94.184692 153.472355 
L 94.455256 155.252131 
L 94.589692 154.338369 
L 94.724974 154.529798 
L 94.860255 154.496025 
L 95.129128 154.005735 
L 95.264409 154.80988 
L 95.398846 154.661978 
L 95.803 153.643403 
L 96.071872 154.781202 
L 96.206309 154.290184 
L 96.34159 154.587008 
L 96.476027 154.493987 
L 96.610463 155.273967 
L 96.745745 154.473752 
L 96.880181 154.660377 
L 97.015463 155.080937 
L 97.149053 154.978891 
L 97.284335 155.338456 
L 97.418771 155.337874 
L 97.553208 155.87664 
L 97.687644 154.365591 
L 97.954825 156.363873 
L 98.090107 156.463008 
L 98.358979 156.863189 
L 98.628697 157.178791 
L 98.763134 157.219115 
L 98.89757 156.844846 
L 99.032852 157.316794 
L 99.301724 155.642558 
L 99.571442 156.160216 
L 99.704187 155.046145 
L 99.973905 156.057442 
L 100.108342 155.270765 
L 100.243623 156.480186 
L 100.378059 156.596935 
L 100.512496 155.859171 
L 100.782214 155.827145 
L 100.91665 155.643432 
L 101.185522 155.040468 
L 101.45524 155.466415 
L 101.724958 154.673915 
L 101.859395 154.886306 
L 101.993831 153.670771 
L 102.262703 154.909452 
L 102.531576 155.110926 
L 102.666858 155.284594 
L 102.933193 155.870671 
L 103.06763 155.114128 
L 103.202911 155.258682 
L 103.337348 154.714967 
L 103.740656 155.878096 
L 103.875093 155.882608 
L 104.009529 154.36399 
L 104.279247 155.68987 
L 104.41622 154.963606 
L 104.550656 154.883249 
L 104.819528 155.845487 
L 104.95481 155.644742 
L 105.089246 154.524848 
L 105.358964 155.659154 
L 105.493401 156.1295 
L 105.628682 156.144349 
L 105.897555 155.823069 
L 106.031991 156.528371 
L 106.167273 155.932249 
L 106.298327 155.97956 
L 106.699945 155.154161 
L 106.968817 155.89702 
L 107.103253 156.193989 
L 107.238535 155.566278 
L 107.377199 156.601012 
L 107.512481 156.624594 
L 107.646917 157.359302 
L 107.781353 157.178791 
L 108.052762 158.466094 
L 108.32248 157.76021 
L 108.456916 157.144436 
L 108.591352 157.351586 
L 108.725789 157.129442 
L 108.860225 157.210235 
L 109.129097 155.798322 
L 109.264379 157.081112 
L 109.534097 156.318163 
L 109.669379 155.729029 
L 109.803815 155.835006 
L 110.072688 154.153055 
L 110.342406 155.107432 
L 110.476842 153.77966 
L 110.612124 154.514367 
L 110.747405 154.526886 
L 111.017123 154.714093 
L 111.289378 153.602497 
L 111.423814 154.033539 
L 111.559096 154.06047 
L 111.693532 154.229626 
L 111.827968 153.477013 
L 111.96325 153.776166 
L 112.097686 153.072902 
L 112.23635 153.27292 
L 112.642195 152.591929 
L 112.777477 152.418697 
L 112.911913 153.274958 
L 113.043813 152.869974 
L 113.178249 152.93519 
L 113.312685 152.360759 
L 113.447122 152.544181 
L 113.582403 152.353917 
L 113.71684 152.53501 
L 113.851276 152.342562 
L 113.986558 153.363757 
L 114.120994 152.349986 
L 114.25543 152.405595 
L 114.659584 154.423384 
L 114.794866 153.754621 
L 114.929302 154.319154 
L 115.063739 154.312457 
L 115.199866 154.743645 
L 115.334302 154.701574 
L 115.605711 155.258537 
L 115.740993 156.245377 
L 115.875429 156.014352 
L 116.010711 157.078637 
L 116.145147 156.568985 
L 116.279583 156.516434 
L 116.414865 157.512445 
L 116.549301 157.245464 
L 116.683737 157.707367 
L 116.953455 157.321598 
L 117.088737 157.575041 
L 117.358455 158.920719 
L 117.762609 158.276558 
L 118.032327 159.476808 
L 118.166764 159.483795 
L 118.3012 159.264125 
L 118.571763 158.490113 
L 118.7062 158.993942 
L 118.975072 158.373655 
L 119.109508 158.404371 
L 119.243944 159.560803 
L 119.383454 157.239786 
L 119.51789 157.541414 
L 119.652326 158.135352 
L 119.786762 157.876523 
L 120.053944 159.488745 
L 120.323662 158.315717 
L 120.592534 159.332836 
L 120.862252 158.738024 
L 120.996689 158.883452 
L 121.131125 159.406059 
L 121.400843 158.386174 
L 121.666333 159.725738 
L 121.801615 159.101375 
L 121.936051 159.932597 
L 122.205769 159.315222 
L 122.340205 160.118931 
L 122.475487 159.394704 
L 122.609923 160.424343 
L 122.745205 160.067398 
L 122.879641 160.462483 
L 123.010696 161.250907 
L 123.41485 159.917021 
L 123.549286 159.998396 
L 123.683722 160.287504 
L 123.95344 161.255274 
L 124.087877 161.308554 
L 124.222313 160.91507 
L 124.356749 160.873581 
L 124.492031 160.178033 
L 124.627312 160.781288 
L 124.761749 160.856258 
L 124.896185 160.118348 
L 125.030621 160.068126 
L 125.299494 160.622031 
L 125.707875 160.288814 
L 125.842312 160.606455 
L 125.977593 160.130868 
L 126.112875 160.135963 
L 126.246466 159.936382 
L 126.516184 158.988119 
L 126.651466 160.248054 
L 126.785902 159.881355 
L 126.921184 160.03741 
L 127.05562 160.782744 
L 127.324492 159.702155 
L 127.458929 159.939293 
L 127.593365 160.576321 
L 127.728646 160.102335 
L 127.863083 160.162894 
L 127.998364 160.356651 
L 128.132801 159.988497 
L 128.401673 160.004947 
L 128.670546 161.308699 
L 128.804982 160.664102 
L 128.939418 161.499254 
L 129.0747 161.533173 
L 129.209136 161.728823 
L 129.344418 162.278362 
L 129.612445 161.069232 
L 129.747727 162.557425 
L 129.882163 161.526477 
L 130.019981 162.061167 
L 130.289699 160.379798 
L 130.558572 161.368967 
L 130.693853 160.837625 
L 130.828289 160.796137 
L 130.963571 161.014496 
L 131.098007 160.789586 
L 131.232444 161.189912 
L 131.367725 160.503389 
L 131.503007 161.289775 
L 131.634907 160.65595 
L 131.908852 160.901095 
L 132.044134 160.720584 
L 132.17857 161.258768 
L 132.313007 161.30899 
L 132.448288 160.505136 
L 132.582725 160.56322 
L 132.717161 160.882461 
L 132.852443 159.438959 
L 132.986879 160.68652 
L 133.122161 159.996504 
L 133.391879 160.868341 
L 133.526315 160.389405 
L 133.661597 161.173171 
L 133.796033 160.663665 
L 133.931315 160.917981 
L 134.200187 160.26727 
L 134.469905 160.136545 
L 134.605187 159.43299 
L 134.739623 159.64116 
L 134.874059 159.55498 
L 135.009341 160.023289 
L 135.143777 160.068126 
L 135.279059 159.546537 
L 135.548777 160.325935 
L 135.684059 159.283923 
L 135.952931 160.996736 
L 136.222649 160.216756 
L 136.357085 161.065883 
L 136.492367 160.907063 
L 136.625958 160.980723 
L 136.76124 160.886974 
L 136.895676 161.383524 
L 137.030112 160.823795 
L 137.298985 161.070542 
L 137.434266 160.844467 
L 137.568702 160.991204 
L 137.842648 160.23568 
L 137.977084 160.216756 
L 138.112366 160.485775 
L 138.246802 161.047832 
L 138.381238 161.119163 
L 138.515675 161.533027 
L 138.785393 161.078839 
L 139.055111 161.702766 
L 139.189547 159.89897 
L 139.323983 161.22383 
L 139.458419 160.729464 
L 139.592856 161.116252 
L 139.862574 160.92919 
L 139.997855 160.331613 
L 140.132292 160.301625 
L 140.266728 160.730192 
L 140.40201 160.408621 
L 140.537291 160.674146 
L 140.671728 159.847873 
L 140.941446 160.989894 
L 141.076727 159.467637 
L 141.212009 160.040176 
L 141.346445 159.531252 
L 141.480881 160.227528 
L 141.616163 159.951813 
L 141.885036 160.204819 
L 142.153908 159.953123 
L 142.28919 161.113049 
L 142.423626 160.418374 
L 142.558062 161.120328 
L 142.692499 160.808074 
L 142.962217 161.43331 
L 143.097498 161.630853 
L 143.23278 161.598826 
L 143.367216 161.432873 
L 143.502498 160.495965 
L 143.636934 160.751882 
L 143.772216 161.284389 
L 143.907498 161.310883 
L 144.041934 161.099656 
L 144.177216 161.892156 
L 144.312498 161.601156 
L 144.715806 162.172384 
L 144.850242 161.309136 
L 145.255242 162.768069 
L 145.390524 162.064806 
L 145.52496 163.326488 
L 145.659396 161.904384 
L 145.929114 163.215416 
L 146.064396 163.119337 
L 146.198832 163.659559 
L 146.334114 163.491422 
L 146.469396 162.691498 
L 146.603832 162.88875 
L 146.738268 163.951433 
L 147.007141 163.616906 
L 147.142423 164.327739 
L 147.277704 164.350594 
L 147.412141 164.68978 
L 147.547422 164.146647 
L 147.81714 165.194918 
L 147.951577 164.883246 
L 148.086858 164.931722 
L 148.355731 164.635481 
L 148.491012 164.50432 
L 148.630522 163.813866 
L 148.764958 164.023492 
L 149.03383 164.7927 
L 149.303548 162.664713 
L 149.708548 163.940661 
L 149.842984 163.137679 
L 150.111857 164.105595 
L 150.245448 163.464491 
L 150.380729 164.074733 
L 150.650447 163.207263 
L 150.785729 163.533784 
L 150.921011 161.836256 
L 151.054602 163.056595 
L 151.189883 163.061545 
L 151.459601 162.748563 
L 151.594038 163.292715 
L 151.729319 163.03374 
L 151.863756 163.444402 
L 151.999037 163.143357 
L 152.26791 163.534803 
L 152.402346 163.127198 
L 152.537628 163.442946 
L 152.672064 163.26986 
L 152.807346 163.383552 
L 152.941782 162.809703 
L 153.076218 163.458377 
L 153.210654 163.061545 
L 153.346782 163.447459 
L 153.481218 163.221093 
L 153.6165 163.529417 
L 153.750936 163.237251 
L 153.885372 163.254138 
L 154.020654 163.913875 
L 154.155936 162.656706 
L 154.56009 163.049899 
L 154.694526 163.145686 
L 154.829808 163.497245 
L 155.099526 163.438288 
L 155.50368 165.02387 
L 155.638962 164.793864 
L 155.773398 164.089145 
L 155.90868 164.8716 
L 156.043961 164.918766 
L 156.312834 164.408387 
L 156.44727 164.9275 
L 156.582552 164.867961 
L 156.716988 164.674786 
L 156.851424 165.071618 
L 156.986706 164.921386 
L 157.121142 165.328845 
L 157.39086 164.562112 
L 157.525297 164.638975 
L 157.794169 165.256059 
L 157.931142 164.109089 
L 158.065578 164.439685 
L 158.20086 164.141988 
L 158.604168 164.679298 
L 158.73945 164.663285 
L 158.874732 164.019561 
L 159.009168 165.171044 
L 159.14445 164.560947 
L 159.278886 164.521206 
L 159.414168 165.426234 
L 159.548604 165.161728 
L 159.68304 165.324478 
L 159.817477 165.933119 
L 159.952758 164.22249 
L 160.087195 165.542692 
L 160.221631 164.926918 
L 160.356913 165.103498 
L 160.491349 165.049636 
L 160.626631 165.476748 
L 160.761067 166.556609 
L 160.895503 165.35534 
L 161.030785 165.658714 
L 161.300503 167.049083 
L 161.434939 166.480329 
L 161.569375 167.613324 
L 161.704657 166.480474 
L 161.974375 167.506182 
L 162.107966 167.887147 
L 162.243247 167.39642 
L 162.381911 167.546069 
L 162.651629 168.400001 
L 162.786065 167.594108 
L 162.918811 167.808246 
L 163.053247 167.426554 
L 163.188529 167.740409 
L 163.322965 168.356766 
L 163.592683 167.82062 
L 163.727119 168.466091 
L 163.862401 167.711731 
L 163.996837 168.042473 
L 164.132119 168.796687 
L 164.267401 168.460122 
L 164.403528 168.606278 
L 164.537964 168.918969 
L 164.6724 168.188337 
L 164.807682 168.843853 
L 165.076555 167.672863 
L 165.346273 168.6006 
L 165.481554 168.741078 
L 165.751272 167.221004 
L 165.885708 167.240802 
L 166.02099 167.487549 
L 166.155426 167.234688 
L 166.290708 167.284911 
L 166.560426 168.652424 
L 166.694862 167.294373 
L 166.830144 167.32669 
L 167.099017 166.701308 
L 167.233453 167.436161 
L 167.503171 167.123179 
L 167.638453 167.35202 
L 167.773734 168.584879 
L 167.909016 167.539227 
L 168.043452 167.443877 
L 168.178734 166.408124 
L 168.31317 166.496342 
L 168.449298 167.330766 
L 168.582888 166.610325 
L 168.713097 167.218093 
L 168.981124 166.429524 
L 169.117251 167.269335 
L 169.251687 167.106002 
L 169.789432 169.339821 
L 170.059996 169.960107 
L 170.328868 169.829237 
L 170.463305 170.136251 
L 170.598586 170.113978 
L 170.733023 170.23262 
L 170.868304 169.903625 
L 171.002741 170.903567 
L 171.40774 169.670708 
L 171.677458 170.210493 
L 171.811894 169.26718 
L 171.948867 169.122771 
L 172.083303 169.578124 
L 172.218585 168.825511 
L 172.353021 168.739768 
L 172.488303 169.470691 
L 172.621894 169.345498 
L 172.757176 169.529502 
L 172.892457 169.090891 
L 173.027739 169.740146 
L 173.163021 168.678191 
L 173.297457 169.538528 
L 173.432739 169.359618 
L 173.568021 169.532705 
L 173.701611 168.906886 
L 173.836048 169.303282 
L 173.971329 169.240394 
L 174.105766 168.612392 
L 174.241047 169.471419 
L 174.376329 169.231514 
L 174.510765 169.509122 
L 174.646047 168.90907 
L 175.185483 169.120296 
L 175.455201 170.200885 
L 175.723228 169.550028 
L 175.857664 170.54502 
L 175.9921 170.445302 
L 176.127382 170.097674 
L 176.263509 170.43948 
L 176.397946 169.813952 
L 176.533227 170.083262 
L 176.802945 171.533316 
L 176.938227 171.19777 
L 177.072663 171.866241 
L 177.207945 170.312103 
L 177.342381 170.853489 
L 177.746536 171.072577 
L 177.881817 172.91757 
L 178.016254 172.296119 
L 178.15069 173.198817 
L 178.285972 173.195469 
L 178.55569 172.132494 
L 178.690126 172.62162 
L 178.825407 172.344158 
L 179.09428 173.65155 
L 179.228716 173.085998 
L 179.363998 173.044655 
L 179.633716 174.11913 
L 179.768152 174.024508 
L 179.903434 173.990589 
L 180.173152 173.523882 
L 180.308434 174.086813 
L 180.44287 173.591865 
L 180.579843 173.516603 
L 180.849561 173.119917 
L 180.984842 173.131708 
L 181.120124 173.762767 
L 181.25456 172.915241 
L 181.388997 172.950906 
L 181.65956 172.59498 
L 181.793996 173.168392 
L 182.33766 171.807721 
L 182.607378 171.727365 
L 182.741814 172.442711 
L 182.87625 172.216053 
L 183.146814 172.502687 
L 183.282096 173.152816 
L 183.416532 172.962115 
L 183.551813 173.562604 
L 183.820686 172.595562 
L 184.090404 173.499862 
L 184.225686 172.703869 
L 184.360967 172.774617 
L 184.495404 173.569446 
L 184.765122 172.821055 
L 184.900403 173.232736 
L 185.306249 172.254339 
L 185.44153 172.480269 
L 185.575967 173.740786 
L 185.711248 172.392634 
L 185.845685 172.764718 
L 185.981812 172.791067 
L 186.116248 171.327475 
L 186.385966 172.996471 
L 186.927093 171.748764 
L 187.062375 172.241529 
L 187.197657 171.6588 
L 187.332938 172.411995 
L 187.46822 172.370215 
L 187.603502 171.622115 
L 187.737093 172.099886 
L 187.872374 171.663458 
L 188.00681 172.140938 
L 188.142092 172.029283 
L 188.277374 172.419565 
L 188.412656 171.600134 
L 188.547092 171.510752 
L 188.682374 170.959903 
L 188.81681 171.819512 
L 188.952092 171.694174 
L 189.086528 172.375019 
L 189.22181 171.86202 
L 189.356246 173.083232 
L 189.7604 171.943249 
L 189.895682 172.921209 
L 190.030118 172.26977 
L 190.1654 172.991958 
L 190.435118 172.200332 
L 190.569554 172.261035 
L 190.839272 173.183532 
L 191.10899 172.53515 
L 191.377863 172.613177 
L 191.782017 172.937514 
L 191.916453 173.73307 
L 192.050889 172.823821 
L 192.185325 173.144955 
L 192.320607 172.73211 
L 192.455043 172.904177 
L 192.590325 172.642874 
L 192.724761 172.637779 
L 192.859198 172.476629 
L 192.994479 172.98235 
L 193.263352 172.16059 
L 193.400325 172.022004 
L 193.535606 172.64826 
L 193.670888 172.264966 
L 193.941452 173.442798 
L 194.076733 173.237249 
L 194.210324 174.082446 
L 194.345606 173.594339 
L 194.480042 173.706867 
L 194.615324 173.576579 
L 194.885042 172.819599 
L 195.15476 173.112492 
L 195.289196 172.995597 
L 195.423632 172.612449 
L 195.558914 173.852586 
L 195.694196 173.481666 
L 195.829477 173.550085 
L 195.963914 172.578094 
L 196.099195 174.023343 
L 196.233632 172.70154 
L 196.368913 173.154126 
L 196.638631 172.894133 
L 196.773068 173.389081 
L 196.907504 172.432375 
L 197.042786 173.343226 
L 197.313349 172.132786 
L 197.447785 172.825713 
L 197.583067 172.793105 
L 198.121658 171.409579 
L 198.524966 173.245983 
L 198.659402 172.571688 
L 198.794684 173.11453 
L 198.92912 173.160823 
L 199.064402 172.294226 
L 199.199684 172.98497 
L 199.33412 172.851771 
L 199.468556 173.822598 
L 199.602993 172.980458 
L 199.737429 173.798287 
L 199.872711 173.272186 
L 200.007992 173.37103 
L 200.142429 173.732634 
L 200.27771 173.36215 
L 200.412147 173.960019 
L 200.547428 173.839339 
L 200.681019 173.891454 
L 200.815455 174.214335 
L 200.949892 173.913436 
L 201.220455 175.079621 
L 201.354891 174.271545 
L 201.624609 175.905312 
L 201.759045 175.237568 
L 202.028763 175.566418 
L 202.298481 175.694085 
L 202.432918 176.485421 
L 202.569045 175.573405 
L 202.837917 175.954952 
L 202.972354 175.906622 
L 203.10679 176.568543 
L 203.241226 175.998479 
L 203.51179 177.14836 
L 203.781508 175.938211 
L 203.915944 176.295739 
L 204.051226 176.291372 
L 204.186507 175.803411 
L 204.320944 176.506238 
L 204.456225 176.126729 
L 204.591507 176.417438 
L 204.725943 176.12338 
L 204.86038 176.177534 
L 204.995661 176.680925 
L 205.130097 175.959902 
L 205.266225 176.307385 
L 205.400661 175.130135 
L 205.535097 176.115374 
L 205.670379 175.798607 
L 205.804815 176.505364 
L 205.939251 175.343109 
L 206.074533 175.921616 
L 206.479533 175.29143 
L 206.616506 175.935737 
L 206.750942 175.045994 
L 206.885378 175.486353 
L 207.02066 175.332773 
L 207.155096 174.874072 
L 207.289532 174.952099 
L 207.424814 175.651578 
L 207.55925 175.318944 
L 207.694532 175.557829 
L 207.965096 175.055311 
L 208.099532 175.383578 
L 208.503686 174.619611 
L 208.638122 175.130863 
L 208.77425 174.572299 
L 208.910377 175.535411 
L 209.313685 174.068616 
L 209.448122 174.843793 
L 209.718685 174.201088 
L 209.853121 173.946626 
L 209.987558 174.753101 
L 210.122839 173.674987 
L 210.393403 174.842192 
L 210.527839 174.277223 
L 210.663121 174.196866 
L 210.798403 174.561527 
L 210.933684 174.421631 
L 211.068121 175.584614 
L 211.203402 175.049488 
L 211.472275 175.112521 
L 211.608402 174.676238 
L 211.742838 175.51372 
L 211.87812 174.931137 
L 212.012556 175.077438 
L 212.147838 175.021829 
L 212.28312 175.511246 
L 212.417556 175.222574 
L 212.551992 175.774587 
L 212.758297 175.891919 
L 212.892733 176.468534 
L 213.162451 175.912154 
L 213.296887 176.552821 
L 213.432169 176.410305 
L 213.701887 176.823732 
L 213.971605 176.394437 
L 214.106887 176.935533 
L 214.241323 176.311024 
L 214.511041 176.714844 
L 214.646323 176.639437 
L 214.916041 177.344593 
L 215.185759 176.724306 
L 215.321041 177.669658 
L 215.455477 177.685816 
L 215.590759 177.361043 
L 215.859631 177.975652 
L 215.994067 176.999002 
L 216.129349 177.869384 
L 216.265476 177.204988 
L 216.399912 177.642144 
L 216.670476 177.612739 
L 216.939348 178.05499 
L 217.073785 177.744045 
L 217.209066 177.732545 
L 217.478784 178.234336 
L 217.613221 178.402909 
L 217.748502 178.217449 
L 217.882939 178.55547 
L 218.017375 178.506557 
L 218.152657 178.191683 
L 218.287093 178.872528 
L 218.421529 178.971518 
L 218.555965 178.147865 
L 218.825683 178.508886 
L 219.094556 179.64028 
L 219.229837 179.432693 
L 219.364274 178.37263 
L 219.49871 178.805856 
L 219.633992 178.36244 
L 219.90371 178.25821 
L 220.175964 177.821345 
L 220.311246 177.564991 
L 220.446528 178.142188 
L 220.580964 178.034755 
L 220.7154 178.880971 
L 220.985118 177.811591 
L 221.254836 178.620687 
L 221.524554 178.449201 
L 221.659836 178.777469 
L 221.794272 179.588456 
L 221.929554 179.359907 
L 222.199272 180.641532 
L 222.333708 180.064917 
L 222.468144 181.099214 
L 222.602581 181.011288 
L 222.737017 181.68762 
L 222.872298 181.592707 
L 223.006735 180.99542 
L 223.141171 182.737493 
L 223.276453 181.749925 
L 223.546171 181.747596 
L 224.084761 180.800352 
L 224.219197 181.319175 
L 224.354479 180.714464 
L 224.488915 180.765997 
L 224.626734 181.334314 
L 224.896452 180.543707 
L 225.031733 180.133773 
L 225.167015 180.841986 
L 225.435888 179.813221 
L 225.570324 180.568163 
L 225.70476 179.822101 
L 225.840042 180.153134 
L 225.974478 180.071613 
L 226.108914 179.696472 
L 226.243351 180.215003 
L 226.377787 179.255676 
L 226.512223 180.431325 
L 226.781941 180.602082 
L 226.916377 180.969799 
L 227.050813 180.663659 
L 227.186095 180.640222 
L 227.320531 179.700693 
L 227.455813 180.214275 
L 227.590249 179.397465 
L 227.724686 180.570201 
L 227.993558 180.546618 
L 228.262431 181.501869 
L 228.397712 180.839366 
L 228.532994 180.974458 
L 228.66743 180.820441 
L 228.801867 180.386488 
L 228.937148 181.271718 
L 229.341302 180.427394 
L 229.475739 179.647413 
L 229.61102 180.759737 
L 229.745457 180.021391 
L 229.879893 180.861784 
L 230.014329 180.580537 
L 230.148765 181.252066 
L 230.284047 181.091498 
L 230.555456 181.204172 
L 230.689892 179.832 
L 230.825174 180.70704 
L 230.95961 180.600917 
L 231.094047 180.718395 
L 231.229328 180.479364 
L 231.499046 179.430364 
L 231.768764 180.416476 
L 231.904046 181.02075 
L 232.037637 179.907407 
L 232.172073 180.076854 
L 232.440945 180.906184 
L 232.576227 180.587088 
L 232.710663 181.238527 
L 232.980381 180.448648 
L 233.114818 180.456218 
L 233.38369 182.094206 
L 233.518126 181.739153 
L 233.653408 182.005989 
L 233.923126 181.286712 
L 234.058408 181.39036 
L 234.192844 182.227842 
L 234.32728 181.651955 
L 234.462562 181.628226 
L 234.597844 182.054173 
L 234.73228 181.781224 
L 235.001998 182.120555 
L 235.270871 180.983483 
L 235.405307 181.565193 
L 235.541434 181.321941 
L 235.676716 180.786814 
L 235.811998 182.048933 
L 235.946434 180.806757 
L 236.081715 181.890403 
L 236.216152 181.458488 
L 236.487561 182.034958 
L 236.621997 181.526325 
L 236.757279 181.854301 
L 236.891715 182.788881 
L 237.295869 182.136131 
L 237.564742 184.020574 
L 237.700023 183.689978 
L 237.835305 183.952883 
L 238.105023 183.091381 
L 238.239459 183.955358 
L 238.378123 182.634864 
L 238.512559 182.452461 
L 238.646996 183.702643 
L 238.782277 183.092255 
L 238.916714 183.542221 
L 239.05115 183.321678 
L 239.186432 183.864666 
L 239.321713 183.136072 
L 239.45615 183.170573 
L 239.591431 182.560185 
L 239.72164 182.520735 
L 239.859458 181.836687 
L 239.99474 183.687503 
L 240.129176 182.844635 
L 240.264458 182.826438 
L 240.398894 182.644909 
L 240.53333 183.166497 
L 240.667767 182.514039 
L 240.803048 183.721567 
L 240.937485 183.895673 
L 241.207203 182.300483 
L 241.342484 182.951777 
L 241.476921 182.029571 
L 241.612202 182.838084 
L 241.746639 182.528887 
L 241.88192 183.244379 
L 242.151638 182.731961 
L 242.286075 182.92834 
L 242.421356 182.81421 
L 242.555793 183.35909 
L 242.690229 182.817122 
L 242.825511 183.381945 
L 242.959947 182.883649 
L 243.094383 184.190749 
L 243.229665 183.448472 
L 243.364101 183.333178 
L 243.633819 183.834386 
L 243.903537 182.732835 
L 244.173255 183.566677 
L 244.307691 182.974195 
L 244.442127 183.730884 
L 244.715227 182.780728 
L 244.9841 183.839336 
L 245.119382 183.946041 
L 245.253818 183.385148 
L 245.3891 183.707592 
L 245.523536 183.606419 
L 245.792408 184.133539 
L 245.92769 183.845596 
L 246.061281 183.866121 
L 246.196563 183.456915 
L 246.330999 183.631749 
L 246.466281 184.213459 
L 246.599871 183.728264 
L 246.870435 183.982434 
L 247.004871 183.820994 
L 247.139307 184.258877 
L 247.273743 184.17197 
L 247.409025 184.656292 
L 247.543461 184.120729 
L 247.814025 184.909589 
L 247.948461 184.147077 
L 248.082897 184.681039 
L 248.352615 184.370532 
L 248.487052 185.428412 
L 248.622333 184.642899 
L 248.75677 184.833454 
L 248.892051 184.3979 
L 249.161769 184.929387 
L 249.565078 185.154589 
L 249.70036 185.029396 
L 249.834796 185.628866 
L 250.104514 185.033035 
L 250.239796 185.067099 
L 250.374232 185.284731 
L 250.508668 185.892499 
L 250.778386 185.673993 
L 250.912822 186.618617 
L 251.048104 185.448355 
L 251.317822 186.489348 
L 251.451413 186.155549 
L 251.586695 186.588775 
L 251.856413 185.705292 
L 251.990849 186.114061 
L 252.126131 184.880911 
L 252.260567 185.606447 
L 252.799157 185.339758 
L 252.934439 185.399151 
L 253.068875 185.212236 
L 253.338593 185.300307 
L 253.473875 184.312448 
L 253.742747 185.595675 
L 254.012465 184.416096 
L 254.146902 185.354752 
L 254.281338 185.06477 
L 254.415774 185.303947 
L 254.551056 184.881202 
L 254.819928 186.010413 
L 255.088801 184.783668 
L 255.358519 185.673411 
L 255.498028 185.463058 
L 255.63331 185.716501 
L 255.767746 184.866354 
L 256.037464 186.854882 
L 256.1719 186.076066 
L 256.441618 186.143758 
L 256.576055 186.462417 
L 256.710491 185.440785 
L 256.9819 186.383953 
L 257.251618 185.167399 
L 257.521336 186.500703 
L 257.656617 186.418745 
L 257.791899 186.753127 
L 257.926335 186.685435 
L 258.331335 185.121835 
L 258.466617 186.105763 
L 258.601053 185.574713 
L 258.736335 185.718393 
L 258.871617 185.628283 
L 259.006053 186.047971 
L 259.140489 185.633378 
L 259.274925 186.663599 
L 259.410207 186.014489 
L 259.679925 186.235469 
L 259.815207 187.269329 
L 259.949643 186.983569 
L 260.219361 187.829203 
L 260.353797 187.088818 
L 260.488233 187.39292 
L 260.62267 187.389863 
L 260.757951 187.042817 
L 260.893233 188.420084 
L 261.028515 188.551391 
L 261.162951 188.872816 
L 261.431824 188.013353 
L 261.567105 188.025581 
L 261.69816 189.175317 
L 261.967878 188.297803 
L 262.102314 188.366804 
L 262.23675 188.561581 
L 262.371186 188.171445 
L 262.506468 187.360603 
L 262.64175 187.506613 
L 262.776186 187.432225 
L 262.910622 188.299986 
L 263.045058 186.668985 
L 263.179495 187.366426 
L 263.313931 187.047475 
L 263.582803 187.406313 
L 263.718085 188.275675 
L 263.852521 187.259867 
L 263.987803 187.445472 
L 264.123085 187.165535 
L 264.257521 188.402615 
L 264.391957 187.823089 
L 264.527239 187.899515 
L 264.662521 188.204781 
L 264.796957 187.361477 
L 264.931393 188.172173 
L 265.066675 186.975417 
L 265.201111 188.194155 
L 265.335548 187.022146 
L 265.470829 187.528303 
L 265.605266 186.96872 
L 265.740547 187.397579 
L 266.010265 186.442328 
L 266.144702 187.597014 
L 266.279983 186.251336 
L 266.414419 187.288981 
L 266.549701 186.124105 
L 266.684137 186.77176 
L 266.819419 186.313787 
L 266.954701 186.844401 
L 267.089137 186.49357 
L 267.358855 187.303538 
L 267.494137 186.383371 
L 267.628573 186.976581 
L 267.894064 186.70567 
L 268.167164 187.253025 
L 268.302445 186.728961 
L 268.437727 187.333818 
L 268.573009 187.375743 
L 268.702372 188.710357 
L 268.971244 187.325957 
L 269.106526 187.604438 
L 269.375399 188.664501 
L 269.51068 188.196484 
L 269.645962 189.284497 
L 269.780398 188.143058 
L 270.049271 189.906531 
L 270.184553 188.881551 
L 270.318989 189.18871 
L 270.454271 189.153336 
L 270.588707 189.2992 
L 270.723143 188.841955 
L 270.858425 189.344619 
L 270.992861 188.672944 
L 271.261734 189.629796 
L 271.532297 189.21535 
L 271.667579 189.772749 
L 271.802861 189.67769 
L 271.936451 190.568597 
L 272.070887 190.517646 
L 272.340605 189.402993 
L 272.475887 189.910316 
L 272.610323 189.540997 
L 272.880041 190.0588 
L 273.148914 189.106898 
L 273.28335 189.697924 
L 273.418632 188.710211 
L 273.691732 189.02625 
L 273.826168 189.680601 
L 273.960604 188.776592 
L 274.095886 189.500818 
L 274.230322 189.155665 
L 274.364759 188.471617 
L 274.50004 188.782998 
L 274.634477 188.771643 
L 274.768913 189.719033 
L 274.904195 188.881114 
L 275.038631 188.853018 
L 275.177295 188.587347 
L 275.311731 188.971369 
L 275.581449 188.613987 
L 275.851167 187.731814 
L 275.986449 188.753592 
L 276.255321 188.435078 
L 276.525039 188.960597 
L 276.660321 188.921292 
L 276.930039 189.171532 
L 277.063629 189.994602 
L 277.198066 188.725933 
L 277.333347 190.174094 
L 277.467784 189.447102 
L 277.736656 189.28275 
L 277.871092 189.13805 
L 278.006374 189.897505 
L 278.276092 189.008345 
L 278.409683 188.990294 
L 278.544965 189.449431 
L 278.814683 189.480584 
L 278.949964 190.526235 
L 279.218837 189.265718 
L 279.354118 189.498926 
L 279.623836 190.338155 
L 279.758273 190.454904 
L 279.892709 189.881055 
L 280.027991 190.461164 
L 280.162427 190.378915 
L 280.296863 190.962954 
L 280.432145 190.978385 
L 280.567427 191.1637 
L 280.701863 190.415309 
L 280.836299 190.938498 
L 281.106017 189.152171 
L 281.241299 189.766926 
L 281.375735 189.808997 
L 281.510171 189.55963 
L 281.779044 188.495928 
L 281.914326 189.514939 
L 282.31848 189.395569 
L 282.453762 189.697342 
L 282.722634 188.780814 
L 282.857916 189.441716 
L 282.992352 189.266883 
L 283.126788 189.917157 
L 283.397352 188.963508 
L 283.531788 189.633727 
L 283.66707 189.048668 
L 283.801506 189.347967 
L 283.936788 189.216369 
L 284.206506 188.75956 
L 284.340942 189.524401 
L 284.611505 189.004269 
L 284.745942 188.030385 
L 284.880378 188.482972 
L 285.014814 189.454817 
L 285.150096 188.8635 
L 285.285378 189.652651 
L 285.420659 189.328169 
L 285.555096 189.881492 
L 285.824814 188.937451 
L 286.097068 190.25314 
L 286.23235 190.025901 
L 286.366786 189.503148 
L 286.501222 189.658329 
L 286.635658 189.357283 
L 286.770095 189.940595 
L 287.039813 189.058713 
L 287.175094 189.131645 
L 287.309531 189.426431 
L 287.448194 188.771934 
L 287.718758 190.462183 
L 287.853194 189.603302 
L 287.98763 190.031723 
L 288.659812 189.445792 
L 288.795093 189.594713 
L 288.92953 189.259022 
L 289.064811 190.103491 
L 289.46812 190.517501 
L 289.603402 190.165214 
L 289.737838 190.321851 
L 289.87312 189.37548 
L 290.007556 190.125181 
L 290.142838 189.380866 
L 290.41171 190.66089 
L 290.546992 189.6231 
L 290.681428 190.250083 
L 290.815864 191.588336 
L 291.086428 190.724943 
L 291.220864 191.407535 
L 291.3553 191.216397 
L 291.490582 190.378624 
L 291.625018 191.460523 
L 291.7603 191.507543 
L 291.894736 191.200239 
L 292.030018 191.276228 
L 292.164454 190.800932 
L 292.300582 191.637249 
L 292.435018 190.861344 
L 292.569454 191.980365 
L 292.839172 190.738044 
L 292.974454 190.81709 
L 293.10889 191.088147 
L 293.244172 190.894972 
L 293.378608 189.925892 
L 293.513044 191.304615 
L 293.648326 191.52443 
L 293.782762 191.21203 
L 294.05248 191.937275 
L 294.187762 191.587754 
L 294.317971 192.533834 
L 294.453252 192.447945 
L 294.587689 191.869729 
L 294.722125 193.675563 
L 294.857407 192.273112 
L 294.991843 192.475022 
L 295.127125 192.047037 
L 295.262406 192.307904 
L 295.534661 190.835432 
L 295.665715 191.565481 
L 295.800151 191.661414 
L 296.069869 192.767042 
L 296.205151 191.919224 
L 296.339587 192.846233 
L 296.609305 192.203237 
L 296.742896 192.531796 
L 296.877332 192.463376 
L 297.012614 192.20644 
L 297.147896 192.606766 
L 297.283177 191.562133 
L 297.418459 192.741712 
L 297.553741 192.459155 
L 297.823459 193.432019 
L 297.958741 193.160089 
L 298.229304 193.674544 
L 298.769586 192.973901 
L 298.904022 193.247578 
L 299.038458 192.248801 
L 299.17374 192.780726 
L 299.310713 192.175433 
L 299.445994 192.801542 
L 299.580431 192.213282 
L 299.984585 193.106664 
L 300.119021 192.55698 
L 300.254303 193.083226 
L 300.389584 193.120202 
L 300.524021 192.893981 
L 300.659302 192.954103 
L 300.793739 192.203092 
L 300.928175 192.851765 
L 301.197893 191.189466 
L 301.467611 193.11205 
L 301.602893 192.78815 
L 301.737329 192.082848 
L 301.871765 194.198316 
L 302.006201 193.090505 
L 302.140638 194.134701 
L 302.275074 193.185128 
L 302.410356 193.420956 
L 302.680919 193.414551 
L 302.81451 193.194153 
L 303.084228 194.475487 
L 303.353946 193.036206 
L 303.489228 193.727678 
L 303.624509 193.594188 
L 303.758945 193.632037 
L 304.028663 192.940274 
L 304.297536 192.901114 
L 304.432818 192.993117 
L 304.567254 192.915817 
L 304.702536 193.285864 
L 304.836972 194.587433 
L 304.972254 194.249995 
L 305.107535 194.545217 
L 305.241972 194.13077 
L 305.376408 194.886586 
L 305.51169 194.790216 
L 305.647817 194.111263 
L 305.783099 194.905073 
L 305.91838 194.198025 
L 306.052817 194.646827 
L 306.188098 194.579426 
L 306.32338 194.19919 
L 306.457816 194.759209 
L 306.591407 194.726746 
L 306.726689 195.065058 
L 306.996407 194.484658 
L 307.135071 195.637452 
L 307.269507 194.640858 
L 307.404789 194.735918 
L 307.808943 195.6293 
L 307.943379 195.110186 
L 308.078661 195.923357 
L 308.211406 195.488967 
L 308.346688 195.645749 
L 308.61556 194.712335 
L 308.750842 194.49907 
L 308.885278 193.999318 
L 309.02056 194.094814 
L 309.154996 193.973988 
L 309.290278 194.069484 
L 309.559996 193.32808 
L 309.964996 193.673525 
L 310.099432 193.270725 
L 310.099432 193.270725 
" clip-path="url(#pba931a1dc7)" style="fill: none; stroke: #1f77b4; stroke-width: 1.5; stroke-linecap: square"/>
   </g>
   <g id="patch_3">
    <path d="M 43.78125 198.8355 
L 43.78125 35.7555 
" style="fill: none; stroke: #000000; stroke-width: 0.8; stroke-linejoin: miter; stroke-linecap: square"/>
   </g>
   <g id="patch_4">
    <path d="M 322.78125 198.8355 
L 322.78125 35.7555 
" style="fill: none; stroke: #000000; stroke-width: 0.8; stroke-linejoin: miter; stroke-linecap: square"/>
   </g>
   <g id="patch_5">
    <path d="M 43.78125 198.8355 
L 322.78125 198.8355 
" style="fill: none; stroke: #000000; stroke-width: 0.8; stroke-linejoin: miter; stroke-linecap: square"/>
   </g>
   <g id="patch_6">
    <path d="M 43.78125 35.7555 
L 322.78125 35.7555 
" style="fill: none; stroke: #000000; stroke-width: 0.8; stroke-linejoin: miter; stroke-linecap: square"/>
   </g>
   <g id="text_16">
    <!-- After equalize -->
    <g transform="translate(141.814687 16.318125)scale(0.12 -0.12)">
     <defs>
      <path id="DejaVuSans-41" d="M 2188 4044 
L 1331 1722 
L 3047 1722 
L 2188 4044 
z
M 1831 4666 
L 2547 4666 
L 4325 0 
L 3669 0 
L 3244 1197 
L 1141 1197 
L 716 0 
L 50 0 
L 1831 4666 
z
" transform="scale(0.015625)"/>
      <path id="DejaVuSans-66" d="M 2375 4863 
L 2375 4384 
L 1825 4384 
Q 1516 4384 1395 4259 
Q 1275 4134 1275 3809 
L 1275 3500 
L 2222 3500 
L 2222 3053 
L 1275 3053 
L 1275 0 
L 697 0 
L 697 3053 
L 147 3053 
L 147 3500 
L 697 3500 
L 697 3744 
Q 697 4328 969 4595 
Q 1241 4863 1831 4863 
L 2375 4863 
z
" transform="scale(0.015625)"/>
      <path id="DejaVuSans-74" d="M 1172 4494 
L 1172 3500 
L 2356 3500 
L 2356 3053 
L 1172 3053 
L 1172 1153 
Q 1172 725 1289 603 
Q 1406 481 1766 481 
L 2356 481 
L 2356 0 
L 1766 0 
Q 1100 0 847 248 
Q 594 497 594 1153 
L 594 3053 
L 172 3053 
L 172 3500 
L 594 3500 
L 594 4494 
L 1172 4494 
z
" transform="scale(0.015625)"/>
      <path id="DejaVuSans-72" d="M 2631 2963 
Q 2534 3019 2420 3045 
Q 2306 3072 2169 3072 
Q 1681 3072 1420 2755 
Q 1159 2438 1159 1844 
L 1159 0 
L 581 0 
L 581 3500 
L 1159 3500 
L 1159 2956 
Q 1341 3275 1631 3429 
Q 1922 3584 2338 3584 
Q 2397 3584 2469 3576 
Q 2541 3569 2628 3553 
L 2631 2963 
z
" transform="scale(0.015625)"/>
      <path id="DejaVuSans-71" d="M 947 1747 
Q 947 1113 1208 752 
Q 1469 391 1925 391 
Q 2381 391 2643 752 
Q 2906 1113 2906 1747 
Q 2906 2381 2643 2742 
Q 2381 3103 1925 3103 
Q 1469 3103 1208 2742 
Q 947 2381 947 1747 
z
M 2906 525 
Q 2725 213 2448 61 
Q 2172 -91 1784 -91 
Q 1150 -91 751 415 
Q 353 922 353 1747 
Q 353 2572 751 3078 
Q 1150 3584 1784 3584 
Q 2172 3584 2448 3432 
Q 2725 3281 2906 2969 
L 2906 3500 
L 3481 3500 
L 3481 -1331 
L 2906 -1331 
L 2906 525 
z
" transform="scale(0.015625)"/>
      <path id="DejaVuSans-75" d="M 544 1381 
L 544 3500 
L 1119 3500 
L 1119 1403 
Q 1119 906 1312 657 
Q 1506 409 1894 409 
Q 2359 409 2629 706 
Q 2900 1003 2900 1516 
L 2900 3500 
L 3475 3500 
L 3475 0 
L 2900 0 
L 2900 538 
Q 2691 219 2414 64 
Q 2138 -91 1772 -91 
Q 1169 -91 856 284 
Q 544 659 544 1381 
z
M 1991 3584 
L 1991 3584 
z
" transform="scale(0.015625)"/>
      <path id="DejaVuSans-61" d="M 2194 1759 
Q 1497 1759 1228 1600 
Q 959 1441 959 1056 
Q 959 750 1161 570 
Q 1363 391 1709 391 
Q 2188 391 2477 730 
Q 2766 1069 2766 1631 
L 2766 1759 
L 2194 1759 
z
M 3341 1997 
L 3341 0 
L 2766 0 
L 2766 531 
Q 2569 213 2275 61 
Q 1981 -91 1556 -91 
Q 1019 -91 701 211 
Q 384 513 384 1019 
Q 384 1609 779 1909 
Q 1175 2209 1959 2209 
L 2766 2209 
L 2766 2266 
Q 2766 2663 2505 2880 
Q 2244 3097 1772 3097 
Q 1472 3097 1187 3025 
Q 903 2953 641 2809 
L 641 3341 
Q 956 3463 1253 3523 
Q 1550 3584 1831 3584 
Q 2591 3584 2966 3190 
Q 3341 2797 3341 1997 
z
" transform="scale(0.015625)"/>
      <path id="DejaVuSans-6c" d="M 603 4863 
L 1178 4863 
L 1178 0 
L 603 0 
L 603 4863 
z
" transform="scale(0.015625)"/>
      <path id="DejaVuSans-7a" d="M 353 3500 
L 3084 3500 
L 3084 2975 
L 922 459 
L 3084 459 
L 3084 0 
L 275 0 
L 275 525 
L 2438 3041 
L 353 3041 
L 353 3500 
z
" transform="scale(0.015625)"/>
     </defs>
     <use xlink:href="#DejaVuSans-41"/>
     <use xlink:href="#DejaVuSans-66" x="64.783203"/>
     <use xlink:href="#DejaVuSans-74" x="98.238281"/>
     <use xlink:href="#DejaVuSans-65" x="137.447266"/>
     <use xlink:href="#DejaVuSans-72" x="198.970703"/>
     <use xlink:href="#DejaVuSans-20" x="240.083984"/>
     <use xlink:href="#DejaVuSans-65" x="271.871094"/>
     <use xlink:href="#DejaVuSans-71" x="333.394531"/>
     <use xlink:href="#DejaVuSans-75" x="396.871094"/>
     <use xlink:href="#DejaVuSans-61" x="460.25"/>
     <use xlink:href="#DejaVuSans-6c" x="521.529297"/>
     <use xlink:href="#DejaVuSans-69" x="549.3125"/>
     <use xlink:href="#DejaVuSans-7a" x="577.095703"/>
     <use xlink:href="#DejaVuSans-65" x="629.585938"/>
    </g>
    <!-- NTR_C3_005_crop - Intensity Equalized, ROI=12 -->
    <g transform="translate(39.185625 29.7555)scale(0.12 -0.12)">
     <defs>
      <path id="DejaVuSans-4e" d="M 628 4666 
L 1478 4666 
L 3547 763 
L 3547 4666 
L 4159 4666 
L 4159 0 
L 3309 0 
L 1241 3903 
L 1241 0 
L 628 0 
L 628 4666 
z
" transform="scale(0.015625)"/>
      <path id="DejaVuSans-52" d="M 2841 2188 
Q 3044 2119 3236 1894 
Q 3428 1669 3622 1275 
L 4263 0 
L 3584 0 
L 2988 1197 
Q 2756 1666 2539 1819 
Q 2322 1972 1947 1972 
L 1259 1972 
L 1259 0 
L 628 0 
L 628 4666 
L 2053 4666 
Q 2853 4666 3247 4331 
Q 3641 3997 3641 3322 
Q 3641 2881 3436 2590 
Q 3231 2300 2841 2188 
z
M 1259 4147 
L 1259 2491 
L 2053 2491 
Q 2509 2491 2742 2702 
Q 2975 2913 2975 3322 
Q 2975 3731 2742 3939 
Q 2509 4147 2053 4147 
L 1259 4147 
z
" transform="scale(0.015625)"/>
      <path id="DejaVuSans-5f" d="M 3263 -1063 
L 3263 -1509 
L -63 -1509 
L -63 -1063 
L 3263 -1063 
z
" transform="scale(0.015625)"/>
      <path id="DejaVuSans-43" d="M 4122 4306 
L 4122 3641 
Q 3803 3938 3442 4084 
Q 3081 4231 2675 4231 
Q 1875 4231 1450 3742 
Q 1025 3253 1025 2328 
Q 1025 1406 1450 917 
Q 1875 428 2675 428 
Q 3081 428 3442 575 
Q 3803 722 4122 1019 
L 4122 359 
Q 3791 134 3420 21 
Q 3050 -91 2638 -91 
Q 1578 -91 968 557 
Q 359 1206 359 2328 
Q 359 3453 968 4101 
Q 1578 4750 2638 4750 
Q 3056 4750 3426 4639 
Q 3797 4528 4122 4306 
z
" transform="scale(0.015625)"/>
      <path id="DejaVuSans-63" d="M 3122 3366 
L 3122 2828 
Q 2878 2963 2633 3030 
Q 2388 3097 2138 3097 
Q 1578 3097 1268 2742 
Q 959 2388 959 1747 
Q 959 1106 1268 751 
Q 1578 397 2138 397 
Q 2388 397 2633 464 
Q 2878 531 3122 666 
L 3122 134 
Q 2881 22 2623 -34 
Q 2366 -91 2075 -91 
Q 1284 -91 818 406 
Q 353 903 353 1747 
Q 353 2603 823 3093 
Q 1294 3584 2113 3584 
Q 2378 3584 2631 3529 
Q 2884 3475 3122 3366 
z
" transform="scale(0.015625)"/>
      <path id="DejaVuSans-6f" d="M 1959 3097 
Q 1497 3097 1228 2736 
Q 959 2375 959 1747 
Q 959 1119 1226 758 
Q 1494 397 1959 397 
Q 2419 397 2687 759 
Q 2956 1122 2956 1747 
Q 2956 2369 2687 2733 
Q 2419 3097 1959 3097 
z
M 1959 3584 
Q 2709 3584 3137 3096 
Q 3566 2609 3566 1747 
Q 3566 888 3137 398 
Q 2709 -91 1959 -91 
Q 1206 -91 779 398 
Q 353 888 353 1747 
Q 353 2609 779 3096 
Q 1206 3584 1959 3584 
z
" transform="scale(0.015625)"/>
      <path id="DejaVuSans-70" d="M 1159 525 
L 1159 -1331 
L 581 -1331 
L 581 3500 
L 1159 3500 
L 1159 2969 
Q 1341 3281 1617 3432 
Q 1894 3584 2278 3584 
Q 2916 3584 3314 3078 
Q 3713 2572 3713 1747 
Q 3713 922 3314 415 
Q 2916 -91 2278 -91 
Q 1894 -91 1617 61 
Q 1341 213 1159 525 
z
M 3116 1747 
Q 3116 2381 2855 2742 
Q 2594 3103 2138 3103 
Q 1681 3103 1420 2742 
Q 1159 2381 1159 1747 
Q 1159 1113 1420 752 
Q 1681 391 2138 391 
Q 2594 391 2855 752 
Q 3116 1113 3116 1747 
z
" transform="scale(0.015625)"/>
      <path id="DejaVuSans-49" d="M 628 4666 
L 1259 4666 
L 1259 0 
L 628 0 
L 628 4666 
z
" transform="scale(0.015625)"/>
      <path id="DejaVuSans-6e" d="M 3513 2113 
L 3513 0 
L 2938 0 
L 2938 2094 
Q 2938 2591 2744 2837 
Q 2550 3084 2163 3084 
Q 1697 3084 1428 2787 
Q 1159 2491 1159 1978 
L 1159 0 
L 581 0 
L 581 3500 
L 1159 3500 
L 1159 2956 
Q 1366 3272 1645 3428 
Q 1925 3584 2291 3584 
Q 2894 3584 3203 3211 
Q 3513 2838 3513 2113 
z
" transform="scale(0.015625)"/>
      <path id="DejaVuSans-79" d="M 2059 -325 
Q 1816 -950 1584 -1140 
Q 1353 -1331 966 -1331 
L 506 -1331 
L 506 -850 
L 844 -850 
Q 1081 -850 1212 -737 
Q 1344 -625 1503 -206 
L 1606 56 
L 191 3500 
L 800 3500 
L 1894 763 
L 2988 3500 
L 3597 3500 
L 2059 -325 
z
" transform="scale(0.015625)"/>
      <path id="DejaVuSans-45" d="M 628 4666 
L 3578 4666 
L 3578 4134 
L 1259 4134 
L 1259 2753 
L 3481 2753 
L 3481 2222 
L 1259 2222 
L 1259 531 
L 3634 531 
L 3634 0 
L 628 0 
L 628 4666 
z
" transform="scale(0.015625)"/>
      <path id="DejaVuSans-64" d="M 2906 2969 
L 2906 4863 
L 3481 4863 
L 3481 0 
L 2906 0 
L 2906 525 
Q 2725 213 2448 61 
Q 2172 -91 1784 -91 
Q 1150 -91 751 415 
Q 353 922 353 1747 
Q 353 2572 751 3078 
Q 1150 3584 1784 3584 
Q 2172 3584 2448 3432 
Q 2725 3281 2906 2969 
z
M 947 1747 
Q 947 1113 1208 752 
Q 1469 391 1925 391 
Q 2381 391 2643 752 
Q 2906 1113 2906 1747 
Q 2906 2381 2643 2742 
Q 2381 3103 1925 3103 
Q 1469 3103 1208 2742 
Q 947 2381 947 1747 
z
" transform="scale(0.015625)"/>
      <path id="DejaVuSans-2c" d="M 750 794 
L 1409 794 
L 1409 256 
L 897 -744 
L 494 -744 
L 750 256 
L 750 794 
z
" transform="scale(0.015625)"/>
      <path id="DejaVuSans-4f" d="M 2522 4238 
Q 1834 4238 1429 3725 
Q 1025 3213 1025 2328 
Q 1025 1447 1429 934 
Q 1834 422 2522 422 
Q 3209 422 3611 934 
Q 4013 1447 4013 2328 
Q 4013 3213 3611 3725 
Q 3209 4238 2522 4238 
z
M 2522 4750 
Q 3503 4750 4090 4092 
Q 4678 3434 4678 2328 
Q 4678 1225 4090 567 
Q 3503 -91 2522 -91 
Q 1538 -91 948 565 
Q 359 1222 359 2328 
Q 359 3434 948 4092 
Q 1538 4750 2522 4750 
z
" transform="scale(0.015625)"/>
      <path id="DejaVuSans-3d" d="M 678 2906 
L 4684 2906 
L 4684 2381 
L 678 2381 
L 678 2906 
z
M 678 1631 
L 4684 1631 
L 4684 1100 
L 678 1100 
L 678 1631 
z
" transform="scale(0.015625)"/>
     </defs>
     <use xlink:href="#DejaVuSans-4e"/>
     <use xlink:href="#DejaVuSans-54" x="74.804688"/>
     <use xlink:href="#DejaVuSans-52" x="135.888672"/>
     <use xlink:href="#DejaVuSans-5f" x="205.371094"/>
     <use xlink:href="#DejaVuSans-43" x="255.371094"/>
     <use xlink:href="#DejaVuSans-33" x="325.195312"/>
     <use xlink:href="#DejaVuSans-5f" x="388.818359"/>
     <use xlink:href="#DejaVuSans-30" x="438.818359"/>
     <use xlink:href="#DejaVuSans-30" x="502.441406"/>
     <use xlink:href="#DejaVuSans-35" x="566.064453"/>
     <use xlink:href="#DejaVuSans-5f" x="629.6875"/>
     <use xlink:href="#DejaVuSans-63" x="679.6875"/>
     <use xlink:href="#DejaVuSans-72" x="734.667969"/>
     <use xlink:href="#DejaVuSans-6f" x="773.53125"/>
     <use xlink:href="#DejaVuSans-70" x="834.712891"/>
     <use xlink:href="#DejaVuSans-20" x="898.189453"/>
     <use xlink:href="#DejaVuSans-2d" x="929.976562"/>
     <use xlink:href="#DejaVuSans-20" x="966.060547"/>
     <use xlink:href="#DejaVuSans-49" x="997.847656"/>
     <use xlink:href="#DejaVuSans-6e" x="1027.339844"/>
     <use xlink:href="#DejaVuSans-74" x="1090.71875"/>
     <use xlink:href="#DejaVuSans-65" x="1129.927734"/>
     <use xlink:href="#DejaVuSans-6e" x="1191.451172"/>
     <use xlink:href="#DejaVuSans-73" x="1254.830078"/>
     <use xlink:href="#DejaVuSans-69" x="1306.929688"/>
     <use xlink:href="#DejaVuSans-74" x="1334.712891"/>
     <use xlink:href="#DejaVuSans-79" x="1373.921875"/>
     <use xlink:href="#DejaVuSans-20" x="1433.101562"/>
     <use xlink:href="#DejaVuSans-45" x="1464.888672"/>
     <use xlink:href="#DejaVuSans-71" x="1528.072266"/>
     <use xlink:href="#DejaVuSans-75" x="1591.548828"/>
     <use xlink:href="#DejaVuSans-61" x="1654.927734"/>
     <use xlink:href="#DejaVuSans-6c" x="1716.207031"/>
     <use xlink:href="#DejaVuSans-69" x="1743.990234"/>
     <use xlink:href="#DejaVuSans-7a" x="1771.773438"/>
     <use xlink:href="#DejaVuSans-65" x="1824.263672"/>
     <use xlink:href="#DejaVuSans-64" x="1885.787109"/>
     <use xlink:href="#DejaVuSans-2c" x="1949.263672"/>
     <use xlink:href="#DejaVuSans-20" x="1981.050781"/>
     <use xlink:href="#DejaVuSans-52" x="2012.837891"/>
     <use xlink:href="#DejaVuSans-4f" x="2082.320312"/>
     <use xlink:href="#DejaVuSans-49" x="2161.03125"/>
     <use xlink:href="#DejaVuSans-3d" x="2190.523438"/>
     <use xlink:href="#DejaVuSans-31" x="2274.3125"/>
     <use xlink:href="#DejaVuSans-32" x="2337.935547"/>
    </g>
   </g>
  </g>
 </g>
 <defs>
  <clipPath id="pba931a1dc7">
   <rect x="43.78125" y="35.7555" width="279" height="163.08"/>
  </clipPath>
 </defs>
</svg>
