<?xml version="1.0" encoding="utf-8" standalone="no"?>
<!DOCTYPE svg PUBLIC "-//W3C//DTD SVG 1.1//EN"
  "http://www.w3.org/Graphics/SVG/1.1/DTD/svg11.dtd">
<svg xmlns:xlink="http://www.w3.org/1999/xlink" width="330.759375pt" height="236.39175pt" viewBox="0 0 330.759375 236.39175" xmlns="http://www.w3.org/2000/svg" version="1.1">
 <metadata>
  <rdf:RDF xmlns:dc="http://purl.org/dc/elements/1.1/" xmlns:cc="http://creativecommons.org/ns#" xmlns:rdf="http://www.w3.org/1999/02/22-rdf-syntax-ns#">
   <cc:Work>
    <dc:type rdf:resource="http://purl.org/dc/dcmitype/StillImage"/>
    <dc:date>2025-01-27T16:06:40.816534</dc:date>
    <dc:format>image/svg+xml</dc:format>
    <dc:creator>
     <cc:Agent>
      <dc:title>Matplotlib v3.5.2, https://matplotlib.org/</dc:title>
     </cc:Agent>
    </dc:creator>
   </cc:Work>
  </rdf:RDF>
 </metadata>
 <defs>
  <style type="text/css">*{stroke-linejoin: round; stroke-linecap: butt}</style>
 </defs>
 <g id="figure_1">
  <g id="patch_1">
   <path d="M 0 236.39175 
L 330.759375 236.39175 
L 330.759375 0 
L 0 0 
L 0 236.39175 
z
" style="fill: none"/>
  </g>
  <g id="axes_1">
   <g id="patch_2">
    <path d="M 43.78125 198.8355 
L 322.78125 198.8355 
L 322.78125 35.7555 
L 43.78125 35.7555 
z
" style="fill: #ffffff"/>
   </g>
   <g id="matplotlib.axis_1">
    <g id="xtick_1">
     <g id="line2d_1">
      <defs>
       <path id="m79592a252e" d="M 0 0 
L 0 3.5 
" style="stroke: #000000; stroke-width: 0.8"/>
      </defs>
      <g>
       <use xlink:href="#m79592a252e" x="56.427557" y="198.8355" style="stroke: #000000; stroke-width: 0.8"/>
      </g>
     </g>
     <g id="text_1">
      <!-- 0 -->
      <g transform="translate(53.246307 213.433938)scale(0.1 -0.1)">
       <defs>
        <path id="DejaVuSans-30" d="M 2034 4250 
Q 1547 4250 1301 3770 
Q 1056 3291 1056 2328 
Q 1056 1369 1301 889 
Q 1547 409 2034 409 
Q 2525 409 2770 889 
Q 3016 1369 3016 2328 
Q 3016 3291 2770 3770 
Q 2525 4250 2034 4250 
z
M 2034 4750 
Q 2819 4750 3233 4129 
Q 3647 3509 3647 2328 
Q 3647 1150 3233 529 
Q 2819 -91 2034 -91 
Q 1250 -91 836 529 
Q 422 1150 422 2328 
Q 422 3509 836 4129 
Q 1250 4750 2034 4750 
z
" transform="scale(0.015625)"/>
       </defs>
       <use xlink:href="#DejaVuSans-30"/>
      </g>
     </g>
    </g>
    <g id="xtick_2">
     <g id="line2d_2">
      <g>
       <use xlink:href="#m79592a252e" x="98.703102" y="198.8355" style="stroke: #000000; stroke-width: 0.8"/>
      </g>
     </g>
     <g id="text_2">
      <!-- 50 -->
      <g transform="translate(92.340602 213.433938)scale(0.1 -0.1)">
       <defs>
        <path id="DejaVuSans-35" d="M 691 4666 
L 3169 4666 
L 3169 4134 
L 1269 4134 
L 1269 2991 
Q 1406 3038 1543 3061 
Q 1681 3084 1819 3084 
Q 2600 3084 3056 2656 
Q 3513 2228 3513 1497 
Q 3513 744 3044 326 
Q 2575 -91 1722 -91 
Q 1428 -91 1123 -41 
Q 819 9 494 109 
L 494 744 
Q 775 591 1075 516 
Q 1375 441 1709 441 
Q 2250 441 2565 725 
Q 2881 1009 2881 1497 
Q 2881 1984 2565 2268 
Q 2250 2553 1709 2553 
Q 1456 2553 1204 2497 
Q 953 2441 691 2322 
L 691 4666 
z
" transform="scale(0.015625)"/>
       </defs>
       <use xlink:href="#DejaVuSans-35"/>
       <use xlink:href="#DejaVuSans-30" x="63.623047"/>
      </g>
     </g>
    </g>
    <g id="xtick_3">
     <g id="line2d_3">
      <g>
       <use xlink:href="#m79592a252e" x="140.978648" y="198.8355" style="stroke: #000000; stroke-width: 0.8"/>
      </g>
     </g>
     <g id="text_3">
      <!-- 100 -->
      <g transform="translate(131.434898 213.433938)scale(0.1 -0.1)">
       <defs>
        <path id="DejaVuSans-31" d="M 794 531 
L 1825 531 
L 1825 4091 
L 703 3866 
L 703 4441 
L 1819 4666 
L 2450 4666 
L 2450 531 
L 3481 531 
L 3481 0 
L 794 0 
L 794 531 
z
" transform="scale(0.015625)"/>
       </defs>
       <use xlink:href="#DejaVuSans-31"/>
       <use xlink:href="#DejaVuSans-30" x="63.623047"/>
       <use xlink:href="#DejaVuSans-30" x="127.246094"/>
      </g>
     </g>
    </g>
    <g id="xtick_4">
     <g id="line2d_4">
      <g>
       <use xlink:href="#m79592a252e" x="183.254194" y="198.8355" style="stroke: #000000; stroke-width: 0.8"/>
      </g>
     </g>
     <g id="text_4">
      <!-- 150 -->
      <g transform="translate(173.710444 213.433938)scale(0.1 -0.1)">
       <use xlink:href="#DejaVuSans-31"/>
       <use xlink:href="#DejaVuSans-35" x="63.623047"/>
       <use xlink:href="#DejaVuSans-30" x="127.246094"/>
      </g>
     </g>
    </g>
    <g id="xtick_5">
     <g id="line2d_5">
      <g>
       <use xlink:href="#m79592a252e" x="225.529739" y="198.8355" style="stroke: #000000; stroke-width: 0.8"/>
      </g>
     </g>
     <g id="text_5">
      <!-- 200 -->
      <g transform="translate(215.985989 213.433938)scale(0.1 -0.1)">
       <defs>
        <path id="DejaVuSans-32" d="M 1228 531 
L 3431 531 
L 3431 0 
L 469 0 
L 469 531 
Q 828 903 1448 1529 
Q 2069 2156 2228 2338 
Q 2531 2678 2651 2914 
Q 2772 3150 2772 3378 
Q 2772 3750 2511 3984 
Q 2250 4219 1831 4219 
Q 1534 4219 1204 4116 
Q 875 4013 500 3803 
L 500 4441 
Q 881 4594 1212 4672 
Q 1544 4750 1819 4750 
Q 2544 4750 2975 4387 
Q 3406 4025 3406 3419 
Q 3406 3131 3298 2873 
Q 3191 2616 2906 2266 
Q 2828 2175 2409 1742 
Q 1991 1309 1228 531 
z
" transform="scale(0.015625)"/>
       </defs>
       <use xlink:href="#DejaVuSans-32"/>
       <use xlink:href="#DejaVuSans-30" x="63.623047"/>
       <use xlink:href="#DejaVuSans-30" x="127.246094"/>
      </g>
     </g>
    </g>
    <g id="xtick_6">
     <g id="line2d_6">
      <g>
       <use xlink:href="#m79592a252e" x="267.805285" y="198.8355" style="stroke: #000000; stroke-width: 0.8"/>
      </g>
     </g>
     <g id="text_6">
      <!-- 250 -->
      <g transform="translate(258.261535 213.433938)scale(0.1 -0.1)">
       <use xlink:href="#DejaVuSans-32"/>
       <use xlink:href="#DejaVuSans-35" x="63.623047"/>
       <use xlink:href="#DejaVuSans-30" x="127.246094"/>
      </g>
     </g>
    </g>
    <g id="xtick_7">
     <g id="line2d_7">
      <g>
       <use xlink:href="#m79592a252e" x="310.080831" y="198.8355" style="stroke: #000000; stroke-width: 0.8"/>
      </g>
     </g>
     <g id="text_7">
      <!-- 300 -->
      <g transform="translate(300.537081 213.433938)scale(0.1 -0.1)">
       <defs>
        <path id="DejaVuSans-33" d="M 2597 2516 
Q 3050 2419 3304 2112 
Q 3559 1806 3559 1356 
Q 3559 666 3084 287 
Q 2609 -91 1734 -91 
Q 1441 -91 1130 -33 
Q 819 25 488 141 
L 488 750 
Q 750 597 1062 519 
Q 1375 441 1716 441 
Q 2309 441 2620 675 
Q 2931 909 2931 1356 
Q 2931 1769 2642 2001 
Q 2353 2234 1838 2234 
L 1294 2234 
L 1294 2753 
L 1863 2753 
Q 2328 2753 2575 2939 
Q 2822 3125 2822 3475 
Q 2822 3834 2567 4026 
Q 2313 4219 1838 4219 
Q 1578 4219 1281 4162 
Q 984 4106 628 3988 
L 628 4550 
Q 988 4650 1302 4700 
Q 1616 4750 1894 4750 
Q 2613 4750 3031 4423 
Q 3450 4097 3450 3541 
Q 3450 3153 3228 2886 
Q 3006 2619 2597 2516 
z
" transform="scale(0.015625)"/>
       </defs>
       <use xlink:href="#DejaVuSans-33"/>
       <use xlink:href="#DejaVuSans-30" x="63.623047"/>
       <use xlink:href="#DejaVuSans-30" x="127.246094"/>
      </g>
     </g>
    </g>
    <g id="text_8">
     <!-- Time [s] -->
     <g transform="translate(162.952344 227.112063)scale(0.1 -0.1)">
      <defs>
       <path id="DejaVuSans-54" d="M -19 4666 
L 3928 4666 
L 3928 4134 
L 2272 4134 
L 2272 0 
L 1638 0 
L 1638 4134 
L -19 4134 
L -19 4666 
z
" transform="scale(0.015625)"/>
       <path id="DejaVuSans-69" d="M 603 3500 
L 1178 3500 
L 1178 0 
L 603 0 
L 603 3500 
z
M 603 4863 
L 1178 4863 
L 1178 4134 
L 603 4134 
L 603 4863 
z
" transform="scale(0.015625)"/>
       <path id="DejaVuSans-6d" d="M 3328 2828 
Q 3544 3216 3844 3400 
Q 4144 3584 4550 3584 
Q 5097 3584 5394 3201 
Q 5691 2819 5691 2113 
L 5691 0 
L 5113 0 
L 5113 2094 
Q 5113 2597 4934 2840 
Q 4756 3084 4391 3084 
Q 3944 3084 3684 2787 
Q 3425 2491 3425 1978 
L 3425 0 
L 2847 0 
L 2847 2094 
Q 2847 2600 2669 2842 
Q 2491 3084 2119 3084 
Q 1678 3084 1418 2786 
Q 1159 2488 1159 1978 
L 1159 0 
L 581 0 
L 581 3500 
L 1159 3500 
L 1159 2956 
Q 1356 3278 1631 3431 
Q 1906 3584 2284 3584 
Q 2666 3584 2933 3390 
Q 3200 3197 3328 2828 
z
" transform="scale(0.015625)"/>
       <path id="DejaVuSans-65" d="M 3597 1894 
L 3597 1613 
L 953 1613 
Q 991 1019 1311 708 
Q 1631 397 2203 397 
Q 2534 397 2845 478 
Q 3156 559 3463 722 
L 3463 178 
Q 3153 47 2828 -22 
Q 2503 -91 2169 -91 
Q 1331 -91 842 396 
Q 353 884 353 1716 
Q 353 2575 817 3079 
Q 1281 3584 2069 3584 
Q 2775 3584 3186 3129 
Q 3597 2675 3597 1894 
z
M 3022 2063 
Q 3016 2534 2758 2815 
Q 2500 3097 2075 3097 
Q 1594 3097 1305 2825 
Q 1016 2553 972 2059 
L 3022 2063 
z
" transform="scale(0.015625)"/>
       <path id="DejaVuSans-20" transform="scale(0.015625)"/>
       <path id="DejaVuSans-5b" d="M 550 4863 
L 1875 4863 
L 1875 4416 
L 1125 4416 
L 1125 -397 
L 1875 -397 
L 1875 -844 
L 550 -844 
L 550 4863 
z
" transform="scale(0.015625)"/>
       <path id="DejaVuSans-73" d="M 2834 3397 
L 2834 2853 
Q 2591 2978 2328 3040 
Q 2066 3103 1784 3103 
Q 1356 3103 1142 2972 
Q 928 2841 928 2578 
Q 928 2378 1081 2264 
Q 1234 2150 1697 2047 
L 1894 2003 
Q 2506 1872 2764 1633 
Q 3022 1394 3022 966 
Q 3022 478 2636 193 
Q 2250 -91 1575 -91 
Q 1294 -91 989 -36 
Q 684 19 347 128 
L 347 722 
Q 666 556 975 473 
Q 1284 391 1588 391 
Q 1994 391 2212 530 
Q 2431 669 2431 922 
Q 2431 1156 2273 1281 
Q 2116 1406 1581 1522 
L 1381 1569 
Q 847 1681 609 1914 
Q 372 2147 372 2553 
Q 372 3047 722 3315 
Q 1072 3584 1716 3584 
Q 2034 3584 2315 3537 
Q 2597 3491 2834 3397 
z
" transform="scale(0.015625)"/>
       <path id="DejaVuSans-5d" d="M 1947 4863 
L 1947 -844 
L 622 -844 
L 622 -397 
L 1369 -397 
L 1369 4416 
L 622 4416 
L 622 4863 
L 1947 4863 
z
" transform="scale(0.015625)"/>
      </defs>
      <use xlink:href="#DejaVuSans-54"/>
      <use xlink:href="#DejaVuSans-69" x="57.958984"/>
      <use xlink:href="#DejaVuSans-6d" x="85.742188"/>
      <use xlink:href="#DejaVuSans-65" x="183.154297"/>
      <use xlink:href="#DejaVuSans-20" x="244.677734"/>
      <use xlink:href="#DejaVuSans-5b" x="276.464844"/>
      <use xlink:href="#DejaVuSans-73" x="315.478516"/>
      <use xlink:href="#DejaVuSans-5d" x="367.578125"/>
     </g>
    </g>
   </g>
   <g id="matplotlib.axis_2">
    <g id="ytick_1">
     <g id="line2d_8">
      <defs>
       <path id="m5a2b7f41fa" d="M 0 0 
L -3.5 0 
" style="stroke: #000000; stroke-width: 0.8"/>
      </defs>
      <g>
       <use xlink:href="#m5a2b7f41fa" x="43.78125" y="195.923357" style="stroke: #000000; stroke-width: 0.8"/>
      </g>
     </g>
     <g id="text_9">
      <!-- 0.0 -->
      <g transform="translate(20.878125 199.722576)scale(0.1 -0.1)">
       <defs>
        <path id="DejaVuSans-2e" d="M 684 794 
L 1344 794 
L 1344 0 
L 684 0 
L 684 794 
z
" transform="scale(0.015625)"/>
       </defs>
       <use xlink:href="#DejaVuSans-30"/>
       <use xlink:href="#DejaVuSans-2e" x="63.623047"/>
       <use xlink:href="#DejaVuSans-30" x="95.410156"/>
      </g>
     </g>
    </g>
    <g id="ytick_2">
     <g id="line2d_9">
      <g>
       <use xlink:href="#m5a2b7f41fa" x="43.78125" y="166.801929" style="stroke: #000000; stroke-width: 0.8"/>
      </g>
     </g>
     <g id="text_10">
      <!-- 0.2 -->
      <g transform="translate(20.878125 170.601147)scale(0.1 -0.1)">
       <use xlink:href="#DejaVuSans-30"/>
       <use xlink:href="#DejaVuSans-2e" x="63.623047"/>
       <use xlink:href="#DejaVuSans-32" x="95.410156"/>
      </g>
     </g>
    </g>
    <g id="ytick_3">
     <g id="line2d_10">
      <g>
       <use xlink:href="#m5a2b7f41fa" x="43.78125" y="137.6805" style="stroke: #000000; stroke-width: 0.8"/>
      </g>
     </g>
     <g id="text_11">
      <!-- 0.4 -->
      <g transform="translate(20.878125 141.479719)scale(0.1 -0.1)">
       <defs>
        <path id="DejaVuSans-34" d="M 2419 4116 
L 825 1625 
L 2419 1625 
L 2419 4116 
z
M 2253 4666 
L 3047 4666 
L 3047 1625 
L 3713 1625 
L 3713 1100 
L 3047 1100 
L 3047 0 
L 2419 0 
L 2419 1100 
L 313 1100 
L 313 1709 
L 2253 4666 
z
" transform="scale(0.015625)"/>
       </defs>
       <use xlink:href="#DejaVuSans-30"/>
       <use xlink:href="#DejaVuSans-2e" x="63.623047"/>
       <use xlink:href="#DejaVuSans-34" x="95.410156"/>
      </g>
     </g>
    </g>
    <g id="ytick_4">
     <g id="line2d_11">
      <g>
       <use xlink:href="#m5a2b7f41fa" x="43.78125" y="108.559071" style="stroke: #000000; stroke-width: 0.8"/>
      </g>
     </g>
     <g id="text_12">
      <!-- 0.6 -->
      <g transform="translate(20.878125 112.35829)scale(0.1 -0.1)">
       <defs>
        <path id="DejaVuSans-36" d="M 2113 2584 
Q 1688 2584 1439 2293 
Q 1191 2003 1191 1497 
Q 1191 994 1439 701 
Q 1688 409 2113 409 
Q 2538 409 2786 701 
Q 3034 994 3034 1497 
Q 3034 2003 2786 2293 
Q 2538 2584 2113 2584 
z
M 3366 4563 
L 3366 3988 
Q 3128 4100 2886 4159 
Q 2644 4219 2406 4219 
Q 1781 4219 1451 3797 
Q 1122 3375 1075 2522 
Q 1259 2794 1537 2939 
Q 1816 3084 2150 3084 
Q 2853 3084 3261 2657 
Q 3669 2231 3669 1497 
Q 3669 778 3244 343 
Q 2819 -91 2113 -91 
Q 1303 -91 875 529 
Q 447 1150 447 2328 
Q 447 3434 972 4092 
Q 1497 4750 2381 4750 
Q 2619 4750 2861 4703 
Q 3103 4656 3366 4563 
z
" transform="scale(0.015625)"/>
       </defs>
       <use xlink:href="#DejaVuSans-30"/>
       <use xlink:href="#DejaVuSans-2e" x="63.623047"/>
       <use xlink:href="#DejaVuSans-36" x="95.410156"/>
      </g>
     </g>
    </g>
    <g id="ytick_5">
     <g id="line2d_12">
      <g>
       <use xlink:href="#m5a2b7f41fa" x="43.78125" y="79.437643" style="stroke: #000000; stroke-width: 0.8"/>
      </g>
     </g>
     <g id="text_13">
      <!-- 0.8 -->
      <g transform="translate(20.878125 83.236862)scale(0.1 -0.1)">
       <defs>
        <path id="DejaVuSans-38" d="M 2034 2216 
Q 1584 2216 1326 1975 
Q 1069 1734 1069 1313 
Q 1069 891 1326 650 
Q 1584 409 2034 409 
Q 2484 409 2743 651 
Q 3003 894 3003 1313 
Q 3003 1734 2745 1975 
Q 2488 2216 2034 2216 
z
M 1403 2484 
Q 997 2584 770 2862 
Q 544 3141 544 3541 
Q 544 4100 942 4425 
Q 1341 4750 2034 4750 
Q 2731 4750 3128 4425 
Q 3525 4100 3525 3541 
Q 3525 3141 3298 2862 
Q 3072 2584 2669 2484 
Q 3125 2378 3379 2068 
Q 3634 1759 3634 1313 
Q 3634 634 3220 271 
Q 2806 -91 2034 -91 
Q 1263 -91 848 271 
Q 434 634 434 1313 
Q 434 1759 690 2068 
Q 947 2378 1403 2484 
z
M 1172 3481 
Q 1172 3119 1398 2916 
Q 1625 2713 2034 2713 
Q 2441 2713 2670 2916 
Q 2900 3119 2900 3481 
Q 2900 3844 2670 4047 
Q 2441 4250 2034 4250 
Q 1625 4250 1398 4047 
Q 1172 3844 1172 3481 
z
" transform="scale(0.015625)"/>
       </defs>
       <use xlink:href="#DejaVuSans-30"/>
       <use xlink:href="#DejaVuSans-2e" x="63.623047"/>
       <use xlink:href="#DejaVuSans-38" x="95.410156"/>
      </g>
     </g>
    </g>
    <g id="ytick_6">
     <g id="line2d_13">
      <g>
       <use xlink:href="#m5a2b7f41fa" x="43.78125" y="50.316214" style="stroke: #000000; stroke-width: 0.8"/>
      </g>
     </g>
     <g id="text_14">
      <!-- 1.0 -->
      <g transform="translate(20.878125 54.115433)scale(0.1 -0.1)">
       <use xlink:href="#DejaVuSans-31"/>
       <use xlink:href="#DejaVuSans-2e" x="63.623047"/>
       <use xlink:href="#DejaVuSans-30" x="95.410156"/>
      </g>
     </g>
    </g>
    <g id="text_15">
     <!-- (F-F$^o$)/F$^o$ -->
     <g transform="translate(14.798438 137.9955)rotate(-90)scale(0.1 -0.1)">
      <defs>
       <path id="DejaVuSans-28" d="M 1984 4856 
Q 1566 4138 1362 3434 
Q 1159 2731 1159 2009 
Q 1159 1288 1364 580 
Q 1569 -128 1984 -844 
L 1484 -844 
Q 1016 -109 783 600 
Q 550 1309 550 2009 
Q 550 2706 781 3412 
Q 1013 4119 1484 4856 
L 1984 4856 
z
" transform="scale(0.015625)"/>
       <path id="DejaVuSans-46" d="M 628 4666 
L 3309 4666 
L 3309 4134 
L 1259 4134 
L 1259 2759 
L 3109 2759 
L 3109 2228 
L 1259 2228 
L 1259 0 
L 628 0 
L 628 4666 
z
" transform="scale(0.015625)"/>
       <path id="DejaVuSans-2d" d="M 313 2009 
L 1997 2009 
L 1997 1497 
L 313 1497 
L 313 2009 
z
" transform="scale(0.015625)"/>
       <path id="DejaVuSans-Oblique-6f" d="M 1625 -91 
Q 1009 -91 651 289 
Q 294 669 294 1325 
Q 294 1706 417 2101 
Q 541 2497 738 2766 
Q 1047 3184 1428 3384 
Q 1809 3584 2291 3584 
Q 2888 3584 3255 3212 
Q 3622 2841 3622 2241 
Q 3622 1825 3500 1412 
Q 3378 1000 3181 728 
Q 2875 309 2494 109 
Q 2113 -91 1625 -91 
z
M 891 1344 
Q 891 869 1089 633 
Q 1288 397 1691 397 
Q 2269 397 2648 901 
Q 3028 1406 3028 2181 
Q 3028 2634 2825 2865 
Q 2622 3097 2228 3097 
Q 1903 3097 1650 2945 
Q 1397 2794 1197 2484 
Q 1050 2253 970 1956 
Q 891 1659 891 1344 
z
" transform="scale(0.015625)"/>
       <path id="DejaVuSans-29" d="M 513 4856 
L 1013 4856 
Q 1481 4119 1714 3412 
Q 1947 2706 1947 2009 
Q 1947 1309 1714 600 
Q 1481 -109 1013 -844 
L 513 -844 
Q 928 -128 1133 580 
Q 1338 1288 1338 2009 
Q 1338 2731 1133 3434 
Q 928 4138 513 4856 
z
" transform="scale(0.015625)"/>
       <path id="DejaVuSans-2f" d="M 1625 4666 
L 2156 4666 
L 531 -594 
L 0 -594 
L 1625 4666 
z
" transform="scale(0.015625)"/>
      </defs>
      <use xlink:href="#DejaVuSans-28" transform="translate(0 0.51875)"/>
      <use xlink:href="#DejaVuSans-46" transform="translate(39.013672 0.51875)"/>
      <use xlink:href="#DejaVuSans-2d" transform="translate(96.533203 0.51875)"/>
      <use xlink:href="#DejaVuSans-46" transform="translate(132.617188 0.51875)"/>
      <use xlink:href="#DejaVuSans-Oblique-6f" transform="translate(191.09375 38.8)scale(0.7)"/>
      <use xlink:href="#DejaVuSans-29" transform="translate(236.655273 0.51875)"/>
      <use xlink:href="#DejaVuSans-2f" transform="translate(275.668945 0.51875)"/>
      <use xlink:href="#DejaVuSans-46" transform="translate(309.360352 0.51875)"/>
      <use xlink:href="#DejaVuSans-Oblique-6f" transform="translate(367.836914 38.8)scale(0.7)"/>
     </g>
    </g>
   </g>
   <g id="line2d_14">
    <path d="M 56.463068 193.423567 
L 56.851158 192.510271 
L 56.985594 192.497332 
L 57.120876 193.229837 
L 57.254466 192.304681 
L 57.524184 192.472891 
L 57.658621 192.69214 
L 57.928339 191.607399 
L 58.065311 191.832399 
L 58.200593 192.425447 
L 58.335029 191.086595 
L 58.469466 191.866184 
L 58.603902 191.677128 
L 58.739184 192.141143 
L 58.874465 192.121735 
L 59.008902 191.623214 
L 59.143338 191.759436 
L 59.277774 191.686832 
L 59.41221 192.000968 
L 59.681928 191.402169 
L 59.816364 191.616744 
L 59.951646 191.237912 
L 60.086082 191.302608 
L 60.223055 191.182201 
L 60.357491 190.626892 
L 60.627209 191.353646 
L 60.761646 191.605602 
L 61.031364 191.136195 
L 61.1658 191.623933 
L 61.301082 191.597336 
L 61.435518 191.077969 
L 61.569954 192.144738 
L 61.705236 191.695458 
L 61.839672 191.816225 
L 61.974108 191.499213 
L 62.10939 192.085433 
L 62.243826 191.631121 
L 62.513544 192.179602 
L 62.782417 191.988748 
L 62.920235 192.658354 
L 63.054671 192.108795 
L 63.189107 192.282037 
L 63.324389 192.263707 
L 63.458825 192.390224 
L 63.727698 191.615307 
L 63.862134 191.816225 
L 63.993188 192.569576 
L 64.12847 191.576489 
L 64.397343 191.72565 
L 64.532624 191.704084 
L 64.801497 191.486993 
L 64.936779 192.277724 
L 65.205651 192.212669 
L 65.340933 191.963229 
L 65.610651 192.087589 
L 65.745087 192.335592 
L 66.013959 190.680087 
L 66.283677 191.162433 
L 66.418114 190.437835 
L 66.55255 190.723936 
L 66.687832 190.069067 
L 66.822268 190.502172 
L 66.956704 189.446545 
L 67.09114 189.391913 
L 67.226422 188.889079 
L 67.361704 189.066994 
L 67.900294 185.112616 
L 68.302757 180.036118 
L 68.573321 173.503955 
L 69.111911 149.327332 
L 69.650502 124.661533 
L 69.92022 116.538921 
L 70.055502 115.783412 
L 70.324374 112.528832 
L 71.133528 109.261673 
L 71.403246 111.025364 
L 73.291272 140.420457 
L 73.694581 149.705086 
L 74.369298 165.20882 
L 75.717888 186.790765 
L 75.852324 187.168159 
L 76.122042 189.731209 
L 76.526197 192.255081 
L 76.660633 192.56706 
L 76.795915 193.163703 
L 76.930351 193.173767 
L 77.200069 193.958029 
L 77.334505 194.068732 
L 77.469787 193.83942 
L 77.604223 194.413778 
L 77.738659 194.011583 
L 78.008377 194.78075 
L 78.143659 194.670766 
L 78.278095 195.077274 
L 78.412531 194.629073 
L 78.547813 194.882826 
L 78.682249 194.451518 
L 78.81584 195.143768 
L 78.950276 194.488538 
L 79.219149 195.609221 
L 79.488867 195.310181 
L 79.623303 195.562136 
L 79.758585 195.317369 
L 80.028303 195.454309 
L 80.162739 195.923357 
L 80.298021 195.699077 
L 80.432457 194.889655 
L 80.70133 195.526194 
L 80.970202 195.09848 
L 81.104638 195.567887 
L 81.240765 195.542368 
L 81.376047 194.758106 
L 81.511329 195.147002 
L 81.645765 195.025158 
L 81.780201 195.103153 
L 82.049074 194.577675 
L 82.187738 194.795127 
L 82.457456 194.20711 
L 82.591892 194.486741 
L 82.726328 195.149159 
L 82.860764 194.371007 
L 83.399355 194.51226 
L 83.534637 194.422045 
L 83.669073 194.616134 
L 83.803509 194.482069 
L 83.937945 193.979595 
L 84.207663 195.025877 
L 84.344636 195.068289 
L 84.479072 194.970885 
L 84.74879 194.030992 
L 84.884072 195.016532 
L 85.152944 194.112222 
L 85.287381 194.271806 
L 85.421817 194.172965 
L 85.826817 195.039175 
L 85.961253 194.778953 
L 86.230971 195.567168 
L 86.364562 194.729712 
L 86.499843 194.59385 
L 86.63428 194.622963 
L 86.769561 194.022726 
L 86.903998 194.110784 
L 87.177943 195.177194 
L 87.312379 194.358427 
L 87.446816 194.234785 
L 87.582097 195.457904 
L 87.717379 194.709224 
L 87.986252 194.615774 
L 88.121533 194.125521 
L 88.25597 194.704552 
L 88.524842 193.941496 
L 88.659278 194.13235 
L 88.793714 193.778677 
L 89.063432 194.311702 
L 89.197869 194.198843 
L 89.33315 194.367413 
L 89.467587 193.885066 
L 89.737305 194.563658 
L 90.14315 193.509469 
L 90.277586 193.380076 
L 90.412868 194.397604 
L 90.547304 193.754236 
L 90.680895 194.241974 
L 90.815331 193.528159 
L 90.950613 194.073764 
L 91.490894 192.555559 
L 91.760612 194.174762 
L 91.895048 194.205672 
L 92.029485 193.556913 
L 92.164766 193.802039 
L 92.299203 193.6022 
L 92.434484 193.727998 
L 92.568921 193.626281 
L 92.704202 193.878237 
L 92.838639 193.736265 
L 92.973075 193.119135 
L 93.107511 193.985345 
L 93.241947 193.544692 
L 93.377229 193.915258 
L 93.646102 192.956675 
L 93.781383 193.05983 
L 93.91582 192.731676 
L 94.320819 193.383671 
L 94.455256 192.942658 
L 94.589692 193.102601 
L 94.724974 192.901324 
L 94.860255 192.000249 
L 94.994692 192.28671 
L 95.129128 191.798613 
L 95.264409 192.078604 
L 95.398846 191.934475 
L 95.534127 192.121735 
L 95.668564 191.891344 
L 95.937436 191.9812 
L 96.071872 191.642623 
L 96.206309 192.112749 
L 96.476027 191.48232 
L 96.610463 191.492743 
L 96.880181 191.908596 
L 97.015463 191.232521 
L 97.284335 192.190744 
L 97.418771 191.389948 
L 97.553208 191.41978 
L 97.687644 191.864747 
L 98.090107 190.667147 
L 98.223698 191.07078 
L 98.358979 190.912993 
L 98.493416 191.222097 
L 98.763134 191.192625 
L 99.032852 190.626533 
L 99.167288 190.728609 
L 99.301724 190.22901 
L 99.43616 190.806963 
L 99.704187 189.569109 
L 99.839469 189.996823 
L 99.973905 189.639915 
L 100.108342 189.763916 
L 100.243623 189.064119 
L 100.378059 189.543949 
L 100.512496 189.148583 
L 100.646932 189.35597 
L 100.782214 189.216514 
L 101.051086 188.530734 
L 101.185522 188.587523 
L 101.45524 188.132493 
L 101.590522 188.431174 
L 101.724958 187.537287 
L 101.859395 187.608094 
L 102.129113 188.021072 
L 102.531576 186.449312 
L 102.666858 186.935612 
L 102.801294 186.635494 
L 102.933193 187.044158 
L 103.202911 185.492886 
L 103.337348 185.362416 
L 103.60622 184.806747 
L 103.740656 183.966055 
L 103.875093 183.88231 
L 104.143965 182.667458 
L 104.41622 181.528086 
L 104.550656 181.413789 
L 104.95481 179.499859 
L 105.089246 178.520789 
L 105.223683 178.945268 
L 105.493401 175.922876 
L 105.628682 175.30934 
L 106.568045 160.712072 
L 106.968817 149.124976 
L 107.377199 138.773219 
L 107.781353 131.570372 
L 108.052762 129.030326 
L 108.187198 129.095382 
L 108.456916 128.702891 
L 108.725789 130.576566 
L 108.860225 131.151284 
L 109.399661 135.93593 
L 109.534097 136.637884 
L 110.072688 142.187383 
L 110.207969 142.881071 
L 110.476842 146.139605 
L 110.881842 151.250967 
L 111.154096 156.059694 
L 112.097686 172.244895 
L 113.312685 186.44464 
L 113.447122 186.823472 
L 113.71684 188.689599 
L 113.851276 188.915317 
L 114.25543 191.031962 
L 114.389866 190.788633 
L 114.525148 191.783158 
L 114.659584 191.410435 
L 114.794866 191.505683 
L 115.063739 191.319142 
L 115.468738 191.936631 
L 115.605711 192.233515 
L 115.740993 191.617463 
L 116.010711 192.559872 
L 116.145147 191.96898 
L 116.279583 192.136111 
L 116.414865 191.547016 
L 116.549301 192.408914 
L 116.953455 192.438746 
L 117.088737 192.385911 
L 117.223173 192.948049 
L 117.492891 192.013189 
L 117.627328 192.419337 
L 117.762609 192.178523 
L 117.897046 191.580443 
L 118.032327 192.31151 
L 118.166764 192.033676 
L 118.3012 192.109874 
L 118.436482 192.565623 
L 118.7062 192.047334 
L 118.840636 192.385551 
L 119.109508 191.785314 
L 119.243944 192.115265 
L 119.383454 191.563909 
L 119.51789 191.837071 
L 119.652326 191.43847 
L 119.786762 191.692583 
L 119.921199 191.70085 
L 120.053944 191.427688 
L 120.189226 191.548454 
L 120.323662 191.019383 
L 120.458098 192.044818 
L 120.592534 192.198292 
L 120.727816 191.322017 
L 120.996689 191.003927 
L 121.131125 191.191187 
L 121.265561 190.95217 
L 121.400843 190.164673 
L 121.531897 190.775334 
L 121.801615 190.015872 
L 122.071333 190.380687 
L 122.340205 190.419505 
L 122.475487 189.881807 
L 122.609923 190.153531 
L 122.745205 190.035281 
L 123.010696 190.776412 
L 123.279568 189.874619 
L 123.41485 190.142749 
L 123.683722 190.255608 
L 123.818159 189.606489 
L 123.95344 190.591669 
L 124.087877 190.434241 
L 124.222313 189.885401 
L 124.356749 190.472699 
L 124.492031 189.777215 
L 124.761749 189.689516 
L 124.896185 190.249138 
L 125.030621 189.217592 
L 125.165057 189.679092 
L 125.299494 189.048304 
L 125.43393 188.96995 
L 125.707875 188.257932 
L 125.842312 188.893033 
L 125.977593 188.928616 
L 126.112875 187.677463 
L 126.246466 188.493713 
L 126.381748 188.531453 
L 126.651466 187.974346 
L 126.921184 187.508534 
L 127.05562 188.07211 
L 127.324492 186.671436 
L 127.458929 186.830661 
L 127.593365 186.773153 
L 127.728646 187.215963 
L 127.863083 186.462611 
L 127.998364 186.494959 
L 128.132801 187.021155 
L 128.267237 186.569719 
L 128.401673 186.948552 
L 128.536109 186.410495 
L 128.804982 186.852945 
L 128.939418 186.520478 
L 129.209136 187.702982 
L 129.478854 186.463689 
L 129.612445 186.327468 
L 129.747727 186.985572 
L 130.155263 186.492084 
L 130.289699 186.370599 
L 130.424135 186.65634 
L 130.558572 187.275987 
L 130.963571 186.15135 
L 131.098007 186.889606 
L 131.367725 186.841443 
L 131.503007 186.91872 
L 131.634907 186.447156 
L 131.769343 186.41948 
L 131.908852 186.791124 
L 132.044134 186.541325 
L 132.17857 186.009019 
L 132.313007 187.153064 
L 132.448288 186.252708 
L 132.582725 186.527307 
L 132.717161 186.155304 
L 132.852443 186.823832 
L 132.986879 186.050352 
L 133.256597 186.674312 
L 133.391879 185.389372 
L 133.661597 186.366286 
L 133.796033 186.176151 
L 133.931315 186.254864 
L 134.065751 185.398358 
L 134.200187 186.392883 
L 134.335469 185.726152 
L 134.469905 186.179026 
L 134.605187 185.853388 
L 134.739623 186.473753 
L 134.874059 185.33474 
L 135.009341 185.196003 
L 135.279059 185.997158 
L 135.414341 185.619044 
L 135.548777 185.632702 
L 135.684059 185.326114 
L 135.818495 185.452631 
L 136.088213 184.870365 
L 136.222649 185.4343 
L 136.357085 184.796683 
L 136.625958 185.236617 
L 136.76124 185.098958 
L 136.895676 185.588493 
L 137.030112 184.938655 
L 137.298985 184.900556 
L 137.434266 184.340215 
L 137.568702 184.533944 
L 137.703984 185.34732 
L 137.842648 184.432228 
L 138.246802 185.279389 
L 138.381238 184.495846 
L 138.515675 184.665853 
L 138.650956 184.509144 
L 138.785393 184.691731 
L 138.919829 184.569168 
L 139.055111 185.151075 
L 139.189547 184.195367 
L 139.323983 184.84197 
L 139.458419 184.216214 
L 139.592856 184.548321 
L 139.728137 183.728117 
L 139.862574 183.826958 
L 139.997855 182.860109 
L 140.132292 183.811863 
L 140.266728 183.592974 
L 140.40201 183.648325 
L 140.537291 184.068132 
L 140.807009 183.026882 
L 140.941446 183.150883 
L 141.076727 182.699447 
L 141.212009 183.19653 
L 141.346445 182.368777 
L 141.616163 182.321693 
L 141.885036 182.382795 
L 142.019472 181.578764 
L 142.153908 182.05536 
L 142.28919 182.032357 
L 142.423626 182.615701 
L 142.692499 182.589104 
L 142.962217 182.906834 
L 143.367216 182.01798 
L 143.502498 182.85939 
L 143.772216 182.21099 
L 143.907498 183.030116 
L 144.177216 182.364105 
L 144.312498 182.965061 
L 144.446934 182.193019 
L 144.58137 182.14234 
L 144.715806 182.408314 
L 144.850242 181.832517 
L 144.985524 181.833236 
L 145.255242 181.214309 
L 145.390524 181.83072 
L 145.52496 180.715429 
L 145.659396 181.212512 
L 145.929114 180.601851 
L 146.198832 180.632762 
L 146.334114 180.304967 
L 146.469396 180.29059 
L 146.603832 180.573457 
L 146.738268 179.995144 
L 146.872705 180.928208 
L 147.142423 180.517387 
L 147.277704 180.897657 
L 147.547422 180.611915 
L 147.681859 180.961634 
L 147.951577 180.986434 
L 148.086858 180.551532 
L 148.221294 180.878248 
L 148.355731 180.710038 
L 148.491012 179.824418 
L 149.03383 180.883639 
L 149.303548 180.835117 
L 149.437985 179.935839 
L 149.573266 180.349176 
L 150.245448 177.37926 
L 150.380729 177.226145 
L 150.650447 174.9474 
L 151.325165 165.082303 
L 151.863756 147.973024 
L 152.26791 135.540205 
L 152.807346 127.827335 
L 153.076218 125.637727 
L 153.210654 126.232573 
L 153.346782 125.861289 
L 153.481218 126.003261 
L 153.6165 127.24471 
L 153.750936 127.008928 
L 153.885372 128.13608 
L 154.020654 128.236359 
L 154.964244 138.813115 
L 155.099526 139.28396 
L 155.773398 149.341349 
L 156.043961 153.218451 
L 156.582552 162.254718 
L 156.851424 166.294638 
L 157.931142 178.371269 
L 158.065578 178.608129 
L 158.335296 180.984278 
L 158.469732 181.105044 
L 158.604168 181.61255 
L 158.73945 181.463389 
L 159.14445 183.581472 
L 159.278886 183.291058 
L 159.414168 183.315858 
L 159.548604 183.997685 
L 159.68304 183.729195 
L 159.817477 184.339856 
L 160.087195 183.55164 
L 160.221631 184.889414 
L 160.491349 184.546884 
L 160.626631 185.629467 
L 160.761067 184.841611 
L 161.030785 185.165811 
L 161.165221 185.572319 
L 161.300503 185.217209 
L 161.704657 185.426034 
L 161.839093 185.217209 
L 161.974375 185.360619 
L 162.243247 184.648601 
L 162.381911 185.338334 
L 162.517193 185.240931 
L 162.786065 184.547603 
L 162.918811 184.967409 
L 163.322965 184.212979 
L 163.457401 184.241374 
L 163.592683 184.598641 
L 163.727119 184.168411 
L 163.862401 184.309305 
L 163.996837 184.693169 
L 164.132119 183.949522 
L 164.267401 183.864698 
L 164.403528 183.639699 
L 164.537964 183.989418 
L 164.6724 183.600881 
L 164.807682 183.917533 
L 164.942118 183.587942 
L 165.076555 184.214776 
L 165.210991 184.260064 
L 165.346273 184.118451 
L 165.481554 183.805034 
L 165.61599 183.155196 
L 165.751272 184.279113 
L 165.885708 184.233826 
L 166.02099 183.923284 
L 166.290708 184.314337 
L 166.425144 184.359983 
L 166.560426 183.693253 
L 166.694862 184.151877 
L 166.830144 184.009546 
L 166.96458 184.42468 
L 167.099017 183.85715 
L 167.367889 183.913939 
L 167.503171 184.030033 
L 167.638453 184.992209 
L 167.773734 185.027792 
L 167.909016 184.334824 
L 168.043452 184.701795 
L 168.178734 184.131031 
L 168.449298 184.111981 
L 168.713097 184.551556 
L 168.846688 184.410303 
L 169.117251 183.914298 
L 169.251687 184.285583 
L 169.386124 185.148559 
L 169.52056 184.930748 
L 169.654996 184.350998 
L 169.789432 184.802074 
L 169.924714 184.095807 
L 170.194432 184.741691 
L 170.463305 184.14397 
L 170.598586 184.633505 
L 170.733023 184.30607 
L 171.138022 184.341653 
L 171.272459 184.277675 
L 171.40774 184.000201 
L 171.542176 184.137141 
L 171.811894 183.699363 
L 171.948867 183.921487 
L 172.083303 183.797486 
L 172.218585 184.233826 
L 172.488303 183.220251 
L 172.621894 183.698285 
L 172.757176 183.628557 
L 172.892457 183.708708 
L 173.027739 183.242536 
L 173.297457 183.868292 
L 173.701611 183.49521 
L 173.971329 183.639339 
L 174.105766 183.312983 
L 174.510765 184.095088 
L 174.646047 183.305794 
L 174.780483 183.743932 
L 174.915765 183.690377 
L 175.185483 182.636188 
L 175.319919 182.985188 
L 175.455201 182.841419 
L 175.588792 183.022569 
L 175.857664 182.750844 
L 175.9921 183.27093 
L 176.127382 183.129677 
L 176.263509 182.648409 
L 176.397946 182.817697 
L 176.533227 181.901167 
L 176.667664 182.352603 
L 176.802945 182.26706 
L 176.938227 182.84717 
L 177.207945 182.170375 
L 177.342381 183.355395 
L 177.477663 182.29186 
L 177.612099 182.731076 
L 177.746536 182.534831 
L 178.016254 182.710948 
L 178.285972 182.292579 
L 178.55569 183.001722 
L 178.825407 182.041342 
L 178.959844 181.955081 
L 179.09428 182.17361 
L 179.228716 181.478485 
L 179.363998 181.487471 
L 179.498434 181.85552 
L 179.768152 181.149972 
L 179.903434 180.438673 
L 180.038716 181.239468 
L 180.173152 180.675533 
L 180.308434 180.669063 
L 180.44287 181.016266 
L 180.715124 180.617666 
L 180.849561 181.07665 
L 180.984842 180.506604 
L 181.120124 180.5713 
L 181.25456 180.161557 
L 181.388997 180.927129 
L 181.524278 180.584239 
L 181.65956 179.723061 
L 181.793996 179.757206 
L 182.202378 178.063243 
L 182.472096 178.043834 
L 182.607378 177.08633 
L 182.87625 176.753144 
L 183.011532 177.038526 
L 183.820686 174.387778 
L 183.955122 173.146329 
L 184.090404 173.145251 
L 184.225686 172.382194 
L 184.765122 166.374071 
L 185.170967 157.535846 
L 185.711248 145.413928 
L 186.521248 134.891445 
L 186.790966 133.885419 
L 186.927093 134.484218 
L 187.062375 133.788015 
L 187.332938 136.58433 
L 187.603502 139.262035 
L 187.737093 140.017544 
L 189.086528 155.243443 
L 189.625964 162.731673 
L 190.839272 177.357694 
L 191.10899 178.773104 
L 191.782017 182.132636 
L 191.916453 182.399328 
L 192.050889 183.411824 
L 192.185325 183.442735 
L 192.320607 182.827402 
L 192.724761 184.188538 
L 192.994479 183.814019 
L 193.128916 184.257907 
L 193.263352 184.157987 
L 193.400325 184.483625 
L 193.535606 184.263658 
L 193.80617 184.815014 
L 193.941452 184.315415 
L 194.076733 185.043966 
L 194.210324 184.457747 
L 194.615324 184.976395 
L 195.019478 183.947725 
L 195.289196 184.34992 
L 195.558914 184.949797 
L 195.694196 184.018891 
L 195.829477 185.18522 
L 195.963914 184.066694 
L 196.099195 184.677354 
L 196.368913 184.654351 
L 196.50335 184.350998 
L 196.638631 184.350638 
L 196.773068 184.775477 
L 196.907504 184.502675 
L 197.042786 184.563058 
L 197.178067 184.40599 
L 197.313349 184.646444 
L 197.447785 184.523162 
L 197.583067 184.771164 
L 197.718349 184.551556 
L 197.852785 185.045404 
L 197.988067 184.598641 
L 198.121658 184.903432 
L 198.659402 184.114138 
L 198.794684 184.124202 
L 198.92912 184.536101 
L 199.064402 183.80072 
L 199.33412 184.275519 
L 199.468556 183.875481 
L 199.602993 184.451636 
L 199.737429 184.419648 
L 199.872711 183.494851 
L 200.007992 184.346325 
L 200.142429 184.240295 
L 200.27771 184.34956 
L 200.547428 183.45783 
L 200.681019 184.104074 
L 200.815455 183.38307 
L 200.949892 184.048004 
L 201.086019 183.32736 
L 201.220455 183.777717 
L 201.354891 183.546967 
L 201.490173 184.027517 
L 201.624609 183.958148 
L 201.759045 184.38083 
L 201.893482 183.45172 
L 202.1632 183.766575 
L 202.432918 183.796048 
L 202.703481 183.327719 
L 202.837917 183.774842 
L 203.10679 183.04629 
L 203.241226 184.066694 
L 203.51179 183.679595 
L 203.647071 183.719131 
L 203.781508 183.894889 
L 203.915944 183.285307 
L 204.051226 183.814379 
L 204.186507 183.816895 
L 204.320944 183.999482 
L 204.456225 183.659467 
L 204.591507 183.682111 
L 204.725943 184.109106 
L 204.995661 183.896327 
L 205.130097 183.553437 
L 205.266225 184.092213 
L 205.400661 183.796048 
L 205.535097 183.99445 
L 205.804815 184.86713 
L 205.939251 183.629635 
L 206.074533 183.629635 
L 206.209815 183.892373 
L 206.344251 183.412902 
L 206.750942 184.903432 
L 206.885378 184.103714 
L 207.02066 184.427555 
L 207.155096 184.122045 
L 207.289532 184.519927 
L 207.424814 183.825161 
L 207.694532 184.524959 
L 207.965096 183.295371 
L 208.233968 184.226637 
L 208.36925 184.895525 
L 208.503686 184.2996 
L 208.638122 184.266893 
L 208.77425 184.567011 
L 209.045659 184.290615 
L 209.179249 184.124202 
L 209.313685 184.433665 
L 209.583403 183.864338 
L 209.718685 184.375439 
L 209.853121 183.474723 
L 210.122839 184.201837 
L 210.258121 183.968931 
L 210.393403 184.408506 
L 210.663121 183.596208 
L 210.798403 183.509947 
L 211.203402 184.211542 
L 211.472275 184.022485 
L 211.608402 183.189341 
L 211.742838 183.929754 
L 211.87812 183.491616 
L 212.012556 183.528996 
L 212.147838 183.829115 
L 212.28312 183.737821 
L 212.417556 183.437703 
L 212.551992 184.541852 
L 212.758297 183.918971 
L 212.892733 184.140376 
L 213.162451 183.876559 
L 213.296887 183.70116 
L 213.432169 184.63027 
L 213.566605 183.458909 
L 213.971605 183.693972 
L 214.106887 183.57033 
L 214.241323 183.742134 
L 214.376605 183.156274 
L 214.511041 183.105236 
L 214.646323 184.020688 
L 214.780759 183.673485 
L 215.185759 184.064897 
L 215.321041 183.467175 
L 215.455477 183.875121 
L 215.859631 183.094813 
L 215.994067 183.59549 
L 216.129349 183.268774 
L 216.399912 183.393134 
L 216.535194 183.311904 
L 216.670476 182.658113 
L 216.804912 182.776723 
L 216.939348 182.738624 
L 217.073785 182.889582 
L 217.613221 182.567538 
L 217.882939 183.17137 
L 218.152657 182.126526 
L 218.287093 182.639782 
L 218.421529 182.221413 
L 218.555965 182.650925 
L 218.825683 182.070815 
L 219.094556 181.746974 
L 219.364274 182.145216 
L 219.633992 182.718137 
L 219.90371 181.882477 
L 220.038991 181.932437 
L 220.175964 182.572211 
L 220.311246 181.546057 
L 220.446528 181.551448 
L 220.580964 181.71247 
L 220.7154 180.906283 
L 220.850682 180.88939 
L 220.985118 181.091026 
L 221.1204 180.408481 
L 221.254836 180.550094 
L 221.659836 178.375222 
L 221.929554 178.196589 
L 222.468144 176.041845 
L 223.141171 168.104336 
L 223.276453 166.312969 
L 223.949479 151.054721 
L 224.626734 144.026194 
L 225.031733 142.711782 
L 225.167015 143.447882 
L 225.301451 143.441412 
L 225.70476 145.496596 
L 225.840042 146.069517 
L 226.781941 153.875477 
L 227.050813 157.44599 
L 227.320531 159.45984 
L 227.859122 165.548475 
L 228.532994 172.619414 
L 228.937148 177.4914 
L 229.071585 177.604978 
L 229.341302 179.630329 
L 229.475739 179.840951 
L 229.61102 181.534196 
L 229.745457 181.778963 
L 230.014329 183.281713 
L 230.148765 183.108471 
L 230.418483 184.060584 
L 230.555456 183.606991 
L 230.825174 185.279748 
L 231.094047 184.460622 
L 231.36461 185.584899 
L 231.499046 185.564412 
L 231.634328 185.297001 
L 231.768764 185.905505 
L 231.904046 185.573397 
L 232.037637 184.606548 
L 232.172073 185.363494 
L 232.306509 185.234101 
L 232.440945 185.928148 
L 232.710663 185.611856 
L 232.8451 186.004346 
L 233.249254 185.491449 
L 233.518126 185.80235 
L 233.653408 186.015848 
L 233.787844 185.179829 
L 234.058408 186.119362 
L 234.32728 186.436733 
L 234.462562 185.493965 
L 234.597844 185.90838 
L 234.73228 185.854107 
L 234.867562 185.054749 
L 235.001998 186.116127 
L 235.13728 186.224673 
L 235.541434 185.745561 
L 235.676716 186.061494 
L 235.946434 185.628749 
L 236.081715 185.591009 
L 236.216152 185.293406 
L 236.351433 186.31381 
L 236.487561 186.184058 
L 236.621997 186.214968 
L 236.757279 185.136338 
L 236.891715 185.501153 
L 237.026997 184.758225 
L 237.161433 184.752115 
L 237.295869 184.502675 
L 237.430305 185.42208 
L 237.564742 185.126634 
L 237.969741 187.019358 
L 238.105023 186.216765 
L 238.239459 186.958256 
L 238.378123 186.847913 
L 238.512559 186.468362 
L 238.916714 187.879818 
L 239.05115 186.99312 
L 239.186432 187.607734 
L 239.321713 187.066443 
L 239.591431 187.657694 
L 239.72164 187.256218 
L 239.99474 188.011367 
L 240.129176 187.389205 
L 240.264458 187.757973 
L 240.398894 187.286769 
L 240.53333 187.294677 
L 240.667767 187.809371 
L 240.803048 187.602703 
L 241.072766 188.166279 
L 241.476921 187.888804 
L 241.612202 187.961048 
L 241.746639 187.687167 
L 241.88192 187.842797 
L 242.016357 188.710086 
L 242.286075 187.419756 
L 242.421356 188.876859 
L 242.555793 188.761484 
L 242.690229 187.797151 
L 242.959947 188.585726 
L 243.094383 188.437284 
L 243.229665 188.636045 
L 243.364101 188.325503 
L 243.499383 189.305651 
L 243.633819 188.510606 
L 243.769101 188.652579 
L 244.037973 188.354976 
L 244.307691 188.63928 
L 244.442127 189.335843 
L 244.715227 188.287404 
L 244.850509 188.501621 
L 244.9841 189.25677 
L 245.119382 188.803537 
L 245.253818 188.825102 
L 245.658818 187.858253 
L 245.792408 187.956735 
L 246.061281 187.612766 
L 246.196563 187.592279 
L 246.330999 186.838568 
L 246.466281 187.259094 
L 246.599871 187.06824 
L 246.735153 186.484536 
L 246.870435 187.01828 
L 247.004871 186.602786 
L 247.139307 187.240763 
L 247.273743 186.050352 
L 247.409025 186.804423 
L 247.543461 186.152069 
L 247.678743 186.688329 
L 247.948461 185.940009 
L 248.082897 186.296917 
L 248.622333 184.838017 
L 248.75677 184.467092 
L 249.027333 185.319285 
L 249.161769 184.666931 
L 249.430642 185.109382 
L 249.565078 184.598281 
L 249.970078 184.518489 
L 250.374232 183.035508 
L 250.508668 183.179996 
L 250.64395 183.035508 
L 250.778386 183.108471 
L 250.912822 182.593776 
L 251.048104 182.533393 
L 251.18254 182.306956 
L 251.317822 182.389624 
L 251.721976 181.121218 
L 251.856413 181.189149 
L 251.990849 180.996139 
L 252.126131 180.371461 
L 252.529439 177.432095 
L 252.934439 174.915771 
L 253.473875 167.026784 
L 254.146902 157.403219 
L 254.685492 152.655953 
L 254.819928 152.23363 
L 254.954365 152.736105 
L 255.088801 152.313782 
L 255.224083 152.757311 
L 255.358519 152.700881 
L 255.498028 152.349365 
L 255.902182 154.339133 
L 256.037464 154.922118 
L 256.576055 159.583482 
L 256.710491 160.300532 
L 257.117181 164.970163 
L 258.466617 178.79431 
L 259.006053 183.274524 
L 259.274925 184.072804 
L 259.544643 185.419564 
L 259.949643 187.32343 
L 260.084079 186.956818 
L 260.219361 187.088727 
L 260.488233 188.312564 
L 260.62267 188.616636 
L 260.757951 187.988364 
L 261.028515 189.251738 
L 261.162951 189.291993 
L 261.297387 189.097186 
L 261.567105 189.179134 
L 261.69816 189.239517 
L 261.832596 189.065556 
L 261.967878 189.495786 
L 262.102314 189.297744 
L 262.23675 189.957286 
L 262.506468 189.88001 
L 262.64175 190.287237 
L 262.776186 189.403774 
L 263.179495 190.539193 
L 263.313931 189.844786 
L 263.448367 190.43496 
L 263.582803 190.289034 
L 263.852521 190.795102 
L 264.257521 190.834998 
L 264.391957 190.995661 
L 264.527239 190.817746 
L 264.796957 190.890709 
L 264.931393 191.310156 
L 265.066675 190.482404 
L 265.201111 190.92737 
L 265.335548 190.757722 
L 265.470829 190.825653 
L 265.605266 191.08983 
L 265.740547 190.150656 
L 266.010265 191.044183 
L 266.144702 191.165668 
L 266.414419 190.55932 
L 266.549701 190.889271 
L 266.684137 190.835717 
L 266.819419 190.999614 
L 267.089137 190.592387 
L 267.358855 190.387516 
L 267.494137 190.934559 
L 267.759627 190.014434 
L 267.894064 191.132601 
L 268.032727 190.870222 
L 268.167164 190.987034 
L 268.302445 191.575411 
L 268.437727 190.62833 
L 268.573009 190.679368 
L 268.702372 191.224254 
L 268.836808 191.002849 
L 268.971244 191.740027 
L 269.106526 191.25804 
L 269.375399 191.474413 
L 269.51068 191.289669 
L 269.914835 191.709116 
L 270.049271 191.10852 
L 270.318989 191.009319 
L 270.454271 191.366226 
L 270.588707 190.770661 
L 270.723143 191.262353 
L 270.858425 191.292904 
L 270.992861 190.55357 
L 271.127297 190.599935 
L 271.261734 191.324533 
L 271.397015 191.327409 
L 271.667579 190.855845 
L 271.802861 190.823497 
L 271.936451 190.624736 
L 272.205324 191.446018 
L 272.340605 191.341785 
L 272.475887 191.950649 
L 272.610323 190.786117 
L 272.745605 191.290747 
L 272.880041 191.134758 
L 273.014478 191.61315 
L 273.148914 190.906883 
L 273.28335 190.929886 
L 273.418632 190.520862 
L 273.553068 191.227489 
L 273.691732 190.975533 
L 273.826168 190.347979 
L 273.960604 190.678649 
L 274.095886 190.600295 
L 274.230322 189.961959 
L 274.364759 190.489952 
L 274.50004 190.280048 
L 274.634477 191.002849 
L 274.768913 190.731484 
L 274.904195 190.122621 
L 275.038631 190.661397 
L 275.177295 190.418426 
L 275.311731 191.072577 
L 275.581449 190.944263 
L 275.716731 190.624017 
L 275.851167 191.009678 
L 275.986449 191.02082 
L 276.12173 191.449972 
L 276.255321 191.42014 
L 276.390603 190.627611 
L 276.525039 191.384916 
L 276.794757 190.500016 
L 277.063629 191.023336 
L 277.198066 190.719623 
L 277.333347 190.848297 
L 277.467784 190.44107 
L 277.60222 190.754487 
L 278.006374 190.138795 
L 278.14081 190.672539 
L 278.409683 190.330368 
L 278.544965 190.75305 
L 278.680246 189.903013 
L 278.814683 189.832925 
L 278.949964 189.273662 
L 279.084401 190.808401 
L 279.354118 189.617271 
L 279.488555 190.01084 
L 279.623836 190.828529 
L 279.758273 190.258483 
L 279.892709 189.095029 
L 280.027991 190.650255 
L 280.162427 189.719348 
L 280.296863 190.581964 
L 280.432145 190.538474 
L 280.567427 190.661756 
L 280.701863 190.943185 
L 281.106017 190.732563 
L 281.241299 190.119745 
L 281.375735 190.602092 
L 281.510171 190.17941 
L 281.644608 190.775334 
L 281.914326 189.417072 
L 282.048762 190.042829 
L 282.184044 189.954051 
L 282.31848 190.095305 
L 282.453762 190.644144 
L 282.588198 190.158563 
L 282.722634 190.462276 
L 282.857916 189.998979 
L 282.992352 191.253008 
L 283.126788 190.112198 
L 283.26207 190.704528 
L 283.531788 190.039953 
L 283.801506 190.354449 
L 283.936788 191.067545 
L 284.071224 189.3876 
L 284.206506 190.108963 
L 284.340942 189.449421 
L 284.476224 190.100696 
L 284.611505 189.574141 
L 284.745942 189.967709 
L 284.880378 189.053695 
L 285.285378 189.394429 
L 285.555096 188.69535 
L 285.824814 189.60577 
L 285.962632 189.487519 
L 286.097068 188.80749 
L 286.635658 189.416713 
L 286.905376 188.573505 
L 287.039813 189.184166 
L 287.309531 187.788524 
L 287.448194 188.174186 
L 287.98763 185.752031 
L 288.390939 184.327276 
L 289.333684 174.742529 
L 290.142838 165.306224 
L 290.277274 165.217086 
L 290.546992 163.974559 
L 290.815864 165.017247 
L 290.951146 164.885698 
L 291.086428 165.134778 
L 291.3553 166.020757 
L 291.7603 167.424666 
L 291.894736 168.993909 
L 292.030018 169.221065 
L 292.300582 171.348133 
L 292.435018 171.531798 
L 292.569454 173.420569 
L 292.704736 173.682229 
L 293.10889 176.390126 
L 293.782762 181.622973 
L 293.918044 182.03056 
L 294.187762 185.221522 
L 294.317971 185.313175 
L 294.722125 188.148667 
L 294.857407 188.336645 
L 295.262406 191.02693 
L 295.396843 190.898616 
L 295.665715 192.506318 
L 295.800151 192.843816 
L 296.069869 192.577124 
L 296.205151 192.359673 
L 296.474869 193.186706 
L 296.609305 193.40919 
L 296.742896 193.158312 
L 296.877332 193.237745 
L 297.147896 194.189857 
L 297.553741 194.004036 
L 297.689023 194.470567 
L 297.823459 193.687383 
L 298.093177 194.375679 
L 298.229304 194.96154 
L 298.364586 194.233348 
L 298.769586 195.199119 
L 298.904022 194.871324 
L 299.038458 195.457185 
L 299.17374 194.589896 
L 299.310713 194.610383 
L 299.445994 195.236858 
L 299.714867 195.001436 
L 299.850149 193.912023 
L 299.984585 195.449278 
L 300.119021 194.801596 
L 300.254303 194.698442 
L 300.524021 195.287896 
L 300.793739 194.824599 
L 300.928175 194.795486 
L 301.062611 195.493846 
L 301.197893 195.1984 
L 301.333175 194.200281 
L 301.602893 194.795127 
L 301.737329 194.681549 
L 302.006201 194.731509 
L 302.140638 194.709584 
L 302.275074 195.158504 
L 302.410356 194.037462 
L 302.545637 193.991456 
L 302.81451 194.433187 
L 302.949792 194.110065 
L 303.084228 194.145289 
L 303.21951 194.013021 
L 303.353946 194.674001 
L 303.624509 193.60831 
L 303.758945 194.858745 
L 303.893382 194.681908 
L 304.1631 194.821724 
L 304.297536 194.118692 
L 304.432818 194.305592 
L 304.567254 194.127318 
L 304.702536 194.798002 
L 304.836972 194.400839 
L 304.972254 194.383227 
L 305.107535 193.760346 
L 305.241972 194.286542 
L 305.51169 193.91382 
L 305.647817 194.985621 
L 305.783099 194.476318 
L 305.91838 194.452955 
L 306.052817 194.280073 
L 306.188098 193.850921 
L 306.32338 194.321047 
L 306.457816 193.759987 
L 306.591407 194.474161 
L 306.726689 194.557907 
L 306.861125 194.825318 
L 306.996407 194.390416 
L 307.135071 194.971244 
L 307.269507 194.595287 
L 307.404789 194.99892 
L 307.539225 194.011943 
L 307.673661 194.129474 
L 307.808943 194.589536 
L 307.943379 194.633027 
L 308.211406 194.345847 
L 308.346688 194.743729 
L 308.481124 193.752798 
L 308.750842 194.438219 
L 308.885278 194.184466 
L 309.02056 194.435344 
L 309.154996 194.164698 
L 309.290278 194.326798 
L 309.424714 194.750918 
L 309.559996 193.583869 
L 309.695278 194.310983 
L 309.829714 194.032071 
L 310.099432 194.233707 
L 310.099432 194.233707 
" clip-path="url(#p6a6c50bc01)" style="fill: none; stroke: #1f77b4; stroke-width: 1.5; stroke-linecap: square"/>
   </g>
   <g id="patch_3">
    <path d="M 43.78125 198.8355 
L 43.78125 35.7555 
" style="fill: none; stroke: #000000; stroke-width: 0.8; stroke-linejoin: miter; stroke-linecap: square"/>
   </g>
   <g id="patch_4">
    <path d="M 322.78125 198.8355 
L 322.78125 35.7555 
" style="fill: none; stroke: #000000; stroke-width: 0.8; stroke-linejoin: miter; stroke-linecap: square"/>
   </g>
   <g id="patch_5">
    <path d="M 43.78125 198.8355 
L 322.78125 198.8355 
" style="fill: none; stroke: #000000; stroke-width: 0.8; stroke-linejoin: miter; stroke-linecap: square"/>
   </g>
   <g id="patch_6">
    <path d="M 43.78125 35.7555 
L 322.78125 35.7555 
" style="fill: none; stroke: #000000; stroke-width: 0.8; stroke-linejoin: miter; stroke-linecap: square"/>
   </g>
   <g id="text_16">
    <!-- After equalize -->
    <g transform="translate(141.814687 16.318125)scale(0.12 -0.12)">
     <defs>
      <path id="DejaVuSans-41" d="M 2188 4044 
L 1331 1722 
L 3047 1722 
L 2188 4044 
z
M 1831 4666 
L 2547 4666 
L 4325 0 
L 3669 0 
L 3244 1197 
L 1141 1197 
L 716 0 
L 50 0 
L 1831 4666 
z
" transform="scale(0.015625)"/>
      <path id="DejaVuSans-66" d="M 2375 4863 
L 2375 4384 
L 1825 4384 
Q 1516 4384 1395 4259 
Q 1275 4134 1275 3809 
L 1275 3500 
L 2222 3500 
L 2222 3053 
L 1275 3053 
L 1275 0 
L 697 0 
L 697 3053 
L 147 3053 
L 147 3500 
L 697 3500 
L 697 3744 
Q 697 4328 969 4595 
Q 1241 4863 1831 4863 
L 2375 4863 
z
" transform="scale(0.015625)"/>
      <path id="DejaVuSans-74" d="M 1172 4494 
L 1172 3500 
L 2356 3500 
L 2356 3053 
L 1172 3053 
L 1172 1153 
Q 1172 725 1289 603 
Q 1406 481 1766 481 
L 2356 481 
L 2356 0 
L 1766 0 
Q 1100 0 847 248 
Q 594 497 594 1153 
L 594 3053 
L 172 3053 
L 172 3500 
L 594 3500 
L 594 4494 
L 1172 4494 
z
" transform="scale(0.015625)"/>
      <path id="DejaVuSans-72" d="M 2631 2963 
Q 2534 3019 2420 3045 
Q 2306 3072 2169 3072 
Q 1681 3072 1420 2755 
Q 1159 2438 1159 1844 
L 1159 0 
L 581 0 
L 581 3500 
L 1159 3500 
L 1159 2956 
Q 1341 3275 1631 3429 
Q 1922 3584 2338 3584 
Q 2397 3584 2469 3576 
Q 2541 3569 2628 3553 
L 2631 2963 
z
" transform="scale(0.015625)"/>
      <path id="DejaVuSans-71" d="M 947 1747 
Q 947 1113 1208 752 
Q 1469 391 1925 391 
Q 2381 391 2643 752 
Q 2906 1113 2906 1747 
Q 2906 2381 2643 2742 
Q 2381 3103 1925 3103 
Q 1469 3103 1208 2742 
Q 947 2381 947 1747 
z
M 2906 525 
Q 2725 213 2448 61 
Q 2172 -91 1784 -91 
Q 1150 -91 751 415 
Q 353 922 353 1747 
Q 353 2572 751 3078 
Q 1150 3584 1784 3584 
Q 2172 3584 2448 3432 
Q 2725 3281 2906 2969 
L 2906 3500 
L 3481 3500 
L 3481 -1331 
L 2906 -1331 
L 2906 525 
z
" transform="scale(0.015625)"/>
      <path id="DejaVuSans-75" d="M 544 1381 
L 544 3500 
L 1119 3500 
L 1119 1403 
Q 1119 906 1312 657 
Q 1506 409 1894 409 
Q 2359 409 2629 706 
Q 2900 1003 2900 1516 
L 2900 3500 
L 3475 3500 
L 3475 0 
L 2900 0 
L 2900 538 
Q 2691 219 2414 64 
Q 2138 -91 1772 -91 
Q 1169 -91 856 284 
Q 544 659 544 1381 
z
M 1991 3584 
L 1991 3584 
z
" transform="scale(0.015625)"/>
      <path id="DejaVuSans-61" d="M 2194 1759 
Q 1497 1759 1228 1600 
Q 959 1441 959 1056 
Q 959 750 1161 570 
Q 1363 391 1709 391 
Q 2188 391 2477 730 
Q 2766 1069 2766 1631 
L 2766 1759 
L 2194 1759 
z
M 3341 1997 
L 3341 0 
L 2766 0 
L 2766 531 
Q 2569 213 2275 61 
Q 1981 -91 1556 -91 
Q 1019 -91 701 211 
Q 384 513 384 1019 
Q 384 1609 779 1909 
Q 1175 2209 1959 2209 
L 2766 2209 
L 2766 2266 
Q 2766 2663 2505 2880 
Q 2244 3097 1772 3097 
Q 1472 3097 1187 3025 
Q 903 2953 641 2809 
L 641 3341 
Q 956 3463 1253 3523 
Q 1550 3584 1831 3584 
Q 2591 3584 2966 3190 
Q 3341 2797 3341 1997 
z
" transform="scale(0.015625)"/>
      <path id="DejaVuSans-6c" d="M 603 4863 
L 1178 4863 
L 1178 0 
L 603 0 
L 603 4863 
z
" transform="scale(0.015625)"/>
      <path id="DejaVuSans-7a" d="M 353 3500 
L 3084 3500 
L 3084 2975 
L 922 459 
L 3084 459 
L 3084 0 
L 275 0 
L 275 525 
L 2438 3041 
L 353 3041 
L 353 3500 
z
" transform="scale(0.015625)"/>
     </defs>
     <use xlink:href="#DejaVuSans-41"/>
     <use xlink:href="#DejaVuSans-66" x="64.783203"/>
     <use xlink:href="#DejaVuSans-74" x="98.238281"/>
     <use xlink:href="#DejaVuSans-65" x="137.447266"/>
     <use xlink:href="#DejaVuSans-72" x="198.970703"/>
     <use xlink:href="#DejaVuSans-20" x="240.083984"/>
     <use xlink:href="#DejaVuSans-65" x="271.871094"/>
     <use xlink:href="#DejaVuSans-71" x="333.394531"/>
     <use xlink:href="#DejaVuSans-75" x="396.871094"/>
     <use xlink:href="#DejaVuSans-61" x="460.25"/>
     <use xlink:href="#DejaVuSans-6c" x="521.529297"/>
     <use xlink:href="#DejaVuSans-69" x="549.3125"/>
     <use xlink:href="#DejaVuSans-7a" x="577.095703"/>
     <use xlink:href="#DejaVuSans-65" x="629.585938"/>
    </g>
    <!-- NTR_C3_005_crop - Intensity Equalized, ROI=1 -->
    <g transform="translate(43.003125 29.7555)scale(0.12 -0.12)">
     <defs>
      <path id="DejaVuSans-4e" d="M 628 4666 
L 1478 4666 
L 3547 763 
L 3547 4666 
L 4159 4666 
L 4159 0 
L 3309 0 
L 1241 3903 
L 1241 0 
L 628 0 
L 628 4666 
z
" transform="scale(0.015625)"/>
      <path id="DejaVuSans-52" d="M 2841 2188 
Q 3044 2119 3236 1894 
Q 3428 1669 3622 1275 
L 4263 0 
L 3584 0 
L 2988 1197 
Q 2756 1666 2539 1819 
Q 2322 1972 1947 1972 
L 1259 1972 
L 1259 0 
L 628 0 
L 628 4666 
L 2053 4666 
Q 2853 4666 3247 4331 
Q 3641 3997 3641 3322 
Q 3641 2881 3436 2590 
Q 3231 2300 2841 2188 
z
M 1259 4147 
L 1259 2491 
L 2053 2491 
Q 2509 2491 2742 2702 
Q 2975 2913 2975 3322 
Q 2975 3731 2742 3939 
Q 2509 4147 2053 4147 
L 1259 4147 
z
" transform="scale(0.015625)"/>
      <path id="DejaVuSans-5f" d="M 3263 -1063 
L 3263 -1509 
L -63 -1509 
L -63 -1063 
L 3263 -1063 
z
" transform="scale(0.015625)"/>
      <path id="DejaVuSans-43" d="M 4122 4306 
L 4122 3641 
Q 3803 3938 3442 4084 
Q 3081 4231 2675 4231 
Q 1875 4231 1450 3742 
Q 1025 3253 1025 2328 
Q 1025 1406 1450 917 
Q 1875 428 2675 428 
Q 3081 428 3442 575 
Q 3803 722 4122 1019 
L 4122 359 
Q 3791 134 3420 21 
Q 3050 -91 2638 -91 
Q 1578 -91 968 557 
Q 359 1206 359 2328 
Q 359 3453 968 4101 
Q 1578 4750 2638 4750 
Q 3056 4750 3426 4639 
Q 3797 4528 4122 4306 
z
" transform="scale(0.015625)"/>
      <path id="DejaVuSans-63" d="M 3122 3366 
L 3122 2828 
Q 2878 2963 2633 3030 
Q 2388 3097 2138 3097 
Q 1578 3097 1268 2742 
Q 959 2388 959 1747 
Q 959 1106 1268 751 
Q 1578 397 2138 397 
Q 2388 397 2633 464 
Q 2878 531 3122 666 
L 3122 134 
Q 2881 22 2623 -34 
Q 2366 -91 2075 -91 
Q 1284 -91 818 406 
Q 353 903 353 1747 
Q 353 2603 823 3093 
Q 1294 3584 2113 3584 
Q 2378 3584 2631 3529 
Q 2884 3475 3122 3366 
z
" transform="scale(0.015625)"/>
      <path id="DejaVuSans-6f" d="M 1959 3097 
Q 1497 3097 1228 2736 
Q 959 2375 959 1747 
Q 959 1119 1226 758 
Q 1494 397 1959 397 
Q 2419 397 2687 759 
Q 2956 1122 2956 1747 
Q 2956 2369 2687 2733 
Q 2419 3097 1959 3097 
z
M 1959 3584 
Q 2709 3584 3137 3096 
Q 3566 2609 3566 1747 
Q 3566 888 3137 398 
Q 2709 -91 1959 -91 
Q 1206 -91 779 398 
Q 353 888 353 1747 
Q 353 2609 779 3096 
Q 1206 3584 1959 3584 
z
" transform="scale(0.015625)"/>
      <path id="DejaVuSans-70" d="M 1159 525 
L 1159 -1331 
L 581 -1331 
L 581 3500 
L 1159 3500 
L 1159 2969 
Q 1341 3281 1617 3432 
Q 1894 3584 2278 3584 
Q 2916 3584 3314 3078 
Q 3713 2572 3713 1747 
Q 3713 922 3314 415 
Q 2916 -91 2278 -91 
Q 1894 -91 1617 61 
Q 1341 213 1159 525 
z
M 3116 1747 
Q 3116 2381 2855 2742 
Q 2594 3103 2138 3103 
Q 1681 3103 1420 2742 
Q 1159 2381 1159 1747 
Q 1159 1113 1420 752 
Q 1681 391 2138 391 
Q 2594 391 2855 752 
Q 3116 1113 3116 1747 
z
" transform="scale(0.015625)"/>
      <path id="DejaVuSans-49" d="M 628 4666 
L 1259 4666 
L 1259 0 
L 628 0 
L 628 4666 
z
" transform="scale(0.015625)"/>
      <path id="DejaVuSans-6e" d="M 3513 2113 
L 3513 0 
L 2938 0 
L 2938 2094 
Q 2938 2591 2744 2837 
Q 2550 3084 2163 3084 
Q 1697 3084 1428 2787 
Q 1159 2491 1159 1978 
L 1159 0 
L 581 0 
L 581 3500 
L 1159 3500 
L 1159 2956 
Q 1366 3272 1645 3428 
Q 1925 3584 2291 3584 
Q 2894 3584 3203 3211 
Q 3513 2838 3513 2113 
z
" transform="scale(0.015625)"/>
      <path id="DejaVuSans-79" d="M 2059 -325 
Q 1816 -950 1584 -1140 
Q 1353 -1331 966 -1331 
L 506 -1331 
L 506 -850 
L 844 -850 
Q 1081 -850 1212 -737 
Q 1344 -625 1503 -206 
L 1606 56 
L 191 3500 
L 800 3500 
L 1894 763 
L 2988 3500 
L 3597 3500 
L 2059 -325 
z
" transform="scale(0.015625)"/>
      <path id="DejaVuSans-45" d="M 628 4666 
L 3578 4666 
L 3578 4134 
L 1259 4134 
L 1259 2753 
L 3481 2753 
L 3481 2222 
L 1259 2222 
L 1259 531 
L 3634 531 
L 3634 0 
L 628 0 
L 628 4666 
z
" transform="scale(0.015625)"/>
      <path id="DejaVuSans-64" d="M 2906 2969 
L 2906 4863 
L 3481 4863 
L 3481 0 
L 2906 0 
L 2906 525 
Q 2725 213 2448 61 
Q 2172 -91 1784 -91 
Q 1150 -91 751 415 
Q 353 922 353 1747 
Q 353 2572 751 3078 
Q 1150 3584 1784 3584 
Q 2172 3584 2448 3432 
Q 2725 3281 2906 2969 
z
M 947 1747 
Q 947 1113 1208 752 
Q 1469 391 1925 391 
Q 2381 391 2643 752 
Q 2906 1113 2906 1747 
Q 2906 2381 2643 2742 
Q 2381 3103 1925 3103 
Q 1469 3103 1208 2742 
Q 947 2381 947 1747 
z
" transform="scale(0.015625)"/>
      <path id="DejaVuSans-2c" d="M 750 794 
L 1409 794 
L 1409 256 
L 897 -744 
L 494 -744 
L 750 256 
L 750 794 
z
" transform="scale(0.015625)"/>
      <path id="DejaVuSans-4f" d="M 2522 4238 
Q 1834 4238 1429 3725 
Q 1025 3213 1025 2328 
Q 1025 1447 1429 934 
Q 1834 422 2522 422 
Q 3209 422 3611 934 
Q 4013 1447 4013 2328 
Q 4013 3213 3611 3725 
Q 3209 4238 2522 4238 
z
M 2522 4750 
Q 3503 4750 4090 4092 
Q 4678 3434 4678 2328 
Q 4678 1225 4090 567 
Q 3503 -91 2522 -91 
Q 1538 -91 948 565 
Q 359 1222 359 2328 
Q 359 3434 948 4092 
Q 1538 4750 2522 4750 
z
" transform="scale(0.015625)"/>
      <path id="DejaVuSans-3d" d="M 678 2906 
L 4684 2906 
L 4684 2381 
L 678 2381 
L 678 2906 
z
M 678 1631 
L 4684 1631 
L 4684 1100 
L 678 1100 
L 678 1631 
z
" transform="scale(0.015625)"/>
     </defs>
     <use xlink:href="#DejaVuSans-4e"/>
     <use xlink:href="#DejaVuSans-54" x="74.804688"/>
     <use xlink:href="#DejaVuSans-52" x="135.888672"/>
     <use xlink:href="#DejaVuSans-5f" x="205.371094"/>
     <use xlink:href="#DejaVuSans-43" x="255.371094"/>
     <use xlink:href="#DejaVuSans-33" x="325.195312"/>
     <use xlink:href="#DejaVuSans-5f" x="388.818359"/>
     <use xlink:href="#DejaVuSans-30" x="438.818359"/>
     <use xlink:href="#DejaVuSans-30" x="502.441406"/>
     <use xlink:href="#DejaVuSans-35" x="566.064453"/>
     <use xlink:href="#DejaVuSans-5f" x="629.6875"/>
     <use xlink:href="#DejaVuSans-63" x="679.6875"/>
     <use xlink:href="#DejaVuSans-72" x="734.667969"/>
     <use xlink:href="#DejaVuSans-6f" x="773.53125"/>
     <use xlink:href="#DejaVuSans-70" x="834.712891"/>
     <use xlink:href="#DejaVuSans-20" x="898.189453"/>
     <use xlink:href="#DejaVuSans-2d" x="929.976562"/>
     <use xlink:href="#DejaVuSans-20" x="966.060547"/>
     <use xlink:href="#DejaVuSans-49" x="997.847656"/>
     <use xlink:href="#DejaVuSans-6e" x="1027.339844"/>
     <use xlink:href="#DejaVuSans-74" x="1090.71875"/>
     <use xlink:href="#DejaVuSans-65" x="1129.927734"/>
     <use xlink:href="#DejaVuSans-6e" x="1191.451172"/>
     <use xlink:href="#DejaVuSans-73" x="1254.830078"/>
     <use xlink:href="#DejaVuSans-69" x="1306.929688"/>
     <use xlink:href="#DejaVuSans-74" x="1334.712891"/>
     <use xlink:href="#DejaVuSans-79" x="1373.921875"/>
     <use xlink:href="#DejaVuSans-20" x="1433.101562"/>
     <use xlink:href="#DejaVuSans-45" x="1464.888672"/>
     <use xlink:href="#DejaVuSans-71" x="1528.072266"/>
     <use xlink:href="#DejaVuSans-75" x="1591.548828"/>
     <use xlink:href="#DejaVuSans-61" x="1654.927734"/>
     <use xlink:href="#DejaVuSans-6c" x="1716.207031"/>
     <use xlink:href="#DejaVuSans-69" x="1743.990234"/>
     <use xlink:href="#DejaVuSans-7a" x="1771.773438"/>
     <use xlink:href="#DejaVuSans-65" x="1824.263672"/>
     <use xlink:href="#DejaVuSans-64" x="1885.787109"/>
     <use xlink:href="#DejaVuSans-2c" x="1949.263672"/>
     <use xlink:href="#DejaVuSans-20" x="1981.050781"/>
     <use xlink:href="#DejaVuSans-52" x="2012.837891"/>
     <use xlink:href="#DejaVuSans-4f" x="2082.320312"/>
     <use xlink:href="#DejaVuSans-49" x="2161.03125"/>
     <use xlink:href="#DejaVuSans-3d" x="2190.523438"/>
     <use xlink:href="#DejaVuSans-31" x="2274.3125"/>
    </g>
   </g>
  </g>
 </g>
 <defs>
  <clipPath id="p6a6c50bc01">
   <rect x="43.78125" y="35.7555" width="279" height="163.08"/>
  </clipPath>
 </defs>
</svg>
