<?xml version="1.0" encoding="utf-8" standalone="no"?>
<!DOCTYPE svg PUBLIC "-//W3C//DTD SVG 1.1//EN"
  "http://www.w3.org/Graphics/SVG/1.1/DTD/svg11.dtd">
<svg xmlns:xlink="http://www.w3.org/1999/xlink" width="334.576875pt" height="236.39175pt" viewBox="0 0 334.576875 236.39175" xmlns="http://www.w3.org/2000/svg" version="1.1">
 <metadata>
  <rdf:RDF xmlns:dc="http://purl.org/dc/elements/1.1/" xmlns:cc="http://creativecommons.org/ns#" xmlns:rdf="http://www.w3.org/1999/02/22-rdf-syntax-ns#">
   <cc:Work>
    <dc:type rdf:resource="http://purl.org/dc/dcmitype/StillImage"/>
    <dc:date>2025-01-27T16:06:42.163040</dc:date>
    <dc:format>image/svg+xml</dc:format>
    <dc:creator>
     <cc:Agent>
      <dc:title>Matplotlib v3.5.2, https://matplotlib.org/</dc:title>
     </cc:Agent>
    </dc:creator>
   </cc:Work>
  </rdf:RDF>
 </metadata>
 <defs>
  <style type="text/css">*{stroke-linejoin: round; stroke-linecap: butt}</style>
 </defs>
 <g id="figure_1">
  <g id="patch_1">
   <path d="M 0 236.39175 
L 334.576875 236.39175 
L 334.576875 0 
L 0 0 
L 0 236.39175 
z
" style="fill: none"/>
  </g>
  <g id="axes_1">
   <g id="patch_2">
    <path d="M 43.78125 198.8355 
L 322.78125 198.8355 
L 322.78125 35.7555 
L 43.78125 35.7555 
z
" style="fill: #ffffff"/>
   </g>
   <g id="matplotlib.axis_1">
    <g id="xtick_1">
     <g id="line2d_1">
      <defs>
       <path id="md6c9369082" d="M 0 0 
L 0 3.5 
" style="stroke: #000000; stroke-width: 0.8"/>
      </defs>
      <g>
       <use xlink:href="#md6c9369082" x="56.427557" y="198.8355" style="stroke: #000000; stroke-width: 0.8"/>
      </g>
     </g>
     <g id="text_1">
      <!-- 0 -->
      <g transform="translate(53.246307 213.433938)scale(0.1 -0.1)">
       <defs>
        <path id="DejaVuSans-30" d="M 2034 4250 
Q 1547 4250 1301 3770 
Q 1056 3291 1056 2328 
Q 1056 1369 1301 889 
Q 1547 409 2034 409 
Q 2525 409 2770 889 
Q 3016 1369 3016 2328 
Q 3016 3291 2770 3770 
Q 2525 4250 2034 4250 
z
M 2034 4750 
Q 2819 4750 3233 4129 
Q 3647 3509 3647 2328 
Q 3647 1150 3233 529 
Q 2819 -91 2034 -91 
Q 1250 -91 836 529 
Q 422 1150 422 2328 
Q 422 3509 836 4129 
Q 1250 4750 2034 4750 
z
" transform="scale(0.015625)"/>
       </defs>
       <use xlink:href="#DejaVuSans-30"/>
      </g>
     </g>
    </g>
    <g id="xtick_2">
     <g id="line2d_2">
      <g>
       <use xlink:href="#md6c9369082" x="98.703102" y="198.8355" style="stroke: #000000; stroke-width: 0.8"/>
      </g>
     </g>
     <g id="text_2">
      <!-- 50 -->
      <g transform="translate(92.340602 213.433938)scale(0.1 -0.1)">
       <defs>
        <path id="DejaVuSans-35" d="M 691 4666 
L 3169 4666 
L 3169 4134 
L 1269 4134 
L 1269 2991 
Q 1406 3038 1543 3061 
Q 1681 3084 1819 3084 
Q 2600 3084 3056 2656 
Q 3513 2228 3513 1497 
Q 3513 744 3044 326 
Q 2575 -91 1722 -91 
Q 1428 -91 1123 -41 
Q 819 9 494 109 
L 494 744 
Q 775 591 1075 516 
Q 1375 441 1709 441 
Q 2250 441 2565 725 
Q 2881 1009 2881 1497 
Q 2881 1984 2565 2268 
Q 2250 2553 1709 2553 
Q 1456 2553 1204 2497 
Q 953 2441 691 2322 
L 691 4666 
z
" transform="scale(0.015625)"/>
       </defs>
       <use xlink:href="#DejaVuSans-35"/>
       <use xlink:href="#DejaVuSans-30" x="63.623047"/>
      </g>
     </g>
    </g>
    <g id="xtick_3">
     <g id="line2d_3">
      <g>
       <use xlink:href="#md6c9369082" x="140.978648" y="198.8355" style="stroke: #000000; stroke-width: 0.8"/>
      </g>
     </g>
     <g id="text_3">
      <!-- 100 -->
      <g transform="translate(131.434898 213.433938)scale(0.1 -0.1)">
       <defs>
        <path id="DejaVuSans-31" d="M 794 531 
L 1825 531 
L 1825 4091 
L 703 3866 
L 703 4441 
L 1819 4666 
L 2450 4666 
L 2450 531 
L 3481 531 
L 3481 0 
L 794 0 
L 794 531 
z
" transform="scale(0.015625)"/>
       </defs>
       <use xlink:href="#DejaVuSans-31"/>
       <use xlink:href="#DejaVuSans-30" x="63.623047"/>
       <use xlink:href="#DejaVuSans-30" x="127.246094"/>
      </g>
     </g>
    </g>
    <g id="xtick_4">
     <g id="line2d_4">
      <g>
       <use xlink:href="#md6c9369082" x="183.254194" y="198.8355" style="stroke: #000000; stroke-width: 0.8"/>
      </g>
     </g>
     <g id="text_4">
      <!-- 150 -->
      <g transform="translate(173.710444 213.433938)scale(0.1 -0.1)">
       <use xlink:href="#DejaVuSans-31"/>
       <use xlink:href="#DejaVuSans-35" x="63.623047"/>
       <use xlink:href="#DejaVuSans-30" x="127.246094"/>
      </g>
     </g>
    </g>
    <g id="xtick_5">
     <g id="line2d_5">
      <g>
       <use xlink:href="#md6c9369082" x="225.529739" y="198.8355" style="stroke: #000000; stroke-width: 0.8"/>
      </g>
     </g>
     <g id="text_5">
      <!-- 200 -->
      <g transform="translate(215.985989 213.433938)scale(0.1 -0.1)">
       <defs>
        <path id="DejaVuSans-32" d="M 1228 531 
L 3431 531 
L 3431 0 
L 469 0 
L 469 531 
Q 828 903 1448 1529 
Q 2069 2156 2228 2338 
Q 2531 2678 2651 2914 
Q 2772 3150 2772 3378 
Q 2772 3750 2511 3984 
Q 2250 4219 1831 4219 
Q 1534 4219 1204 4116 
Q 875 4013 500 3803 
L 500 4441 
Q 881 4594 1212 4672 
Q 1544 4750 1819 4750 
Q 2544 4750 2975 4387 
Q 3406 4025 3406 3419 
Q 3406 3131 3298 2873 
Q 3191 2616 2906 2266 
Q 2828 2175 2409 1742 
Q 1991 1309 1228 531 
z
" transform="scale(0.015625)"/>
       </defs>
       <use xlink:href="#DejaVuSans-32"/>
       <use xlink:href="#DejaVuSans-30" x="63.623047"/>
       <use xlink:href="#DejaVuSans-30" x="127.246094"/>
      </g>
     </g>
    </g>
    <g id="xtick_6">
     <g id="line2d_6">
      <g>
       <use xlink:href="#md6c9369082" x="267.805285" y="198.8355" style="stroke: #000000; stroke-width: 0.8"/>
      </g>
     </g>
     <g id="text_6">
      <!-- 250 -->
      <g transform="translate(258.261535 213.433938)scale(0.1 -0.1)">
       <use xlink:href="#DejaVuSans-32"/>
       <use xlink:href="#DejaVuSans-35" x="63.623047"/>
       <use xlink:href="#DejaVuSans-30" x="127.246094"/>
      </g>
     </g>
    </g>
    <g id="xtick_7">
     <g id="line2d_7">
      <g>
       <use xlink:href="#md6c9369082" x="310.080831" y="198.8355" style="stroke: #000000; stroke-width: 0.8"/>
      </g>
     </g>
     <g id="text_7">
      <!-- 300 -->
      <g transform="translate(300.537081 213.433938)scale(0.1 -0.1)">
       <defs>
        <path id="DejaVuSans-33" d="M 2597 2516 
Q 3050 2419 3304 2112 
Q 3559 1806 3559 1356 
Q 3559 666 3084 287 
Q 2609 -91 1734 -91 
Q 1441 -91 1130 -33 
Q 819 25 488 141 
L 488 750 
Q 750 597 1062 519 
Q 1375 441 1716 441 
Q 2309 441 2620 675 
Q 2931 909 2931 1356 
Q 2931 1769 2642 2001 
Q 2353 2234 1838 2234 
L 1294 2234 
L 1294 2753 
L 1863 2753 
Q 2328 2753 2575 2939 
Q 2822 3125 2822 3475 
Q 2822 3834 2567 4026 
Q 2313 4219 1838 4219 
Q 1578 4219 1281 4162 
Q 984 4106 628 3988 
L 628 4550 
Q 988 4650 1302 4700 
Q 1616 4750 1894 4750 
Q 2613 4750 3031 4423 
Q 3450 4097 3450 3541 
Q 3450 3153 3228 2886 
Q 3006 2619 2597 2516 
z
" transform="scale(0.015625)"/>
       </defs>
       <use xlink:href="#DejaVuSans-33"/>
       <use xlink:href="#DejaVuSans-30" x="63.623047"/>
       <use xlink:href="#DejaVuSans-30" x="127.246094"/>
      </g>
     </g>
    </g>
    <g id="text_8">
     <!-- Time [s] -->
     <g transform="translate(162.952344 227.112063)scale(0.1 -0.1)">
      <defs>
       <path id="DejaVuSans-54" d="M -19 4666 
L 3928 4666 
L 3928 4134 
L 2272 4134 
L 2272 0 
L 1638 0 
L 1638 4134 
L -19 4134 
L -19 4666 
z
" transform="scale(0.015625)"/>
       <path id="DejaVuSans-69" d="M 603 3500 
L 1178 3500 
L 1178 0 
L 603 0 
L 603 3500 
z
M 603 4863 
L 1178 4863 
L 1178 4134 
L 603 4134 
L 603 4863 
z
" transform="scale(0.015625)"/>
       <path id="DejaVuSans-6d" d="M 3328 2828 
Q 3544 3216 3844 3400 
Q 4144 3584 4550 3584 
Q 5097 3584 5394 3201 
Q 5691 2819 5691 2113 
L 5691 0 
L 5113 0 
L 5113 2094 
Q 5113 2597 4934 2840 
Q 4756 3084 4391 3084 
Q 3944 3084 3684 2787 
Q 3425 2491 3425 1978 
L 3425 0 
L 2847 0 
L 2847 2094 
Q 2847 2600 2669 2842 
Q 2491 3084 2119 3084 
Q 1678 3084 1418 2786 
Q 1159 2488 1159 1978 
L 1159 0 
L 581 0 
L 581 3500 
L 1159 3500 
L 1159 2956 
Q 1356 3278 1631 3431 
Q 1906 3584 2284 3584 
Q 2666 3584 2933 3390 
Q 3200 3197 3328 2828 
z
" transform="scale(0.015625)"/>
       <path id="DejaVuSans-65" d="M 3597 1894 
L 3597 1613 
L 953 1613 
Q 991 1019 1311 708 
Q 1631 397 2203 397 
Q 2534 397 2845 478 
Q 3156 559 3463 722 
L 3463 178 
Q 3153 47 2828 -22 
Q 2503 -91 2169 -91 
Q 1331 -91 842 396 
Q 353 884 353 1716 
Q 353 2575 817 3079 
Q 1281 3584 2069 3584 
Q 2775 3584 3186 3129 
Q 3597 2675 3597 1894 
z
M 3022 2063 
Q 3016 2534 2758 2815 
Q 2500 3097 2075 3097 
Q 1594 3097 1305 2825 
Q 1016 2553 972 2059 
L 3022 2063 
z
" transform="scale(0.015625)"/>
       <path id="DejaVuSans-20" transform="scale(0.015625)"/>
       <path id="DejaVuSans-5b" d="M 550 4863 
L 1875 4863 
L 1875 4416 
L 1125 4416 
L 1125 -397 
L 1875 -397 
L 1875 -844 
L 550 -844 
L 550 4863 
z
" transform="scale(0.015625)"/>
       <path id="DejaVuSans-73" d="M 2834 3397 
L 2834 2853 
Q 2591 2978 2328 3040 
Q 2066 3103 1784 3103 
Q 1356 3103 1142 2972 
Q 928 2841 928 2578 
Q 928 2378 1081 2264 
Q 1234 2150 1697 2047 
L 1894 2003 
Q 2506 1872 2764 1633 
Q 3022 1394 3022 966 
Q 3022 478 2636 193 
Q 2250 -91 1575 -91 
Q 1294 -91 989 -36 
Q 684 19 347 128 
L 347 722 
Q 666 556 975 473 
Q 1284 391 1588 391 
Q 1994 391 2212 530 
Q 2431 669 2431 922 
Q 2431 1156 2273 1281 
Q 2116 1406 1581 1522 
L 1381 1569 
Q 847 1681 609 1914 
Q 372 2147 372 2553 
Q 372 3047 722 3315 
Q 1072 3584 1716 3584 
Q 2034 3584 2315 3537 
Q 2597 3491 2834 3397 
z
" transform="scale(0.015625)"/>
       <path id="DejaVuSans-5d" d="M 1947 4863 
L 1947 -844 
L 622 -844 
L 622 -397 
L 1369 -397 
L 1369 4416 
L 622 4416 
L 622 4863 
L 1947 4863 
z
" transform="scale(0.015625)"/>
      </defs>
      <use xlink:href="#DejaVuSans-54"/>
      <use xlink:href="#DejaVuSans-69" x="57.958984"/>
      <use xlink:href="#DejaVuSans-6d" x="85.742188"/>
      <use xlink:href="#DejaVuSans-65" x="183.154297"/>
      <use xlink:href="#DejaVuSans-20" x="244.677734"/>
      <use xlink:href="#DejaVuSans-5b" x="276.464844"/>
      <use xlink:href="#DejaVuSans-73" x="315.478516"/>
      <use xlink:href="#DejaVuSans-5d" x="367.578125"/>
     </g>
    </g>
   </g>
   <g id="matplotlib.axis_2">
    <g id="ytick_1">
     <g id="line2d_8">
      <defs>
       <path id="m9f45c4f81c" d="M 0 0 
L -3.5 0 
" style="stroke: #000000; stroke-width: 0.8"/>
      </defs>
      <g>
       <use xlink:href="#m9f45c4f81c" x="43.78125" y="195.923357" style="stroke: #000000; stroke-width: 0.8"/>
      </g>
     </g>
     <g id="text_9">
      <!-- 0.0 -->
      <g transform="translate(20.878125 199.722576)scale(0.1 -0.1)">
       <defs>
        <path id="DejaVuSans-2e" d="M 684 794 
L 1344 794 
L 1344 0 
L 684 0 
L 684 794 
z
" transform="scale(0.015625)"/>
       </defs>
       <use xlink:href="#DejaVuSans-30"/>
       <use xlink:href="#DejaVuSans-2e" x="63.623047"/>
       <use xlink:href="#DejaVuSans-30" x="95.410156"/>
      </g>
     </g>
    </g>
    <g id="ytick_2">
     <g id="line2d_9">
      <g>
       <use xlink:href="#m9f45c4f81c" x="43.78125" y="166.801929" style="stroke: #000000; stroke-width: 0.8"/>
      </g>
     </g>
     <g id="text_10">
      <!-- 0.2 -->
      <g transform="translate(20.878125 170.601147)scale(0.1 -0.1)">
       <use xlink:href="#DejaVuSans-30"/>
       <use xlink:href="#DejaVuSans-2e" x="63.623047"/>
       <use xlink:href="#DejaVuSans-32" x="95.410156"/>
      </g>
     </g>
    </g>
    <g id="ytick_3">
     <g id="line2d_10">
      <g>
       <use xlink:href="#m9f45c4f81c" x="43.78125" y="137.6805" style="stroke: #000000; stroke-width: 0.8"/>
      </g>
     </g>
     <g id="text_11">
      <!-- 0.4 -->
      <g transform="translate(20.878125 141.479719)scale(0.1 -0.1)">
       <defs>
        <path id="DejaVuSans-34" d="M 2419 4116 
L 825 1625 
L 2419 1625 
L 2419 4116 
z
M 2253 4666 
L 3047 4666 
L 3047 1625 
L 3713 1625 
L 3713 1100 
L 3047 1100 
L 3047 0 
L 2419 0 
L 2419 1100 
L 313 1100 
L 313 1709 
L 2253 4666 
z
" transform="scale(0.015625)"/>
       </defs>
       <use xlink:href="#DejaVuSans-30"/>
       <use xlink:href="#DejaVuSans-2e" x="63.623047"/>
       <use xlink:href="#DejaVuSans-34" x="95.410156"/>
      </g>
     </g>
    </g>
    <g id="ytick_4">
     <g id="line2d_11">
      <g>
       <use xlink:href="#m9f45c4f81c" x="43.78125" y="108.559071" style="stroke: #000000; stroke-width: 0.8"/>
      </g>
     </g>
     <g id="text_12">
      <!-- 0.6 -->
      <g transform="translate(20.878125 112.35829)scale(0.1 -0.1)">
       <defs>
        <path id="DejaVuSans-36" d="M 2113 2584 
Q 1688 2584 1439 2293 
Q 1191 2003 1191 1497 
Q 1191 994 1439 701 
Q 1688 409 2113 409 
Q 2538 409 2786 701 
Q 3034 994 3034 1497 
Q 3034 2003 2786 2293 
Q 2538 2584 2113 2584 
z
M 3366 4563 
L 3366 3988 
Q 3128 4100 2886 4159 
Q 2644 4219 2406 4219 
Q 1781 4219 1451 3797 
Q 1122 3375 1075 2522 
Q 1259 2794 1537 2939 
Q 1816 3084 2150 3084 
Q 2853 3084 3261 2657 
Q 3669 2231 3669 1497 
Q 3669 778 3244 343 
Q 2819 -91 2113 -91 
Q 1303 -91 875 529 
Q 447 1150 447 2328 
Q 447 3434 972 4092 
Q 1497 4750 2381 4750 
Q 2619 4750 2861 4703 
Q 3103 4656 3366 4563 
z
" transform="scale(0.015625)"/>
       </defs>
       <use xlink:href="#DejaVuSans-30"/>
       <use xlink:href="#DejaVuSans-2e" x="63.623047"/>
       <use xlink:href="#DejaVuSans-36" x="95.410156"/>
      </g>
     </g>
    </g>
    <g id="ytick_5">
     <g id="line2d_12">
      <g>
       <use xlink:href="#m9f45c4f81c" x="43.78125" y="79.437643" style="stroke: #000000; stroke-width: 0.8"/>
      </g>
     </g>
     <g id="text_13">
      <!-- 0.8 -->
      <g transform="translate(20.878125 83.236862)scale(0.1 -0.1)">
       <defs>
        <path id="DejaVuSans-38" d="M 2034 2216 
Q 1584 2216 1326 1975 
Q 1069 1734 1069 1313 
Q 1069 891 1326 650 
Q 1584 409 2034 409 
Q 2484 409 2743 651 
Q 3003 894 3003 1313 
Q 3003 1734 2745 1975 
Q 2488 2216 2034 2216 
z
M 1403 2484 
Q 997 2584 770 2862 
Q 544 3141 544 3541 
Q 544 4100 942 4425 
Q 1341 4750 2034 4750 
Q 2731 4750 3128 4425 
Q 3525 4100 3525 3541 
Q 3525 3141 3298 2862 
Q 3072 2584 2669 2484 
Q 3125 2378 3379 2068 
Q 3634 1759 3634 1313 
Q 3634 634 3220 271 
Q 2806 -91 2034 -91 
Q 1263 -91 848 271 
Q 434 634 434 1313 
Q 434 1759 690 2068 
Q 947 2378 1403 2484 
z
M 1172 3481 
Q 1172 3119 1398 2916 
Q 1625 2713 2034 2713 
Q 2441 2713 2670 2916 
Q 2900 3119 2900 3481 
Q 2900 3844 2670 4047 
Q 2441 4250 2034 4250 
Q 1625 4250 1398 4047 
Q 1172 3844 1172 3481 
z
" transform="scale(0.015625)"/>
       </defs>
       <use xlink:href="#DejaVuSans-30"/>
       <use xlink:href="#DejaVuSans-2e" x="63.623047"/>
       <use xlink:href="#DejaVuSans-38" x="95.410156"/>
      </g>
     </g>
    </g>
    <g id="ytick_6">
     <g id="line2d_13">
      <g>
       <use xlink:href="#m9f45c4f81c" x="43.78125" y="50.316214" style="stroke: #000000; stroke-width: 0.8"/>
      </g>
     </g>
     <g id="text_14">
      <!-- 1.0 -->
      <g transform="translate(20.878125 54.115433)scale(0.1 -0.1)">
       <use xlink:href="#DejaVuSans-31"/>
       <use xlink:href="#DejaVuSans-2e" x="63.623047"/>
       <use xlink:href="#DejaVuSans-30" x="95.410156"/>
      </g>
     </g>
    </g>
    <g id="text_15">
     <!-- (F-F$^o$)/F$^o$ -->
     <g transform="translate(14.798438 137.9955)rotate(-90)scale(0.1 -0.1)">
      <defs>
       <path id="DejaVuSans-28" d="M 1984 4856 
Q 1566 4138 1362 3434 
Q 1159 2731 1159 2009 
Q 1159 1288 1364 580 
Q 1569 -128 1984 -844 
L 1484 -844 
Q 1016 -109 783 600 
Q 550 1309 550 2009 
Q 550 2706 781 3412 
Q 1013 4119 1484 4856 
L 1984 4856 
z
" transform="scale(0.015625)"/>
       <path id="DejaVuSans-46" d="M 628 4666 
L 3309 4666 
L 3309 4134 
L 1259 4134 
L 1259 2759 
L 3109 2759 
L 3109 2228 
L 1259 2228 
L 1259 0 
L 628 0 
L 628 4666 
z
" transform="scale(0.015625)"/>
       <path id="DejaVuSans-2d" d="M 313 2009 
L 1997 2009 
L 1997 1497 
L 313 1497 
L 313 2009 
z
" transform="scale(0.015625)"/>
       <path id="DejaVuSans-Oblique-6f" d="M 1625 -91 
Q 1009 -91 651 289 
Q 294 669 294 1325 
Q 294 1706 417 2101 
Q 541 2497 738 2766 
Q 1047 3184 1428 3384 
Q 1809 3584 2291 3584 
Q 2888 3584 3255 3212 
Q 3622 2841 3622 2241 
Q 3622 1825 3500 1412 
Q 3378 1000 3181 728 
Q 2875 309 2494 109 
Q 2113 -91 1625 -91 
z
M 891 1344 
Q 891 869 1089 633 
Q 1288 397 1691 397 
Q 2269 397 2648 901 
Q 3028 1406 3028 2181 
Q 3028 2634 2825 2865 
Q 2622 3097 2228 3097 
Q 1903 3097 1650 2945 
Q 1397 2794 1197 2484 
Q 1050 2253 970 1956 
Q 891 1659 891 1344 
z
" transform="scale(0.015625)"/>
       <path id="DejaVuSans-29" d="M 513 4856 
L 1013 4856 
Q 1481 4119 1714 3412 
Q 1947 2706 1947 2009 
Q 1947 1309 1714 600 
Q 1481 -109 1013 -844 
L 513 -844 
Q 928 -128 1133 580 
Q 1338 1288 1338 2009 
Q 1338 2731 1133 3434 
Q 928 4138 513 4856 
z
" transform="scale(0.015625)"/>
       <path id="DejaVuSans-2f" d="M 1625 4666 
L 2156 4666 
L 531 -594 
L 0 -594 
L 1625 4666 
z
" transform="scale(0.015625)"/>
      </defs>
      <use xlink:href="#DejaVuSans-28" transform="translate(0 0.51875)"/>
      <use xlink:href="#DejaVuSans-46" transform="translate(39.013672 0.51875)"/>
      <use xlink:href="#DejaVuSans-2d" transform="translate(96.533203 0.51875)"/>
      <use xlink:href="#DejaVuSans-46" transform="translate(132.617188 0.51875)"/>
      <use xlink:href="#DejaVuSans-Oblique-6f" transform="translate(191.09375 38.8)scale(0.7)"/>
      <use xlink:href="#DejaVuSans-29" transform="translate(236.655273 0.51875)"/>
      <use xlink:href="#DejaVuSans-2f" transform="translate(275.668945 0.51875)"/>
      <use xlink:href="#DejaVuSans-46" transform="translate(309.360352 0.51875)"/>
      <use xlink:href="#DejaVuSans-Oblique-6f" transform="translate(367.836914 38.8)scale(0.7)"/>
     </g>
    </g>
   </g>
   <g id="line2d_14">
    <path d="M 56.463068 179.894171 
L 57.120876 180.1377 
L 57.254466 180.082937 
L 57.524184 179.812139 
L 57.793902 179.696417 
L 58.065311 179.947198 
L 58.200593 179.853608 
L 58.874465 180.058614 
L 59.41221 180.010346 
L 59.681928 180.171918 
L 60.357491 180.004605 
L 60.491928 180.054686 
L 60.896927 179.951126 
L 61.031364 179.975222 
L 61.301082 179.842353 
L 61.569954 179.867809 
L 61.705236 179.739549 
L 62.378263 180.330545 
L 62.782417 180.300557 
L 63.054671 180.657617 
L 63.189107 180.72492 
L 63.324389 180.657088 
L 63.593262 180.74675 
L 63.727698 180.647042 
L 64.397343 180.934684 
L 64.532624 181.01936 
L 64.936779 180.741311 
L 66.283677 180.742595 
L 66.418114 180.657239 
L 66.55255 180.742973 
L 66.822268 180.559571 
L 66.956704 180.61373 
L 67.09114 180.425569 
L 67.361704 180.536306 
L 67.765858 180.326768 
L 68.034731 180.173505 
L 68.302757 179.993048 
L 68.438039 179.967744 
L 68.707757 180.050909 
L 68.977475 180.015407 
L 69.247193 179.993804 
L 69.785784 180.156962 
L 70.189092 179.932317 
L 70.86381 180.121234 
L 71.267964 180.314304 
L 72.481272 180.152279 
L 72.75099 180.248966 
L 73.425708 179.876949 
L 74.369298 180.058161 
L 74.50458 180.203342 
L 74.773453 179.983153 
L 75.312888 180.058236 
L 75.44817 180.047359 
L 75.582606 179.901649 
L 75.852324 179.914868 
L 76.256479 179.770141 
L 76.526197 180.018126 
L 77.469787 179.80874 
L 78.143659 180.14465 
L 78.547813 180.401171 
L 78.81584 180.384176 
L 79.488867 180.52354 
L 79.623303 180.781497 
L 79.758585 180.682015 
L 80.028303 180.745995 
L 80.298021 180.701277 
L 80.566893 180.864435 
L 80.70133 180.724089 
L 80.970202 180.930228 
L 81.240765 180.94677 
L 81.511329 180.962633 
L 81.780201 180.801287 
L 82.457456 180.744182 
L 82.996046 180.784367 
L 83.264073 180.88551 
L 83.534637 180.952662 
L 83.803509 180.820398 
L 84.073227 181.032277 
L 84.479072 180.982197 
L 85.287381 181.228823 
L 85.421817 181.17134 
L 85.691535 181.399082 
L 85.961253 181.357914 
L 86.364562 181.167563 
L 87.177943 181.223611 
L 87.582097 181.447047 
L 88.121533 181.498563 
L 88.659278 181.314934 
L 89.063432 181.608015 
L 89.33315 181.60794 
L 89.602023 181.659531 
L 89.871741 181.604616 
L 90.277586 181.727287 
L 91.356458 181.4157 
L 91.626176 181.267346 
L 91.895048 181.270821 
L 92.164766 181.313574 
L 92.299203 181.237887 
L 92.434484 181.305114 
L 92.704202 181.208126 
L 93.377229 181.412905 
L 94.860255 181.237434 
L 95.129128 181.337217 
L 95.264409 181.318635 
L 95.398846 181.442817 
L 95.668564 181.211072 
L 95.937436 181.304132 
L 96.476027 181.183274 
L 97.553208 181.625086 
L 97.687644 181.571758 
L 97.954825 181.778349 
L 98.090107 181.725323 
L 98.223698 181.85094 
L 98.628697 181.750628 
L 98.763134 181.792173 
L 98.89757 182.095224 
L 99.571442 182.136996 
L 99.704187 181.975122 
L 99.973905 182.076114 
L 100.378059 182.177937 
L 101.051086 181.838552 
L 101.185522 181.96991 
L 101.320804 181.86227 
L 101.590522 182.185339 
L 101.859395 181.961072 
L 101.993831 182.133823 
L 102.801294 181.919678 
L 102.933193 182.069466 
L 103.06763 181.981467 
L 103.202911 182.105951 
L 103.60622 182.027921 
L 103.875093 182.195914 
L 104.009529 182.090617 
L 104.685092 182.211475 
L 105.628682 182.040989 
L 105.763118 182.186548 
L 106.031991 182.119623 
L 106.167273 182.30733 
L 106.298327 182.258458 
L 106.568045 182.50584 
L 106.834381 182.550708 
L 107.103253 182.79877 
L 107.238535 182.80096 
L 107.512481 182.597919 
L 107.781353 182.858141 
L 108.052762 182.780037 
L 108.32248 182.677534 
L 108.860225 182.662729 
L 109.264379 182.133068 
L 109.669379 182.191458 
L 109.938251 182.318359 
L 110.207969 182.246524 
L 110.342406 182.100814 
L 110.612124 182.314657 
L 110.881842 182.156711 
L 111.017123 182.121662 
L 111.289378 182.421164 
L 111.423814 182.515735 
L 111.559096 182.396992 
L 112.372477 182.643543 
L 112.642195 182.671491 
L 113.043813 182.786306 
L 113.178249 182.579337 
L 113.71684 182.880273 
L 113.986558 182.755714 
L 115.063739 182.609325 
L 115.199866 182.62564 
L 115.334302 182.832081 
L 115.605711 182.770595 
L 115.875429 182.860936 
L 116.010711 182.727161 
L 116.279583 182.832912 
L 116.414865 182.778073 
L 116.819019 182.998563 
L 117.223173 182.846811 
L 117.358455 182.621108 
L 117.492891 182.694454 
L 117.897046 182.402506 
L 118.032327 182.590214 
L 118.166764 182.430908 
L 118.3012 182.517775 
L 118.436482 182.396086 
L 118.975072 182.548744 
L 119.51789 182.272659 
L 119.652326 182.555467 
L 120.053944 182.260876 
L 120.323662 182.485596 
L 120.592534 182.774296 
L 120.727816 182.502969 
L 121.131125 182.69536 
L 121.265561 182.64815 
L 121.400843 182.79318 
L 121.936051 182.382565 
L 122.071333 182.538774 
L 122.205769 182.469582 
L 122.475487 182.653664 
L 122.879641 182.576013 
L 123.145132 182.658423 
L 124.087877 182.660991 
L 124.761749 182.796655 
L 124.896185 182.756545 
L 125.030621 183.023339 
L 125.299494 182.962155 
L 125.43393 182.938436 
L 125.707875 183.244585 
L 125.842312 183.196468 
L 125.977593 183.347768 
L 126.112875 183.17139 
L 126.381748 183.192465 
L 126.651466 183.250855 
L 126.785902 182.972881 
L 127.458929 182.894399 
L 127.593365 183.082333 
L 128.132801 182.913056 
L 128.267237 183.034367 
L 128.401673 182.948785 
L 128.670546 183.003095 
L 128.804982 183.068434 
L 129.0747 182.99101 
L 129.344418 183.064809 
L 129.747727 183.147219 
L 129.882163 183.011102 
L 130.155263 183.00438 
L 130.289699 182.980359 
L 130.558572 183.167236 
L 130.963571 183.291946 
L 131.098007 183.331603 
L 131.232444 183.202738 
L 131.367725 183.241035 
L 131.503007 183.097591 
L 131.769343 183.259239 
L 132.044134 183.055518 
L 132.448288 183.240204 
L 132.717161 183.155981 
L 133.122161 183.250779 
L 133.391879 182.916304 
L 133.796033 183.475424 
L 134.065751 183.356152 
L 134.200187 183.312492 
L 134.469905 183.490909 
L 135.009341 183.508811 
L 135.143777 183.695764 
L 135.684059 183.500049 
L 135.818495 183.426023 
L 135.952931 183.702713 
L 136.088213 183.690552 
L 136.222649 183.53049 
L 136.357085 183.633748 
L 136.76124 183.366803 
L 137.030112 183.33606 
L 137.164548 182.939418 
L 137.568702 183.287565 
L 137.703984 183.201076 
L 137.842648 183.268228 
L 137.977084 183.526184 
L 138.112366 183.436372 
L 138.515675 183.565766 
L 138.650956 183.490758 
L 138.919829 183.720162 
L 139.189547 183.591977 
L 139.458419 183.969205 
L 139.592856 183.893895 
L 139.862574 184.037868 
L 139.997855 183.956213 
L 140.266728 184.110533 
L 140.941446 184.07269 
L 141.076727 184.165297 
L 141.346445 184.083794 
L 141.616163 184.117332 
L 141.885036 184.137424 
L 142.019472 183.987409 
L 142.423626 182.981719 
L 142.558062 182.91925 
L 143.097498 183.701127 
L 143.23278 183.815338 
L 143.367216 183.758157 
L 144.177216 184.13546 
L 144.58137 184.184257 
L 144.850242 184.193321 
L 144.985524 184.398856 
L 145.255242 184.289177 
L 145.52496 184.256243 
L 145.659396 184.400215 
L 145.929114 183.999797 
L 146.334114 184.426351 
L 146.469396 184.346056 
L 146.603832 184.493427 
L 147.547422 184.351948 
L 147.681859 184.201781 
L 148.086858 184.545245 
L 149.437985 184.637626 
L 149.708548 184.809093 
L 149.842984 184.913409 
L 150.111857 184.951404 
L 150.380729 185.142058 
L 150.650447 184.909632 
L 150.785729 185.087143 
L 151.054602 184.872922 
L 151.325165 184.910765 
L 151.459601 185.03472 
L 151.729319 184.968248 
L 152.26791 184.933124 
L 152.537628 185.243956 
L 152.672064 185.078531 
L 153.346782 185.299249 
L 153.750936 185.336639 
L 154.155936 185.462785 
L 154.290372 185.31073 
L 154.424808 185.41633 
L 155.234808 185.107764 
L 155.90868 185.372897 
L 156.043961 185.212986 
L 156.312834 185.302195 
L 156.582552 185.194404 
L 156.851424 184.950497 
L 157.121142 185.118339 
L 157.39086 185.287238 
L 157.525297 185.215781 
L 157.659733 185.270167 
L 157.931142 185.032001 
L 158.335296 185.226356 
L 158.469732 185.250603 
L 158.604168 185.081251 
L 159.009168 185.247506 
L 159.14445 184.914467 
L 159.414168 185.232172 
L 159.548604 184.982827 
L 160.087195 185.107991 
L 160.221631 184.92406 
L 160.491349 185.093034 
L 160.626631 185.28044 
L 161.030785 185.212004 
L 161.569375 185.465202 
L 161.704657 185.373879 
L 161.974375 185.625717 
L 162.517193 185.748237 
L 162.786065 185.590063 
L 162.918811 185.771653 
L 163.188529 185.557583 
L 163.862401 185.895683 
L 164.267401 185.402431 
L 164.403528 185.664467 
L 164.537964 185.55441 
L 164.6724 185.741212 
L 164.807682 185.544591 
L 165.210991 185.745517 
L 165.346273 185.872947 
L 165.481554 185.621487 
L 165.61599 185.756621 
L 165.751272 185.723461 
L 166.02099 185.976507 
L 166.155426 185.892209 
L 166.290708 185.985647 
L 166.425144 185.848624 
L 166.694862 186.072287 
L 166.96458 185.889943 
L 167.233453 185.935793 
L 167.503171 185.866073 
L 167.638453 185.958379 
L 167.773734 185.882389 
L 168.043452 185.599354 
L 168.31317 185.828381 
L 168.449298 185.719231 
L 168.846688 185.830873 
L 168.981124 185.826266 
L 169.251687 186.115947 
L 169.52056 186.255387 
L 169.789432 186.222151 
L 170.194432 186.134756 
L 170.463305 186.299878 
L 170.598586 186.192919 
L 170.733023 186.268304 
L 171.002741 186.034821 
L 171.138022 186.154018 
L 171.40774 186.017901 
L 171.542176 185.725651 
L 172.621894 186.314306 
L 172.892457 186.342028 
L 173.027739 186.453897 
L 173.163021 186.402003 
L 173.432739 186.582535 
L 173.568021 186.465152 
L 173.701611 186.533512 
L 174.105766 186.231745 
L 174.241047 186.278879 
L 174.376329 186.205307 
L 174.646047 186.371638 
L 174.915765 186.293156 
L 175.050201 186.377605 
L 175.185483 186.166632 
L 175.588792 186.443624 
L 176.263509 186.606405 
L 176.397946 186.526034 
L 176.533227 186.178718 
L 176.802945 186.460922 
L 176.938227 186.512815 
L 177.207945 186.341877 
L 177.612099 186.818133 
L 177.746536 186.812015 
L 178.016254 187.142713 
L 178.15069 186.905906 
L 178.421253 187.049123 
L 178.959844 187.849959 
L 179.09428 187.883875 
L 179.498434 188.17824 
L 179.633716 188.197804 
L 179.903434 187.940829 
L 180.173152 188.175823 
L 180.44287 187.76279 
L 180.715124 187.973763 
L 180.984842 188.200599 
L 181.25456 187.924589 
L 181.524278 187.990079 
L 181.793996 188.16691 
L 181.929278 188.064936 
L 182.202378 188.15354 
L 182.472096 187.804864 
L 182.741814 187.954048 
L 182.87625 187.877757 
L 183.146814 187.631659 
L 183.416532 187.909633 
L 183.551813 187.54721 
L 183.820686 187.594722 
L 184.090404 187.861365 
L 184.360967 187.716638 
L 184.62984 187.812418 
L 184.765122 187.741338 
L 185.170967 187.893921 
L 185.306249 187.881911 
L 185.44153 188.005489 
L 185.711248 187.107966 
L 186.25153 187.505211 
L 186.385966 187.195739 
L 186.790966 187.622444 
L 187.332938 187.834097 
L 188.00681 187.717544 
L 188.682374 187.69662 
L 188.952092 187.845578 
L 189.22181 187.844596 
L 189.490682 187.21908 
L 189.895682 187.527948 
L 190.1654 187.697149 
L 190.300682 187.772837 
L 190.435118 187.701984 
L 190.569554 187.461325 
L 190.704836 187.512387 
L 190.973708 187.763168 
L 191.377863 187.705685 
L 191.513144 187.644803 
L 191.916453 187.948761 
L 192.050889 187.847391 
L 192.320607 187.348549 
L 192.455043 187.282984 
L 192.724761 187.72472 
L 193.263352 188.071205 
L 193.400325 187.819518 
L 194.615324 188.42396 
L 194.885042 187.671467 
L 195.019478 187.511103 
L 195.963914 188.20785 
L 196.099195 187.971648 
L 196.368913 188.161773 
L 196.50335 188.154446 
L 196.638631 187.911295 
L 197.042786 188.079816 
L 197.178067 187.748363 
L 197.447785 187.790814 
L 197.988067 188.268959 
L 198.524966 187.645331 
L 198.659402 187.829489 
L 198.92912 187.764074 
L 199.064402 187.305871 
L 199.33412 187.588075 
L 199.872711 187.882969 
L 200.007992 188.038422 
L 200.412147 187.462382 
L 200.681019 187.958732 
L 200.949892 188.185189 
L 201.354891 188.306501 
L 201.490173 188.198786 
L 202.028763 188.466411 
L 202.1632 188.460293 
L 202.298481 188.009719 
L 202.972354 188.229982 
L 203.781508 188.694531 
L 203.915944 188.771427 
L 204.186507 188.300684 
L 204.591507 188.521024 
L 204.725943 188.137073 
L 205.804815 188.910565 
L 206.074533 188.563778 
L 206.479533 188.941081 
L 206.616506 188.692794 
L 207.155096 189.02115 
L 207.289532 188.883976 
L 207.424814 188.405831 
L 207.55925 188.391781 
L 208.099532 188.776412 
L 208.233968 188.735169 
L 208.503686 188.909356 
L 208.77425 188.817806 
L 209.179249 189.043811 
L 209.313685 188.639465 
L 209.583403 188.828306 
L 209.718685 188.74227 
L 210.122839 188.952714 
L 210.258121 188.50433 
L 210.798403 188.904748 
L 211.068121 189.27329 
L 211.337839 189.046681 
L 211.608402 189.065339 
L 212.012556 188.645206 
L 212.28312 188.937229 
L 212.551992 188.59724 
L 213.027169 189.144048 
L 213.296887 188.909432 
L 213.432169 188.920838 
L 213.566605 189.164216 
L 213.701887 189.04585 
L 213.836323 188.585079 
L 214.241323 188.993277 
L 214.376605 188.950372 
L 214.511041 189.071986 
L 214.646323 188.766744 
L 214.780759 188.782908 
L 215.051323 189.000302 
L 215.185759 189.066774 
L 215.455477 188.780265 
L 215.590759 188.880124 
L 215.725195 189.129771 
L 215.994067 189.072817 
L 216.129349 189.318461 
L 216.265476 189.295876 
L 216.399912 188.890321 
L 216.939348 188.998036 
L 217.073785 188.800659 
L 217.478784 189.15923 
L 217.748502 188.745367 
L 217.882939 188.829514 
L 218.017375 188.773617 
L 218.152657 188.571482 
L 218.287093 188.734867 
L 218.421529 188.591348 
L 218.555965 188.246676 
L 218.825683 188.42124 
L 219.229837 189.021225 
L 219.49871 189.248892 
L 219.633992 188.834424 
L 220.175964 189.298217 
L 220.311246 189.339989 
L 220.580964 188.93179 
L 220.850682 189.189974 
L 220.985118 189.236428 
L 221.1204 189.438488 
L 221.524554 189.129394 
L 221.659836 189.213314 
L 222.06399 189.847517 
L 222.199272 189.495367 
L 222.468144 189.683226 
L 222.737017 189.856128 
L 223.006735 189.429122 
L 223.546171 189.869876 
L 223.815043 189.203344 
L 224.626734 190.099053 
L 225.167015 190.24431 
L 225.435888 189.683528 
L 225.70476 189.941485 
L 226.243351 190.119901 
L 226.377787 189.913158 
L 226.916377 190.366603 
L 227.455813 190.805016 
L 227.724686 190.021855 
L 227.859122 190.079867 
L 228.397712 190.465404 
L 228.801867 189.914896 
L 229.475739 190.377103 
L 229.745457 189.801516 
L 230.284047 190.42537 
L 230.418483 190.49645 
L 230.689892 189.879922 
L 231.36461 190.519337 
L 231.499046 190.512539 
L 231.768764 190.160691 
L 232.172073 190.426277 
L 232.440945 190.640649 
L 232.576227 190.772988 
L 232.8451 190.29794 
L 233.249254 190.551138 
L 233.38369 190.124207 
L 233.518126 190.127077 
L 234.058408 190.516165 
L 234.32728 190.338201 
L 234.597844 190.537768 
L 234.73228 190.591248 
L 235.001998 190.324152 
L 235.946434 191.205585 
L 236.081715 190.858042 
L 236.216152 190.826544 
L 236.621997 191.033287 
L 236.757279 190.80343 
L 237.295869 191.291092 
L 237.564742 190.73877 
L 238.239459 191.351521 
L 238.512559 191.551466 
L 238.782277 191.144778 
L 239.321713 191.471775 
L 239.72164 190.888332 
L 239.859458 190.95065 
L 240.398894 191.630024 
L 240.667767 191.431136 
L 240.803048 191.226131 
L 241.207203 191.387325 
L 241.476921 191.685316 
L 241.612202 191.695967 
L 241.88192 191.279308 
L 242.151638 191.5316 
L 242.421356 191.87461 
L 242.555793 191.889491 
L 242.825511 192.182798 
L 243.094383 192.110435 
L 243.364101 191.538247 
L 243.499383 191.679878 
L 243.633819 191.619977 
L 244.037973 191.906713 
L 244.307691 191.385437 
L 244.715227 191.596032 
L 244.9841 191.559926 
L 245.253818 191.101269 
L 245.523536 191.199089 
L 245.92769 191.402961 
L 246.061281 191.113808 
L 246.330999 191.165928 
L 246.599871 191.361341 
L 247.139307 191.495569 
L 247.273743 191.426982 
L 247.409025 191.491565 
L 247.678743 190.91122 
L 248.352615 191.116905 
L 248.487052 191.028226 
L 249.161769 191.298117 
L 249.296206 190.945891 
L 250.104514 191.15626 
L 250.239796 190.779333 
L 250.374232 190.81899 
L 250.64395 191.008511 
L 251.048104 191.278553 
L 251.18254 191.287164 
L 251.317822 190.966815 
L 251.451413 190.951103 
L 251.721976 191.258838 
L 251.856413 191.163587 
L 251.990849 190.814609 
L 252.529439 191.066069 
L 252.799157 191.359226 
L 253.068875 190.971196 
L 253.473875 191.083141 
L 253.608311 191.252115 
L 253.877184 191.28233 
L 254.146902 191.40772 
L 254.281338 191.008511 
L 254.551056 191.006018 
L 254.819928 191.260047 
L 254.954365 191.349331 
L 255.088801 191.302649 
L 255.224083 190.9295 
L 255.358519 190.950046 
L 255.63331 191.145231 
L 255.767746 191.236706 
L 256.037464 190.820501 
L 256.306337 191.013723 
L 256.576055 191.269715 
L 256.710491 191.206793 
L 256.844927 191.2676 
L 257.117181 190.763169 
L 257.521336 191.013269 
L 257.791899 191.101345 
L 258.061617 190.707347 
L 258.736335 191.150443 
L 259.140489 191.156335 
L 259.274925 190.918094 
L 259.544643 191.017197 
L 259.815207 191.3485 
L 259.949643 191.367308 
L 260.084079 191.573825 
L 260.62267 190.760525 
L 261.567105 191.542024 
L 261.832596 191.001863 
L 262.102314 191.149839 
L 262.64175 191.539455 
L 262.910622 191.118718 
L 263.313931 191.392311 
L 263.448367 191.617787 
L 263.852521 191.245166 
L 264.123085 191.450776 
L 264.391957 191.730789 
L 264.662521 191.800509 
L 264.796957 191.945312 
L 265.066675 191.756622 
L 265.201111 191.34223 
L 266.414419 192.260223 
L 266.684137 191.754507 
L 266.954701 191.997357 
L 267.894064 192.567429 
L 268.032727 192.469383 
L 268.167164 192.137174 
L 268.971244 192.599381 
L 269.240962 192.570828 
L 269.375399 192.330623 
L 269.645962 192.474897 
L 269.780398 192.726584 
L 269.914835 192.72175 
L 270.184553 193.014076 
L 270.318989 192.982652 
L 270.454271 192.611467 
L 270.723143 192.776589 
L 271.397015 193.280794 
L 271.667579 193.479153 
L 272.070887 192.950776 
L 272.475887 193.277697 
L 273.148914 193.64994 
L 273.28335 193.277018 
L 273.553068 193.190226 
L 274.364759 193.75554 
L 274.768913 193.344623 
L 275.038631 193.781902 
L 275.447013 193.768381 
L 275.716731 193.396592 
L 276.12173 193.762112 
L 276.525039 193.969232 
L 276.794757 194.016896 
L 276.930039 194.095907 
L 277.198066 193.610661 
L 277.333347 193.631132 
L 277.736656 193.960999 
L 278.14081 194.035327 
L 278.409683 194.088278 
L 278.544965 193.64994 
L 278.814683 193.559599 
L 279.354118 193.964171 
L 279.623836 194.119248 
L 280.027991 193.537618 
L 280.432145 193.926101 
L 280.567427 193.936223 
L 280.836299 194.171217 
L 281.106017 194.263069 
L 281.375735 194.39216 
L 281.644608 194.260652 
L 281.779044 193.953068 
L 282.453762 194.208305 
L 282.722634 194.42094 
L 282.992352 194.475326 
L 283.26207 193.845655 
L 283.531788 193.941737 
L 283.936788 194.377431 
L 284.611505 194.54701 
L 284.880378 194.012213 
L 285.014814 194.009493 
L 285.555096 194.406588 
L 285.824814 194.453873 
L 286.23235 194.733433 
L 286.366786 194.737361 
L 286.635658 194.204377 
L 286.905376 194.249019 
L 287.039813 194.358547 
L 287.175094 194.30061 
L 287.448194 193.888711 
L 287.583476 193.838328 
L 287.98763 194.093188 
L 288.390939 194.188212 
L 289.198402 194.641581 
L 289.603402 194.570048 
L 289.87312 193.927612 
L 290.007556 193.856683 
L 290.41171 194.082537 
L 291.220864 194.67731 
L 291.490582 194.079667 
L 292.300582 194.445564 
L 292.569454 193.97588 
L 292.839172 194.032607 
L 293.10889 194.277949 
L 293.782762 194.689018 
L 294.187762 194.218276 
L 294.317971 194.224092 
L 295.127125 194.870003 
L 295.665715 194.34072 
L 296.474869 195.014429 
L 296.877332 195.279183 
L 297.147896 195.119802 
L 297.283177 194.797488 
L 298.634304 195.420965 
L 298.904022 195.505188 
L 299.17374 195.700601 
L 299.445994 195.173357 
L 299.714867 195.026892 
L 300.524021 195.520371 
L 300.793739 195.588807 
L 300.928175 195.565768 
L 301.197893 195.155002 
L 301.333175 195.139592 
L 302.006201 195.533363 
L 302.275074 195.632844 
L 302.410356 195.528906 
L 302.680919 195.227743 
L 303.084228 195.426253 
L 303.624509 195.696144 
L 303.893382 195.383197 
L 304.567254 195.669404 
L 305.107535 195.721222 
L 305.241972 195.394376 
L 305.376408 195.413714 
L 305.647817 195.576268 
L 305.91838 195.700978 
L 306.052817 195.70823 
L 306.32338 195.921544 
L 306.591407 195.362424 
L 306.861125 195.417793 
L 307.269507 195.683303 
L 307.539225 195.68436 
L 307.808943 195.923357 
L 308.211406 195.367485 
L 308.61556 195.529511 
L 309.424714 195.739426 
L 309.559996 195.436677 
L 309.829714 195.512742 
L 310.099432 195.735574 
L 310.099432 195.735574 
" clip-path="url(#p1baac6a2aa)" style="fill: none; stroke: #1f77b4; stroke-width: 1.5; stroke-linecap: square"/>
   </g>
   <g id="patch_3">
    <path d="M 43.78125 198.8355 
L 43.78125 35.7555 
" style="fill: none; stroke: #000000; stroke-width: 0.8; stroke-linejoin: miter; stroke-linecap: square"/>
   </g>
   <g id="patch_4">
    <path d="M 322.78125 198.8355 
L 322.78125 35.7555 
" style="fill: none; stroke: #000000; stroke-width: 0.8; stroke-linejoin: miter; stroke-linecap: square"/>
   </g>
   <g id="patch_5">
    <path d="M 43.78125 198.8355 
L 322.78125 198.8355 
" style="fill: none; stroke: #000000; stroke-width: 0.8; stroke-linejoin: miter; stroke-linecap: square"/>
   </g>
   <g id="patch_6">
    <path d="M 43.78125 35.7555 
L 322.78125 35.7555 
" style="fill: none; stroke: #000000; stroke-width: 0.8; stroke-linejoin: miter; stroke-linecap: square"/>
   </g>
   <g id="text_16">
    <!-- After equalize -->
    <g transform="translate(141.814687 16.318125)scale(0.12 -0.12)">
     <defs>
      <path id="DejaVuSans-41" d="M 2188 4044 
L 1331 1722 
L 3047 1722 
L 2188 4044 
z
M 1831 4666 
L 2547 4666 
L 4325 0 
L 3669 0 
L 3244 1197 
L 1141 1197 
L 716 0 
L 50 0 
L 1831 4666 
z
" transform="scale(0.015625)"/>
      <path id="DejaVuSans-66" d="M 2375 4863 
L 2375 4384 
L 1825 4384 
Q 1516 4384 1395 4259 
Q 1275 4134 1275 3809 
L 1275 3500 
L 2222 3500 
L 2222 3053 
L 1275 3053 
L 1275 0 
L 697 0 
L 697 3053 
L 147 3053 
L 147 3500 
L 697 3500 
L 697 3744 
Q 697 4328 969 4595 
Q 1241 4863 1831 4863 
L 2375 4863 
z
" transform="scale(0.015625)"/>
      <path id="DejaVuSans-74" d="M 1172 4494 
L 1172 3500 
L 2356 3500 
L 2356 3053 
L 1172 3053 
L 1172 1153 
Q 1172 725 1289 603 
Q 1406 481 1766 481 
L 2356 481 
L 2356 0 
L 1766 0 
Q 1100 0 847 248 
Q 594 497 594 1153 
L 594 3053 
L 172 3053 
L 172 3500 
L 594 3500 
L 594 4494 
L 1172 4494 
z
" transform="scale(0.015625)"/>
      <path id="DejaVuSans-72" d="M 2631 2963 
Q 2534 3019 2420 3045 
Q 2306 3072 2169 3072 
Q 1681 3072 1420 2755 
Q 1159 2438 1159 1844 
L 1159 0 
L 581 0 
L 581 3500 
L 1159 3500 
L 1159 2956 
Q 1341 3275 1631 3429 
Q 1922 3584 2338 3584 
Q 2397 3584 2469 3576 
Q 2541 3569 2628 3553 
L 2631 2963 
z
" transform="scale(0.015625)"/>
      <path id="DejaVuSans-71" d="M 947 1747 
Q 947 1113 1208 752 
Q 1469 391 1925 391 
Q 2381 391 2643 752 
Q 2906 1113 2906 1747 
Q 2906 2381 2643 2742 
Q 2381 3103 1925 3103 
Q 1469 3103 1208 2742 
Q 947 2381 947 1747 
z
M 2906 525 
Q 2725 213 2448 61 
Q 2172 -91 1784 -91 
Q 1150 -91 751 415 
Q 353 922 353 1747 
Q 353 2572 751 3078 
Q 1150 3584 1784 3584 
Q 2172 3584 2448 3432 
Q 2725 3281 2906 2969 
L 2906 3500 
L 3481 3500 
L 3481 -1331 
L 2906 -1331 
L 2906 525 
z
" transform="scale(0.015625)"/>
      <path id="DejaVuSans-75" d="M 544 1381 
L 544 3500 
L 1119 3500 
L 1119 1403 
Q 1119 906 1312 657 
Q 1506 409 1894 409 
Q 2359 409 2629 706 
Q 2900 1003 2900 1516 
L 2900 3500 
L 3475 3500 
L 3475 0 
L 2900 0 
L 2900 538 
Q 2691 219 2414 64 
Q 2138 -91 1772 -91 
Q 1169 -91 856 284 
Q 544 659 544 1381 
z
M 1991 3584 
L 1991 3584 
z
" transform="scale(0.015625)"/>
      <path id="DejaVuSans-61" d="M 2194 1759 
Q 1497 1759 1228 1600 
Q 959 1441 959 1056 
Q 959 750 1161 570 
Q 1363 391 1709 391 
Q 2188 391 2477 730 
Q 2766 1069 2766 1631 
L 2766 1759 
L 2194 1759 
z
M 3341 1997 
L 3341 0 
L 2766 0 
L 2766 531 
Q 2569 213 2275 61 
Q 1981 -91 1556 -91 
Q 1019 -91 701 211 
Q 384 513 384 1019 
Q 384 1609 779 1909 
Q 1175 2209 1959 2209 
L 2766 2209 
L 2766 2266 
Q 2766 2663 2505 2880 
Q 2244 3097 1772 3097 
Q 1472 3097 1187 3025 
Q 903 2953 641 2809 
L 641 3341 
Q 956 3463 1253 3523 
Q 1550 3584 1831 3584 
Q 2591 3584 2966 3190 
Q 3341 2797 3341 1997 
z
" transform="scale(0.015625)"/>
      <path id="DejaVuSans-6c" d="M 603 4863 
L 1178 4863 
L 1178 0 
L 603 0 
L 603 4863 
z
" transform="scale(0.015625)"/>
      <path id="DejaVuSans-7a" d="M 353 3500 
L 3084 3500 
L 3084 2975 
L 922 459 
L 3084 459 
L 3084 0 
L 275 0 
L 275 525 
L 2438 3041 
L 353 3041 
L 353 3500 
z
" transform="scale(0.015625)"/>
     </defs>
     <use xlink:href="#DejaVuSans-41"/>
     <use xlink:href="#DejaVuSans-66" x="64.783203"/>
     <use xlink:href="#DejaVuSans-74" x="98.238281"/>
     <use xlink:href="#DejaVuSans-65" x="137.447266"/>
     <use xlink:href="#DejaVuSans-72" x="198.970703"/>
     <use xlink:href="#DejaVuSans-20" x="240.083984"/>
     <use xlink:href="#DejaVuSans-65" x="271.871094"/>
     <use xlink:href="#DejaVuSans-71" x="333.394531"/>
     <use xlink:href="#DejaVuSans-75" x="396.871094"/>
     <use xlink:href="#DejaVuSans-61" x="460.25"/>
     <use xlink:href="#DejaVuSans-6c" x="521.529297"/>
     <use xlink:href="#DejaVuSans-69" x="549.3125"/>
     <use xlink:href="#DejaVuSans-7a" x="577.095703"/>
     <use xlink:href="#DejaVuSans-65" x="629.585938"/>
    </g>
    <!-- NTR_C3_005_crop - Intensity Equalized, ROI=16 -->
    <g transform="translate(39.185625 29.7555)scale(0.12 -0.12)">
     <defs>
      <path id="DejaVuSans-4e" d="M 628 4666 
L 1478 4666 
L 3547 763 
L 3547 4666 
L 4159 4666 
L 4159 0 
L 3309 0 
L 1241 3903 
L 1241 0 
L 628 0 
L 628 4666 
z
" transform="scale(0.015625)"/>
      <path id="DejaVuSans-52" d="M 2841 2188 
Q 3044 2119 3236 1894 
Q 3428 1669 3622 1275 
L 4263 0 
L 3584 0 
L 2988 1197 
Q 2756 1666 2539 1819 
Q 2322 1972 1947 1972 
L 1259 1972 
L 1259 0 
L 628 0 
L 628 4666 
L 2053 4666 
Q 2853 4666 3247 4331 
Q 3641 3997 3641 3322 
Q 3641 2881 3436 2590 
Q 3231 2300 2841 2188 
z
M 1259 4147 
L 1259 2491 
L 2053 2491 
Q 2509 2491 2742 2702 
Q 2975 2913 2975 3322 
Q 2975 3731 2742 3939 
Q 2509 4147 2053 4147 
L 1259 4147 
z
" transform="scale(0.015625)"/>
      <path id="DejaVuSans-5f" d="M 3263 -1063 
L 3263 -1509 
L -63 -1509 
L -63 -1063 
L 3263 -1063 
z
" transform="scale(0.015625)"/>
      <path id="DejaVuSans-43" d="M 4122 4306 
L 4122 3641 
Q 3803 3938 3442 4084 
Q 3081 4231 2675 4231 
Q 1875 4231 1450 3742 
Q 1025 3253 1025 2328 
Q 1025 1406 1450 917 
Q 1875 428 2675 428 
Q 3081 428 3442 575 
Q 3803 722 4122 1019 
L 4122 359 
Q 3791 134 3420 21 
Q 3050 -91 2638 -91 
Q 1578 -91 968 557 
Q 359 1206 359 2328 
Q 359 3453 968 4101 
Q 1578 4750 2638 4750 
Q 3056 4750 3426 4639 
Q 3797 4528 4122 4306 
z
" transform="scale(0.015625)"/>
      <path id="DejaVuSans-63" d="M 3122 3366 
L 3122 2828 
Q 2878 2963 2633 3030 
Q 2388 3097 2138 3097 
Q 1578 3097 1268 2742 
Q 959 2388 959 1747 
Q 959 1106 1268 751 
Q 1578 397 2138 397 
Q 2388 397 2633 464 
Q 2878 531 3122 666 
L 3122 134 
Q 2881 22 2623 -34 
Q 2366 -91 2075 -91 
Q 1284 -91 818 406 
Q 353 903 353 1747 
Q 353 2603 823 3093 
Q 1294 3584 2113 3584 
Q 2378 3584 2631 3529 
Q 2884 3475 3122 3366 
z
" transform="scale(0.015625)"/>
      <path id="DejaVuSans-6f" d="M 1959 3097 
Q 1497 3097 1228 2736 
Q 959 2375 959 1747 
Q 959 1119 1226 758 
Q 1494 397 1959 397 
Q 2419 397 2687 759 
Q 2956 1122 2956 1747 
Q 2956 2369 2687 2733 
Q 2419 3097 1959 3097 
z
M 1959 3584 
Q 2709 3584 3137 3096 
Q 3566 2609 3566 1747 
Q 3566 888 3137 398 
Q 2709 -91 1959 -91 
Q 1206 -91 779 398 
Q 353 888 353 1747 
Q 353 2609 779 3096 
Q 1206 3584 1959 3584 
z
" transform="scale(0.015625)"/>
      <path id="DejaVuSans-70" d="M 1159 525 
L 1159 -1331 
L 581 -1331 
L 581 3500 
L 1159 3500 
L 1159 2969 
Q 1341 3281 1617 3432 
Q 1894 3584 2278 3584 
Q 2916 3584 3314 3078 
Q 3713 2572 3713 1747 
Q 3713 922 3314 415 
Q 2916 -91 2278 -91 
Q 1894 -91 1617 61 
Q 1341 213 1159 525 
z
M 3116 1747 
Q 3116 2381 2855 2742 
Q 2594 3103 2138 3103 
Q 1681 3103 1420 2742 
Q 1159 2381 1159 1747 
Q 1159 1113 1420 752 
Q 1681 391 2138 391 
Q 2594 391 2855 752 
Q 3116 1113 3116 1747 
z
" transform="scale(0.015625)"/>
      <path id="DejaVuSans-49" d="M 628 4666 
L 1259 4666 
L 1259 0 
L 628 0 
L 628 4666 
z
" transform="scale(0.015625)"/>
      <path id="DejaVuSans-6e" d="M 3513 2113 
L 3513 0 
L 2938 0 
L 2938 2094 
Q 2938 2591 2744 2837 
Q 2550 3084 2163 3084 
Q 1697 3084 1428 2787 
Q 1159 2491 1159 1978 
L 1159 0 
L 581 0 
L 581 3500 
L 1159 3500 
L 1159 2956 
Q 1366 3272 1645 3428 
Q 1925 3584 2291 3584 
Q 2894 3584 3203 3211 
Q 3513 2838 3513 2113 
z
" transform="scale(0.015625)"/>
      <path id="DejaVuSans-79" d="M 2059 -325 
Q 1816 -950 1584 -1140 
Q 1353 -1331 966 -1331 
L 506 -1331 
L 506 -850 
L 844 -850 
Q 1081 -850 1212 -737 
Q 1344 -625 1503 -206 
L 1606 56 
L 191 3500 
L 800 3500 
L 1894 763 
L 2988 3500 
L 3597 3500 
L 2059 -325 
z
" transform="scale(0.015625)"/>
      <path id="DejaVuSans-45" d="M 628 4666 
L 3578 4666 
L 3578 4134 
L 1259 4134 
L 1259 2753 
L 3481 2753 
L 3481 2222 
L 1259 2222 
L 1259 531 
L 3634 531 
L 3634 0 
L 628 0 
L 628 4666 
z
" transform="scale(0.015625)"/>
      <path id="DejaVuSans-64" d="M 2906 2969 
L 2906 4863 
L 3481 4863 
L 3481 0 
L 2906 0 
L 2906 525 
Q 2725 213 2448 61 
Q 2172 -91 1784 -91 
Q 1150 -91 751 415 
Q 353 922 353 1747 
Q 353 2572 751 3078 
Q 1150 3584 1784 3584 
Q 2172 3584 2448 3432 
Q 2725 3281 2906 2969 
z
M 947 1747 
Q 947 1113 1208 752 
Q 1469 391 1925 391 
Q 2381 391 2643 752 
Q 2906 1113 2906 1747 
Q 2906 2381 2643 2742 
Q 2381 3103 1925 3103 
Q 1469 3103 1208 2742 
Q 947 2381 947 1747 
z
" transform="scale(0.015625)"/>
      <path id="DejaVuSans-2c" d="M 750 794 
L 1409 794 
L 1409 256 
L 897 -744 
L 494 -744 
L 750 256 
L 750 794 
z
" transform="scale(0.015625)"/>
      <path id="DejaVuSans-4f" d="M 2522 4238 
Q 1834 4238 1429 3725 
Q 1025 3213 1025 2328 
Q 1025 1447 1429 934 
Q 1834 422 2522 422 
Q 3209 422 3611 934 
Q 4013 1447 4013 2328 
Q 4013 3213 3611 3725 
Q 3209 4238 2522 4238 
z
M 2522 4750 
Q 3503 4750 4090 4092 
Q 4678 3434 4678 2328 
Q 4678 1225 4090 567 
Q 3503 -91 2522 -91 
Q 1538 -91 948 565 
Q 359 1222 359 2328 
Q 359 3434 948 4092 
Q 1538 4750 2522 4750 
z
" transform="scale(0.015625)"/>
      <path id="DejaVuSans-3d" d="M 678 2906 
L 4684 2906 
L 4684 2381 
L 678 2381 
L 678 2906 
z
M 678 1631 
L 4684 1631 
L 4684 1100 
L 678 1100 
L 678 1631 
z
" transform="scale(0.015625)"/>
     </defs>
     <use xlink:href="#DejaVuSans-4e"/>
     <use xlink:href="#DejaVuSans-54" x="74.804688"/>
     <use xlink:href="#DejaVuSans-52" x="135.888672"/>
     <use xlink:href="#DejaVuSans-5f" x="205.371094"/>
     <use xlink:href="#DejaVuSans-43" x="255.371094"/>
     <use xlink:href="#DejaVuSans-33" x="325.195312"/>
     <use xlink:href="#DejaVuSans-5f" x="388.818359"/>
     <use xlink:href="#DejaVuSans-30" x="438.818359"/>
     <use xlink:href="#DejaVuSans-30" x="502.441406"/>
     <use xlink:href="#DejaVuSans-35" x="566.064453"/>
     <use xlink:href="#DejaVuSans-5f" x="629.6875"/>
     <use xlink:href="#DejaVuSans-63" x="679.6875"/>
     <use xlink:href="#DejaVuSans-72" x="734.667969"/>
     <use xlink:href="#DejaVuSans-6f" x="773.53125"/>
     <use xlink:href="#DejaVuSans-70" x="834.712891"/>
     <use xlink:href="#DejaVuSans-20" x="898.189453"/>
     <use xlink:href="#DejaVuSans-2d" x="929.976562"/>
     <use xlink:href="#DejaVuSans-20" x="966.060547"/>
     <use xlink:href="#DejaVuSans-49" x="997.847656"/>
     <use xlink:href="#DejaVuSans-6e" x="1027.339844"/>
     <use xlink:href="#DejaVuSans-74" x="1090.71875"/>
     <use xlink:href="#DejaVuSans-65" x="1129.927734"/>
     <use xlink:href="#DejaVuSans-6e" x="1191.451172"/>
     <use xlink:href="#DejaVuSans-73" x="1254.830078"/>
     <use xlink:href="#DejaVuSans-69" x="1306.929688"/>
     <use xlink:href="#DejaVuSans-74" x="1334.712891"/>
     <use xlink:href="#DejaVuSans-79" x="1373.921875"/>
     <use xlink:href="#DejaVuSans-20" x="1433.101562"/>
     <use xlink:href="#DejaVuSans-45" x="1464.888672"/>
     <use xlink:href="#DejaVuSans-71" x="1528.072266"/>
     <use xlink:href="#DejaVuSans-75" x="1591.548828"/>
     <use xlink:href="#DejaVuSans-61" x="1654.927734"/>
     <use xlink:href="#DejaVuSans-6c" x="1716.207031"/>
     <use xlink:href="#DejaVuSans-69" x="1743.990234"/>
     <use xlink:href="#DejaVuSans-7a" x="1771.773438"/>
     <use xlink:href="#DejaVuSans-65" x="1824.263672"/>
     <use xlink:href="#DejaVuSans-64" x="1885.787109"/>
     <use xlink:href="#DejaVuSans-2c" x="1949.263672"/>
     <use xlink:href="#DejaVuSans-20" x="1981.050781"/>
     <use xlink:href="#DejaVuSans-52" x="2012.837891"/>
     <use xlink:href="#DejaVuSans-4f" x="2082.320312"/>
     <use xlink:href="#DejaVuSans-49" x="2161.03125"/>
     <use xlink:href="#DejaVuSans-3d" x="2190.523438"/>
     <use xlink:href="#DejaVuSans-31" x="2274.3125"/>
     <use xlink:href="#DejaVuSans-36" x="2337.935547"/>
    </g>
   </g>
  </g>
 </g>
 <defs>
  <clipPath id="p1baac6a2aa">
   <rect x="43.78125" y="35.7555" width="279" height="163.08"/>
  </clipPath>
 </defs>
</svg>
