<?xml version="1.0" encoding="utf-8" standalone="no"?>
<!DOCTYPE svg PUBLIC "-//W3C//DTD SVG 1.1//EN"
  "http://www.w3.org/Graphics/SVG/1.1/DTD/svg11.dtd">
<svg xmlns:xlink="http://www.w3.org/1999/xlink" width="334.576875pt" height="236.39175pt" viewBox="0 0 334.576875 236.39175" xmlns="http://www.w3.org/2000/svg" version="1.1">
 <metadata>
  <rdf:RDF xmlns:dc="http://purl.org/dc/elements/1.1/" xmlns:cc="http://creativecommons.org/ns#" xmlns:rdf="http://www.w3.org/1999/02/22-rdf-syntax-ns#">
   <cc:Work>
    <dc:type rdf:resource="http://purl.org/dc/dcmitype/StillImage"/>
    <dc:date>2025-01-27T16:06:42.006007</dc:date>
    <dc:format>image/svg+xml</dc:format>
    <dc:creator>
     <cc:Agent>
      <dc:title>Matplotlib v3.5.2, https://matplotlib.org/</dc:title>
     </cc:Agent>
    </dc:creator>
   </cc:Work>
  </rdf:RDF>
 </metadata>
 <defs>
  <style type="text/css">*{stroke-linejoin: round; stroke-linecap: butt}</style>
 </defs>
 <g id="figure_1">
  <g id="patch_1">
   <path d="M 0 236.39175 
L 334.576875 236.39175 
L 334.576875 0 
L 0 0 
L 0 236.39175 
z
" style="fill: none"/>
  </g>
  <g id="axes_1">
   <g id="patch_2">
    <path d="M 43.78125 198.8355 
L 322.78125 198.8355 
L 322.78125 35.7555 
L 43.78125 35.7555 
z
" style="fill: #ffffff"/>
   </g>
   <g id="matplotlib.axis_1">
    <g id="xtick_1">
     <g id="line2d_1">
      <defs>
       <path id="med3728a12a" d="M 0 0 
L 0 3.5 
" style="stroke: #000000; stroke-width: 0.8"/>
      </defs>
      <g>
       <use xlink:href="#med3728a12a" x="56.427557" y="198.8355" style="stroke: #000000; stroke-width: 0.8"/>
      </g>
     </g>
     <g id="text_1">
      <!-- 0 -->
      <g transform="translate(53.246307 213.433938)scale(0.1 -0.1)">
       <defs>
        <path id="DejaVuSans-30" d="M 2034 4250 
Q 1547 4250 1301 3770 
Q 1056 3291 1056 2328 
Q 1056 1369 1301 889 
Q 1547 409 2034 409 
Q 2525 409 2770 889 
Q 3016 1369 3016 2328 
Q 3016 3291 2770 3770 
Q 2525 4250 2034 4250 
z
M 2034 4750 
Q 2819 4750 3233 4129 
Q 3647 3509 3647 2328 
Q 3647 1150 3233 529 
Q 2819 -91 2034 -91 
Q 1250 -91 836 529 
Q 422 1150 422 2328 
Q 422 3509 836 4129 
Q 1250 4750 2034 4750 
z
" transform="scale(0.015625)"/>
       </defs>
       <use xlink:href="#DejaVuSans-30"/>
      </g>
     </g>
    </g>
    <g id="xtick_2">
     <g id="line2d_2">
      <g>
       <use xlink:href="#med3728a12a" x="98.703102" y="198.8355" style="stroke: #000000; stroke-width: 0.8"/>
      </g>
     </g>
     <g id="text_2">
      <!-- 50 -->
      <g transform="translate(92.340602 213.433938)scale(0.1 -0.1)">
       <defs>
        <path id="DejaVuSans-35" d="M 691 4666 
L 3169 4666 
L 3169 4134 
L 1269 4134 
L 1269 2991 
Q 1406 3038 1543 3061 
Q 1681 3084 1819 3084 
Q 2600 3084 3056 2656 
Q 3513 2228 3513 1497 
Q 3513 744 3044 326 
Q 2575 -91 1722 -91 
Q 1428 -91 1123 -41 
Q 819 9 494 109 
L 494 744 
Q 775 591 1075 516 
Q 1375 441 1709 441 
Q 2250 441 2565 725 
Q 2881 1009 2881 1497 
Q 2881 1984 2565 2268 
Q 2250 2553 1709 2553 
Q 1456 2553 1204 2497 
Q 953 2441 691 2322 
L 691 4666 
z
" transform="scale(0.015625)"/>
       </defs>
       <use xlink:href="#DejaVuSans-35"/>
       <use xlink:href="#DejaVuSans-30" x="63.623047"/>
      </g>
     </g>
    </g>
    <g id="xtick_3">
     <g id="line2d_3">
      <g>
       <use xlink:href="#med3728a12a" x="140.978648" y="198.8355" style="stroke: #000000; stroke-width: 0.8"/>
      </g>
     </g>
     <g id="text_3">
      <!-- 100 -->
      <g transform="translate(131.434898 213.433938)scale(0.1 -0.1)">
       <defs>
        <path id="DejaVuSans-31" d="M 794 531 
L 1825 531 
L 1825 4091 
L 703 3866 
L 703 4441 
L 1819 4666 
L 2450 4666 
L 2450 531 
L 3481 531 
L 3481 0 
L 794 0 
L 794 531 
z
" transform="scale(0.015625)"/>
       </defs>
       <use xlink:href="#DejaVuSans-31"/>
       <use xlink:href="#DejaVuSans-30" x="63.623047"/>
       <use xlink:href="#DejaVuSans-30" x="127.246094"/>
      </g>
     </g>
    </g>
    <g id="xtick_4">
     <g id="line2d_4">
      <g>
       <use xlink:href="#med3728a12a" x="183.254194" y="198.8355" style="stroke: #000000; stroke-width: 0.8"/>
      </g>
     </g>
     <g id="text_4">
      <!-- 150 -->
      <g transform="translate(173.710444 213.433938)scale(0.1 -0.1)">
       <use xlink:href="#DejaVuSans-31"/>
       <use xlink:href="#DejaVuSans-35" x="63.623047"/>
       <use xlink:href="#DejaVuSans-30" x="127.246094"/>
      </g>
     </g>
    </g>
    <g id="xtick_5">
     <g id="line2d_5">
      <g>
       <use xlink:href="#med3728a12a" x="225.529739" y="198.8355" style="stroke: #000000; stroke-width: 0.8"/>
      </g>
     </g>
     <g id="text_5">
      <!-- 200 -->
      <g transform="translate(215.985989 213.433938)scale(0.1 -0.1)">
       <defs>
        <path id="DejaVuSans-32" d="M 1228 531 
L 3431 531 
L 3431 0 
L 469 0 
L 469 531 
Q 828 903 1448 1529 
Q 2069 2156 2228 2338 
Q 2531 2678 2651 2914 
Q 2772 3150 2772 3378 
Q 2772 3750 2511 3984 
Q 2250 4219 1831 4219 
Q 1534 4219 1204 4116 
Q 875 4013 500 3803 
L 500 4441 
Q 881 4594 1212 4672 
Q 1544 4750 1819 4750 
Q 2544 4750 2975 4387 
Q 3406 4025 3406 3419 
Q 3406 3131 3298 2873 
Q 3191 2616 2906 2266 
Q 2828 2175 2409 1742 
Q 1991 1309 1228 531 
z
" transform="scale(0.015625)"/>
       </defs>
       <use xlink:href="#DejaVuSans-32"/>
       <use xlink:href="#DejaVuSans-30" x="63.623047"/>
       <use xlink:href="#DejaVuSans-30" x="127.246094"/>
      </g>
     </g>
    </g>
    <g id="xtick_6">
     <g id="line2d_6">
      <g>
       <use xlink:href="#med3728a12a" x="267.805285" y="198.8355" style="stroke: #000000; stroke-width: 0.8"/>
      </g>
     </g>
     <g id="text_6">
      <!-- 250 -->
      <g transform="translate(258.261535 213.433938)scale(0.1 -0.1)">
       <use xlink:href="#DejaVuSans-32"/>
       <use xlink:href="#DejaVuSans-35" x="63.623047"/>
       <use xlink:href="#DejaVuSans-30" x="127.246094"/>
      </g>
     </g>
    </g>
    <g id="xtick_7">
     <g id="line2d_7">
      <g>
       <use xlink:href="#med3728a12a" x="310.080831" y="198.8355" style="stroke: #000000; stroke-width: 0.8"/>
      </g>
     </g>
     <g id="text_7">
      <!-- 300 -->
      <g transform="translate(300.537081 213.433938)scale(0.1 -0.1)">
       <defs>
        <path id="DejaVuSans-33" d="M 2597 2516 
Q 3050 2419 3304 2112 
Q 3559 1806 3559 1356 
Q 3559 666 3084 287 
Q 2609 -91 1734 -91 
Q 1441 -91 1130 -33 
Q 819 25 488 141 
L 488 750 
Q 750 597 1062 519 
Q 1375 441 1716 441 
Q 2309 441 2620 675 
Q 2931 909 2931 1356 
Q 2931 1769 2642 2001 
Q 2353 2234 1838 2234 
L 1294 2234 
L 1294 2753 
L 1863 2753 
Q 2328 2753 2575 2939 
Q 2822 3125 2822 3475 
Q 2822 3834 2567 4026 
Q 2313 4219 1838 4219 
Q 1578 4219 1281 4162 
Q 984 4106 628 3988 
L 628 4550 
Q 988 4650 1302 4700 
Q 1616 4750 1894 4750 
Q 2613 4750 3031 4423 
Q 3450 4097 3450 3541 
Q 3450 3153 3228 2886 
Q 3006 2619 2597 2516 
z
" transform="scale(0.015625)"/>
       </defs>
       <use xlink:href="#DejaVuSans-33"/>
       <use xlink:href="#DejaVuSans-30" x="63.623047"/>
       <use xlink:href="#DejaVuSans-30" x="127.246094"/>
      </g>
     </g>
    </g>
    <g id="text_8">
     <!-- Time [s] -->
     <g transform="translate(162.952344 227.112063)scale(0.1 -0.1)">
      <defs>
       <path id="DejaVuSans-54" d="M -19 4666 
L 3928 4666 
L 3928 4134 
L 2272 4134 
L 2272 0 
L 1638 0 
L 1638 4134 
L -19 4134 
L -19 4666 
z
" transform="scale(0.015625)"/>
       <path id="DejaVuSans-69" d="M 603 3500 
L 1178 3500 
L 1178 0 
L 603 0 
L 603 3500 
z
M 603 4863 
L 1178 4863 
L 1178 4134 
L 603 4134 
L 603 4863 
z
" transform="scale(0.015625)"/>
       <path id="DejaVuSans-6d" d="M 3328 2828 
Q 3544 3216 3844 3400 
Q 4144 3584 4550 3584 
Q 5097 3584 5394 3201 
Q 5691 2819 5691 2113 
L 5691 0 
L 5113 0 
L 5113 2094 
Q 5113 2597 4934 2840 
Q 4756 3084 4391 3084 
Q 3944 3084 3684 2787 
Q 3425 2491 3425 1978 
L 3425 0 
L 2847 0 
L 2847 2094 
Q 2847 2600 2669 2842 
Q 2491 3084 2119 3084 
Q 1678 3084 1418 2786 
Q 1159 2488 1159 1978 
L 1159 0 
L 581 0 
L 581 3500 
L 1159 3500 
L 1159 2956 
Q 1356 3278 1631 3431 
Q 1906 3584 2284 3584 
Q 2666 3584 2933 3390 
Q 3200 3197 3328 2828 
z
" transform="scale(0.015625)"/>
       <path id="DejaVuSans-65" d="M 3597 1894 
L 3597 1613 
L 953 1613 
Q 991 1019 1311 708 
Q 1631 397 2203 397 
Q 2534 397 2845 478 
Q 3156 559 3463 722 
L 3463 178 
Q 3153 47 2828 -22 
Q 2503 -91 2169 -91 
Q 1331 -91 842 396 
Q 353 884 353 1716 
Q 353 2575 817 3079 
Q 1281 3584 2069 3584 
Q 2775 3584 3186 3129 
Q 3597 2675 3597 1894 
z
M 3022 2063 
Q 3016 2534 2758 2815 
Q 2500 3097 2075 3097 
Q 1594 3097 1305 2825 
Q 1016 2553 972 2059 
L 3022 2063 
z
" transform="scale(0.015625)"/>
       <path id="DejaVuSans-20" transform="scale(0.015625)"/>
       <path id="DejaVuSans-5b" d="M 550 4863 
L 1875 4863 
L 1875 4416 
L 1125 4416 
L 1125 -397 
L 1875 -397 
L 1875 -844 
L 550 -844 
L 550 4863 
z
" transform="scale(0.015625)"/>
       <path id="DejaVuSans-73" d="M 2834 3397 
L 2834 2853 
Q 2591 2978 2328 3040 
Q 2066 3103 1784 3103 
Q 1356 3103 1142 2972 
Q 928 2841 928 2578 
Q 928 2378 1081 2264 
Q 1234 2150 1697 2047 
L 1894 2003 
Q 2506 1872 2764 1633 
Q 3022 1394 3022 966 
Q 3022 478 2636 193 
Q 2250 -91 1575 -91 
Q 1294 -91 989 -36 
Q 684 19 347 128 
L 347 722 
Q 666 556 975 473 
Q 1284 391 1588 391 
Q 1994 391 2212 530 
Q 2431 669 2431 922 
Q 2431 1156 2273 1281 
Q 2116 1406 1581 1522 
L 1381 1569 
Q 847 1681 609 1914 
Q 372 2147 372 2553 
Q 372 3047 722 3315 
Q 1072 3584 1716 3584 
Q 2034 3584 2315 3537 
Q 2597 3491 2834 3397 
z
" transform="scale(0.015625)"/>
       <path id="DejaVuSans-5d" d="M 1947 4863 
L 1947 -844 
L 622 -844 
L 622 -397 
L 1369 -397 
L 1369 4416 
L 622 4416 
L 622 4863 
L 1947 4863 
z
" transform="scale(0.015625)"/>
      </defs>
      <use xlink:href="#DejaVuSans-54"/>
      <use xlink:href="#DejaVuSans-69" x="57.958984"/>
      <use xlink:href="#DejaVuSans-6d" x="85.742188"/>
      <use xlink:href="#DejaVuSans-65" x="183.154297"/>
      <use xlink:href="#DejaVuSans-20" x="244.677734"/>
      <use xlink:href="#DejaVuSans-5b" x="276.464844"/>
      <use xlink:href="#DejaVuSans-73" x="315.478516"/>
      <use xlink:href="#DejaVuSans-5d" x="367.578125"/>
     </g>
    </g>
   </g>
   <g id="matplotlib.axis_2">
    <g id="ytick_1">
     <g id="line2d_8">
      <defs>
       <path id="m28c39388e6" d="M 0 0 
L -3.5 0 
" style="stroke: #000000; stroke-width: 0.8"/>
      </defs>
      <g>
       <use xlink:href="#m28c39388e6" x="43.78125" y="195.923357" style="stroke: #000000; stroke-width: 0.8"/>
      </g>
     </g>
     <g id="text_9">
      <!-- 0.0 -->
      <g transform="translate(20.878125 199.722576)scale(0.1 -0.1)">
       <defs>
        <path id="DejaVuSans-2e" d="M 684 794 
L 1344 794 
L 1344 0 
L 684 0 
L 684 794 
z
" transform="scale(0.015625)"/>
       </defs>
       <use xlink:href="#DejaVuSans-30"/>
       <use xlink:href="#DejaVuSans-2e" x="63.623047"/>
       <use xlink:href="#DejaVuSans-30" x="95.410156"/>
      </g>
     </g>
    </g>
    <g id="ytick_2">
     <g id="line2d_9">
      <g>
       <use xlink:href="#m28c39388e6" x="43.78125" y="166.801929" style="stroke: #000000; stroke-width: 0.8"/>
      </g>
     </g>
     <g id="text_10">
      <!-- 0.2 -->
      <g transform="translate(20.878125 170.601147)scale(0.1 -0.1)">
       <use xlink:href="#DejaVuSans-30"/>
       <use xlink:href="#DejaVuSans-2e" x="63.623047"/>
       <use xlink:href="#DejaVuSans-32" x="95.410156"/>
      </g>
     </g>
    </g>
    <g id="ytick_3">
     <g id="line2d_10">
      <g>
       <use xlink:href="#m28c39388e6" x="43.78125" y="137.6805" style="stroke: #000000; stroke-width: 0.8"/>
      </g>
     </g>
     <g id="text_11">
      <!-- 0.4 -->
      <g transform="translate(20.878125 141.479719)scale(0.1 -0.1)">
       <defs>
        <path id="DejaVuSans-34" d="M 2419 4116 
L 825 1625 
L 2419 1625 
L 2419 4116 
z
M 2253 4666 
L 3047 4666 
L 3047 1625 
L 3713 1625 
L 3713 1100 
L 3047 1100 
L 3047 0 
L 2419 0 
L 2419 1100 
L 313 1100 
L 313 1709 
L 2253 4666 
z
" transform="scale(0.015625)"/>
       </defs>
       <use xlink:href="#DejaVuSans-30"/>
       <use xlink:href="#DejaVuSans-2e" x="63.623047"/>
       <use xlink:href="#DejaVuSans-34" x="95.410156"/>
      </g>
     </g>
    </g>
    <g id="ytick_4">
     <g id="line2d_11">
      <g>
       <use xlink:href="#m28c39388e6" x="43.78125" y="108.559071" style="stroke: #000000; stroke-width: 0.8"/>
      </g>
     </g>
     <g id="text_12">
      <!-- 0.6 -->
      <g transform="translate(20.878125 112.35829)scale(0.1 -0.1)">
       <defs>
        <path id="DejaVuSans-36" d="M 2113 2584 
Q 1688 2584 1439 2293 
Q 1191 2003 1191 1497 
Q 1191 994 1439 701 
Q 1688 409 2113 409 
Q 2538 409 2786 701 
Q 3034 994 3034 1497 
Q 3034 2003 2786 2293 
Q 2538 2584 2113 2584 
z
M 3366 4563 
L 3366 3988 
Q 3128 4100 2886 4159 
Q 2644 4219 2406 4219 
Q 1781 4219 1451 3797 
Q 1122 3375 1075 2522 
Q 1259 2794 1537 2939 
Q 1816 3084 2150 3084 
Q 2853 3084 3261 2657 
Q 3669 2231 3669 1497 
Q 3669 778 3244 343 
Q 2819 -91 2113 -91 
Q 1303 -91 875 529 
Q 447 1150 447 2328 
Q 447 3434 972 4092 
Q 1497 4750 2381 4750 
Q 2619 4750 2861 4703 
Q 3103 4656 3366 4563 
z
" transform="scale(0.015625)"/>
       </defs>
       <use xlink:href="#DejaVuSans-30"/>
       <use xlink:href="#DejaVuSans-2e" x="63.623047"/>
       <use xlink:href="#DejaVuSans-36" x="95.410156"/>
      </g>
     </g>
    </g>
    <g id="ytick_5">
     <g id="line2d_12">
      <g>
       <use xlink:href="#m28c39388e6" x="43.78125" y="79.437643" style="stroke: #000000; stroke-width: 0.8"/>
      </g>
     </g>
     <g id="text_13">
      <!-- 0.8 -->
      <g transform="translate(20.878125 83.236862)scale(0.1 -0.1)">
       <defs>
        <path id="DejaVuSans-38" d="M 2034 2216 
Q 1584 2216 1326 1975 
Q 1069 1734 1069 1313 
Q 1069 891 1326 650 
Q 1584 409 2034 409 
Q 2484 409 2743 651 
Q 3003 894 3003 1313 
Q 3003 1734 2745 1975 
Q 2488 2216 2034 2216 
z
M 1403 2484 
Q 997 2584 770 2862 
Q 544 3141 544 3541 
Q 544 4100 942 4425 
Q 1341 4750 2034 4750 
Q 2731 4750 3128 4425 
Q 3525 4100 3525 3541 
Q 3525 3141 3298 2862 
Q 3072 2584 2669 2484 
Q 3125 2378 3379 2068 
Q 3634 1759 3634 1313 
Q 3634 634 3220 271 
Q 2806 -91 2034 -91 
Q 1263 -91 848 271 
Q 434 634 434 1313 
Q 434 1759 690 2068 
Q 947 2378 1403 2484 
z
M 1172 3481 
Q 1172 3119 1398 2916 
Q 1625 2713 2034 2713 
Q 2441 2713 2670 2916 
Q 2900 3119 2900 3481 
Q 2900 3844 2670 4047 
Q 2441 4250 2034 4250 
Q 1625 4250 1398 4047 
Q 1172 3844 1172 3481 
z
" transform="scale(0.015625)"/>
       </defs>
       <use xlink:href="#DejaVuSans-30"/>
       <use xlink:href="#DejaVuSans-2e" x="63.623047"/>
       <use xlink:href="#DejaVuSans-38" x="95.410156"/>
      </g>
     </g>
    </g>
    <g id="ytick_6">
     <g id="line2d_13">
      <g>
       <use xlink:href="#m28c39388e6" x="43.78125" y="50.316214" style="stroke: #000000; stroke-width: 0.8"/>
      </g>
     </g>
     <g id="text_14">
      <!-- 1.0 -->
      <g transform="translate(20.878125 54.115433)scale(0.1 -0.1)">
       <use xlink:href="#DejaVuSans-31"/>
       <use xlink:href="#DejaVuSans-2e" x="63.623047"/>
       <use xlink:href="#DejaVuSans-30" x="95.410156"/>
      </g>
     </g>
    </g>
    <g id="text_15">
     <!-- (F-F$^o$)/F$^o$ -->
     <g transform="translate(14.798438 137.9955)rotate(-90)scale(0.1 -0.1)">
      <defs>
       <path id="DejaVuSans-28" d="M 1984 4856 
Q 1566 4138 1362 3434 
Q 1159 2731 1159 2009 
Q 1159 1288 1364 580 
Q 1569 -128 1984 -844 
L 1484 -844 
Q 1016 -109 783 600 
Q 550 1309 550 2009 
Q 550 2706 781 3412 
Q 1013 4119 1484 4856 
L 1984 4856 
z
" transform="scale(0.015625)"/>
       <path id="DejaVuSans-46" d="M 628 4666 
L 3309 4666 
L 3309 4134 
L 1259 4134 
L 1259 2759 
L 3109 2759 
L 3109 2228 
L 1259 2228 
L 1259 0 
L 628 0 
L 628 4666 
z
" transform="scale(0.015625)"/>
       <path id="DejaVuSans-2d" d="M 313 2009 
L 1997 2009 
L 1997 1497 
L 313 1497 
L 313 2009 
z
" transform="scale(0.015625)"/>
       <path id="DejaVuSans-Oblique-6f" d="M 1625 -91 
Q 1009 -91 651 289 
Q 294 669 294 1325 
Q 294 1706 417 2101 
Q 541 2497 738 2766 
Q 1047 3184 1428 3384 
Q 1809 3584 2291 3584 
Q 2888 3584 3255 3212 
Q 3622 2841 3622 2241 
Q 3622 1825 3500 1412 
Q 3378 1000 3181 728 
Q 2875 309 2494 109 
Q 2113 -91 1625 -91 
z
M 891 1344 
Q 891 869 1089 633 
Q 1288 397 1691 397 
Q 2269 397 2648 901 
Q 3028 1406 3028 2181 
Q 3028 2634 2825 2865 
Q 2622 3097 2228 3097 
Q 1903 3097 1650 2945 
Q 1397 2794 1197 2484 
Q 1050 2253 970 1956 
Q 891 1659 891 1344 
z
" transform="scale(0.015625)"/>
       <path id="DejaVuSans-29" d="M 513 4856 
L 1013 4856 
Q 1481 4119 1714 3412 
Q 1947 2706 1947 2009 
Q 1947 1309 1714 600 
Q 1481 -109 1013 -844 
L 513 -844 
Q 928 -128 1133 580 
Q 1338 1288 1338 2009 
Q 1338 2731 1133 3434 
Q 928 4138 513 4856 
z
" transform="scale(0.015625)"/>
       <path id="DejaVuSans-2f" d="M 1625 4666 
L 2156 4666 
L 531 -594 
L 0 -594 
L 1625 4666 
z
" transform="scale(0.015625)"/>
      </defs>
      <use xlink:href="#DejaVuSans-28" transform="translate(0 0.51875)"/>
      <use xlink:href="#DejaVuSans-46" transform="translate(39.013672 0.51875)"/>
      <use xlink:href="#DejaVuSans-2d" transform="translate(96.533203 0.51875)"/>
      <use xlink:href="#DejaVuSans-46" transform="translate(132.617188 0.51875)"/>
      <use xlink:href="#DejaVuSans-Oblique-6f" transform="translate(191.09375 38.8)scale(0.7)"/>
      <use xlink:href="#DejaVuSans-29" transform="translate(236.655273 0.51875)"/>
      <use xlink:href="#DejaVuSans-2f" transform="translate(275.668945 0.51875)"/>
      <use xlink:href="#DejaVuSans-46" transform="translate(309.360352 0.51875)"/>
      <use xlink:href="#DejaVuSans-Oblique-6f" transform="translate(367.836914 38.8)scale(0.7)"/>
     </g>
    </g>
   </g>
   <g id="line2d_14">
    <path d="M 56.463068 195.923357 
L 57.120876 195.540108 
L 57.254466 195.694918 
L 57.389748 195.549862 
L 57.524184 195.723551 
L 57.658621 195.10903 
L 57.793902 195.833681 
L 57.928339 195.609961 
L 58.065311 195.753758 
L 58.200593 195.190841 
L 58.469466 195.390017 
L 58.739184 195.14616 
L 58.874465 195.497944 
L 59.008902 195.389073 
L 59.143338 195.731732 
L 59.277774 195.135147 
L 59.41221 195.21916 
L 59.547492 195.160005 
L 59.681928 194.873669 
L 59.816364 195.372397 
L 59.951646 195.027535 
L 60.086082 194.296906 
L 60.223055 194.370536 
L 60.357491 194.747492 
L 60.491928 194.511186 
L 60.627209 194.883108 
L 60.761646 194.765742 
L 61.031364 193.880933 
L 61.1658 194.127622 
L 61.301082 193.633929 
L 61.435518 194.202195 
L 61.569954 194.107484 
L 61.705236 194.148389 
L 61.839672 194.619428 
L 61.974108 194.004907 
L 62.10939 194.087032 
L 62.243826 193.812967 
L 62.378263 193.980364 
L 62.647135 193.814855 
L 62.920235 193.791885 
L 63.054671 193.506494 
L 63.324389 193.877786 
L 63.458825 193.410838 
L 63.862134 193.946381 
L 64.12847 192.916516 
L 64.262906 193.713536 
L 64.397343 193.324623 
L 64.667061 193.14999 
L 64.801497 193.010912 
L 64.936779 193.033567 
L 65.205651 193.290326 
L 65.475369 192.860507 
L 65.745087 192.464357 
L 65.879523 192.440128 
L 66.013959 192.197844 
L 66.149241 192.563788 
L 66.283677 192.57543 
L 66.55255 191.853926 
L 66.822268 192.177077 
L 66.956704 191.84134 
L 67.09114 192.129249 
L 67.226422 191.809245 
L 67.361704 192.047439 
L 67.49614 191.824978 
L 67.631422 191.856129 
L 67.900294 192.527602 
L 68.034731 191.53581 
L 68.169167 192.083939 
L 68.302757 191.820573 
L 68.438039 191.952099 
L 68.707757 192.642137 
L 68.843039 192.488271 
L 68.977475 192.083624 
L 69.111911 192.345417 
L 69.381629 192.386008 
L 69.516066 192.589904 
L 69.650502 192.494564 
L 69.92022 193.335951 
L 70.055502 192.919662 
L 70.189092 193.069123 
L 70.324374 192.636788 
L 70.45881 192.61665 
L 70.594092 192.857046 
L 70.729374 192.685874 
L 70.86381 192.853585 
L 71.133528 192.255741 
L 71.672964 193.04521 
L 71.808246 192.950813 
L 71.942682 193.603093 
L 72.077964 193.244071 
L 72.481272 193.27239 
L 72.75099 192.883162 
L 72.886272 193.967777 
L 73.020708 192.987628 
L 73.15599 193.374024 
L 73.291272 193.41367 
L 73.425708 193.275222 
L 73.559299 193.600575 
L 73.694581 192.551202 
L 73.830708 192.952701 
L 74.234862 192.204452 
L 74.369298 193.238722 
L 74.639016 192.185887 
L 74.908734 192.375624 
L 75.04317 192.506835 
L 75.312888 191.896405 
L 75.582606 192.190922 
L 75.852324 191.142492 
L 75.986761 191.557207 
L 76.122042 190.897691 
L 76.256479 191.181509 
L 76.526197 190.861505 
L 76.660633 191.427255 
L 76.795915 191.005932 
L 77.065633 191.190634 
L 77.200069 191.216121 
L 77.334505 190.794798 
L 77.469787 190.839479 
L 77.604223 190.600971 
L 77.738659 190.771514 
L 78.008377 190.359316 
L 78.143659 190.540872 
L 78.278095 190.525139 
L 78.412531 190.695682 
L 78.547813 191.177419 
L 78.682249 191.114173 
L 78.81584 190.88479 
L 78.950276 190.183424 
L 79.084713 190.729979 
L 79.219149 190.705436 
L 79.354431 191.068233 
L 79.488867 190.375993 
L 79.623303 190.439868 
L 79.758585 190.916255 
L 80.028303 190.103816 
L 80.162739 190.667363 
L 80.432457 190.623941 
L 80.566893 190.929785 
L 80.70133 190.308342 
L 80.970202 190.851122 
L 81.104638 190.812419 
L 81.240765 190.594363 
L 81.376047 190.970061 
L 81.511329 190.4792 
L 81.645765 190.918458 
L 81.780201 190.095321 
L 81.914638 190.598768 
L 82.049074 190.628661 
L 82.187738 189.915338 
L 82.322174 190.872203 
L 82.457456 190.273101 
L 82.860764 190.448363 
L 82.996046 190.727148 
L 83.129637 190.693794 
L 83.264073 190.487066 
L 83.399355 190.734699 
L 83.534637 190.41973 
L 83.669073 190.405885 
L 83.803509 190.724945 
L 84.073227 190.353967 
L 84.344636 190.690648 
L 84.479072 190.653204 
L 84.614354 190.216778 
L 84.74879 190.520105 
L 84.884072 190.418786 
L 85.018508 190.65226 
L 85.152944 190.472907 
L 85.287381 190.537096 
L 85.557099 189.987394 
L 85.691535 190.466299 
L 85.826817 189.789791 
L 85.961253 189.955614 
L 86.095689 189.757067 
L 86.230971 189.762731 
L 86.364562 190.358687 
L 86.499843 189.952782 
L 86.63428 190.090916 
L 86.769561 189.892683 
L 86.903998 190.353338 
L 87.043507 189.951523 
L 87.177943 190.576113 
L 87.312379 190.203247 
L 87.717379 190.740678 
L 87.851815 190.212058 
L 87.986252 190.758928 
L 88.121533 190.515385 
L 88.25597 190.521049 
L 88.390406 190.33792 
L 88.524842 190.710156 
L 88.659278 190.085252 
L 88.793714 190.692221 
L 88.928996 190.26492 
L 89.063432 190.308342 
L 89.197869 190.709842 
L 89.33315 190.650686 
L 89.602023 190.821544 
L 89.871741 190.198842 
L 90.006177 190.416898 
L 90.14315 190.862135 
L 90.412868 190.840738 
L 91.08674 190.117661 
L 91.356458 190.321872 
L 91.626176 189.908416 
L 91.760612 190.320928 
L 91.895048 190.243523 
L 92.029485 190.458432 
L 92.164766 190.106019 
L 92.299203 190.422562 
L 92.434484 189.460977 
L 92.704202 190.459691 
L 93.377229 188.823486 
L 93.512511 188.783525 
L 93.646102 189.39899 
L 93.781383 188.394611 
L 93.91582 188.380452 
L 94.184692 187.864733 
L 94.455256 187.869767 
L 94.589692 187.857181 
L 95.129128 185.208732 
L 95.534127 178.590597 
L 95.803 166.744473 
L 96.34159 123.546143 
L 96.476027 121.045267 
L 96.610463 120.803297 
L 97.553208 128.85374 
L 97.687644 128.872934 
L 97.820389 128.697357 
L 97.954825 129.029318 
L 98.090107 130.815298 
L 98.223698 129.768127 
L 98.358979 130.32129 
L 98.493416 130.03936 
L 98.628697 130.210217 
L 99.032852 128.903141 
L 99.167288 129.044421 
L 99.301724 127.772901 
L 99.43616 128.126258 
L 99.571442 128.970477 
L 99.704187 128.256525 
L 99.839469 128.144508 
L 99.973905 128.182582 
L 100.108342 127.58285 
L 100.243623 127.519919 
L 100.378059 126.89407 
L 100.512496 127.010178 
L 101.45524 138.402255 
L 102.129113 148.336222 
L 102.801294 159.730817 
L 104.685092 185.926459 
L 105.223683 189.416296 
L 105.628682 190.667363 
L 106.031991 192.246301 
L 106.167273 192.031706 
L 106.568045 192.466559 
L 106.699945 193.119153 
L 107.103253 192.862395 
L 107.377199 192.619482 
L 107.512481 193.161947 
L 107.646917 193.084227 
L 107.781353 193.29536 
L 107.916635 193.288752 
L 108.187198 192.832503 
L 108.32248 193.095869 
L 108.456916 193.025386 
L 108.725789 193.242813 
L 108.860225 193.183658 
L 108.994661 192.775865 
L 109.129097 192.856731 
L 109.264379 193.192153 
L 109.669379 192.335978 
L 110.072688 192.745658 
L 110.207969 192.432577 
L 110.342406 192.446107 
L 110.476842 192.659757 
L 110.747405 191.583323 
L 111.017123 192.301051 
L 111.154096 191.791625 
L 111.827968 191.790996 
L 111.96325 191.65003 
L 112.097686 191.834418 
L 112.506914 190.954643 
L 112.642195 191.687474 
L 112.777477 191.649716 
L 112.911913 190.968488 
L 113.043813 191.063828 
L 113.178249 190.424135 
L 113.312685 190.874721 
L 113.447122 190.682152 
L 113.582403 191.026699 
L 113.986558 190.553773 
L 114.525148 190.156993 
L 114.659584 190.578631 
L 114.794866 190.461579 
L 114.929302 189.824718 
L 115.063739 190.354596 
L 115.199866 190.284743 
L 115.334302 189.857442 
L 115.468738 189.99998 
L 115.605711 189.616416 
L 115.740993 190.686242 
L 115.875429 190.011937 
L 116.145147 190.375364 
L 116.549301 189.865937 
L 116.683737 189.83164 
L 116.819019 189.32536 
L 116.953455 189.775002 
L 117.492891 189.55789 
L 117.762609 188.870055 
L 117.897046 189.223098 
L 118.032327 189.159537 
L 118.3012 189.392697 
L 118.571763 188.901835 
L 118.7062 189.055072 
L 118.975072 188.636266 
L 119.109508 189.320011 
L 119.383454 188.53243 
L 119.51789 188.598508 
L 119.652326 188.096948 
L 119.921199 188.634378 
L 120.053944 188.658292 
L 120.189226 188.050379 
L 120.323662 188.554771 
L 120.458098 188.595047 
L 120.592534 188.333254 
L 120.727816 188.717762 
L 120.996689 187.989651 
L 121.131125 188.658922 
L 121.265561 187.89903 
L 121.531897 188.59662 
L 121.666333 188.347099 
L 121.801615 188.507887 
L 122.071333 187.836099 
L 122.205769 188.135651 
L 122.475487 188.052267 
L 122.745205 187.57525 
L 122.879641 188.12212 
L 123.010696 187.798341 
L 123.145132 188.505685 
L 123.549286 187.383626 
L 123.683722 188.139112 
L 123.95344 187.692931 
L 124.222313 187.737612 
L 124.492031 187.116484 
L 124.627312 187.220005 
L 125.030621 187.320695 
L 125.165057 187.202384 
L 125.299494 186.923915 
L 125.43393 187.343979 
L 125.572594 187.214971 
L 125.707875 187.269091 
L 126.112875 186.707118 
L 126.246466 186.972686 
L 126.381748 186.893079 
L 126.516184 187.112393 
L 126.651466 187.093514 
L 126.785902 187.339889 
L 127.05562 186.984643 
L 127.190056 187.063622 
L 127.324492 187.360656 
L 127.593365 187.295522 
L 127.728646 187.866935 
L 127.863083 187.402505 
L 127.998364 187.904065 
L 128.132801 187.483371 
L 128.267237 187.523332 
L 128.401673 187.088794 
L 128.536109 187.225984 
L 128.670546 187.558574 
L 128.804982 187.433656 
L 128.939418 187.080928 
L 129.344418 187.278846 
L 129.478854 187.820681 
L 129.747727 187.385828 
L 129.882163 187.705517 
L 130.019981 187.373557 
L 130.155263 187.390863 
L 130.289699 186.875773 
L 130.424135 187.452535 
L 130.693853 187.205216 
L 130.828289 186.939962 
L 130.963571 187.195462 
L 131.098007 186.957898 
L 131.503007 187.555427 
L 131.634907 186.905665 
L 131.769343 187.606401 
L 132.044134 186.502592 
L 132.313007 187.426104 
L 132.448288 187.245492 
L 132.582725 187.460401 
L 132.852443 186.920139 
L 132.986879 187.214656 
L 133.391879 187.099807 
L 133.526315 186.740156 
L 133.796033 187.276958 
L 133.931315 186.853747 
L 134.065751 187.01485 
L 134.200187 186.70051 
L 134.469905 187.068971 
L 134.605187 186.661807 
L 134.739623 187.002579 
L 134.874059 186.9966 
L 135.009341 186.835812 
L 135.143777 186.950975 
L 135.279059 187.560462 
L 135.414341 187.214971 
L 135.548777 187.669017 
L 135.684059 187.414147 
L 135.952931 187.802116 
L 136.088213 187.623707 
L 136.222649 188.101983 
L 136.357085 187.677828 
L 136.492367 188.120547 
L 136.625958 187.439005 
L 136.76124 188.075237 
L 136.895676 188.023004 
L 137.030112 187.582487 
L 137.164548 188.025207 
L 137.298985 188.019228 
L 137.568702 187.236367 
L 137.703984 187.66178 
L 137.842648 186.93713 
L 137.977084 186.932725 
L 138.112366 187.176268 
L 138.515675 186.552622 
L 138.650956 186.865074 
L 138.919829 186.200209 
L 139.189547 186.607058 
L 139.323983 187.085018 
L 139.458419 186.500704 
L 139.592856 186.991566 
L 139.728137 186.949087 
L 140.132292 186.472071 
L 140.266728 186.557027 
L 140.40201 186.444066 
L 140.537291 187.500363 
L 140.807009 186.876087 
L 140.941446 187.595388 
L 141.076727 187.240772 
L 141.212009 187.218117 
L 141.480881 187.526164 
L 141.616163 188.209594 
L 141.885036 187.631259 
L 142.28919 187.861586 
L 142.423626 188.010103 
L 142.558062 186.829204 
L 142.692499 186.796794 
L 142.962217 187.549449 
L 143.097498 186.757777 
L 143.23278 187.011389 
L 143.367216 186.838643 
L 143.636934 186.909755 
L 143.772216 186.701139 
L 143.907498 186.124692 
L 144.041934 186.255273 
L 144.177216 185.427417 
L 144.312498 185.341516 
L 144.446934 185.437486 
L 144.58137 184.368918 
L 144.715806 184.39472 
L 144.985524 182.344114 
L 145.11996 182.07477 
L 146.064396 172.779867 
L 147.007141 151.311913 
L 147.277704 150.158074 
L 147.412141 149.234876 
L 147.547422 149.4866 
L 147.81714 148.65308 
L 148.630522 143.774986 
L 148.899394 141.614881 
L 149.437985 135.909874 
L 150.111857 130.872566 
L 150.380729 129.989015 
L 150.516011 129.769071 
L 150.921011 127.81475 
L 151.054602 127.917013 
L 151.189883 127.530932 
L 151.594038 129.207098 
L 152.26791 133.555627 
L 152.807346 139.316013 
L 153.210654 143.27909 
L 154.829808 169.640555 
L 155.638962 181.979744 
L 156.312834 186.723794 
L 156.716988 187.883612 
L 156.851424 187.635979 
L 157.39086 189.320955 
L 157.525297 189.251417 
L 157.659733 189.557261 
L 157.794169 189.08874 
L 157.931142 189.447132 
L 158.065578 189.33008 
L 158.20086 189.363119 
L 158.469732 189.84045 
L 158.604168 189.566386 
L 158.874732 189.808985 
L 159.009168 189.551597 
L 159.68304 190.162342 
L 159.817477 189.853981 
L 159.952758 190.420359 
L 160.087195 190.392355 
L 160.221631 190.739419 
L 160.356913 190.766794 
L 160.491349 190.488954 
L 160.626631 190.728721 
L 160.761067 190.667678 
L 160.895503 190.474165 
L 161.030785 190.759872 
L 161.300503 190.61576 
L 161.569375 190.579889 
L 161.704657 190.341381 
L 161.839093 190.872518 
L 161.974375 190.513812 
L 162.107966 190.802979 
L 162.381911 190.847346 
L 162.517193 190.622682 
L 162.651629 190.725574 
L 162.786065 190.262402 
L 163.053247 190.540557 
L 163.322965 190.249187 
L 163.457401 191.04432 
L 163.592683 190.62048 
L 163.862401 190.810216 
L 163.996837 191.288806 
L 164.132119 190.705436 
L 164.267401 191.068233 
L 164.403528 191.067289 
L 164.6724 190.578001 
L 164.807682 191.052501 
L 164.942118 190.789449 
L 165.076555 191.026384 
L 165.346273 190.719596 
L 165.481554 190.826264 
L 165.751272 190.699773 
L 166.02099 191.00719 
L 166.155426 190.866854 
L 166.290708 191.21266 
L 166.425144 191.107565 
L 166.560426 190.853324 
L 166.694862 191.044949 
L 166.830144 190.804238 
L 166.96458 191.00782 
L 167.099017 190.768367 
L 167.233453 191.163259 
L 167.503171 190.413751 
L 167.638453 191.000583 
L 167.773734 190.450251 
L 168.043452 191.090889 
L 168.178734 190.753893 
L 168.31317 190.807385 
L 168.449298 190.379769 
L 168.582888 190.678691 
L 168.713097 190.354596 
L 168.981124 190.826264 
L 169.117251 189.985506 
L 169.251687 190.152903 
L 169.386124 190.928212 
L 169.52056 190.903984 
L 169.654996 190.596881 
L 169.924714 191.220841 
L 170.059996 191.003729 
L 170.194432 191.147841 
L 170.328868 190.438924 
L 170.463305 190.960621 
L 170.598586 190.175872 
L 170.733023 190.42382 
L 170.868304 190.15951 
L 171.002741 190.341066 
L 171.138022 190.273101 
L 171.272459 190.525769 
L 171.40774 190.308971 
L 171.542176 190.922234 
L 171.811894 190.724316 
L 171.948867 190.668622 
L 172.083303 190.236601 
L 172.218585 190.311174 
L 172.353021 190.541816 
L 172.488303 190.424764 
L 172.621894 190.582721 
L 172.757176 191.019777 
L 172.892457 190.843255 
L 173.027739 190.342639 
L 173.163021 190.939225 
L 173.568021 189.170865 
L 173.701611 188.376362 
L 173.971329 183.45988 
L 174.780483 161.785827 
L 174.915765 161.428065 
L 175.050201 162.722555 
L 175.455201 171.744967 
L 175.9921 186.278243 
L 176.263509 189.223727 
L 176.533227 189.856498 
L 176.667664 190.55629 
L 176.802945 189.67211 
L 177.072663 190.069834 
L 177.207945 189.885446 
L 177.342381 190.320299 
L 177.746536 189.858386 
L 177.881817 189.763045 
L 178.016254 190.079903 
L 178.15069 190.040256 
L 178.285972 189.634981 
L 178.421253 190.265864 
L 178.55569 190.063541 
L 178.690126 189.562925 
L 178.825407 190.138743 
L 178.959844 189.809929 
L 179.09428 189.828493 
L 179.228716 189.638442 
L 179.363998 190.031131 
L 179.498434 190.042459 
L 179.768152 188.76968 
L 180.038716 189.661412 
L 180.308434 189.228761 
L 180.44287 189.64914 
L 180.579843 189.067973 
L 180.849561 189.908416 
L 180.984842 189.413464 
L 181.25456 189.679032 
L 181.524278 189.067658 
L 181.929278 189.847373 
L 182.067096 189.811817 
L 182.202378 189.135938 
L 182.607378 189.551597 
L 182.741814 188.785098 
L 182.87625 189.251731 
L 183.011532 189.008188 
L 183.146814 189.363119 
L 183.282096 188.556344 
L 183.68625 189.015111 
L 183.955122 188.770624 
L 184.225686 189.241033 
L 184.495404 188.483973 
L 184.62984 188.594732 
L 184.765122 189.073951 
L 184.900403 188.7744 
L 185.035685 188.826003 
L 185.170967 188.09034 
L 185.306249 188.680003 
L 185.575967 188.373844 
L 185.711248 188.567672 
L 185.845685 188.128414 
L 186.385966 188.163026 
L 186.655684 188.726258 
L 186.790966 188.011047 
L 186.927093 188.143517 
L 187.062375 187.856237 
L 187.332938 188.2634 
L 187.46822 187.668074 
L 187.603502 187.911931 
L 187.737093 187.683806 
L 187.872374 188.230676 
L 188.142092 187.517354 
L 188.277374 188.146349 
L 188.547092 187.66178 
L 188.682374 187.621819 
L 188.81681 187.444669 
L 188.952092 187.069285 
L 189.086528 187.520815 
L 189.356246 187.235109 
L 189.490682 187.225669 
L 189.625964 187.098234 
L 189.7604 187.225354 
L 190.030118 186.519898 
L 190.1654 186.782006 
L 190.300682 186.774454 
L 190.435118 185.709662 
L 190.569554 185.794619 
L 190.704836 185.742071 
L 191.10899 184.806917 
L 191.513144 182.23367 
L 192.185325 170.720136 
L 192.724761 159.325541 
L 193.128916 155.362149 
L 193.263352 155.543705 
L 193.400325 155.887308 
L 193.535606 155.059766 
L 193.670888 155.243525 
L 193.941452 153.893341 
L 194.210324 153.867854 
L 194.480042 153.042829 
L 194.74976 151.744878 
L 194.885042 152.086278 
L 195.289196 150.237052 
L 195.423632 150.764413 
L 195.829477 149.261307 
L 195.963914 149.284906 
L 196.233632 148.944765 
L 196.50335 149.525617 
L 196.638631 149.547958 
L 197.447785 152.085964 
L 197.852785 152.653601 
L 197.988067 152.967626 
L 198.256094 153.987423 
L 198.39053 154.31309 
L 198.659402 156.196614 
L 198.794684 156.526058 
L 199.199684 158.71637 
L 199.33412 158.885339 
L 199.602993 159.770463 
L 200.007992 161.315104 
L 200.547428 164.989957 
L 200.815455 166.323779 
L 201.220455 169.201297 
L 201.759045 173.884934 
L 202.028763 177.444624 
L 202.837917 183.308846 
L 203.781508 185.346865 
L 204.051226 186.160877 
L 204.186507 186.127838 
L 204.320944 185.841188 
L 204.591507 186.283278 
L 204.725943 186.567726 
L 204.995661 186.201782 
L 205.266225 186.621846 
L 205.400661 186.546958 
L 205.535097 186.63695 
L 205.670379 186.911643 
L 205.804815 186.86004 
L 205.939251 186.540665 
L 206.074533 186.891191 
L 206.344251 186.373584 
L 206.479533 186.706488 
L 206.616506 186.654256 
L 206.885378 186.985587 
L 207.02066 186.974574 
L 207.155096 187.352475 
L 207.424814 186.616183 
L 207.694532 187.197035 
L 207.829814 186.602967 
L 208.099532 187.366634 
L 208.36925 186.516752 
L 208.503686 186.83235 
L 208.638122 186.242373 
L 208.910377 186.673764 
L 209.045659 186.277929 
L 209.179249 186.400015 
L 209.313685 186.371066 
L 209.448122 186.793333 
L 209.583403 186.443437 
L 209.718685 186.579683 
L 209.853121 185.75686 
L 209.987558 186.38617 
L 210.258121 186.144515 
L 210.393403 186.128468 
L 210.527839 186.276985 
L 210.663121 185.788011 
L 210.798403 185.730115 
L 211.068121 186.068054 
L 211.203402 185.632572 
L 211.742838 185.932752 
L 211.87812 185.499473 
L 212.012556 185.612434 
L 212.147838 186.049175 
L 212.417556 185.934955 
L 212.551992 186.073403 
L 212.758297 186.585346 
L 213.162451 185.567753 
L 213.296887 185.680399 
L 213.432169 185.556425 
L 213.566605 185.676938 
L 213.701887 185.993481 
L 213.836323 185.892476 
L 213.971605 185.462973 
L 214.241323 186.405678 
L 214.511041 185.565235 
L 214.646323 186.383338 
L 214.916041 185.485313 
L 215.051323 186.017394 
L 215.185759 185.572787 
L 215.455477 186.264084 
L 215.590759 185.854089 
L 215.859631 186.124377 
L 215.994067 186.294605 
L 216.129349 185.821994 
L 216.265476 186.050433 
L 216.399912 185.60677 
L 216.535194 186.046343 
L 216.670476 185.986873 
L 216.804912 185.545098 
L 217.073785 186.540665 
L 217.209066 185.77574 
L 217.343503 186.207446 
L 217.478784 186.101407 
L 217.882939 186.485915 
L 218.017375 186.923915 
L 218.152657 186.467351 
L 218.555965 186.771307 
L 218.690402 186.201153 
L 219.094556 186.90535 
L 219.49871 186.031239 
L 219.769273 186.529338 
L 220.038991 186.477105 
L 220.175964 186.207446 
L 220.311246 186.902204 
L 220.446528 186.217515 
L 220.580964 186.335196 
L 220.7154 186.667471 
L 220.850682 186.348097 
L 221.1204 187.247695 
L 221.254836 187.00132 
L 221.524554 187.039079 
L 221.659836 186.814415 
L 221.794272 186.861613 
L 221.929554 186.414803 
L 222.06399 186.806863 
L 222.199272 186.512661 
L 222.333708 186.944367 
L 222.468144 186.789243 
L 222.602581 187.093514 
L 222.737017 186.566782 
L 222.872298 186.763756 
L 223.141171 186.259679 
L 223.410889 186.902833 
L 223.546171 186.296808 
L 223.680607 186.222235 
L 223.815043 186.313485 
L 224.084761 186.065537 
L 224.219197 186.588808 
L 224.354479 186.574963 
L 224.488915 186.739213 
L 224.626734 186.508571 
L 224.762015 187.192001 
L 225.031733 186.536575 
L 225.167015 186.587864 
L 225.301451 186.465463 
L 225.435888 186.683833 
L 225.70476 185.989075 
L 225.840042 186.029037 
L 225.974478 185.860067 
L 226.108914 185.870765 
L 226.243351 186.306877 
L 226.377787 186.270062 
L 226.512223 186.434941 
L 226.646659 186.31726 
L 226.781941 186.991251 
L 227.050813 185.775425 
L 227.186095 185.859438 
L 227.320531 186.407566 
L 227.590249 185.741757 
L 227.993558 186.049489 
L 228.262431 185.619671 
L 228.397712 185.839614 
L 228.532994 185.846222 
L 228.801867 185.166253 
L 229.071585 185.644528 
L 229.341302 184.661232 
L 229.475739 185.271977 
L 229.745457 185.249322 
L 229.879893 185.25121 
L 230.148765 184.391258 
L 230.284047 184.95449 
L 230.418483 184.869219 
L 230.555456 184.502017 
L 230.689892 185.087904 
L 230.825174 184.44412 
L 230.95961 184.525931 
L 231.094047 184.790555 
L 231.229328 184.379616 
L 231.36461 184.9504 
L 231.499046 184.249664 
L 232.037637 184.631969 
L 232.172073 184.547327 
L 232.306509 184.321405 
L 232.440945 184.38056 
L 232.576227 184.589176 
L 232.710663 184.223233 
L 232.980381 184.308189 
L 233.249254 184.757831 
L 233.38369 184.14331 
L 233.518126 184.194599 
L 233.653408 184.726366 
L 233.923126 183.912354 
L 234.058408 183.85194 
L 234.192844 184.048914 
L 234.867562 183.836837 
L 235.001998 183.48694 
L 235.270871 183.971509 
L 235.811998 183.114704 
L 235.946434 183.427471 
L 236.081715 183.354156 
L 236.487561 182.418687 
L 236.621997 183.048941 
L 236.757279 182.531963 
L 237.295869 183.193053 
L 237.835305 182.571924 
L 238.239459 182.182382 
L 238.378123 181.956145 
L 238.512559 182.245627 
L 238.782277 181.537969 
L 239.05115 181.115387 
L 239.186432 181.116016 
L 239.321713 180.572922 
L 239.45615 180.689974 
L 239.591431 179.976337 
L 239.859458 180.476323 
L 240.398894 179.662626 
L 240.53333 180.211384 
L 240.667767 179.202915 
L 240.803048 179.744436 
L 241.072766 179.815548 
L 241.342484 179.641859 
L 241.746639 177.870037 
L 242.016357 175.338639 
L 242.286075 170.764817 
L 242.825511 160.724497 
L 243.094383 157.8775 
L 243.229665 157.778069 
L 243.364101 157.04335 
L 243.499383 157.21232 
L 243.633819 157.909909 
L 243.769101 157.23466 
L 243.903537 158.064405 
L 244.037973 157.274621 
L 244.173255 157.688707 
L 244.307691 156.920949 
L 244.442127 156.95682 
L 244.576564 157.231199 
L 244.715227 156.923152 
L 245.119382 153.65735 
L 245.253818 153.82097 
L 245.3891 151.882067 
L 245.523536 152.350274 
L 245.658818 152.335485 
L 245.792408 151.796481 
L 246.196563 152.62245 
L 247.004871 157.789082 
L 247.139307 158.42437 
L 247.948461 166.467576 
L 249.296206 178.442394 
L 249.70036 180.603129 
L 250.374232 183.127605 
L 250.508668 184.183272 
L 250.64395 183.409221 
L 250.778386 184.151806 
L 250.912822 183.904173 
L 251.048104 184.545125 
L 251.317822 184.230784 
L 251.586695 184.866072 
L 251.721976 185.477761 
L 251.856413 184.788353 
L 251.990849 184.754999 
L 252.126131 185.034413 
L 252.395849 184.548271 
L 252.529439 185.117167 
L 252.664721 184.689236 
L 252.934439 185.050146 
L 253.068875 184.775767 
L 253.204157 184.870163 
L 253.338593 185.124404 
L 253.473875 184.914529 
L 253.608311 185.254042 
L 253.742747 185.137934 
L 254.012465 185.505451 
L 254.146902 185.01868 
L 254.281338 185.532826 
L 254.415774 185.059271 
L 254.551056 185.799968 
L 254.685492 185.042279 
L 254.819928 185.430249 
L 255.224083 185.294318 
L 255.498028 185.71627 
L 255.63331 185.090736 
L 255.767746 185.524645 
L 255.902182 185.283305 
L 256.037464 185.726339 
L 256.306337 184.47653 
L 256.441618 185.60677 
L 256.576055 185.148632 
L 256.710491 185.816015 
L 256.9819 185.238938 
L 257.251618 184.986271 
L 257.386899 185.482796 
L 257.521336 185.355361 
L 257.656617 185.062417 
L 257.926335 185.286451 
L 258.061617 185.107413 
L 258.331335 185.567123 
L 258.466617 185.596701 
L 258.601053 185.465175 
L 258.736335 185.970196 
L 259.006053 185.683231 
L 259.274925 185.810037 
L 259.544643 185.131956 
L 259.679925 186.219717 
L 259.949643 185.478705 
L 260.084079 186.433053 
L 260.219361 185.468636 
L 260.353797 185.644843 
L 260.757951 185.352843 
L 260.893233 185.36543 
L 261.297387 186.091024 
L 261.431824 185.697705 
L 261.567105 185.702425 
L 261.69816 186.568984 
L 261.832596 185.849054 
L 262.102314 185.906951 
L 262.371186 186.052006 
L 262.506468 185.778257 
L 262.64175 185.924886 
L 262.776186 185.867933 
L 262.910622 186.102981 
L 263.313931 185.302184 
L 263.448367 185.354731 
L 263.582803 185.742386 
L 263.718085 185.692985 
L 263.852521 185.916076 
L 264.257521 185.36071 
L 264.391957 185.003577 
L 264.527239 185.440947 
L 264.662521 185.325468 
L 264.796957 185.564921 
L 264.931393 185.513317 
L 265.066675 185.128495 
L 265.335548 185.468951 
L 265.470829 185.387141 
L 265.740547 185.710921 
L 265.874984 185.060529 
L 266.010265 185.7298 
L 266.279983 185.239253 
L 266.414419 185.191426 
L 266.684137 185.6933 
L 266.819419 185.170344 
L 267.089137 185.528735 
L 267.224419 185.327986 
L 267.358855 184.889672 
L 267.494137 185.327042 
L 267.759627 185.044167 
L 267.894064 185.686063 
L 268.167164 185.438744 
L 268.302445 185.400986 
L 268.573009 185.523701 
L 268.702372 185.414516 
L 268.836808 185.77102 
L 268.971244 185.694244 
L 269.106526 185.36952 
L 269.240962 185.805002 
L 269.375399 185.676309 
L 269.51068 185.902545 
L 269.645962 185.580654 
L 269.914835 186.207761 
L 270.049271 185.865731 
L 270.184553 185.939675 
L 270.318989 185.686378 
L 270.454271 186.019597 
L 270.588707 185.900972 
L 270.723143 186.227269 
L 271.127297 185.91167 
L 271.261734 185.710921 
L 271.532297 186.118084 
L 271.667579 186.458855 
L 271.936451 185.899084 
L 272.070887 186.210907 
L 272.205324 185.563033 
L 272.340605 185.695817 
L 272.475887 185.36952 
L 272.610323 185.916705 
L 272.745605 185.095141 
L 273.014478 185.545727 
L 273.148914 184.743357 
L 273.28335 185.304701 
L 273.691732 184.794331 
L 273.826168 185.290227 
L 273.960604 184.693012 
L 274.095886 184.716926 
L 274.230322 185.301869 
L 274.364759 184.795904 
L 274.50004 184.867016 
L 274.768913 184.818245 
L 274.904195 185.047314 
L 275.038631 185.055809 
L 275.177295 184.483452 
L 275.311731 185.184503 
L 275.581449 184.887469 
L 275.716731 184.81793 
L 276.12173 184.171 
L 276.390603 184.237392 
L 276.525039 184.265396 
L 276.660321 183.977173 
L 276.794757 183.974341 
L 276.930039 184.288996 
L 277.198066 183.867673 
L 277.333347 184.453245 
L 277.736656 183.981892 
L 278.276092 183.801281 
L 278.409683 183.549557 
L 278.680246 184.376784 
L 278.814683 184.455133 
L 279.084401 183.919276 
L 279.218837 184.709374 
L 279.488555 184.036642 
L 279.758273 184.313853 
L 279.892709 183.706884 
L 280.027991 183.761949 
L 280.296863 184.420521 
L 280.567427 183.761634 
L 280.701863 184.136703 
L 280.836299 184.127892 
L 281.375735 183.37335 
L 281.510171 182.632967 
L 281.644608 182.685515 
L 281.779044 182.07414 
L 281.914326 182.102774 
L 282.31848 181.784973 
L 283.397352 174.82764 
L 284.071224 163.860347 
L 284.340942 162.189215 
L 284.476224 161.868267 
L 284.611505 162.109607 
L 284.745942 161.759396 
L 284.880378 162.378322 
L 285.014814 162.263473 
L 285.285378 163.083149 
L 285.420659 163.163701 
L 285.555096 162.871387 
L 285.689532 162.85943 
L 285.962632 162.28896 
L 286.23235 160.669432 
L 286.501222 159.586705 
L 286.905376 156.686217 
L 287.309531 154.982676 
L 287.448194 154.747629 
L 287.583476 154.91534 
L 287.718758 154.696655 
L 287.98763 155.864339 
L 288.256503 155.492102 
L 288.525375 156.435437 
L 288.659812 156.302023 
L 288.795093 156.333489 
L 289.064811 156.640277 
L 289.198402 156.717682 
L 289.603402 157.398595 
L 289.737838 158.191526 
L 289.87312 158.220159 
L 290.142838 160.791833 
L 290.41171 162.203689 
L 291.490582 169.370582 
L 291.7603 171.517157 
L 292.704736 179.041183 
L 292.839172 178.840747 
L 293.513044 182.02411 
L 293.648326 182.205037 
L 293.918044 183.264794 
L 294.05248 183.337794 
L 294.453252 184.511771 
L 294.587689 183.878371 
L 294.722125 184.126004 
L 294.857407 184.74556 
L 294.991843 184.796219 
L 295.262406 184.429646 
L 295.534661 184.969909 
L 295.665715 184.79087 
L 295.800151 185.045111 
L 295.935433 184.696159 
L 296.069869 184.910753 
L 296.205151 184.682314 
L 296.339587 184.820762 
L 296.474869 185.34655 
L 296.609305 184.846879 
L 296.742896 185.045426 
L 296.877332 184.949141 
L 297.012614 185.039133 
L 297.147896 185.483111 
L 297.283177 185.544154 
L 297.689023 186.234821 
L 297.823459 185.867304 
L 297.958741 186.302472 
L 298.229304 185.54258 
L 298.364586 186.105812 
L 298.499022 185.762209 
L 298.634304 186.066795 
L 298.769586 186.061761 
L 298.904022 186.679113 
L 299.038458 186.318834 
L 299.17374 186.305304 
L 299.580431 187.122777 
L 299.714867 186.754316 
L 299.984585 187.032785 
L 300.119021 186.711838 
L 300.254303 186.684777 
L 300.389584 187.342406 
L 300.793739 186.896855 
L 300.928175 187.007613 
L 301.062611 186.853432 
L 301.197893 186.959786 
L 301.333175 186.745191 
L 301.602893 187.225354 
L 301.737329 186.882695 
L 301.871765 187.138824 
L 302.140638 186.733863 
L 302.410356 187.180988 
L 302.545637 187.027122 
L 302.680919 187.130014 
L 302.81451 187.976121 
L 302.949792 187.399358 
L 303.21951 187.481169 
L 303.353946 186.925174 
L 303.758945 187.72597 
L 304.028663 188.104185 
L 304.297536 187.388345 
L 304.432818 188.105129 
L 304.567254 188.147293 
L 304.702536 187.214656 
L 304.836972 188.100409 
L 304.972254 187.661151 
L 305.107535 187.94434 
L 305.376408 187.584375 
L 305.51169 188.139741 
L 305.647817 187.764987 
L 305.783099 188.240431 
L 306.052817 187.313143 
L 306.32338 187.72125 
L 306.591407 187.267203 
L 306.726689 187.755862 
L 306.861125 187.38394 
L 307.135071 187.675625 
L 307.269507 187.888017 
L 307.404789 187.205531 
L 307.539225 187.697022 
L 307.673661 187.245492 
L 307.943379 187.776 
L 308.211406 187.419811 
L 308.346688 187.617729 
L 308.481124 188.159879 
L 308.61556 187.48872 
L 308.885278 188.137539 
L 309.02056 187.909728 
L 309.154996 187.465436 
L 309.290278 187.953465 
L 309.559996 187.695134 
L 309.695278 188.290146 
L 309.829714 187.302445 
L 310.099432 187.237311 
L 310.099432 187.237311 
" clip-path="url(#pf35c9aa21a)" style="fill: none; stroke: #1f77b4; stroke-width: 1.5; stroke-linecap: square"/>
   </g>
   <g id="patch_3">
    <path d="M 43.78125 198.8355 
L 43.78125 35.7555 
" style="fill: none; stroke: #000000; stroke-width: 0.8; stroke-linejoin: miter; stroke-linecap: square"/>
   </g>
   <g id="patch_4">
    <path d="M 322.78125 198.8355 
L 322.78125 35.7555 
" style="fill: none; stroke: #000000; stroke-width: 0.8; stroke-linejoin: miter; stroke-linecap: square"/>
   </g>
   <g id="patch_5">
    <path d="M 43.78125 198.8355 
L 322.78125 198.8355 
" style="fill: none; stroke: #000000; stroke-width: 0.8; stroke-linejoin: miter; stroke-linecap: square"/>
   </g>
   <g id="patch_6">
    <path d="M 43.78125 35.7555 
L 322.78125 35.7555 
" style="fill: none; stroke: #000000; stroke-width: 0.8; stroke-linejoin: miter; stroke-linecap: square"/>
   </g>
   <g id="text_16">
    <!-- After equalize -->
    <g transform="translate(141.814687 16.318125)scale(0.12 -0.12)">
     <defs>
      <path id="DejaVuSans-41" d="M 2188 4044 
L 1331 1722 
L 3047 1722 
L 2188 4044 
z
M 1831 4666 
L 2547 4666 
L 4325 0 
L 3669 0 
L 3244 1197 
L 1141 1197 
L 716 0 
L 50 0 
L 1831 4666 
z
" transform="scale(0.015625)"/>
      <path id="DejaVuSans-66" d="M 2375 4863 
L 2375 4384 
L 1825 4384 
Q 1516 4384 1395 4259 
Q 1275 4134 1275 3809 
L 1275 3500 
L 2222 3500 
L 2222 3053 
L 1275 3053 
L 1275 0 
L 697 0 
L 697 3053 
L 147 3053 
L 147 3500 
L 697 3500 
L 697 3744 
Q 697 4328 969 4595 
Q 1241 4863 1831 4863 
L 2375 4863 
z
" transform="scale(0.015625)"/>
      <path id="DejaVuSans-74" d="M 1172 4494 
L 1172 3500 
L 2356 3500 
L 2356 3053 
L 1172 3053 
L 1172 1153 
Q 1172 725 1289 603 
Q 1406 481 1766 481 
L 2356 481 
L 2356 0 
L 1766 0 
Q 1100 0 847 248 
Q 594 497 594 1153 
L 594 3053 
L 172 3053 
L 172 3500 
L 594 3500 
L 594 4494 
L 1172 4494 
z
" transform="scale(0.015625)"/>
      <path id="DejaVuSans-72" d="M 2631 2963 
Q 2534 3019 2420 3045 
Q 2306 3072 2169 3072 
Q 1681 3072 1420 2755 
Q 1159 2438 1159 1844 
L 1159 0 
L 581 0 
L 581 3500 
L 1159 3500 
L 1159 2956 
Q 1341 3275 1631 3429 
Q 1922 3584 2338 3584 
Q 2397 3584 2469 3576 
Q 2541 3569 2628 3553 
L 2631 2963 
z
" transform="scale(0.015625)"/>
      <path id="DejaVuSans-71" d="M 947 1747 
Q 947 1113 1208 752 
Q 1469 391 1925 391 
Q 2381 391 2643 752 
Q 2906 1113 2906 1747 
Q 2906 2381 2643 2742 
Q 2381 3103 1925 3103 
Q 1469 3103 1208 2742 
Q 947 2381 947 1747 
z
M 2906 525 
Q 2725 213 2448 61 
Q 2172 -91 1784 -91 
Q 1150 -91 751 415 
Q 353 922 353 1747 
Q 353 2572 751 3078 
Q 1150 3584 1784 3584 
Q 2172 3584 2448 3432 
Q 2725 3281 2906 2969 
L 2906 3500 
L 3481 3500 
L 3481 -1331 
L 2906 -1331 
L 2906 525 
z
" transform="scale(0.015625)"/>
      <path id="DejaVuSans-75" d="M 544 1381 
L 544 3500 
L 1119 3500 
L 1119 1403 
Q 1119 906 1312 657 
Q 1506 409 1894 409 
Q 2359 409 2629 706 
Q 2900 1003 2900 1516 
L 2900 3500 
L 3475 3500 
L 3475 0 
L 2900 0 
L 2900 538 
Q 2691 219 2414 64 
Q 2138 -91 1772 -91 
Q 1169 -91 856 284 
Q 544 659 544 1381 
z
M 1991 3584 
L 1991 3584 
z
" transform="scale(0.015625)"/>
      <path id="DejaVuSans-61" d="M 2194 1759 
Q 1497 1759 1228 1600 
Q 959 1441 959 1056 
Q 959 750 1161 570 
Q 1363 391 1709 391 
Q 2188 391 2477 730 
Q 2766 1069 2766 1631 
L 2766 1759 
L 2194 1759 
z
M 3341 1997 
L 3341 0 
L 2766 0 
L 2766 531 
Q 2569 213 2275 61 
Q 1981 -91 1556 -91 
Q 1019 -91 701 211 
Q 384 513 384 1019 
Q 384 1609 779 1909 
Q 1175 2209 1959 2209 
L 2766 2209 
L 2766 2266 
Q 2766 2663 2505 2880 
Q 2244 3097 1772 3097 
Q 1472 3097 1187 3025 
Q 903 2953 641 2809 
L 641 3341 
Q 956 3463 1253 3523 
Q 1550 3584 1831 3584 
Q 2591 3584 2966 3190 
Q 3341 2797 3341 1997 
z
" transform="scale(0.015625)"/>
      <path id="DejaVuSans-6c" d="M 603 4863 
L 1178 4863 
L 1178 0 
L 603 0 
L 603 4863 
z
" transform="scale(0.015625)"/>
      <path id="DejaVuSans-7a" d="M 353 3500 
L 3084 3500 
L 3084 2975 
L 922 459 
L 3084 459 
L 3084 0 
L 275 0 
L 275 525 
L 2438 3041 
L 353 3041 
L 353 3500 
z
" transform="scale(0.015625)"/>
     </defs>
     <use xlink:href="#DejaVuSans-41"/>
     <use xlink:href="#DejaVuSans-66" x="64.783203"/>
     <use xlink:href="#DejaVuSans-74" x="98.238281"/>
     <use xlink:href="#DejaVuSans-65" x="137.447266"/>
     <use xlink:href="#DejaVuSans-72" x="198.970703"/>
     <use xlink:href="#DejaVuSans-20" x="240.083984"/>
     <use xlink:href="#DejaVuSans-65" x="271.871094"/>
     <use xlink:href="#DejaVuSans-71" x="333.394531"/>
     <use xlink:href="#DejaVuSans-75" x="396.871094"/>
     <use xlink:href="#DejaVuSans-61" x="460.25"/>
     <use xlink:href="#DejaVuSans-6c" x="521.529297"/>
     <use xlink:href="#DejaVuSans-69" x="549.3125"/>
     <use xlink:href="#DejaVuSans-7a" x="577.095703"/>
     <use xlink:href="#DejaVuSans-65" x="629.585938"/>
    </g>
    <!-- NTR_C3_005_crop - Intensity Equalized, ROI=14 -->
    <g transform="translate(39.185625 29.7555)scale(0.12 -0.12)">
     <defs>
      <path id="DejaVuSans-4e" d="M 628 4666 
L 1478 4666 
L 3547 763 
L 3547 4666 
L 4159 4666 
L 4159 0 
L 3309 0 
L 1241 3903 
L 1241 0 
L 628 0 
L 628 4666 
z
" transform="scale(0.015625)"/>
      <path id="DejaVuSans-52" d="M 2841 2188 
Q 3044 2119 3236 1894 
Q 3428 1669 3622 1275 
L 4263 0 
L 3584 0 
L 2988 1197 
Q 2756 1666 2539 1819 
Q 2322 1972 1947 1972 
L 1259 1972 
L 1259 0 
L 628 0 
L 628 4666 
L 2053 4666 
Q 2853 4666 3247 4331 
Q 3641 3997 3641 3322 
Q 3641 2881 3436 2590 
Q 3231 2300 2841 2188 
z
M 1259 4147 
L 1259 2491 
L 2053 2491 
Q 2509 2491 2742 2702 
Q 2975 2913 2975 3322 
Q 2975 3731 2742 3939 
Q 2509 4147 2053 4147 
L 1259 4147 
z
" transform="scale(0.015625)"/>
      <path id="DejaVuSans-5f" d="M 3263 -1063 
L 3263 -1509 
L -63 -1509 
L -63 -1063 
L 3263 -1063 
z
" transform="scale(0.015625)"/>
      <path id="DejaVuSans-43" d="M 4122 4306 
L 4122 3641 
Q 3803 3938 3442 4084 
Q 3081 4231 2675 4231 
Q 1875 4231 1450 3742 
Q 1025 3253 1025 2328 
Q 1025 1406 1450 917 
Q 1875 428 2675 428 
Q 3081 428 3442 575 
Q 3803 722 4122 1019 
L 4122 359 
Q 3791 134 3420 21 
Q 3050 -91 2638 -91 
Q 1578 -91 968 557 
Q 359 1206 359 2328 
Q 359 3453 968 4101 
Q 1578 4750 2638 4750 
Q 3056 4750 3426 4639 
Q 3797 4528 4122 4306 
z
" transform="scale(0.015625)"/>
      <path id="DejaVuSans-63" d="M 3122 3366 
L 3122 2828 
Q 2878 2963 2633 3030 
Q 2388 3097 2138 3097 
Q 1578 3097 1268 2742 
Q 959 2388 959 1747 
Q 959 1106 1268 751 
Q 1578 397 2138 397 
Q 2388 397 2633 464 
Q 2878 531 3122 666 
L 3122 134 
Q 2881 22 2623 -34 
Q 2366 -91 2075 -91 
Q 1284 -91 818 406 
Q 353 903 353 1747 
Q 353 2603 823 3093 
Q 1294 3584 2113 3584 
Q 2378 3584 2631 3529 
Q 2884 3475 3122 3366 
z
" transform="scale(0.015625)"/>
      <path id="DejaVuSans-6f" d="M 1959 3097 
Q 1497 3097 1228 2736 
Q 959 2375 959 1747 
Q 959 1119 1226 758 
Q 1494 397 1959 397 
Q 2419 397 2687 759 
Q 2956 1122 2956 1747 
Q 2956 2369 2687 2733 
Q 2419 3097 1959 3097 
z
M 1959 3584 
Q 2709 3584 3137 3096 
Q 3566 2609 3566 1747 
Q 3566 888 3137 398 
Q 2709 -91 1959 -91 
Q 1206 -91 779 398 
Q 353 888 353 1747 
Q 353 2609 779 3096 
Q 1206 3584 1959 3584 
z
" transform="scale(0.015625)"/>
      <path id="DejaVuSans-70" d="M 1159 525 
L 1159 -1331 
L 581 -1331 
L 581 3500 
L 1159 3500 
L 1159 2969 
Q 1341 3281 1617 3432 
Q 1894 3584 2278 3584 
Q 2916 3584 3314 3078 
Q 3713 2572 3713 1747 
Q 3713 922 3314 415 
Q 2916 -91 2278 -91 
Q 1894 -91 1617 61 
Q 1341 213 1159 525 
z
M 3116 1747 
Q 3116 2381 2855 2742 
Q 2594 3103 2138 3103 
Q 1681 3103 1420 2742 
Q 1159 2381 1159 1747 
Q 1159 1113 1420 752 
Q 1681 391 2138 391 
Q 2594 391 2855 752 
Q 3116 1113 3116 1747 
z
" transform="scale(0.015625)"/>
      <path id="DejaVuSans-49" d="M 628 4666 
L 1259 4666 
L 1259 0 
L 628 0 
L 628 4666 
z
" transform="scale(0.015625)"/>
      <path id="DejaVuSans-6e" d="M 3513 2113 
L 3513 0 
L 2938 0 
L 2938 2094 
Q 2938 2591 2744 2837 
Q 2550 3084 2163 3084 
Q 1697 3084 1428 2787 
Q 1159 2491 1159 1978 
L 1159 0 
L 581 0 
L 581 3500 
L 1159 3500 
L 1159 2956 
Q 1366 3272 1645 3428 
Q 1925 3584 2291 3584 
Q 2894 3584 3203 3211 
Q 3513 2838 3513 2113 
z
" transform="scale(0.015625)"/>
      <path id="DejaVuSans-79" d="M 2059 -325 
Q 1816 -950 1584 -1140 
Q 1353 -1331 966 -1331 
L 506 -1331 
L 506 -850 
L 844 -850 
Q 1081 -850 1212 -737 
Q 1344 -625 1503 -206 
L 1606 56 
L 191 3500 
L 800 3500 
L 1894 763 
L 2988 3500 
L 3597 3500 
L 2059 -325 
z
" transform="scale(0.015625)"/>
      <path id="DejaVuSans-45" d="M 628 4666 
L 3578 4666 
L 3578 4134 
L 1259 4134 
L 1259 2753 
L 3481 2753 
L 3481 2222 
L 1259 2222 
L 1259 531 
L 3634 531 
L 3634 0 
L 628 0 
L 628 4666 
z
" transform="scale(0.015625)"/>
      <path id="DejaVuSans-64" d="M 2906 2969 
L 2906 4863 
L 3481 4863 
L 3481 0 
L 2906 0 
L 2906 525 
Q 2725 213 2448 61 
Q 2172 -91 1784 -91 
Q 1150 -91 751 415 
Q 353 922 353 1747 
Q 353 2572 751 3078 
Q 1150 3584 1784 3584 
Q 2172 3584 2448 3432 
Q 2725 3281 2906 2969 
z
M 947 1747 
Q 947 1113 1208 752 
Q 1469 391 1925 391 
Q 2381 391 2643 752 
Q 2906 1113 2906 1747 
Q 2906 2381 2643 2742 
Q 2381 3103 1925 3103 
Q 1469 3103 1208 2742 
Q 947 2381 947 1747 
z
" transform="scale(0.015625)"/>
      <path id="DejaVuSans-2c" d="M 750 794 
L 1409 794 
L 1409 256 
L 897 -744 
L 494 -744 
L 750 256 
L 750 794 
z
" transform="scale(0.015625)"/>
      <path id="DejaVuSans-4f" d="M 2522 4238 
Q 1834 4238 1429 3725 
Q 1025 3213 1025 2328 
Q 1025 1447 1429 934 
Q 1834 422 2522 422 
Q 3209 422 3611 934 
Q 4013 1447 4013 2328 
Q 4013 3213 3611 3725 
Q 3209 4238 2522 4238 
z
M 2522 4750 
Q 3503 4750 4090 4092 
Q 4678 3434 4678 2328 
Q 4678 1225 4090 567 
Q 3503 -91 2522 -91 
Q 1538 -91 948 565 
Q 359 1222 359 2328 
Q 359 3434 948 4092 
Q 1538 4750 2522 4750 
z
" transform="scale(0.015625)"/>
      <path id="DejaVuSans-3d" d="M 678 2906 
L 4684 2906 
L 4684 2381 
L 678 2381 
L 678 2906 
z
M 678 1631 
L 4684 1631 
L 4684 1100 
L 678 1100 
L 678 1631 
z
" transform="scale(0.015625)"/>
     </defs>
     <use xlink:href="#DejaVuSans-4e"/>
     <use xlink:href="#DejaVuSans-54" x="74.804688"/>
     <use xlink:href="#DejaVuSans-52" x="135.888672"/>
     <use xlink:href="#DejaVuSans-5f" x="205.371094"/>
     <use xlink:href="#DejaVuSans-43" x="255.371094"/>
     <use xlink:href="#DejaVuSans-33" x="325.195312"/>
     <use xlink:href="#DejaVuSans-5f" x="388.818359"/>
     <use xlink:href="#DejaVuSans-30" x="438.818359"/>
     <use xlink:href="#DejaVuSans-30" x="502.441406"/>
     <use xlink:href="#DejaVuSans-35" x="566.064453"/>
     <use xlink:href="#DejaVuSans-5f" x="629.6875"/>
     <use xlink:href="#DejaVuSans-63" x="679.6875"/>
     <use xlink:href="#DejaVuSans-72" x="734.667969"/>
     <use xlink:href="#DejaVuSans-6f" x="773.53125"/>
     <use xlink:href="#DejaVuSans-70" x="834.712891"/>
     <use xlink:href="#DejaVuSans-20" x="898.189453"/>
     <use xlink:href="#DejaVuSans-2d" x="929.976562"/>
     <use xlink:href="#DejaVuSans-20" x="966.060547"/>
     <use xlink:href="#DejaVuSans-49" x="997.847656"/>
     <use xlink:href="#DejaVuSans-6e" x="1027.339844"/>
     <use xlink:href="#DejaVuSans-74" x="1090.71875"/>
     <use xlink:href="#DejaVuSans-65" x="1129.927734"/>
     <use xlink:href="#DejaVuSans-6e" x="1191.451172"/>
     <use xlink:href="#DejaVuSans-73" x="1254.830078"/>
     <use xlink:href="#DejaVuSans-69" x="1306.929688"/>
     <use xlink:href="#DejaVuSans-74" x="1334.712891"/>
     <use xlink:href="#DejaVuSans-79" x="1373.921875"/>
     <use xlink:href="#DejaVuSans-20" x="1433.101562"/>
     <use xlink:href="#DejaVuSans-45" x="1464.888672"/>
     <use xlink:href="#DejaVuSans-71" x="1528.072266"/>
     <use xlink:href="#DejaVuSans-75" x="1591.548828"/>
     <use xlink:href="#DejaVuSans-61" x="1654.927734"/>
     <use xlink:href="#DejaVuSans-6c" x="1716.207031"/>
     <use xlink:href="#DejaVuSans-69" x="1743.990234"/>
     <use xlink:href="#DejaVuSans-7a" x="1771.773438"/>
     <use xlink:href="#DejaVuSans-65" x="1824.263672"/>
     <use xlink:href="#DejaVuSans-64" x="1885.787109"/>
     <use xlink:href="#DejaVuSans-2c" x="1949.263672"/>
     <use xlink:href="#DejaVuSans-20" x="1981.050781"/>
     <use xlink:href="#DejaVuSans-52" x="2012.837891"/>
     <use xlink:href="#DejaVuSans-4f" x="2082.320312"/>
     <use xlink:href="#DejaVuSans-49" x="2161.03125"/>
     <use xlink:href="#DejaVuSans-3d" x="2190.523438"/>
     <use xlink:href="#DejaVuSans-31" x="2274.3125"/>
     <use xlink:href="#DejaVuSans-34" x="2337.935547"/>
    </g>
   </g>
  </g>
 </g>
 <defs>
  <clipPath id="pf35c9aa21a">
   <rect x="43.78125" y="35.7555" width="279" height="163.08"/>
  </clipPath>
 </defs>
</svg>
