<?xml version="1.0" encoding="utf-8" standalone="no"?>
<!DOCTYPE svg PUBLIC "-//W3C//DTD SVG 1.1//EN"
  "http://www.w3.org/Graphics/SVG/1.1/DTD/svg11.dtd">
<svg xmlns:xlink="http://www.w3.org/1999/xlink" width="330.759375pt" height="236.39175pt" viewBox="0 0 330.759375 236.39175" xmlns="http://www.w3.org/2000/svg" version="1.1">
 <metadata>
  <rdf:RDF xmlns:dc="http://purl.org/dc/elements/1.1/" xmlns:cc="http://creativecommons.org/ns#" xmlns:rdf="http://www.w3.org/1999/02/22-rdf-syntax-ns#">
   <cc:Work>
    <dc:type rdf:resource="http://purl.org/dc/dcmitype/StillImage"/>
    <dc:date>2025-01-27T16:06:41.253476</dc:date>
    <dc:format>image/svg+xml</dc:format>
    <dc:creator>
     <cc:Agent>
      <dc:title>Matplotlib v3.5.2, https://matplotlib.org/</dc:title>
     </cc:Agent>
    </dc:creator>
   </cc:Work>
  </rdf:RDF>
 </metadata>
 <defs>
  <style type="text/css">*{stroke-linejoin: round; stroke-linecap: butt}</style>
 </defs>
 <g id="figure_1">
  <g id="patch_1">
   <path d="M 0 236.39175 
L 330.759375 236.39175 
L 330.759375 0 
L 0 0 
L 0 236.39175 
z
" style="fill: none"/>
  </g>
  <g id="axes_1">
   <g id="patch_2">
    <path d="M 43.78125 198.8355 
L 322.78125 198.8355 
L 322.78125 35.7555 
L 43.78125 35.7555 
z
" style="fill: #ffffff"/>
   </g>
   <g id="matplotlib.axis_1">
    <g id="xtick_1">
     <g id="line2d_1">
      <defs>
       <path id="mc013f482cf" d="M 0 0 
L 0 3.5 
" style="stroke: #000000; stroke-width: 0.8"/>
      </defs>
      <g>
       <use xlink:href="#mc013f482cf" x="56.427557" y="198.8355" style="stroke: #000000; stroke-width: 0.8"/>
      </g>
     </g>
     <g id="text_1">
      <!-- 0 -->
      <g transform="translate(53.246307 213.433938)scale(0.1 -0.1)">
       <defs>
        <path id="DejaVuSans-30" d="M 2034 4250 
Q 1547 4250 1301 3770 
Q 1056 3291 1056 2328 
Q 1056 1369 1301 889 
Q 1547 409 2034 409 
Q 2525 409 2770 889 
Q 3016 1369 3016 2328 
Q 3016 3291 2770 3770 
Q 2525 4250 2034 4250 
z
M 2034 4750 
Q 2819 4750 3233 4129 
Q 3647 3509 3647 2328 
Q 3647 1150 3233 529 
Q 2819 -91 2034 -91 
Q 1250 -91 836 529 
Q 422 1150 422 2328 
Q 422 3509 836 4129 
Q 1250 4750 2034 4750 
z
" transform="scale(0.015625)"/>
       </defs>
       <use xlink:href="#DejaVuSans-30"/>
      </g>
     </g>
    </g>
    <g id="xtick_2">
     <g id="line2d_2">
      <g>
       <use xlink:href="#mc013f482cf" x="98.703102" y="198.8355" style="stroke: #000000; stroke-width: 0.8"/>
      </g>
     </g>
     <g id="text_2">
      <!-- 50 -->
      <g transform="translate(92.340602 213.433938)scale(0.1 -0.1)">
       <defs>
        <path id="DejaVuSans-35" d="M 691 4666 
L 3169 4666 
L 3169 4134 
L 1269 4134 
L 1269 2991 
Q 1406 3038 1543 3061 
Q 1681 3084 1819 3084 
Q 2600 3084 3056 2656 
Q 3513 2228 3513 1497 
Q 3513 744 3044 326 
Q 2575 -91 1722 -91 
Q 1428 -91 1123 -41 
Q 819 9 494 109 
L 494 744 
Q 775 591 1075 516 
Q 1375 441 1709 441 
Q 2250 441 2565 725 
Q 2881 1009 2881 1497 
Q 2881 1984 2565 2268 
Q 2250 2553 1709 2553 
Q 1456 2553 1204 2497 
Q 953 2441 691 2322 
L 691 4666 
z
" transform="scale(0.015625)"/>
       </defs>
       <use xlink:href="#DejaVuSans-35"/>
       <use xlink:href="#DejaVuSans-30" x="63.623047"/>
      </g>
     </g>
    </g>
    <g id="xtick_3">
     <g id="line2d_3">
      <g>
       <use xlink:href="#mc013f482cf" x="140.978648" y="198.8355" style="stroke: #000000; stroke-width: 0.8"/>
      </g>
     </g>
     <g id="text_3">
      <!-- 100 -->
      <g transform="translate(131.434898 213.433938)scale(0.1 -0.1)">
       <defs>
        <path id="DejaVuSans-31" d="M 794 531 
L 1825 531 
L 1825 4091 
L 703 3866 
L 703 4441 
L 1819 4666 
L 2450 4666 
L 2450 531 
L 3481 531 
L 3481 0 
L 794 0 
L 794 531 
z
" transform="scale(0.015625)"/>
       </defs>
       <use xlink:href="#DejaVuSans-31"/>
       <use xlink:href="#DejaVuSans-30" x="63.623047"/>
       <use xlink:href="#DejaVuSans-30" x="127.246094"/>
      </g>
     </g>
    </g>
    <g id="xtick_4">
     <g id="line2d_4">
      <g>
       <use xlink:href="#mc013f482cf" x="183.254194" y="198.8355" style="stroke: #000000; stroke-width: 0.8"/>
      </g>
     </g>
     <g id="text_4">
      <!-- 150 -->
      <g transform="translate(173.710444 213.433938)scale(0.1 -0.1)">
       <use xlink:href="#DejaVuSans-31"/>
       <use xlink:href="#DejaVuSans-35" x="63.623047"/>
       <use xlink:href="#DejaVuSans-30" x="127.246094"/>
      </g>
     </g>
    </g>
    <g id="xtick_5">
     <g id="line2d_5">
      <g>
       <use xlink:href="#mc013f482cf" x="225.529739" y="198.8355" style="stroke: #000000; stroke-width: 0.8"/>
      </g>
     </g>
     <g id="text_5">
      <!-- 200 -->
      <g transform="translate(215.985989 213.433938)scale(0.1 -0.1)">
       <defs>
        <path id="DejaVuSans-32" d="M 1228 531 
L 3431 531 
L 3431 0 
L 469 0 
L 469 531 
Q 828 903 1448 1529 
Q 2069 2156 2228 2338 
Q 2531 2678 2651 2914 
Q 2772 3150 2772 3378 
Q 2772 3750 2511 3984 
Q 2250 4219 1831 4219 
Q 1534 4219 1204 4116 
Q 875 4013 500 3803 
L 500 4441 
Q 881 4594 1212 4672 
Q 1544 4750 1819 4750 
Q 2544 4750 2975 4387 
Q 3406 4025 3406 3419 
Q 3406 3131 3298 2873 
Q 3191 2616 2906 2266 
Q 2828 2175 2409 1742 
Q 1991 1309 1228 531 
z
" transform="scale(0.015625)"/>
       </defs>
       <use xlink:href="#DejaVuSans-32"/>
       <use xlink:href="#DejaVuSans-30" x="63.623047"/>
       <use xlink:href="#DejaVuSans-30" x="127.246094"/>
      </g>
     </g>
    </g>
    <g id="xtick_6">
     <g id="line2d_6">
      <g>
       <use xlink:href="#mc013f482cf" x="267.805285" y="198.8355" style="stroke: #000000; stroke-width: 0.8"/>
      </g>
     </g>
     <g id="text_6">
      <!-- 250 -->
      <g transform="translate(258.261535 213.433938)scale(0.1 -0.1)">
       <use xlink:href="#DejaVuSans-32"/>
       <use xlink:href="#DejaVuSans-35" x="63.623047"/>
       <use xlink:href="#DejaVuSans-30" x="127.246094"/>
      </g>
     </g>
    </g>
    <g id="xtick_7">
     <g id="line2d_7">
      <g>
       <use xlink:href="#mc013f482cf" x="310.080831" y="198.8355" style="stroke: #000000; stroke-width: 0.8"/>
      </g>
     </g>
     <g id="text_7">
      <!-- 300 -->
      <g transform="translate(300.537081 213.433938)scale(0.1 -0.1)">
       <defs>
        <path id="DejaVuSans-33" d="M 2597 2516 
Q 3050 2419 3304 2112 
Q 3559 1806 3559 1356 
Q 3559 666 3084 287 
Q 2609 -91 1734 -91 
Q 1441 -91 1130 -33 
Q 819 25 488 141 
L 488 750 
Q 750 597 1062 519 
Q 1375 441 1716 441 
Q 2309 441 2620 675 
Q 2931 909 2931 1356 
Q 2931 1769 2642 2001 
Q 2353 2234 1838 2234 
L 1294 2234 
L 1294 2753 
L 1863 2753 
Q 2328 2753 2575 2939 
Q 2822 3125 2822 3475 
Q 2822 3834 2567 4026 
Q 2313 4219 1838 4219 
Q 1578 4219 1281 4162 
Q 984 4106 628 3988 
L 628 4550 
Q 988 4650 1302 4700 
Q 1616 4750 1894 4750 
Q 2613 4750 3031 4423 
Q 3450 4097 3450 3541 
Q 3450 3153 3228 2886 
Q 3006 2619 2597 2516 
z
" transform="scale(0.015625)"/>
       </defs>
       <use xlink:href="#DejaVuSans-33"/>
       <use xlink:href="#DejaVuSans-30" x="63.623047"/>
       <use xlink:href="#DejaVuSans-30" x="127.246094"/>
      </g>
     </g>
    </g>
    <g id="text_8">
     <!-- Time [s] -->
     <g transform="translate(162.952344 227.112063)scale(0.1 -0.1)">
      <defs>
       <path id="DejaVuSans-54" d="M -19 4666 
L 3928 4666 
L 3928 4134 
L 2272 4134 
L 2272 0 
L 1638 0 
L 1638 4134 
L -19 4134 
L -19 4666 
z
" transform="scale(0.015625)"/>
       <path id="DejaVuSans-69" d="M 603 3500 
L 1178 3500 
L 1178 0 
L 603 0 
L 603 3500 
z
M 603 4863 
L 1178 4863 
L 1178 4134 
L 603 4134 
L 603 4863 
z
" transform="scale(0.015625)"/>
       <path id="DejaVuSans-6d" d="M 3328 2828 
Q 3544 3216 3844 3400 
Q 4144 3584 4550 3584 
Q 5097 3584 5394 3201 
Q 5691 2819 5691 2113 
L 5691 0 
L 5113 0 
L 5113 2094 
Q 5113 2597 4934 2840 
Q 4756 3084 4391 3084 
Q 3944 3084 3684 2787 
Q 3425 2491 3425 1978 
L 3425 0 
L 2847 0 
L 2847 2094 
Q 2847 2600 2669 2842 
Q 2491 3084 2119 3084 
Q 1678 3084 1418 2786 
Q 1159 2488 1159 1978 
L 1159 0 
L 581 0 
L 581 3500 
L 1159 3500 
L 1159 2956 
Q 1356 3278 1631 3431 
Q 1906 3584 2284 3584 
Q 2666 3584 2933 3390 
Q 3200 3197 3328 2828 
z
" transform="scale(0.015625)"/>
       <path id="DejaVuSans-65" d="M 3597 1894 
L 3597 1613 
L 953 1613 
Q 991 1019 1311 708 
Q 1631 397 2203 397 
Q 2534 397 2845 478 
Q 3156 559 3463 722 
L 3463 178 
Q 3153 47 2828 -22 
Q 2503 -91 2169 -91 
Q 1331 -91 842 396 
Q 353 884 353 1716 
Q 353 2575 817 3079 
Q 1281 3584 2069 3584 
Q 2775 3584 3186 3129 
Q 3597 2675 3597 1894 
z
M 3022 2063 
Q 3016 2534 2758 2815 
Q 2500 3097 2075 3097 
Q 1594 3097 1305 2825 
Q 1016 2553 972 2059 
L 3022 2063 
z
" transform="scale(0.015625)"/>
       <path id="DejaVuSans-20" transform="scale(0.015625)"/>
       <path id="DejaVuSans-5b" d="M 550 4863 
L 1875 4863 
L 1875 4416 
L 1125 4416 
L 1125 -397 
L 1875 -397 
L 1875 -844 
L 550 -844 
L 550 4863 
z
" transform="scale(0.015625)"/>
       <path id="DejaVuSans-73" d="M 2834 3397 
L 2834 2853 
Q 2591 2978 2328 3040 
Q 2066 3103 1784 3103 
Q 1356 3103 1142 2972 
Q 928 2841 928 2578 
Q 928 2378 1081 2264 
Q 1234 2150 1697 2047 
L 1894 2003 
Q 2506 1872 2764 1633 
Q 3022 1394 3022 966 
Q 3022 478 2636 193 
Q 2250 -91 1575 -91 
Q 1294 -91 989 -36 
Q 684 19 347 128 
L 347 722 
Q 666 556 975 473 
Q 1284 391 1588 391 
Q 1994 391 2212 530 
Q 2431 669 2431 922 
Q 2431 1156 2273 1281 
Q 2116 1406 1581 1522 
L 1381 1569 
Q 847 1681 609 1914 
Q 372 2147 372 2553 
Q 372 3047 722 3315 
Q 1072 3584 1716 3584 
Q 2034 3584 2315 3537 
Q 2597 3491 2834 3397 
z
" transform="scale(0.015625)"/>
       <path id="DejaVuSans-5d" d="M 1947 4863 
L 1947 -844 
L 622 -844 
L 622 -397 
L 1369 -397 
L 1369 4416 
L 622 4416 
L 622 4863 
L 1947 4863 
z
" transform="scale(0.015625)"/>
      </defs>
      <use xlink:href="#DejaVuSans-54"/>
      <use xlink:href="#DejaVuSans-69" x="57.958984"/>
      <use xlink:href="#DejaVuSans-6d" x="85.742188"/>
      <use xlink:href="#DejaVuSans-65" x="183.154297"/>
      <use xlink:href="#DejaVuSans-20" x="244.677734"/>
      <use xlink:href="#DejaVuSans-5b" x="276.464844"/>
      <use xlink:href="#DejaVuSans-73" x="315.478516"/>
      <use xlink:href="#DejaVuSans-5d" x="367.578125"/>
     </g>
    </g>
   </g>
   <g id="matplotlib.axis_2">
    <g id="ytick_1">
     <g id="line2d_8">
      <defs>
       <path id="mcdc535b2c0" d="M 0 0 
L -3.5 0 
" style="stroke: #000000; stroke-width: 0.8"/>
      </defs>
      <g>
       <use xlink:href="#mcdc535b2c0" x="43.78125" y="195.923357" style="stroke: #000000; stroke-width: 0.8"/>
      </g>
     </g>
     <g id="text_9">
      <!-- 0.0 -->
      <g transform="translate(20.878125 199.722576)scale(0.1 -0.1)">
       <defs>
        <path id="DejaVuSans-2e" d="M 684 794 
L 1344 794 
L 1344 0 
L 684 0 
L 684 794 
z
" transform="scale(0.015625)"/>
       </defs>
       <use xlink:href="#DejaVuSans-30"/>
       <use xlink:href="#DejaVuSans-2e" x="63.623047"/>
       <use xlink:href="#DejaVuSans-30" x="95.410156"/>
      </g>
     </g>
    </g>
    <g id="ytick_2">
     <g id="line2d_9">
      <g>
       <use xlink:href="#mcdc535b2c0" x="43.78125" y="166.801929" style="stroke: #000000; stroke-width: 0.8"/>
      </g>
     </g>
     <g id="text_10">
      <!-- 0.2 -->
      <g transform="translate(20.878125 170.601147)scale(0.1 -0.1)">
       <use xlink:href="#DejaVuSans-30"/>
       <use xlink:href="#DejaVuSans-2e" x="63.623047"/>
       <use xlink:href="#DejaVuSans-32" x="95.410156"/>
      </g>
     </g>
    </g>
    <g id="ytick_3">
     <g id="line2d_10">
      <g>
       <use xlink:href="#mcdc535b2c0" x="43.78125" y="137.6805" style="stroke: #000000; stroke-width: 0.8"/>
      </g>
     </g>
     <g id="text_11">
      <!-- 0.4 -->
      <g transform="translate(20.878125 141.479719)scale(0.1 -0.1)">
       <defs>
        <path id="DejaVuSans-34" d="M 2419 4116 
L 825 1625 
L 2419 1625 
L 2419 4116 
z
M 2253 4666 
L 3047 4666 
L 3047 1625 
L 3713 1625 
L 3713 1100 
L 3047 1100 
L 3047 0 
L 2419 0 
L 2419 1100 
L 313 1100 
L 313 1709 
L 2253 4666 
z
" transform="scale(0.015625)"/>
       </defs>
       <use xlink:href="#DejaVuSans-30"/>
       <use xlink:href="#DejaVuSans-2e" x="63.623047"/>
       <use xlink:href="#DejaVuSans-34" x="95.410156"/>
      </g>
     </g>
    </g>
    <g id="ytick_4">
     <g id="line2d_11">
      <g>
       <use xlink:href="#mcdc535b2c0" x="43.78125" y="108.559071" style="stroke: #000000; stroke-width: 0.8"/>
      </g>
     </g>
     <g id="text_12">
      <!-- 0.6 -->
      <g transform="translate(20.878125 112.35829)scale(0.1 -0.1)">
       <defs>
        <path id="DejaVuSans-36" d="M 2113 2584 
Q 1688 2584 1439 2293 
Q 1191 2003 1191 1497 
Q 1191 994 1439 701 
Q 1688 409 2113 409 
Q 2538 409 2786 701 
Q 3034 994 3034 1497 
Q 3034 2003 2786 2293 
Q 2538 2584 2113 2584 
z
M 3366 4563 
L 3366 3988 
Q 3128 4100 2886 4159 
Q 2644 4219 2406 4219 
Q 1781 4219 1451 3797 
Q 1122 3375 1075 2522 
Q 1259 2794 1537 2939 
Q 1816 3084 2150 3084 
Q 2853 3084 3261 2657 
Q 3669 2231 3669 1497 
Q 3669 778 3244 343 
Q 2819 -91 2113 -91 
Q 1303 -91 875 529 
Q 447 1150 447 2328 
Q 447 3434 972 4092 
Q 1497 4750 2381 4750 
Q 2619 4750 2861 4703 
Q 3103 4656 3366 4563 
z
" transform="scale(0.015625)"/>
       </defs>
       <use xlink:href="#DejaVuSans-30"/>
       <use xlink:href="#DejaVuSans-2e" x="63.623047"/>
       <use xlink:href="#DejaVuSans-36" x="95.410156"/>
      </g>
     </g>
    </g>
    <g id="ytick_5">
     <g id="line2d_12">
      <g>
       <use xlink:href="#mcdc535b2c0" x="43.78125" y="79.437643" style="stroke: #000000; stroke-width: 0.8"/>
      </g>
     </g>
     <g id="text_13">
      <!-- 0.8 -->
      <g transform="translate(20.878125 83.236862)scale(0.1 -0.1)">
       <defs>
        <path id="DejaVuSans-38" d="M 2034 2216 
Q 1584 2216 1326 1975 
Q 1069 1734 1069 1313 
Q 1069 891 1326 650 
Q 1584 409 2034 409 
Q 2484 409 2743 651 
Q 3003 894 3003 1313 
Q 3003 1734 2745 1975 
Q 2488 2216 2034 2216 
z
M 1403 2484 
Q 997 2584 770 2862 
Q 544 3141 544 3541 
Q 544 4100 942 4425 
Q 1341 4750 2034 4750 
Q 2731 4750 3128 4425 
Q 3525 4100 3525 3541 
Q 3525 3141 3298 2862 
Q 3072 2584 2669 2484 
Q 3125 2378 3379 2068 
Q 3634 1759 3634 1313 
Q 3634 634 3220 271 
Q 2806 -91 2034 -91 
Q 1263 -91 848 271 
Q 434 634 434 1313 
Q 434 1759 690 2068 
Q 947 2378 1403 2484 
z
M 1172 3481 
Q 1172 3119 1398 2916 
Q 1625 2713 2034 2713 
Q 2441 2713 2670 2916 
Q 2900 3119 2900 3481 
Q 2900 3844 2670 4047 
Q 2441 4250 2034 4250 
Q 1625 4250 1398 4047 
Q 1172 3844 1172 3481 
z
" transform="scale(0.015625)"/>
       </defs>
       <use xlink:href="#DejaVuSans-30"/>
       <use xlink:href="#DejaVuSans-2e" x="63.623047"/>
       <use xlink:href="#DejaVuSans-38" x="95.410156"/>
      </g>
     </g>
    </g>
    <g id="ytick_6">
     <g id="line2d_13">
      <g>
       <use xlink:href="#mcdc535b2c0" x="43.78125" y="50.316214" style="stroke: #000000; stroke-width: 0.8"/>
      </g>
     </g>
     <g id="text_14">
      <!-- 1.0 -->
      <g transform="translate(20.878125 54.115433)scale(0.1 -0.1)">
       <use xlink:href="#DejaVuSans-31"/>
       <use xlink:href="#DejaVuSans-2e" x="63.623047"/>
       <use xlink:href="#DejaVuSans-30" x="95.410156"/>
      </g>
     </g>
    </g>
    <g id="text_15">
     <!-- (F-F$^o$)/F$^o$ -->
     <g transform="translate(14.798438 137.9955)rotate(-90)scale(0.1 -0.1)">
      <defs>
       <path id="DejaVuSans-28" d="M 1984 4856 
Q 1566 4138 1362 3434 
Q 1159 2731 1159 2009 
Q 1159 1288 1364 580 
Q 1569 -128 1984 -844 
L 1484 -844 
Q 1016 -109 783 600 
Q 550 1309 550 2009 
Q 550 2706 781 3412 
Q 1013 4119 1484 4856 
L 1984 4856 
z
" transform="scale(0.015625)"/>
       <path id="DejaVuSans-46" d="M 628 4666 
L 3309 4666 
L 3309 4134 
L 1259 4134 
L 1259 2759 
L 3109 2759 
L 3109 2228 
L 1259 2228 
L 1259 0 
L 628 0 
L 628 4666 
z
" transform="scale(0.015625)"/>
       <path id="DejaVuSans-2d" d="M 313 2009 
L 1997 2009 
L 1997 1497 
L 313 1497 
L 313 2009 
z
" transform="scale(0.015625)"/>
       <path id="DejaVuSans-Oblique-6f" d="M 1625 -91 
Q 1009 -91 651 289 
Q 294 669 294 1325 
Q 294 1706 417 2101 
Q 541 2497 738 2766 
Q 1047 3184 1428 3384 
Q 1809 3584 2291 3584 
Q 2888 3584 3255 3212 
Q 3622 2841 3622 2241 
Q 3622 1825 3500 1412 
Q 3378 1000 3181 728 
Q 2875 309 2494 109 
Q 2113 -91 1625 -91 
z
M 891 1344 
Q 891 869 1089 633 
Q 1288 397 1691 397 
Q 2269 397 2648 901 
Q 3028 1406 3028 2181 
Q 3028 2634 2825 2865 
Q 2622 3097 2228 3097 
Q 1903 3097 1650 2945 
Q 1397 2794 1197 2484 
Q 1050 2253 970 1956 
Q 891 1659 891 1344 
z
" transform="scale(0.015625)"/>
       <path id="DejaVuSans-29" d="M 513 4856 
L 1013 4856 
Q 1481 4119 1714 3412 
Q 1947 2706 1947 2009 
Q 1947 1309 1714 600 
Q 1481 -109 1013 -844 
L 513 -844 
Q 928 -128 1133 580 
Q 1338 1288 1338 2009 
Q 1338 2731 1133 3434 
Q 928 4138 513 4856 
z
" transform="scale(0.015625)"/>
       <path id="DejaVuSans-2f" d="M 1625 4666 
L 2156 4666 
L 531 -594 
L 0 -594 
L 1625 4666 
z
" transform="scale(0.015625)"/>
      </defs>
      <use xlink:href="#DejaVuSans-28" transform="translate(0 0.51875)"/>
      <use xlink:href="#DejaVuSans-46" transform="translate(39.013672 0.51875)"/>
      <use xlink:href="#DejaVuSans-2d" transform="translate(96.533203 0.51875)"/>
      <use xlink:href="#DejaVuSans-46" transform="translate(132.617188 0.51875)"/>
      <use xlink:href="#DejaVuSans-Oblique-6f" transform="translate(191.09375 38.8)scale(0.7)"/>
      <use xlink:href="#DejaVuSans-29" transform="translate(236.655273 0.51875)"/>
      <use xlink:href="#DejaVuSans-2f" transform="translate(275.668945 0.51875)"/>
      <use xlink:href="#DejaVuSans-46" transform="translate(309.360352 0.51875)"/>
      <use xlink:href="#DejaVuSans-Oblique-6f" transform="translate(367.836914 38.8)scale(0.7)"/>
     </g>
    </g>
   </g>
   <g id="line2d_14">
    <path d="M 56.463068 151.033082 
L 56.851158 152.443943 
L 56.985594 153.36799 
L 57.120876 155.528004 
L 57.254466 153.067391 
L 57.389748 153.434356 
L 57.524184 154.196392 
L 57.658621 152.780847 
L 57.793902 153.473395 
L 57.928339 153.048653 
L 58.065311 153.285618 
L 58.200593 154.241287 
L 58.335029 154.031649 
L 58.469466 152.828865 
L 58.603902 152.75352 
L 58.739184 154.380265 
L 58.874465 154.08357 
L 59.008902 152.464243 
L 59.277774 154.426331 
L 59.41221 154.826868 
L 59.547492 151.579624 
L 59.681928 153.209102 
L 59.816364 153.034209 
L 59.951646 149.494565 
L 60.086082 150.046963 
L 60.223055 147.843225 
L 60.357491 148.716522 
L 60.627209 144.180999 
L 60.761646 142.786925 
L 60.896927 138.646085 
L 61.031364 137.940654 
L 61.1658 131.215838 
L 61.301082 131.873641 
L 61.435518 129.009368 
L 61.705236 130.332391 
L 61.839672 126.505031 
L 62.10939 132.022379 
L 62.243826 130.9859 
L 62.378263 131.014789 
L 62.513544 129.56606 
L 62.920235 130.634551 
L 63.054671 131.471542 
L 63.324389 127.544634 
L 63.458825 132.02394 
L 63.593262 128.752102 
L 63.862134 136.063671 
L 63.993188 134.758215 
L 64.12847 136.553998 
L 64.262906 136.811263 
L 64.936779 144.02055 
L 65.071215 144.066616 
L 65.205651 149.297809 
L 65.340933 146.394497 
L 65.475369 148.086046 
L 65.610651 148.093464 
L 65.745087 146.627168 
L 65.879523 146.784884 
L 66.013959 147.762415 
L 66.149241 145.962338 
L 66.283677 147.724938 
L 66.418114 146.132937 
L 66.55255 148.178958 
L 66.687832 146.920739 
L 66.822268 148.602529 
L 66.956704 148.148508 
L 67.09114 145.820627 
L 67.226422 146.55924 
L 67.361704 148.55334 
L 67.49614 148.833638 
L 67.631422 150.782843 
L 68.169167 142.850559 
L 68.302757 142.440261 
L 68.438039 143.323318 
L 68.573321 143.308874 
L 69.111911 132.855466 
L 69.247193 131.726075 
L 69.381629 132.096162 
L 69.650502 127.6719 
L 69.785784 130.538906 
L 70.055502 129.940442 
L 70.189092 132.019646 
L 70.324374 126.360588 
L 70.45881 127.739827 
L 70.594092 127.310401 
L 70.999092 123.903879 
L 71.133528 126.052572 
L 71.267964 123.909735 
L 71.403246 125.952633 
L 71.538528 131.989196 
L 71.808246 133.65498 
L 72.077964 137.404262 
L 72.2124 137.03964 
L 72.346836 137.018168 
L 72.481272 138.27873 
L 72.615709 141.949935 
L 72.75099 142.239212 
L 72.886272 141.559547 
L 73.15599 143.89914 
L 73.291272 143.492746 
L 73.425708 143.443557 
L 73.559299 145.255346 
L 73.694581 143.812083 
L 73.830708 140.715139 
L 73.965144 140.749883 
L 74.100426 139.619321 
L 74.234862 140.737 
L 74.369298 138.271703 
L 74.50458 140.316163 
L 74.773453 138.9135 
L 74.908734 140.586311 
L 75.04317 139.993702 
L 75.178452 140.542978 
L 75.44817 136.379104 
L 75.717888 137.43315 
L 75.986761 139.542414 
L 76.122042 139.49752 
L 76.39176 144.013133 
L 76.526197 142.21735 
L 76.660633 142.810349 
L 76.930351 146.899268 
L 77.065633 147.380616 
L 77.334505 146.200865 
L 77.469787 144.146255 
L 77.604223 147.803015 
L 77.738659 144.37307 
L 77.873941 146.451103 
L 78.008377 146.119664 
L 78.143659 144.568264 
L 78.278095 141.615763 
L 78.412531 142.2681 
L 78.682249 136.474359 
L 79.354431 131.040945 
L 79.488867 133.905218 
L 79.758585 131.371993 
L 80.028303 132.681743 
L 80.298021 129.042551 
L 80.566893 132.019646 
L 80.70133 130.353862 
L 80.836611 133.626091 
L 80.970202 133.714319 
L 81.104638 132.514267 
L 81.240765 138.082365 
L 81.376047 134.203084 
L 81.511329 138.275997 
L 81.645765 138.20807 
L 81.780201 136.691414 
L 81.914638 139.463166 
L 82.049074 139.247672 
L 82.322174 136.616069 
L 82.457456 137.865309 
L 82.726328 134.251882 
L 82.860764 135.073258 
L 82.996046 133.061981 
L 83.264073 136.110127 
L 83.399355 137.191501 
L 83.534637 136.257303 
L 83.803509 137.989843 
L 84.344636 132.074691 
L 84.479072 128.216881 
L 84.614354 127.699227 
L 84.74879 125.605579 
L 84.884072 125.555219 
L 85.018508 124.248201 
L 85.152944 124.475016 
L 85.287381 124.070184 
L 85.557099 121.320294 
L 85.691535 121.881281 
L 85.826817 118.821814 
L 85.961253 123.714541 
L 86.095689 123.937062 
L 86.364562 117.708429 
L 86.499843 122.204912 
L 86.769561 117.606928 
L 86.903998 119.94652 
L 87.043507 126.639325 
L 87.177943 125.504468 
L 87.446816 125.481435 
L 87.582097 128.148953 
L 87.851815 125.876117 
L 88.25597 122.800644 
L 88.390406 116.767204 
L 88.524842 119.237967 
L 88.793714 113.632392 
L 88.928996 113.051105 
L 89.063432 111.521566 
L 89.197869 111.460666 
L 89.467587 109.105458 
L 89.737305 113.677287 
L 89.871741 113.50942 
L 90.006177 112.194985 
L 90.277586 115.698713 
L 90.547304 122.22248 
L 90.680895 122.747161 
L 90.950613 127.746854 
L 91.08674 127.089051 
L 91.221176 129.952154 
L 91.356458 127.906132 
L 91.760612 129.023812 
L 91.895048 132.841022 
L 92.029485 129.455971 
L 92.164766 131.635114 
L 92.299203 135.673283 
L 92.568921 130.549056 
L 92.704202 131.899797 
L 92.973075 122.933766 
L 93.107511 124.662793 
L 93.377229 110.821602 
L 93.512511 110.801301 
L 93.646102 110.460103 
L 93.781383 101.430438 
L 94.050256 106.738538 
L 94.184692 104.831104 
L 94.320819 107.338564 
L 94.455256 105.474854 
L 94.724974 110.989468 
L 94.860255 108.617864 
L 94.994692 108.366454 
L 95.398846 96.486961 
L 95.668564 98.891748 
L 96.071872 106.794754 
L 96.34159 111.022651 
L 96.476027 110.943012 
L 96.610463 111.590665 
L 96.880181 115.279047 
L 97.015463 115.678413 
L 97.149053 117.23684 
L 97.418771 123.233193 
L 97.553208 123.029021 
L 97.687644 122.397374 
L 97.820389 124.866965 
L 98.090107 124.440272 
L 98.223698 124.285678 
L 98.358979 123.452591 
L 98.763134 126.864969 
L 99.032852 121.979268 
L 99.301724 115.136165 
L 99.571442 112.072403 
L 99.704187 113.594915 
L 99.839469 111.190127 
L 99.973905 113.250593 
L 100.243623 105.142243 
L 100.378059 108.043994 
L 100.646932 97.937251 
L 100.782214 101.417556 
L 100.91665 99.681112 
L 101.051086 101.756022 
L 101.185522 94.768084 
L 101.45524 101.36134 
L 101.590522 92.042398 
L 101.724958 93.255723 
L 101.993831 101.614311 
L 102.129113 101.382811 
L 102.262703 106.665926 
L 102.39714 101.641638 
L 102.531576 103.761443 
L 102.666858 103.266821 
L 102.933193 111.453249 
L 103.202911 102.374786 
L 103.337348 105.405365 
L 103.60622 92.808729 
L 104.009529 100.028166 
L 104.143965 99.6694 
L 105.089246 117.515967 
L 105.223683 118.805808 
L 105.358964 118.758181 
L 105.493401 120.556696 
L 105.628682 119.337906 
L 105.763118 119.355083 
L 106.031991 124.125229 
L 106.167273 124.686216 
L 106.298327 121.978097 
L 106.432763 122.105364 
L 106.568045 120.521952 
L 106.699945 123.092654 
L 106.834381 120.260392 
L 107.103253 123.274965 
L 107.377199 124.917325 
L 107.646917 122.238095 
L 107.781353 124.232195 
L 107.916635 122.126835 
L 108.052762 126.079899 
L 108.187198 126.202871 
L 108.591352 117.587018 
L 108.860225 97.685841 
L 108.994661 94.657995 
L 109.129097 96.338223 
L 109.264379 100.153871 
L 109.399661 88.83107 
L 109.534097 91.913961 
L 109.669379 84.126119 
L 110.476842 103.709131 
L 110.612124 102.410702 
L 110.747405 99.954383 
L 110.881842 102.270552 
L 111.017123 102.55983 
L 111.423814 112.101292 
L 111.693532 115.559735 
L 111.827968 116.042645 
L 111.96325 114.953854 
L 112.097686 109.316267 
L 112.372477 89.894096 
L 112.506914 87.205887 
L 112.642195 88.218162 
L 112.911913 95.924803 
L 113.043813 90.557754 
L 113.178249 90.720936 
L 113.447122 98.381121 
L 114.389866 116.651259 
L 114.525148 114.606799 
L 114.794866 120.063637 
L 114.929302 118.594608 
L 115.199866 120.436847 
L 115.468738 111.006645 
L 115.740993 105.250771 
L 115.875429 108.695941 
L 116.010711 106.936465 
L 116.279583 92.058404 
L 116.819019 102.313885 
L 117.088737 83.476905 
L 117.223173 83.845821 
L 117.358455 82.216343 
L 117.627328 96.166062 
L 117.762609 94.218419 
L 117.897046 98.437727 
L 118.032327 91.596966 
L 118.166764 91.012946 
L 118.3012 79.570297 
L 118.436482 81.685807 
L 118.571763 81.512084 
L 118.840636 93.755809 
L 118.975072 93.576621 
L 119.51789 105.656774 
L 119.921199 111.15265 
L 120.053944 110.444097 
L 120.189226 114.12389 
L 120.323662 113.377859 
L 120.592534 114.290195 
L 120.727816 117.127141 
L 120.862252 115.857601 
L 120.996689 117.721311 
L 121.131125 116.576305 
L 121.265561 118.705869 
L 121.400843 115.99775 
L 121.801615 119.473761 
L 121.936051 120.287719 
L 122.205769 119.038479 
L 122.340205 115.760785 
L 122.475487 118.31431 
L 122.609923 117.251285 
L 122.879641 120.324025 
L 123.010696 118.08281 
L 123.145132 119.58346 
L 123.279568 119.640066 
L 123.549286 118.772625 
L 123.683722 122.095214 
L 123.95344 120.758917 
L 124.087877 121.218793 
L 124.222313 119.529977 
L 124.356749 119.287156 
L 124.627312 122.843977 
L 124.761749 120.793661 
L 124.896185 116.245256 
L 125.165057 100.388104 
L 125.299494 101.781787 
L 125.43393 100.892875 
L 125.572594 91.206579 
L 125.707875 92.655697 
L 125.842312 91.493123 
L 126.246466 83.993388 
L 126.785902 99.089675 
L 127.05562 86.562528 
L 127.324492 91.046129 
L 127.458929 96.140297 
L 127.593365 95.95213 
L 127.728646 100.903025 
L 127.863083 100.472037 
L 128.132801 108.002223 
L 128.267237 109.140202 
L 128.401673 108.304383 
L 128.536109 95.957986 
L 128.670546 99.001447 
L 128.939418 92.233298 
L 129.0747 94.597485 
L 129.209136 94.700157 
L 129.344418 90.151361 
L 129.478854 91.896393 
L 129.612445 96.128585 
L 129.747727 87.548647 
L 130.289699 100.02231 
L 130.424135 101.559266 
L 130.693853 107.42523 
L 131.232444 116.427177 
L 131.367725 112.60294 
L 131.503007 102.831539 
L 131.634907 102.750729 
L 131.769343 102.879167 
L 131.908852 102.082776 
L 132.044134 106.178722 
L 132.17857 95.810419 
L 132.582725 103.55766 
L 132.717161 104.617172 
L 132.986879 108.246605 
L 133.122161 110.101337 
L 133.256597 97.038188 
L 133.391879 98.18905 
L 133.526315 97.930224 
L 133.661597 99.531984 
L 133.931315 104.371618 
L 134.200187 106.724094 
L 134.335469 110.221576 
L 134.469905 108.482009 
L 134.605187 114.004041 
L 134.739623 111.291628 
L 134.874059 115.923967 
L 135.009341 113.314226 
L 135.414341 117.420713 
L 135.548777 116.836303 
L 135.684059 115.318086 
L 136.222649 84.823352 
L 136.625958 96.851583 
L 137.298985 109.124196 
L 137.434266 109.8023 
L 137.568702 111.939281 
L 137.703984 110.912562 
L 137.842648 115.152171 
L 137.977084 112.604502 
L 138.112366 113.52972 
L 138.246802 115.970423 
L 138.381238 116.101984 
L 138.515675 113.046811 
L 138.650956 118.591876 
L 138.785393 116.382282 
L 138.919829 116.599337 
L 139.055111 119.635772 
L 139.189547 118.426742 
L 139.323983 120.242825 
L 139.458419 120.140153 
L 139.592856 122.933766 
L 139.728137 120.008592 
L 139.862574 122.229507 
L 139.997855 121.075912 
L 140.132292 121.055611 
L 140.537291 106.731121 
L 140.671728 93.295933 
L 140.807009 91.260452 
L 140.941446 86.623429 
L 141.076727 92.351976 
L 141.346445 79.373541 
L 141.480881 75.448194 
L 141.750599 78.264841 
L 142.423626 100.429875 
L 142.692499 105.94449 
L 142.826935 104.291979 
L 142.962217 112.070842 
L 143.097498 112.22973 
L 143.23278 112.681018 
L 143.367216 115.269287 
L 143.502498 115.049499 
L 143.636934 117.293447 
L 143.772216 117.14588 
L 144.177216 118.837429 
L 144.312498 117.553445 
L 144.446934 118.127705 
L 144.850242 121.40696 
L 144.985524 120.426697 
L 145.11996 122.268546 
L 145.255242 119.894599 
L 145.52496 103.080216 
L 145.659396 105.178159 
L 145.794678 102.484485 
L 145.929114 102.621901 
L 146.064396 90.683459 
L 146.198832 89.09302 
L 146.469396 95.783092 
L 146.603832 77.254127 
L 146.738268 74.415619 
L 147.277704 94.102864 
L 147.412141 96.143029 
L 147.681859 106.653043 
L 147.81714 107.377603 
L 148.086858 113.44891 
L 148.221294 113.213116 
L 148.491012 118.619203 
L 148.630522 119.829404 
L 148.764958 115.86619 
L 148.899394 97.240409 
L 149.03383 99.137302 
L 149.168267 104.787771 
L 149.303548 102.208481 
L 149.437985 106.158422 
L 149.573266 106.862681 
L 149.842984 93.900253 
L 150.111857 99.122858 
L 150.245448 99.892311 
L 150.380729 88.898998 
L 150.516011 90.226315 
L 151.054602 106.37821 
L 151.189883 106.787727 
L 151.594038 114.511545 
L 151.729319 113.85218 
L 152.132628 120.270542 
L 152.26791 119.040041 
L 152.402346 120.018742 
L 152.537628 124.042857 
L 152.672064 123.734841 
L 152.807346 124.794744 
L 152.941782 124.268111 
L 153.076218 124.496878 
L 153.210654 125.984645 
L 153.346782 123.860546 
L 153.481218 123.935891 
L 153.6165 127.537216 
L 153.750936 124.839248 
L 154.020654 126.340288 
L 154.155936 126.237616 
L 154.290372 125.702395 
L 154.424808 128.323847 
L 154.56009 125.839811 
L 154.694526 126.844669 
L 154.829808 126.951635 
L 154.964244 126.00026 
L 155.099526 129.201438 
L 155.369244 126.776741 
L 155.50368 125.481435 
L 155.638962 128.378892 
L 156.043961 124.755705 
L 156.312834 116.369399 
L 156.582552 101.70371 
L 156.716988 98.949525 
L 156.851424 105.597435 
L 156.986706 104.988821 
L 157.121142 106.264217 
L 157.39086 113.168221 
L 157.659733 116.12814 
L 157.794169 115.10142 
L 158.335296 120.975972 
L 158.604168 105.548637 
L 158.73945 106.505477 
L 158.874732 97.512118 
L 159.009168 97.850584 
L 159.14445 100.390836 
L 159.278886 91.482973 
L 159.414168 90.238027 
L 159.548604 92.12477 
L 159.952758 103.453427 
L 160.221631 106.446528 
L 160.491349 99.177902 
L 160.626631 101.174735 
L 160.895503 109.270201 
L 161.030785 114.434638 
L 161.165221 113.78113 
L 161.434939 118.224521 
L 161.569375 118.817129 
L 161.974375 124.223607 
L 162.107966 124.926304 
L 162.381911 128.451113 
L 162.517193 128.321114 
L 162.651629 130.306235 
L 162.786065 128.693935 
L 162.918811 130.897672 
L 163.053247 130.299208 
L 163.322965 134.711759 
L 163.457401 132.714926 
L 163.592683 132.976876 
L 163.727119 133.583929 
L 163.862401 135.326229 
L 163.996837 134.575904 
L 164.132119 139.340194 
L 164.403528 128.06502 
L 164.537964 129.236183 
L 164.942118 111.3537 
L 165.076555 114.561905 
L 165.210991 113.645275 
L 165.885708 125.912033 
L 166.02099 125.79804 
L 166.155426 129.123361 
L 166.290708 127.687906 
L 166.560426 131.687036 
L 166.830144 122.664789 
L 166.96458 123.554092 
L 167.099017 122.478184 
L 167.233453 127.485295 
L 167.367889 125.05318 
L 167.503171 115.582768 
L 167.638453 115.377424 
L 167.773734 117.20639 
L 167.909016 117.5187 
L 168.178734 126.54407 
L 168.31317 127.180402 
L 168.449298 128.59868 
L 168.846688 137.631077 
L 168.981124 139.228933 
L 169.117251 139.017734 
L 169.251687 139.082928 
L 169.386124 145.597716 
L 169.654996 129.346272 
L 169.789432 129.17255 
L 169.924714 131.40947 
L 170.059996 124.638589 
L 170.194432 126.55422 
L 170.328868 125.381496 
L 170.463305 126.186866 
L 170.598586 118.716019 
L 171.002741 128.487419 
L 171.138022 132.741082 
L 171.272459 131.305237 
L 171.677458 141.037599 
L 171.811894 140.120969 
L 171.948867 141.034866 
L 172.353021 127.317428 
L 172.488303 127.45055 
L 172.621894 131.075299 
L 172.757176 130.873078 
L 173.027739 136.986157 
L 173.163021 137.363661 
L 173.297457 136.938529 
L 173.568021 140.859582 
L 173.701611 139.768058 
L 173.836048 140.703427 
L 173.971329 140.861144 
L 174.105766 140.326313 
L 174.376329 129.297083 
L 174.510765 129.659753 
L 174.780483 131.96304 
L 174.915765 135.788838 
L 175.050201 135.074819 
L 175.185483 135.30749 
L 175.319919 126.776741 
L 175.455201 127.029712 
L 175.723228 129.466121 
L 175.857664 132.132468 
L 175.9921 130.864489 
L 176.263509 125.119936 
L 176.397946 124.784593 
L 176.533227 127.199141 
L 176.667664 126.811486 
L 177.072663 136.490364 
L 177.207945 134.558727 
L 177.342381 137.133723 
L 177.612099 129.058556 
L 177.746536 132.31595 
L 177.881817 132.012229 
L 178.016254 136.302198 
L 178.15069 135.8716 
L 178.285972 137.949243 
L 178.421253 128.471414 
L 178.55569 129.915848 
L 178.690126 127.874121 
L 178.959844 133.835729 
L 179.09428 132.17424 
L 179.363998 135.154458 
L 179.498434 135.089264 
L 179.903434 141.007149 
L 180.038716 142.104528 
L 180.308434 145.393934 
L 180.44287 146.831341 
L 180.579843 144.679915 
L 180.849561 148.29139 
L 180.984842 148.076287 
L 181.25456 137.360538 
L 181.524278 136.895196 
L 181.793996 141.004416 
L 182.067096 137.716572 
L 182.202378 139.383527 
L 182.33766 139.390554 
L 182.472096 142.202906 
L 182.607378 142.532783 
L 183.011532 147.519594 
L 183.146814 147.114762 
L 183.282096 145.200301 
L 183.416532 138.226808 
L 183.68625 140.476612 
L 183.955122 143.429113 
L 184.090404 143.468152 
L 184.360967 138.192064 
L 185.035685 148.624 
L 185.170967 149.047571 
L 185.306249 147.153801 
L 185.711248 156.343524 
L 185.845685 152.57277 
L 185.981812 152.691448 
L 186.116248 150.816026 
L 186.25153 151.569474 
L 186.521248 144.079889 
L 186.790966 145.89441 
L 186.927093 146.032998 
L 187.062375 147.222899 
L 187.332938 140.126825 
L 187.872374 150.513866 
L 188.00681 149.141654 
L 188.142092 145.929155 
L 188.412656 149.835763 
L 188.682374 153.036941 
L 188.81681 155.992175 
L 188.952092 155.107557 
L 189.086528 158.17288 
L 189.22181 156.924811 
L 189.490682 162.222761 
L 189.625964 162.320748 
L 189.7604 165.157694 
L 189.895682 162.860263 
L 190.030118 165.329855 
L 190.1654 163.889715 
L 190.300682 167.657736 
L 190.435118 165.229916 
L 190.569554 166.343301 
L 190.704836 166.178558 
L 190.973708 160.144728 
L 191.243426 161.615318 
L 191.377863 160.039323 
L 191.513144 161.862433 
L 191.648426 165.814326 
L 191.782017 163.293984 
L 192.050889 164.150104 
L 192.320607 166.148107 
L 192.455043 164.514336 
L 192.724761 167.380171 
L 192.859198 167.965752 
L 193.128916 167.994641 
L 193.400325 161.430274 
L 193.535606 159.534552 
L 193.80617 153.45895 
L 193.941452 154.076543 
L 194.076733 156.162774 
L 194.210324 156.045658 
L 194.480042 159.135576 
L 194.615324 153.615105 
L 194.885042 154.456781 
L 195.289196 158.019458 
L 195.423632 159.197647 
L 195.558914 162.303571 
L 195.694196 162.112671 
L 195.829477 162.767742 
L 195.963914 167.160382 
L 196.099195 165.838921 
L 196.368913 169.068987 
L 196.50335 168.681332 
L 196.638631 169.791595 
L 196.773068 168.711783 
L 196.907504 170.326816 
L 197.042786 169.003792 
L 197.178067 172.349414 
L 197.313349 170.0391 
L 197.583067 173.34295 
L 197.718349 169.239587 
L 197.852785 169.511296 
L 198.121658 162.574109 
L 198.256094 165.749131 
L 198.39053 164.561963 
L 198.524966 164.768868 
L 198.659402 167.725664 
L 199.064402 160.565565 
L 199.199684 160.037761 
L 199.33412 162.490176 
L 199.468556 162.862996 
L 199.602993 165.363038 
L 199.737429 165.740543 
L 200.27771 173.390578 
L 200.547428 168.491994 
L 200.681019 165.185021 
L 200.949892 170.179249 
L 201.086019 169.441807 
L 201.220455 169.326253 
L 201.490173 174.413003 
L 201.624609 174.791678 
L 201.893482 176.886889 
L 202.028763 173.837181 
L 202.1632 180.511637 
L 202.432918 177.199199 
L 202.569045 178.297749 
L 202.703481 176.464489 
L 202.972354 180.329326 
L 203.10679 178.834142 
L 203.376508 173.209828 
L 203.51179 173.056406 
L 203.647071 169.110759 
L 203.781508 168.545477 
L 204.051226 165.626159 
L 204.186507 166.13093 
L 204.320944 166.323001 
L 204.456225 167.595665 
L 204.591507 169.982494 
L 204.86038 162.958641 
L 205.130097 166.781316 
L 205.266225 167.528908 
L 205.400661 171.7408 
L 205.535097 171.003358 
L 205.670379 171.169663 
L 206.074533 176.782655 
L 206.344251 176.154912 
L 206.479533 178.101384 
L 206.616506 174.610929 
L 206.750942 174.234986 
L 206.885378 174.584773 
L 207.02066 176.231818 
L 207.155096 175.510382 
L 207.424814 182.726696 
L 207.55925 183.336872 
L 207.694532 184.539656 
L 207.965096 188.667614 
L 208.233968 186.30655 
L 208.36925 188.718364 
L 208.503686 188.747253 
L 208.77425 189.394906 
L 208.910377 186.315138 
L 209.179249 188.737103 
L 209.313685 189.412473 
L 209.448122 188.481399 
L 209.583403 189.156379 
L 209.718685 188.806592 
L 209.853121 185.424664 
L 209.987558 185.771719 
L 210.258121 183.743265 
L 210.393403 184.915599 
L 210.527839 184.428395 
L 211.068121 174.222103 
L 211.203402 172.599652 
L 211.337839 172.690613 
L 211.472275 172.591064 
L 211.742838 173.308206 
L 212.012556 174.785823 
L 212.147838 174.953689 
L 212.417556 180.475331 
L 212.551992 179.466179 
L 213.296887 185.827935 
L 213.432169 183.975936 
L 213.836323 188.608275 
L 214.106887 187.677201 
L 214.241323 190.238143 
L 214.376605 188.213593 
L 214.511041 189.899677 
L 214.780759 187.134952 
L 214.916041 189.83175 
L 215.051323 189.634994 
L 215.185759 186.166401 
L 215.455477 191.692337 
L 215.725195 187.73654 
L 215.859631 185.738536 
L 215.994067 186.915164 
L 216.129349 185.625714 
L 216.265476 189.393735 
L 216.399912 187.502307 
L 216.535194 187.305552 
L 216.670476 186.89057 
L 216.804912 188.354133 
L 216.939348 185.496886 
L 217.209066 191.177806 
L 217.343503 189.26764 
L 217.613221 192.010503 
L 217.748502 190.833484 
L 217.882939 193.884363 
L 218.287093 195.194504 
L 218.421529 195.127747 
L 218.555965 195.923357 
L 218.690402 195.107838 
L 218.825683 192.557045 
L 218.96012 192.328668 
L 219.229837 189.96331 
L 219.364274 189.047851 
L 219.49871 190.793274 
L 219.633992 190.623846 
L 219.769273 191.052101 
L 220.038991 187.34459 
L 220.175964 186.219884 
L 220.311246 188.217887 
L 220.446528 186.002828 
L 220.580964 187.558913 
L 220.7154 186.478711 
L 220.850682 188.69377 
L 221.1204 184.989382 
L 221.254836 185.534363 
L 221.389272 186.94132 
L 221.524554 186.640722 
L 221.659836 183.563687 
L 221.929554 185.37977 
L 222.06399 182.772762 
L 222.333708 181.922888 
L 222.602581 178.159162 
L 222.737017 179.523956 
L 222.872298 179.758189 
L 223.006735 180.926619 
L 223.141171 184.185574 
L 223.276453 180.472598 
L 223.410889 182.611141 
L 223.546171 182.978106 
L 223.815043 178.024478 
L 224.219197 176.489084 
L 224.488915 179.9405 
L 224.626734 176.497672 
L 224.896452 177.868323 
L 225.031733 178.143156 
L 225.435888 180.771635 
L 225.570324 180.378515 
L 225.70476 179.30573 
L 225.974478 184.208607 
L 226.108914 179.379513 
L 226.243351 179.059786 
L 226.512223 173.166495 
L 226.646659 174.466486 
L 226.781941 173.941414 
L 227.050813 176.055363 
L 227.186095 175.712603 
L 227.320531 176.815838 
L 227.455813 174.346246 
L 227.590249 174.407147 
L 227.724686 174.8639 
L 228.12884 179.596178 
L 228.262431 179.301436 
L 228.397712 174.590629 
L 228.532994 174.396997 
L 228.66743 176.455901 
L 228.801867 176.607761 
L 228.937148 177.197637 
L 229.071585 174.865462 
L 229.206866 178.008862 
L 229.341302 178.257539 
L 229.475739 177.598175 
L 229.745457 178.332494 
L 230.014329 174.247869 
L 230.148765 175.977285 
L 230.418483 176.536711 
L 230.555456 174.292763 
L 230.689892 175.70987 
L 230.825174 174.554323 
L 230.95961 174.837744 
L 231.094047 177.128148 
L 231.229328 175.398731 
L 231.499046 181.584422 
L 231.768764 181.475894 
L 231.904046 180.664669 
L 232.172073 181.237367 
L 232.306509 179.088674 
L 232.440945 178.838826 
L 232.576227 180.96839 
L 232.710663 179.644196 
L 232.8451 174.548857 
L 232.980381 176.058096 
L 233.114818 174.514113 
L 233.38369 176.386412 
L 233.518126 176.142029 
L 233.653408 174.072975 
L 234.058408 181.064035 
L 234.462562 174.349369 
L 234.597844 173.478805 
L 234.73228 171.772811 
L 234.867562 172.37557 
L 235.001998 169.786129 
L 235.13728 169.346553 
L 235.405307 174.307208 
L 235.541434 173.431178 
L 235.676716 174.013636 
L 235.811998 173.63496 
L 235.946434 172.030077 
L 236.216152 172.599652 
L 236.621997 175.005611 
L 236.757279 178.030334 
L 237.026997 176.529684 
L 237.161433 174.560179 
L 237.295869 175.585336 
L 237.430305 175.72002 
L 237.700023 178.37895 
L 237.835305 178.724443 
L 237.969741 178.677987 
L 238.239459 176.70731 
L 238.378123 173.641987 
L 238.646996 176.221668 
L 238.782277 177.998712 
L 238.916714 176.266563 
L 239.05115 180.705269 
L 239.321713 181.924059 
L 239.45615 179.082819 
L 239.591431 179.969389 
L 239.72164 179.626628 
L 239.859458 177.611057 
L 240.129176 180.49407 
L 240.264458 178.547988 
L 240.398894 178.79237 
L 240.53333 177.738324 
L 240.667767 178.987564 
L 240.803048 178.481622 
L 240.937485 179.126542 
L 241.072766 175.520532 
L 241.207203 176.396562 
L 241.342484 178.423844 
L 241.612202 175.007172 
L 241.746639 178.313755 
L 242.016357 175.479932 
L 242.151638 177.060221 
L 242.286075 176.253289 
L 242.421356 177.130881 
L 242.555793 176.834577 
L 242.690229 178.669398 
L 242.959947 177.031332 
L 243.094383 179.107413 
L 243.229665 178.773632 
L 243.364101 177.551719 
L 243.499383 178.031895 
L 243.633819 174.991167 
L 243.903537 178.154867 
L 244.173255 173.390578 
L 244.442127 168.627849 
L 244.576564 168.912832 
L 244.715227 167.865813 
L 244.9841 171.773983 
L 245.119382 172.109716 
L 245.253818 171.079874 
L 245.3891 171.719328 
L 245.658818 169.337964 
L 245.792408 169.879822 
L 245.92769 166.132102 
L 246.061281 167.909146 
L 246.196563 168.18554 
L 246.330999 167.177559 
L 246.466281 172.13392 
L 246.599871 169.878651 
L 246.870435 171.709178 
L 247.139307 173.821565 
L 247.273743 172.061698 
L 247.409025 172.547731 
L 247.543461 168.713344 
L 247.814025 169.66589 
L 247.948461 170.961586 
L 248.082897 170.187838 
L 248.217334 173.026346 
L 248.352615 172.95959 
L 248.487052 172.628541 
L 248.622333 171.273896 
L 248.75677 171.86221 
L 248.892051 171.594795 
L 249.027333 166.788733 
L 249.161769 167.938034 
L 249.296206 166.706362 
L 249.430642 167.926713 
L 249.565078 164.067732 
L 249.70036 164.517068 
L 249.834796 166.780145 
L 249.970078 165.400515 
L 250.104514 170.524742 
L 250.239796 170.413482 
L 250.374232 169.371147 
L 250.64395 169.198986 
L 250.778386 171.145068 
L 250.912822 167.890407 
L 251.18254 173.478805 
L 251.317822 173.903937 
L 251.451413 171.977765 
L 251.586695 174.119431 
L 251.856413 168.136351 
L 252.126131 170.364293 
L 252.260567 170.877653 
L 252.395849 170.84447 
L 252.529439 173.595921 
L 252.664721 170.075016 
L 252.799157 169.693607 
L 253.068875 172.255721 
L 253.204157 171.962149 
L 253.338593 170.685192 
L 253.473875 170.479848 
L 253.608311 172.679291 
L 253.742747 173.033373 
L 254.012465 176.139296 
L 254.146902 175.002878 
L 254.281338 176.309896 
L 254.415774 175.383116 
L 254.551056 177.975289 
L 254.685492 176.373529 
L 254.819928 177.501359 
L 255.088801 171.084558 
L 255.224083 173.611927 
L 255.358519 173.476072 
L 255.498028 173.507694 
L 255.63331 172.822173 
L 255.767746 174.720628 
L 255.902182 172.880341 
L 256.037464 176.393829 
L 256.1719 173.786821 
L 256.441618 177.161331 
L 256.576055 178.51051 
L 256.710491 177.676252 
L 256.844927 179.269424 
L 256.9819 179.488041 
L 257.117181 181.99511 
L 257.251618 181.841687 
L 257.521336 179.055491 
L 257.656617 180.473769 
L 257.791899 178.216939 
L 257.926335 180.540526 
L 258.196053 180.497193 
L 258.331335 177.193343 
L 258.466617 177.65439 
L 258.601053 179.868278 
L 258.871617 178.507387 
L 259.006053 180.627192 
L 259.140489 178.151744 
L 259.410207 179.915906 
L 259.544643 180.053322 
L 259.679925 181.117519 
L 259.949643 176.434039 
L 260.219361 178.533543 
L 260.353797 176.28374 
L 260.488233 179.016453 
L 260.62267 177.699285 
L 260.757951 178.131444 
L 261.028515 176.386412 
L 261.162951 176.382117 
L 261.431824 170.659426 
L 261.567105 170.513421 
L 261.69816 169.882945 
L 261.967878 163.915871 
L 262.102314 164.054459 
L 262.506468 167.459419 
L 262.64175 167.384465 
L 262.910622 172.076143 
L 263.045058 169.045564 
L 263.179495 168.772293 
L 263.313931 170.801137 
L 263.448367 169.8076 
L 263.582803 166.800445 
L 263.718085 166.807472 
L 263.852521 167.001104 
L 264.123085 166.897261 
L 264.527239 170.549337 
L 264.662521 164.875834 
L 264.931393 166.69465 
L 265.066675 166.671617 
L 265.201111 162.461287 
L 265.335548 163.182724 
L 265.470829 162.873146 
L 265.605266 164.42767 
L 265.740547 162.656481 
L 266.010265 164.511603 
L 266.144702 165.512166 
L 266.279983 165.031989 
L 266.414419 166.176996 
L 266.549701 165.115923 
L 266.684137 166.071592 
L 266.819419 164.55923 
L 266.954701 168.976465 
L 267.089137 168.374878 
L 267.224419 168.995204 
L 267.358855 167.789297 
L 267.759627 173.682587 
L 267.894064 172.181938 
L 268.032727 172.700763 
L 268.167164 171.717767 
L 268.437727 169.138086 
L 268.573009 168.963192 
L 268.971244 171.414045 
L 269.106526 171.182545 
L 269.240962 165.627721 
L 269.375399 165.2143 
L 269.51068 167.941158 
L 269.645962 167.698336 
L 269.780398 165.419254 
L 270.318989 169.070158 
L 270.454271 168.311245 
L 270.723143 170.289339 
L 270.992861 166.01967 
L 271.127297 163.29984 
L 271.261734 165.026134 
L 271.397015 163.976381 
L 271.532297 168.157823 
L 271.667579 168.700071 
L 271.802861 166.823478 
L 271.936451 167.479719 
L 272.205324 163.8335 
L 272.610323 166.518195 
L 272.745605 165.928319 
L 273.014478 168.43695 
L 273.148914 167.847074 
L 273.28335 170.124205 
L 273.553068 165.046434 
L 273.691732 165.682766 
L 273.826168 166.191441 
L 273.960604 168.804304 
L 274.230322 167.565214 
L 274.364759 171.14663 
L 274.50004 168.220285 
L 274.634477 172.414609 
L 274.768913 171.081435 
L 274.904195 171.255158 
L 275.038631 171.163807 
L 275.177295 172.016804 
L 275.311731 170.80387 
L 275.581449 172.030077 
L 275.851167 170.772248 
L 275.986449 173.509255 
L 276.12173 173.037667 
L 276.255321 170.97603 
L 276.390603 170.96588 
L 276.525039 169.317664 
L 276.660321 172.155782 
L 277.063629 159.991696 
L 277.198066 160.118962 
L 277.333347 156.637095 
L 277.467784 158.401257 
L 277.736656 163.359179 
L 277.871092 165.079617 
L 278.006374 165.167844 
L 278.14081 165.047995 
L 278.276092 170.10976 
L 278.544965 165.273249 
L 278.680246 169.752556 
L 278.814683 169.488263 
L 278.949964 170.004356 
L 279.218837 164.853973 
L 279.354118 164.689229 
L 279.488555 163.639477 
L 279.623836 164.34803 
L 279.758273 166.879694 
L 279.892709 165.623427 
L 280.027991 165.458293 
L 280.432145 163.794461 
L 280.701863 163.016418 
L 281.106017 168.682894 
L 281.375735 164.394487 
L 281.510171 163.710528 
L 281.779044 169.463669 
L 281.914326 169.562047 
L 282.184044 170.918253 
L 282.588198 165.766308 
L 282.722634 166.307386 
L 282.857916 166.05988 
L 282.992352 169.093582 
L 283.126788 167.987223 
L 283.397352 170.957292 
L 283.531788 169.39418 
L 283.66707 170.808164 
L 283.936788 169.772856 
L 284.071224 172.210826 
L 284.206506 169.93799 
L 284.340942 172.003921 
L 284.476224 171.006481 
L 284.611505 169.166974 
L 284.745942 171.490561 
L 284.880378 169.259887 
L 285.014814 171.596356 
L 285.285378 167.810768 
L 285.420659 169.258325 
L 285.689532 165.461416 
L 285.824814 167.929446 
L 285.962632 164.194608 
L 286.23235 164.576407 
L 286.366786 164.598269 
L 286.501222 166.003664 
L 286.635658 164.935173 
L 286.770095 161.84955 
L 286.905376 163.377917 
L 287.175094 167.620259 
L 287.448194 169.762706 
L 287.718758 167.028822 
L 287.98763 169.710784 
L 288.122067 174.185797 
L 288.256503 169.694778 
L 288.525375 172.338093 
L 288.795093 171.314106 
L 288.92953 171.359001 
L 289.064811 169.754117 
L 289.46812 158.101829 
L 289.737838 144.938742 
L 290.007556 122.611306 
L 290.546992 35.684879 
L 290.760686 -1 
M 293.044326 -1 
L 293.10889 4.223936 
L 294.05248 150.823444 
L 294.317971 160.72172 
L 294.587689 163.145246 
L 294.722125 161.959639 
L 294.991843 169.30322 
L 295.262406 163.979505 
L 295.396843 160.964541 
L 295.534661 166.292941 
L 295.665715 164.424546 
L 295.800151 167.975902 
L 295.935433 165.751864 
L 296.069869 167.951308 
L 296.205151 166.566213 
L 296.339587 169.843907 
L 296.474869 166.169969 
L 296.609305 168.522445 
L 296.742896 167.129932 
L 296.877332 166.94645 
L 297.012614 165.331417 
L 297.147896 166.346424 
L 297.283177 166.172702 
L 297.418459 166.780145 
L 297.553741 168.073889 
L 297.689023 163.681639 
L 297.823459 165.630454 
L 297.958741 165.621865 
L 298.093177 163.921337 
L 298.364586 168.655176 
L 298.499022 169.38403 
L 298.634304 167.514464 
L 298.769586 169.592107 
L 298.904022 167.566385 
L 299.038458 167.414915 
L 299.17374 165.773726 
L 299.310713 167.459419 
L 299.445994 167.129932 
L 299.850149 169.184542 
L 299.984585 167.284526 
L 300.119021 167.855663 
L 300.254303 169.233731 
L 300.524021 164.869979 
L 300.793739 166.529907 
L 300.928175 166.40264 
L 301.062611 163.742149 
L 301.333175 169.680334 
L 301.602893 166.318707 
L 301.871765 170.636003 
L 302.006201 169.096314 
L 302.140638 169.320397 
L 302.410356 171.216119 
L 302.680919 169.311808 
L 302.81451 170.306516 
L 302.949792 168.331545 
L 303.084228 169.864207 
L 303.21951 169.430486 
L 303.353946 168.57866 
L 303.758945 171.377739 
L 303.893382 170.208138 
L 304.028663 173.431178 
L 304.1631 170.897953 
L 304.297536 172.361126 
L 304.432818 170.802308 
L 304.836972 171.357829 
L 304.972254 170.718765 
L 305.107535 172.277192 
L 305.241972 172.178815 
L 305.51169 168.962021 
L 305.647817 164.707968 
L 305.783099 165.621865 
L 305.91838 164.341003 
L 306.052817 164.419081 
L 306.32338 162.501497 
L 306.457816 163.159691 
L 306.591407 164.783313 
L 306.726689 164.360913 
L 306.861125 158.688972 
L 306.996407 158.510956 
L 307.135071 157.059495 
L 307.269507 157.057933 
L 307.404789 158.042491 
L 307.539225 151.345392 
L 307.808943 155.632238 
L 307.943379 154.906507 
L 308.211406 151.132631 
L 308.750842 159.333893 
L 308.885278 157.838708 
L 309.02056 160.888025 
L 309.154996 161.152708 
L 309.424714 159.750046 
L 309.559996 159.612629 
L 309.695278 161.981111 
L 309.829714 161.762884 
L 310.099432 163.730828 
L 310.099432 163.730828 
" clip-path="url(#p311860aba4)" style="fill: none; stroke: #1f77b4; stroke-width: 1.5; stroke-linecap: square"/>
   </g>
   <g id="patch_3">
    <path d="M 43.78125 198.8355 
L 43.78125 35.7555 
" style="fill: none; stroke: #000000; stroke-width: 0.8; stroke-linejoin: miter; stroke-linecap: square"/>
   </g>
   <g id="patch_4">
    <path d="M 322.78125 198.8355 
L 322.78125 35.7555 
" style="fill: none; stroke: #000000; stroke-width: 0.8; stroke-linejoin: miter; stroke-linecap: square"/>
   </g>
   <g id="patch_5">
    <path d="M 43.78125 198.8355 
L 322.78125 198.8355 
" style="fill: none; stroke: #000000; stroke-width: 0.8; stroke-linejoin: miter; stroke-linecap: square"/>
   </g>
   <g id="patch_6">
    <path d="M 43.78125 35.7555 
L 322.78125 35.7555 
" style="fill: none; stroke: #000000; stroke-width: 0.8; stroke-linejoin: miter; stroke-linecap: square"/>
   </g>
   <g id="text_16">
    <!-- After equalize -->
    <g transform="translate(141.814687 16.318125)scale(0.12 -0.12)">
     <defs>
      <path id="DejaVuSans-41" d="M 2188 4044 
L 1331 1722 
L 3047 1722 
L 2188 4044 
z
M 1831 4666 
L 2547 4666 
L 4325 0 
L 3669 0 
L 3244 1197 
L 1141 1197 
L 716 0 
L 50 0 
L 1831 4666 
z
" transform="scale(0.015625)"/>
      <path id="DejaVuSans-66" d="M 2375 4863 
L 2375 4384 
L 1825 4384 
Q 1516 4384 1395 4259 
Q 1275 4134 1275 3809 
L 1275 3500 
L 2222 3500 
L 2222 3053 
L 1275 3053 
L 1275 0 
L 697 0 
L 697 3053 
L 147 3053 
L 147 3500 
L 697 3500 
L 697 3744 
Q 697 4328 969 4595 
Q 1241 4863 1831 4863 
L 2375 4863 
z
" transform="scale(0.015625)"/>
      <path id="DejaVuSans-74" d="M 1172 4494 
L 1172 3500 
L 2356 3500 
L 2356 3053 
L 1172 3053 
L 1172 1153 
Q 1172 725 1289 603 
Q 1406 481 1766 481 
L 2356 481 
L 2356 0 
L 1766 0 
Q 1100 0 847 248 
Q 594 497 594 1153 
L 594 3053 
L 172 3053 
L 172 3500 
L 594 3500 
L 594 4494 
L 1172 4494 
z
" transform="scale(0.015625)"/>
      <path id="DejaVuSans-72" d="M 2631 2963 
Q 2534 3019 2420 3045 
Q 2306 3072 2169 3072 
Q 1681 3072 1420 2755 
Q 1159 2438 1159 1844 
L 1159 0 
L 581 0 
L 581 3500 
L 1159 3500 
L 1159 2956 
Q 1341 3275 1631 3429 
Q 1922 3584 2338 3584 
Q 2397 3584 2469 3576 
Q 2541 3569 2628 3553 
L 2631 2963 
z
" transform="scale(0.015625)"/>
      <path id="DejaVuSans-71" d="M 947 1747 
Q 947 1113 1208 752 
Q 1469 391 1925 391 
Q 2381 391 2643 752 
Q 2906 1113 2906 1747 
Q 2906 2381 2643 2742 
Q 2381 3103 1925 3103 
Q 1469 3103 1208 2742 
Q 947 2381 947 1747 
z
M 2906 525 
Q 2725 213 2448 61 
Q 2172 -91 1784 -91 
Q 1150 -91 751 415 
Q 353 922 353 1747 
Q 353 2572 751 3078 
Q 1150 3584 1784 3584 
Q 2172 3584 2448 3432 
Q 2725 3281 2906 2969 
L 2906 3500 
L 3481 3500 
L 3481 -1331 
L 2906 -1331 
L 2906 525 
z
" transform="scale(0.015625)"/>
      <path id="DejaVuSans-75" d="M 544 1381 
L 544 3500 
L 1119 3500 
L 1119 1403 
Q 1119 906 1312 657 
Q 1506 409 1894 409 
Q 2359 409 2629 706 
Q 2900 1003 2900 1516 
L 2900 3500 
L 3475 3500 
L 3475 0 
L 2900 0 
L 2900 538 
Q 2691 219 2414 64 
Q 2138 -91 1772 -91 
Q 1169 -91 856 284 
Q 544 659 544 1381 
z
M 1991 3584 
L 1991 3584 
z
" transform="scale(0.015625)"/>
      <path id="DejaVuSans-61" d="M 2194 1759 
Q 1497 1759 1228 1600 
Q 959 1441 959 1056 
Q 959 750 1161 570 
Q 1363 391 1709 391 
Q 2188 391 2477 730 
Q 2766 1069 2766 1631 
L 2766 1759 
L 2194 1759 
z
M 3341 1997 
L 3341 0 
L 2766 0 
L 2766 531 
Q 2569 213 2275 61 
Q 1981 -91 1556 -91 
Q 1019 -91 701 211 
Q 384 513 384 1019 
Q 384 1609 779 1909 
Q 1175 2209 1959 2209 
L 2766 2209 
L 2766 2266 
Q 2766 2663 2505 2880 
Q 2244 3097 1772 3097 
Q 1472 3097 1187 3025 
Q 903 2953 641 2809 
L 641 3341 
Q 956 3463 1253 3523 
Q 1550 3584 1831 3584 
Q 2591 3584 2966 3190 
Q 3341 2797 3341 1997 
z
" transform="scale(0.015625)"/>
      <path id="DejaVuSans-6c" d="M 603 4863 
L 1178 4863 
L 1178 0 
L 603 0 
L 603 4863 
z
" transform="scale(0.015625)"/>
      <path id="DejaVuSans-7a" d="M 353 3500 
L 3084 3500 
L 3084 2975 
L 922 459 
L 3084 459 
L 3084 0 
L 275 0 
L 275 525 
L 2438 3041 
L 353 3041 
L 353 3500 
z
" transform="scale(0.015625)"/>
     </defs>
     <use xlink:href="#DejaVuSans-41"/>
     <use xlink:href="#DejaVuSans-66" x="64.783203"/>
     <use xlink:href="#DejaVuSans-74" x="98.238281"/>
     <use xlink:href="#DejaVuSans-65" x="137.447266"/>
     <use xlink:href="#DejaVuSans-72" x="198.970703"/>
     <use xlink:href="#DejaVuSans-20" x="240.083984"/>
     <use xlink:href="#DejaVuSans-65" x="271.871094"/>
     <use xlink:href="#DejaVuSans-71" x="333.394531"/>
     <use xlink:href="#DejaVuSans-75" x="396.871094"/>
     <use xlink:href="#DejaVuSans-61" x="460.25"/>
     <use xlink:href="#DejaVuSans-6c" x="521.529297"/>
     <use xlink:href="#DejaVuSans-69" x="549.3125"/>
     <use xlink:href="#DejaVuSans-7a" x="577.095703"/>
     <use xlink:href="#DejaVuSans-65" x="629.585938"/>
    </g>
    <!-- NTR_C3_005_crop - Intensity Equalized, ROI=6 -->
    <g transform="translate(43.003125 29.7555)scale(0.12 -0.12)">
     <defs>
      <path id="DejaVuSans-4e" d="M 628 4666 
L 1478 4666 
L 3547 763 
L 3547 4666 
L 4159 4666 
L 4159 0 
L 3309 0 
L 1241 3903 
L 1241 0 
L 628 0 
L 628 4666 
z
" transform="scale(0.015625)"/>
      <path id="DejaVuSans-52" d="M 2841 2188 
Q 3044 2119 3236 1894 
Q 3428 1669 3622 1275 
L 4263 0 
L 3584 0 
L 2988 1197 
Q 2756 1666 2539 1819 
Q 2322 1972 1947 1972 
L 1259 1972 
L 1259 0 
L 628 0 
L 628 4666 
L 2053 4666 
Q 2853 4666 3247 4331 
Q 3641 3997 3641 3322 
Q 3641 2881 3436 2590 
Q 3231 2300 2841 2188 
z
M 1259 4147 
L 1259 2491 
L 2053 2491 
Q 2509 2491 2742 2702 
Q 2975 2913 2975 3322 
Q 2975 3731 2742 3939 
Q 2509 4147 2053 4147 
L 1259 4147 
z
" transform="scale(0.015625)"/>
      <path id="DejaVuSans-5f" d="M 3263 -1063 
L 3263 -1509 
L -63 -1509 
L -63 -1063 
L 3263 -1063 
z
" transform="scale(0.015625)"/>
      <path id="DejaVuSans-43" d="M 4122 4306 
L 4122 3641 
Q 3803 3938 3442 4084 
Q 3081 4231 2675 4231 
Q 1875 4231 1450 3742 
Q 1025 3253 1025 2328 
Q 1025 1406 1450 917 
Q 1875 428 2675 428 
Q 3081 428 3442 575 
Q 3803 722 4122 1019 
L 4122 359 
Q 3791 134 3420 21 
Q 3050 -91 2638 -91 
Q 1578 -91 968 557 
Q 359 1206 359 2328 
Q 359 3453 968 4101 
Q 1578 4750 2638 4750 
Q 3056 4750 3426 4639 
Q 3797 4528 4122 4306 
z
" transform="scale(0.015625)"/>
      <path id="DejaVuSans-63" d="M 3122 3366 
L 3122 2828 
Q 2878 2963 2633 3030 
Q 2388 3097 2138 3097 
Q 1578 3097 1268 2742 
Q 959 2388 959 1747 
Q 959 1106 1268 751 
Q 1578 397 2138 397 
Q 2388 397 2633 464 
Q 2878 531 3122 666 
L 3122 134 
Q 2881 22 2623 -34 
Q 2366 -91 2075 -91 
Q 1284 -91 818 406 
Q 353 903 353 1747 
Q 353 2603 823 3093 
Q 1294 3584 2113 3584 
Q 2378 3584 2631 3529 
Q 2884 3475 3122 3366 
z
" transform="scale(0.015625)"/>
      <path id="DejaVuSans-6f" d="M 1959 3097 
Q 1497 3097 1228 2736 
Q 959 2375 959 1747 
Q 959 1119 1226 758 
Q 1494 397 1959 397 
Q 2419 397 2687 759 
Q 2956 1122 2956 1747 
Q 2956 2369 2687 2733 
Q 2419 3097 1959 3097 
z
M 1959 3584 
Q 2709 3584 3137 3096 
Q 3566 2609 3566 1747 
Q 3566 888 3137 398 
Q 2709 -91 1959 -91 
Q 1206 -91 779 398 
Q 353 888 353 1747 
Q 353 2609 779 3096 
Q 1206 3584 1959 3584 
z
" transform="scale(0.015625)"/>
      <path id="DejaVuSans-70" d="M 1159 525 
L 1159 -1331 
L 581 -1331 
L 581 3500 
L 1159 3500 
L 1159 2969 
Q 1341 3281 1617 3432 
Q 1894 3584 2278 3584 
Q 2916 3584 3314 3078 
Q 3713 2572 3713 1747 
Q 3713 922 3314 415 
Q 2916 -91 2278 -91 
Q 1894 -91 1617 61 
Q 1341 213 1159 525 
z
M 3116 1747 
Q 3116 2381 2855 2742 
Q 2594 3103 2138 3103 
Q 1681 3103 1420 2742 
Q 1159 2381 1159 1747 
Q 1159 1113 1420 752 
Q 1681 391 2138 391 
Q 2594 391 2855 752 
Q 3116 1113 3116 1747 
z
" transform="scale(0.015625)"/>
      <path id="DejaVuSans-49" d="M 628 4666 
L 1259 4666 
L 1259 0 
L 628 0 
L 628 4666 
z
" transform="scale(0.015625)"/>
      <path id="DejaVuSans-6e" d="M 3513 2113 
L 3513 0 
L 2938 0 
L 2938 2094 
Q 2938 2591 2744 2837 
Q 2550 3084 2163 3084 
Q 1697 3084 1428 2787 
Q 1159 2491 1159 1978 
L 1159 0 
L 581 0 
L 581 3500 
L 1159 3500 
L 1159 2956 
Q 1366 3272 1645 3428 
Q 1925 3584 2291 3584 
Q 2894 3584 3203 3211 
Q 3513 2838 3513 2113 
z
" transform="scale(0.015625)"/>
      <path id="DejaVuSans-79" d="M 2059 -325 
Q 1816 -950 1584 -1140 
Q 1353 -1331 966 -1331 
L 506 -1331 
L 506 -850 
L 844 -850 
Q 1081 -850 1212 -737 
Q 1344 -625 1503 -206 
L 1606 56 
L 191 3500 
L 800 3500 
L 1894 763 
L 2988 3500 
L 3597 3500 
L 2059 -325 
z
" transform="scale(0.015625)"/>
      <path id="DejaVuSans-45" d="M 628 4666 
L 3578 4666 
L 3578 4134 
L 1259 4134 
L 1259 2753 
L 3481 2753 
L 3481 2222 
L 1259 2222 
L 1259 531 
L 3634 531 
L 3634 0 
L 628 0 
L 628 4666 
z
" transform="scale(0.015625)"/>
      <path id="DejaVuSans-64" d="M 2906 2969 
L 2906 4863 
L 3481 4863 
L 3481 0 
L 2906 0 
L 2906 525 
Q 2725 213 2448 61 
Q 2172 -91 1784 -91 
Q 1150 -91 751 415 
Q 353 922 353 1747 
Q 353 2572 751 3078 
Q 1150 3584 1784 3584 
Q 2172 3584 2448 3432 
Q 2725 3281 2906 2969 
z
M 947 1747 
Q 947 1113 1208 752 
Q 1469 391 1925 391 
Q 2381 391 2643 752 
Q 2906 1113 2906 1747 
Q 2906 2381 2643 2742 
Q 2381 3103 1925 3103 
Q 1469 3103 1208 2742 
Q 947 2381 947 1747 
z
" transform="scale(0.015625)"/>
      <path id="DejaVuSans-2c" d="M 750 794 
L 1409 794 
L 1409 256 
L 897 -744 
L 494 -744 
L 750 256 
L 750 794 
z
" transform="scale(0.015625)"/>
      <path id="DejaVuSans-4f" d="M 2522 4238 
Q 1834 4238 1429 3725 
Q 1025 3213 1025 2328 
Q 1025 1447 1429 934 
Q 1834 422 2522 422 
Q 3209 422 3611 934 
Q 4013 1447 4013 2328 
Q 4013 3213 3611 3725 
Q 3209 4238 2522 4238 
z
M 2522 4750 
Q 3503 4750 4090 4092 
Q 4678 3434 4678 2328 
Q 4678 1225 4090 567 
Q 3503 -91 2522 -91 
Q 1538 -91 948 565 
Q 359 1222 359 2328 
Q 359 3434 948 4092 
Q 1538 4750 2522 4750 
z
" transform="scale(0.015625)"/>
      <path id="DejaVuSans-3d" d="M 678 2906 
L 4684 2906 
L 4684 2381 
L 678 2381 
L 678 2906 
z
M 678 1631 
L 4684 1631 
L 4684 1100 
L 678 1100 
L 678 1631 
z
" transform="scale(0.015625)"/>
     </defs>
     <use xlink:href="#DejaVuSans-4e"/>
     <use xlink:href="#DejaVuSans-54" x="74.804688"/>
     <use xlink:href="#DejaVuSans-52" x="135.888672"/>
     <use xlink:href="#DejaVuSans-5f" x="205.371094"/>
     <use xlink:href="#DejaVuSans-43" x="255.371094"/>
     <use xlink:href="#DejaVuSans-33" x="325.195312"/>
     <use xlink:href="#DejaVuSans-5f" x="388.818359"/>
     <use xlink:href="#DejaVuSans-30" x="438.818359"/>
     <use xlink:href="#DejaVuSans-30" x="502.441406"/>
     <use xlink:href="#DejaVuSans-35" x="566.064453"/>
     <use xlink:href="#DejaVuSans-5f" x="629.6875"/>
     <use xlink:href="#DejaVuSans-63" x="679.6875"/>
     <use xlink:href="#DejaVuSans-72" x="734.667969"/>
     <use xlink:href="#DejaVuSans-6f" x="773.53125"/>
     <use xlink:href="#DejaVuSans-70" x="834.712891"/>
     <use xlink:href="#DejaVuSans-20" x="898.189453"/>
     <use xlink:href="#DejaVuSans-2d" x="929.976562"/>
     <use xlink:href="#DejaVuSans-20" x="966.060547"/>
     <use xlink:href="#DejaVuSans-49" x="997.847656"/>
     <use xlink:href="#DejaVuSans-6e" x="1027.339844"/>
     <use xlink:href="#DejaVuSans-74" x="1090.71875"/>
     <use xlink:href="#DejaVuSans-65" x="1129.927734"/>
     <use xlink:href="#DejaVuSans-6e" x="1191.451172"/>
     <use xlink:href="#DejaVuSans-73" x="1254.830078"/>
     <use xlink:href="#DejaVuSans-69" x="1306.929688"/>
     <use xlink:href="#DejaVuSans-74" x="1334.712891"/>
     <use xlink:href="#DejaVuSans-79" x="1373.921875"/>
     <use xlink:href="#DejaVuSans-20" x="1433.101562"/>
     <use xlink:href="#DejaVuSans-45" x="1464.888672"/>
     <use xlink:href="#DejaVuSans-71" x="1528.072266"/>
     <use xlink:href="#DejaVuSans-75" x="1591.548828"/>
     <use xlink:href="#DejaVuSans-61" x="1654.927734"/>
     <use xlink:href="#DejaVuSans-6c" x="1716.207031"/>
     <use xlink:href="#DejaVuSans-69" x="1743.990234"/>
     <use xlink:href="#DejaVuSans-7a" x="1771.773438"/>
     <use xlink:href="#DejaVuSans-65" x="1824.263672"/>
     <use xlink:href="#DejaVuSans-64" x="1885.787109"/>
     <use xlink:href="#DejaVuSans-2c" x="1949.263672"/>
     <use xlink:href="#DejaVuSans-20" x="1981.050781"/>
     <use xlink:href="#DejaVuSans-52" x="2012.837891"/>
     <use xlink:href="#DejaVuSans-4f" x="2082.320312"/>
     <use xlink:href="#DejaVuSans-49" x="2161.03125"/>
     <use xlink:href="#DejaVuSans-3d" x="2190.523438"/>
     <use xlink:href="#DejaVuSans-36" x="2274.3125"/>
    </g>
   </g>
  </g>
 </g>
 <defs>
  <clipPath id="p311860aba4">
   <rect x="43.78125" y="35.7555" width="279" height="163.08"/>
  </clipPath>
 </defs>
</svg>
