<?xml version="1.0" encoding="utf-8" standalone="no"?>
<!DOCTYPE svg PUBLIC "-//W3C//DTD SVG 1.1//EN"
  "http://www.w3.org/Graphics/SVG/1.1/DTD/svg11.dtd">
<svg xmlns:xlink="http://www.w3.org/1999/xlink" width="330.759375pt" height="236.39175pt" viewBox="0 0 330.759375 236.39175" xmlns="http://www.w3.org/2000/svg" version="1.1">
 <metadata>
  <rdf:RDF xmlns:dc="http://purl.org/dc/elements/1.1/" xmlns:cc="http://creativecommons.org/ns#" xmlns:rdf="http://www.w3.org/1999/02/22-rdf-syntax-ns#">
   <cc:Work>
    <dc:type rdf:resource="http://purl.org/dc/dcmitype/StillImage"/>
    <dc:date>2025-01-27T16:06:41.400477</dc:date>
    <dc:format>image/svg+xml</dc:format>
    <dc:creator>
     <cc:Agent>
      <dc:title>Matplotlib v3.5.2, https://matplotlib.org/</dc:title>
     </cc:Agent>
    </dc:creator>
   </cc:Work>
  </rdf:RDF>
 </metadata>
 <defs>
  <style type="text/css">*{stroke-linejoin: round; stroke-linecap: butt}</style>
 </defs>
 <g id="figure_1">
  <g id="patch_1">
   <path d="M 0 236.39175 
L 330.759375 236.39175 
L 330.759375 0 
L 0 0 
L 0 236.39175 
z
" style="fill: none"/>
  </g>
  <g id="axes_1">
   <g id="patch_2">
    <path d="M 43.78125 198.8355 
L 322.78125 198.8355 
L 322.78125 35.7555 
L 43.78125 35.7555 
z
" style="fill: #ffffff"/>
   </g>
   <g id="matplotlib.axis_1">
    <g id="xtick_1">
     <g id="line2d_1">
      <defs>
       <path id="ma05d9d2b87" d="M 0 0 
L 0 3.5 
" style="stroke: #000000; stroke-width: 0.8"/>
      </defs>
      <g>
       <use xlink:href="#ma05d9d2b87" x="56.427557" y="198.8355" style="stroke: #000000; stroke-width: 0.8"/>
      </g>
     </g>
     <g id="text_1">
      <!-- 0 -->
      <g transform="translate(53.246307 213.433938)scale(0.1 -0.1)">
       <defs>
        <path id="DejaVuSans-30" d="M 2034 4250 
Q 1547 4250 1301 3770 
Q 1056 3291 1056 2328 
Q 1056 1369 1301 889 
Q 1547 409 2034 409 
Q 2525 409 2770 889 
Q 3016 1369 3016 2328 
Q 3016 3291 2770 3770 
Q 2525 4250 2034 4250 
z
M 2034 4750 
Q 2819 4750 3233 4129 
Q 3647 3509 3647 2328 
Q 3647 1150 3233 529 
Q 2819 -91 2034 -91 
Q 1250 -91 836 529 
Q 422 1150 422 2328 
Q 422 3509 836 4129 
Q 1250 4750 2034 4750 
z
" transform="scale(0.015625)"/>
       </defs>
       <use xlink:href="#DejaVuSans-30"/>
      </g>
     </g>
    </g>
    <g id="xtick_2">
     <g id="line2d_2">
      <g>
       <use xlink:href="#ma05d9d2b87" x="98.703102" y="198.8355" style="stroke: #000000; stroke-width: 0.8"/>
      </g>
     </g>
     <g id="text_2">
      <!-- 50 -->
      <g transform="translate(92.340602 213.433938)scale(0.1 -0.1)">
       <defs>
        <path id="DejaVuSans-35" d="M 691 4666 
L 3169 4666 
L 3169 4134 
L 1269 4134 
L 1269 2991 
Q 1406 3038 1543 3061 
Q 1681 3084 1819 3084 
Q 2600 3084 3056 2656 
Q 3513 2228 3513 1497 
Q 3513 744 3044 326 
Q 2575 -91 1722 -91 
Q 1428 -91 1123 -41 
Q 819 9 494 109 
L 494 744 
Q 775 591 1075 516 
Q 1375 441 1709 441 
Q 2250 441 2565 725 
Q 2881 1009 2881 1497 
Q 2881 1984 2565 2268 
Q 2250 2553 1709 2553 
Q 1456 2553 1204 2497 
Q 953 2441 691 2322 
L 691 4666 
z
" transform="scale(0.015625)"/>
       </defs>
       <use xlink:href="#DejaVuSans-35"/>
       <use xlink:href="#DejaVuSans-30" x="63.623047"/>
      </g>
     </g>
    </g>
    <g id="xtick_3">
     <g id="line2d_3">
      <g>
       <use xlink:href="#ma05d9d2b87" x="140.978648" y="198.8355" style="stroke: #000000; stroke-width: 0.8"/>
      </g>
     </g>
     <g id="text_3">
      <!-- 100 -->
      <g transform="translate(131.434898 213.433938)scale(0.1 -0.1)">
       <defs>
        <path id="DejaVuSans-31" d="M 794 531 
L 1825 531 
L 1825 4091 
L 703 3866 
L 703 4441 
L 1819 4666 
L 2450 4666 
L 2450 531 
L 3481 531 
L 3481 0 
L 794 0 
L 794 531 
z
" transform="scale(0.015625)"/>
       </defs>
       <use xlink:href="#DejaVuSans-31"/>
       <use xlink:href="#DejaVuSans-30" x="63.623047"/>
       <use xlink:href="#DejaVuSans-30" x="127.246094"/>
      </g>
     </g>
    </g>
    <g id="xtick_4">
     <g id="line2d_4">
      <g>
       <use xlink:href="#ma05d9d2b87" x="183.254194" y="198.8355" style="stroke: #000000; stroke-width: 0.8"/>
      </g>
     </g>
     <g id="text_4">
      <!-- 150 -->
      <g transform="translate(173.710444 213.433938)scale(0.1 -0.1)">
       <use xlink:href="#DejaVuSans-31"/>
       <use xlink:href="#DejaVuSans-35" x="63.623047"/>
       <use xlink:href="#DejaVuSans-30" x="127.246094"/>
      </g>
     </g>
    </g>
    <g id="xtick_5">
     <g id="line2d_5">
      <g>
       <use xlink:href="#ma05d9d2b87" x="225.529739" y="198.8355" style="stroke: #000000; stroke-width: 0.8"/>
      </g>
     </g>
     <g id="text_5">
      <!-- 200 -->
      <g transform="translate(215.985989 213.433938)scale(0.1 -0.1)">
       <defs>
        <path id="DejaVuSans-32" d="M 1228 531 
L 3431 531 
L 3431 0 
L 469 0 
L 469 531 
Q 828 903 1448 1529 
Q 2069 2156 2228 2338 
Q 2531 2678 2651 2914 
Q 2772 3150 2772 3378 
Q 2772 3750 2511 3984 
Q 2250 4219 1831 4219 
Q 1534 4219 1204 4116 
Q 875 4013 500 3803 
L 500 4441 
Q 881 4594 1212 4672 
Q 1544 4750 1819 4750 
Q 2544 4750 2975 4387 
Q 3406 4025 3406 3419 
Q 3406 3131 3298 2873 
Q 3191 2616 2906 2266 
Q 2828 2175 2409 1742 
Q 1991 1309 1228 531 
z
" transform="scale(0.015625)"/>
       </defs>
       <use xlink:href="#DejaVuSans-32"/>
       <use xlink:href="#DejaVuSans-30" x="63.623047"/>
       <use xlink:href="#DejaVuSans-30" x="127.246094"/>
      </g>
     </g>
    </g>
    <g id="xtick_6">
     <g id="line2d_6">
      <g>
       <use xlink:href="#ma05d9d2b87" x="267.805285" y="198.8355" style="stroke: #000000; stroke-width: 0.8"/>
      </g>
     </g>
     <g id="text_6">
      <!-- 250 -->
      <g transform="translate(258.261535 213.433938)scale(0.1 -0.1)">
       <use xlink:href="#DejaVuSans-32"/>
       <use xlink:href="#DejaVuSans-35" x="63.623047"/>
       <use xlink:href="#DejaVuSans-30" x="127.246094"/>
      </g>
     </g>
    </g>
    <g id="xtick_7">
     <g id="line2d_7">
      <g>
       <use xlink:href="#ma05d9d2b87" x="310.080831" y="198.8355" style="stroke: #000000; stroke-width: 0.8"/>
      </g>
     </g>
     <g id="text_7">
      <!-- 300 -->
      <g transform="translate(300.537081 213.433938)scale(0.1 -0.1)">
       <defs>
        <path id="DejaVuSans-33" d="M 2597 2516 
Q 3050 2419 3304 2112 
Q 3559 1806 3559 1356 
Q 3559 666 3084 287 
Q 2609 -91 1734 -91 
Q 1441 -91 1130 -33 
Q 819 25 488 141 
L 488 750 
Q 750 597 1062 519 
Q 1375 441 1716 441 
Q 2309 441 2620 675 
Q 2931 909 2931 1356 
Q 2931 1769 2642 2001 
Q 2353 2234 1838 2234 
L 1294 2234 
L 1294 2753 
L 1863 2753 
Q 2328 2753 2575 2939 
Q 2822 3125 2822 3475 
Q 2822 3834 2567 4026 
Q 2313 4219 1838 4219 
Q 1578 4219 1281 4162 
Q 984 4106 628 3988 
L 628 4550 
Q 988 4650 1302 4700 
Q 1616 4750 1894 4750 
Q 2613 4750 3031 4423 
Q 3450 4097 3450 3541 
Q 3450 3153 3228 2886 
Q 3006 2619 2597 2516 
z
" transform="scale(0.015625)"/>
       </defs>
       <use xlink:href="#DejaVuSans-33"/>
       <use xlink:href="#DejaVuSans-30" x="63.623047"/>
       <use xlink:href="#DejaVuSans-30" x="127.246094"/>
      </g>
     </g>
    </g>
    <g id="text_8">
     <!-- Time [s] -->
     <g transform="translate(162.952344 227.112063)scale(0.1 -0.1)">
      <defs>
       <path id="DejaVuSans-54" d="M -19 4666 
L 3928 4666 
L 3928 4134 
L 2272 4134 
L 2272 0 
L 1638 0 
L 1638 4134 
L -19 4134 
L -19 4666 
z
" transform="scale(0.015625)"/>
       <path id="DejaVuSans-69" d="M 603 3500 
L 1178 3500 
L 1178 0 
L 603 0 
L 603 3500 
z
M 603 4863 
L 1178 4863 
L 1178 4134 
L 603 4134 
L 603 4863 
z
" transform="scale(0.015625)"/>
       <path id="DejaVuSans-6d" d="M 3328 2828 
Q 3544 3216 3844 3400 
Q 4144 3584 4550 3584 
Q 5097 3584 5394 3201 
Q 5691 2819 5691 2113 
L 5691 0 
L 5113 0 
L 5113 2094 
Q 5113 2597 4934 2840 
Q 4756 3084 4391 3084 
Q 3944 3084 3684 2787 
Q 3425 2491 3425 1978 
L 3425 0 
L 2847 0 
L 2847 2094 
Q 2847 2600 2669 2842 
Q 2491 3084 2119 3084 
Q 1678 3084 1418 2786 
Q 1159 2488 1159 1978 
L 1159 0 
L 581 0 
L 581 3500 
L 1159 3500 
L 1159 2956 
Q 1356 3278 1631 3431 
Q 1906 3584 2284 3584 
Q 2666 3584 2933 3390 
Q 3200 3197 3328 2828 
z
" transform="scale(0.015625)"/>
       <path id="DejaVuSans-65" d="M 3597 1894 
L 3597 1613 
L 953 1613 
Q 991 1019 1311 708 
Q 1631 397 2203 397 
Q 2534 397 2845 478 
Q 3156 559 3463 722 
L 3463 178 
Q 3153 47 2828 -22 
Q 2503 -91 2169 -91 
Q 1331 -91 842 396 
Q 353 884 353 1716 
Q 353 2575 817 3079 
Q 1281 3584 2069 3584 
Q 2775 3584 3186 3129 
Q 3597 2675 3597 1894 
z
M 3022 2063 
Q 3016 2534 2758 2815 
Q 2500 3097 2075 3097 
Q 1594 3097 1305 2825 
Q 1016 2553 972 2059 
L 3022 2063 
z
" transform="scale(0.015625)"/>
       <path id="DejaVuSans-20" transform="scale(0.015625)"/>
       <path id="DejaVuSans-5b" d="M 550 4863 
L 1875 4863 
L 1875 4416 
L 1125 4416 
L 1125 -397 
L 1875 -397 
L 1875 -844 
L 550 -844 
L 550 4863 
z
" transform="scale(0.015625)"/>
       <path id="DejaVuSans-73" d="M 2834 3397 
L 2834 2853 
Q 2591 2978 2328 3040 
Q 2066 3103 1784 3103 
Q 1356 3103 1142 2972 
Q 928 2841 928 2578 
Q 928 2378 1081 2264 
Q 1234 2150 1697 2047 
L 1894 2003 
Q 2506 1872 2764 1633 
Q 3022 1394 3022 966 
Q 3022 478 2636 193 
Q 2250 -91 1575 -91 
Q 1294 -91 989 -36 
Q 684 19 347 128 
L 347 722 
Q 666 556 975 473 
Q 1284 391 1588 391 
Q 1994 391 2212 530 
Q 2431 669 2431 922 
Q 2431 1156 2273 1281 
Q 2116 1406 1581 1522 
L 1381 1569 
Q 847 1681 609 1914 
Q 372 2147 372 2553 
Q 372 3047 722 3315 
Q 1072 3584 1716 3584 
Q 2034 3584 2315 3537 
Q 2597 3491 2834 3397 
z
" transform="scale(0.015625)"/>
       <path id="DejaVuSans-5d" d="M 1947 4863 
L 1947 -844 
L 622 -844 
L 622 -397 
L 1369 -397 
L 1369 4416 
L 622 4416 
L 622 4863 
L 1947 4863 
z
" transform="scale(0.015625)"/>
      </defs>
      <use xlink:href="#DejaVuSans-54"/>
      <use xlink:href="#DejaVuSans-69" x="57.958984"/>
      <use xlink:href="#DejaVuSans-6d" x="85.742188"/>
      <use xlink:href="#DejaVuSans-65" x="183.154297"/>
      <use xlink:href="#DejaVuSans-20" x="244.677734"/>
      <use xlink:href="#DejaVuSans-5b" x="276.464844"/>
      <use xlink:href="#DejaVuSans-73" x="315.478516"/>
      <use xlink:href="#DejaVuSans-5d" x="367.578125"/>
     </g>
    </g>
   </g>
   <g id="matplotlib.axis_2">
    <g id="ytick_1">
     <g id="line2d_8">
      <defs>
       <path id="m50af0f20b7" d="M 0 0 
L -3.5 0 
" style="stroke: #000000; stroke-width: 0.8"/>
      </defs>
      <g>
       <use xlink:href="#m50af0f20b7" x="43.78125" y="195.923357" style="stroke: #000000; stroke-width: 0.8"/>
      </g>
     </g>
     <g id="text_9">
      <!-- 0.0 -->
      <g transform="translate(20.878125 199.722576)scale(0.1 -0.1)">
       <defs>
        <path id="DejaVuSans-2e" d="M 684 794 
L 1344 794 
L 1344 0 
L 684 0 
L 684 794 
z
" transform="scale(0.015625)"/>
       </defs>
       <use xlink:href="#DejaVuSans-30"/>
       <use xlink:href="#DejaVuSans-2e" x="63.623047"/>
       <use xlink:href="#DejaVuSans-30" x="95.410156"/>
      </g>
     </g>
    </g>
    <g id="ytick_2">
     <g id="line2d_9">
      <g>
       <use xlink:href="#m50af0f20b7" x="43.78125" y="166.801929" style="stroke: #000000; stroke-width: 0.8"/>
      </g>
     </g>
     <g id="text_10">
      <!-- 0.2 -->
      <g transform="translate(20.878125 170.601147)scale(0.1 -0.1)">
       <use xlink:href="#DejaVuSans-30"/>
       <use xlink:href="#DejaVuSans-2e" x="63.623047"/>
       <use xlink:href="#DejaVuSans-32" x="95.410156"/>
      </g>
     </g>
    </g>
    <g id="ytick_3">
     <g id="line2d_10">
      <g>
       <use xlink:href="#m50af0f20b7" x="43.78125" y="137.6805" style="stroke: #000000; stroke-width: 0.8"/>
      </g>
     </g>
     <g id="text_11">
      <!-- 0.4 -->
      <g transform="translate(20.878125 141.479719)scale(0.1 -0.1)">
       <defs>
        <path id="DejaVuSans-34" d="M 2419 4116 
L 825 1625 
L 2419 1625 
L 2419 4116 
z
M 2253 4666 
L 3047 4666 
L 3047 1625 
L 3713 1625 
L 3713 1100 
L 3047 1100 
L 3047 0 
L 2419 0 
L 2419 1100 
L 313 1100 
L 313 1709 
L 2253 4666 
z
" transform="scale(0.015625)"/>
       </defs>
       <use xlink:href="#DejaVuSans-30"/>
       <use xlink:href="#DejaVuSans-2e" x="63.623047"/>
       <use xlink:href="#DejaVuSans-34" x="95.410156"/>
      </g>
     </g>
    </g>
    <g id="ytick_4">
     <g id="line2d_11">
      <g>
       <use xlink:href="#m50af0f20b7" x="43.78125" y="108.559071" style="stroke: #000000; stroke-width: 0.8"/>
      </g>
     </g>
     <g id="text_12">
      <!-- 0.6 -->
      <g transform="translate(20.878125 112.35829)scale(0.1 -0.1)">
       <defs>
        <path id="DejaVuSans-36" d="M 2113 2584 
Q 1688 2584 1439 2293 
Q 1191 2003 1191 1497 
Q 1191 994 1439 701 
Q 1688 409 2113 409 
Q 2538 409 2786 701 
Q 3034 994 3034 1497 
Q 3034 2003 2786 2293 
Q 2538 2584 2113 2584 
z
M 3366 4563 
L 3366 3988 
Q 3128 4100 2886 4159 
Q 2644 4219 2406 4219 
Q 1781 4219 1451 3797 
Q 1122 3375 1075 2522 
Q 1259 2794 1537 2939 
Q 1816 3084 2150 3084 
Q 2853 3084 3261 2657 
Q 3669 2231 3669 1497 
Q 3669 778 3244 343 
Q 2819 -91 2113 -91 
Q 1303 -91 875 529 
Q 447 1150 447 2328 
Q 447 3434 972 4092 
Q 1497 4750 2381 4750 
Q 2619 4750 2861 4703 
Q 3103 4656 3366 4563 
z
" transform="scale(0.015625)"/>
       </defs>
       <use xlink:href="#DejaVuSans-30"/>
       <use xlink:href="#DejaVuSans-2e" x="63.623047"/>
       <use xlink:href="#DejaVuSans-36" x="95.410156"/>
      </g>
     </g>
    </g>
    <g id="ytick_5">
     <g id="line2d_12">
      <g>
       <use xlink:href="#m50af0f20b7" x="43.78125" y="79.437643" style="stroke: #000000; stroke-width: 0.8"/>
      </g>
     </g>
     <g id="text_13">
      <!-- 0.8 -->
      <g transform="translate(20.878125 83.236862)scale(0.1 -0.1)">
       <defs>
        <path id="DejaVuSans-38" d="M 2034 2216 
Q 1584 2216 1326 1975 
Q 1069 1734 1069 1313 
Q 1069 891 1326 650 
Q 1584 409 2034 409 
Q 2484 409 2743 651 
Q 3003 894 3003 1313 
Q 3003 1734 2745 1975 
Q 2488 2216 2034 2216 
z
M 1403 2484 
Q 997 2584 770 2862 
Q 544 3141 544 3541 
Q 544 4100 942 4425 
Q 1341 4750 2034 4750 
Q 2731 4750 3128 4425 
Q 3525 4100 3525 3541 
Q 3525 3141 3298 2862 
Q 3072 2584 2669 2484 
Q 3125 2378 3379 2068 
Q 3634 1759 3634 1313 
Q 3634 634 3220 271 
Q 2806 -91 2034 -91 
Q 1263 -91 848 271 
Q 434 634 434 1313 
Q 434 1759 690 2068 
Q 947 2378 1403 2484 
z
M 1172 3481 
Q 1172 3119 1398 2916 
Q 1625 2713 2034 2713 
Q 2441 2713 2670 2916 
Q 2900 3119 2900 3481 
Q 2900 3844 2670 4047 
Q 2441 4250 2034 4250 
Q 1625 4250 1398 4047 
Q 1172 3844 1172 3481 
z
" transform="scale(0.015625)"/>
       </defs>
       <use xlink:href="#DejaVuSans-30"/>
       <use xlink:href="#DejaVuSans-2e" x="63.623047"/>
       <use xlink:href="#DejaVuSans-38" x="95.410156"/>
      </g>
     </g>
    </g>
    <g id="ytick_6">
     <g id="line2d_13">
      <g>
       <use xlink:href="#m50af0f20b7" x="43.78125" y="50.316214" style="stroke: #000000; stroke-width: 0.8"/>
      </g>
     </g>
     <g id="text_14">
      <!-- 1.0 -->
      <g transform="translate(20.878125 54.115433)scale(0.1 -0.1)">
       <use xlink:href="#DejaVuSans-31"/>
       <use xlink:href="#DejaVuSans-2e" x="63.623047"/>
       <use xlink:href="#DejaVuSans-30" x="95.410156"/>
      </g>
     </g>
    </g>
    <g id="text_15">
     <!-- (F-F$^o$)/F$^o$ -->
     <g transform="translate(14.798438 137.9955)rotate(-90)scale(0.1 -0.1)">
      <defs>
       <path id="DejaVuSans-28" d="M 1984 4856 
Q 1566 4138 1362 3434 
Q 1159 2731 1159 2009 
Q 1159 1288 1364 580 
Q 1569 -128 1984 -844 
L 1484 -844 
Q 1016 -109 783 600 
Q 550 1309 550 2009 
Q 550 2706 781 3412 
Q 1013 4119 1484 4856 
L 1984 4856 
z
" transform="scale(0.015625)"/>
       <path id="DejaVuSans-46" d="M 628 4666 
L 3309 4666 
L 3309 4134 
L 1259 4134 
L 1259 2759 
L 3109 2759 
L 3109 2228 
L 1259 2228 
L 1259 0 
L 628 0 
L 628 4666 
z
" transform="scale(0.015625)"/>
       <path id="DejaVuSans-2d" d="M 313 2009 
L 1997 2009 
L 1997 1497 
L 313 1497 
L 313 2009 
z
" transform="scale(0.015625)"/>
       <path id="DejaVuSans-Oblique-6f" d="M 1625 -91 
Q 1009 -91 651 289 
Q 294 669 294 1325 
Q 294 1706 417 2101 
Q 541 2497 738 2766 
Q 1047 3184 1428 3384 
Q 1809 3584 2291 3584 
Q 2888 3584 3255 3212 
Q 3622 2841 3622 2241 
Q 3622 1825 3500 1412 
Q 3378 1000 3181 728 
Q 2875 309 2494 109 
Q 2113 -91 1625 -91 
z
M 891 1344 
Q 891 869 1089 633 
Q 1288 397 1691 397 
Q 2269 397 2648 901 
Q 3028 1406 3028 2181 
Q 3028 2634 2825 2865 
Q 2622 3097 2228 3097 
Q 1903 3097 1650 2945 
Q 1397 2794 1197 2484 
Q 1050 2253 970 1956 
Q 891 1659 891 1344 
z
" transform="scale(0.015625)"/>
       <path id="DejaVuSans-29" d="M 513 4856 
L 1013 4856 
Q 1481 4119 1714 3412 
Q 1947 2706 1947 2009 
Q 1947 1309 1714 600 
Q 1481 -109 1013 -844 
L 513 -844 
Q 928 -128 1133 580 
Q 1338 1288 1338 2009 
Q 1338 2731 1133 3434 
Q 928 4138 513 4856 
z
" transform="scale(0.015625)"/>
       <path id="DejaVuSans-2f" d="M 1625 4666 
L 2156 4666 
L 531 -594 
L 0 -594 
L 1625 4666 
z
" transform="scale(0.015625)"/>
      </defs>
      <use xlink:href="#DejaVuSans-28" transform="translate(0 0.51875)"/>
      <use xlink:href="#DejaVuSans-46" transform="translate(39.013672 0.51875)"/>
      <use xlink:href="#DejaVuSans-2d" transform="translate(96.533203 0.51875)"/>
      <use xlink:href="#DejaVuSans-46" transform="translate(132.617188 0.51875)"/>
      <use xlink:href="#DejaVuSans-Oblique-6f" transform="translate(191.09375 38.8)scale(0.7)"/>
      <use xlink:href="#DejaVuSans-29" transform="translate(236.655273 0.51875)"/>
      <use xlink:href="#DejaVuSans-2f" transform="translate(275.668945 0.51875)"/>
      <use xlink:href="#DejaVuSans-46" transform="translate(309.360352 0.51875)"/>
      <use xlink:href="#DejaVuSans-Oblique-6f" transform="translate(367.836914 38.8)scale(0.7)"/>
     </g>
    </g>
   </g>
   <g id="line2d_14">
    <path d="M 56.463068 180.412808 
L 56.851158 180.497689 
L 57.120876 181.252333 
L 57.389748 181.370548 
L 57.524184 181.526286 
L 58.065311 181.362716 
L 58.200593 181.626103 
L 58.469466 181.559801 
L 58.603902 181.625557 
L 58.874465 181.363444 
L 59.008902 181.518271 
L 59.143338 181.427743 
L 59.277774 181.52665 
L 59.41221 181.418271 
L 59.547492 181.14778 
L 59.816364 181.352515 
L 59.951646 180.96727 
L 60.223055 181.505156 
L 60.357491 181.268545 
L 60.491928 181.272734 
L 60.896927 181.8343 
L 61.031364 181.940311 
L 61.1658 181.802242 
L 61.435518 182.105702 
L 61.839672 181.725193 
L 62.243826 182.514081 
L 62.378263 182.717359 
L 62.513544 182.68694 
L 62.647135 183.161985 
L 62.782417 182.9751 
L 63.189107 183.134117 
L 63.324389 182.797323 
L 63.458825 183.418816 
L 63.593262 182.79204 
L 63.727698 182.695501 
L 63.862134 182.880201 
L 63.993188 182.580565 
L 64.12847 182.73776 
L 64.262906 182.439946 
L 64.532624 182.978561 
L 64.667061 182.547778 
L 64.801497 183.181657 
L 64.936779 182.759982 
L 65.071215 182.71827 
L 65.205651 182.975829 
L 65.340933 182.660164 
L 65.745087 183.214809 
L 65.879523 182.655975 
L 66.013959 182.822277 
L 66.283677 182.658161 
L 66.418114 183.005155 
L 66.822268 182.517724 
L 67.09114 182.873643 
L 67.361704 181.819546 
L 67.49614 182.076558 
L 67.631422 181.992588 
L 67.765858 181.679109 
L 67.900294 182.057797 
L 68.034731 181.739218 
L 68.169167 181.999691 
L 68.302757 181.926832 
L 68.438039 182.052515 
L 68.573321 181.837396 
L 68.843039 182.199873 
L 68.977475 182.387669 
L 69.111911 182.055611 
L 69.247193 182.246868 
L 69.381629 181.781112 
L 69.516066 182.133207 
L 69.650502 173.615364 
L 69.785784 156.420482 
L 69.92022 153.804819 
L 70.055502 154.739427 
L 70.324374 157.65436 
L 70.594092 138.56549 
L 70.86381 143.758017 
L 71.672964 160.229585 
L 71.808246 159.218475 
L 72.077964 141.342354 
L 73.559299 167.100435 
L 73.830708 169.212454 
L 74.639016 174.946146 
L 74.773453 175.315909 
L 75.178452 177.311718 
L 75.582606 178.375651 
L 75.717888 179.206798 
L 75.852324 179.206616 
L 76.122042 179.598419 
L 76.526197 180.424283 
L 76.660633 180.397507 
L 76.795915 180.749966 
L 77.065633 180.390403 
L 77.334505 180.935394 
L 77.469787 180.48166 
L 77.873941 181.247415 
L 78.008377 180.999328 
L 78.143659 181.47073 
L 78.278095 181.463444 
L 78.412531 181.604246 
L 78.682249 182.180566 
L 78.81584 182.049965 
L 78.950276 182.273279 
L 79.084713 182.087852 
L 79.219149 182.363443 
L 79.354431 182.209892 
L 79.488867 182.233207 
L 79.623303 182.030475 
L 79.758585 182.209163 
L 80.028303 181.759983 
L 80.162739 182.414627 
L 80.298021 182.464718 
L 80.566893 181.909345 
L 80.70133 181.754154 
L 80.836611 182.017178 
L 80.970202 181.836668 
L 81.104638 182.474008 
L 81.240765 182.100602 
L 81.511329 182.212442 
L 81.645765 182.468726 
L 81.780201 182.412077 
L 81.914638 182.683844 
L 82.187738 182.024828 
L 82.322174 182.500237 
L 82.457456 182.245775 
L 82.591892 182.496412 
L 82.726328 182.23011 
L 82.996046 182.590219 
L 83.129637 182.783297 
L 83.399355 182.307341 
L 83.534637 182.840128 
L 83.669073 182.630292 
L 83.803509 182.706248 
L 83.937945 182.518634 
L 84.073227 182.996776 
L 84.207663 182.962532 
L 84.344636 182.580383 
L 84.614354 182.928834 
L 84.74879 182.770182 
L 84.884072 182.976557 
L 85.018508 182.809345 
L 85.152944 183.169818 
L 85.421817 182.782751 
L 85.557099 183.445956 
L 85.691535 182.803334 
L 85.826817 183.241402 
L 86.095689 183.352331 
L 86.230971 183.736302 
L 86.499843 183.28949 
L 86.63428 183.419544 
L 86.769561 183.059253 
L 87.043507 183.288943 
L 87.177943 181.841768 
L 87.446816 160.711734 
L 87.582097 160.089877 
L 87.851815 163.186049 
L 88.121533 141.695906 
L 88.25597 141.904285 
L 88.659278 150.528502 
L 89.467587 163.770383 
L 90.412868 173.214818 
L 91.490894 178.104067 
L 91.626176 178.065087 
L 91.760612 178.349786 
L 92.029485 179.018274 
L 92.164766 179.223009 
L 92.299203 179.922098 
L 92.434484 179.815176 
L 92.568921 179.923009 
L 92.704202 180.426105 
L 92.838639 180.390586 
L 93.107511 181.041951 
L 93.512511 181.20206 
L 93.646102 181.385484 
L 93.781383 181.191678 
L 94.050256 181.403881 
L 94.589692 181.879291 
L 94.724974 181.698781 
L 94.860255 182.35215 
L 95.129128 181.901513 
L 95.264409 182.089491 
L 95.398846 182.049418 
L 95.803 182.560893 
L 95.937436 182.349964 
L 96.071872 182.627377 
L 96.34159 182.586758 
L 96.476027 182.387669 
L 96.610463 182.521367 
L 96.745745 182.179108 
L 96.880181 182.516995 
L 97.284335 181.997141 
L 97.418771 182.370547 
L 97.553208 182.338853 
L 97.687644 181.9343 
L 97.820389 181.904792 
L 97.954825 182.23685 
L 98.358979 181.844318 
L 98.628697 182.098598 
L 98.89757 182.109163 
L 99.032852 181.951422 
L 99.167288 182.16144 
L 99.43616 182.153607 
L 99.704187 182.669454 
L 99.839469 182.292769 
L 100.108342 182.409709 
L 100.243623 182.474554 
L 100.378059 182.84286 
L 100.512496 182.361804 
L 100.782214 182.599509 
L 100.91665 182.088034 
L 101.320804 182.859071 
L 101.45524 182.812805 
L 101.590522 182.629381 
L 101.724958 183.276375 
L 101.859395 182.98184 
L 101.993831 183.114627 
L 102.129113 183.074918 
L 102.39714 182.664718 
L 102.531576 182.748142 
L 102.666858 182.629017 
L 102.801294 182.882204 
L 103.06763 182.697505 
L 103.472629 182.7598 
L 103.60622 182.354336 
L 103.875093 182.668543 
L 104.143965 182.528653 
L 104.279247 182.324828 
L 104.550656 182.636303 
L 104.685092 182.196048 
L 104.95481 182.327013 
L 105.089246 182.096413 
L 105.493401 182.768725 
L 105.897555 182.70388 
L 106.167273 182.44031 
L 106.298327 182.625192 
L 106.568045 183.55142 
L 106.699945 183.745956 
L 106.834381 183.445592 
L 107.103253 183.661256 
L 107.377199 183.359799 
L 107.512481 178.710077 
L 107.781353 155.384781 
L 107.916635 155.576584 
L 108.32248 161.018838 
L 108.456916 163.070202 
L 108.591352 159.761644 
L 108.860225 145.665665 
L 109.264379 152.419028 
L 109.803815 161.839238 
L 110.207969 166.973477 
L 111.017123 174.040319 
L 111.559096 177.122829 
L 111.693532 177.233576 
L 111.96325 178.345961 
L 112.372477 179.615905 
L 112.506914 179.74432 
L 112.911913 181.168363 
L 113.043813 181.011532 
L 113.312685 181.816449 
L 113.447122 182.236667 
L 113.582403 182.264172 
L 113.851276 182.833388 
L 113.986558 182.78694 
L 114.120994 182.460711 
L 114.389866 183.233388 
L 114.525148 183.519544 
L 114.794866 183.350145 
L 115.199866 183.94887 
L 115.334302 183.530837 
L 115.468738 183.771639 
L 115.605711 183.215537 
L 115.740993 183.621366 
L 115.875429 183.152331 
L 116.010711 183.565264 
L 116.145147 183.544499 
L 116.279583 183.647959 
L 116.414865 183.584025 
L 116.549301 183.258707 
L 117.088737 183.513715 
L 117.223173 183.395318 
L 117.627328 183.871092 
L 117.762609 183.962167 
L 117.897046 183.422277 
L 118.166764 183.954881 
L 118.436482 183.673825 
L 118.571763 183.995682 
L 118.7062 183.686211 
L 118.840636 183.731019 
L 118.975072 183.962895 
L 119.109508 183.738305 
L 119.243944 184.133205 
L 119.383454 183.866356 
L 119.51789 184.210436 
L 119.652326 184.100418 
L 119.786762 184.418086 
L 119.921199 184.035026 
L 120.189226 184.382385 
L 120.323662 184.156156 
L 120.592534 184.836301 
L 120.862252 184.402786 
L 120.996689 184.542494 
L 121.131125 184.131201 
L 121.531897 184.179106 
L 121.666333 184.624825 
L 121.801615 184.153606 
L 121.936051 184.22519 
L 122.071333 183.914261 
L 122.205769 184.180746 
L 122.475487 184.102422 
L 122.609923 184.230472 
L 122.745205 183.757613 
L 122.879641 183.990946 
L 123.010696 183.816994 
L 123.145132 184.083842 
L 123.279568 183.975646 
L 123.41485 183.712258 
L 123.683722 184.146137 
L 123.95344 183.999143 
L 124.087877 183.76836 
L 124.222313 178.940314 
L 124.492031 158.173303 
L 124.627312 158.035416 
L 124.761749 159.045616 
L 124.896185 161.107544 
L 125.030621 156.4407 
L 125.165057 144.621586 
L 125.299494 143.829784 
L 125.572594 148.801728 
L 126.381748 163.189692 
L 126.921184 169.336134 
L 127.458929 173.511904 
L 127.728646 174.668551 
L 128.267237 177.641226 
L 128.401673 177.799149 
L 128.670546 179.137581 
L 128.939418 179.275833 
L 129.209136 180.291861 
L 129.478854 181.044683 
L 129.747727 181.747961 
L 129.882163 181.506431 
L 130.019981 181.96654 
L 130.155263 181.757615 
L 130.424135 182.451968 
L 130.558572 182.421367 
L 130.693853 182.533753 
L 130.828289 182.293498 
L 130.963571 182.924099 
L 131.232444 182.52847 
L 131.367725 183.390036 
L 131.503007 183.405701 
L 131.634907 183.149781 
L 132.044134 183.178743 
L 132.17857 183.621366 
L 132.448288 183.541766 
L 132.582725 183.897504 
L 132.717161 183.703333 
L 132.852443 184.137394 
L 133.122161 183.935391 
L 133.391879 183.963442 
L 133.526315 184.011711 
L 133.661597 183.816447 
L 133.796033 183.907158 
L 133.931315 184.20734 
L 134.065751 184.041402 
L 134.335469 184.257066 
L 134.469905 183.985664 
L 134.739623 184.309343 
L 135.009341 183.900782 
L 135.143777 184.028833 
L 135.279059 184.448323 
L 135.414341 184.139216 
L 135.818495 184.182203 
L 136.088213 184.952148 
L 136.222649 184.756884 
L 136.625958 185.209524 
L 136.76124 184.890945 
L 136.895676 185.124643 
L 137.030112 184.842676 
L 137.164548 184.187667 
L 137.298985 184.186757 
L 137.434266 184.602785 
L 137.568702 184.11499 
L 137.703984 184.360345 
L 137.842648 185.143586 
L 137.977084 184.170363 
L 138.112366 184.622822 
L 138.246802 184.642494 
L 138.515675 184.434662 
L 138.650956 184.705882 
L 138.785393 184.319543 
L 138.919829 184.815536 
L 139.055111 184.735936 
L 139.189547 184.832111 
L 139.323983 184.705882 
L 139.458419 184.906064 
L 139.592856 183.22337 
L 139.862574 158.949987 
L 139.997855 158.153995 
L 140.40201 162.517925 
L 140.671728 144.800457 
L 140.941446 147.438159 
L 141.480881 156.907184 
L 141.750599 139.363668 
L 141.885036 140.461117 
L 142.826935 159.858183 
L 143.367216 167.55089 
L 144.177216 174.747604 
L 144.312498 175.262357 
L 144.446934 176.681664 
L 144.58137 176.647056 
L 144.985524 178.894412 
L 145.11996 178.655068 
L 145.52496 180.127198 
L 145.659396 179.944866 
L 145.929114 180.264538 
L 146.064396 173.367642 
L 146.334114 158.286054 
L 146.469396 158.863102 
L 146.603832 159.972391 
L 146.738268 159.38077 
L 147.007141 146.160018 
L 148.491012 168.033221 
L 149.303548 174.459808 
L 149.708548 176.751973 
L 149.977421 177.586945 
L 150.111857 177.571098 
L 150.380729 179.004977 
L 150.650447 179.667635 
L 150.785729 179.46545 
L 150.921011 180.372553 
L 151.054602 179.981296 
L 151.325165 180.731387 
L 151.459601 180.832297 
L 151.729319 180.686396 
L 151.863756 181.495502 
L 151.999037 181.556705 
L 152.26791 182.426103 
L 152.807346 182.43266 
L 152.941782 182.841767 
L 153.210654 182.668179 
L 153.346782 182.641585 
L 153.6165 183.189672 
L 153.750936 182.9802 
L 154.020654 183.524644 
L 154.155936 183.382386 
L 154.290372 183.758524 
L 154.424808 183.694772 
L 154.56009 183.897322 
L 154.829808 183.664899 
L 154.964244 183.872549 
L 155.099526 183.425737 
L 155.234808 183.808069 
L 155.369244 183.814444 
L 155.638962 183.398779 
L 155.90868 183.896593 
L 156.178398 183.628834 
L 156.44727 183.804426 
L 156.582552 183.485847 
L 156.986706 184.287667 
L 157.121142 183.718269 
L 157.255579 184.142677 
L 157.39086 184.098779 
L 157.525297 184.541219 
L 157.659733 184.194589 
L 157.794169 184.610071 
L 158.065578 184.298961 
L 158.20086 184.595499 
L 158.469732 184.431565 
L 158.604168 185.061983 
L 158.874732 184.663988 
L 159.14445 184.756884 
L 159.278886 184.814807 
L 159.548604 184.641219 
L 159.817477 185.146319 
L 159.952758 185.312985 
L 160.221631 184.921729 
L 160.356913 185.347047 
L 160.491349 185.042676 
L 160.626631 185.085481 
L 160.895503 184.908614 
L 161.030785 185.25579 
L 161.165221 185.267083 
L 161.300503 184.892767 
L 161.434939 184.872002 
L 161.839093 185.107339 
L 161.974375 184.827375 
L 162.107966 185.15579 
L 162.517193 184.964716 
L 162.651629 185.038851 
L 162.786065 184.677467 
L 163.053247 185.251054 
L 163.188529 184.790035 
L 163.322965 184.97437 
L 163.727119 184.731383 
L 163.862401 185.28712 
L 163.996837 185.185481 
L 164.132119 185.375462 
L 164.403528 185.164169 
L 164.537964 185.426828 
L 164.6724 185.291674 
L 164.807682 185.826646 
L 165.210991 163.23869 
L 165.346273 163.606267 
L 165.751272 167.48313 
L 166.02099 152.399903 
L 166.155426 152.675494 
L 167.233453 169.116098 
L 168.178734 177.325015 
L 168.449298 178.577473 
L 168.981124 181.150876 
L 169.251687 181.556522 
L 169.52056 182.624827 
L 169.654996 183.103515 
L 169.789432 183.029927 
L 169.924714 183.642313 
L 170.194432 183.37765 
L 170.598586 184.015719 
L 170.733023 184.659069 
L 170.868304 184.333751 
L 171.002741 184.504607 
L 171.138022 185.056701 
L 171.272459 184.676192 
L 171.40774 184.88876 
L 171.811894 162.326122 
L 171.948867 162.219929 
L 172.353021 166.976938 
L 172.757176 171.498062 
L 173.568021 177.526472 
L 174.241047 180.923554 
L 174.510765 182.010074 
L 174.780483 183.004973 
L 174.915765 182.965811 
L 175.455201 184.523733 
L 175.588792 184.446319 
L 176.263509 185.296774 
L 176.397946 185.036665 
L 176.533227 185.559069 
L 176.667664 185.474734 
L 177.072663 162.680403 
L 177.342381 164.453989 
L 178.285972 173.860173 
L 178.690126 177.189678 
L 178.959844 178.439768 
L 179.363998 180.891314 
L 179.498434 181.158526 
L 179.633716 181.682934 
L 179.768152 180.907525 
L 180.038716 161.340877 
L 180.173152 160.259276 
L 180.579843 164.321567 
L 180.984842 169.300432 
L 181.793996 177.052884 
L 182.202378 178.737582 
L 182.472096 180.619001 
L 182.607378 180.7037 
L 182.87625 182.056886 
L 183.146814 182.859618 
L 184.090404 184.932658 
L 184.62984 185.510981 
L 184.900403 186.109341 
L 185.845685 187.444131 
L 185.981812 187.268721 
L 186.116248 188.4026 
L 186.385966 187.888392 
L 186.521248 188.216625 
L 186.655684 188.033201 
L 187.062375 188.428465 
L 187.197657 186.288394 
L 187.46822 166.919378 
L 187.603502 166.155809 
L 188.142092 171.1436 
L 189.22181 179.73922 
L 189.625964 181.844318 
L 189.7604 181.894227 
L 190.300682 183.897139 
L 190.435118 183.85397 
L 190.704836 184.811893 
L 190.973708 185.666901 
L 191.243426 186.335571 
L 191.377863 186.751235 
L 191.513144 186.324095 
L 191.782017 187.307519 
L 191.916453 186.923912 
L 192.050889 186.952692 
L 192.185325 187.227191 
L 192.320607 187.204422 
L 192.455043 187.302418 
L 192.590325 187.244859 
L 192.724761 187.513711 
L 192.859198 186.957246 
L 193.128916 169.205351 
L 193.263352 167.931399 
L 193.535606 169.771288 
L 194.74976 179.928109 
L 194.885042 178.401881 
L 195.15476 161.597161 
L 195.289196 161.73013 
L 195.423632 162.658727 
L 196.099195 171.485312 
L 196.638631 176.734123 
L 197.042786 179.160896 
L 197.583067 182.017178 
L 197.718349 182.424463 
L 197.852785 183.367632 
L 197.988067 182.957978 
L 198.121658 183.999689 
L 198.256094 183.965992 
L 198.524966 185.151783 
L 198.659402 184.942129 
L 199.872711 187.323366 
L 200.007992 187.020634 
L 200.142429 187.555788 
L 200.27771 187.530469 
L 200.412147 187.896953 
L 200.681019 187.92974 
L 200.949892 188.202418 
L 201.354891 188.661251 
L 201.624609 188.193857 
L 201.893482 188.714985 
L 202.1632 188.278556 
L 202.298481 188.661798 
L 202.432918 188.688209 
L 202.569045 188.480377 
L 202.703481 188.582381 
L 202.837917 188.378009 
L 203.10679 188.524275 
L 203.241226 188.88912 
L 203.376508 187.974002 
L 203.647071 170.592599 
L 203.781508 169.384039 
L 203.915944 169.806079 
L 204.320944 173.714272 
L 204.995661 178.686762 
L 205.130097 179.088037 
L 205.670379 181.715357 
L 206.479533 185.099142 
L 206.885378 185.962711 
L 207.02066 185.775644 
L 207.155096 186.155789 
L 207.289532 186.184933 
L 207.424814 186.499323 
L 207.55925 186.469086 
L 207.694532 186.767082 
L 207.829814 186.570907 
L 208.233968 187.054331 
L 208.503686 187.375642 
L 208.638122 187.215533 
L 208.910377 187.922636 
L 209.045659 187.746862 
L 209.179249 188.315532 
L 209.313685 188.357791 
L 209.448122 188.617718 
L 209.718685 188.403328 
L 209.987558 188.789302 
L 210.122839 188.929011 
L 210.258121 188.731014 
L 210.393403 189.069448 
L 210.527839 188.769084 
L 210.798403 188.992034 
L 210.933684 189.228464 
L 211.068121 189.082745 
L 211.337839 189.57983 
L 211.472275 189.154329 
L 211.87812 189.633928 
L 212.012556 189.697316 
L 212.147838 189.051961 
L 212.28312 189.534657 
L 212.417556 189.548682 
L 212.551992 189.049958 
L 212.892733 189.670722 
L 213.027169 189.391487 
L 213.296887 189.626824 
L 213.432169 189.918081 
L 213.566605 189.551414 
L 213.836323 190.219902 
L 213.971605 190.545767 
L 214.241323 190.249774 
L 214.780759 190.559064 
L 214.916041 190.252689 
L 215.051323 190.718262 
L 215.321041 190.355057 
L 215.590759 190.73757 
L 215.725195 190.286751 
L 215.859631 190.369811 
L 215.994067 190.657971 
L 216.129349 190.393672 
L 216.265476 190.653235 
L 216.535194 190.009702 
L 216.670476 190.196951 
L 216.804912 189.987662 
L 216.939348 190.126642 
L 217.073785 190.027188 
L 217.209066 190.122452 
L 217.343503 189.7587 
L 217.613221 189.985658 
L 217.748502 190.116623 
L 217.882939 189.822088 
L 218.017375 190.198044 
L 218.152657 190.1689 
L 218.421529 189.655239 
L 218.555965 190.165986 
L 218.690402 190.015713 
L 218.825683 190.335749 
L 218.96012 190.000776 
L 219.229837 190.724637 
L 219.364274 190.727187 
L 219.49871 190.361614 
L 219.769273 190.347953 
L 219.90371 190.647406 
L 220.038991 190.55961 
L 220.311246 190.760339 
L 220.580964 190.586022 
L 220.850682 191.184564 
L 220.985118 190.86216 
L 221.1204 190.909519 
L 221.254836 190.782379 
L 221.389272 190.880193 
L 221.524554 190.58675 
L 221.659836 190.89185 
L 221.794272 190.737934 
L 222.06399 191.108243 
L 222.199272 190.963071 
L 222.333708 191.007333 
L 222.468144 191.356513 
L 222.602581 191.02318 
L 222.737017 191.327187 
L 222.872298 191.115712 
L 223.006735 191.273635 
L 223.276453 191.160885 
L 223.410889 191.379464 
L 223.546171 191.064163 
L 223.680607 191.314801 
L 223.949479 191.22828 
L 224.219197 190.9842 
L 224.354479 185.921545 
L 224.626734 170.199521 
L 224.762015 170.294421 
L 226.243351 182.240128 
L 226.377787 177.317365 
L 226.646659 164.897705 
L 227.050813 169.035952 
L 227.724686 176.591682 
L 228.532994 182.237578 
L 228.66743 182.548143 
L 229.206866 185.48293 
L 229.341302 185.698413 
L 230.014329 188.260523 
L 230.148765 188.042673 
L 230.284047 188.269266 
L 230.555456 189.043582 
L 230.689892 189.300231 
L 231.094047 189.415713 
L 231.229328 189.083837 
L 231.768764 190.0485 
L 231.904046 190.472179 
L 232.037637 189.756697 
L 232.172073 190.297497 
L 232.306509 190.13757 
L 232.576227 190.349592 
L 232.980381 190.865439 
L 233.249254 190.717533 
L 233.38369 191.355238 
L 233.518126 190.67236 
L 233.653408 190.843034 
L 234.058408 170.934675 
L 234.32728 172.407898 
L 235.270871 180.578381 
L 235.946434 184.242676 
L 236.081715 184.467995 
L 236.216152 185.121364 
L 236.351433 185.195499 
L 236.621997 186.531745 
L 236.891715 187.226098 
L 237.026997 187.483293 
L 237.161433 188.105878 
L 237.295869 187.844677 
L 237.430305 188.092217 
L 237.564742 187.774185 
L 237.835305 170.791688 
L 237.969741 170.194967 
L 238.239459 171.882579 
L 239.186432 180.538491 
L 239.321713 180.910439 
L 239.72164 183.364717 
L 239.859458 183.684571 
L 240.264458 185.65324 
L 240.53333 186.361982 
L 240.667767 187.028284 
L 240.803048 187.053421 
L 241.342484 188.38821 
L 241.476921 188.215168 
L 241.746639 189.248136 
L 241.88192 189.012981 
L 242.286075 189.837024 
L 242.421356 189.596041 
L 242.555793 190.096223 
L 242.825511 190.148499 
L 242.959947 190.40278 
L 243.094383 190.214984 
L 243.364101 190.795129 
L 243.499383 190.767989 
L 243.633819 190.553053 
L 243.769101 190.69094 
L 244.037973 191.403143 
L 244.173255 191.011704 
L 244.442127 191.850866 
L 244.850509 191.447587 
L 244.9841 191.463981 
L 245.119382 191.884199 
L 245.3891 191.820811 
L 245.523536 191.519718 
L 245.658818 191.6097 
L 245.792408 191.520629 
L 246.061281 191.742851 
L 246.196563 191.532833 
L 246.330999 191.737022 
L 246.466281 191.353416 
L 246.599871 192.108789 
L 246.735153 191.31389 
L 247.004871 192.176913 
L 247.139307 191.67072 
L 247.409025 191.751777 
L 247.543461 191.540301 
L 247.678743 192.073998 
L 247.948461 192.262705 
L 248.082897 192.566348 
L 248.217334 192.537568 
L 248.622333 192.139572 
L 248.75677 192.39877 
L 248.892051 192.127004 
L 249.027333 192.669262 
L 249.161769 192.173088 
L 249.296206 192.285838 
L 249.430642 192.713342 
L 249.565078 192.618078 
L 249.70036 192.747222 
L 249.834796 192.490209 
L 249.970078 192.990755 
L 250.104514 192.796038 
L 250.239796 193.049225 
L 250.374232 192.947222 
L 250.508668 193.180737 
L 250.64395 192.952322 
L 250.778386 193.305691 
L 250.912822 192.765255 
L 251.18254 177.924103 
L 251.317822 176.768549 
L 251.451413 177.312811 
L 251.990849 181.66399 
L 252.126131 182.118088 
L 252.260567 183.285665 
L 252.395849 179.5731 
L 252.529439 170.246697 
L 252.664721 168.821198 
L 252.799157 169.519012 
L 253.608311 178.326107 
L 254.415774 184.84978 
L 254.551056 184.938304 
L 254.954365 187.528101 
L 255.224083 173.172196 
L 255.358519 172.663817 
L 255.498028 173.271467 
L 255.902182 177.755798 
L 256.1719 167.501345 
L 256.306337 167.859815 
L 256.9819 175.64651 
L 257.521336 180.737215 
L 257.926335 183.814626 
L 258.061617 184.433387 
L 258.331335 186.184933 
L 258.736335 188.296953 
L 258.871617 188.288574 
L 259.006053 189.171998 
L 259.140489 189.218992 
L 259.410207 189.89513 
L 259.815207 191.012069 
L 259.949643 191.017715 
L 260.084079 191.492578 
L 260.219361 191.502414 
L 260.488233 191.837387 
L 260.62267 191.67491 
L 260.893233 191.924454 
L 261.297387 192.304417 
L 261.431824 191.898224 
L 261.832596 192.318078 
L 261.967878 191.822268 
L 262.102314 192.80551 
L 262.23675 192.35633 
L 262.64175 192.453779 
L 262.776186 192.861429 
L 262.910622 192.419171 
L 263.179495 192.641029 
L 263.313931 192.388024 
L 263.448367 192.552504 
L 263.582803 192.970537 
L 263.718085 192.986019 
L 263.852521 192.767623 
L 263.987803 193.194398 
L 264.123085 193.060518 
L 264.391957 193.370718 
L 264.662521 193.102777 
L 264.796957 193.462704 
L 265.201111 193.135928 
L 265.335548 193.652321 
L 265.605266 193.680736 
L 265.740547 193.599316 
L 265.874984 193.102231 
L 266.010265 193.249589 
L 266.144702 193.155418 
L 266.279983 193.491483 
L 266.549701 193.241757 
L 266.684137 193.758696 
L 266.819419 193.143214 
L 266.954701 193.645217 
L 267.089137 193.135382 
L 267.224419 193.762886 
L 267.358855 193.143032 
L 267.494137 193.570354 
L 267.628573 193.62172 
L 267.759627 193.816073 
L 267.894064 192.922631 
L 268.167164 193.728459 
L 268.302445 193.379462 
L 268.573009 194.162339 
L 268.836808 193.376183 
L 268.971244 193.572358 
L 269.375399 193.276183 
L 269.645962 193.794762 
L 269.780398 193.504598 
L 269.914835 194.074907 
L 270.049271 193.602959 
L 270.184553 193.573086 
L 270.318989 193.098223 
L 270.454271 193.476001 
L 270.588707 193.319535 
L 270.723143 192.946493 
L 271.127297 193.253597 
L 271.261734 193.170719 
L 271.532297 193.365618 
L 271.667579 192.736839 
L 271.802861 193.195673 
L 271.936451 193.110609 
L 272.205324 193.564161 
L 272.340605 193.476911 
L 272.610323 193.545946 
L 272.745605 193.072176 
L 272.880041 193.139935 
L 273.014478 192.92336 
L 273.148914 193.178915 
L 273.28335 192.740847 
L 273.418632 193.102595 
L 273.553068 192.917713 
L 273.960604 193.049225 
L 274.095886 193.352868 
L 274.230322 193.308059 
L 274.50004 192.395127 
L 274.768913 178.283302 
L 274.904195 177.799878 
L 275.177295 178.819002 
L 275.447013 180.850877 
L 275.986449 184.376374 
L 276.660321 187.453967 
L 277.333347 189.629556 
L 277.467784 189.729556 
L 277.736656 190.468171 
L 277.871092 190.882014 
L 278.006374 190.675093 
L 278.14081 191.178007 
L 278.544965 191.364163 
L 278.814683 192.091303 
L 278.949964 191.890392 
L 279.084401 192.201685 
L 279.218837 192.190756 
L 279.488555 192.510246 
L 279.623836 192.339572 
L 279.892709 192.557787 
L 280.027991 192.035019 
L 280.296863 192.481648 
L 280.432145 192.7403 
L 280.567427 192.575455 
L 280.701863 193.070901 
L 280.836299 192.917167 
L 280.971581 193.322813 
L 281.241299 192.607878 
L 281.375735 193.140664 
L 281.644608 192.895491 
L 281.779044 193.065801 
L 281.914326 192.833561 
L 282.048762 193.126639 
L 282.31848 192.909699 
L 282.588198 193.575818 
L 282.722634 193.529735 
L 282.857916 193.148861 
L 282.992352 193.336474 
L 283.26207 193.200409 
L 283.397352 193.665618 
L 283.531788 193.242485 
L 283.66707 193.277094 
L 283.801506 193.125728 
L 284.206506 177.24578 
L 284.340942 177.405707 
L 284.611505 179.467636 
L 284.745942 180.667088 
L 285.150096 169.088047 
L 285.285378 169.762181 
L 285.824814 175.76855 
L 286.770095 183.735027 
L 287.718758 188.437208 
L 287.853194 188.366352 
L 287.98763 188.960522 
L 288.122067 189.044675 
L 288.390939 189.769811 
L 288.525375 189.631924 
L 288.92953 190.59859 
L 289.064811 190.842852 
L 289.333684 191.577095 
L 289.46812 191.316076 
L 289.603402 191.924636 
L 289.737838 191.487478 
L 289.87312 191.883288 
L 290.007556 191.613525 
L 290.142838 191.83684 
L 290.277274 191.762341 
L 290.41171 192.092213 
L 290.546992 191.953234 
L 290.681428 190.112616 
L 290.951146 175.100062 
L 291.086428 174.563815 
L 291.220864 174.969644 
L 291.7603 179.93248 
L 292.030018 169.416279 
L 292.164454 169.270924 
L 292.435018 171.89278 
L 293.244172 179.972189 
L 294.453252 187.371999 
L 294.991843 189.057972 
L 295.127125 188.952144 
L 295.262406 189.707698 
L 295.396843 189.556515 
L 295.534661 190.203144 
L 295.665715 189.921724 
L 295.935433 191.188389 
L 296.069869 191.007515 
L 296.205151 191.300775 
L 296.339587 191.187478 
L 296.474869 191.659063 
L 296.609305 191.389664 
L 296.877332 191.96562 
L 297.012614 191.786203 
L 297.147896 192.353415 
L 297.283177 192.395674 
L 297.418459 192.79622 
L 297.553741 192.643032 
L 297.689023 192.733014 
L 298.093177 193.613523 
L 298.364586 193.385108 
L 298.499022 193.41152 
L 298.634304 193.565618 
L 298.769586 193.407695 
L 299.038458 193.724816 
L 299.17374 193.360518 
L 299.310713 193.634288 
L 299.445994 193.57509 
L 299.580431 193.67509 
L 299.850149 194.050864 
L 299.984585 194.092576 
L 300.119021 193.81753 
L 300.254303 194.061975 
L 300.793739 193.290755 
L 300.928175 193.389662 
L 301.197893 194.191665 
L 301.333175 193.832285 
L 301.602893 194.018441 
L 301.737329 194.078732 
L 301.871765 193.748496 
L 302.006201 194.077275 
L 302.140638 194.105326 
L 302.275074 193.863796 
L 302.81451 194.174543 
L 302.949792 193.60733 
L 303.084228 193.855235 
L 303.21951 194.365617 
L 303.353946 193.998405 
L 303.624509 194.382011 
L 303.758945 194.113341 
L 303.893382 194.492029 
L 304.028663 194.240117 
L 304.297536 194.280007 
L 304.836972 194.746856 
L 304.972254 194.563613 
L 305.107535 194.158696 
L 305.241972 194.694397 
L 305.376408 194.472175 
L 305.647817 194.88875 
L 305.783099 194.475089 
L 305.91838 194.516255 
L 306.052817 194.733377 
L 306.32338 194.688204 
L 306.591407 195.018804 
L 306.726689 195.016983 
L 306.861125 195.169806 
L 306.996407 194.680189 
L 307.135071 194.890753 
L 307.269507 194.825726 
L 307.539225 195.238476 
L 307.673661 195.220261 
L 307.943379 194.865435 
L 308.078661 195.923357 
L 308.346688 195.0015 
L 308.481124 195.017711 
L 308.61556 195.286017 
L 308.750842 195.301318 
L 309.02056 194.643759 
L 309.154996 195.234469 
L 309.290278 195.04048 
L 309.424714 195.511518 
L 309.559996 195.149405 
L 309.695278 195.324268 
L 309.829714 195.204596 
L 309.964996 195.435197 
L 310.099432 195.400407 
L 310.099432 195.400407 
" clip-path="url(#p16868f8297)" style="fill: none; stroke: #1f77b4; stroke-width: 1.5; stroke-linecap: square"/>
   </g>
   <g id="patch_3">
    <path d="M 43.78125 198.8355 
L 43.78125 35.7555 
" style="fill: none; stroke: #000000; stroke-width: 0.8; stroke-linejoin: miter; stroke-linecap: square"/>
   </g>
   <g id="patch_4">
    <path d="M 322.78125 198.8355 
L 322.78125 35.7555 
" style="fill: none; stroke: #000000; stroke-width: 0.8; stroke-linejoin: miter; stroke-linecap: square"/>
   </g>
   <g id="patch_5">
    <path d="M 43.78125 198.8355 
L 322.78125 198.8355 
" style="fill: none; stroke: #000000; stroke-width: 0.8; stroke-linejoin: miter; stroke-linecap: square"/>
   </g>
   <g id="patch_6">
    <path d="M 43.78125 35.7555 
L 322.78125 35.7555 
" style="fill: none; stroke: #000000; stroke-width: 0.8; stroke-linejoin: miter; stroke-linecap: square"/>
   </g>
   <g id="text_16">
    <!-- After equalize -->
    <g transform="translate(141.814687 16.318125)scale(0.12 -0.12)">
     <defs>
      <path id="DejaVuSans-41" d="M 2188 4044 
L 1331 1722 
L 3047 1722 
L 2188 4044 
z
M 1831 4666 
L 2547 4666 
L 4325 0 
L 3669 0 
L 3244 1197 
L 1141 1197 
L 716 0 
L 50 0 
L 1831 4666 
z
" transform="scale(0.015625)"/>
      <path id="DejaVuSans-66" d="M 2375 4863 
L 2375 4384 
L 1825 4384 
Q 1516 4384 1395 4259 
Q 1275 4134 1275 3809 
L 1275 3500 
L 2222 3500 
L 2222 3053 
L 1275 3053 
L 1275 0 
L 697 0 
L 697 3053 
L 147 3053 
L 147 3500 
L 697 3500 
L 697 3744 
Q 697 4328 969 4595 
Q 1241 4863 1831 4863 
L 2375 4863 
z
" transform="scale(0.015625)"/>
      <path id="DejaVuSans-74" d="M 1172 4494 
L 1172 3500 
L 2356 3500 
L 2356 3053 
L 1172 3053 
L 1172 1153 
Q 1172 725 1289 603 
Q 1406 481 1766 481 
L 2356 481 
L 2356 0 
L 1766 0 
Q 1100 0 847 248 
Q 594 497 594 1153 
L 594 3053 
L 172 3053 
L 172 3500 
L 594 3500 
L 594 4494 
L 1172 4494 
z
" transform="scale(0.015625)"/>
      <path id="DejaVuSans-72" d="M 2631 2963 
Q 2534 3019 2420 3045 
Q 2306 3072 2169 3072 
Q 1681 3072 1420 2755 
Q 1159 2438 1159 1844 
L 1159 0 
L 581 0 
L 581 3500 
L 1159 3500 
L 1159 2956 
Q 1341 3275 1631 3429 
Q 1922 3584 2338 3584 
Q 2397 3584 2469 3576 
Q 2541 3569 2628 3553 
L 2631 2963 
z
" transform="scale(0.015625)"/>
      <path id="DejaVuSans-71" d="M 947 1747 
Q 947 1113 1208 752 
Q 1469 391 1925 391 
Q 2381 391 2643 752 
Q 2906 1113 2906 1747 
Q 2906 2381 2643 2742 
Q 2381 3103 1925 3103 
Q 1469 3103 1208 2742 
Q 947 2381 947 1747 
z
M 2906 525 
Q 2725 213 2448 61 
Q 2172 -91 1784 -91 
Q 1150 -91 751 415 
Q 353 922 353 1747 
Q 353 2572 751 3078 
Q 1150 3584 1784 3584 
Q 2172 3584 2448 3432 
Q 2725 3281 2906 2969 
L 2906 3500 
L 3481 3500 
L 3481 -1331 
L 2906 -1331 
L 2906 525 
z
" transform="scale(0.015625)"/>
      <path id="DejaVuSans-75" d="M 544 1381 
L 544 3500 
L 1119 3500 
L 1119 1403 
Q 1119 906 1312 657 
Q 1506 409 1894 409 
Q 2359 409 2629 706 
Q 2900 1003 2900 1516 
L 2900 3500 
L 3475 3500 
L 3475 0 
L 2900 0 
L 2900 538 
Q 2691 219 2414 64 
Q 2138 -91 1772 -91 
Q 1169 -91 856 284 
Q 544 659 544 1381 
z
M 1991 3584 
L 1991 3584 
z
" transform="scale(0.015625)"/>
      <path id="DejaVuSans-61" d="M 2194 1759 
Q 1497 1759 1228 1600 
Q 959 1441 959 1056 
Q 959 750 1161 570 
Q 1363 391 1709 391 
Q 2188 391 2477 730 
Q 2766 1069 2766 1631 
L 2766 1759 
L 2194 1759 
z
M 3341 1997 
L 3341 0 
L 2766 0 
L 2766 531 
Q 2569 213 2275 61 
Q 1981 -91 1556 -91 
Q 1019 -91 701 211 
Q 384 513 384 1019 
Q 384 1609 779 1909 
Q 1175 2209 1959 2209 
L 2766 2209 
L 2766 2266 
Q 2766 2663 2505 2880 
Q 2244 3097 1772 3097 
Q 1472 3097 1187 3025 
Q 903 2953 641 2809 
L 641 3341 
Q 956 3463 1253 3523 
Q 1550 3584 1831 3584 
Q 2591 3584 2966 3190 
Q 3341 2797 3341 1997 
z
" transform="scale(0.015625)"/>
      <path id="DejaVuSans-6c" d="M 603 4863 
L 1178 4863 
L 1178 0 
L 603 0 
L 603 4863 
z
" transform="scale(0.015625)"/>
      <path id="DejaVuSans-7a" d="M 353 3500 
L 3084 3500 
L 3084 2975 
L 922 459 
L 3084 459 
L 3084 0 
L 275 0 
L 275 525 
L 2438 3041 
L 353 3041 
L 353 3500 
z
" transform="scale(0.015625)"/>
     </defs>
     <use xlink:href="#DejaVuSans-41"/>
     <use xlink:href="#DejaVuSans-66" x="64.783203"/>
     <use xlink:href="#DejaVuSans-74" x="98.238281"/>
     <use xlink:href="#DejaVuSans-65" x="137.447266"/>
     <use xlink:href="#DejaVuSans-72" x="198.970703"/>
     <use xlink:href="#DejaVuSans-20" x="240.083984"/>
     <use xlink:href="#DejaVuSans-65" x="271.871094"/>
     <use xlink:href="#DejaVuSans-71" x="333.394531"/>
     <use xlink:href="#DejaVuSans-75" x="396.871094"/>
     <use xlink:href="#DejaVuSans-61" x="460.25"/>
     <use xlink:href="#DejaVuSans-6c" x="521.529297"/>
     <use xlink:href="#DejaVuSans-69" x="549.3125"/>
     <use xlink:href="#DejaVuSans-7a" x="577.095703"/>
     <use xlink:href="#DejaVuSans-65" x="629.585938"/>
    </g>
    <!-- NTR_C3_005_crop - Intensity Equalized, ROI=8 -->
    <g transform="translate(43.003125 29.7555)scale(0.12 -0.12)">
     <defs>
      <path id="DejaVuSans-4e" d="M 628 4666 
L 1478 4666 
L 3547 763 
L 3547 4666 
L 4159 4666 
L 4159 0 
L 3309 0 
L 1241 3903 
L 1241 0 
L 628 0 
L 628 4666 
z
" transform="scale(0.015625)"/>
      <path id="DejaVuSans-52" d="M 2841 2188 
Q 3044 2119 3236 1894 
Q 3428 1669 3622 1275 
L 4263 0 
L 3584 0 
L 2988 1197 
Q 2756 1666 2539 1819 
Q 2322 1972 1947 1972 
L 1259 1972 
L 1259 0 
L 628 0 
L 628 4666 
L 2053 4666 
Q 2853 4666 3247 4331 
Q 3641 3997 3641 3322 
Q 3641 2881 3436 2590 
Q 3231 2300 2841 2188 
z
M 1259 4147 
L 1259 2491 
L 2053 2491 
Q 2509 2491 2742 2702 
Q 2975 2913 2975 3322 
Q 2975 3731 2742 3939 
Q 2509 4147 2053 4147 
L 1259 4147 
z
" transform="scale(0.015625)"/>
      <path id="DejaVuSans-5f" d="M 3263 -1063 
L 3263 -1509 
L -63 -1509 
L -63 -1063 
L 3263 -1063 
z
" transform="scale(0.015625)"/>
      <path id="DejaVuSans-43" d="M 4122 4306 
L 4122 3641 
Q 3803 3938 3442 4084 
Q 3081 4231 2675 4231 
Q 1875 4231 1450 3742 
Q 1025 3253 1025 2328 
Q 1025 1406 1450 917 
Q 1875 428 2675 428 
Q 3081 428 3442 575 
Q 3803 722 4122 1019 
L 4122 359 
Q 3791 134 3420 21 
Q 3050 -91 2638 -91 
Q 1578 -91 968 557 
Q 359 1206 359 2328 
Q 359 3453 968 4101 
Q 1578 4750 2638 4750 
Q 3056 4750 3426 4639 
Q 3797 4528 4122 4306 
z
" transform="scale(0.015625)"/>
      <path id="DejaVuSans-63" d="M 3122 3366 
L 3122 2828 
Q 2878 2963 2633 3030 
Q 2388 3097 2138 3097 
Q 1578 3097 1268 2742 
Q 959 2388 959 1747 
Q 959 1106 1268 751 
Q 1578 397 2138 397 
Q 2388 397 2633 464 
Q 2878 531 3122 666 
L 3122 134 
Q 2881 22 2623 -34 
Q 2366 -91 2075 -91 
Q 1284 -91 818 406 
Q 353 903 353 1747 
Q 353 2603 823 3093 
Q 1294 3584 2113 3584 
Q 2378 3584 2631 3529 
Q 2884 3475 3122 3366 
z
" transform="scale(0.015625)"/>
      <path id="DejaVuSans-6f" d="M 1959 3097 
Q 1497 3097 1228 2736 
Q 959 2375 959 1747 
Q 959 1119 1226 758 
Q 1494 397 1959 397 
Q 2419 397 2687 759 
Q 2956 1122 2956 1747 
Q 2956 2369 2687 2733 
Q 2419 3097 1959 3097 
z
M 1959 3584 
Q 2709 3584 3137 3096 
Q 3566 2609 3566 1747 
Q 3566 888 3137 398 
Q 2709 -91 1959 -91 
Q 1206 -91 779 398 
Q 353 888 353 1747 
Q 353 2609 779 3096 
Q 1206 3584 1959 3584 
z
" transform="scale(0.015625)"/>
      <path id="DejaVuSans-70" d="M 1159 525 
L 1159 -1331 
L 581 -1331 
L 581 3500 
L 1159 3500 
L 1159 2969 
Q 1341 3281 1617 3432 
Q 1894 3584 2278 3584 
Q 2916 3584 3314 3078 
Q 3713 2572 3713 1747 
Q 3713 922 3314 415 
Q 2916 -91 2278 -91 
Q 1894 -91 1617 61 
Q 1341 213 1159 525 
z
M 3116 1747 
Q 3116 2381 2855 2742 
Q 2594 3103 2138 3103 
Q 1681 3103 1420 2742 
Q 1159 2381 1159 1747 
Q 1159 1113 1420 752 
Q 1681 391 2138 391 
Q 2594 391 2855 752 
Q 3116 1113 3116 1747 
z
" transform="scale(0.015625)"/>
      <path id="DejaVuSans-49" d="M 628 4666 
L 1259 4666 
L 1259 0 
L 628 0 
L 628 4666 
z
" transform="scale(0.015625)"/>
      <path id="DejaVuSans-6e" d="M 3513 2113 
L 3513 0 
L 2938 0 
L 2938 2094 
Q 2938 2591 2744 2837 
Q 2550 3084 2163 3084 
Q 1697 3084 1428 2787 
Q 1159 2491 1159 1978 
L 1159 0 
L 581 0 
L 581 3500 
L 1159 3500 
L 1159 2956 
Q 1366 3272 1645 3428 
Q 1925 3584 2291 3584 
Q 2894 3584 3203 3211 
Q 3513 2838 3513 2113 
z
" transform="scale(0.015625)"/>
      <path id="DejaVuSans-79" d="M 2059 -325 
Q 1816 -950 1584 -1140 
Q 1353 -1331 966 -1331 
L 506 -1331 
L 506 -850 
L 844 -850 
Q 1081 -850 1212 -737 
Q 1344 -625 1503 -206 
L 1606 56 
L 191 3500 
L 800 3500 
L 1894 763 
L 2988 3500 
L 3597 3500 
L 2059 -325 
z
" transform="scale(0.015625)"/>
      <path id="DejaVuSans-45" d="M 628 4666 
L 3578 4666 
L 3578 4134 
L 1259 4134 
L 1259 2753 
L 3481 2753 
L 3481 2222 
L 1259 2222 
L 1259 531 
L 3634 531 
L 3634 0 
L 628 0 
L 628 4666 
z
" transform="scale(0.015625)"/>
      <path id="DejaVuSans-64" d="M 2906 2969 
L 2906 4863 
L 3481 4863 
L 3481 0 
L 2906 0 
L 2906 525 
Q 2725 213 2448 61 
Q 2172 -91 1784 -91 
Q 1150 -91 751 415 
Q 353 922 353 1747 
Q 353 2572 751 3078 
Q 1150 3584 1784 3584 
Q 2172 3584 2448 3432 
Q 2725 3281 2906 2969 
z
M 947 1747 
Q 947 1113 1208 752 
Q 1469 391 1925 391 
Q 2381 391 2643 752 
Q 2906 1113 2906 1747 
Q 2906 2381 2643 2742 
Q 2381 3103 1925 3103 
Q 1469 3103 1208 2742 
Q 947 2381 947 1747 
z
" transform="scale(0.015625)"/>
      <path id="DejaVuSans-2c" d="M 750 794 
L 1409 794 
L 1409 256 
L 897 -744 
L 494 -744 
L 750 256 
L 750 794 
z
" transform="scale(0.015625)"/>
      <path id="DejaVuSans-4f" d="M 2522 4238 
Q 1834 4238 1429 3725 
Q 1025 3213 1025 2328 
Q 1025 1447 1429 934 
Q 1834 422 2522 422 
Q 3209 422 3611 934 
Q 4013 1447 4013 2328 
Q 4013 3213 3611 3725 
Q 3209 4238 2522 4238 
z
M 2522 4750 
Q 3503 4750 4090 4092 
Q 4678 3434 4678 2328 
Q 4678 1225 4090 567 
Q 3503 -91 2522 -91 
Q 1538 -91 948 565 
Q 359 1222 359 2328 
Q 359 3434 948 4092 
Q 1538 4750 2522 4750 
z
" transform="scale(0.015625)"/>
      <path id="DejaVuSans-3d" d="M 678 2906 
L 4684 2906 
L 4684 2381 
L 678 2381 
L 678 2906 
z
M 678 1631 
L 4684 1631 
L 4684 1100 
L 678 1100 
L 678 1631 
z
" transform="scale(0.015625)"/>
     </defs>
     <use xlink:href="#DejaVuSans-4e"/>
     <use xlink:href="#DejaVuSans-54" x="74.804688"/>
     <use xlink:href="#DejaVuSans-52" x="135.888672"/>
     <use xlink:href="#DejaVuSans-5f" x="205.371094"/>
     <use xlink:href="#DejaVuSans-43" x="255.371094"/>
     <use xlink:href="#DejaVuSans-33" x="325.195312"/>
     <use xlink:href="#DejaVuSans-5f" x="388.818359"/>
     <use xlink:href="#DejaVuSans-30" x="438.818359"/>
     <use xlink:href="#DejaVuSans-30" x="502.441406"/>
     <use xlink:href="#DejaVuSans-35" x="566.064453"/>
     <use xlink:href="#DejaVuSans-5f" x="629.6875"/>
     <use xlink:href="#DejaVuSans-63" x="679.6875"/>
     <use xlink:href="#DejaVuSans-72" x="734.667969"/>
     <use xlink:href="#DejaVuSans-6f" x="773.53125"/>
     <use xlink:href="#DejaVuSans-70" x="834.712891"/>
     <use xlink:href="#DejaVuSans-20" x="898.189453"/>
     <use xlink:href="#DejaVuSans-2d" x="929.976562"/>
     <use xlink:href="#DejaVuSans-20" x="966.060547"/>
     <use xlink:href="#DejaVuSans-49" x="997.847656"/>
     <use xlink:href="#DejaVuSans-6e" x="1027.339844"/>
     <use xlink:href="#DejaVuSans-74" x="1090.71875"/>
     <use xlink:href="#DejaVuSans-65" x="1129.927734"/>
     <use xlink:href="#DejaVuSans-6e" x="1191.451172"/>
     <use xlink:href="#DejaVuSans-73" x="1254.830078"/>
     <use xlink:href="#DejaVuSans-69" x="1306.929688"/>
     <use xlink:href="#DejaVuSans-74" x="1334.712891"/>
     <use xlink:href="#DejaVuSans-79" x="1373.921875"/>
     <use xlink:href="#DejaVuSans-20" x="1433.101562"/>
     <use xlink:href="#DejaVuSans-45" x="1464.888672"/>
     <use xlink:href="#DejaVuSans-71" x="1528.072266"/>
     <use xlink:href="#DejaVuSans-75" x="1591.548828"/>
     <use xlink:href="#DejaVuSans-61" x="1654.927734"/>
     <use xlink:href="#DejaVuSans-6c" x="1716.207031"/>
     <use xlink:href="#DejaVuSans-69" x="1743.990234"/>
     <use xlink:href="#DejaVuSans-7a" x="1771.773438"/>
     <use xlink:href="#DejaVuSans-65" x="1824.263672"/>
     <use xlink:href="#DejaVuSans-64" x="1885.787109"/>
     <use xlink:href="#DejaVuSans-2c" x="1949.263672"/>
     <use xlink:href="#DejaVuSans-20" x="1981.050781"/>
     <use xlink:href="#DejaVuSans-52" x="2012.837891"/>
     <use xlink:href="#DejaVuSans-4f" x="2082.320312"/>
     <use xlink:href="#DejaVuSans-49" x="2161.03125"/>
     <use xlink:href="#DejaVuSans-3d" x="2190.523438"/>
     <use xlink:href="#DejaVuSans-38" x="2274.3125"/>
    </g>
   </g>
  </g>
 </g>
 <defs>
  <clipPath id="p16868f8297">
   <rect x="43.78125" y="35.7555" width="279" height="163.08"/>
  </clipPath>
 </defs>
</svg>
