<?xml version="1.0" encoding="utf-8" standalone="no"?>
<!DOCTYPE svg PUBLIC "-//W3C//DTD SVG 1.1//EN"
  "http://www.w3.org/Graphics/SVG/1.1/DTD/svg11.dtd">
<svg xmlns:xlink="http://www.w3.org/1999/xlink" width="330.759375pt" height="236.39175pt" viewBox="0 0 330.759375 236.39175" xmlns="http://www.w3.org/2000/svg" version="1.1">
 <metadata>
  <rdf:RDF xmlns:dc="http://purl.org/dc/elements/1.1/" xmlns:cc="http://creativecommons.org/ns#" xmlns:rdf="http://www.w3.org/1999/02/22-rdf-syntax-ns#">
   <cc:Work>
    <dc:type rdf:resource="http://purl.org/dc/dcmitype/StillImage"/>
    <dc:date>2025-01-27T16:06:41.180539</dc:date>
    <dc:format>image/svg+xml</dc:format>
    <dc:creator>
     <cc:Agent>
      <dc:title>Matplotlib v3.5.2, https://matplotlib.org/</dc:title>
     </cc:Agent>
    </dc:creator>
   </cc:Work>
  </rdf:RDF>
 </metadata>
 <defs>
  <style type="text/css">*{stroke-linejoin: round; stroke-linecap: butt}</style>
 </defs>
 <g id="figure_1">
  <g id="patch_1">
   <path d="M 0 236.39175 
L 330.759375 236.39175 
L 330.759375 0 
L 0 0 
L 0 236.39175 
z
" style="fill: none"/>
  </g>
  <g id="axes_1">
   <g id="patch_2">
    <path d="M 43.78125 198.8355 
L 322.78125 198.8355 
L 322.78125 35.7555 
L 43.78125 35.7555 
z
" style="fill: #ffffff"/>
   </g>
   <g id="matplotlib.axis_1">
    <g id="xtick_1">
     <g id="line2d_1">
      <defs>
       <path id="m084d0e64ab" d="M 0 0 
L 0 3.5 
" style="stroke: #000000; stroke-width: 0.8"/>
      </defs>
      <g>
       <use xlink:href="#m084d0e64ab" x="56.427557" y="198.8355" style="stroke: #000000; stroke-width: 0.8"/>
      </g>
     </g>
     <g id="text_1">
      <!-- 0 -->
      <g transform="translate(53.246307 213.433938)scale(0.1 -0.1)">
       <defs>
        <path id="DejaVuSans-30" d="M 2034 4250 
Q 1547 4250 1301 3770 
Q 1056 3291 1056 2328 
Q 1056 1369 1301 889 
Q 1547 409 2034 409 
Q 2525 409 2770 889 
Q 3016 1369 3016 2328 
Q 3016 3291 2770 3770 
Q 2525 4250 2034 4250 
z
M 2034 4750 
Q 2819 4750 3233 4129 
Q 3647 3509 3647 2328 
Q 3647 1150 3233 529 
Q 2819 -91 2034 -91 
Q 1250 -91 836 529 
Q 422 1150 422 2328 
Q 422 3509 836 4129 
Q 1250 4750 2034 4750 
z
" transform="scale(0.015625)"/>
       </defs>
       <use xlink:href="#DejaVuSans-30"/>
      </g>
     </g>
    </g>
    <g id="xtick_2">
     <g id="line2d_2">
      <g>
       <use xlink:href="#m084d0e64ab" x="98.703102" y="198.8355" style="stroke: #000000; stroke-width: 0.8"/>
      </g>
     </g>
     <g id="text_2">
      <!-- 50 -->
      <g transform="translate(92.340602 213.433938)scale(0.1 -0.1)">
       <defs>
        <path id="DejaVuSans-35" d="M 691 4666 
L 3169 4666 
L 3169 4134 
L 1269 4134 
L 1269 2991 
Q 1406 3038 1543 3061 
Q 1681 3084 1819 3084 
Q 2600 3084 3056 2656 
Q 3513 2228 3513 1497 
Q 3513 744 3044 326 
Q 2575 -91 1722 -91 
Q 1428 -91 1123 -41 
Q 819 9 494 109 
L 494 744 
Q 775 591 1075 516 
Q 1375 441 1709 441 
Q 2250 441 2565 725 
Q 2881 1009 2881 1497 
Q 2881 1984 2565 2268 
Q 2250 2553 1709 2553 
Q 1456 2553 1204 2497 
Q 953 2441 691 2322 
L 691 4666 
z
" transform="scale(0.015625)"/>
       </defs>
       <use xlink:href="#DejaVuSans-35"/>
       <use xlink:href="#DejaVuSans-30" x="63.623047"/>
      </g>
     </g>
    </g>
    <g id="xtick_3">
     <g id="line2d_3">
      <g>
       <use xlink:href="#m084d0e64ab" x="140.978648" y="198.8355" style="stroke: #000000; stroke-width: 0.8"/>
      </g>
     </g>
     <g id="text_3">
      <!-- 100 -->
      <g transform="translate(131.434898 213.433938)scale(0.1 -0.1)">
       <defs>
        <path id="DejaVuSans-31" d="M 794 531 
L 1825 531 
L 1825 4091 
L 703 3866 
L 703 4441 
L 1819 4666 
L 2450 4666 
L 2450 531 
L 3481 531 
L 3481 0 
L 794 0 
L 794 531 
z
" transform="scale(0.015625)"/>
       </defs>
       <use xlink:href="#DejaVuSans-31"/>
       <use xlink:href="#DejaVuSans-30" x="63.623047"/>
       <use xlink:href="#DejaVuSans-30" x="127.246094"/>
      </g>
     </g>
    </g>
    <g id="xtick_4">
     <g id="line2d_4">
      <g>
       <use xlink:href="#m084d0e64ab" x="183.254194" y="198.8355" style="stroke: #000000; stroke-width: 0.8"/>
      </g>
     </g>
     <g id="text_4">
      <!-- 150 -->
      <g transform="translate(173.710444 213.433938)scale(0.1 -0.1)">
       <use xlink:href="#DejaVuSans-31"/>
       <use xlink:href="#DejaVuSans-35" x="63.623047"/>
       <use xlink:href="#DejaVuSans-30" x="127.246094"/>
      </g>
     </g>
    </g>
    <g id="xtick_5">
     <g id="line2d_5">
      <g>
       <use xlink:href="#m084d0e64ab" x="225.529739" y="198.8355" style="stroke: #000000; stroke-width: 0.8"/>
      </g>
     </g>
     <g id="text_5">
      <!-- 200 -->
      <g transform="translate(215.985989 213.433938)scale(0.1 -0.1)">
       <defs>
        <path id="DejaVuSans-32" d="M 1228 531 
L 3431 531 
L 3431 0 
L 469 0 
L 469 531 
Q 828 903 1448 1529 
Q 2069 2156 2228 2338 
Q 2531 2678 2651 2914 
Q 2772 3150 2772 3378 
Q 2772 3750 2511 3984 
Q 2250 4219 1831 4219 
Q 1534 4219 1204 4116 
Q 875 4013 500 3803 
L 500 4441 
Q 881 4594 1212 4672 
Q 1544 4750 1819 4750 
Q 2544 4750 2975 4387 
Q 3406 4025 3406 3419 
Q 3406 3131 3298 2873 
Q 3191 2616 2906 2266 
Q 2828 2175 2409 1742 
Q 1991 1309 1228 531 
z
" transform="scale(0.015625)"/>
       </defs>
       <use xlink:href="#DejaVuSans-32"/>
       <use xlink:href="#DejaVuSans-30" x="63.623047"/>
       <use xlink:href="#DejaVuSans-30" x="127.246094"/>
      </g>
     </g>
    </g>
    <g id="xtick_6">
     <g id="line2d_6">
      <g>
       <use xlink:href="#m084d0e64ab" x="267.805285" y="198.8355" style="stroke: #000000; stroke-width: 0.8"/>
      </g>
     </g>
     <g id="text_6">
      <!-- 250 -->
      <g transform="translate(258.261535 213.433938)scale(0.1 -0.1)">
       <use xlink:href="#DejaVuSans-32"/>
       <use xlink:href="#DejaVuSans-35" x="63.623047"/>
       <use xlink:href="#DejaVuSans-30" x="127.246094"/>
      </g>
     </g>
    </g>
    <g id="xtick_7">
     <g id="line2d_7">
      <g>
       <use xlink:href="#m084d0e64ab" x="310.080831" y="198.8355" style="stroke: #000000; stroke-width: 0.8"/>
      </g>
     </g>
     <g id="text_7">
      <!-- 300 -->
      <g transform="translate(300.537081 213.433938)scale(0.1 -0.1)">
       <defs>
        <path id="DejaVuSans-33" d="M 2597 2516 
Q 3050 2419 3304 2112 
Q 3559 1806 3559 1356 
Q 3559 666 3084 287 
Q 2609 -91 1734 -91 
Q 1441 -91 1130 -33 
Q 819 25 488 141 
L 488 750 
Q 750 597 1062 519 
Q 1375 441 1716 441 
Q 2309 441 2620 675 
Q 2931 909 2931 1356 
Q 2931 1769 2642 2001 
Q 2353 2234 1838 2234 
L 1294 2234 
L 1294 2753 
L 1863 2753 
Q 2328 2753 2575 2939 
Q 2822 3125 2822 3475 
Q 2822 3834 2567 4026 
Q 2313 4219 1838 4219 
Q 1578 4219 1281 4162 
Q 984 4106 628 3988 
L 628 4550 
Q 988 4650 1302 4700 
Q 1616 4750 1894 4750 
Q 2613 4750 3031 4423 
Q 3450 4097 3450 3541 
Q 3450 3153 3228 2886 
Q 3006 2619 2597 2516 
z
" transform="scale(0.015625)"/>
       </defs>
       <use xlink:href="#DejaVuSans-33"/>
       <use xlink:href="#DejaVuSans-30" x="63.623047"/>
       <use xlink:href="#DejaVuSans-30" x="127.246094"/>
      </g>
     </g>
    </g>
    <g id="text_8">
     <!-- Time [s] -->
     <g transform="translate(162.952344 227.112063)scale(0.1 -0.1)">
      <defs>
       <path id="DejaVuSans-54" d="M -19 4666 
L 3928 4666 
L 3928 4134 
L 2272 4134 
L 2272 0 
L 1638 0 
L 1638 4134 
L -19 4134 
L -19 4666 
z
" transform="scale(0.015625)"/>
       <path id="DejaVuSans-69" d="M 603 3500 
L 1178 3500 
L 1178 0 
L 603 0 
L 603 3500 
z
M 603 4863 
L 1178 4863 
L 1178 4134 
L 603 4134 
L 603 4863 
z
" transform="scale(0.015625)"/>
       <path id="DejaVuSans-6d" d="M 3328 2828 
Q 3544 3216 3844 3400 
Q 4144 3584 4550 3584 
Q 5097 3584 5394 3201 
Q 5691 2819 5691 2113 
L 5691 0 
L 5113 0 
L 5113 2094 
Q 5113 2597 4934 2840 
Q 4756 3084 4391 3084 
Q 3944 3084 3684 2787 
Q 3425 2491 3425 1978 
L 3425 0 
L 2847 0 
L 2847 2094 
Q 2847 2600 2669 2842 
Q 2491 3084 2119 3084 
Q 1678 3084 1418 2786 
Q 1159 2488 1159 1978 
L 1159 0 
L 581 0 
L 581 3500 
L 1159 3500 
L 1159 2956 
Q 1356 3278 1631 3431 
Q 1906 3584 2284 3584 
Q 2666 3584 2933 3390 
Q 3200 3197 3328 2828 
z
" transform="scale(0.015625)"/>
       <path id="DejaVuSans-65" d="M 3597 1894 
L 3597 1613 
L 953 1613 
Q 991 1019 1311 708 
Q 1631 397 2203 397 
Q 2534 397 2845 478 
Q 3156 559 3463 722 
L 3463 178 
Q 3153 47 2828 -22 
Q 2503 -91 2169 -91 
Q 1331 -91 842 396 
Q 353 884 353 1716 
Q 353 2575 817 3079 
Q 1281 3584 2069 3584 
Q 2775 3584 3186 3129 
Q 3597 2675 3597 1894 
z
M 3022 2063 
Q 3016 2534 2758 2815 
Q 2500 3097 2075 3097 
Q 1594 3097 1305 2825 
Q 1016 2553 972 2059 
L 3022 2063 
z
" transform="scale(0.015625)"/>
       <path id="DejaVuSans-20" transform="scale(0.015625)"/>
       <path id="DejaVuSans-5b" d="M 550 4863 
L 1875 4863 
L 1875 4416 
L 1125 4416 
L 1125 -397 
L 1875 -397 
L 1875 -844 
L 550 -844 
L 550 4863 
z
" transform="scale(0.015625)"/>
       <path id="DejaVuSans-73" d="M 2834 3397 
L 2834 2853 
Q 2591 2978 2328 3040 
Q 2066 3103 1784 3103 
Q 1356 3103 1142 2972 
Q 928 2841 928 2578 
Q 928 2378 1081 2264 
Q 1234 2150 1697 2047 
L 1894 2003 
Q 2506 1872 2764 1633 
Q 3022 1394 3022 966 
Q 3022 478 2636 193 
Q 2250 -91 1575 -91 
Q 1294 -91 989 -36 
Q 684 19 347 128 
L 347 722 
Q 666 556 975 473 
Q 1284 391 1588 391 
Q 1994 391 2212 530 
Q 2431 669 2431 922 
Q 2431 1156 2273 1281 
Q 2116 1406 1581 1522 
L 1381 1569 
Q 847 1681 609 1914 
Q 372 2147 372 2553 
Q 372 3047 722 3315 
Q 1072 3584 1716 3584 
Q 2034 3584 2315 3537 
Q 2597 3491 2834 3397 
z
" transform="scale(0.015625)"/>
       <path id="DejaVuSans-5d" d="M 1947 4863 
L 1947 -844 
L 622 -844 
L 622 -397 
L 1369 -397 
L 1369 4416 
L 622 4416 
L 622 4863 
L 1947 4863 
z
" transform="scale(0.015625)"/>
      </defs>
      <use xlink:href="#DejaVuSans-54"/>
      <use xlink:href="#DejaVuSans-69" x="57.958984"/>
      <use xlink:href="#DejaVuSans-6d" x="85.742188"/>
      <use xlink:href="#DejaVuSans-65" x="183.154297"/>
      <use xlink:href="#DejaVuSans-20" x="244.677734"/>
      <use xlink:href="#DejaVuSans-5b" x="276.464844"/>
      <use xlink:href="#DejaVuSans-73" x="315.478516"/>
      <use xlink:href="#DejaVuSans-5d" x="367.578125"/>
     </g>
    </g>
   </g>
   <g id="matplotlib.axis_2">
    <g id="ytick_1">
     <g id="line2d_8">
      <defs>
       <path id="m799bf6fed8" d="M 0 0 
L -3.5 0 
" style="stroke: #000000; stroke-width: 0.8"/>
      </defs>
      <g>
       <use xlink:href="#m799bf6fed8" x="43.78125" y="195.923357" style="stroke: #000000; stroke-width: 0.8"/>
      </g>
     </g>
     <g id="text_9">
      <!-- 0.0 -->
      <g transform="translate(20.878125 199.722576)scale(0.1 -0.1)">
       <defs>
        <path id="DejaVuSans-2e" d="M 684 794 
L 1344 794 
L 1344 0 
L 684 0 
L 684 794 
z
" transform="scale(0.015625)"/>
       </defs>
       <use xlink:href="#DejaVuSans-30"/>
       <use xlink:href="#DejaVuSans-2e" x="63.623047"/>
       <use xlink:href="#DejaVuSans-30" x="95.410156"/>
      </g>
     </g>
    </g>
    <g id="ytick_2">
     <g id="line2d_9">
      <g>
       <use xlink:href="#m799bf6fed8" x="43.78125" y="166.801929" style="stroke: #000000; stroke-width: 0.8"/>
      </g>
     </g>
     <g id="text_10">
      <!-- 0.2 -->
      <g transform="translate(20.878125 170.601147)scale(0.1 -0.1)">
       <use xlink:href="#DejaVuSans-30"/>
       <use xlink:href="#DejaVuSans-2e" x="63.623047"/>
       <use xlink:href="#DejaVuSans-32" x="95.410156"/>
      </g>
     </g>
    </g>
    <g id="ytick_3">
     <g id="line2d_10">
      <g>
       <use xlink:href="#m799bf6fed8" x="43.78125" y="137.6805" style="stroke: #000000; stroke-width: 0.8"/>
      </g>
     </g>
     <g id="text_11">
      <!-- 0.4 -->
      <g transform="translate(20.878125 141.479719)scale(0.1 -0.1)">
       <defs>
        <path id="DejaVuSans-34" d="M 2419 4116 
L 825 1625 
L 2419 1625 
L 2419 4116 
z
M 2253 4666 
L 3047 4666 
L 3047 1625 
L 3713 1625 
L 3713 1100 
L 3047 1100 
L 3047 0 
L 2419 0 
L 2419 1100 
L 313 1100 
L 313 1709 
L 2253 4666 
z
" transform="scale(0.015625)"/>
       </defs>
       <use xlink:href="#DejaVuSans-30"/>
       <use xlink:href="#DejaVuSans-2e" x="63.623047"/>
       <use xlink:href="#DejaVuSans-34" x="95.410156"/>
      </g>
     </g>
    </g>
    <g id="ytick_4">
     <g id="line2d_11">
      <g>
       <use xlink:href="#m799bf6fed8" x="43.78125" y="108.559071" style="stroke: #000000; stroke-width: 0.8"/>
      </g>
     </g>
     <g id="text_12">
      <!-- 0.6 -->
      <g transform="translate(20.878125 112.35829)scale(0.1 -0.1)">
       <defs>
        <path id="DejaVuSans-36" d="M 2113 2584 
Q 1688 2584 1439 2293 
Q 1191 2003 1191 1497 
Q 1191 994 1439 701 
Q 1688 409 2113 409 
Q 2538 409 2786 701 
Q 3034 994 3034 1497 
Q 3034 2003 2786 2293 
Q 2538 2584 2113 2584 
z
M 3366 4563 
L 3366 3988 
Q 3128 4100 2886 4159 
Q 2644 4219 2406 4219 
Q 1781 4219 1451 3797 
Q 1122 3375 1075 2522 
Q 1259 2794 1537 2939 
Q 1816 3084 2150 3084 
Q 2853 3084 3261 2657 
Q 3669 2231 3669 1497 
Q 3669 778 3244 343 
Q 2819 -91 2113 -91 
Q 1303 -91 875 529 
Q 447 1150 447 2328 
Q 447 3434 972 4092 
Q 1497 4750 2381 4750 
Q 2619 4750 2861 4703 
Q 3103 4656 3366 4563 
z
" transform="scale(0.015625)"/>
       </defs>
       <use xlink:href="#DejaVuSans-30"/>
       <use xlink:href="#DejaVuSans-2e" x="63.623047"/>
       <use xlink:href="#DejaVuSans-36" x="95.410156"/>
      </g>
     </g>
    </g>
    <g id="ytick_5">
     <g id="line2d_12">
      <g>
       <use xlink:href="#m799bf6fed8" x="43.78125" y="79.437643" style="stroke: #000000; stroke-width: 0.8"/>
      </g>
     </g>
     <g id="text_13">
      <!-- 0.8 -->
      <g transform="translate(20.878125 83.236862)scale(0.1 -0.1)">
       <defs>
        <path id="DejaVuSans-38" d="M 2034 2216 
Q 1584 2216 1326 1975 
Q 1069 1734 1069 1313 
Q 1069 891 1326 650 
Q 1584 409 2034 409 
Q 2484 409 2743 651 
Q 3003 894 3003 1313 
Q 3003 1734 2745 1975 
Q 2488 2216 2034 2216 
z
M 1403 2484 
Q 997 2584 770 2862 
Q 544 3141 544 3541 
Q 544 4100 942 4425 
Q 1341 4750 2034 4750 
Q 2731 4750 3128 4425 
Q 3525 4100 3525 3541 
Q 3525 3141 3298 2862 
Q 3072 2584 2669 2484 
Q 3125 2378 3379 2068 
Q 3634 1759 3634 1313 
Q 3634 634 3220 271 
Q 2806 -91 2034 -91 
Q 1263 -91 848 271 
Q 434 634 434 1313 
Q 434 1759 690 2068 
Q 947 2378 1403 2484 
z
M 1172 3481 
Q 1172 3119 1398 2916 
Q 1625 2713 2034 2713 
Q 2441 2713 2670 2916 
Q 2900 3119 2900 3481 
Q 2900 3844 2670 4047 
Q 2441 4250 2034 4250 
Q 1625 4250 1398 4047 
Q 1172 3844 1172 3481 
z
" transform="scale(0.015625)"/>
       </defs>
       <use xlink:href="#DejaVuSans-30"/>
       <use xlink:href="#DejaVuSans-2e" x="63.623047"/>
       <use xlink:href="#DejaVuSans-38" x="95.410156"/>
      </g>
     </g>
    </g>
    <g id="ytick_6">
     <g id="line2d_13">
      <g>
       <use xlink:href="#m799bf6fed8" x="43.78125" y="50.316214" style="stroke: #000000; stroke-width: 0.8"/>
      </g>
     </g>
     <g id="text_14">
      <!-- 1.0 -->
      <g transform="translate(20.878125 54.115433)scale(0.1 -0.1)">
       <use xlink:href="#DejaVuSans-31"/>
       <use xlink:href="#DejaVuSans-2e" x="63.623047"/>
       <use xlink:href="#DejaVuSans-30" x="95.410156"/>
      </g>
     </g>
    </g>
    <g id="text_15">
     <!-- (F-F$^o$)/F$^o$ -->
     <g transform="translate(14.798438 137.9955)rotate(-90)scale(0.1 -0.1)">
      <defs>
       <path id="DejaVuSans-28" d="M 1984 4856 
Q 1566 4138 1362 3434 
Q 1159 2731 1159 2009 
Q 1159 1288 1364 580 
Q 1569 -128 1984 -844 
L 1484 -844 
Q 1016 -109 783 600 
Q 550 1309 550 2009 
Q 550 2706 781 3412 
Q 1013 4119 1484 4856 
L 1984 4856 
z
" transform="scale(0.015625)"/>
       <path id="DejaVuSans-46" d="M 628 4666 
L 3309 4666 
L 3309 4134 
L 1259 4134 
L 1259 2759 
L 3109 2759 
L 3109 2228 
L 1259 2228 
L 1259 0 
L 628 0 
L 628 4666 
z
" transform="scale(0.015625)"/>
       <path id="DejaVuSans-2d" d="M 313 2009 
L 1997 2009 
L 1997 1497 
L 313 1497 
L 313 2009 
z
" transform="scale(0.015625)"/>
       <path id="DejaVuSans-Oblique-6f" d="M 1625 -91 
Q 1009 -91 651 289 
Q 294 669 294 1325 
Q 294 1706 417 2101 
Q 541 2497 738 2766 
Q 1047 3184 1428 3384 
Q 1809 3584 2291 3584 
Q 2888 3584 3255 3212 
Q 3622 2841 3622 2241 
Q 3622 1825 3500 1412 
Q 3378 1000 3181 728 
Q 2875 309 2494 109 
Q 2113 -91 1625 -91 
z
M 891 1344 
Q 891 869 1089 633 
Q 1288 397 1691 397 
Q 2269 397 2648 901 
Q 3028 1406 3028 2181 
Q 3028 2634 2825 2865 
Q 2622 3097 2228 3097 
Q 1903 3097 1650 2945 
Q 1397 2794 1197 2484 
Q 1050 2253 970 1956 
Q 891 1659 891 1344 
z
" transform="scale(0.015625)"/>
       <path id="DejaVuSans-29" d="M 513 4856 
L 1013 4856 
Q 1481 4119 1714 3412 
Q 1947 2706 1947 2009 
Q 1947 1309 1714 600 
Q 1481 -109 1013 -844 
L 513 -844 
Q 928 -128 1133 580 
Q 1338 1288 1338 2009 
Q 1338 2731 1133 3434 
Q 928 4138 513 4856 
z
" transform="scale(0.015625)"/>
       <path id="DejaVuSans-2f" d="M 1625 4666 
L 2156 4666 
L 531 -594 
L 0 -594 
L 1625 4666 
z
" transform="scale(0.015625)"/>
      </defs>
      <use xlink:href="#DejaVuSans-28" transform="translate(0 0.51875)"/>
      <use xlink:href="#DejaVuSans-46" transform="translate(39.013672 0.51875)"/>
      <use xlink:href="#DejaVuSans-2d" transform="translate(96.533203 0.51875)"/>
      <use xlink:href="#DejaVuSans-46" transform="translate(132.617188 0.51875)"/>
      <use xlink:href="#DejaVuSans-Oblique-6f" transform="translate(191.09375 38.8)scale(0.7)"/>
      <use xlink:href="#DejaVuSans-29" transform="translate(236.655273 0.51875)"/>
      <use xlink:href="#DejaVuSans-2f" transform="translate(275.668945 0.51875)"/>
      <use xlink:href="#DejaVuSans-46" transform="translate(309.360352 0.51875)"/>
      <use xlink:href="#DejaVuSans-Oblique-6f" transform="translate(367.836914 38.8)scale(0.7)"/>
     </g>
    </g>
   </g>
   <g id="line2d_14">
    <path d="M 56.463068 115.05148 
L 56.851158 115.700577 
L 57.120876 114.676567 
L 57.389748 114.169035 
L 57.524184 114.332378 
L 57.658621 114.792658 
L 57.793902 113.482991 
L 57.928339 114.635342 
L 58.065311 114.638259 
L 58.335029 112.893009 
L 58.469466 113.159804 
L 58.603902 113.111967 
L 58.874465 110.915188 
L 59.008902 110.80882 
L 59.277774 108.962842 
L 59.41221 108.80572 
L 59.547492 108.985399 
L 59.681928 107.736597 
L 59.951646 108.673101 
L 60.086082 107.976945 
L 60.223055 108.199599 
L 60.357491 107.67651 
L 60.491928 108.078257 
L 60.627209 107.768099 
L 60.761646 105.843948 
L 60.896927 108.347191 
L 61.031364 106.468933 
L 61.301082 106.747978 
L 61.435518 105.892368 
L 61.569954 106.546715 
L 61.705236 105.030146 
L 61.839672 106.61847 
L 61.974108 105.766943 
L 62.10939 106.180553 
L 62.243826 104.266903 
L 62.513544 105.950705 
L 62.647135 105.789695 
L 62.920235 103.826653 
L 63.054671 105.181823 
L 63.324389 104.404384 
L 63.593262 105.182795 
L 63.993188 103.060882 
L 64.12847 103.983385 
L 64.262906 103.992525 
L 64.397343 102.714554 
L 64.532624 104.165591 
L 64.667061 103.979885 
L 64.936779 102.499291 
L 65.071215 102.846007 
L 65.340933 100.234257 
L 65.475369 102.108432 
L 65.610651 100.567556 
L 65.879523 100.467606 
L 66.013959 100.04544 
L 66.283677 98.992067 
L 66.418114 98.463922 
L 66.55255 98.461394 
L 66.822268 99.003735 
L 67.226422 100.643589 
L 67.361704 101.049226 
L 67.49614 100.51272 
L 67.631422 100.758124 
L 67.765858 101.337411 
L 67.900294 99.934599 
L 68.169167 101.457974 
L 68.302757 101.21957 
L 68.438039 99.305143 
L 68.573321 100.52322 
L 68.707757 99.969018 
L 68.843039 100.978055 
L 68.977475 99.661193 
L 69.111911 100.591086 
L 69.247193 100.541499 
L 69.650502 98.331303 
L 69.785784 98.067814 
L 69.92022 98.181377 
L 70.189092 97.358241 
L 70.324374 97.323044 
L 70.45881 97.646231 
L 70.729374 97.394021 
L 70.86381 97.46422 
L 71.133528 96.695337 
L 71.267964 97.207342 
L 71.538528 94.165843 
L 71.672964 94.791799 
L 71.808246 94.806578 
L 72.077964 94.24907 
L 72.346836 95.255579 
L 72.481272 94.51956 
L 72.615709 94.926947 
L 72.75099 93.781791 
L 72.886272 93.876297 
L 73.020708 95.354752 
L 73.15599 93.96808 
L 73.291272 93.913827 
L 73.425708 93.99511 
L 73.559299 93.346402 
L 73.830708 95.040899 
L 73.965144 95.051594 
L 74.100426 93.785291 
L 74.234862 93.73551 
L 74.369298 92.955543 
L 74.639016 94.124618 
L 74.773453 94.209401 
L 74.908734 93.364875 
L 75.312888 95.240995 
L 75.582606 93.142222 
L 75.852324 94.277072 
L 75.986761 92.859871 
L 76.122042 94.206095 
L 76.256479 93.401433 
L 76.39176 94.239153 
L 76.526197 93.641004 
L 76.660633 93.718009 
L 76.930351 94.177899 
L 77.334505 93.85549 
L 77.469787 94.226319 
L 77.604223 94.233514 
L 77.738659 94.776826 
L 77.873941 92.757003 
L 78.008377 92.870955 
L 78.143659 94.322186 
L 78.278095 94.363994 
L 78.412531 93.864824 
L 78.547813 94.324714 
L 78.81584 94.420581 
L 78.950276 96.132774 
L 79.084713 95.571377 
L 79.354431 94.049752 
L 79.488867 95.08679 
L 79.623303 93.159529 
L 79.758585 93.161668 
L 79.893021 94.25471 
L 80.028303 93.691368 
L 80.162739 95.253634 
L 80.566893 92.984518 
L 80.70133 93.609502 
L 80.836611 93.481938 
L 80.970202 92.353311 
L 81.104638 93.129971 
L 81.240765 91.951368 
L 81.376047 92.704305 
L 81.645765 92.246748 
L 81.780201 90.98239 
L 82.049074 91.590262 
L 82.187738 91.043838 
L 82.457456 91.992593 
L 82.591892 91.407473 
L 82.726328 91.456476 
L 82.860764 92.797839 
L 82.996046 90.95361 
L 83.129637 93.194142 
L 83.264073 91.105676 
L 83.399355 91.164596 
L 83.534637 91.543009 
L 83.669073 91.14865 
L 83.937945 92.105378 
L 84.073227 92.364395 
L 84.207663 93.412323 
L 84.344636 93.497884 
L 84.614354 92.539795 
L 84.74879 92.733863 
L 84.884072 93.765456 
L 85.018508 93.522969 
L 85.152944 94.477557 
L 85.287381 94.221457 
L 85.421817 93.290787 
L 85.691535 94.902056 
L 85.826817 95.692718 
L 85.961253 94.436332 
L 86.230971 95.257524 
L 86.499843 97.470637 
L 86.63428 97.241178 
L 86.769561 96.496603 
L 86.903998 96.791205 
L 87.177943 97.79713 
L 87.312379 96.374873 
L 87.446816 97.861301 
L 87.582097 97.729459 
L 87.851815 98.287744 
L 88.121533 99.070239 
L 88.25597 97.318183 
L 88.524842 98.888422 
L 88.659278 98.25177 
L 88.793714 98.270827 
L 89.063432 99.627747 
L 89.33315 100.276649 
L 89.602023 100.194783 
L 89.737305 100.848741 
L 89.871741 100.492496 
L 90.006177 101.28063 
L 90.14315 100.323708 
L 90.277586 102.212661 
L 90.412868 102.470511 
L 90.547304 102.087237 
L 90.680895 102.913678 
L 90.815331 102.526515 
L 90.950613 101.488115 
L 91.08674 102.673913 
L 91.221176 101.927588 
L 91.356458 101.868473 
L 91.490894 102.946541 
L 91.760612 101.612956 
L 91.895048 101.859528 
L 92.029485 101.805663 
L 92.164766 103.784262 
L 92.299203 103.741287 
L 92.568921 102.587185 
L 92.704202 103.899769 
L 92.838639 103.829375 
L 92.973075 104.707348 
L 93.107511 104.290238 
L 93.377229 105.318526 
L 93.781383 107.089833 
L 93.91582 106.034322 
L 94.050256 107.934165 
L 94.320819 106.985993 
L 94.455256 107.702956 
L 94.724974 106.4876 
L 94.860255 107.020412 
L 94.994692 108.119093 
L 95.129128 107.908886 
L 95.264409 107.969556 
L 95.398846 107.824297 
L 95.534127 107.400381 
L 95.803 105.671076 
L 95.937436 106.343897 
L 96.071872 106.156635 
L 96.880181 103.600694 
L 97.015463 104.689653 
L 97.149053 103.848043 
L 97.284335 104.365104 
L 97.553208 103.371041 
L 97.687644 104.132728 
L 97.954825 102.29025 
L 98.223698 101.695017 
L 98.493416 102.342364 
L 98.628697 102.343142 
L 98.89757 101.46478 
L 99.167288 102.119711 
L 99.43616 101.523117 
L 99.704187 101.584955 
L 99.839469 101.962395 
L 99.973905 101.829581 
L 100.243623 103.330205 
L 100.646932 104.197482 
L 100.782214 103.441045 
L 101.051086 104.922223 
L 101.185522 104.834717 
L 101.320804 104.2074 
L 101.45524 105.980068 
L 101.590522 105.64638 
L 101.724958 105.677104 
L 101.859395 105.850949 
L 102.129113 106.615164 
L 102.262703 104.988727 
L 102.531576 105.135931 
L 102.666858 105.468647 
L 102.933193 108.276603 
L 103.06763 108.472421 
L 103.337348 109.999297 
L 103.472629 108.522397 
L 103.740656 110.02477 
L 103.875093 109.885345 
L 104.009529 108.219628 
L 104.279247 109.000566 
L 104.41622 108.447142 
L 104.685092 108.682435 
L 104.819528 108.20621 
L 105.089246 109.00115 
L 105.223683 108.746995 
L 105.358964 110.239062 
L 105.628682 109.5361 
L 105.763118 109.737169 
L 105.897555 110.552721 
L 106.031991 109.91218 
L 106.167273 110.32754 
L 106.432763 109.485931 
L 106.568045 109.407953 
L 106.834381 111.722184 
L 106.968817 110.391127 
L 107.103253 110.412712 
L 107.377199 109.017678 
L 107.512481 110.226811 
L 107.646917 109.741252 
L 107.781353 110.271731 
L 108.052762 108.948257 
L 108.187198 108.90431 
L 108.32248 109.103045 
L 108.456916 108.303438 
L 108.591352 106.649972 
L 108.994661 107.709762 
L 109.129097 106.253086 
L 109.264379 106.267281 
L 109.399661 106.153913 
L 109.534097 104.854941 
L 109.669379 105.791639 
L 109.803815 103.840654 
L 109.938251 105.014784 
L 110.072688 103.565498 
L 110.342406 104.900055 
L 110.476842 102.922623 
L 110.612124 104.582896 
L 110.747405 104.12145 
L 110.881842 104.696847 
L 111.017123 104.015665 
L 111.154096 105.332721 
L 111.423814 103.82432 
L 111.559096 104.616537 
L 111.827968 104.219456 
L 111.96325 103.560247 
L 112.097686 103.615473 
L 112.23635 103.421016 
L 112.777477 104.621787 
L 112.911913 104.625871 
L 113.043813 103.347123 
L 113.178249 104.360437 
L 113.312685 103.935938 
L 113.447122 104.263792 
L 113.582403 103.49841 
L 113.71684 103.485381 
L 113.851276 103.925048 
L 113.986558 103.652809 
L 114.120994 104.358104 
L 114.25543 102.836673 
L 114.794866 106.467766 
L 114.929302 105.417505 
L 115.199866 107.045497 
L 115.334302 109.994824 
L 115.468738 109.55224 
L 115.605711 109.829341 
L 115.740993 109.719668 
L 115.875429 109.109851 
L 116.010711 110.116749 
L 116.279583 110.574889 
L 116.414865 109.82798 
L 116.683737 113.012211 
L 116.819019 112.350863 
L 116.953455 112.645271 
L 117.088737 113.321981 
L 117.223173 112.385476 
L 117.358455 112.79753 
L 117.492891 113.828346 
L 117.762609 113.093494 
L 117.897046 114.266652 
L 118.032327 113.917602 
L 118.166764 115.302912 
L 118.436482 113.808123 
L 118.571763 114.805881 
L 118.7062 114.222705 
L 118.840636 116.084629 
L 118.975072 115.440199 
L 119.109508 114.156006 
L 119.243944 114.99781 
L 119.383454 114.298932 
L 119.51789 115.40928 
L 119.652326 114.482888 
L 119.786762 114.813853 
L 120.053944 113.531022 
L 120.189226 113.493686 
L 120.323662 113.732868 
L 120.458098 115.064508 
L 120.592534 113.24692 
L 120.996689 114.387993 
L 121.131125 112.471815 
L 121.265561 112.705552 
L 121.400843 111.852276 
L 121.531897 112.989459 
L 121.666333 112.751444 
L 121.801615 111.450334 
L 121.936051 112.954068 
L 122.205769 113.225919 
L 122.340205 112.77614 
L 122.475487 112.879397 
L 122.609923 112.253051 
L 122.745205 113.077743 
L 122.879641 112.953874 
L 123.010696 112.652077 
L 123.41485 113.381095 
L 123.549286 113.008905 
L 123.683722 114.032526 
L 123.818159 113.8826 
L 123.95344 113.446239 
L 124.222313 114.104669 
L 124.356749 113.555134 
L 124.492031 115.299218 
L 124.627312 115.445449 
L 124.761749 115.757553 
L 124.896185 115.27141 
L 125.030621 116.644081 
L 125.165057 115.906895 
L 125.43393 116.892597 
L 125.572594 117.185449 
L 125.707875 118.822581 
L 125.842312 117.453994 
L 125.977593 117.746068 
L 126.112875 116.249723 
L 126.246466 118.437557 
L 126.381748 117.205284 
L 126.516184 118.68685 
L 126.651466 118.888891 
L 126.785902 119.824228 
L 126.921184 119.450677 
L 127.05562 120.848627 
L 127.324492 119.712805 
L 127.458929 119.835507 
L 127.728646 121.7371 
L 127.863083 121.663401 
L 128.267237 123.667084 
L 128.401673 124.395131 
L 128.536109 123.820511 
L 128.670546 125.366443 
L 129.0747 123.388817 
L 129.209136 125.173153 
L 129.344418 125.124344 
L 129.612445 126.826036 
L 129.747727 126.10674 
L 129.882163 128.412609 
L 130.019981 126.576353 
L 130.289699 126.825258 
L 130.424135 125.743884 
L 130.693853 126.180439 
L 130.828289 124.858522 
L 130.963571 124.835187 
L 131.098007 125.014281 
L 131.232444 124.570531 
L 131.367725 125.137762 
L 131.503007 124.517444 
L 131.634907 124.47233 
L 131.769343 123.22314 
L 131.908852 123.380261 
L 132.17857 122.999125 
L 132.313007 123.414485 
L 132.852443 122.157905 
L 132.986879 121.333797 
L 133.122161 122.32261 
L 133.256597 121.411385 
L 133.391879 122.092762 
L 133.661597 121.10181 
L 133.796033 121.25932 
L 133.931315 121.11445 
L 134.065751 121.245319 
L 134.200187 121.61926 
L 134.335469 121.096171 
L 134.469905 121.320963 
L 134.605187 119.836285 
L 134.739623 121.439581 
L 134.874059 119.721166 
L 135.009341 120.408182 
L 135.143777 119.889371 
L 135.279059 120.046687 
L 135.414341 120.7689 
L 135.548777 122.147015 
L 135.818495 120.703173 
L 135.952931 121.84658 
L 136.088213 121.636566 
L 136.222649 121.808855 
L 136.357085 120.80993 
L 136.492367 122.630241 
L 136.625958 120.906575 
L 136.76124 122.179295 
L 136.895676 122.317943 
L 137.030112 122.122125 
L 137.164548 124.086722 
L 137.434266 121.698598 
L 137.568702 122.279829 
L 137.842648 125.056479 
L 137.977084 123.895182 
L 138.246802 126.117824 
L 138.515675 126.731335 
L 138.650956 126.970712 
L 138.785393 126.149326 
L 138.919829 127.472216 
L 139.055111 127.070079 
L 139.189547 127.253258 
L 139.323983 129.197826 
L 139.458419 129.125488 
L 139.728137 127.517135 
L 139.862574 127.40649 
L 139.997855 128.347661 
L 140.266728 127.084858 
L 140.40201 128.30838 
L 140.537291 126.779561 
L 140.671728 127.02516 
L 140.807009 126.648302 
L 140.941446 127.428269 
L 141.076727 127.015242 
L 141.346445 128.077949 
L 141.480881 126.368868 
L 141.616163 127.694869 
L 141.750599 127.263175 
L 141.885036 127.461715 
L 142.019472 126.927737 
L 142.153908 128.04353 
L 142.28919 127.695258 
L 142.423626 128.07231 
L 142.692499 126.793173 
L 142.826935 127.641977 
L 143.097498 126.624967 
L 143.367216 127.464827 
L 143.502498 127.269397 
L 143.636934 127.301872 
L 143.772216 127.810376 
L 144.041934 127.52258 
L 144.177216 128.157871 
L 144.312498 127.566916 
L 144.446934 127.90741 
L 144.715806 127.581501 
L 144.850242 129.550571 
L 144.985524 128.622234 
L 145.255242 129.284748 
L 145.390524 128.58937 
L 145.52496 129.030788 
L 145.659396 128.629818 
L 145.794678 129.42184 
L 145.929114 129.424563 
L 146.064396 129.070846 
L 146.469396 132.712828 
L 146.738268 131.759017 
L 146.872705 132.264994 
L 147.007141 133.840677 
L 147.142423 132.299413 
L 147.277704 133.824343 
L 147.412141 133.577188 
L 147.547422 132.712633 
L 147.681859 133.857206 
L 147.951577 133.159301 
L 148.221294 132.869754 
L 148.355731 133.277142 
L 148.491012 132.793722 
L 148.630522 131.533836 
L 149.03383 131.977975 
L 149.303548 130.690866 
L 149.708548 131.792075 
L 149.842984 132.733246 
L 149.977421 131.60209 
L 150.111857 132.30583 
L 150.245448 132.124012 
L 150.380729 132.157654 
L 150.921011 129.965542 
L 151.054602 130.143664 
L 151.189883 129.743083 
L 151.325165 128.39433 
L 151.459601 128.187039 
L 151.594038 128.849554 
L 151.729319 127.814266 
L 151.863756 128.502448 
L 151.999037 128.2691 
L 152.132628 126.591521 
L 152.26791 127.696425 
L 152.537628 126.073682 
L 152.672064 127.011159 
L 152.941782 124.52075 
L 153.210654 126.195023 
L 153.346782 125.199988 
L 153.481218 125.420113 
L 153.6165 124.532612 
L 153.750936 124.805046 
L 153.885372 125.544371 
L 154.290372 123.648222 
L 154.424808 124.358573 
L 154.56009 124.150699 
L 154.829808 125.230129 
L 154.964244 125.447142 
L 155.099526 125.106648 
L 155.234808 125.53037 
L 155.50368 127.429435 
L 155.638962 127.264342 
L 155.773398 127.470271 
L 155.90868 127.363709 
L 156.043961 126.831286 
L 156.178398 127.351069 
L 156.312834 128.454806 
L 156.44727 128.197734 
L 156.582552 127.234201 
L 156.716988 127.769346 
L 156.851424 127.238479 
L 156.986706 129.15699 
L 157.121142 128.387135 
L 157.255579 129.322473 
L 157.39086 129.469288 
L 157.525297 129.873563 
L 157.659733 128.805412 
L 157.931142 129.901565 
L 158.065578 129.905843 
L 158.20086 129.594518 
L 158.335296 130.430293 
L 158.469732 130.434766 
L 158.604168 130.703894 
L 158.73945 131.977586 
L 158.874732 131.467332 
L 159.14445 132.226102 
L 159.278886 132.111956 
L 159.414168 133.419484 
L 159.68304 131.808992 
L 159.817477 132.208601 
L 160.356913 131.032915 
L 160.491349 132.223185 
L 160.626631 132.212296 
L 160.895503 130.778955 
L 161.030785 131.403744 
L 161.165221 131.07939 
L 161.300503 130.368651 
L 161.434939 131.414634 
L 161.569375 130.161943 
L 161.704657 130.792955 
L 161.839093 129.264719 
L 161.974375 130.202779 
L 162.107966 130.025629 
L 162.381911 128.601427 
L 162.517193 129.096514 
L 162.651629 128.524616 
L 162.786065 129.565349 
L 162.918811 128.560591 
L 163.053247 128.772549 
L 163.188529 128.485531 
L 163.322965 129.255969 
L 163.457401 129.00648 
L 163.592683 130.430099 
L 163.727119 129.803753 
L 163.862401 130.16311 
L 163.996837 128.696127 
L 164.132119 130.382457 
L 164.267401 129.466565 
L 164.537964 130.577497 
L 164.6724 130.860432 
L 165.076555 133.289976 
L 165.210991 133.606357 
L 165.346273 134.43066 
L 165.481554 133.051766 
L 165.61599 134.730123 
L 165.751272 134.295706 
L 165.885708 135.772801 
L 166.155426 135.769106 
L 166.290708 136.738473 
L 166.425144 135.792441 
L 166.560426 137.165112 
L 166.694862 136.78067 
L 166.830144 138.75538 
L 167.099017 137.361513 
L 167.367889 138.686542 
L 167.503171 138.17512 
L 167.638453 139.334278 
L 167.773734 139.216826 
L 167.909016 138.865637 
L 168.043452 140.243363 
L 168.31317 139.459508 
L 168.449298 140.802232 
L 168.582888 138.738851 
L 168.713097 140.399901 
L 168.846688 139.194658 
L 168.981124 139.66466 
L 169.117251 139.018285 
L 169.386124 141.037914 
L 169.52056 141.132614 
L 169.654996 140.316479 
L 169.789432 140.552161 
L 170.059996 141.602228 
L 170.328868 141.903636 
L 170.463305 142.76333 
L 170.598586 142.537954 
L 170.733023 141.894302 
L 170.868304 142.027894 
L 171.002741 141.525806 
L 171.138022 142.117538 
L 171.272459 139.641519 
L 171.40774 140.980938 
L 171.542176 139.886924 
L 171.677458 140.196499 
L 171.811894 139.696162 
L 171.948867 138.25757 
L 172.083303 138.385912 
L 172.218585 138.260293 
L 172.353021 138.432192 
L 172.488303 140.376177 
L 172.892457 138.968699 
L 173.027739 139.074289 
L 173.163021 138.788243 
L 173.297457 138.144202 
L 173.432739 138.380856 
L 173.568021 138.852219 
L 173.701611 137.684311 
L 173.836048 139.61799 
L 173.971329 138.997673 
L 174.241047 139.650853 
L 174.376329 139.515123 
L 174.510765 140.891294 
L 174.646047 139.952067 
L 174.780483 140.504324 
L 174.915765 140.298006 
L 175.050201 139.798252 
L 175.319919 140.186971 
L 175.455201 142.107816 
L 175.588792 139.064566 
L 175.723228 140.729117 
L 175.857664 140.145163 
L 175.9921 141.11978 
L 176.127382 140.250169 
L 176.263509 141.4243 
L 176.397946 141.353129 
L 176.533227 141.028191 
L 176.667664 142.819528 
L 176.938227 141.274374 
L 177.072663 141.7786 
L 177.207945 141.094307 
L 177.342381 141.251428 
L 177.477663 140.434709 
L 177.612099 141.126003 
L 177.746536 139.93865 
L 177.881817 142.811166 
L 178.016254 141.514333 
L 178.15069 142.29955 
L 178.285972 140.993189 
L 178.55569 141.763432 
L 178.690126 141.623618 
L 178.825407 140.553911 
L 178.959844 140.711421 
L 179.228716 141.980252 
L 179.363998 142.678935 
L 179.498434 142.09012 
L 179.633716 142.501785 
L 179.768152 142.223517 
L 180.038716 143.30567 
L 180.173152 142.910339 
L 180.44287 145.364384 
L 180.579843 144.556999 
L 180.715124 145.88689 
L 180.849561 145.430694 
L 181.120124 146.921011 
L 181.388997 146.363115 
L 181.524278 146.787419 
L 181.65956 146.156407 
L 181.793996 147.036908 
L 181.929278 146.764474 
L 182.067096 147.973995 
L 182.202378 147.581387 
L 182.33766 146.369532 
L 182.607378 148.008997 
L 182.87625 147.298063 
L 183.146814 147.893879 
L 183.282096 147.403459 
L 183.416532 148.514002 
L 183.551813 147.630001 
L 183.68625 147.789067 
L 183.820686 148.309433 
L 184.090404 147.864127 
L 184.225686 148.024943 
L 184.360967 148.862857 
L 184.62984 147.860432 
L 184.765122 148.721098 
L 184.900403 148.317406 
L 185.035685 148.547643 
L 185.306249 149.731107 
L 185.44153 149.076565 
L 185.575967 149.533344 
L 185.711248 149.165238 
L 185.845685 149.686576 
L 185.981812 149.4507 
L 186.25153 150.168052 
L 186.385966 149.498537 
L 186.521248 149.415309 
L 186.655684 148.266653 
L 186.790966 148.70982 
L 186.927093 147.980218 
L 187.062375 148.240401 
L 187.197657 149.031646 
L 187.332938 148.251291 
L 187.603502 150.580106 
L 187.872374 149.562902 
L 188.142092 150.717198 
L 188.277374 150.992354 
L 188.547092 152.522341 
L 188.682374 151.012189 
L 188.952092 150.799842 
L 189.22181 151.595559 
L 189.356246 150.642137 
L 189.490682 151.500081 
L 189.625964 150.051377 
L 189.7604 150.063434 
L 190.030118 150.378065 
L 190.300682 150.126049 
L 190.435118 150.315255 
L 190.569554 151.202951 
L 190.704836 151.09425 
L 190.973708 152.576205 
L 191.10899 152.852917 
L 191.243426 152.493172 
L 191.513144 153.494625 
L 191.648426 152.767745 
L 191.782017 152.950923 
L 191.916453 153.490541 
L 192.050889 152.822776 
L 192.320607 153.762197 
L 192.455043 153.821118 
L 192.590325 153.563074 
L 192.724761 153.729334 
L 192.859198 153.205079 
L 192.994479 153.708138 
L 193.128916 153.490152 
L 193.263352 152.742855 
L 193.400325 153.712611 
L 193.535606 152.640376 
L 193.670888 154.518634 
L 193.80617 154.171529 
L 193.941452 154.504439 
L 194.076733 154.489271 
L 194.210324 154.926799 
L 194.345606 154.473715 
L 194.480042 154.550914 
L 194.615324 155.183677 
L 194.74976 154.147805 
L 194.885042 155.464861 
L 195.15476 153.996323 
L 195.694196 155.874582 
L 195.963914 155.44386 
L 196.099195 156.48051 
L 196.233632 155.544394 
L 196.368913 158.112975 
L 196.50335 157.201555 
L 196.638631 157.979772 
L 196.773068 157.480601 
L 196.907504 158.28293 
L 197.042786 156.982986 
L 197.313349 157.998051 
L 197.447785 156.247161 
L 197.718349 157.454933 
L 197.988067 156.904425 
L 198.121658 156.51804 
L 198.256094 157.057463 
L 198.39053 158.23101 
L 198.524966 157.074964 
L 198.659402 157.207 
L 198.794684 157.129606 
L 199.064402 157.414097 
L 199.199684 157.485657 
L 199.33412 157.854153 
L 199.468556 157.639472 
L 199.737429 158.990947 
L 199.872711 157.942436 
L 200.007992 159.206406 
L 200.27771 156.945845 
L 200.412147 157.609137 
L 200.681019 157.584247 
L 200.815455 158.041803 
L 200.949892 157.080992 
L 201.086019 157.408263 
L 201.220455 157.222751 
L 201.354891 157.259115 
L 201.490173 155.984256 
L 201.624609 156.984931 
L 201.759045 155.811578 
L 201.893482 157.136412 
L 202.028763 156.309193 
L 202.1632 156.668355 
L 202.298481 155.728156 
L 202.432918 156.649687 
L 202.703481 155.42247 
L 202.972354 157.188332 
L 203.10679 155.73749 
L 203.241226 156.802336 
L 203.376508 156.785029 
L 203.51179 157.591636 
L 203.647071 156.993876 
L 203.781508 157.015266 
L 203.915944 156.001951 
L 204.051226 156.44998 
L 204.186507 156.483426 
L 204.320944 155.655235 
L 204.725943 156.618963 
L 204.86038 155.452805 
L 204.995661 156.378614 
L 205.130097 155.371522 
L 205.266225 157.192999 
L 205.400661 156.518818 
L 205.535097 154.970163 
L 205.670379 155.856886 
L 205.804815 154.384654 
L 205.939251 156.715997 
L 206.074533 156.207687 
L 206.209815 156.813809 
L 206.344251 155.974533 
L 206.479533 156.361891 
L 206.616506 154.495105 
L 206.750942 156.491205 
L 206.885378 155.667291 
L 207.02066 155.903945 
L 207.155096 156.577349 
L 207.289532 155.30074 
L 207.424814 155.658152 
L 207.55925 155.444249 
L 207.694532 155.483724 
L 207.829814 156.215076 
L 207.965096 155.795827 
L 208.099532 156.665632 
L 208.233968 156.777834 
L 208.36925 157.087409 
L 208.503686 156.249106 
L 208.638122 156.660188 
L 208.77425 157.482935 
L 208.910377 157.31259 
L 209.045659 157.340203 
L 209.179249 158.168395 
L 209.313685 157.513853 
L 209.583403 158.34924 
L 209.718685 157.794454 
L 209.853121 158.201453 
L 209.987558 159.775775 
L 210.122839 159.844807 
L 210.258121 159.2908 
L 210.527839 159.574707 
L 210.663121 160.133965 
L 210.798403 159.688464 
L 210.933684 160.564298 
L 211.068121 160.421955 
L 211.337839 160.729003 
L 211.472275 161.254036 
L 211.608402 161.028466 
L 211.87812 162.046059 
L 212.012556 161.505663 
L 212.147838 162.207069 
L 212.551992 161.25637 
L 213.027169 162.324521 
L 213.432169 164.06666 
L 213.701887 162.677266 
L 213.836323 163.067929 
L 214.106887 164.257811 
L 214.241323 164.371568 
L 214.376605 164.873656 
L 214.511041 165.988282 
L 214.780759 164.614834 
L 214.916041 164.866655 
L 215.051323 165.046722 
L 215.185759 164.063743 
L 215.321041 165.438942 
L 215.455477 164.662476 
L 215.590759 165.070446 
L 215.859631 164.751342 
L 215.994067 165.455276 
L 216.129349 165.34638 
L 216.265476 164.575942 
L 216.399912 165.235151 
L 216.535194 164.516633 
L 216.804912 165.627759 
L 217.073785 165.095336 
L 217.209066 166.430672 
L 217.343503 164.696117 
L 217.478784 165.619009 
L 217.882939 164.38168 
L 218.017375 164.864905 
L 218.152657 164.163694 
L 218.287093 164.527911 
L 218.421529 163.840506 
L 218.555965 164.749981 
L 218.690402 164.202002 
L 218.96012 165.615897 
L 219.229837 165.365826 
L 219.364274 165.50564 
L 219.49871 167.250891 
L 219.633992 167.326145 
L 219.769273 166.128875 
L 219.90371 167.544715 
L 220.038991 166.814335 
L 220.175964 166.841364 
L 220.311246 165.571756 
L 220.446528 165.678707 
L 220.7154 166.814918 
L 220.850682 167.089491 
L 220.985118 165.381382 
L 221.1204 166.683854 
L 221.254836 166.232326 
L 221.389272 167.200137 
L 221.524554 166.480647 
L 221.659836 166.713023 
L 221.794272 168.123418 
L 222.06399 167.325173 
L 222.199272 168.040774 
L 222.468144 167.596246 
L 222.602581 166.233881 
L 222.737017 167.068296 
L 223.006735 165.774574 
L 223.141171 165.113226 
L 223.276453 165.298155 
L 223.410889 164.71109 
L 223.680607 165.088336 
L 223.815043 166.034369 
L 224.084761 164.539384 
L 224.219197 164.965245 
L 224.488915 164.652364 
L 224.762015 163.645466 
L 224.896452 163.240413 
L 225.167015 163.560683 
L 225.301451 164.694172 
L 225.435888 163.934235 
L 225.570324 163.833312 
L 225.70476 164.318676 
L 225.974478 162.610761 
L 226.108914 162.710907 
L 226.243351 164.287757 
L 226.377787 163.572545 
L 226.781941 164.65003 
L 226.916377 165.763685 
L 227.050813 165.166313 
L 227.186095 163.916539 
L 227.455813 165.622703 
L 227.590249 164.113524 
L 227.724686 164.134914 
L 227.993558 165.400439 
L 228.12884 164.973023 
L 228.397712 166.505926 
L 228.532994 165.237484 
L 228.801867 167.924683 
L 228.937148 167.272281 
L 229.071585 168.212674 
L 229.475739 166.597321 
L 229.61102 166.552985 
L 229.879893 167.038349 
L 230.148765 166.218325 
L 230.284047 167.128966 
L 230.555456 166.128875 
L 230.689892 166.763971 
L 230.825174 166.450506 
L 230.95961 167.208693 
L 231.094047 167.27967 
L 231.229328 167.869069 
L 231.36461 169.259824 
L 231.499046 168.728763 
L 231.634328 168.868771 
L 231.768764 167.97777 
L 231.904046 168.007328 
L 232.172073 169.245045 
L 232.306509 169.318939 
L 232.440945 167.989632 
L 232.710663 169.382526 
L 232.8451 168.756959 
L 233.249254 169.495311 
L 233.518126 168.826185 
L 233.787844 168.900662 
L 233.923126 167.783897 
L 234.058408 168.745097 
L 234.192844 167.78623 
L 234.32728 167.953658 
L 234.462562 169.12526 
L 234.597844 168.506304 
L 234.73228 168.718651 
L 234.867562 168.03883 
L 235.001998 168.550251 
L 235.13728 168.096 
L 235.270871 168.871494 
L 235.405307 167.352008 
L 235.541434 168.280928 
L 235.676716 168.376018 
L 235.811998 167.228139 
L 235.946434 169.18807 
L 236.081715 168.333043 
L 236.216152 168.775627 
L 236.351433 168.152781 
L 236.487561 168.176894 
L 236.621997 169.323606 
L 236.891715 169.540036 
L 237.026997 169.910477 
L 237.161433 169.306688 
L 237.295869 169.378637 
L 237.430305 168.591087 
L 237.564742 169.01792 
L 237.700023 168.247482 
L 237.969741 169.738382 
L 238.105023 168.150253 
L 238.239459 168.257594 
L 238.512559 169.259046 
L 238.646996 168.991863 
L 238.782277 168.190895 
L 238.916714 168.841353 
L 239.05115 168.15667 
L 239.186432 168.450495 
L 239.321713 169.878197 
L 239.45615 169.198181 
L 239.591431 169.827249 
L 239.72164 168.906302 
L 239.99474 170.402453 
L 240.129176 170.39448 
L 240.264458 170.137602 
L 240.398894 170.176299 
L 240.803048 170.822285 
L 240.937485 170.894817 
L 241.072766 170.806728 
L 241.342484 172.101616 
L 241.476921 171.014797 
L 241.612202 172.530199 
L 241.746639 171.875074 
L 242.016357 172.845414 
L 242.286075 173.676717 
L 242.421356 173.831116 
L 242.555793 173.787363 
L 242.690229 172.708516 
L 242.825511 172.892083 
L 242.959947 172.649401 
L 243.094383 171.780568 
L 243.229665 172.403413 
L 243.364101 171.38057 
L 243.499383 171.62228 
L 243.633819 173.326694 
L 243.903537 171.73701 
L 244.307691 173.267191 
L 244.442127 173.067095 
L 244.576564 174.097132 
L 244.715227 173.578127 
L 244.850509 173.946234 
L 245.119382 172.351105 
L 245.253818 174.033351 
L 245.3891 172.932919 
L 245.523536 173.733887 
L 245.658818 173.718331 
L 245.92769 173.298693 
L 246.061281 174.023822 
L 246.196563 173.863201 
L 246.330999 173.189797 
L 246.466281 173.965874 
L 246.735153 172.667486 
L 246.870435 172.535644 
L 247.004871 173.449397 
L 247.273743 171.168224 
L 247.409025 172.376384 
L 247.543461 172.216151 
L 247.678743 171.270119 
L 247.948461 171.635698 
L 248.082897 171.420823 
L 248.217334 170.353449 
L 248.352615 171.703369 
L 248.487052 171.709397 
L 248.622333 172.089366 
L 248.75677 171.463215 
L 249.296206 173.061066 
L 249.565078 171.402933 
L 249.70036 171.338568 
L 249.834796 171.564527 
L 249.970078 171.177363 
L 250.104514 172.813523 
L 250.239796 172.66418 
L 250.374232 172.066031 
L 250.508668 173.894703 
L 250.64395 173.735832 
L 251.048104 174.901989 
L 251.18254 174.973744 
L 251.317822 174.321536 
L 251.451413 174.888377 
L 251.586695 173.892758 
L 251.721976 174.554495 
L 251.990849 173.950512 
L 252.260567 175.458525 
L 252.395849 174.087215 
L 252.529439 174.09091 
L 252.664721 174.535438 
L 252.799157 173.588239 
L 252.934439 173.565487 
L 253.068875 173.829754 
L 253.473875 171.063411 
L 253.742747 167.672667 
L 254.146902 171.727287 
L 254.281338 171.71737 
L 254.551056 174.322314 
L 254.685492 174.149441 
L 254.819928 173.384837 
L 254.954365 174.842874 
L 255.088801 174.994745 
L 255.224083 174.740201 
L 255.358519 175.666983 
L 255.498028 175.842772 
L 255.767746 178.072997 
L 255.902182 178.18831 
L 256.037464 177.442374 
L 256.1719 178.584419 
L 256.306337 178.047329 
L 256.441618 178.37985 
L 256.576055 177.69789 
L 256.844927 178.938524 
L 256.9819 178.431381 
L 257.117181 178.722288 
L 257.251618 178.16517 
L 257.386899 178.743095 
L 257.521336 177.491182 
L 257.656617 177.54388 
L 257.791899 177.745532 
L 257.926335 177.744171 
L 258.061617 178.087581 
L 258.196053 178.035078 
L 258.466617 179.097785 
L 258.601053 178.8236 
L 258.871617 178.121028 
L 259.006053 177.612134 
L 259.140489 178.123945 
L 259.274925 177.512767 
L 259.410207 178.605031 
L 259.544643 177.429539 
L 259.815207 178.019327 
L 259.949643 177.149327 
L 260.084079 177.042376 
L 260.219361 177.107324 
L 260.488233 176.442865 
L 260.62267 177.302948 
L 261.028515 176.392501 
L 261.162951 177.839454 
L 261.297387 177.313643 
L 261.69816 177.668527 
L 261.832596 177.629441 
L 261.967878 177.824092 
L 262.102314 178.563806 
L 262.506468 175.947 
L 262.64175 178.292733 
L 262.910622 177.096629 
L 263.045058 178.591225 
L 263.179495 177.343006 
L 263.313931 178.358265 
L 263.448367 178.326374 
L 263.582803 177.501683 
L 263.718085 179.9497 
L 263.987803 178.025938 
L 264.123085 178.049857 
L 264.257521 178.778098 
L 264.527239 178.925885 
L 264.662521 179.923448 
L 264.796957 179.120342 
L 265.066675 180.067541 
L 265.201111 181.50341 
L 265.470829 180.042261 
L 265.605266 181.071522 
L 265.740547 180.956014 
L 265.874984 181.202391 
L 266.010265 182.332769 
L 266.144702 182.077058 
L 266.279983 182.325185 
L 266.414419 183.064315 
L 266.549701 182.172536 
L 266.684137 182.319934 
L 266.954701 181.732675 
L 267.089137 182.50039 
L 267.224419 182.472194 
L 267.358855 181.5213 
L 267.494137 182.205205 
L 267.628573 182.222512 
L 267.759627 181.464519 
L 267.894064 181.606278 
L 268.032727 181.132581 
L 268.302445 181.866072 
L 268.437727 180.416785 
L 268.573009 181.208419 
L 268.702372 179.716352 
L 268.836808 181.129664 
L 269.240962 179.386942 
L 269.375399 179.905364 
L 269.51068 179.56487 
L 269.914835 170.739252 
L 270.184553 156.391448 
L 271.127297 96.999662 
L 271.532297 84.093562 
L 271.667579 81.606848 
L 271.802861 82.865372 
L 271.936451 86.199918 
L 272.340605 122.663298 
L 272.745605 158.362657 
L 273.014478 174.958965 
L 273.418632 181.275118 
L 273.553068 181.288535 
L 273.691732 180.950764 
L 273.826168 180.120822 
L 274.230322 181.241671 
L 274.364759 181.210947 
L 274.50004 180.931513 
L 274.634477 181.867822 
L 274.904195 182.154452 
L 275.038631 183.017257 
L 275.177295 181.784789 
L 275.311731 182.467527 
L 275.581449 182.006664 
L 275.716731 181.025824 
L 275.986449 182.959503 
L 276.255321 184.031932 
L 276.390603 183.847976 
L 276.525039 183.033397 
L 276.660321 184.240974 
L 277.063629 181.268701 
L 277.198066 182.177009 
L 277.333347 182.095337 
L 277.467784 182.925279 
L 277.60222 182.590229 
L 277.736656 182.6439 
L 278.006374 183.460424 
L 278.14081 182.619592 
L 278.276092 182.973309 
L 278.409683 183.643602 
L 278.544965 182.841079 
L 278.680246 184.006459 
L 278.949964 184.309617 
L 279.218837 183.606072 
L 279.354118 183.044675 
L 279.488555 184.232223 
L 279.623836 183.720802 
L 279.758273 183.762415 
L 279.892709 183.666354 
L 280.162427 182.624454 
L 280.432145 183.218714 
L 280.701863 182.319351 
L 280.836299 184.06149 
L 280.971581 182.891054 
L 281.106017 182.927418 
L 281.375735 183.827169 
L 281.510171 182.64565 
L 281.779044 183.531789 
L 281.914326 182.581673 
L 282.048762 182.614342 
L 282.184044 182.465972 
L 282.453762 181.016296 
L 282.588198 182.317212 
L 282.722634 181.339872 
L 282.992352 181.243227 
L 283.126788 181.148332 
L 283.26207 182.330046 
L 283.397352 181.114885 
L 283.531788 181.131803 
L 283.66707 182.981671 
L 283.801506 181.581193 
L 283.936788 182.372438 
L 284.071224 181.432045 
L 284.206506 182.521197 
L 284.340942 182.539282 
L 284.611505 181.479881 
L 284.745942 181.363596 
L 284.880378 180.98246 
L 285.014814 181.453824 
L 285.285378 180.812116 
L 285.555096 181.500688 
L 285.689532 180.935207 
L 285.962632 180.851396 
L 286.097068 183.0052 
L 286.23235 182.029027 
L 286.366786 182.217456 
L 286.635658 181.552413 
L 287.039813 182.465972 
L 287.175094 181.976524 
L 287.309531 183.254883 
L 287.448194 182.295044 
L 287.583476 183.332666 
L 287.718758 183.461979 
L 287.853194 182.660817 
L 287.98763 184.096103 
L 288.122067 183.396836 
L 288.256503 183.359112 
L 288.525375 182.354353 
L 288.659812 181.919742 
L 288.795093 183.483953 
L 289.064811 182.890082 
L 289.198402 182.852552 
L 289.46812 184.057406 
L 289.737838 184.435625 
L 289.87312 183.709912 
L 290.007556 182.342297 
L 290.277274 184.412679 
L 290.41171 184.427263 
L 290.546992 183.761054 
L 290.681428 183.770582 
L 290.951146 185.41841 
L 291.086428 184.93324 
L 291.220864 186.133428 
L 291.490582 185.011412 
L 291.625018 185.341405 
L 291.7603 185.094834 
L 291.894736 185.903191 
L 292.030018 185.763182 
L 292.164454 184.388566 
L 292.300582 185.997891 
L 292.435018 185.818407 
L 292.569454 186.246796 
L 292.704736 185.615589 
L 292.974454 188.068468 
L 293.244172 186.607319 
L 293.378608 187.796811 
L 293.513044 187.603327 
L 293.648326 186.958702 
L 293.782762 188.073135 
L 293.918044 187.070515 
L 294.05248 188.175613 
L 294.187762 188.248146 
L 294.317971 186.739549 
L 294.587689 187.651941 
L 294.722125 188.02102 
L 294.857407 187.77056 
L 294.991843 189.468751 
L 295.127125 188.972303 
L 295.396843 190.078762 
L 295.534661 189.219846 
L 295.665715 189.76277 
L 295.800151 189.291018 
L 295.935433 189.838608 
L 296.069869 189.214402 
L 296.205151 190.279247 
L 296.474869 189.319603 
L 296.609305 190.538264 
L 296.742896 190.632575 
L 297.012614 191.295673 
L 297.147896 191.184444 
L 297.418459 191.417014 
L 297.553741 191.178999 
L 297.823459 191.430821 
L 297.958741 191.035684 
L 298.229304 191.516382 
L 298.364586 191.932714 
L 298.499022 191.938936 
L 298.634304 192.510056 
L 298.769586 191.085077 
L 298.904022 192.644231 
L 299.038458 191.253087 
L 299.17374 192.228677 
L 299.445994 191.180555 
L 299.580431 191.983856 
L 299.714867 190.538847 
L 299.850149 190.824893 
L 299.984585 190.513762 
L 300.119021 191.10355 
L 300.254303 192.864357 
L 300.524021 190.972486 
L 300.659302 191.835485 
L 300.928175 191.201362 
L 301.062611 192.054444 
L 301.333175 191.844236 
L 301.467611 192.712486 
L 301.737329 191.380845 
L 302.006201 191.714922 
L 302.275074 192.207092 
L 302.410356 191.333398 
L 302.949792 193.659491 
L 303.084228 193.494008 
L 303.21951 192.565088 
L 303.353946 193.497314 
L 303.489228 193.253659 
L 303.624509 192.633731 
L 303.758945 193.129012 
L 304.028663 191.979967 
L 304.1631 192.879524 
L 304.432818 192.38891 
L 304.702536 192.797658 
L 304.972254 194.106936 
L 305.107535 193.931925 
L 305.241972 194.546603 
L 305.376408 194.344951 
L 305.647817 192.733293 
L 305.91838 194.722392 
L 306.052817 193.711022 
L 306.188098 195.313152 
L 306.32338 193.033923 
L 306.591407 194.575577 
L 306.726689 194.687195 
L 306.996407 192.973641 
L 307.135071 192.854245 
L 307.269507 193.159737 
L 307.404789 193.938536 
L 307.539225 193.817195 
L 307.808943 194.439263 
L 307.943379 194.400955 
L 308.078661 194.798035 
L 308.211406 194.318505 
L 308.481124 195.84188 
L 308.750842 194.515295 
L 308.885278 194.83576 
L 309.02056 194.486321 
L 309.290278 195.473384 
L 309.424714 194.879902 
L 309.559996 195.309457 
L 309.695278 195.324236 
L 309.829714 195.923357 
L 309.964996 195.544555 
L 310.099432 194.401927 
L 310.099432 194.401927 
" clip-path="url(#pe4384d913a)" style="fill: none; stroke: #1f77b4; stroke-width: 1.5; stroke-linecap: square"/>
   </g>
   <g id="patch_3">
    <path d="M 43.78125 198.8355 
L 43.78125 35.7555 
" style="fill: none; stroke: #000000; stroke-width: 0.8; stroke-linejoin: miter; stroke-linecap: square"/>
   </g>
   <g id="patch_4">
    <path d="M 322.78125 198.8355 
L 322.78125 35.7555 
" style="fill: none; stroke: #000000; stroke-width: 0.8; stroke-linejoin: miter; stroke-linecap: square"/>
   </g>
   <g id="patch_5">
    <path d="M 43.78125 198.8355 
L 322.78125 198.8355 
" style="fill: none; stroke: #000000; stroke-width: 0.8; stroke-linejoin: miter; stroke-linecap: square"/>
   </g>
   <g id="patch_6">
    <path d="M 43.78125 35.7555 
L 322.78125 35.7555 
" style="fill: none; stroke: #000000; stroke-width: 0.8; stroke-linejoin: miter; stroke-linecap: square"/>
   </g>
   <g id="text_16">
    <!-- After equalize -->
    <g transform="translate(141.814687 16.318125)scale(0.12 -0.12)">
     <defs>
      <path id="DejaVuSans-41" d="M 2188 4044 
L 1331 1722 
L 3047 1722 
L 2188 4044 
z
M 1831 4666 
L 2547 4666 
L 4325 0 
L 3669 0 
L 3244 1197 
L 1141 1197 
L 716 0 
L 50 0 
L 1831 4666 
z
" transform="scale(0.015625)"/>
      <path id="DejaVuSans-66" d="M 2375 4863 
L 2375 4384 
L 1825 4384 
Q 1516 4384 1395 4259 
Q 1275 4134 1275 3809 
L 1275 3500 
L 2222 3500 
L 2222 3053 
L 1275 3053 
L 1275 0 
L 697 0 
L 697 3053 
L 147 3053 
L 147 3500 
L 697 3500 
L 697 3744 
Q 697 4328 969 4595 
Q 1241 4863 1831 4863 
L 2375 4863 
z
" transform="scale(0.015625)"/>
      <path id="DejaVuSans-74" d="M 1172 4494 
L 1172 3500 
L 2356 3500 
L 2356 3053 
L 1172 3053 
L 1172 1153 
Q 1172 725 1289 603 
Q 1406 481 1766 481 
L 2356 481 
L 2356 0 
L 1766 0 
Q 1100 0 847 248 
Q 594 497 594 1153 
L 594 3053 
L 172 3053 
L 172 3500 
L 594 3500 
L 594 4494 
L 1172 4494 
z
" transform="scale(0.015625)"/>
      <path id="DejaVuSans-72" d="M 2631 2963 
Q 2534 3019 2420 3045 
Q 2306 3072 2169 3072 
Q 1681 3072 1420 2755 
Q 1159 2438 1159 1844 
L 1159 0 
L 581 0 
L 581 3500 
L 1159 3500 
L 1159 2956 
Q 1341 3275 1631 3429 
Q 1922 3584 2338 3584 
Q 2397 3584 2469 3576 
Q 2541 3569 2628 3553 
L 2631 2963 
z
" transform="scale(0.015625)"/>
      <path id="DejaVuSans-71" d="M 947 1747 
Q 947 1113 1208 752 
Q 1469 391 1925 391 
Q 2381 391 2643 752 
Q 2906 1113 2906 1747 
Q 2906 2381 2643 2742 
Q 2381 3103 1925 3103 
Q 1469 3103 1208 2742 
Q 947 2381 947 1747 
z
M 2906 525 
Q 2725 213 2448 61 
Q 2172 -91 1784 -91 
Q 1150 -91 751 415 
Q 353 922 353 1747 
Q 353 2572 751 3078 
Q 1150 3584 1784 3584 
Q 2172 3584 2448 3432 
Q 2725 3281 2906 2969 
L 2906 3500 
L 3481 3500 
L 3481 -1331 
L 2906 -1331 
L 2906 525 
z
" transform="scale(0.015625)"/>
      <path id="DejaVuSans-75" d="M 544 1381 
L 544 3500 
L 1119 3500 
L 1119 1403 
Q 1119 906 1312 657 
Q 1506 409 1894 409 
Q 2359 409 2629 706 
Q 2900 1003 2900 1516 
L 2900 3500 
L 3475 3500 
L 3475 0 
L 2900 0 
L 2900 538 
Q 2691 219 2414 64 
Q 2138 -91 1772 -91 
Q 1169 -91 856 284 
Q 544 659 544 1381 
z
M 1991 3584 
L 1991 3584 
z
" transform="scale(0.015625)"/>
      <path id="DejaVuSans-61" d="M 2194 1759 
Q 1497 1759 1228 1600 
Q 959 1441 959 1056 
Q 959 750 1161 570 
Q 1363 391 1709 391 
Q 2188 391 2477 730 
Q 2766 1069 2766 1631 
L 2766 1759 
L 2194 1759 
z
M 3341 1997 
L 3341 0 
L 2766 0 
L 2766 531 
Q 2569 213 2275 61 
Q 1981 -91 1556 -91 
Q 1019 -91 701 211 
Q 384 513 384 1019 
Q 384 1609 779 1909 
Q 1175 2209 1959 2209 
L 2766 2209 
L 2766 2266 
Q 2766 2663 2505 2880 
Q 2244 3097 1772 3097 
Q 1472 3097 1187 3025 
Q 903 2953 641 2809 
L 641 3341 
Q 956 3463 1253 3523 
Q 1550 3584 1831 3584 
Q 2591 3584 2966 3190 
Q 3341 2797 3341 1997 
z
" transform="scale(0.015625)"/>
      <path id="DejaVuSans-6c" d="M 603 4863 
L 1178 4863 
L 1178 0 
L 603 0 
L 603 4863 
z
" transform="scale(0.015625)"/>
      <path id="DejaVuSans-7a" d="M 353 3500 
L 3084 3500 
L 3084 2975 
L 922 459 
L 3084 459 
L 3084 0 
L 275 0 
L 275 525 
L 2438 3041 
L 353 3041 
L 353 3500 
z
" transform="scale(0.015625)"/>
     </defs>
     <use xlink:href="#DejaVuSans-41"/>
     <use xlink:href="#DejaVuSans-66" x="64.783203"/>
     <use xlink:href="#DejaVuSans-74" x="98.238281"/>
     <use xlink:href="#DejaVuSans-65" x="137.447266"/>
     <use xlink:href="#DejaVuSans-72" x="198.970703"/>
     <use xlink:href="#DejaVuSans-20" x="240.083984"/>
     <use xlink:href="#DejaVuSans-65" x="271.871094"/>
     <use xlink:href="#DejaVuSans-71" x="333.394531"/>
     <use xlink:href="#DejaVuSans-75" x="396.871094"/>
     <use xlink:href="#DejaVuSans-61" x="460.25"/>
     <use xlink:href="#DejaVuSans-6c" x="521.529297"/>
     <use xlink:href="#DejaVuSans-69" x="549.3125"/>
     <use xlink:href="#DejaVuSans-7a" x="577.095703"/>
     <use xlink:href="#DejaVuSans-65" x="629.585938"/>
    </g>
    <!-- NTR_C3_005_crop - Intensity Equalized, ROI=5 -->
    <g transform="translate(43.003125 29.7555)scale(0.12 -0.12)">
     <defs>
      <path id="DejaVuSans-4e" d="M 628 4666 
L 1478 4666 
L 3547 763 
L 3547 4666 
L 4159 4666 
L 4159 0 
L 3309 0 
L 1241 3903 
L 1241 0 
L 628 0 
L 628 4666 
z
" transform="scale(0.015625)"/>
      <path id="DejaVuSans-52" d="M 2841 2188 
Q 3044 2119 3236 1894 
Q 3428 1669 3622 1275 
L 4263 0 
L 3584 0 
L 2988 1197 
Q 2756 1666 2539 1819 
Q 2322 1972 1947 1972 
L 1259 1972 
L 1259 0 
L 628 0 
L 628 4666 
L 2053 4666 
Q 2853 4666 3247 4331 
Q 3641 3997 3641 3322 
Q 3641 2881 3436 2590 
Q 3231 2300 2841 2188 
z
M 1259 4147 
L 1259 2491 
L 2053 2491 
Q 2509 2491 2742 2702 
Q 2975 2913 2975 3322 
Q 2975 3731 2742 3939 
Q 2509 4147 2053 4147 
L 1259 4147 
z
" transform="scale(0.015625)"/>
      <path id="DejaVuSans-5f" d="M 3263 -1063 
L 3263 -1509 
L -63 -1509 
L -63 -1063 
L 3263 -1063 
z
" transform="scale(0.015625)"/>
      <path id="DejaVuSans-43" d="M 4122 4306 
L 4122 3641 
Q 3803 3938 3442 4084 
Q 3081 4231 2675 4231 
Q 1875 4231 1450 3742 
Q 1025 3253 1025 2328 
Q 1025 1406 1450 917 
Q 1875 428 2675 428 
Q 3081 428 3442 575 
Q 3803 722 4122 1019 
L 4122 359 
Q 3791 134 3420 21 
Q 3050 -91 2638 -91 
Q 1578 -91 968 557 
Q 359 1206 359 2328 
Q 359 3453 968 4101 
Q 1578 4750 2638 4750 
Q 3056 4750 3426 4639 
Q 3797 4528 4122 4306 
z
" transform="scale(0.015625)"/>
      <path id="DejaVuSans-63" d="M 3122 3366 
L 3122 2828 
Q 2878 2963 2633 3030 
Q 2388 3097 2138 3097 
Q 1578 3097 1268 2742 
Q 959 2388 959 1747 
Q 959 1106 1268 751 
Q 1578 397 2138 397 
Q 2388 397 2633 464 
Q 2878 531 3122 666 
L 3122 134 
Q 2881 22 2623 -34 
Q 2366 -91 2075 -91 
Q 1284 -91 818 406 
Q 353 903 353 1747 
Q 353 2603 823 3093 
Q 1294 3584 2113 3584 
Q 2378 3584 2631 3529 
Q 2884 3475 3122 3366 
z
" transform="scale(0.015625)"/>
      <path id="DejaVuSans-6f" d="M 1959 3097 
Q 1497 3097 1228 2736 
Q 959 2375 959 1747 
Q 959 1119 1226 758 
Q 1494 397 1959 397 
Q 2419 397 2687 759 
Q 2956 1122 2956 1747 
Q 2956 2369 2687 2733 
Q 2419 3097 1959 3097 
z
M 1959 3584 
Q 2709 3584 3137 3096 
Q 3566 2609 3566 1747 
Q 3566 888 3137 398 
Q 2709 -91 1959 -91 
Q 1206 -91 779 398 
Q 353 888 353 1747 
Q 353 2609 779 3096 
Q 1206 3584 1959 3584 
z
" transform="scale(0.015625)"/>
      <path id="DejaVuSans-70" d="M 1159 525 
L 1159 -1331 
L 581 -1331 
L 581 3500 
L 1159 3500 
L 1159 2969 
Q 1341 3281 1617 3432 
Q 1894 3584 2278 3584 
Q 2916 3584 3314 3078 
Q 3713 2572 3713 1747 
Q 3713 922 3314 415 
Q 2916 -91 2278 -91 
Q 1894 -91 1617 61 
Q 1341 213 1159 525 
z
M 3116 1747 
Q 3116 2381 2855 2742 
Q 2594 3103 2138 3103 
Q 1681 3103 1420 2742 
Q 1159 2381 1159 1747 
Q 1159 1113 1420 752 
Q 1681 391 2138 391 
Q 2594 391 2855 752 
Q 3116 1113 3116 1747 
z
" transform="scale(0.015625)"/>
      <path id="DejaVuSans-49" d="M 628 4666 
L 1259 4666 
L 1259 0 
L 628 0 
L 628 4666 
z
" transform="scale(0.015625)"/>
      <path id="DejaVuSans-6e" d="M 3513 2113 
L 3513 0 
L 2938 0 
L 2938 2094 
Q 2938 2591 2744 2837 
Q 2550 3084 2163 3084 
Q 1697 3084 1428 2787 
Q 1159 2491 1159 1978 
L 1159 0 
L 581 0 
L 581 3500 
L 1159 3500 
L 1159 2956 
Q 1366 3272 1645 3428 
Q 1925 3584 2291 3584 
Q 2894 3584 3203 3211 
Q 3513 2838 3513 2113 
z
" transform="scale(0.015625)"/>
      <path id="DejaVuSans-79" d="M 2059 -325 
Q 1816 -950 1584 -1140 
Q 1353 -1331 966 -1331 
L 506 -1331 
L 506 -850 
L 844 -850 
Q 1081 -850 1212 -737 
Q 1344 -625 1503 -206 
L 1606 56 
L 191 3500 
L 800 3500 
L 1894 763 
L 2988 3500 
L 3597 3500 
L 2059 -325 
z
" transform="scale(0.015625)"/>
      <path id="DejaVuSans-45" d="M 628 4666 
L 3578 4666 
L 3578 4134 
L 1259 4134 
L 1259 2753 
L 3481 2753 
L 3481 2222 
L 1259 2222 
L 1259 531 
L 3634 531 
L 3634 0 
L 628 0 
L 628 4666 
z
" transform="scale(0.015625)"/>
      <path id="DejaVuSans-64" d="M 2906 2969 
L 2906 4863 
L 3481 4863 
L 3481 0 
L 2906 0 
L 2906 525 
Q 2725 213 2448 61 
Q 2172 -91 1784 -91 
Q 1150 -91 751 415 
Q 353 922 353 1747 
Q 353 2572 751 3078 
Q 1150 3584 1784 3584 
Q 2172 3584 2448 3432 
Q 2725 3281 2906 2969 
z
M 947 1747 
Q 947 1113 1208 752 
Q 1469 391 1925 391 
Q 2381 391 2643 752 
Q 2906 1113 2906 1747 
Q 2906 2381 2643 2742 
Q 2381 3103 1925 3103 
Q 1469 3103 1208 2742 
Q 947 2381 947 1747 
z
" transform="scale(0.015625)"/>
      <path id="DejaVuSans-2c" d="M 750 794 
L 1409 794 
L 1409 256 
L 897 -744 
L 494 -744 
L 750 256 
L 750 794 
z
" transform="scale(0.015625)"/>
      <path id="DejaVuSans-4f" d="M 2522 4238 
Q 1834 4238 1429 3725 
Q 1025 3213 1025 2328 
Q 1025 1447 1429 934 
Q 1834 422 2522 422 
Q 3209 422 3611 934 
Q 4013 1447 4013 2328 
Q 4013 3213 3611 3725 
Q 3209 4238 2522 4238 
z
M 2522 4750 
Q 3503 4750 4090 4092 
Q 4678 3434 4678 2328 
Q 4678 1225 4090 567 
Q 3503 -91 2522 -91 
Q 1538 -91 948 565 
Q 359 1222 359 2328 
Q 359 3434 948 4092 
Q 1538 4750 2522 4750 
z
" transform="scale(0.015625)"/>
      <path id="DejaVuSans-3d" d="M 678 2906 
L 4684 2906 
L 4684 2381 
L 678 2381 
L 678 2906 
z
M 678 1631 
L 4684 1631 
L 4684 1100 
L 678 1100 
L 678 1631 
z
" transform="scale(0.015625)"/>
     </defs>
     <use xlink:href="#DejaVuSans-4e"/>
     <use xlink:href="#DejaVuSans-54" x="74.804688"/>
     <use xlink:href="#DejaVuSans-52" x="135.888672"/>
     <use xlink:href="#DejaVuSans-5f" x="205.371094"/>
     <use xlink:href="#DejaVuSans-43" x="255.371094"/>
     <use xlink:href="#DejaVuSans-33" x="325.195312"/>
     <use xlink:href="#DejaVuSans-5f" x="388.818359"/>
     <use xlink:href="#DejaVuSans-30" x="438.818359"/>
     <use xlink:href="#DejaVuSans-30" x="502.441406"/>
     <use xlink:href="#DejaVuSans-35" x="566.064453"/>
     <use xlink:href="#DejaVuSans-5f" x="629.6875"/>
     <use xlink:href="#DejaVuSans-63" x="679.6875"/>
     <use xlink:href="#DejaVuSans-72" x="734.667969"/>
     <use xlink:href="#DejaVuSans-6f" x="773.53125"/>
     <use xlink:href="#DejaVuSans-70" x="834.712891"/>
     <use xlink:href="#DejaVuSans-20" x="898.189453"/>
     <use xlink:href="#DejaVuSans-2d" x="929.976562"/>
     <use xlink:href="#DejaVuSans-20" x="966.060547"/>
     <use xlink:href="#DejaVuSans-49" x="997.847656"/>
     <use xlink:href="#DejaVuSans-6e" x="1027.339844"/>
     <use xlink:href="#DejaVuSans-74" x="1090.71875"/>
     <use xlink:href="#DejaVuSans-65" x="1129.927734"/>
     <use xlink:href="#DejaVuSans-6e" x="1191.451172"/>
     <use xlink:href="#DejaVuSans-73" x="1254.830078"/>
     <use xlink:href="#DejaVuSans-69" x="1306.929688"/>
     <use xlink:href="#DejaVuSans-74" x="1334.712891"/>
     <use xlink:href="#DejaVuSans-79" x="1373.921875"/>
     <use xlink:href="#DejaVuSans-20" x="1433.101562"/>
     <use xlink:href="#DejaVuSans-45" x="1464.888672"/>
     <use xlink:href="#DejaVuSans-71" x="1528.072266"/>
     <use xlink:href="#DejaVuSans-75" x="1591.548828"/>
     <use xlink:href="#DejaVuSans-61" x="1654.927734"/>
     <use xlink:href="#DejaVuSans-6c" x="1716.207031"/>
     <use xlink:href="#DejaVuSans-69" x="1743.990234"/>
     <use xlink:href="#DejaVuSans-7a" x="1771.773438"/>
     <use xlink:href="#DejaVuSans-65" x="1824.263672"/>
     <use xlink:href="#DejaVuSans-64" x="1885.787109"/>
     <use xlink:href="#DejaVuSans-2c" x="1949.263672"/>
     <use xlink:href="#DejaVuSans-20" x="1981.050781"/>
     <use xlink:href="#DejaVuSans-52" x="2012.837891"/>
     <use xlink:href="#DejaVuSans-4f" x="2082.320312"/>
     <use xlink:href="#DejaVuSans-49" x="2161.03125"/>
     <use xlink:href="#DejaVuSans-3d" x="2190.523438"/>
     <use xlink:href="#DejaVuSans-35" x="2274.3125"/>
    </g>
   </g>
  </g>
 </g>
 <defs>
  <clipPath id="pe4384d913a">
   <rect x="43.78125" y="35.7555" width="279" height="163.08"/>
  </clipPath>
 </defs>
</svg>
