<?xml version="1.0" encoding="utf-8" standalone="no"?>
<!DOCTYPE svg PUBLIC "-//W3C//DTD SVG 1.1//EN"
  "http://www.w3.org/Graphics/SVG/1.1/DTD/svg11.dtd">
<svg xmlns:xlink="http://www.w3.org/1999/xlink" width="334.576875pt" height="236.39175pt" viewBox="0 0 334.576875 236.39175" xmlns="http://www.w3.org/2000/svg" version="1.1">
 <metadata>
  <rdf:RDF xmlns:dc="http://purl.org/dc/elements/1.1/" xmlns:cc="http://creativecommons.org/ns#" xmlns:rdf="http://www.w3.org/1999/02/22-rdf-syntax-ns#">
   <cc:Work>
    <dc:type rdf:resource="http://purl.org/dc/dcmitype/StillImage"/>
    <dc:date>2025-01-27T16:06:41.652798</dc:date>
    <dc:format>image/svg+xml</dc:format>
    <dc:creator>
     <cc:Agent>
      <dc:title>Matplotlib v3.5.2, https://matplotlib.org/</dc:title>
     </cc:Agent>
    </dc:creator>
   </cc:Work>
  </rdf:RDF>
 </metadata>
 <defs>
  <style type="text/css">*{stroke-linejoin: round; stroke-linecap: butt}</style>
 </defs>
 <g id="figure_1">
  <g id="patch_1">
   <path d="M 0 236.39175 
L 334.576875 236.39175 
L 334.576875 0 
L 0 0 
L 0 236.39175 
z
" style="fill: none"/>
  </g>
  <g id="axes_1">
   <g id="patch_2">
    <path d="M 43.78125 198.8355 
L 322.78125 198.8355 
L 322.78125 35.7555 
L 43.78125 35.7555 
z
" style="fill: #ffffff"/>
   </g>
   <g id="matplotlib.axis_1">
    <g id="xtick_1">
     <g id="line2d_1">
      <defs>
       <path id="m245d0ac82e" d="M 0 0 
L 0 3.5 
" style="stroke: #000000; stroke-width: 0.8"/>
      </defs>
      <g>
       <use xlink:href="#m245d0ac82e" x="56.427557" y="198.8355" style="stroke: #000000; stroke-width: 0.8"/>
      </g>
     </g>
     <g id="text_1">
      <!-- 0 -->
      <g transform="translate(53.246307 213.433938)scale(0.1 -0.1)">
       <defs>
        <path id="DejaVuSans-30" d="M 2034 4250 
Q 1547 4250 1301 3770 
Q 1056 3291 1056 2328 
Q 1056 1369 1301 889 
Q 1547 409 2034 409 
Q 2525 409 2770 889 
Q 3016 1369 3016 2328 
Q 3016 3291 2770 3770 
Q 2525 4250 2034 4250 
z
M 2034 4750 
Q 2819 4750 3233 4129 
Q 3647 3509 3647 2328 
Q 3647 1150 3233 529 
Q 2819 -91 2034 -91 
Q 1250 -91 836 529 
Q 422 1150 422 2328 
Q 422 3509 836 4129 
Q 1250 4750 2034 4750 
z
" transform="scale(0.015625)"/>
       </defs>
       <use xlink:href="#DejaVuSans-30"/>
      </g>
     </g>
    </g>
    <g id="xtick_2">
     <g id="line2d_2">
      <g>
       <use xlink:href="#m245d0ac82e" x="98.703102" y="198.8355" style="stroke: #000000; stroke-width: 0.8"/>
      </g>
     </g>
     <g id="text_2">
      <!-- 50 -->
      <g transform="translate(92.340602 213.433938)scale(0.1 -0.1)">
       <defs>
        <path id="DejaVuSans-35" d="M 691 4666 
L 3169 4666 
L 3169 4134 
L 1269 4134 
L 1269 2991 
Q 1406 3038 1543 3061 
Q 1681 3084 1819 3084 
Q 2600 3084 3056 2656 
Q 3513 2228 3513 1497 
Q 3513 744 3044 326 
Q 2575 -91 1722 -91 
Q 1428 -91 1123 -41 
Q 819 9 494 109 
L 494 744 
Q 775 591 1075 516 
Q 1375 441 1709 441 
Q 2250 441 2565 725 
Q 2881 1009 2881 1497 
Q 2881 1984 2565 2268 
Q 2250 2553 1709 2553 
Q 1456 2553 1204 2497 
Q 953 2441 691 2322 
L 691 4666 
z
" transform="scale(0.015625)"/>
       </defs>
       <use xlink:href="#DejaVuSans-35"/>
       <use xlink:href="#DejaVuSans-30" x="63.623047"/>
      </g>
     </g>
    </g>
    <g id="xtick_3">
     <g id="line2d_3">
      <g>
       <use xlink:href="#m245d0ac82e" x="140.978648" y="198.8355" style="stroke: #000000; stroke-width: 0.8"/>
      </g>
     </g>
     <g id="text_3">
      <!-- 100 -->
      <g transform="translate(131.434898 213.433938)scale(0.1 -0.1)">
       <defs>
        <path id="DejaVuSans-31" d="M 794 531 
L 1825 531 
L 1825 4091 
L 703 3866 
L 703 4441 
L 1819 4666 
L 2450 4666 
L 2450 531 
L 3481 531 
L 3481 0 
L 794 0 
L 794 531 
z
" transform="scale(0.015625)"/>
       </defs>
       <use xlink:href="#DejaVuSans-31"/>
       <use xlink:href="#DejaVuSans-30" x="63.623047"/>
       <use xlink:href="#DejaVuSans-30" x="127.246094"/>
      </g>
     </g>
    </g>
    <g id="xtick_4">
     <g id="line2d_4">
      <g>
       <use xlink:href="#m245d0ac82e" x="183.254194" y="198.8355" style="stroke: #000000; stroke-width: 0.8"/>
      </g>
     </g>
     <g id="text_4">
      <!-- 150 -->
      <g transform="translate(173.710444 213.433938)scale(0.1 -0.1)">
       <use xlink:href="#DejaVuSans-31"/>
       <use xlink:href="#DejaVuSans-35" x="63.623047"/>
       <use xlink:href="#DejaVuSans-30" x="127.246094"/>
      </g>
     </g>
    </g>
    <g id="xtick_5">
     <g id="line2d_5">
      <g>
       <use xlink:href="#m245d0ac82e" x="225.529739" y="198.8355" style="stroke: #000000; stroke-width: 0.8"/>
      </g>
     </g>
     <g id="text_5">
      <!-- 200 -->
      <g transform="translate(215.985989 213.433938)scale(0.1 -0.1)">
       <defs>
        <path id="DejaVuSans-32" d="M 1228 531 
L 3431 531 
L 3431 0 
L 469 0 
L 469 531 
Q 828 903 1448 1529 
Q 2069 2156 2228 2338 
Q 2531 2678 2651 2914 
Q 2772 3150 2772 3378 
Q 2772 3750 2511 3984 
Q 2250 4219 1831 4219 
Q 1534 4219 1204 4116 
Q 875 4013 500 3803 
L 500 4441 
Q 881 4594 1212 4672 
Q 1544 4750 1819 4750 
Q 2544 4750 2975 4387 
Q 3406 4025 3406 3419 
Q 3406 3131 3298 2873 
Q 3191 2616 2906 2266 
Q 2828 2175 2409 1742 
Q 1991 1309 1228 531 
z
" transform="scale(0.015625)"/>
       </defs>
       <use xlink:href="#DejaVuSans-32"/>
       <use xlink:href="#DejaVuSans-30" x="63.623047"/>
       <use xlink:href="#DejaVuSans-30" x="127.246094"/>
      </g>
     </g>
    </g>
    <g id="xtick_6">
     <g id="line2d_6">
      <g>
       <use xlink:href="#m245d0ac82e" x="267.805285" y="198.8355" style="stroke: #000000; stroke-width: 0.8"/>
      </g>
     </g>
     <g id="text_6">
      <!-- 250 -->
      <g transform="translate(258.261535 213.433938)scale(0.1 -0.1)">
       <use xlink:href="#DejaVuSans-32"/>
       <use xlink:href="#DejaVuSans-35" x="63.623047"/>
       <use xlink:href="#DejaVuSans-30" x="127.246094"/>
      </g>
     </g>
    </g>
    <g id="xtick_7">
     <g id="line2d_7">
      <g>
       <use xlink:href="#m245d0ac82e" x="310.080831" y="198.8355" style="stroke: #000000; stroke-width: 0.8"/>
      </g>
     </g>
     <g id="text_7">
      <!-- 300 -->
      <g transform="translate(300.537081 213.433938)scale(0.1 -0.1)">
       <defs>
        <path id="DejaVuSans-33" d="M 2597 2516 
Q 3050 2419 3304 2112 
Q 3559 1806 3559 1356 
Q 3559 666 3084 287 
Q 2609 -91 1734 -91 
Q 1441 -91 1130 -33 
Q 819 25 488 141 
L 488 750 
Q 750 597 1062 519 
Q 1375 441 1716 441 
Q 2309 441 2620 675 
Q 2931 909 2931 1356 
Q 2931 1769 2642 2001 
Q 2353 2234 1838 2234 
L 1294 2234 
L 1294 2753 
L 1863 2753 
Q 2328 2753 2575 2939 
Q 2822 3125 2822 3475 
Q 2822 3834 2567 4026 
Q 2313 4219 1838 4219 
Q 1578 4219 1281 4162 
Q 984 4106 628 3988 
L 628 4550 
Q 988 4650 1302 4700 
Q 1616 4750 1894 4750 
Q 2613 4750 3031 4423 
Q 3450 4097 3450 3541 
Q 3450 3153 3228 2886 
Q 3006 2619 2597 2516 
z
" transform="scale(0.015625)"/>
       </defs>
       <use xlink:href="#DejaVuSans-33"/>
       <use xlink:href="#DejaVuSans-30" x="63.623047"/>
       <use xlink:href="#DejaVuSans-30" x="127.246094"/>
      </g>
     </g>
    </g>
    <g id="text_8">
     <!-- Time [s] -->
     <g transform="translate(162.952344 227.112063)scale(0.1 -0.1)">
      <defs>
       <path id="DejaVuSans-54" d="M -19 4666 
L 3928 4666 
L 3928 4134 
L 2272 4134 
L 2272 0 
L 1638 0 
L 1638 4134 
L -19 4134 
L -19 4666 
z
" transform="scale(0.015625)"/>
       <path id="DejaVuSans-69" d="M 603 3500 
L 1178 3500 
L 1178 0 
L 603 0 
L 603 3500 
z
M 603 4863 
L 1178 4863 
L 1178 4134 
L 603 4134 
L 603 4863 
z
" transform="scale(0.015625)"/>
       <path id="DejaVuSans-6d" d="M 3328 2828 
Q 3544 3216 3844 3400 
Q 4144 3584 4550 3584 
Q 5097 3584 5394 3201 
Q 5691 2819 5691 2113 
L 5691 0 
L 5113 0 
L 5113 2094 
Q 5113 2597 4934 2840 
Q 4756 3084 4391 3084 
Q 3944 3084 3684 2787 
Q 3425 2491 3425 1978 
L 3425 0 
L 2847 0 
L 2847 2094 
Q 2847 2600 2669 2842 
Q 2491 3084 2119 3084 
Q 1678 3084 1418 2786 
Q 1159 2488 1159 1978 
L 1159 0 
L 581 0 
L 581 3500 
L 1159 3500 
L 1159 2956 
Q 1356 3278 1631 3431 
Q 1906 3584 2284 3584 
Q 2666 3584 2933 3390 
Q 3200 3197 3328 2828 
z
" transform="scale(0.015625)"/>
       <path id="DejaVuSans-65" d="M 3597 1894 
L 3597 1613 
L 953 1613 
Q 991 1019 1311 708 
Q 1631 397 2203 397 
Q 2534 397 2845 478 
Q 3156 559 3463 722 
L 3463 178 
Q 3153 47 2828 -22 
Q 2503 -91 2169 -91 
Q 1331 -91 842 396 
Q 353 884 353 1716 
Q 353 2575 817 3079 
Q 1281 3584 2069 3584 
Q 2775 3584 3186 3129 
Q 3597 2675 3597 1894 
z
M 3022 2063 
Q 3016 2534 2758 2815 
Q 2500 3097 2075 3097 
Q 1594 3097 1305 2825 
Q 1016 2553 972 2059 
L 3022 2063 
z
" transform="scale(0.015625)"/>
       <path id="DejaVuSans-20" transform="scale(0.015625)"/>
       <path id="DejaVuSans-5b" d="M 550 4863 
L 1875 4863 
L 1875 4416 
L 1125 4416 
L 1125 -397 
L 1875 -397 
L 1875 -844 
L 550 -844 
L 550 4863 
z
" transform="scale(0.015625)"/>
       <path id="DejaVuSans-73" d="M 2834 3397 
L 2834 2853 
Q 2591 2978 2328 3040 
Q 2066 3103 1784 3103 
Q 1356 3103 1142 2972 
Q 928 2841 928 2578 
Q 928 2378 1081 2264 
Q 1234 2150 1697 2047 
L 1894 2003 
Q 2506 1872 2764 1633 
Q 3022 1394 3022 966 
Q 3022 478 2636 193 
Q 2250 -91 1575 -91 
Q 1294 -91 989 -36 
Q 684 19 347 128 
L 347 722 
Q 666 556 975 473 
Q 1284 391 1588 391 
Q 1994 391 2212 530 
Q 2431 669 2431 922 
Q 2431 1156 2273 1281 
Q 2116 1406 1581 1522 
L 1381 1569 
Q 847 1681 609 1914 
Q 372 2147 372 2553 
Q 372 3047 722 3315 
Q 1072 3584 1716 3584 
Q 2034 3584 2315 3537 
Q 2597 3491 2834 3397 
z
" transform="scale(0.015625)"/>
       <path id="DejaVuSans-5d" d="M 1947 4863 
L 1947 -844 
L 622 -844 
L 622 -397 
L 1369 -397 
L 1369 4416 
L 622 4416 
L 622 4863 
L 1947 4863 
z
" transform="scale(0.015625)"/>
      </defs>
      <use xlink:href="#DejaVuSans-54"/>
      <use xlink:href="#DejaVuSans-69" x="57.958984"/>
      <use xlink:href="#DejaVuSans-6d" x="85.742188"/>
      <use xlink:href="#DejaVuSans-65" x="183.154297"/>
      <use xlink:href="#DejaVuSans-20" x="244.677734"/>
      <use xlink:href="#DejaVuSans-5b" x="276.464844"/>
      <use xlink:href="#DejaVuSans-73" x="315.478516"/>
      <use xlink:href="#DejaVuSans-5d" x="367.578125"/>
     </g>
    </g>
   </g>
   <g id="matplotlib.axis_2">
    <g id="ytick_1">
     <g id="line2d_8">
      <defs>
       <path id="mf1d87b05ce" d="M 0 0 
L -3.5 0 
" style="stroke: #000000; stroke-width: 0.8"/>
      </defs>
      <g>
       <use xlink:href="#mf1d87b05ce" x="43.78125" y="195.923357" style="stroke: #000000; stroke-width: 0.8"/>
      </g>
     </g>
     <g id="text_9">
      <!-- 0.0 -->
      <g transform="translate(20.878125 199.722576)scale(0.1 -0.1)">
       <defs>
        <path id="DejaVuSans-2e" d="M 684 794 
L 1344 794 
L 1344 0 
L 684 0 
L 684 794 
z
" transform="scale(0.015625)"/>
       </defs>
       <use xlink:href="#DejaVuSans-30"/>
       <use xlink:href="#DejaVuSans-2e" x="63.623047"/>
       <use xlink:href="#DejaVuSans-30" x="95.410156"/>
      </g>
     </g>
    </g>
    <g id="ytick_2">
     <g id="line2d_9">
      <g>
       <use xlink:href="#mf1d87b05ce" x="43.78125" y="166.801929" style="stroke: #000000; stroke-width: 0.8"/>
      </g>
     </g>
     <g id="text_10">
      <!-- 0.2 -->
      <g transform="translate(20.878125 170.601147)scale(0.1 -0.1)">
       <use xlink:href="#DejaVuSans-30"/>
       <use xlink:href="#DejaVuSans-2e" x="63.623047"/>
       <use xlink:href="#DejaVuSans-32" x="95.410156"/>
      </g>
     </g>
    </g>
    <g id="ytick_3">
     <g id="line2d_10">
      <g>
       <use xlink:href="#mf1d87b05ce" x="43.78125" y="137.6805" style="stroke: #000000; stroke-width: 0.8"/>
      </g>
     </g>
     <g id="text_11">
      <!-- 0.4 -->
      <g transform="translate(20.878125 141.479719)scale(0.1 -0.1)">
       <defs>
        <path id="DejaVuSans-34" d="M 2419 4116 
L 825 1625 
L 2419 1625 
L 2419 4116 
z
M 2253 4666 
L 3047 4666 
L 3047 1625 
L 3713 1625 
L 3713 1100 
L 3047 1100 
L 3047 0 
L 2419 0 
L 2419 1100 
L 313 1100 
L 313 1709 
L 2253 4666 
z
" transform="scale(0.015625)"/>
       </defs>
       <use xlink:href="#DejaVuSans-30"/>
       <use xlink:href="#DejaVuSans-2e" x="63.623047"/>
       <use xlink:href="#DejaVuSans-34" x="95.410156"/>
      </g>
     </g>
    </g>
    <g id="ytick_4">
     <g id="line2d_11">
      <g>
       <use xlink:href="#mf1d87b05ce" x="43.78125" y="108.559071" style="stroke: #000000; stroke-width: 0.8"/>
      </g>
     </g>
     <g id="text_12">
      <!-- 0.6 -->
      <g transform="translate(20.878125 112.35829)scale(0.1 -0.1)">
       <defs>
        <path id="DejaVuSans-36" d="M 2113 2584 
Q 1688 2584 1439 2293 
Q 1191 2003 1191 1497 
Q 1191 994 1439 701 
Q 1688 409 2113 409 
Q 2538 409 2786 701 
Q 3034 994 3034 1497 
Q 3034 2003 2786 2293 
Q 2538 2584 2113 2584 
z
M 3366 4563 
L 3366 3988 
Q 3128 4100 2886 4159 
Q 2644 4219 2406 4219 
Q 1781 4219 1451 3797 
Q 1122 3375 1075 2522 
Q 1259 2794 1537 2939 
Q 1816 3084 2150 3084 
Q 2853 3084 3261 2657 
Q 3669 2231 3669 1497 
Q 3669 778 3244 343 
Q 2819 -91 2113 -91 
Q 1303 -91 875 529 
Q 447 1150 447 2328 
Q 447 3434 972 4092 
Q 1497 4750 2381 4750 
Q 2619 4750 2861 4703 
Q 3103 4656 3366 4563 
z
" transform="scale(0.015625)"/>
       </defs>
       <use xlink:href="#DejaVuSans-30"/>
       <use xlink:href="#DejaVuSans-2e" x="63.623047"/>
       <use xlink:href="#DejaVuSans-36" x="95.410156"/>
      </g>
     </g>
    </g>
    <g id="ytick_5">
     <g id="line2d_12">
      <g>
       <use xlink:href="#mf1d87b05ce" x="43.78125" y="79.437643" style="stroke: #000000; stroke-width: 0.8"/>
      </g>
     </g>
     <g id="text_13">
      <!-- 0.8 -->
      <g transform="translate(20.878125 83.236862)scale(0.1 -0.1)">
       <defs>
        <path id="DejaVuSans-38" d="M 2034 2216 
Q 1584 2216 1326 1975 
Q 1069 1734 1069 1313 
Q 1069 891 1326 650 
Q 1584 409 2034 409 
Q 2484 409 2743 651 
Q 3003 894 3003 1313 
Q 3003 1734 2745 1975 
Q 2488 2216 2034 2216 
z
M 1403 2484 
Q 997 2584 770 2862 
Q 544 3141 544 3541 
Q 544 4100 942 4425 
Q 1341 4750 2034 4750 
Q 2731 4750 3128 4425 
Q 3525 4100 3525 3541 
Q 3525 3141 3298 2862 
Q 3072 2584 2669 2484 
Q 3125 2378 3379 2068 
Q 3634 1759 3634 1313 
Q 3634 634 3220 271 
Q 2806 -91 2034 -91 
Q 1263 -91 848 271 
Q 434 634 434 1313 
Q 434 1759 690 2068 
Q 947 2378 1403 2484 
z
M 1172 3481 
Q 1172 3119 1398 2916 
Q 1625 2713 2034 2713 
Q 2441 2713 2670 2916 
Q 2900 3119 2900 3481 
Q 2900 3844 2670 4047 
Q 2441 4250 2034 4250 
Q 1625 4250 1398 4047 
Q 1172 3844 1172 3481 
z
" transform="scale(0.015625)"/>
       </defs>
       <use xlink:href="#DejaVuSans-30"/>
       <use xlink:href="#DejaVuSans-2e" x="63.623047"/>
       <use xlink:href="#DejaVuSans-38" x="95.410156"/>
      </g>
     </g>
    </g>
    <g id="ytick_6">
     <g id="line2d_13">
      <g>
       <use xlink:href="#mf1d87b05ce" x="43.78125" y="50.316214" style="stroke: #000000; stroke-width: 0.8"/>
      </g>
     </g>
     <g id="text_14">
      <!-- 1.0 -->
      <g transform="translate(20.878125 54.115433)scale(0.1 -0.1)">
       <use xlink:href="#DejaVuSans-31"/>
       <use xlink:href="#DejaVuSans-2e" x="63.623047"/>
       <use xlink:href="#DejaVuSans-30" x="95.410156"/>
      </g>
     </g>
    </g>
    <g id="text_15">
     <!-- (F-F$^o$)/F$^o$ -->
     <g transform="translate(14.798438 137.9955)rotate(-90)scale(0.1 -0.1)">
      <defs>
       <path id="DejaVuSans-28" d="M 1984 4856 
Q 1566 4138 1362 3434 
Q 1159 2731 1159 2009 
Q 1159 1288 1364 580 
Q 1569 -128 1984 -844 
L 1484 -844 
Q 1016 -109 783 600 
Q 550 1309 550 2009 
Q 550 2706 781 3412 
Q 1013 4119 1484 4856 
L 1984 4856 
z
" transform="scale(0.015625)"/>
       <path id="DejaVuSans-46" d="M 628 4666 
L 3309 4666 
L 3309 4134 
L 1259 4134 
L 1259 2759 
L 3109 2759 
L 3109 2228 
L 1259 2228 
L 1259 0 
L 628 0 
L 628 4666 
z
" transform="scale(0.015625)"/>
       <path id="DejaVuSans-2d" d="M 313 2009 
L 1997 2009 
L 1997 1497 
L 313 1497 
L 313 2009 
z
" transform="scale(0.015625)"/>
       <path id="DejaVuSans-Oblique-6f" d="M 1625 -91 
Q 1009 -91 651 289 
Q 294 669 294 1325 
Q 294 1706 417 2101 
Q 541 2497 738 2766 
Q 1047 3184 1428 3384 
Q 1809 3584 2291 3584 
Q 2888 3584 3255 3212 
Q 3622 2841 3622 2241 
Q 3622 1825 3500 1412 
Q 3378 1000 3181 728 
Q 2875 309 2494 109 
Q 2113 -91 1625 -91 
z
M 891 1344 
Q 891 869 1089 633 
Q 1288 397 1691 397 
Q 2269 397 2648 901 
Q 3028 1406 3028 2181 
Q 3028 2634 2825 2865 
Q 2622 3097 2228 3097 
Q 1903 3097 1650 2945 
Q 1397 2794 1197 2484 
Q 1050 2253 970 1956 
Q 891 1659 891 1344 
z
" transform="scale(0.015625)"/>
       <path id="DejaVuSans-29" d="M 513 4856 
L 1013 4856 
Q 1481 4119 1714 3412 
Q 1947 2706 1947 2009 
Q 1947 1309 1714 600 
Q 1481 -109 1013 -844 
L 513 -844 
Q 928 -128 1133 580 
Q 1338 1288 1338 2009 
Q 1338 2731 1133 3434 
Q 928 4138 513 4856 
z
" transform="scale(0.015625)"/>
       <path id="DejaVuSans-2f" d="M 1625 4666 
L 2156 4666 
L 531 -594 
L 0 -594 
L 1625 4666 
z
" transform="scale(0.015625)"/>
      </defs>
      <use xlink:href="#DejaVuSans-28" transform="translate(0 0.51875)"/>
      <use xlink:href="#DejaVuSans-46" transform="translate(39.013672 0.51875)"/>
      <use xlink:href="#DejaVuSans-2d" transform="translate(96.533203 0.51875)"/>
      <use xlink:href="#DejaVuSans-46" transform="translate(132.617188 0.51875)"/>
      <use xlink:href="#DejaVuSans-Oblique-6f" transform="translate(191.09375 38.8)scale(0.7)"/>
      <use xlink:href="#DejaVuSans-29" transform="translate(236.655273 0.51875)"/>
      <use xlink:href="#DejaVuSans-2f" transform="translate(275.668945 0.51875)"/>
      <use xlink:href="#DejaVuSans-46" transform="translate(309.360352 0.51875)"/>
      <use xlink:href="#DejaVuSans-Oblique-6f" transform="translate(367.836914 38.8)scale(0.7)"/>
     </g>
    </g>
   </g>
   <g id="line2d_14">
    <path d="M 56.463068 184.784422 
L 57.120876 185.943397 
L 57.254466 185.762796 
L 57.389748 185.844135 
L 57.658621 185.222599 
L 57.793902 185.917663 
L 57.928339 185.875844 
L 58.065311 185.284178 
L 58.200593 186.427529 
L 58.335029 186.380655 
L 58.469466 185.957643 
L 58.603902 186.309426 
L 58.874465 185.981769 
L 59.143338 186.694066 
L 59.277774 186.682347 
L 59.547492 185.530725 
L 59.951646 185.167454 
L 60.086082 185.233628 
L 60.223055 184.995813 
L 60.491928 184.258012 
L 60.627209 184.612782 
L 60.761646 184.294316 
L 60.896927 184.264446 
L 61.435518 185.024535 
L 61.705236 184.587277 
L 61.839672 185.532333 
L 61.974108 184.919758 
L 62.243826 185.655262 
L 62.378263 185.257525 
L 62.513544 185.379534 
L 62.647135 184.755471 
L 63.054671 184.47308 
L 63.189107 184.703772 
L 63.458825 184.43287 
L 63.593262 184.62519 
L 63.727698 184.220789 
L 63.862134 184.657588 
L 63.993188 184.689986 
L 64.12847 184.410582 
L 64.262906 185.604712 
L 64.397343 184.522481 
L 64.532624 186.018073 
L 64.801497 185.45444 
L 64.936779 185.494651 
L 65.071215 185.32324 
L 65.205651 185.766702 
L 65.340933 185.555081 
L 65.879523 187.796976 
L 66.013959 187.895319 
L 66.149241 187.349838 
L 66.283677 187.839024 
L 66.55255 187.647623 
L 66.687832 188.190577 
L 66.822268 188.191956 
L 67.09114 189.071986 
L 67.226422 188.951585 
L 67.49614 189.09818 
L 68.034731 189.825412 
L 68.169167 189.627118 
L 68.302757 189.13885 
L 68.707757 190.40467 
L 68.843039 190.098152 
L 68.977475 190.762886 
L 69.111911 190.635362 
L 69.516066 191.918644 
L 69.650502 191.778942 
L 69.785784 192.434944 
L 69.92022 192.411047 
L 70.055502 192.027786 
L 70.324374 193.098758 
L 70.45881 192.755017 
L 70.594092 193.172055 
L 70.729374 193.097379 
L 71.267964 194.570684 
L 71.403246 194.40249 
L 71.538528 194.449823 
L 71.672964 194.996223 
L 71.808246 194.424778 
L 72.2124 194.919019 
L 72.615709 194.960149 
L 72.75099 194.650874 
L 72.886272 195.006333 
L 73.020708 194.751285 
L 73.15599 195.384999 
L 73.425708 194.781845 
L 73.694581 195.409355 
L 73.830708 195.732416 
L 73.965144 195.487018 
L 74.100426 195.529067 
L 74.234862 195.116394 
L 74.369298 195.534581 
L 74.50458 195.298834 
L 74.639016 195.599377 
L 74.773453 195.6065 
L 75.04317 195.923357 
L 75.178452 195.313999 
L 75.312888 195.340193 
L 75.582606 195.099851 
L 75.717888 195.466339 
L 75.986761 194.83699 
L 76.122042 194.710615 
L 76.256479 194.032785 
L 76.39176 194.166053 
L 76.526197 194.032555 
L 76.660633 193.374256 
L 76.795915 193.398152 
L 76.930351 193.21755 
L 77.065633 193.852643 
L 77.200069 193.265573 
L 77.469787 193.496265 
L 77.604223 192.726755 
L 77.738659 193.41033 
L 78.008377 192.741691 
L 78.278095 192.599002 
L 78.412531 192.092122 
L 78.547813 192.186789 
L 78.682249 192.474235 
L 78.81584 191.891071 
L 79.084713 191.799162 
L 79.219149 191.747693 
L 79.354431 191.299635 
L 79.488867 191.26402 
L 79.623303 191.483913 
L 79.758585 191.139943 
L 79.893021 191.287917 
L 80.028303 190.897533 
L 80.162739 191.82122 
L 80.70133 190.90029 
L 80.970202 190.177424 
L 81.376047 189.858269 
L 81.645765 189.083015 
L 81.780201 188.915511 
L 82.049074 188.277661 
L 82.187738 188.200687 
L 82.322174 187.96494 
L 82.457456 187.223233 
L 82.726328 187.469779 
L 82.860764 187.26689 
L 82.996046 186.746454 
L 83.129637 186.904078 
L 83.264073 186.786894 
L 83.399355 186.291503 
L 83.534637 186.410296 
L 83.669073 185.760957 
L 83.803509 186.024737 
L 83.937945 185.32324 
L 84.073227 185.846893 
L 84.207663 185.627459 
L 84.479072 184.434937 
L 84.614354 184.276624 
L 84.884072 183.473108 
L 85.018508 183.13672 
L 85.152944 183.125461 
L 85.287381 182.697854 
L 85.557099 182.98484 
L 85.691535 182.239227 
L 85.826817 182.582508 
L 85.961253 182.254622 
L 86.095689 181.554963 
L 86.230971 181.463054 
L 86.364562 181.686623 
L 86.499843 181.120462 
L 86.63428 181.084158 
L 86.769561 180.822676 
L 86.903998 181.147116 
L 87.043507 180.264788 
L 87.177943 180.764774 
L 87.446816 180.178163 
L 87.582097 180.441483 
L 87.717379 180.356467 
L 88.121533 179.448864 
L 88.524842 179.769397 
L 88.793714 179.062156 
L 88.928996 179.422899 
L 89.063432 178.206711 
L 89.197869 178.685328 
L 89.33315 177.654107 
L 89.602023 178.646037 
L 89.871741 177.971883 
L 90.006177 177.900423 
L 90.14315 178.165122 
L 90.412868 177.137118 
L 90.547304 177.203522 
L 90.815331 177.998537 
L 90.950613 177.176179 
L 91.08674 177.298648 
L 91.221176 177.168367 
L 91.356458 177.392166 
L 91.490894 176.161042 
L 91.760612 177.152283 
L 91.895048 176.874947 
L 92.029485 177.4889 
L 92.434484 176.885976 
L 92.704202 177.370107 
L 92.838639 176.792458 
L 92.973075 177.055318 
L 93.241947 176.593245 
L 93.377229 176.435161 
L 93.512511 176.791539 
L 93.646102 176.008473 
L 93.781383 175.974237 
L 93.91582 176.91171 
L 94.050256 176.898383 
L 94.184692 176.452854 
L 94.455256 176.539478 
L 94.589692 176.610708 
L 94.860255 176.368986 
L 94.994692 176.999713 
L 95.398846 176.769021 
L 95.668564 177.21593 
L 95.803 176.888503 
L 95.937436 176.924807 
L 96.071872 176.75041 
L 96.34159 177.253153 
L 96.610463 177.776806 
L 96.745745 177.467072 
L 96.880181 177.904559 
L 97.149053 177.690411 
L 97.284335 177.394004 
L 97.418771 177.4287 
L 97.553208 177.164231 
L 97.687644 177.186289 
L 97.820389 176.83152 
L 98.223698 177.674327 
L 98.358979 177.398829 
L 98.493416 178.08585 
L 98.628697 176.967315 
L 98.763134 177.739123 
L 98.89757 177.801162 
L 99.032852 178.104692 
L 99.301724 177.996928 
L 99.704187 178.649713 
L 99.839469 179.419223 
L 99.973905 178.954162 
L 100.512496 179.649685 
L 100.782214 178.948878 
L 100.91665 179.042395 
L 101.051086 178.897868 
L 101.185522 179.032975 
L 101.45524 179.856481 
L 101.590522 179.674501 
L 101.724958 179.01781 
L 101.859395 179.323867 
L 101.993831 179.315136 
L 102.531576 179.936212 
L 102.666858 179.507915 
L 102.933193 180.206885 
L 103.202911 180.258124 
L 103.337348 180.013186 
L 103.472629 180.541434 
L 103.60622 180.453431 
L 103.740656 180.026053 
L 103.875093 180.091768 
L 104.009529 179.951147 
L 104.143965 179.971827 
L 104.550656 179.295375 
L 104.685092 179.296065 
L 104.819528 179.61476 
L 104.95481 179.579604 
L 105.089246 179.32065 
L 105.223683 179.821326 
L 105.628682 178.917628 
L 106.031991 179.870038 
L 106.298327 179.729416 
L 106.432763 180.065115 
L 106.834381 178.674529 
L 106.968817 178.746448 
L 107.238535 178.098028 
L 107.377199 177.929834 
L 107.512481 177.997158 
L 107.646917 178.444296 
L 107.916635 178.153174 
L 108.052762 178.935321 
L 108.187198 178.679354 
L 108.456916 177.555764 
L 108.725789 178.062413 
L 108.860225 177.885948 
L 108.994661 177.288308 
L 109.264379 178.497374 
L 110.072688 177.035558 
L 110.207969 177.300716 
L 110.342406 176.536951 
L 110.476842 176.806015 
L 110.612124 175.809259 
L 110.881842 176.120832 
L 111.154096 174.849038 
L 111.289378 174.906711 
L 111.423814 174.156502 
L 111.559096 174.458884 
L 111.693532 174.196253 
L 111.827968 174.312978 
L 111.96325 174.610304 
L 112.097686 174.096072 
L 112.23635 174.222447 
L 112.372477 173.718096 
L 112.506914 173.656516 
L 112.642195 173.404915 
L 112.911913 173.411808 
L 113.178249 172.832091 
L 113.312685 172.750751 
L 113.447122 172.231464 
L 113.582403 172.466292 
L 113.71684 172.11405 
L 113.986558 172.635635 
L 114.120994 172.028575 
L 114.25543 172.770512 
L 114.525148 172.254671 
L 114.659584 172.45802 
L 114.794866 172.029494 
L 114.929302 172.132432 
L 115.063739 171.274919 
L 115.199866 171.338566 
L 115.334302 172.022371 
L 115.468738 172.100953 
L 115.740993 170.563772 
L 115.875429 171.216787 
L 116.010711 170.668089 
L 116.145147 170.70738 
L 116.279583 171.044227 
L 116.414865 170.590196 
L 116.549301 171.325469 
L 116.683737 171.066745 
L 116.819019 171.455751 
L 117.223173 170.586519 
L 117.492891 171.190822 
L 118.166764 169.659156 
L 118.3012 170.227844 
L 118.436482 169.844582 
L 118.7062 169.845961 
L 118.975072 168.439521 
L 119.109508 168.523618 
L 119.243944 169.090008 
L 119.51789 167.940454 
L 119.652326 168.463647 
L 119.786762 168.539472 
L 120.053944 169.059448 
L 120.189226 168.242146 
L 120.323662 168.410339 
L 120.458098 168.225832 
L 120.592534 169.097361 
L 120.727816 168.724899 
L 120.996689 168.881144 
L 121.265561 168.476974 
L 121.400843 168.983164 
L 121.531897 168.536944 
L 121.666333 169.127231 
L 121.801615 168.593928 
L 121.936051 168.905041 
L 122.071333 168.717316 
L 122.205769 169.06795 
L 122.340205 169.090008 
L 122.475487 168.553948 
L 122.745205 169.054623 
L 122.879641 169.094144 
L 123.010696 169.003843 
L 123.279568 168.523158 
L 123.549286 167.999276 
L 123.683722 168.070735 
L 123.818159 167.859114 
L 123.95344 168.094402 
L 124.087877 168.029146 
L 124.222313 168.924571 
L 124.356749 168.384605 
L 124.896185 168.722601 
L 125.165057 168.922963 
L 125.43393 169.578276 
L 125.572594 169.24993 
L 125.707875 169.286004 
L 125.842312 170.107902 
L 125.977593 169.862045 
L 126.112875 170.740697 
L 126.516184 170.670387 
L 126.651466 170.600306 
L 126.785902 170.056433 
L 126.921184 171.150153 
L 127.05562 171.189674 
L 127.190056 171.473673 
L 127.324492 171.414851 
L 127.458929 172.161613 
L 127.998364 171.454602 
L 128.132801 172.172183 
L 128.267237 171.508598 
L 128.536109 172.728693 
L 128.670546 172.65034 
L 128.804982 172.349797 
L 128.939418 172.379898 
L 129.0747 172.947667 
L 129.209136 172.707784 
L 129.478854 174.040927 
L 129.747727 173.662261 
L 130.019981 173.988309 
L 130.289699 174.400292 
L 130.424135 175.103856 
L 130.693853 174.175803 
L 130.828289 174.647757 
L 130.963571 174.430162 
L 131.232444 173.631241 
L 131.503007 173.628944 
L 131.769343 175.421632 
L 131.908852 175.107303 
L 132.044134 175.19094 
L 132.313007 174.557226 
L 132.448288 174.83709 
L 132.582725 174.023694 
L 132.852443 175.573283 
L 132.986879 174.884423 
L 133.122161 175.169801 
L 133.256597 174.502311 
L 133.391879 175.032397 
L 133.661597 174.458654 
L 133.796033 174.520463 
L 133.931315 174.780566 
L 134.200187 174.451531 
L 134.335469 173.809545 
L 134.469905 174.122496 
L 134.605187 174.115833 
L 134.739623 175.149581 
L 135.009341 175.483901 
L 135.279059 174.874543 
L 135.414341 174.987821 
L 135.548777 174.276214 
L 135.818495 174.139499 
L 136.222649 172.876897 
L 136.357085 172.83278 
L 136.492367 172.412066 
L 136.625958 172.414364 
L 136.76124 172.647813 
L 136.895676 172.520978 
L 137.030112 172.923541 
L 137.164548 172.768903 
L 137.298985 173.037967 
L 137.434266 172.981214 
L 138.112366 170.262769 
L 138.246802 169.838608 
L 138.650956 170.901998 
L 138.785393 170.983797 
L 139.055111 170.625121 
L 139.323983 171.336499 
L 139.862574 170.048391 
L 139.997855 170.131799 
L 140.266728 169.691783 
L 140.40201 170.340203 
L 140.537291 170.257944 
L 140.671728 170.00887 
L 140.807009 170.198203 
L 141.076727 170.952548 
L 141.212009 171.137975 
L 141.346445 170.764364 
L 141.480881 170.754713 
L 141.616163 170.482203 
L 141.885036 171.404282 
L 142.019472 171.277906 
L 142.153908 171.68966 
L 142.28919 170.91969 
L 142.423626 171.535252 
L 142.692499 171.043078 
L 142.826935 170.966104 
L 143.097498 169.950967 
L 143.23278 170.469795 
L 143.367216 170.27242 
L 143.502498 170.83881 
L 143.636934 169.794952 
L 143.772216 170.615241 
L 144.041934 169.397214 
L 144.446934 170.379264 
L 144.58137 169.749227 
L 144.850242 169.919488 
L 144.985524 169.153196 
L 145.11996 169.134124 
L 145.255242 168.618054 
L 145.390524 168.769245 
L 145.52496 168.556475 
L 145.794678 168.811293 
L 145.929114 168.813132 
L 146.064396 168.947319 
L 146.198832 169.862275 
L 146.469396 169.57345 
L 146.603832 169.666508 
L 146.738268 170.196595 
L 147.142423 169.207192 
L 147.277704 169.145843 
L 147.412141 168.836568 
L 147.547422 169.461091 
L 147.681859 169.5337 
L 147.951577 168.726737 
L 148.086858 168.85564 
L 148.221294 169.817929 
L 148.355731 169.094374 
L 148.630522 169.505667 
L 148.764958 168.918368 
L 148.899394 169.160089 
L 149.168267 168.67343 
L 149.303548 169.012345 
L 149.437985 168.791303 
L 149.573266 169.331729 
L 149.708548 169.180768 
L 149.842984 169.631353 
L 149.977421 168.930316 
L 150.380729 171.498259 
L 150.516011 171.02079 
L 150.650447 171.445181 
L 150.785729 170.971619 
L 151.054602 171.239994 
L 151.189883 170.862017 
L 151.325165 171.626242 
L 151.459601 171.535712 
L 151.594038 170.971159 
L 151.863756 171.898293 
L 151.999037 171.838093 
L 152.132628 171.526291 
L 152.26791 171.645313 
L 152.402346 172.452965 
L 152.672064 172.333024 
L 152.807346 171.760889 
L 152.941782 171.829821 
L 153.210654 172.811411 
L 153.346782 173.052673 
L 153.481218 173.754859 
L 153.6165 173.466264 
L 153.750936 173.545076 
L 153.885372 173.061634 
L 154.020654 173.313006 
L 154.155936 172.698363 
L 154.290372 173.397792 
L 154.424808 172.898266 
L 154.56009 173.408362 
L 154.694526 172.975699 
L 154.964244 173.526924 
L 155.369244 173.153084 
L 155.638962 173.769105 
L 155.773398 174.589624 
L 155.90868 173.412268 
L 156.043961 173.239478 
L 156.312834 172.341296 
L 156.582552 173.498203 
L 156.851424 174.166612 
L 157.121142 175.094895 
L 157.255579 175.468047 
L 157.525297 175.283998 
L 157.931142 175.963437 
L 158.065578 175.874285 
L 158.20086 175.639917 
L 158.335296 175.786972 
L 158.469732 176.496281 
L 158.874732 175.097653 
L 159.009168 175.662664 
L 159.278886 175.228853 
L 159.414168 175.186804 
L 159.548604 174.870867 
L 159.68304 175.088921 
L 159.817477 174.590084 
L 159.952758 175.007582 
L 160.087195 174.666598 
L 160.356913 175.146135 
L 160.626631 174.058389 
L 160.895503 174.399602 
L 161.300503 174.01749 
L 161.434939 173.373206 
L 161.569375 173.289799 
L 161.839093 173.812073 
L 161.974375 173.61194 
L 162.243247 172.784068 
L 162.381911 173.040955 
L 162.517193 172.369328 
L 162.651629 172.623687 
L 162.918811 171.889103 
L 163.457401 169.401121 
L 163.592683 168.950536 
L 163.996837 166.938643 
L 164.132119 167.716195 
L 164.267401 167.53927 
L 164.403528 168.256621 
L 164.6724 167.087536 
L 165.076555 165.811607 
L 165.346273 165.538866 
L 165.481554 165.265207 
L 165.61599 165.68684 
L 165.751272 164.992696 
L 165.885708 165.219022 
L 166.02099 165.159052 
L 166.155426 164.562101 
L 166.290708 164.661363 
L 166.425144 164.606907 
L 166.694862 165.006712 
L 166.830144 164.055682 
L 167.099017 164.727768 
L 167.233453 164.906761 
L 167.773734 163.562589 
L 168.043452 162.56951 
L 168.582888 163.206211 
L 168.846688 162.161433 
L 168.981124 162.952542 
L 169.117251 162.68141 
L 169.251687 163.062833 
L 169.52056 162.31676 
L 169.654996 162.527921 
L 169.789432 162.470248 
L 169.924714 162.264372 
L 170.059996 162.50908 
L 170.194432 163.030205 
L 170.463305 162.637982 
L 170.733023 163.507443 
L 170.868304 163.484926 
L 171.002741 163.597974 
L 171.138022 162.663258 
L 171.272459 162.635685 
L 171.677458 163.433916 
L 172.083303 162.796985 
L 172.218585 163.879905 
L 172.353021 163.698615 
L 172.488303 164.008578 
L 172.757176 163.139807 
L 173.027739 163.465395 
L 173.568021 163.971815 
L 173.836048 164.125763 
L 173.971329 164.612881 
L 174.105766 164.570833 
L 174.241047 164.284536 
L 174.376329 164.474788 
L 174.510765 163.808676 
L 174.646047 163.779265 
L 174.780483 164.672852 
L 175.050201 164.164594 
L 175.319919 164.782684 
L 175.455201 165.038191 
L 175.588792 165.590565 
L 175.857664 165.006253 
L 175.9921 165.136993 
L 176.127382 165.602514 
L 176.263509 166.812268 
L 176.667664 164.711913 
L 176.802945 165.247744 
L 177.072663 165.306566 
L 177.207945 166.205897 
L 177.342381 165.96027 
L 177.612099 166.225428 
L 177.881817 165.369064 
L 178.285972 166.789291 
L 178.959844 168.933762 
L 179.228716 167.237808 
L 179.498434 166.773437 
L 179.768152 166.512644 
L 180.038716 166.893608 
L 180.173152 166.646372 
L 180.44287 167.853829 
L 180.579843 167.116258 
L 180.715124 167.374982 
L 180.849561 166.519767 
L 181.120124 167.36763 
L 181.25456 167.096957 
L 181.388997 167.192772 
L 181.65956 168.229049 
L 181.793996 168.193893 
L 181.929278 167.245161 
L 182.067096 167.307889 
L 182.202378 167.215979 
L 182.33766 166.758272 
L 182.87625 168.26857 
L 183.146814 166.600418 
L 183.282096 166.474962 
L 183.551813 166.80032 
L 183.68625 166.280803 
L 183.820686 166.544353 
L 183.955122 166.110542 
L 184.090404 166.315499 
L 184.225686 165.462812 
L 184.495404 166.169364 
L 184.62984 167.139925 
L 184.765122 167.138316 
L 185.035685 166.119273 
L 185.170967 166.807673 
L 185.306249 166.483004 
L 185.44153 165.675581 
L 185.711248 165.432941 
L 186.385966 166.303551 
L 186.521248 166.38558 
L 186.655684 166.22336 
L 186.790966 166.287237 
L 187.062375 167.735956 
L 187.197657 167.406461 
L 187.332938 167.598781 
L 187.737093 166.768382 
L 187.872374 167.195759 
L 188.00681 167.229766 
L 188.142092 166.964148 
L 188.277374 166.945996 
L 188.412656 166.803307 
L 188.682374 168.305103 
L 188.81681 167.616933 
L 188.952092 167.823959 
L 189.086528 167.593726 
L 189.22181 168.485475 
L 189.356246 168.445495 
L 189.490682 168.120826 
L 189.7604 168.201476 
L 189.895682 168.452847 
L 190.030118 167.840962 
L 190.300682 168.297291 
L 190.704836 167.188866 
L 190.839272 167.422545 
L 190.973708 167.085239 
L 191.10899 167.71114 
L 191.243426 167.73159 
L 191.377863 167.507102 
L 191.513144 166.736903 
L 191.648426 167.224022 
L 191.782017 167.175539 
L 192.185325 165.576549 
L 192.320607 165.366307 
L 192.455043 166.194409 
L 192.724761 165.916383 
L 192.859198 165.052897 
L 192.994479 165.318744 
L 193.263352 164.142766 
L 193.400325 164.466056 
L 193.80617 162.932322 
L 193.941452 163.944242 
L 194.076733 164.07728 
L 194.480042 162.31676 
L 194.74976 163.182085 
L 194.885042 163.438512 
L 195.15476 162.12467 
L 195.289196 162.126048 
L 195.558914 160.787161 
L 195.694196 161.608599 
L 195.829477 161.676383 
L 195.963914 161.373542 
L 196.099195 161.723486 
L 196.233632 160.991889 
L 196.50335 158.832023 
L 196.773068 158.476794 
L 197.447785 155.41323 
L 197.583067 155.802466 
L 197.988067 153.899026 
L 198.121658 153.857897 
L 198.39053 152.826446 
L 198.524966 153.05576 
L 198.659402 154.053664 
L 198.794684 153.78414 
L 198.92912 153.891903 
L 199.064402 154.26942 
L 199.199684 154.26023 
L 199.33412 153.657075 
L 199.468556 153.746457 
L 200.007992 151.024566 
L 200.142429 150.896123 
L 200.681019 152.277289 
L 200.815455 151.441145 
L 200.949892 152.157347 
L 201.086019 152.145629 
L 201.220455 152.262353 
L 201.354891 152.101512 
L 201.624609 153.348261 
L 201.893482 151.288116 
L 202.028763 151.822338 
L 202.298481 153.690393 
L 202.432918 154.090198 
L 202.703481 153.320918 
L 202.837917 152.854708 
L 202.972354 152.978326 
L 203.10679 152.91376 
L 203.51179 154.75539 
L 203.647071 154.75562 
L 203.781508 155.220451 
L 203.915944 154.811455 
L 204.051226 155.009519 
L 204.186507 154.166023 
L 204.320944 154.105133 
L 204.456225 154.248971 
L 204.591507 153.373076 
L 204.995661 154.244605 
L 205.130097 155.410473 
L 205.266225 154.905432 
L 205.400661 155.370033 
L 205.535097 154.973445 
L 205.670379 154.109039 
L 205.939251 154.844083 
L 206.074533 155.823605 
L 206.209815 155.821997 
L 206.344251 155.398755 
L 206.750942 156.504882 
L 206.885378 156.863328 
L 207.02066 156.682726 
L 207.155096 156.718801 
L 207.289532 156.185268 
L 207.424814 157.040253 
L 207.55925 156.960292 
L 207.694532 157.179036 
L 207.829814 157.114699 
L 208.099532 157.743358 
L 208.233968 157.552187 
L 208.36925 157.638582 
L 208.503686 158.148218 
L 208.638122 158.122024 
L 208.910377 158.805599 
L 209.045659 158.182454 
L 209.179249 159.631862 
L 209.313685 159.074663 
L 209.448122 159.301908 
L 209.583403 159.848309 
L 209.853121 159.287433 
L 209.987558 159.197821 
L 210.258121 159.954923 
L 210.393403 159.845781 
L 210.527839 159.985024 
L 210.663121 159.5735 
L 210.933684 159.465966 
L 211.068121 160.12059 
L 211.203402 159.582691 
L 211.337839 160.252479 
L 211.472275 159.272268 
L 211.608402 159.212986 
L 212.012556 160.077392 
L 212.147838 159.762603 
L 212.28312 160.084745 
L 212.551992 159.34051 
L 212.758297 159.586367 
L 212.892733 159.571202 
L 213.027169 159.855432 
L 213.162451 159.400941 
L 213.432169 159.970088 
L 213.566605 159.802354 
L 213.836323 159.935163 
L 214.106887 159.382099 
L 214.376605 156.371843 
L 214.646323 154.845691 
L 214.916041 154.582371 
L 215.051323 155.43391 
L 215.321041 154.448414 
L 215.455477 155.220451 
L 215.590759 155.30248 
L 216.129349 157.343323 
L 216.265476 156.478688 
L 216.399912 156.578409 
L 216.804912 157.828604 
L 216.939348 157.298977 
L 217.073785 157.420757 
L 217.209066 157.274392 
L 217.613221 159.817979 
L 217.882939 158.960006 
L 218.017375 158.615117 
L 218.152657 159.211608 
L 218.421529 161.037614 
L 218.555965 161.090921 
L 218.690402 160.870339 
L 218.96012 161.484522 
L 219.094556 161.13274 
L 219.364274 162.804568 
L 220.038991 166.454971 
L 220.175964 166.287697 
L 220.311246 166.330205 
L 220.446528 167.786736 
L 220.580964 167.07398 
L 220.7154 168.283275 
L 220.850682 167.955619 
L 220.985118 168.340718 
L 221.254836 166.305389 
L 221.389272 166.313201 
L 221.524554 165.951998 
L 221.659836 166.45681 
L 221.794272 167.707004 
L 221.929554 167.322594 
L 222.06399 167.828325 
L 222.199272 168.772002 
L 222.333708 168.478812 
L 222.737017 170.417407 
L 222.872298 170.754713 
L 223.006735 171.500097 
L 223.276453 170.055744 
L 223.680607 169.088629 
L 223.815043 169.221438 
L 224.084761 170.539416 
L 224.219197 171.28434 
L 224.488915 171.268945 
L 224.626734 170.551594 
L 224.762015 171.349596 
L 224.896452 170.143517 
L 225.031733 170.538497 
L 225.167015 172.077516 
L 225.301451 172.23537 
L 225.435888 173.168708 
L 225.570324 172.975239 
L 225.70476 172.41758 
L 225.840042 172.512706 
L 226.108914 174.240829 
L 226.243351 174.018868 
L 226.377787 173.121835 
L 226.512223 173.40951 
L 226.646659 172.612658 
L 226.781941 173.6533 
L 226.916377 173.697646 
L 227.050813 174.223596 
L 227.186095 174.05793 
L 227.320531 173.520031 
L 227.590249 174.800097 
L 227.724686 174.801935 
L 227.859122 173.668005 
L 227.993558 173.710053 
L 228.12884 173.619753 
L 228.262431 173.781283 
L 228.397712 174.69509 
L 228.66743 173.87595 
L 228.801867 174.203606 
L 228.937148 175.269293 
L 229.206866 175.757101 
L 229.341302 176.601287 
L 229.475739 176.063388 
L 229.745457 177.325991 
L 229.879893 176.923658 
L 230.014329 178.006808 
L 230.148765 177.641929 
L 230.284047 177.915359 
L 230.418483 177.880433 
L 230.555456 178.20763 
L 230.689892 177.976708 
L 230.825174 178.168569 
L 230.95961 177.642159 
L 231.094047 177.744637 
L 231.229328 178.006349 
L 231.36461 177.39814 
L 231.768764 177.305082 
L 231.904046 177.621709 
L 232.037637 177.320247 
L 232.172073 177.885488 
L 232.306509 176.913548 
L 232.440945 177.006836 
L 232.576227 177.659851 
L 232.710663 176.923658 
L 232.8451 177.644916 
L 232.980381 177.000403 
L 233.249254 176.967545 
L 233.38369 177.169975 
L 233.518126 176.654824 
L 233.653408 176.884367 
L 233.787844 176.758452 
L 233.923126 177.094839 
L 234.462562 175.773415 
L 234.597844 176.300744 
L 234.73228 176.269954 
L 234.867562 175.790648 
L 235.001998 176.180113 
L 235.270871 175.641985 
L 235.541434 175.213228 
L 235.676716 174.889248 
L 235.811998 174.988051 
L 235.946434 175.227934 
L 236.351433 174.75598 
L 236.487561 174.376855 
L 236.757279 174.985064 
L 236.891715 174.719906 
L 237.026997 174.875003 
L 237.161433 175.297325 
L 237.295869 175.072607 
L 237.430305 175.409684 
L 237.700023 174.636498 
L 237.835305 174.774132 
L 237.969741 174.420971 
L 238.105023 175.033776 
L 238.239459 175.022747 
L 238.512559 174.664071 
L 238.646996 175.07031 
L 238.782277 174.499553 
L 239.05115 171.202771 
L 239.321713 169.977851 
L 239.45615 170.404539 
L 239.591431 170.399484 
L 239.72164 171.044457 
L 239.859458 170.851218 
L 240.129176 171.31444 
L 240.264458 172.364503 
L 240.667767 171.180712 
L 240.803048 171.275609 
L 241.207203 173.503947 
L 241.476921 171.47666 
L 241.612202 171.767782 
L 241.88192 173.412497 
L 242.016357 171.822468 
L 242.151638 172.967197 
L 242.286075 172.00307 
L 242.421356 172.153571 
L 242.555793 171.680469 
L 242.825511 173.204323 
L 242.959947 173.316912 
L 243.229665 174.839617 
L 243.364101 174.429473 
L 243.633819 173.219258 
L 243.769101 174.287013 
L 243.903537 173.782662 
L 244.037973 173.75394 
L 244.173255 172.982133 
L 244.307691 173.568743 
L 244.576564 173.619753 
L 244.850509 174.709336 
L 245.119382 173.364015 
L 245.253818 174.372259 
L 245.3891 174.223366 
L 245.523536 175.326966 
L 245.792408 173.24798 
L 245.92769 173.40974 
L 246.196563 172.225031 
L 246.330999 173.361488 
L 246.466281 173.550821 
L 246.599871 174.727488 
L 246.870435 171.836255 
L 247.273743 173.611711 
L 247.543461 173.352756 
L 247.814025 174.319182 
L 247.948461 172.780852 
L 248.082897 172.662059 
L 248.217334 171.41577 
L 248.487052 172.523965 
L 248.75677 172.354852 
L 248.892051 171.095237 
L 249.161769 171.726423 
L 249.296206 171.890481 
L 249.430642 172.400807 
L 249.565078 172.320386 
L 249.70036 172.754198 
L 249.834796 172.611509 
L 249.970078 172.99477 
L 250.104514 171.804546 
L 250.239796 171.852109 
L 250.508668 171.659559 
L 250.64395 172.512017 
L 250.912822 172.622768 
L 251.18254 173.228679 
L 251.317822 172.639082 
L 251.451413 172.702958 
L 251.586695 173.496824 
L 251.721976 172.8638 
L 251.856413 172.93388 
L 251.990849 173.173534 
L 252.126131 172.804059 
L 252.664721 173.042333 
L 252.799157 171.893698 
L 252.934439 171.928853 
L 253.068875 171.756753 
L 253.204157 172.098656 
L 253.608311 171.208515 
L 253.877184 171.855326 
L 254.012465 171.863138 
L 254.281338 171.413472 
L 254.551056 171.132001 
L 254.685492 170.682105 
L 255.088801 171.058703 
L 255.224083 170.404999 
L 255.358519 170.632934 
L 255.63331 169.605619 
L 256.306337 168.955361 
L 256.441618 169.344137 
L 256.576055 168.945711 
L 256.710491 169.05784 
L 256.9819 169.620094 
L 257.117181 169.664211 
L 257.656617 169.066341 
L 257.791899 169.241428 
L 257.926335 168.719384 
L 258.196053 168.844381 
L 258.331335 168.455145 
L 258.466617 169.048879 
L 258.601053 168.933992 
L 258.871617 168.019496 
L 259.006053 168.113473 
L 259.140489 168.52109 
L 259.274925 167.962512 
L 259.544643 164.369092 
L 259.679925 163.710793 
L 259.815207 163.645307 
L 260.219361 164.365646 
L 260.488233 165.36286 
L 260.757951 165.896163 
L 260.893233 165.094026 
L 261.028515 163.562589 
L 261.162951 163.714239 
L 261.297387 163.394395 
L 261.431824 162.671759 
L 261.567105 163.287321 
L 261.69816 162.824788 
L 261.832596 163.178409 
L 262.102314 164.15839 
L 262.23675 163.555006 
L 262.371186 163.515486 
L 262.506468 162.340197 
L 262.776186 161.997605 
L 262.910622 162.236799 
L 263.045058 162.792849 
L 263.179495 162.796526 
L 263.313931 163.36935 
L 263.448367 163.317651 
L 263.718085 163.973423 
L 263.852521 163.677705 
L 264.123085 164.757868 
L 264.391957 164.503509 
L 264.662521 163.572929 
L 264.796957 164.094054 
L 264.931393 164.023514 
L 265.066675 164.202966 
L 265.335548 163.580971 
L 265.470829 163.734459 
L 265.605266 163.649213 
L 265.874984 164.086242 
L 266.010265 162.672219 
L 266.144702 164.176313 
L 266.414419 163.479411 
L 266.819419 163.054101 
L 266.954701 163.094312 
L 267.089137 163.629453 
L 267.358855 163.16646 
L 267.494137 162.777225 
L 267.894064 159.332698 
L 268.032727 158.696686 
L 268.167164 158.698984 
L 268.302445 158.896129 
L 268.437727 160.04959 
L 268.702372 158.883722 
L 269.106526 161.067944 
L 269.375399 160.921578 
L 269.645962 159.297543 
L 269.780398 159.315925 
L 269.914835 159.093504 
L 270.049271 158.599263 
L 270.588707 160.596449 
L 270.723143 159.566147 
L 270.858425 157.410877 
L 271.127297 159.349701 
L 271.261734 159.622212 
L 271.532297 157.338039 
L 271.802861 158.140866 
L 272.070887 159.92758 
L 272.205324 160.634822 
L 272.340605 160.152988 
L 272.610323 161.576201 
L 272.745605 161.762777 
L 273.014478 161.282552 
L 273.28335 161.697751 
L 273.418632 161.80023 
L 273.553068 161.599179 
L 273.691732 161.615263 
L 273.826168 162.052291 
L 273.960604 161.904088 
L 274.230322 162.214511 
L 274.364759 161.726703 
L 274.634477 162.30688 
L 274.768913 162.091353 
L 275.311731 163.021933 
L 275.447013 162.816976 
L 275.581449 162.9445 
L 275.716731 162.906817 
L 275.851167 163.455285 
L 275.986449 163.37946 
L 276.12173 163.792362 
L 276.255321 163.527893 
L 276.525039 164.64459 
L 276.660321 164.010876 
L 276.930039 164.879188 
L 277.063629 164.72524 
L 277.198066 165.179042 
L 277.333347 165.016363 
L 277.60222 165.466488 
L 277.736656 165.003725 
L 278.006374 166.017943 
L 278.409683 165.437307 
L 278.544965 165.690976 
L 278.680246 165.469245 
L 278.814683 164.925832 
L 279.084401 166.192111 
L 279.218837 165.843086 
L 279.488555 166.473583 
L 279.623836 166.095836 
L 279.892709 162.041032 
L 280.027991 161.125387 
L 280.162427 161.126995 
L 280.296863 161.661907 
L 280.432145 160.991199 
L 280.701863 163.048357 
L 280.836299 163.489981 
L 281.106017 162.532287 
L 281.241299 163.326842 
L 281.510171 163.026069 
L 281.644608 162.246449 
L 281.914326 162.158676 
L 282.048762 162.278847 
L 282.453762 163.649903 
L 282.588198 162.001971 
L 282.722634 162.100084 
L 282.857916 162.653147 
L 282.992352 161.868013 
L 283.126788 161.77036 
L 283.531788 163.040775 
L 283.936788 161.032329 
L 284.071224 161.416969 
L 284.206506 161.22327 
L 284.476224 163.040085 
L 284.880378 163.987439 
L 285.014814 163.306622 
L 285.150096 163.706197 
L 285.285378 163.11591 
L 285.420659 163.321557 
L 285.555096 163.251936 
L 285.689532 162.715186 
L 285.824814 162.991144 
L 285.962632 162.426591 
L 286.097068 162.544005 
L 286.23235 162.309637 
L 286.366786 162.390057 
L 286.501222 162.71105 
L 286.635658 162.557102 
L 286.905376 161.828952 
L 287.175094 162.503106 
L 287.309531 162.249207 
L 287.448194 162.391666 
L 287.583476 161.7097 
L 287.853194 162.02357 
L 288.122067 161.443622 
L 288.390939 162.101692 
L 288.525375 161.843427 
L 288.659812 161.859512 
L 288.795093 161.723486 
L 288.92953 161.41536 
L 289.064811 161.686263 
L 289.198402 161.320694 
L 289.333684 162.096178 
L 289.46812 161.519677 
L 289.603402 162.006107 
L 289.737838 161.500376 
L 289.87312 161.908453 
L 290.007556 160.669058 
L 290.142838 160.683763 
L 290.277274 161.512554 
L 290.41171 161.477399 
L 290.546992 161.979223 
L 290.681428 161.925227 
L 290.815864 161.711538 
L 290.951146 162.535733 
L 291.086428 162.596853 
L 291.220864 161.978994 
L 291.3553 162.25564 
L 291.490582 163.161635 
L 291.625018 162.760911 
L 291.7603 162.796985 
L 291.894736 163.064211 
L 292.030018 162.730121 
L 292.569454 159.052605 
L 292.704736 158.989877 
L 292.974454 160.470534 
L 293.10889 161.175018 
L 293.244172 162.587432 
L 293.378608 162.348698 
L 293.513044 162.605125 
L 293.648326 163.549722 
L 293.782762 163.230797 
L 293.918044 164.253516 
L 294.05248 163.828436 
L 294.317971 162.135469 
L 294.722125 161.685114 
L 294.857407 162.64051 
L 294.991843 162.726215 
L 295.396843 164.878039 
L 295.935433 166.136736 
L 296.069869 165.806092 
L 296.339587 166.846505 
L 296.742896 167.449888 
L 296.877332 167.140384 
L 297.012614 167.810402 
L 297.147896 167.284222 
L 297.283177 168.554407 
L 297.418459 168.154372 
L 297.553741 168.478582 
L 297.689023 168.473068 
L 297.823459 168.637815 
L 297.958741 168.010994 
L 298.093177 169.215464 
L 298.229304 168.273395 
L 298.499022 169.093455 
L 298.634304 168.967309 
L 298.769586 169.546107 
L 298.904022 169.432829 
L 299.17374 169.901107 
L 299.445994 169.625609 
L 299.580431 169.913744 
L 299.714867 169.567246 
L 299.850149 169.613661 
L 299.984585 168.950766 
L 300.119021 169.328742 
L 300.254303 169.233846 
L 300.524021 169.697758 
L 300.793739 169.519454 
L 300.928175 169.96889 
L 301.197893 169.890307 
L 301.467611 170.083317 
L 301.602893 169.856071 
L 301.737329 170.187863 
L 301.871765 169.403189 
L 302.006201 169.292898 
L 302.140638 169.349651 
L 302.275074 170.062637 
L 302.410356 169.521751 
L 302.545637 169.549094 
L 302.680919 169.701434 
L 302.81451 169.557366 
L 302.949792 170.024495 
L 303.084228 169.06795 
L 303.353946 165.477977 
L 303.624509 164.855981 
L 304.028663 166.883038 
L 304.297536 165.399624 
L 304.432818 164.684341 
L 304.972254 167.669092 
L 305.107535 168.38966 
L 305.783099 164.895043 
L 305.91838 166.128004 
L 306.052817 166.206587 
L 306.188098 166.994019 
L 306.457816 165.880998 
L 306.861125 167.734118 
L 307.135071 168.213654 
L 307.269507 168.433547 
L 307.673661 168.244214 
L 307.808943 168.257081 
L 307.943379 169.063584 
L 308.078661 168.72329 
L 308.211406 168.964092 
L 308.346688 168.834041 
L 308.481124 168.009156 
L 308.750842 168.821633 
L 309.02056 168.783031 
L 309.290278 168.540621 
L 309.424714 168.833352 
L 309.964996 168.60243 
L 310.099432 169.267163 
L 310.099432 169.267163 
" clip-path="url(#p07fb6d0846)" style="fill: none; stroke: #1f77b4; stroke-width: 1.5; stroke-linecap: square"/>
   </g>
   <g id="patch_3">
    <path d="M 43.78125 198.8355 
L 43.78125 35.7555 
" style="fill: none; stroke: #000000; stroke-width: 0.8; stroke-linejoin: miter; stroke-linecap: square"/>
   </g>
   <g id="patch_4">
    <path d="M 322.78125 198.8355 
L 322.78125 35.7555 
" style="fill: none; stroke: #000000; stroke-width: 0.8; stroke-linejoin: miter; stroke-linecap: square"/>
   </g>
   <g id="patch_5">
    <path d="M 43.78125 198.8355 
L 322.78125 198.8355 
" style="fill: none; stroke: #000000; stroke-width: 0.8; stroke-linejoin: miter; stroke-linecap: square"/>
   </g>
   <g id="patch_6">
    <path d="M 43.78125 35.7555 
L 322.78125 35.7555 
" style="fill: none; stroke: #000000; stroke-width: 0.8; stroke-linejoin: miter; stroke-linecap: square"/>
   </g>
   <g id="text_16">
    <!-- After equalize -->
    <g transform="translate(141.814687 16.318125)scale(0.12 -0.12)">
     <defs>
      <path id="DejaVuSans-41" d="M 2188 4044 
L 1331 1722 
L 3047 1722 
L 2188 4044 
z
M 1831 4666 
L 2547 4666 
L 4325 0 
L 3669 0 
L 3244 1197 
L 1141 1197 
L 716 0 
L 50 0 
L 1831 4666 
z
" transform="scale(0.015625)"/>
      <path id="DejaVuSans-66" d="M 2375 4863 
L 2375 4384 
L 1825 4384 
Q 1516 4384 1395 4259 
Q 1275 4134 1275 3809 
L 1275 3500 
L 2222 3500 
L 2222 3053 
L 1275 3053 
L 1275 0 
L 697 0 
L 697 3053 
L 147 3053 
L 147 3500 
L 697 3500 
L 697 3744 
Q 697 4328 969 4595 
Q 1241 4863 1831 4863 
L 2375 4863 
z
" transform="scale(0.015625)"/>
      <path id="DejaVuSans-74" d="M 1172 4494 
L 1172 3500 
L 2356 3500 
L 2356 3053 
L 1172 3053 
L 1172 1153 
Q 1172 725 1289 603 
Q 1406 481 1766 481 
L 2356 481 
L 2356 0 
L 1766 0 
Q 1100 0 847 248 
Q 594 497 594 1153 
L 594 3053 
L 172 3053 
L 172 3500 
L 594 3500 
L 594 4494 
L 1172 4494 
z
" transform="scale(0.015625)"/>
      <path id="DejaVuSans-72" d="M 2631 2963 
Q 2534 3019 2420 3045 
Q 2306 3072 2169 3072 
Q 1681 3072 1420 2755 
Q 1159 2438 1159 1844 
L 1159 0 
L 581 0 
L 581 3500 
L 1159 3500 
L 1159 2956 
Q 1341 3275 1631 3429 
Q 1922 3584 2338 3584 
Q 2397 3584 2469 3576 
Q 2541 3569 2628 3553 
L 2631 2963 
z
" transform="scale(0.015625)"/>
      <path id="DejaVuSans-71" d="M 947 1747 
Q 947 1113 1208 752 
Q 1469 391 1925 391 
Q 2381 391 2643 752 
Q 2906 1113 2906 1747 
Q 2906 2381 2643 2742 
Q 2381 3103 1925 3103 
Q 1469 3103 1208 2742 
Q 947 2381 947 1747 
z
M 2906 525 
Q 2725 213 2448 61 
Q 2172 -91 1784 -91 
Q 1150 -91 751 415 
Q 353 922 353 1747 
Q 353 2572 751 3078 
Q 1150 3584 1784 3584 
Q 2172 3584 2448 3432 
Q 2725 3281 2906 2969 
L 2906 3500 
L 3481 3500 
L 3481 -1331 
L 2906 -1331 
L 2906 525 
z
" transform="scale(0.015625)"/>
      <path id="DejaVuSans-75" d="M 544 1381 
L 544 3500 
L 1119 3500 
L 1119 1403 
Q 1119 906 1312 657 
Q 1506 409 1894 409 
Q 2359 409 2629 706 
Q 2900 1003 2900 1516 
L 2900 3500 
L 3475 3500 
L 3475 0 
L 2900 0 
L 2900 538 
Q 2691 219 2414 64 
Q 2138 -91 1772 -91 
Q 1169 -91 856 284 
Q 544 659 544 1381 
z
M 1991 3584 
L 1991 3584 
z
" transform="scale(0.015625)"/>
      <path id="DejaVuSans-61" d="M 2194 1759 
Q 1497 1759 1228 1600 
Q 959 1441 959 1056 
Q 959 750 1161 570 
Q 1363 391 1709 391 
Q 2188 391 2477 730 
Q 2766 1069 2766 1631 
L 2766 1759 
L 2194 1759 
z
M 3341 1997 
L 3341 0 
L 2766 0 
L 2766 531 
Q 2569 213 2275 61 
Q 1981 -91 1556 -91 
Q 1019 -91 701 211 
Q 384 513 384 1019 
Q 384 1609 779 1909 
Q 1175 2209 1959 2209 
L 2766 2209 
L 2766 2266 
Q 2766 2663 2505 2880 
Q 2244 3097 1772 3097 
Q 1472 3097 1187 3025 
Q 903 2953 641 2809 
L 641 3341 
Q 956 3463 1253 3523 
Q 1550 3584 1831 3584 
Q 2591 3584 2966 3190 
Q 3341 2797 3341 1997 
z
" transform="scale(0.015625)"/>
      <path id="DejaVuSans-6c" d="M 603 4863 
L 1178 4863 
L 1178 0 
L 603 0 
L 603 4863 
z
" transform="scale(0.015625)"/>
      <path id="DejaVuSans-7a" d="M 353 3500 
L 3084 3500 
L 3084 2975 
L 922 459 
L 3084 459 
L 3084 0 
L 275 0 
L 275 525 
L 2438 3041 
L 353 3041 
L 353 3500 
z
" transform="scale(0.015625)"/>
     </defs>
     <use xlink:href="#DejaVuSans-41"/>
     <use xlink:href="#DejaVuSans-66" x="64.783203"/>
     <use xlink:href="#DejaVuSans-74" x="98.238281"/>
     <use xlink:href="#DejaVuSans-65" x="137.447266"/>
     <use xlink:href="#DejaVuSans-72" x="198.970703"/>
     <use xlink:href="#DejaVuSans-20" x="240.083984"/>
     <use xlink:href="#DejaVuSans-65" x="271.871094"/>
     <use xlink:href="#DejaVuSans-71" x="333.394531"/>
     <use xlink:href="#DejaVuSans-75" x="396.871094"/>
     <use xlink:href="#DejaVuSans-61" x="460.25"/>
     <use xlink:href="#DejaVuSans-6c" x="521.529297"/>
     <use xlink:href="#DejaVuSans-69" x="549.3125"/>
     <use xlink:href="#DejaVuSans-7a" x="577.095703"/>
     <use xlink:href="#DejaVuSans-65" x="629.585938"/>
    </g>
    <!-- NTR_C3_005_crop - Intensity Equalized, ROI=11 -->
    <g transform="translate(39.185625 29.7555)scale(0.12 -0.12)">
     <defs>
      <path id="DejaVuSans-4e" d="M 628 4666 
L 1478 4666 
L 3547 763 
L 3547 4666 
L 4159 4666 
L 4159 0 
L 3309 0 
L 1241 3903 
L 1241 0 
L 628 0 
L 628 4666 
z
" transform="scale(0.015625)"/>
      <path id="DejaVuSans-52" d="M 2841 2188 
Q 3044 2119 3236 1894 
Q 3428 1669 3622 1275 
L 4263 0 
L 3584 0 
L 2988 1197 
Q 2756 1666 2539 1819 
Q 2322 1972 1947 1972 
L 1259 1972 
L 1259 0 
L 628 0 
L 628 4666 
L 2053 4666 
Q 2853 4666 3247 4331 
Q 3641 3997 3641 3322 
Q 3641 2881 3436 2590 
Q 3231 2300 2841 2188 
z
M 1259 4147 
L 1259 2491 
L 2053 2491 
Q 2509 2491 2742 2702 
Q 2975 2913 2975 3322 
Q 2975 3731 2742 3939 
Q 2509 4147 2053 4147 
L 1259 4147 
z
" transform="scale(0.015625)"/>
      <path id="DejaVuSans-5f" d="M 3263 -1063 
L 3263 -1509 
L -63 -1509 
L -63 -1063 
L 3263 -1063 
z
" transform="scale(0.015625)"/>
      <path id="DejaVuSans-43" d="M 4122 4306 
L 4122 3641 
Q 3803 3938 3442 4084 
Q 3081 4231 2675 4231 
Q 1875 4231 1450 3742 
Q 1025 3253 1025 2328 
Q 1025 1406 1450 917 
Q 1875 428 2675 428 
Q 3081 428 3442 575 
Q 3803 722 4122 1019 
L 4122 359 
Q 3791 134 3420 21 
Q 3050 -91 2638 -91 
Q 1578 -91 968 557 
Q 359 1206 359 2328 
Q 359 3453 968 4101 
Q 1578 4750 2638 4750 
Q 3056 4750 3426 4639 
Q 3797 4528 4122 4306 
z
" transform="scale(0.015625)"/>
      <path id="DejaVuSans-63" d="M 3122 3366 
L 3122 2828 
Q 2878 2963 2633 3030 
Q 2388 3097 2138 3097 
Q 1578 3097 1268 2742 
Q 959 2388 959 1747 
Q 959 1106 1268 751 
Q 1578 397 2138 397 
Q 2388 397 2633 464 
Q 2878 531 3122 666 
L 3122 134 
Q 2881 22 2623 -34 
Q 2366 -91 2075 -91 
Q 1284 -91 818 406 
Q 353 903 353 1747 
Q 353 2603 823 3093 
Q 1294 3584 2113 3584 
Q 2378 3584 2631 3529 
Q 2884 3475 3122 3366 
z
" transform="scale(0.015625)"/>
      <path id="DejaVuSans-6f" d="M 1959 3097 
Q 1497 3097 1228 2736 
Q 959 2375 959 1747 
Q 959 1119 1226 758 
Q 1494 397 1959 397 
Q 2419 397 2687 759 
Q 2956 1122 2956 1747 
Q 2956 2369 2687 2733 
Q 2419 3097 1959 3097 
z
M 1959 3584 
Q 2709 3584 3137 3096 
Q 3566 2609 3566 1747 
Q 3566 888 3137 398 
Q 2709 -91 1959 -91 
Q 1206 -91 779 398 
Q 353 888 353 1747 
Q 353 2609 779 3096 
Q 1206 3584 1959 3584 
z
" transform="scale(0.015625)"/>
      <path id="DejaVuSans-70" d="M 1159 525 
L 1159 -1331 
L 581 -1331 
L 581 3500 
L 1159 3500 
L 1159 2969 
Q 1341 3281 1617 3432 
Q 1894 3584 2278 3584 
Q 2916 3584 3314 3078 
Q 3713 2572 3713 1747 
Q 3713 922 3314 415 
Q 2916 -91 2278 -91 
Q 1894 -91 1617 61 
Q 1341 213 1159 525 
z
M 3116 1747 
Q 3116 2381 2855 2742 
Q 2594 3103 2138 3103 
Q 1681 3103 1420 2742 
Q 1159 2381 1159 1747 
Q 1159 1113 1420 752 
Q 1681 391 2138 391 
Q 2594 391 2855 752 
Q 3116 1113 3116 1747 
z
" transform="scale(0.015625)"/>
      <path id="DejaVuSans-49" d="M 628 4666 
L 1259 4666 
L 1259 0 
L 628 0 
L 628 4666 
z
" transform="scale(0.015625)"/>
      <path id="DejaVuSans-6e" d="M 3513 2113 
L 3513 0 
L 2938 0 
L 2938 2094 
Q 2938 2591 2744 2837 
Q 2550 3084 2163 3084 
Q 1697 3084 1428 2787 
Q 1159 2491 1159 1978 
L 1159 0 
L 581 0 
L 581 3500 
L 1159 3500 
L 1159 2956 
Q 1366 3272 1645 3428 
Q 1925 3584 2291 3584 
Q 2894 3584 3203 3211 
Q 3513 2838 3513 2113 
z
" transform="scale(0.015625)"/>
      <path id="DejaVuSans-79" d="M 2059 -325 
Q 1816 -950 1584 -1140 
Q 1353 -1331 966 -1331 
L 506 -1331 
L 506 -850 
L 844 -850 
Q 1081 -850 1212 -737 
Q 1344 -625 1503 -206 
L 1606 56 
L 191 3500 
L 800 3500 
L 1894 763 
L 2988 3500 
L 3597 3500 
L 2059 -325 
z
" transform="scale(0.015625)"/>
      <path id="DejaVuSans-45" d="M 628 4666 
L 3578 4666 
L 3578 4134 
L 1259 4134 
L 1259 2753 
L 3481 2753 
L 3481 2222 
L 1259 2222 
L 1259 531 
L 3634 531 
L 3634 0 
L 628 0 
L 628 4666 
z
" transform="scale(0.015625)"/>
      <path id="DejaVuSans-64" d="M 2906 2969 
L 2906 4863 
L 3481 4863 
L 3481 0 
L 2906 0 
L 2906 525 
Q 2725 213 2448 61 
Q 2172 -91 1784 -91 
Q 1150 -91 751 415 
Q 353 922 353 1747 
Q 353 2572 751 3078 
Q 1150 3584 1784 3584 
Q 2172 3584 2448 3432 
Q 2725 3281 2906 2969 
z
M 947 1747 
Q 947 1113 1208 752 
Q 1469 391 1925 391 
Q 2381 391 2643 752 
Q 2906 1113 2906 1747 
Q 2906 2381 2643 2742 
Q 2381 3103 1925 3103 
Q 1469 3103 1208 2742 
Q 947 2381 947 1747 
z
" transform="scale(0.015625)"/>
      <path id="DejaVuSans-2c" d="M 750 794 
L 1409 794 
L 1409 256 
L 897 -744 
L 494 -744 
L 750 256 
L 750 794 
z
" transform="scale(0.015625)"/>
      <path id="DejaVuSans-4f" d="M 2522 4238 
Q 1834 4238 1429 3725 
Q 1025 3213 1025 2328 
Q 1025 1447 1429 934 
Q 1834 422 2522 422 
Q 3209 422 3611 934 
Q 4013 1447 4013 2328 
Q 4013 3213 3611 3725 
Q 3209 4238 2522 4238 
z
M 2522 4750 
Q 3503 4750 4090 4092 
Q 4678 3434 4678 2328 
Q 4678 1225 4090 567 
Q 3503 -91 2522 -91 
Q 1538 -91 948 565 
Q 359 1222 359 2328 
Q 359 3434 948 4092 
Q 1538 4750 2522 4750 
z
" transform="scale(0.015625)"/>
      <path id="DejaVuSans-3d" d="M 678 2906 
L 4684 2906 
L 4684 2381 
L 678 2381 
L 678 2906 
z
M 678 1631 
L 4684 1631 
L 4684 1100 
L 678 1100 
L 678 1631 
z
" transform="scale(0.015625)"/>
     </defs>
     <use xlink:href="#DejaVuSans-4e"/>
     <use xlink:href="#DejaVuSans-54" x="74.804688"/>
     <use xlink:href="#DejaVuSans-52" x="135.888672"/>
     <use xlink:href="#DejaVuSans-5f" x="205.371094"/>
     <use xlink:href="#DejaVuSans-43" x="255.371094"/>
     <use xlink:href="#DejaVuSans-33" x="325.195312"/>
     <use xlink:href="#DejaVuSans-5f" x="388.818359"/>
     <use xlink:href="#DejaVuSans-30" x="438.818359"/>
     <use xlink:href="#DejaVuSans-30" x="502.441406"/>
     <use xlink:href="#DejaVuSans-35" x="566.064453"/>
     <use xlink:href="#DejaVuSans-5f" x="629.6875"/>
     <use xlink:href="#DejaVuSans-63" x="679.6875"/>
     <use xlink:href="#DejaVuSans-72" x="734.667969"/>
     <use xlink:href="#DejaVuSans-6f" x="773.53125"/>
     <use xlink:href="#DejaVuSans-70" x="834.712891"/>
     <use xlink:href="#DejaVuSans-20" x="898.189453"/>
     <use xlink:href="#DejaVuSans-2d" x="929.976562"/>
     <use xlink:href="#DejaVuSans-20" x="966.060547"/>
     <use xlink:href="#DejaVuSans-49" x="997.847656"/>
     <use xlink:href="#DejaVuSans-6e" x="1027.339844"/>
     <use xlink:href="#DejaVuSans-74" x="1090.71875"/>
     <use xlink:href="#DejaVuSans-65" x="1129.927734"/>
     <use xlink:href="#DejaVuSans-6e" x="1191.451172"/>
     <use xlink:href="#DejaVuSans-73" x="1254.830078"/>
     <use xlink:href="#DejaVuSans-69" x="1306.929688"/>
     <use xlink:href="#DejaVuSans-74" x="1334.712891"/>
     <use xlink:href="#DejaVuSans-79" x="1373.921875"/>
     <use xlink:href="#DejaVuSans-20" x="1433.101562"/>
     <use xlink:href="#DejaVuSans-45" x="1464.888672"/>
     <use xlink:href="#DejaVuSans-71" x="1528.072266"/>
     <use xlink:href="#DejaVuSans-75" x="1591.548828"/>
     <use xlink:href="#DejaVuSans-61" x="1654.927734"/>
     <use xlink:href="#DejaVuSans-6c" x="1716.207031"/>
     <use xlink:href="#DejaVuSans-69" x="1743.990234"/>
     <use xlink:href="#DejaVuSans-7a" x="1771.773438"/>
     <use xlink:href="#DejaVuSans-65" x="1824.263672"/>
     <use xlink:href="#DejaVuSans-64" x="1885.787109"/>
     <use xlink:href="#DejaVuSans-2c" x="1949.263672"/>
     <use xlink:href="#DejaVuSans-20" x="1981.050781"/>
     <use xlink:href="#DejaVuSans-52" x="2012.837891"/>
     <use xlink:href="#DejaVuSans-4f" x="2082.320312"/>
     <use xlink:href="#DejaVuSans-49" x="2161.03125"/>
     <use xlink:href="#DejaVuSans-3d" x="2190.523438"/>
     <use xlink:href="#DejaVuSans-31" x="2274.3125"/>
     <use xlink:href="#DejaVuSans-31" x="2337.935547"/>
    </g>
   </g>
  </g>
 </g>
 <defs>
  <clipPath id="p07fb6d0846">
   <rect x="43.78125" y="35.7555" width="279" height="163.08"/>
  </clipPath>
 </defs>
</svg>
