<?xml version="1.0" encoding="utf-8" standalone="no"?>
<!DOCTYPE svg PUBLIC "-//W3C//DTD SVG 1.1//EN"
  "http://www.w3.org/Graphics/SVG/1.1/DTD/svg11.dtd">
<svg xmlns:xlink="http://www.w3.org/1999/xlink" width="334.576875pt" height="236.39175pt" viewBox="0 0 334.576875 236.39175" xmlns="http://www.w3.org/2000/svg" version="1.1">
 <metadata>
  <rdf:RDF xmlns:dc="http://purl.org/dc/elements/1.1/" xmlns:cc="http://creativecommons.org/ns#" xmlns:rdf="http://www.w3.org/1999/02/22-rdf-syntax-ns#">
   <cc:Work>
    <dc:type rdf:resource="http://purl.org/dc/dcmitype/StillImage"/>
    <dc:date>2025-01-27T16:06:41.554862</dc:date>
    <dc:format>image/svg+xml</dc:format>
    <dc:creator>
     <cc:Agent>
      <dc:title>Matplotlib v3.5.2, https://matplotlib.org/</dc:title>
     </cc:Agent>
    </dc:creator>
   </cc:Work>
  </rdf:RDF>
 </metadata>
 <defs>
  <style type="text/css">*{stroke-linejoin: round; stroke-linecap: butt}</style>
 </defs>
 <g id="figure_1">
  <g id="patch_1">
   <path d="M 0 236.39175 
L 334.576875 236.39175 
L 334.576875 0 
L 0 0 
L 0 236.39175 
z
" style="fill: none"/>
  </g>
  <g id="axes_1">
   <g id="patch_2">
    <path d="M 43.78125 198.8355 
L 322.78125 198.8355 
L 322.78125 35.7555 
L 43.78125 35.7555 
z
" style="fill: #ffffff"/>
   </g>
   <g id="matplotlib.axis_1">
    <g id="xtick_1">
     <g id="line2d_1">
      <defs>
       <path id="m6c85b0440d" d="M 0 0 
L 0 3.5 
" style="stroke: #000000; stroke-width: 0.8"/>
      </defs>
      <g>
       <use xlink:href="#m6c85b0440d" x="56.427557" y="198.8355" style="stroke: #000000; stroke-width: 0.8"/>
      </g>
     </g>
     <g id="text_1">
      <!-- 0 -->
      <g transform="translate(53.246307 213.433938)scale(0.1 -0.1)">
       <defs>
        <path id="DejaVuSans-30" d="M 2034 4250 
Q 1547 4250 1301 3770 
Q 1056 3291 1056 2328 
Q 1056 1369 1301 889 
Q 1547 409 2034 409 
Q 2525 409 2770 889 
Q 3016 1369 3016 2328 
Q 3016 3291 2770 3770 
Q 2525 4250 2034 4250 
z
M 2034 4750 
Q 2819 4750 3233 4129 
Q 3647 3509 3647 2328 
Q 3647 1150 3233 529 
Q 2819 -91 2034 -91 
Q 1250 -91 836 529 
Q 422 1150 422 2328 
Q 422 3509 836 4129 
Q 1250 4750 2034 4750 
z
" transform="scale(0.015625)"/>
       </defs>
       <use xlink:href="#DejaVuSans-30"/>
      </g>
     </g>
    </g>
    <g id="xtick_2">
     <g id="line2d_2">
      <g>
       <use xlink:href="#m6c85b0440d" x="98.703102" y="198.8355" style="stroke: #000000; stroke-width: 0.8"/>
      </g>
     </g>
     <g id="text_2">
      <!-- 50 -->
      <g transform="translate(92.340602 213.433938)scale(0.1 -0.1)">
       <defs>
        <path id="DejaVuSans-35" d="M 691 4666 
L 3169 4666 
L 3169 4134 
L 1269 4134 
L 1269 2991 
Q 1406 3038 1543 3061 
Q 1681 3084 1819 3084 
Q 2600 3084 3056 2656 
Q 3513 2228 3513 1497 
Q 3513 744 3044 326 
Q 2575 -91 1722 -91 
Q 1428 -91 1123 -41 
Q 819 9 494 109 
L 494 744 
Q 775 591 1075 516 
Q 1375 441 1709 441 
Q 2250 441 2565 725 
Q 2881 1009 2881 1497 
Q 2881 1984 2565 2268 
Q 2250 2553 1709 2553 
Q 1456 2553 1204 2497 
Q 953 2441 691 2322 
L 691 4666 
z
" transform="scale(0.015625)"/>
       </defs>
       <use xlink:href="#DejaVuSans-35"/>
       <use xlink:href="#DejaVuSans-30" x="63.623047"/>
      </g>
     </g>
    </g>
    <g id="xtick_3">
     <g id="line2d_3">
      <g>
       <use xlink:href="#m6c85b0440d" x="140.978648" y="198.8355" style="stroke: #000000; stroke-width: 0.8"/>
      </g>
     </g>
     <g id="text_3">
      <!-- 100 -->
      <g transform="translate(131.434898 213.433938)scale(0.1 -0.1)">
       <defs>
        <path id="DejaVuSans-31" d="M 794 531 
L 1825 531 
L 1825 4091 
L 703 3866 
L 703 4441 
L 1819 4666 
L 2450 4666 
L 2450 531 
L 3481 531 
L 3481 0 
L 794 0 
L 794 531 
z
" transform="scale(0.015625)"/>
       </defs>
       <use xlink:href="#DejaVuSans-31"/>
       <use xlink:href="#DejaVuSans-30" x="63.623047"/>
       <use xlink:href="#DejaVuSans-30" x="127.246094"/>
      </g>
     </g>
    </g>
    <g id="xtick_4">
     <g id="line2d_4">
      <g>
       <use xlink:href="#m6c85b0440d" x="183.254194" y="198.8355" style="stroke: #000000; stroke-width: 0.8"/>
      </g>
     </g>
     <g id="text_4">
      <!-- 150 -->
      <g transform="translate(173.710444 213.433938)scale(0.1 -0.1)">
       <use xlink:href="#DejaVuSans-31"/>
       <use xlink:href="#DejaVuSans-35" x="63.623047"/>
       <use xlink:href="#DejaVuSans-30" x="127.246094"/>
      </g>
     </g>
    </g>
    <g id="xtick_5">
     <g id="line2d_5">
      <g>
       <use xlink:href="#m6c85b0440d" x="225.529739" y="198.8355" style="stroke: #000000; stroke-width: 0.8"/>
      </g>
     </g>
     <g id="text_5">
      <!-- 200 -->
      <g transform="translate(215.985989 213.433938)scale(0.1 -0.1)">
       <defs>
        <path id="DejaVuSans-32" d="M 1228 531 
L 3431 531 
L 3431 0 
L 469 0 
L 469 531 
Q 828 903 1448 1529 
Q 2069 2156 2228 2338 
Q 2531 2678 2651 2914 
Q 2772 3150 2772 3378 
Q 2772 3750 2511 3984 
Q 2250 4219 1831 4219 
Q 1534 4219 1204 4116 
Q 875 4013 500 3803 
L 500 4441 
Q 881 4594 1212 4672 
Q 1544 4750 1819 4750 
Q 2544 4750 2975 4387 
Q 3406 4025 3406 3419 
Q 3406 3131 3298 2873 
Q 3191 2616 2906 2266 
Q 2828 2175 2409 1742 
Q 1991 1309 1228 531 
z
" transform="scale(0.015625)"/>
       </defs>
       <use xlink:href="#DejaVuSans-32"/>
       <use xlink:href="#DejaVuSans-30" x="63.623047"/>
       <use xlink:href="#DejaVuSans-30" x="127.246094"/>
      </g>
     </g>
    </g>
    <g id="xtick_6">
     <g id="line2d_6">
      <g>
       <use xlink:href="#m6c85b0440d" x="267.805285" y="198.8355" style="stroke: #000000; stroke-width: 0.8"/>
      </g>
     </g>
     <g id="text_6">
      <!-- 250 -->
      <g transform="translate(258.261535 213.433938)scale(0.1 -0.1)">
       <use xlink:href="#DejaVuSans-32"/>
       <use xlink:href="#DejaVuSans-35" x="63.623047"/>
       <use xlink:href="#DejaVuSans-30" x="127.246094"/>
      </g>
     </g>
    </g>
    <g id="xtick_7">
     <g id="line2d_7">
      <g>
       <use xlink:href="#m6c85b0440d" x="310.080831" y="198.8355" style="stroke: #000000; stroke-width: 0.8"/>
      </g>
     </g>
     <g id="text_7">
      <!-- 300 -->
      <g transform="translate(300.537081 213.433938)scale(0.1 -0.1)">
       <defs>
        <path id="DejaVuSans-33" d="M 2597 2516 
Q 3050 2419 3304 2112 
Q 3559 1806 3559 1356 
Q 3559 666 3084 287 
Q 2609 -91 1734 -91 
Q 1441 -91 1130 -33 
Q 819 25 488 141 
L 488 750 
Q 750 597 1062 519 
Q 1375 441 1716 441 
Q 2309 441 2620 675 
Q 2931 909 2931 1356 
Q 2931 1769 2642 2001 
Q 2353 2234 1838 2234 
L 1294 2234 
L 1294 2753 
L 1863 2753 
Q 2328 2753 2575 2939 
Q 2822 3125 2822 3475 
Q 2822 3834 2567 4026 
Q 2313 4219 1838 4219 
Q 1578 4219 1281 4162 
Q 984 4106 628 3988 
L 628 4550 
Q 988 4650 1302 4700 
Q 1616 4750 1894 4750 
Q 2613 4750 3031 4423 
Q 3450 4097 3450 3541 
Q 3450 3153 3228 2886 
Q 3006 2619 2597 2516 
z
" transform="scale(0.015625)"/>
       </defs>
       <use xlink:href="#DejaVuSans-33"/>
       <use xlink:href="#DejaVuSans-30" x="63.623047"/>
       <use xlink:href="#DejaVuSans-30" x="127.246094"/>
      </g>
     </g>
    </g>
    <g id="text_8">
     <!-- Time [s] -->
     <g transform="translate(162.952344 227.112063)scale(0.1 -0.1)">
      <defs>
       <path id="DejaVuSans-54" d="M -19 4666 
L 3928 4666 
L 3928 4134 
L 2272 4134 
L 2272 0 
L 1638 0 
L 1638 4134 
L -19 4134 
L -19 4666 
z
" transform="scale(0.015625)"/>
       <path id="DejaVuSans-69" d="M 603 3500 
L 1178 3500 
L 1178 0 
L 603 0 
L 603 3500 
z
M 603 4863 
L 1178 4863 
L 1178 4134 
L 603 4134 
L 603 4863 
z
" transform="scale(0.015625)"/>
       <path id="DejaVuSans-6d" d="M 3328 2828 
Q 3544 3216 3844 3400 
Q 4144 3584 4550 3584 
Q 5097 3584 5394 3201 
Q 5691 2819 5691 2113 
L 5691 0 
L 5113 0 
L 5113 2094 
Q 5113 2597 4934 2840 
Q 4756 3084 4391 3084 
Q 3944 3084 3684 2787 
Q 3425 2491 3425 1978 
L 3425 0 
L 2847 0 
L 2847 2094 
Q 2847 2600 2669 2842 
Q 2491 3084 2119 3084 
Q 1678 3084 1418 2786 
Q 1159 2488 1159 1978 
L 1159 0 
L 581 0 
L 581 3500 
L 1159 3500 
L 1159 2956 
Q 1356 3278 1631 3431 
Q 1906 3584 2284 3584 
Q 2666 3584 2933 3390 
Q 3200 3197 3328 2828 
z
" transform="scale(0.015625)"/>
       <path id="DejaVuSans-65" d="M 3597 1894 
L 3597 1613 
L 953 1613 
Q 991 1019 1311 708 
Q 1631 397 2203 397 
Q 2534 397 2845 478 
Q 3156 559 3463 722 
L 3463 178 
Q 3153 47 2828 -22 
Q 2503 -91 2169 -91 
Q 1331 -91 842 396 
Q 353 884 353 1716 
Q 353 2575 817 3079 
Q 1281 3584 2069 3584 
Q 2775 3584 3186 3129 
Q 3597 2675 3597 1894 
z
M 3022 2063 
Q 3016 2534 2758 2815 
Q 2500 3097 2075 3097 
Q 1594 3097 1305 2825 
Q 1016 2553 972 2059 
L 3022 2063 
z
" transform="scale(0.015625)"/>
       <path id="DejaVuSans-20" transform="scale(0.015625)"/>
       <path id="DejaVuSans-5b" d="M 550 4863 
L 1875 4863 
L 1875 4416 
L 1125 4416 
L 1125 -397 
L 1875 -397 
L 1875 -844 
L 550 -844 
L 550 4863 
z
" transform="scale(0.015625)"/>
       <path id="DejaVuSans-73" d="M 2834 3397 
L 2834 2853 
Q 2591 2978 2328 3040 
Q 2066 3103 1784 3103 
Q 1356 3103 1142 2972 
Q 928 2841 928 2578 
Q 928 2378 1081 2264 
Q 1234 2150 1697 2047 
L 1894 2003 
Q 2506 1872 2764 1633 
Q 3022 1394 3022 966 
Q 3022 478 2636 193 
Q 2250 -91 1575 -91 
Q 1294 -91 989 -36 
Q 684 19 347 128 
L 347 722 
Q 666 556 975 473 
Q 1284 391 1588 391 
Q 1994 391 2212 530 
Q 2431 669 2431 922 
Q 2431 1156 2273 1281 
Q 2116 1406 1581 1522 
L 1381 1569 
Q 847 1681 609 1914 
Q 372 2147 372 2553 
Q 372 3047 722 3315 
Q 1072 3584 1716 3584 
Q 2034 3584 2315 3537 
Q 2597 3491 2834 3397 
z
" transform="scale(0.015625)"/>
       <path id="DejaVuSans-5d" d="M 1947 4863 
L 1947 -844 
L 622 -844 
L 622 -397 
L 1369 -397 
L 1369 4416 
L 622 4416 
L 622 4863 
L 1947 4863 
z
" transform="scale(0.015625)"/>
      </defs>
      <use xlink:href="#DejaVuSans-54"/>
      <use xlink:href="#DejaVuSans-69" x="57.958984"/>
      <use xlink:href="#DejaVuSans-6d" x="85.742188"/>
      <use xlink:href="#DejaVuSans-65" x="183.154297"/>
      <use xlink:href="#DejaVuSans-20" x="244.677734"/>
      <use xlink:href="#DejaVuSans-5b" x="276.464844"/>
      <use xlink:href="#DejaVuSans-73" x="315.478516"/>
      <use xlink:href="#DejaVuSans-5d" x="367.578125"/>
     </g>
    </g>
   </g>
   <g id="matplotlib.axis_2">
    <g id="ytick_1">
     <g id="line2d_8">
      <defs>
       <path id="mda1a880c18" d="M 0 0 
L -3.5 0 
" style="stroke: #000000; stroke-width: 0.8"/>
      </defs>
      <g>
       <use xlink:href="#mda1a880c18" x="43.78125" y="195.923357" style="stroke: #000000; stroke-width: 0.8"/>
      </g>
     </g>
     <g id="text_9">
      <!-- 0.0 -->
      <g transform="translate(20.878125 199.722576)scale(0.1 -0.1)">
       <defs>
        <path id="DejaVuSans-2e" d="M 684 794 
L 1344 794 
L 1344 0 
L 684 0 
L 684 794 
z
" transform="scale(0.015625)"/>
       </defs>
       <use xlink:href="#DejaVuSans-30"/>
       <use xlink:href="#DejaVuSans-2e" x="63.623047"/>
       <use xlink:href="#DejaVuSans-30" x="95.410156"/>
      </g>
     </g>
    </g>
    <g id="ytick_2">
     <g id="line2d_9">
      <g>
       <use xlink:href="#mda1a880c18" x="43.78125" y="166.801929" style="stroke: #000000; stroke-width: 0.8"/>
      </g>
     </g>
     <g id="text_10">
      <!-- 0.2 -->
      <g transform="translate(20.878125 170.601147)scale(0.1 -0.1)">
       <use xlink:href="#DejaVuSans-30"/>
       <use xlink:href="#DejaVuSans-2e" x="63.623047"/>
       <use xlink:href="#DejaVuSans-32" x="95.410156"/>
      </g>
     </g>
    </g>
    <g id="ytick_3">
     <g id="line2d_10">
      <g>
       <use xlink:href="#mda1a880c18" x="43.78125" y="137.6805" style="stroke: #000000; stroke-width: 0.8"/>
      </g>
     </g>
     <g id="text_11">
      <!-- 0.4 -->
      <g transform="translate(20.878125 141.479719)scale(0.1 -0.1)">
       <defs>
        <path id="DejaVuSans-34" d="M 2419 4116 
L 825 1625 
L 2419 1625 
L 2419 4116 
z
M 2253 4666 
L 3047 4666 
L 3047 1625 
L 3713 1625 
L 3713 1100 
L 3047 1100 
L 3047 0 
L 2419 0 
L 2419 1100 
L 313 1100 
L 313 1709 
L 2253 4666 
z
" transform="scale(0.015625)"/>
       </defs>
       <use xlink:href="#DejaVuSans-30"/>
       <use xlink:href="#DejaVuSans-2e" x="63.623047"/>
       <use xlink:href="#DejaVuSans-34" x="95.410156"/>
      </g>
     </g>
    </g>
    <g id="ytick_4">
     <g id="line2d_11">
      <g>
       <use xlink:href="#mda1a880c18" x="43.78125" y="108.559071" style="stroke: #000000; stroke-width: 0.8"/>
      </g>
     </g>
     <g id="text_12">
      <!-- 0.6 -->
      <g transform="translate(20.878125 112.35829)scale(0.1 -0.1)">
       <defs>
        <path id="DejaVuSans-36" d="M 2113 2584 
Q 1688 2584 1439 2293 
Q 1191 2003 1191 1497 
Q 1191 994 1439 701 
Q 1688 409 2113 409 
Q 2538 409 2786 701 
Q 3034 994 3034 1497 
Q 3034 2003 2786 2293 
Q 2538 2584 2113 2584 
z
M 3366 4563 
L 3366 3988 
Q 3128 4100 2886 4159 
Q 2644 4219 2406 4219 
Q 1781 4219 1451 3797 
Q 1122 3375 1075 2522 
Q 1259 2794 1537 2939 
Q 1816 3084 2150 3084 
Q 2853 3084 3261 2657 
Q 3669 2231 3669 1497 
Q 3669 778 3244 343 
Q 2819 -91 2113 -91 
Q 1303 -91 875 529 
Q 447 1150 447 2328 
Q 447 3434 972 4092 
Q 1497 4750 2381 4750 
Q 2619 4750 2861 4703 
Q 3103 4656 3366 4563 
z
" transform="scale(0.015625)"/>
       </defs>
       <use xlink:href="#DejaVuSans-30"/>
       <use xlink:href="#DejaVuSans-2e" x="63.623047"/>
       <use xlink:href="#DejaVuSans-36" x="95.410156"/>
      </g>
     </g>
    </g>
    <g id="ytick_5">
     <g id="line2d_12">
      <g>
       <use xlink:href="#mda1a880c18" x="43.78125" y="79.437643" style="stroke: #000000; stroke-width: 0.8"/>
      </g>
     </g>
     <g id="text_13">
      <!-- 0.8 -->
      <g transform="translate(20.878125 83.236862)scale(0.1 -0.1)">
       <defs>
        <path id="DejaVuSans-38" d="M 2034 2216 
Q 1584 2216 1326 1975 
Q 1069 1734 1069 1313 
Q 1069 891 1326 650 
Q 1584 409 2034 409 
Q 2484 409 2743 651 
Q 3003 894 3003 1313 
Q 3003 1734 2745 1975 
Q 2488 2216 2034 2216 
z
M 1403 2484 
Q 997 2584 770 2862 
Q 544 3141 544 3541 
Q 544 4100 942 4425 
Q 1341 4750 2034 4750 
Q 2731 4750 3128 4425 
Q 3525 4100 3525 3541 
Q 3525 3141 3298 2862 
Q 3072 2584 2669 2484 
Q 3125 2378 3379 2068 
Q 3634 1759 3634 1313 
Q 3634 634 3220 271 
Q 2806 -91 2034 -91 
Q 1263 -91 848 271 
Q 434 634 434 1313 
Q 434 1759 690 2068 
Q 947 2378 1403 2484 
z
M 1172 3481 
Q 1172 3119 1398 2916 
Q 1625 2713 2034 2713 
Q 2441 2713 2670 2916 
Q 2900 3119 2900 3481 
Q 2900 3844 2670 4047 
Q 2441 4250 2034 4250 
Q 1625 4250 1398 4047 
Q 1172 3844 1172 3481 
z
" transform="scale(0.015625)"/>
       </defs>
       <use xlink:href="#DejaVuSans-30"/>
       <use xlink:href="#DejaVuSans-2e" x="63.623047"/>
       <use xlink:href="#DejaVuSans-38" x="95.410156"/>
      </g>
     </g>
    </g>
    <g id="ytick_6">
     <g id="line2d_13">
      <g>
       <use xlink:href="#mda1a880c18" x="43.78125" y="50.316214" style="stroke: #000000; stroke-width: 0.8"/>
      </g>
     </g>
     <g id="text_14">
      <!-- 1.0 -->
      <g transform="translate(20.878125 54.115433)scale(0.1 -0.1)">
       <use xlink:href="#DejaVuSans-31"/>
       <use xlink:href="#DejaVuSans-2e" x="63.623047"/>
       <use xlink:href="#DejaVuSans-30" x="95.410156"/>
      </g>
     </g>
    </g>
    <g id="text_15">
     <!-- (F-F$^o$)/F$^o$ -->
     <g transform="translate(14.798438 137.9955)rotate(-90)scale(0.1 -0.1)">
      <defs>
       <path id="DejaVuSans-28" d="M 1984 4856 
Q 1566 4138 1362 3434 
Q 1159 2731 1159 2009 
Q 1159 1288 1364 580 
Q 1569 -128 1984 -844 
L 1484 -844 
Q 1016 -109 783 600 
Q 550 1309 550 2009 
Q 550 2706 781 3412 
Q 1013 4119 1484 4856 
L 1984 4856 
z
" transform="scale(0.015625)"/>
       <path id="DejaVuSans-46" d="M 628 4666 
L 3309 4666 
L 3309 4134 
L 1259 4134 
L 1259 2759 
L 3109 2759 
L 3109 2228 
L 1259 2228 
L 1259 0 
L 628 0 
L 628 4666 
z
" transform="scale(0.015625)"/>
       <path id="DejaVuSans-2d" d="M 313 2009 
L 1997 2009 
L 1997 1497 
L 313 1497 
L 313 2009 
z
" transform="scale(0.015625)"/>
       <path id="DejaVuSans-Oblique-6f" d="M 1625 -91 
Q 1009 -91 651 289 
Q 294 669 294 1325 
Q 294 1706 417 2101 
Q 541 2497 738 2766 
Q 1047 3184 1428 3384 
Q 1809 3584 2291 3584 
Q 2888 3584 3255 3212 
Q 3622 2841 3622 2241 
Q 3622 1825 3500 1412 
Q 3378 1000 3181 728 
Q 2875 309 2494 109 
Q 2113 -91 1625 -91 
z
M 891 1344 
Q 891 869 1089 633 
Q 1288 397 1691 397 
Q 2269 397 2648 901 
Q 3028 1406 3028 2181 
Q 3028 2634 2825 2865 
Q 2622 3097 2228 3097 
Q 1903 3097 1650 2945 
Q 1397 2794 1197 2484 
Q 1050 2253 970 1956 
Q 891 1659 891 1344 
z
" transform="scale(0.015625)"/>
       <path id="DejaVuSans-29" d="M 513 4856 
L 1013 4856 
Q 1481 4119 1714 3412 
Q 1947 2706 1947 2009 
Q 1947 1309 1714 600 
Q 1481 -109 1013 -844 
L 513 -844 
Q 928 -128 1133 580 
Q 1338 1288 1338 2009 
Q 1338 2731 1133 3434 
Q 928 4138 513 4856 
z
" transform="scale(0.015625)"/>
       <path id="DejaVuSans-2f" d="M 1625 4666 
L 2156 4666 
L 531 -594 
L 0 -594 
L 1625 4666 
z
" transform="scale(0.015625)"/>
      </defs>
      <use xlink:href="#DejaVuSans-28" transform="translate(0 0.51875)"/>
      <use xlink:href="#DejaVuSans-46" transform="translate(39.013672 0.51875)"/>
      <use xlink:href="#DejaVuSans-2d" transform="translate(96.533203 0.51875)"/>
      <use xlink:href="#DejaVuSans-46" transform="translate(132.617188 0.51875)"/>
      <use xlink:href="#DejaVuSans-Oblique-6f" transform="translate(191.09375 38.8)scale(0.7)"/>
      <use xlink:href="#DejaVuSans-29" transform="translate(236.655273 0.51875)"/>
      <use xlink:href="#DejaVuSans-2f" transform="translate(275.668945 0.51875)"/>
      <use xlink:href="#DejaVuSans-46" transform="translate(309.360352 0.51875)"/>
      <use xlink:href="#DejaVuSans-Oblique-6f" transform="translate(367.836914 38.8)scale(0.7)"/>
     </g>
    </g>
   </g>
   <g id="line2d_14">
    <path d="M 56.463068 182.520937 
L 56.851158 181.914711 
L 56.985594 184.609696 
L 57.120876 183.917068 
L 57.389748 185.882971 
L 57.524184 185.798583 
L 57.658621 187.086158 
L 57.793902 186.953634 
L 57.928339 187.272054 
L 58.065311 189.436139 
L 58.200593 188.362857 
L 58.335029 189.809138 
L 58.469466 184.538198 
L 58.603902 184.000248 
L 58.739184 185.395775 
L 58.874465 184.590764 
L 59.008902 185.282587 
L 59.143338 186.899658 
L 59.277774 185.983673 
L 59.816364 190.614754 
L 59.951646 188.440801 
L 60.086082 188.995064 
L 60.223055 188.878653 
L 60.627209 190.804476 
L 60.761646 192.075133 
L 60.896927 191.938179 
L 61.435518 194.046273 
L 61.705236 189.814979 
L 61.974108 190.083853 
L 62.10939 190.890073 
L 62.243826 186.22858 
L 62.378263 187.135502 
L 62.513544 186.68335 
L 62.647135 188.249064 
L 62.782417 187.745554 
L 62.920235 188.45651 
L 63.054671 188.138695 
L 63.189107 188.527807 
L 63.324389 185.368989 
L 63.593262 184.981286 
L 63.727698 187.185047 
L 63.993188 183.628658 
L 64.12847 183.701969 
L 64.262906 180.304688 
L 64.532624 182.640369 
L 64.667061 181.701021 
L 64.801497 183.981316 
L 64.936779 182.183585 
L 65.205651 181.810182 
L 65.340933 184.736983 
L 65.475369 184.987731 
L 65.610651 184.72067 
L 65.745087 185.226193 
L 65.879523 188.140709 
L 66.013959 184.222397 
L 66.283677 183.250421 
L 66.55255 186.078535 
L 66.687832 185.944802 
L 66.822268 186.192328 
L 66.956704 185.626987 
L 67.361704 189.494546 
L 67.49614 187.817053 
L 67.631422 191.042737 
L 67.765858 189.661509 
L 67.900294 186.904895 
L 68.034731 187.034196 
L 68.302757 188.549961 
L 68.438039 189.279648 
L 68.573321 189.176328 
L 68.707757 189.479038 
L 68.843039 191.771819 
L 69.111911 187.563687 
L 69.381629 188.168503 
L 69.516066 190.22685 
L 69.650502 189.685074 
L 69.785784 190.315871 
L 69.92022 188.930011 
L 70.189092 188.70464 
L 70.324374 188.247251 
L 70.594092 190.028669 
L 70.729374 190.024036 
L 70.999092 192.765747 
L 71.267964 186.895227 
L 71.403246 189.760399 
L 71.538528 188.904634 
L 71.672964 189.269779 
L 71.808246 185.932315 
L 71.942682 185.797173 
L 72.077964 187.69037 
L 72.2124 187.600141 
L 72.346836 188.869589 
L 72.481272 188.361649 
L 72.615709 190.593808 
L 72.75099 190.144879 
L 72.886272 190.158574 
L 73.15599 187.881502 
L 73.291272 188.11795 
L 73.425708 188.17958 
L 73.559299 189.913063 
L 73.694581 189.289919 
L 73.965144 190.921895 
L 74.100426 190.751104 
L 74.369298 192.564343 
L 74.50458 188.27001 
L 74.773453 189.746099 
L 74.908734 189.220435 
L 75.44817 192.520236 
L 75.582606 192.04593 
L 75.852324 194.093804 
L 75.986761 194.074872 
L 76.122042 192.126491 
L 76.39176 195.211193 
L 76.526197 193.307725 
L 76.660633 194.786432 
L 76.795915 193.824729 
L 77.065633 195.350967 
L 77.200069 194.257546 
L 77.334505 195.17494 
L 77.469787 194.832554 
L 77.738659 191.611905 
L 77.873941 192.520236 
L 78.008377 191.754901 
L 78.143659 192.168786 
L 78.278095 193.432394 
L 78.412531 193.491607 
L 78.682249 192.062244 
L 78.81584 193.757259 
L 78.950276 193.023141 
L 79.084713 193.529874 
L 79.219149 194.848666 
L 79.354431 192.954261 
L 79.623303 194.456331 
L 79.893021 194.172352 
L 80.028303 195.776534 
L 80.162739 194.721379 
L 80.298021 194.83054 
L 80.566893 192.030422 
L 80.836611 191.908774 
L 80.970202 191.056433 
L 81.104638 191.651581 
L 81.240765 190.636103 
L 81.376047 192.952247 
L 81.645765 191.084428 
L 81.914638 192.683977 
L 82.049074 193.909318 
L 82.187738 192.025185 
L 82.322174 192.667664 
L 82.996046 183.42524 
L 83.129637 185.277551 
L 83.264073 185.324881 
L 83.669073 186.979616 
L 83.937945 190.523719 
L 84.073227 190.006514 
L 84.344636 191.196811 
L 84.479072 191.275359 
L 84.74879 191.991954 
L 85.018508 193.563709 
L 85.421817 191.34303 
L 85.557099 191.414529 
L 85.691535 191.699112 
L 85.826817 193.004209 
L 85.961253 190.519087 
L 86.499843 194.298431 
L 86.63428 194.652499 
L 86.903998 189.284079 
L 87.043507 191.651581 
L 87.312379 190.479612 
L 87.446816 193.121225 
L 87.717379 189.688296 
L 87.851815 191.380089 
L 88.121533 189.128796 
L 88.390406 192.280565 
L 88.524842 194.205584 
L 88.659278 192.517013 
L 88.793714 193.210246 
L 88.928996 192.178454 
L 89.063432 192.831405 
L 89.197869 190.213155 
L 89.33315 191.979668 
L 89.467587 190.821193 
L 89.602023 192.144618 
L 89.871741 191.441718 
L 90.006177 191.449573 
L 90.14315 187.854715 
L 90.412868 189.644793 
L 90.547304 189.601088 
L 90.680895 189.653856 
L 90.815331 190.332789 
L 90.950613 190.152733 
L 91.08674 191.277977 
L 91.221176 190.465312 
L 91.356458 192.201816 
L 91.490894 191.441114 
L 91.760612 194.489362 
L 91.895048 190.974663 
L 92.164766 190.207314 
L 92.299203 191.582097 
L 92.434484 190.664702 
L 92.568921 192.053785 
L 92.704202 191.608078 
L 92.838639 190.589981 
L 92.973075 188.465573 
L 93.107511 183.52715 
L 93.241947 185.452169 
L 93.377229 184.538198 
L 93.512511 185.96736 
L 93.646102 185.143618 
L 93.91582 190.382132 
L 94.184692 185.959706 
L 94.320819 185.980451 
L 94.455256 185.713994 
L 94.589692 185.732926 
L 94.724974 185.89143 
L 95.129128 189.827869 
L 95.264409 189.12497 
L 95.534127 190.93559 
L 95.937436 182.12981 
L 96.206309 184.740206 
L 96.610463 181.062974 
L 97.284335 186.565126 
L 97.418771 185.42941 
L 97.553208 187.474666 
L 97.687644 186.353451 
L 97.820389 187.58705 
L 97.954825 186.701678 
L 98.223698 179.853141 
L 98.628697 183.759772 
L 98.89757 184.975446 
L 99.167288 186.562508 
L 99.301724 188.160245 
L 99.43616 187.279103 
L 99.571442 188.240807 
L 99.704187 187.905469 
L 99.973905 189.242589 
L 100.243623 192.360321 
L 100.512496 190.465916 
L 100.646932 190.615962 
L 101.051086 191.589951 
L 101.185522 192.704722 
L 101.45524 188.530425 
L 101.590522 188.704035 
L 101.724958 188.589638 
L 102.129113 188.914502 
L 102.531576 190.346283 
L 102.666858 190.637513 
L 102.801294 189.768052 
L 103.06763 192.307755 
L 103.337348 187.24285 
L 103.472629 187.045273 
L 103.60622 187.328648 
L 103.740656 188.631731 
L 103.875093 186.611852 
L 104.009529 188.114728 
L 104.143965 187.112945 
L 104.550656 188.433751 
L 104.685092 187.705274 
L 104.819528 188.628509 
L 104.95481 188.305659 
L 105.089246 190.580918 
L 105.223683 190.17811 
L 105.358964 190.574473 
L 105.493401 191.730934 
L 105.628682 190.773259 
L 106.031991 190.633485 
L 106.167273 190.978489 
L 106.298327 192.62557 
L 106.432763 192.608652 
L 106.568045 193.012064 
L 106.699945 194.021702 
L 107.103253 192.181676 
L 107.238535 195.090955 
L 107.377199 193.164728 
L 107.512481 193.296044 
L 107.646917 192.026394 
L 107.781353 193.793713 
L 107.916635 193.693011 
L 108.187198 194.922179 
L 108.32248 195.518535 
L 108.725789 193.748195 
L 108.860225 193.953426 
L 108.994661 193.564918 
L 109.264379 194.618059 
L 109.399661 193.446694 
L 109.534097 195.330223 
L 109.669379 195.083302 
L 109.803815 195.286518 
L 109.938251 194.558242 
L 110.072688 194.709697 
L 110.207969 193.896831 
L 110.342406 194.176984 
L 110.476842 194.093804 
L 110.612124 193.709727 
L 110.747405 195.923357 
L 110.881842 194.123612 
L 111.154096 194.212028 
L 111.289378 195.728398 
L 111.96325 190.428858 
L 112.097686 190.348297 
L 112.23635 189.885672 
L 112.372477 190.979094 
L 112.506914 190.994199 
L 112.642195 190.144275 
L 112.911913 192.097892 
L 113.043813 191.043543 
L 113.178249 191.815322 
L 113.312685 191.834859 
L 113.447122 192.08037 
L 113.582403 191.018166 
L 113.71684 192.628793 
L 113.851276 192.239479 
L 113.986558 192.685991 
L 114.120994 193.947585 
L 114.389866 191.885411 
L 114.525148 192.270092 
L 114.659584 191.427419 
L 114.794866 188.788424 
L 114.929302 190.327552 
L 115.063739 188.907856 
L 115.199866 189.845391 
L 115.468738 190.049413 
L 115.740993 191.372234 
L 115.875429 190.968016 
L 116.145147 192.221957 
L 116.279583 190.152129 
L 116.414865 192.537154 
L 116.549301 191.208493 
L 116.819019 193.045094 
L 116.953455 192.743794 
L 117.223173 193.624735 
L 117.492891 184.230856 
L 117.627328 185.254189 
L 117.762609 185.172821 
L 117.897046 184.779882 
L 118.032327 187.431163 
L 118.166764 187.161483 
L 118.436482 189.441375 
L 118.571763 188.92558 
L 118.840636 190.2053 
L 118.975072 188.893556 
L 119.109508 190.13642 
L 119.243944 190.154143 
L 119.383454 190.987553 
L 119.51789 190.856439 
L 119.652326 192.799583 
L 119.786762 191.227425 
L 119.921199 190.988157 
L 120.053944 190.389987 
L 120.189226 184.161371 
L 120.323662 185.114414 
L 120.458098 185.032644 
L 120.592534 186.277924 
L 120.727816 185.701104 
L 120.862252 187.117376 
L 120.996689 186.382654 
L 121.131125 187.750187 
L 121.265561 187.232982 
L 121.400843 188.811182 
L 121.531897 188.18683 
L 121.801615 190.191806 
L 121.936051 189.864927 
L 122.205769 190.276194 
L 122.475487 180.9232 
L 122.609923 183.523928 
L 122.745205 182.164855 
L 122.879641 184.729129 
L 123.010696 184.210715 
L 123.145132 184.204874 
L 123.279568 184.492681 
L 123.549286 187.135502 
L 123.818159 178.124492 
L 123.95344 180.088985 
L 124.087877 180.179415 
L 124.222313 178.357717 
L 124.492031 179.33936 
L 124.761749 182.43252 
L 125.030621 184.14828 
L 125.165057 186.554855 
L 125.299494 185.083197 
L 125.707875 187.578591 
L 125.842312 187.296021 
L 125.977593 188.319354 
L 126.112875 180.533483 
L 126.246466 180.143565 
L 126.381748 180.265818 
L 126.785902 182.296774 
L 126.921184 183.211551 
L 127.05562 185.202025 
L 127.190056 185.345626 
L 127.324492 185.691235 
L 127.458929 183.690892 
L 127.728646 187.099249 
L 127.863083 187.062795 
L 128.132801 187.62733 
L 128.267237 186.011669 
L 128.401673 186.035031 
L 128.536109 187.71192 
L 128.670546 185.998577 
L 128.939418 188.13084 
L 129.0747 188.382393 
L 129.209136 188.940484 
L 129.344418 185.249556 
L 129.478854 184.682403 
L 129.612445 183.420004 
L 129.747727 184.74222 
L 129.882163 184.350288 
L 130.019981 186.39494 
L 130.289699 185.626987 
L 130.424135 184.01052 
L 130.693853 172.40583 
L 130.963571 173.19916 
L 131.098007 176.896532 
L 131.232444 176.738027 
L 131.367725 177.794391 
L 131.503007 180.855729 
L 131.634907 179.721423 
L 131.908852 181.88873 
L 132.044134 182.141492 
L 132.17857 183.891087 
L 132.313007 182.388212 
L 132.448288 183.604489 
L 132.582725 183.113265 
L 132.717161 184.223001 
L 132.986879 183.501169 
L 133.122161 180.363297 
L 133.256597 180.85432 
L 133.391879 180.179415 
L 133.526315 180.300862 
L 133.796033 182.53 
L 133.931315 179.886373 
L 134.065751 174.115749 
L 134.200187 175.869372 
L 134.335469 175.480059 
L 134.605187 178.670699 
L 134.739623 179.148227 
L 134.874059 177.300548 
L 135.143777 180.410023 
L 135.279059 172.132324 
L 135.414341 172.538354 
L 135.548777 171.97825 
L 136.088213 176.463715 
L 136.222649 175.469183 
L 136.492367 177.480603 
L 136.625958 180.063809 
L 136.76124 178.707757 
L 136.895676 171.083614 
L 137.030112 170.916046 
L 137.164548 164.755706 
L 137.298985 167.622891 
L 137.434266 168.010593 
L 137.568702 172.30392 
L 137.703984 171.956901 
L 137.977084 175.115719 
L 138.112366 176.380535 
L 138.246802 176.366236 
L 138.381238 176.160401 
L 138.515675 177.448782 
L 138.650956 179.862406 
L 138.785393 178.992341 
L 138.919829 179.470474 
L 139.055111 180.639422 
L 139.323983 172.424762 
L 139.458419 173.236218 
L 139.592856 163.493306 
L 139.728137 164.423792 
L 140.132292 169.772072 
L 140.537291 174.601737 
L 141.076727 178.645523 
L 141.212009 178.574629 
L 141.346445 178.947629 
L 141.480881 166.797739 
L 141.616163 166.551422 
L 141.750599 167.518161 
L 142.019472 172.23504 
L 142.153908 172.255784 
L 142.28919 172.547417 
L 142.423626 175.063757 
L 142.558062 175.05268 
L 142.692499 177.420786 
L 142.826935 176.924326 
L 142.962217 177.549484 
L 143.23278 180.774564 
L 143.502498 177.892474 
L 143.636934 177.379901 
L 143.907498 165.823146 
L 144.041934 169.828465 
L 144.177216 167.833358 
L 144.58137 172.514387 
L 144.715806 163.241954 
L 144.985524 164.46085 
L 145.11996 158.705735 
L 145.929114 172.185494 
L 146.064396 171.808668 
L 146.198832 174.16187 
L 146.334114 173.824116 
L 146.603832 177.41555 
L 146.738268 177.329752 
L 147.277704 180.733477 
L 147.412141 181.1097 
L 147.547422 180.839416 
L 147.681859 183.621407 
L 147.81714 180.227349 
L 147.951577 156.944458 
L 148.221294 161.307873 
L 148.491012 166.144788 
L 149.168267 173.601162 
L 149.437985 174.410806 
L 149.708548 176.559986 
L 149.842984 176.615171 
L 150.111857 177.868507 
L 150.245448 152.249129 
L 150.380729 152.398571 
L 150.785729 162.049039 
L 151.054602 165.70613 
L 151.325165 168.742294 
L 151.459601 168.360231 
L 151.729319 172.055589 
L 151.999037 175.91489 
L 152.132628 172.927466 
L 152.26791 150.487248 
L 152.537628 153.415459 
L 152.807346 161.526799 
L 152.941782 160.971327 
L 153.210654 167.000352 
L 153.346782 167.779382 
L 153.481218 164.564775 
L 153.6165 151.60786 
L 154.020654 159.227572 
L 154.424808 166.593717 
L 154.694526 169.16786 
L 154.829808 168.618229 
L 154.964244 171.083614 
L 155.099526 168.740884 
L 155.234808 156.684043 
L 156.44727 172.725458 
L 156.716988 174.022902 
L 156.986706 154.294386 
L 157.255579 160.180011 
L 157.794169 168.381579 
L 157.931142 171.279177 
L 158.20086 169.385376 
L 158.335296 158.616714 
L 158.469732 160.151412 
L 158.73945 164.408888 
L 159.009168 169.222441 
L 159.14445 168.267383 
L 159.548604 173.156865 
L 159.68304 173.837812 
L 159.817477 176.510642 
L 159.952758 175.853059 
L 160.087195 176.811338 
L 160.221631 176.671765 
L 160.356913 176.87176 
L 160.491349 178.851358 
L 160.761067 177.812517 
L 160.895503 178.171217 
L 161.165221 179.569967 
L 161.434939 180.072873 
L 161.569375 180.931659 
L 161.704657 180.697829 
L 161.839093 152.682551 
L 161.974375 150.482616 
L 162.381911 157.700125 
L 163.188529 168.207566 
L 163.322965 169.782948 
L 163.457401 168.466169 
L 163.727119 171.464468 
L 163.862401 171.307776 
L 163.996837 174.102859 
L 164.403528 172.955461 
L 164.537964 175.616611 
L 164.807682 176.103202 
L 164.942118 177.129154 
L 165.076555 175.385399 
L 165.210991 177.497521 
L 165.346273 175.786797 
L 165.481554 176.869745 
L 165.61599 176.716477 
L 165.751272 175.839363 
L 165.885708 176.017404 
L 166.02099 143.771436 
L 166.155426 141.929598 
L 166.290708 146.286366 
L 166.425144 145.834215 
L 166.830144 155.583371 
L 166.96458 156.938013 
L 167.233453 162.521532 
L 167.367889 163.094526 
L 167.909016 168.700603 
L 168.31317 171.387734 
L 168.449298 173.306911 
L 168.582888 172.905513 
L 168.713097 174.762255 
L 168.846688 173.449304 
L 169.117251 175.413193 
L 169.251687 174.332862 
L 169.386124 175.570489 
L 169.52056 177.878175 
L 169.789432 175.700999 
L 169.924714 176.744472 
L 170.194432 146.864597 
L 170.463305 152.801379 
L 171.002741 161.696381 
L 171.138022 162.867746 
L 171.542176 168.845614 
L 171.677458 169.061317 
L 171.811894 170.815948 
L 171.948867 170.666506 
L 172.353021 171.500117 
L 172.621894 139.387277 
L 172.757176 141.895158 
L 173.836048 159.801775 
L 173.971329 160.58725 
L 174.241047 163.883224 
L 174.510765 166.41769 
L 174.780483 169.289307 
L 175.050201 168.653877 
L 175.185483 169.043594 
L 175.455201 172.377231 
L 175.588792 170.953708 
L 175.857664 174.599924 
L 175.9921 174.14314 
L 176.127382 172.513581 
L 176.263509 172.650133 
L 176.533227 174.675853 
L 176.802945 173.482938 
L 177.207945 174.088559 
L 177.477663 176.001292 
L 177.612099 173.896219 
L 177.881817 174.209402 
L 178.016254 172.99252 
L 178.285972 174.533461 
L 178.421253 174.160662 
L 178.55569 174.434168 
L 178.825407 172.572794 
L 178.959844 173.866411 
L 179.09428 173.26663 
L 179.228716 173.578605 
L 179.498434 175.843996 
L 179.768152 173.362901 
L 179.903434 174.263378 
L 180.038716 173.367936 
L 180.173152 173.324433 
L 180.44287 174.522585 
L 180.579843 174.088559 
L 180.715124 174.616036 
L 180.849561 173.537518 
L 180.984842 174.939692 
L 181.25456 173.449908 
L 181.388997 173.954022 
L 181.524278 173.111348 
L 181.65956 174.200339 
L 181.929278 173.331079 
L 182.067096 172.653355 
L 182.202378 172.919007 
L 182.33766 174.247669 
L 182.472096 172.82616 
L 182.87625 174.696598 
L 183.011532 174.155426 
L 183.282096 174.462164 
L 183.416532 175.621847 
L 183.551813 174.584214 
L 183.68625 174.810391 
L 183.820686 174.811599 
L 183.955122 174.61221 
L 184.225686 173.519996 
L 184.360967 174.129444 
L 184.495404 173.344574 
L 184.62984 173.968321 
L 184.765122 173.577195 
L 184.900403 174.019679 
L 185.035685 172.681955 
L 185.44153 175.380162 
L 185.575967 172.480551 
L 185.845685 173.371964 
L 185.981812 172.277133 
L 186.25153 173.231586 
L 186.385966 172.468265 
L 186.655684 175.108469 
L 186.790966 172.897658 
L 186.927093 172.694845 
L 187.062375 173.979399 
L 187.197657 174.170934 
L 187.332938 173.334906 
L 187.46822 174.985814 
L 187.603502 173.750604 
L 187.737093 174.846039 
L 187.872374 173.955431 
L 188.00681 174.091782 
L 188.142092 171.477358 
L 188.277374 173.616267 
L 188.412656 172.479141 
L 188.547092 173.043072 
L 188.682374 173.007423 
L 188.952092 171.861435 
L 189.356246 172.967143 
L 189.625964 171.425396 
L 189.7604 172.468265 
L 189.895682 171.122082 
L 190.1654 173.013868 
L 190.435118 171.971201 
L 190.569554 164.973423 
L 190.704836 141.248047 
L 191.513144 154.857712 
L 191.648426 156.253844 
L 191.782017 159.180041 
L 191.916453 159.081353 
L 192.050889 160.971327 
L 192.185325 161.253292 
L 192.320607 163.545268 
L 192.455043 163.718878 
L 192.859198 165.474919 
L 193.400325 167.757227 
L 193.535606 167.64424 
L 193.670888 167.774145 
L 193.80617 169.761599 
L 193.941452 169.719304 
L 194.076733 169.434116 
L 194.210324 170.829039 
L 194.345606 168.421256 
L 194.74976 171.898494 
L 195.019478 170.630858 
L 195.15476 171.882784 
L 195.289196 171.816522 
L 195.423632 170.757541 
L 195.558914 170.835484 
L 195.694196 170.673153 
L 195.829477 172.510359 
L 195.963914 171.430028 
L 196.233632 132.056176 
L 197.447785 154.586824 
L 198.256094 164.022797 
L 198.39053 164.028638 
L 198.659402 165.786692 
L 198.794684 165.625569 
L 198.92912 165.890012 
L 199.064402 165.819924 
L 199.199684 168.279669 
L 199.33412 165.828383 
L 199.602993 168.777338 
L 199.872711 170.209924 
L 200.007992 169.0301 
L 200.142429 170.692689 
L 200.681019 168.657704 
L 200.815455 169.410753 
L 200.949892 169.129392 
L 201.220455 170.864688 
L 201.490173 169.223045 
L 201.624609 170.886238 
L 201.759045 170.819976 
L 202.028763 170.122112 
L 202.1632 170.177296 
L 202.298481 168.425888 
L 202.432918 168.480469 
L 202.569045 169.83491 
L 202.703481 168.968873 
L 202.972354 169.824638 
L 203.10679 169.497155 
L 203.376508 171.68138 
L 203.647071 169.027482 
L 203.781508 170.209924 
L 203.915944 170.105999 
L 204.051226 169.643375 
L 204.320944 170.728941 
L 204.456225 170.209924 
L 204.591507 170.521093 
L 204.725943 170.385951 
L 204.995661 168.540084 
L 205.130097 170.122112 
L 205.266225 169.929771 
L 205.400661 168.997472 
L 205.535097 169.377522 
L 205.670379 169.322337 
L 205.804815 170.585945 
L 205.939251 170.280616 
L 206.074533 168.019858 
L 206.209815 134.120969 
L 206.479533 138.797969 
L 206.616506 140.537897 
L 206.885378 147.364079 
L 207.289532 153.779195 
L 207.55925 157.283018 
L 207.694532 159.140364 
L 207.829814 158.672704 
L 208.099532 163.010742 
L 208.233968 163.032695 
L 208.36925 163.305598 
L 208.503686 164.23407 
L 208.638122 164.138604 
L 208.910377 167.216659 
L 209.045659 166.717782 
L 209.313685 167.370733 
L 209.583403 168.973505 
L 209.718685 169.019023 
L 209.853121 170.880397 
L 209.987558 169.138455 
L 210.122839 170.500348 
L 210.258121 169.504406 
L 210.527839 171.522876 
L 210.663121 171.398811 
L 210.798403 170.506793 
L 210.933684 139.016291 
L 211.068121 136.145279 
L 211.608402 146.258976 
L 212.758297 161.744315 
L 212.892733 160.784827 
L 213.162451 162.527977 
L 213.296887 134.391253 
L 213.432169 131.279764 
L 213.566605 130.85742 
L 213.701887 134.711485 
L 213.836323 134.295586 
L 214.106887 142.584966 
L 215.321041 160.206596 
L 215.455477 160.714738 
L 215.590759 163.328356 
L 215.725195 161.794464 
L 216.265476 166.654743 
L 216.399912 165.904312 
L 216.535194 166.641853 
L 216.804912 129.975876 
L 217.073785 133.898619 
L 217.478784 141.186216 
L 217.748502 146.28254 
L 218.152657 151.580066 
L 218.421529 157.757324 
L 218.555965 158.137977 
L 218.690402 161.291559 
L 218.825683 160.578791 
L 219.364274 165.708144 
L 219.49871 165.492441 
L 219.633992 167.247877 
L 219.90371 166.322225 
L 220.038991 168.174335 
L 220.175964 167.626113 
L 220.446528 169.220427 
L 220.580964 157.411715 
L 220.7154 132.744776 
L 220.985118 136.094726 
L 221.524554 146.859361 
L 221.659836 148.729798 
L 221.794272 148.889713 
L 221.929554 153.895606 
L 222.06399 153.874056 
L 222.602581 159.788885 
L 223.141171 162.989192 
L 223.276453 162.821624 
L 223.546171 165.61852 
L 223.680607 165.50231 
L 223.815043 166.925027 
L 223.949479 166.392313 
L 224.084761 168.796069 
L 224.219197 168.449251 
L 224.354479 168.757802 
L 224.626734 169.949911 
L 224.762015 168.754579 
L 224.896452 168.848836 
L 225.167015 170.570437 
L 225.301451 170.567818 
L 225.435888 171.614514 
L 225.70476 170.49632 
L 225.840042 171.704743 
L 225.974478 169.94548 
L 226.108914 171.465677 
L 226.243351 171.451377 
L 226.377787 137.749461 
L 226.512223 137.510394 
L 227.590249 155.493746 
L 227.993558 159.930472 
L 228.12884 160.6231 
L 228.262431 164.036492 
L 228.397712 163.633685 
L 228.532994 165.997965 
L 228.66743 165.628187 
L 228.801867 167.099241 
L 228.937148 167.070642 
L 229.071585 167.737087 
L 229.206866 169.371077 
L 229.341302 169.419212 
L 229.475739 169.680433 
L 229.61102 169.178736 
L 229.879893 138.299092 
L 230.014329 137.870907 
L 230.148765 143.307603 
L 230.284047 142.948903 
L 230.418483 147.519361 
L 230.555456 147.438195 
L 230.825174 150.730947 
L 231.36461 157.783305 
L 231.499046 136.767013 
L 231.634328 135.068775 
L 231.768764 135.828269 
L 232.172073 141.969073 
L 232.440945 145.245511 
L 232.710663 149.790794 
L 233.114818 155.856877 
L 233.518126 158.125087 
L 233.653408 159.81688 
L 233.787844 158.955878 
L 234.058408 162.264742 
L 234.192844 161.474232 
L 234.32728 159.096861 
L 234.462562 159.146205 
L 234.597844 156.874369 
L 234.73228 157.2375 
L 235.13728 150.786132 
L 235.270871 150.745851 
L 235.405307 150.875756 
L 235.676716 148.510872 
L 235.811998 147.272641 
L 235.946434 148.144519 
L 236.081715 148.014613 
L 236.216152 148.314101 
L 236.351433 118.804406 
L 236.487561 117.031447 
L 236.621997 118.99151 
L 237.161433 136.186164 
L 237.835305 155.03958 
L 238.105023 159.473688 
L 238.239459 159.730276 
L 238.646996 163.546678 
L 238.782277 163.546678 
L 239.05115 166.493015 
L 239.186432 166.804789 
L 239.45615 168.562843 
L 239.591431 168.203538 
L 239.72164 141.503226 
L 239.859458 137.471322 
L 240.129176 139.587472 
L 240.53333 146.252531 
L 240.667767 145.215099 
L 240.937485 151.164771 
L 241.476921 157.269927 
L 241.612202 158.538771 
L 241.746639 157.023207 
L 241.88192 138.143809 
L 242.016357 135.756167 
L 242.286075 135.843777 
L 242.421356 133.577782 
L 242.825511 137.709784 
L 242.959947 136.620995 
L 243.094383 133.778582 
L 243.229665 136.110839 
L 243.364101 134.797887 
L 243.499383 139.553032 
L 243.769101 138.30171 
L 244.037973 143.058668 
L 244.173255 140.901028 
L 244.307691 135.470979 
L 244.576564 138.883767 
L 244.715227 139.30732 
L 245.119382 144.667885 
L 245.253818 137.248569 
L 245.3891 138.851341 
L 245.523536 137.31604 
L 246.061281 144.285218 
L 246.196563 144.608874 
L 246.330999 146.933477 
L 246.466281 146.895009 
L 246.735153 152.110161 
L 247.814025 163.072976 
L 247.948461 162.767044 
L 248.082897 158.620138 
L 248.217334 141.511081 
L 248.487052 143.539419 
L 249.430642 158.061242 
L 249.565078 157.915829 
L 250.104514 165.80502 
L 250.239796 148.366667 
L 250.508668 149.297556 
L 250.778386 151.413706 
L 251.048104 152.073102 
L 251.451413 159.083971 
L 251.586695 159.411454 
L 251.721976 162.194654 
L 251.856413 151.170612 
L 251.990849 150.726919 
L 252.126131 152.017314 
L 252.260567 149.376909 
L 252.395849 152.337546 
L 252.529439 152.658584 
L 252.664721 154.380184 
L 252.799157 154.39972 
L 252.934439 157.311617 
L 253.068875 156.404695 
L 253.204157 157.525911 
L 253.338593 161.463155 
L 253.608311 162.934612 
L 254.012465 152.230399 
L 254.685492 158.163354 
L 255.088801 162.946293 
L 255.358519 154.17878 
L 255.63331 155.035149 
L 255.902182 157.95611 
L 256.037464 158.261438 
L 256.576055 164.438696 
L 256.710491 164.553093 
L 256.844927 155.192244 
L 256.9819 154.289149 
L 257.521336 158.021767 
L 257.656617 157.882597 
L 257.791899 160.248891 
L 257.926335 159.966926 
L 258.331335 166.45213 
L 258.601053 157.224611 
L 258.736335 155.254679 
L 259.544643 162.335637 
L 259.679925 162.962003 
L 259.815207 165.185904 
L 259.949643 164.355516 
L 260.219361 156.694314 
L 260.353797 158.635646 
L 260.488233 157.80405 
L 260.62267 160.525016 
L 260.757951 159.107334 
L 260.893233 160.465803 
L 261.028515 163.713038 
L 261.162951 162.631902 
L 261.69816 168.655086 
L 261.832596 168.74612 
L 261.967878 169.300384 
L 262.506468 176.100584 
L 262.64175 176.045399 
L 262.776186 175.792638 
L 263.179495 179.178841 
L 263.313931 176.907609 
L 263.448367 160.296825 
L 263.582803 158.872699 
L 263.852521 160.686139 
L 263.987803 161.480073 
L 264.123085 163.390792 
L 264.257521 162.97167 
L 264.391957 164.955901 
L 264.527239 165.25277 
L 264.662521 167.503861 
L 264.796957 167.36026 
L 265.470829 174.076274 
L 265.605266 174.814218 
L 265.740547 174.595292 
L 265.874984 160.178601 
L 266.010265 158.358313 
L 266.144702 158.38228 
L 266.279983 158.830605 
L 266.819419 164.538794 
L 266.954701 164.554906 
L 267.089137 164.159349 
L 267.224419 165.612075 
L 267.358855 165.436048 
L 267.494137 168.724772 
L 267.759627 169.227476 
L 268.702372 175.892131 
L 268.971244 176.756154 
L 269.106526 177.646157 
L 269.240962 179.675906 
L 269.51068 159.213272 
L 269.780398 160.37356 
L 269.914835 159.922617 
L 270.049271 162.429894 
L 270.184553 162.13101 
L 270.454271 163.074386 
L 270.723143 165.79072 
L 270.858425 166.238239 
L 270.992861 167.909287 
L 271.127297 167.366907 
L 271.261734 168.055507 
L 271.397015 171.552683 
L 271.532297 171.002448 
L 271.802861 173.824116 
L 271.936451 173.140551 
L 272.070887 176.222836 
L 272.205324 176.450221 
L 272.475887 177.736588 
L 272.610323 177.567006 
L 272.745605 180.445671 
L 272.880041 179.716791 
L 273.28335 182.290128 
L 273.418632 182.366258 
L 273.553068 180.592495 
L 273.691732 184.293895 
L 273.826168 184.597813 
L 273.960604 186.446902 
L 274.095886 185.282587 
L 274.230322 186.869246 
L 274.364759 185.584692 
L 274.634477 187.950382 
L 274.768913 187.865793 
L 274.904195 187.73911 
L 275.038631 190.258068 
L 275.311731 163.25565 
L 275.447013 162.394044 
L 275.581449 163.418585 
L 275.716731 162.937834 
L 276.12173 166.849097 
L 276.255321 164.049584 
L 276.660321 170.274172 
L 276.794757 169.623838 
L 277.467784 175.009781 
L 277.60222 175.00394 
L 277.871092 180.625122 
L 278.006374 179.032622 
L 278.544965 184.506376 
L 278.814683 183.131593 
L 279.084401 186.553445 
L 279.218837 188.061356 
L 279.354118 187.379805 
L 279.488555 188.319354 
L 279.623836 187.96589 
L 279.758273 188.540294 
L 279.892709 187.248087 
L 280.027991 188.939879 
L 280.296863 186.239658 
L 280.432145 187.626122 
L 280.567427 187.544956 
L 280.701863 187.015465 
L 280.836299 187.232982 
L 280.971581 188.694167 
L 281.106017 188.029534 
L 281.375735 190.696524 
L 281.510171 190.182541 
L 281.644608 191.620968 
L 281.779044 188.973514 
L 281.914326 191.833449 
L 282.048762 191.589146 
L 282.184044 192.428597 
L 282.31848 189.853246 
L 282.588198 191.724288 
L 282.857916 192.642287 
L 282.992352 190.760168 
L 283.126788 191.98289 
L 283.26207 191.811496 
L 283.66707 194.194506 
L 283.936788 193.424539 
L 284.071224 194.214647 
L 284.206506 193.522623 
L 284.340942 188.213416 
L 284.476224 167.25835 
L 284.611505 166.313766 
L 284.880378 168.809764 
L 285.014814 169.21519 
L 285.285378 172.738549 
L 285.420659 172.029003 
L 285.962632 175.997868 
L 286.23235 180.306098 
L 286.366786 179.523846 
L 286.635658 183.166637 
L 286.770095 181.958818 
L 286.905376 183.551319 
L 287.039813 183.652021 
L 287.175094 182.577934 
L 287.448194 186.610644 
L 287.583476 188.154404 
L 287.718758 187.528642 
L 287.853194 189.952739 
L 287.98763 188.955992 
L 288.122067 186.727659 
L 288.256503 189.90984 
L 288.525375 188.692153 
L 288.659812 189.510255 
L 288.92953 192.53655 
L 289.064811 192.898271 
L 289.198402 192.11481 
L 289.333684 192.465051 
L 289.46812 193.615672 
L 289.603402 192.174023 
L 289.87312 192.75467 
L 290.142838 191.548261 
L 290.277274 193.213468 
L 290.41171 192.57099 
L 290.546992 194.835776 
L 290.681428 193.701268 
L 290.815864 195.265169 
L 290.951146 195.265169 
L 291.086428 193.787066 
L 291.220864 195.280677 
L 291.490582 193.913145 
L 291.894736 195.38722 
L 292.030018 194.068428 
L 292.164454 194.950778 
L 292.435018 194.069032 
L 292.569454 194.281513 
L 292.704736 193.973566 
L 292.974454 194.716747 
L 293.10889 193.996325 
L 293.244172 194.032779 
L 293.378608 195.054702 
L 293.513044 194.926005 
L 293.782762 192.251966 
L 293.918044 195.719335 
L 294.453252 191.84513 
L 294.587689 193.947585 
L 294.857407 192.654774 
L 294.991843 191.072746 
L 295.127125 194.529642 
L 295.262406 191.088254 
L 295.396843 192.546821 
L 295.534661 192.400602 
L 295.665715 192.509159 
L 295.800151 193.375195 
L 295.935433 193.266034 
L 296.069869 191.140217 
L 296.205151 191.18372 
L 296.474869 192.683977 
L 296.609305 192.55528 
L 296.742896 193.45052 
L 296.877332 192.780047 
L 297.012614 190.775071 
L 297.147896 168.086724 
L 297.283177 166.326052 
L 297.553741 168.180981 
L 297.689023 168.227707 
L 297.823459 168.876026 
L 297.958741 170.09754 
L 298.093177 169.647806 
L 298.769586 176.23774 
L 298.904022 175.455488 
L 299.310713 180.781613 
L 299.580431 181.28049 
L 299.714867 183.063317 
L 299.850149 181.951165 
L 299.984585 182.56303 
L 300.119021 185.093065 
L 300.254303 184.386742 
L 300.389584 184.455018 
L 300.524021 185.914189 
L 300.659302 185.443105 
L 300.793739 185.773811 
L 300.928175 185.685394 
L 301.062611 186.324046 
L 301.197893 187.933464 
L 301.333175 186.890595 
L 301.602893 187.493598 
L 301.871765 189.298982 
L 302.006201 188.295387 
L 302.140638 188.877444 
L 302.275074 191.273546 
L 302.410356 188.28431 
L 302.680919 190.522511 
L 302.81451 189.412171 
L 302.949792 191.211715 
L 303.084228 190.845966 
L 303.353946 189.089925 
L 303.489228 191.652789 
L 303.624509 190.934986 
L 303.758945 193.105516 
L 303.893382 192.526681 
L 304.028663 193.842251 
L 304.297536 190.938813 
L 304.432818 166.795725 
L 304.567254 163.39925 
L 304.702536 165.495663 
L 304.836972 165.697873 
L 304.972254 165.358709 
L 305.241972 167.743733 
L 305.91838 173.280326 
L 306.052817 174.811599 
L 306.188098 174.827309 
L 306.457816 177.660457 
L 306.591407 178.249161 
L 306.996407 182.619625 
L 307.135071 182.423457 
L 307.404789 183.739631 
L 307.539225 183.900755 
L 307.808943 185.701708 
L 307.943379 186.291016 
L 308.078661 185.997973 
L 308.211406 187.731456 
L 308.346688 187.427941 
L 308.481124 189.288107 
L 308.750842 188.443419 
L 308.885278 190.845966 
L 309.02056 187.566909 
L 309.290278 190.014973 
L 309.559996 189.052867 
L 309.695278 191.626204 
L 309.829714 191.052606 
L 309.964996 192.627383 
L 310.099432 190.47498 
L 310.099432 190.47498 
" clip-path="url(#p60d53a9069)" style="fill: none; stroke: #1f77b4; stroke-width: 1.5; stroke-linecap: square"/>
   </g>
   <g id="patch_3">
    <path d="M 43.78125 198.8355 
L 43.78125 35.7555 
" style="fill: none; stroke: #000000; stroke-width: 0.8; stroke-linejoin: miter; stroke-linecap: square"/>
   </g>
   <g id="patch_4">
    <path d="M 322.78125 198.8355 
L 322.78125 35.7555 
" style="fill: none; stroke: #000000; stroke-width: 0.8; stroke-linejoin: miter; stroke-linecap: square"/>
   </g>
   <g id="patch_5">
    <path d="M 43.78125 198.8355 
L 322.78125 198.8355 
" style="fill: none; stroke: #000000; stroke-width: 0.8; stroke-linejoin: miter; stroke-linecap: square"/>
   </g>
   <g id="patch_6">
    <path d="M 43.78125 35.7555 
L 322.78125 35.7555 
" style="fill: none; stroke: #000000; stroke-width: 0.8; stroke-linejoin: miter; stroke-linecap: square"/>
   </g>
   <g id="text_16">
    <!-- After equalize -->
    <g transform="translate(141.814687 16.318125)scale(0.12 -0.12)">
     <defs>
      <path id="DejaVuSans-41" d="M 2188 4044 
L 1331 1722 
L 3047 1722 
L 2188 4044 
z
M 1831 4666 
L 2547 4666 
L 4325 0 
L 3669 0 
L 3244 1197 
L 1141 1197 
L 716 0 
L 50 0 
L 1831 4666 
z
" transform="scale(0.015625)"/>
      <path id="DejaVuSans-66" d="M 2375 4863 
L 2375 4384 
L 1825 4384 
Q 1516 4384 1395 4259 
Q 1275 4134 1275 3809 
L 1275 3500 
L 2222 3500 
L 2222 3053 
L 1275 3053 
L 1275 0 
L 697 0 
L 697 3053 
L 147 3053 
L 147 3500 
L 697 3500 
L 697 3744 
Q 697 4328 969 4595 
Q 1241 4863 1831 4863 
L 2375 4863 
z
" transform="scale(0.015625)"/>
      <path id="DejaVuSans-74" d="M 1172 4494 
L 1172 3500 
L 2356 3500 
L 2356 3053 
L 1172 3053 
L 1172 1153 
Q 1172 725 1289 603 
Q 1406 481 1766 481 
L 2356 481 
L 2356 0 
L 1766 0 
Q 1100 0 847 248 
Q 594 497 594 1153 
L 594 3053 
L 172 3053 
L 172 3500 
L 594 3500 
L 594 4494 
L 1172 4494 
z
" transform="scale(0.015625)"/>
      <path id="DejaVuSans-72" d="M 2631 2963 
Q 2534 3019 2420 3045 
Q 2306 3072 2169 3072 
Q 1681 3072 1420 2755 
Q 1159 2438 1159 1844 
L 1159 0 
L 581 0 
L 581 3500 
L 1159 3500 
L 1159 2956 
Q 1341 3275 1631 3429 
Q 1922 3584 2338 3584 
Q 2397 3584 2469 3576 
Q 2541 3569 2628 3553 
L 2631 2963 
z
" transform="scale(0.015625)"/>
      <path id="DejaVuSans-71" d="M 947 1747 
Q 947 1113 1208 752 
Q 1469 391 1925 391 
Q 2381 391 2643 752 
Q 2906 1113 2906 1747 
Q 2906 2381 2643 2742 
Q 2381 3103 1925 3103 
Q 1469 3103 1208 2742 
Q 947 2381 947 1747 
z
M 2906 525 
Q 2725 213 2448 61 
Q 2172 -91 1784 -91 
Q 1150 -91 751 415 
Q 353 922 353 1747 
Q 353 2572 751 3078 
Q 1150 3584 1784 3584 
Q 2172 3584 2448 3432 
Q 2725 3281 2906 2969 
L 2906 3500 
L 3481 3500 
L 3481 -1331 
L 2906 -1331 
L 2906 525 
z
" transform="scale(0.015625)"/>
      <path id="DejaVuSans-75" d="M 544 1381 
L 544 3500 
L 1119 3500 
L 1119 1403 
Q 1119 906 1312 657 
Q 1506 409 1894 409 
Q 2359 409 2629 706 
Q 2900 1003 2900 1516 
L 2900 3500 
L 3475 3500 
L 3475 0 
L 2900 0 
L 2900 538 
Q 2691 219 2414 64 
Q 2138 -91 1772 -91 
Q 1169 -91 856 284 
Q 544 659 544 1381 
z
M 1991 3584 
L 1991 3584 
z
" transform="scale(0.015625)"/>
      <path id="DejaVuSans-61" d="M 2194 1759 
Q 1497 1759 1228 1600 
Q 959 1441 959 1056 
Q 959 750 1161 570 
Q 1363 391 1709 391 
Q 2188 391 2477 730 
Q 2766 1069 2766 1631 
L 2766 1759 
L 2194 1759 
z
M 3341 1997 
L 3341 0 
L 2766 0 
L 2766 531 
Q 2569 213 2275 61 
Q 1981 -91 1556 -91 
Q 1019 -91 701 211 
Q 384 513 384 1019 
Q 384 1609 779 1909 
Q 1175 2209 1959 2209 
L 2766 2209 
L 2766 2266 
Q 2766 2663 2505 2880 
Q 2244 3097 1772 3097 
Q 1472 3097 1187 3025 
Q 903 2953 641 2809 
L 641 3341 
Q 956 3463 1253 3523 
Q 1550 3584 1831 3584 
Q 2591 3584 2966 3190 
Q 3341 2797 3341 1997 
z
" transform="scale(0.015625)"/>
      <path id="DejaVuSans-6c" d="M 603 4863 
L 1178 4863 
L 1178 0 
L 603 0 
L 603 4863 
z
" transform="scale(0.015625)"/>
      <path id="DejaVuSans-7a" d="M 353 3500 
L 3084 3500 
L 3084 2975 
L 922 459 
L 3084 459 
L 3084 0 
L 275 0 
L 275 525 
L 2438 3041 
L 353 3041 
L 353 3500 
z
" transform="scale(0.015625)"/>
     </defs>
     <use xlink:href="#DejaVuSans-41"/>
     <use xlink:href="#DejaVuSans-66" x="64.783203"/>
     <use xlink:href="#DejaVuSans-74" x="98.238281"/>
     <use xlink:href="#DejaVuSans-65" x="137.447266"/>
     <use xlink:href="#DejaVuSans-72" x="198.970703"/>
     <use xlink:href="#DejaVuSans-20" x="240.083984"/>
     <use xlink:href="#DejaVuSans-65" x="271.871094"/>
     <use xlink:href="#DejaVuSans-71" x="333.394531"/>
     <use xlink:href="#DejaVuSans-75" x="396.871094"/>
     <use xlink:href="#DejaVuSans-61" x="460.25"/>
     <use xlink:href="#DejaVuSans-6c" x="521.529297"/>
     <use xlink:href="#DejaVuSans-69" x="549.3125"/>
     <use xlink:href="#DejaVuSans-7a" x="577.095703"/>
     <use xlink:href="#DejaVuSans-65" x="629.585938"/>
    </g>
    <!-- NTR_C3_005_crop - Intensity Equalized, ROI=10 -->
    <g transform="translate(39.185625 29.7555)scale(0.12 -0.12)">
     <defs>
      <path id="DejaVuSans-4e" d="M 628 4666 
L 1478 4666 
L 3547 763 
L 3547 4666 
L 4159 4666 
L 4159 0 
L 3309 0 
L 1241 3903 
L 1241 0 
L 628 0 
L 628 4666 
z
" transform="scale(0.015625)"/>
      <path id="DejaVuSans-52" d="M 2841 2188 
Q 3044 2119 3236 1894 
Q 3428 1669 3622 1275 
L 4263 0 
L 3584 0 
L 2988 1197 
Q 2756 1666 2539 1819 
Q 2322 1972 1947 1972 
L 1259 1972 
L 1259 0 
L 628 0 
L 628 4666 
L 2053 4666 
Q 2853 4666 3247 4331 
Q 3641 3997 3641 3322 
Q 3641 2881 3436 2590 
Q 3231 2300 2841 2188 
z
M 1259 4147 
L 1259 2491 
L 2053 2491 
Q 2509 2491 2742 2702 
Q 2975 2913 2975 3322 
Q 2975 3731 2742 3939 
Q 2509 4147 2053 4147 
L 1259 4147 
z
" transform="scale(0.015625)"/>
      <path id="DejaVuSans-5f" d="M 3263 -1063 
L 3263 -1509 
L -63 -1509 
L -63 -1063 
L 3263 -1063 
z
" transform="scale(0.015625)"/>
      <path id="DejaVuSans-43" d="M 4122 4306 
L 4122 3641 
Q 3803 3938 3442 4084 
Q 3081 4231 2675 4231 
Q 1875 4231 1450 3742 
Q 1025 3253 1025 2328 
Q 1025 1406 1450 917 
Q 1875 428 2675 428 
Q 3081 428 3442 575 
Q 3803 722 4122 1019 
L 4122 359 
Q 3791 134 3420 21 
Q 3050 -91 2638 -91 
Q 1578 -91 968 557 
Q 359 1206 359 2328 
Q 359 3453 968 4101 
Q 1578 4750 2638 4750 
Q 3056 4750 3426 4639 
Q 3797 4528 4122 4306 
z
" transform="scale(0.015625)"/>
      <path id="DejaVuSans-63" d="M 3122 3366 
L 3122 2828 
Q 2878 2963 2633 3030 
Q 2388 3097 2138 3097 
Q 1578 3097 1268 2742 
Q 959 2388 959 1747 
Q 959 1106 1268 751 
Q 1578 397 2138 397 
Q 2388 397 2633 464 
Q 2878 531 3122 666 
L 3122 134 
Q 2881 22 2623 -34 
Q 2366 -91 2075 -91 
Q 1284 -91 818 406 
Q 353 903 353 1747 
Q 353 2603 823 3093 
Q 1294 3584 2113 3584 
Q 2378 3584 2631 3529 
Q 2884 3475 3122 3366 
z
" transform="scale(0.015625)"/>
      <path id="DejaVuSans-6f" d="M 1959 3097 
Q 1497 3097 1228 2736 
Q 959 2375 959 1747 
Q 959 1119 1226 758 
Q 1494 397 1959 397 
Q 2419 397 2687 759 
Q 2956 1122 2956 1747 
Q 2956 2369 2687 2733 
Q 2419 3097 1959 3097 
z
M 1959 3584 
Q 2709 3584 3137 3096 
Q 3566 2609 3566 1747 
Q 3566 888 3137 398 
Q 2709 -91 1959 -91 
Q 1206 -91 779 398 
Q 353 888 353 1747 
Q 353 2609 779 3096 
Q 1206 3584 1959 3584 
z
" transform="scale(0.015625)"/>
      <path id="DejaVuSans-70" d="M 1159 525 
L 1159 -1331 
L 581 -1331 
L 581 3500 
L 1159 3500 
L 1159 2969 
Q 1341 3281 1617 3432 
Q 1894 3584 2278 3584 
Q 2916 3584 3314 3078 
Q 3713 2572 3713 1747 
Q 3713 922 3314 415 
Q 2916 -91 2278 -91 
Q 1894 -91 1617 61 
Q 1341 213 1159 525 
z
M 3116 1747 
Q 3116 2381 2855 2742 
Q 2594 3103 2138 3103 
Q 1681 3103 1420 2742 
Q 1159 2381 1159 1747 
Q 1159 1113 1420 752 
Q 1681 391 2138 391 
Q 2594 391 2855 752 
Q 3116 1113 3116 1747 
z
" transform="scale(0.015625)"/>
      <path id="DejaVuSans-49" d="M 628 4666 
L 1259 4666 
L 1259 0 
L 628 0 
L 628 4666 
z
" transform="scale(0.015625)"/>
      <path id="DejaVuSans-6e" d="M 3513 2113 
L 3513 0 
L 2938 0 
L 2938 2094 
Q 2938 2591 2744 2837 
Q 2550 3084 2163 3084 
Q 1697 3084 1428 2787 
Q 1159 2491 1159 1978 
L 1159 0 
L 581 0 
L 581 3500 
L 1159 3500 
L 1159 2956 
Q 1366 3272 1645 3428 
Q 1925 3584 2291 3584 
Q 2894 3584 3203 3211 
Q 3513 2838 3513 2113 
z
" transform="scale(0.015625)"/>
      <path id="DejaVuSans-79" d="M 2059 -325 
Q 1816 -950 1584 -1140 
Q 1353 -1331 966 -1331 
L 506 -1331 
L 506 -850 
L 844 -850 
Q 1081 -850 1212 -737 
Q 1344 -625 1503 -206 
L 1606 56 
L 191 3500 
L 800 3500 
L 1894 763 
L 2988 3500 
L 3597 3500 
L 2059 -325 
z
" transform="scale(0.015625)"/>
      <path id="DejaVuSans-45" d="M 628 4666 
L 3578 4666 
L 3578 4134 
L 1259 4134 
L 1259 2753 
L 3481 2753 
L 3481 2222 
L 1259 2222 
L 1259 531 
L 3634 531 
L 3634 0 
L 628 0 
L 628 4666 
z
" transform="scale(0.015625)"/>
      <path id="DejaVuSans-64" d="M 2906 2969 
L 2906 4863 
L 3481 4863 
L 3481 0 
L 2906 0 
L 2906 525 
Q 2725 213 2448 61 
Q 2172 -91 1784 -91 
Q 1150 -91 751 415 
Q 353 922 353 1747 
Q 353 2572 751 3078 
Q 1150 3584 1784 3584 
Q 2172 3584 2448 3432 
Q 2725 3281 2906 2969 
z
M 947 1747 
Q 947 1113 1208 752 
Q 1469 391 1925 391 
Q 2381 391 2643 752 
Q 2906 1113 2906 1747 
Q 2906 2381 2643 2742 
Q 2381 3103 1925 3103 
Q 1469 3103 1208 2742 
Q 947 2381 947 1747 
z
" transform="scale(0.015625)"/>
      <path id="DejaVuSans-2c" d="M 750 794 
L 1409 794 
L 1409 256 
L 897 -744 
L 494 -744 
L 750 256 
L 750 794 
z
" transform="scale(0.015625)"/>
      <path id="DejaVuSans-4f" d="M 2522 4238 
Q 1834 4238 1429 3725 
Q 1025 3213 1025 2328 
Q 1025 1447 1429 934 
Q 1834 422 2522 422 
Q 3209 422 3611 934 
Q 4013 1447 4013 2328 
Q 4013 3213 3611 3725 
Q 3209 4238 2522 4238 
z
M 2522 4750 
Q 3503 4750 4090 4092 
Q 4678 3434 4678 2328 
Q 4678 1225 4090 567 
Q 3503 -91 2522 -91 
Q 1538 -91 948 565 
Q 359 1222 359 2328 
Q 359 3434 948 4092 
Q 1538 4750 2522 4750 
z
" transform="scale(0.015625)"/>
      <path id="DejaVuSans-3d" d="M 678 2906 
L 4684 2906 
L 4684 2381 
L 678 2381 
L 678 2906 
z
M 678 1631 
L 4684 1631 
L 4684 1100 
L 678 1100 
L 678 1631 
z
" transform="scale(0.015625)"/>
     </defs>
     <use xlink:href="#DejaVuSans-4e"/>
     <use xlink:href="#DejaVuSans-54" x="74.804688"/>
     <use xlink:href="#DejaVuSans-52" x="135.888672"/>
     <use xlink:href="#DejaVuSans-5f" x="205.371094"/>
     <use xlink:href="#DejaVuSans-43" x="255.371094"/>
     <use xlink:href="#DejaVuSans-33" x="325.195312"/>
     <use xlink:href="#DejaVuSans-5f" x="388.818359"/>
     <use xlink:href="#DejaVuSans-30" x="438.818359"/>
     <use xlink:href="#DejaVuSans-30" x="502.441406"/>
     <use xlink:href="#DejaVuSans-35" x="566.064453"/>
     <use xlink:href="#DejaVuSans-5f" x="629.6875"/>
     <use xlink:href="#DejaVuSans-63" x="679.6875"/>
     <use xlink:href="#DejaVuSans-72" x="734.667969"/>
     <use xlink:href="#DejaVuSans-6f" x="773.53125"/>
     <use xlink:href="#DejaVuSans-70" x="834.712891"/>
     <use xlink:href="#DejaVuSans-20" x="898.189453"/>
     <use xlink:href="#DejaVuSans-2d" x="929.976562"/>
     <use xlink:href="#DejaVuSans-20" x="966.060547"/>
     <use xlink:href="#DejaVuSans-49" x="997.847656"/>
     <use xlink:href="#DejaVuSans-6e" x="1027.339844"/>
     <use xlink:href="#DejaVuSans-74" x="1090.71875"/>
     <use xlink:href="#DejaVuSans-65" x="1129.927734"/>
     <use xlink:href="#DejaVuSans-6e" x="1191.451172"/>
     <use xlink:href="#DejaVuSans-73" x="1254.830078"/>
     <use xlink:href="#DejaVuSans-69" x="1306.929688"/>
     <use xlink:href="#DejaVuSans-74" x="1334.712891"/>
     <use xlink:href="#DejaVuSans-79" x="1373.921875"/>
     <use xlink:href="#DejaVuSans-20" x="1433.101562"/>
     <use xlink:href="#DejaVuSans-45" x="1464.888672"/>
     <use xlink:href="#DejaVuSans-71" x="1528.072266"/>
     <use xlink:href="#DejaVuSans-75" x="1591.548828"/>
     <use xlink:href="#DejaVuSans-61" x="1654.927734"/>
     <use xlink:href="#DejaVuSans-6c" x="1716.207031"/>
     <use xlink:href="#DejaVuSans-69" x="1743.990234"/>
     <use xlink:href="#DejaVuSans-7a" x="1771.773438"/>
     <use xlink:href="#DejaVuSans-65" x="1824.263672"/>
     <use xlink:href="#DejaVuSans-64" x="1885.787109"/>
     <use xlink:href="#DejaVuSans-2c" x="1949.263672"/>
     <use xlink:href="#DejaVuSans-20" x="1981.050781"/>
     <use xlink:href="#DejaVuSans-52" x="2012.837891"/>
     <use xlink:href="#DejaVuSans-4f" x="2082.320312"/>
     <use xlink:href="#DejaVuSans-49" x="2161.03125"/>
     <use xlink:href="#DejaVuSans-3d" x="2190.523438"/>
     <use xlink:href="#DejaVuSans-31" x="2274.3125"/>
     <use xlink:href="#DejaVuSans-30" x="2337.935547"/>
    </g>
   </g>
  </g>
 </g>
 <defs>
  <clipPath id="p60d53a9069">
   <rect x="43.78125" y="35.7555" width="279" height="163.08"/>
  </clipPath>
 </defs>
</svg>
