<?xml version="1.0" encoding="utf-8" standalone="no"?>
<!DOCTYPE svg PUBLIC "-//W3C//DTD SVG 1.1//EN"
  "http://www.w3.org/Graphics/SVG/1.1/DTD/svg11.dtd">
<svg xmlns:xlink="http://www.w3.org/1999/xlink" width="330.759375pt" height="236.39175pt" viewBox="0 0 330.759375 236.39175" xmlns="http://www.w3.org/2000/svg" version="1.1">
 <metadata>
  <rdf:RDF xmlns:dc="http://purl.org/dc/elements/1.1/" xmlns:cc="http://creativecommons.org/ns#" xmlns:rdf="http://www.w3.org/1999/02/22-rdf-syntax-ns#">
   <cc:Work>
    <dc:type rdf:resource="http://purl.org/dc/dcmitype/StillImage"/>
    <dc:date>2025-01-27T16:06:41.327686</dc:date>
    <dc:format>image/svg+xml</dc:format>
    <dc:creator>
     <cc:Agent>
      <dc:title>Matplotlib v3.5.2, https://matplotlib.org/</dc:title>
     </cc:Agent>
    </dc:creator>
   </cc:Work>
  </rdf:RDF>
 </metadata>
 <defs>
  <style type="text/css">*{stroke-linejoin: round; stroke-linecap: butt}</style>
 </defs>
 <g id="figure_1">
  <g id="patch_1">
   <path d="M 0 236.39175 
L 330.759375 236.39175 
L 330.759375 0 
L 0 0 
L 0 236.39175 
z
" style="fill: none"/>
  </g>
  <g id="axes_1">
   <g id="patch_2">
    <path d="M 43.78125 198.8355 
L 322.78125 198.8355 
L 322.78125 35.7555 
L 43.78125 35.7555 
z
" style="fill: #ffffff"/>
   </g>
   <g id="matplotlib.axis_1">
    <g id="xtick_1">
     <g id="line2d_1">
      <defs>
       <path id="meb1cddd63f" d="M 0 0 
L 0 3.5 
" style="stroke: #000000; stroke-width: 0.8"/>
      </defs>
      <g>
       <use xlink:href="#meb1cddd63f" x="56.427557" y="198.8355" style="stroke: #000000; stroke-width: 0.8"/>
      </g>
     </g>
     <g id="text_1">
      <!-- 0 -->
      <g transform="translate(53.246307 213.433938)scale(0.1 -0.1)">
       <defs>
        <path id="DejaVuSans-30" d="M 2034 4250 
Q 1547 4250 1301 3770 
Q 1056 3291 1056 2328 
Q 1056 1369 1301 889 
Q 1547 409 2034 409 
Q 2525 409 2770 889 
Q 3016 1369 3016 2328 
Q 3016 3291 2770 3770 
Q 2525 4250 2034 4250 
z
M 2034 4750 
Q 2819 4750 3233 4129 
Q 3647 3509 3647 2328 
Q 3647 1150 3233 529 
Q 2819 -91 2034 -91 
Q 1250 -91 836 529 
Q 422 1150 422 2328 
Q 422 3509 836 4129 
Q 1250 4750 2034 4750 
z
" transform="scale(0.015625)"/>
       </defs>
       <use xlink:href="#DejaVuSans-30"/>
      </g>
     </g>
    </g>
    <g id="xtick_2">
     <g id="line2d_2">
      <g>
       <use xlink:href="#meb1cddd63f" x="98.703102" y="198.8355" style="stroke: #000000; stroke-width: 0.8"/>
      </g>
     </g>
     <g id="text_2">
      <!-- 50 -->
      <g transform="translate(92.340602 213.433938)scale(0.1 -0.1)">
       <defs>
        <path id="DejaVuSans-35" d="M 691 4666 
L 3169 4666 
L 3169 4134 
L 1269 4134 
L 1269 2991 
Q 1406 3038 1543 3061 
Q 1681 3084 1819 3084 
Q 2600 3084 3056 2656 
Q 3513 2228 3513 1497 
Q 3513 744 3044 326 
Q 2575 -91 1722 -91 
Q 1428 -91 1123 -41 
Q 819 9 494 109 
L 494 744 
Q 775 591 1075 516 
Q 1375 441 1709 441 
Q 2250 441 2565 725 
Q 2881 1009 2881 1497 
Q 2881 1984 2565 2268 
Q 2250 2553 1709 2553 
Q 1456 2553 1204 2497 
Q 953 2441 691 2322 
L 691 4666 
z
" transform="scale(0.015625)"/>
       </defs>
       <use xlink:href="#DejaVuSans-35"/>
       <use xlink:href="#DejaVuSans-30" x="63.623047"/>
      </g>
     </g>
    </g>
    <g id="xtick_3">
     <g id="line2d_3">
      <g>
       <use xlink:href="#meb1cddd63f" x="140.978648" y="198.8355" style="stroke: #000000; stroke-width: 0.8"/>
      </g>
     </g>
     <g id="text_3">
      <!-- 100 -->
      <g transform="translate(131.434898 213.433938)scale(0.1 -0.1)">
       <defs>
        <path id="DejaVuSans-31" d="M 794 531 
L 1825 531 
L 1825 4091 
L 703 3866 
L 703 4441 
L 1819 4666 
L 2450 4666 
L 2450 531 
L 3481 531 
L 3481 0 
L 794 0 
L 794 531 
z
" transform="scale(0.015625)"/>
       </defs>
       <use xlink:href="#DejaVuSans-31"/>
       <use xlink:href="#DejaVuSans-30" x="63.623047"/>
       <use xlink:href="#DejaVuSans-30" x="127.246094"/>
      </g>
     </g>
    </g>
    <g id="xtick_4">
     <g id="line2d_4">
      <g>
       <use xlink:href="#meb1cddd63f" x="183.254194" y="198.8355" style="stroke: #000000; stroke-width: 0.8"/>
      </g>
     </g>
     <g id="text_4">
      <!-- 150 -->
      <g transform="translate(173.710444 213.433938)scale(0.1 -0.1)">
       <use xlink:href="#DejaVuSans-31"/>
       <use xlink:href="#DejaVuSans-35" x="63.623047"/>
       <use xlink:href="#DejaVuSans-30" x="127.246094"/>
      </g>
     </g>
    </g>
    <g id="xtick_5">
     <g id="line2d_5">
      <g>
       <use xlink:href="#meb1cddd63f" x="225.529739" y="198.8355" style="stroke: #000000; stroke-width: 0.8"/>
      </g>
     </g>
     <g id="text_5">
      <!-- 200 -->
      <g transform="translate(215.985989 213.433938)scale(0.1 -0.1)">
       <defs>
        <path id="DejaVuSans-32" d="M 1228 531 
L 3431 531 
L 3431 0 
L 469 0 
L 469 531 
Q 828 903 1448 1529 
Q 2069 2156 2228 2338 
Q 2531 2678 2651 2914 
Q 2772 3150 2772 3378 
Q 2772 3750 2511 3984 
Q 2250 4219 1831 4219 
Q 1534 4219 1204 4116 
Q 875 4013 500 3803 
L 500 4441 
Q 881 4594 1212 4672 
Q 1544 4750 1819 4750 
Q 2544 4750 2975 4387 
Q 3406 4025 3406 3419 
Q 3406 3131 3298 2873 
Q 3191 2616 2906 2266 
Q 2828 2175 2409 1742 
Q 1991 1309 1228 531 
z
" transform="scale(0.015625)"/>
       </defs>
       <use xlink:href="#DejaVuSans-32"/>
       <use xlink:href="#DejaVuSans-30" x="63.623047"/>
       <use xlink:href="#DejaVuSans-30" x="127.246094"/>
      </g>
     </g>
    </g>
    <g id="xtick_6">
     <g id="line2d_6">
      <g>
       <use xlink:href="#meb1cddd63f" x="267.805285" y="198.8355" style="stroke: #000000; stroke-width: 0.8"/>
      </g>
     </g>
     <g id="text_6">
      <!-- 250 -->
      <g transform="translate(258.261535 213.433938)scale(0.1 -0.1)">
       <use xlink:href="#DejaVuSans-32"/>
       <use xlink:href="#DejaVuSans-35" x="63.623047"/>
       <use xlink:href="#DejaVuSans-30" x="127.246094"/>
      </g>
     </g>
    </g>
    <g id="xtick_7">
     <g id="line2d_7">
      <g>
       <use xlink:href="#meb1cddd63f" x="310.080831" y="198.8355" style="stroke: #000000; stroke-width: 0.8"/>
      </g>
     </g>
     <g id="text_7">
      <!-- 300 -->
      <g transform="translate(300.537081 213.433938)scale(0.1 -0.1)">
       <defs>
        <path id="DejaVuSans-33" d="M 2597 2516 
Q 3050 2419 3304 2112 
Q 3559 1806 3559 1356 
Q 3559 666 3084 287 
Q 2609 -91 1734 -91 
Q 1441 -91 1130 -33 
Q 819 25 488 141 
L 488 750 
Q 750 597 1062 519 
Q 1375 441 1716 441 
Q 2309 441 2620 675 
Q 2931 909 2931 1356 
Q 2931 1769 2642 2001 
Q 2353 2234 1838 2234 
L 1294 2234 
L 1294 2753 
L 1863 2753 
Q 2328 2753 2575 2939 
Q 2822 3125 2822 3475 
Q 2822 3834 2567 4026 
Q 2313 4219 1838 4219 
Q 1578 4219 1281 4162 
Q 984 4106 628 3988 
L 628 4550 
Q 988 4650 1302 4700 
Q 1616 4750 1894 4750 
Q 2613 4750 3031 4423 
Q 3450 4097 3450 3541 
Q 3450 3153 3228 2886 
Q 3006 2619 2597 2516 
z
" transform="scale(0.015625)"/>
       </defs>
       <use xlink:href="#DejaVuSans-33"/>
       <use xlink:href="#DejaVuSans-30" x="63.623047"/>
       <use xlink:href="#DejaVuSans-30" x="127.246094"/>
      </g>
     </g>
    </g>
    <g id="text_8">
     <!-- Time [s] -->
     <g transform="translate(162.952344 227.112063)scale(0.1 -0.1)">
      <defs>
       <path id="DejaVuSans-54" d="M -19 4666 
L 3928 4666 
L 3928 4134 
L 2272 4134 
L 2272 0 
L 1638 0 
L 1638 4134 
L -19 4134 
L -19 4666 
z
" transform="scale(0.015625)"/>
       <path id="DejaVuSans-69" d="M 603 3500 
L 1178 3500 
L 1178 0 
L 603 0 
L 603 3500 
z
M 603 4863 
L 1178 4863 
L 1178 4134 
L 603 4134 
L 603 4863 
z
" transform="scale(0.015625)"/>
       <path id="DejaVuSans-6d" d="M 3328 2828 
Q 3544 3216 3844 3400 
Q 4144 3584 4550 3584 
Q 5097 3584 5394 3201 
Q 5691 2819 5691 2113 
L 5691 0 
L 5113 0 
L 5113 2094 
Q 5113 2597 4934 2840 
Q 4756 3084 4391 3084 
Q 3944 3084 3684 2787 
Q 3425 2491 3425 1978 
L 3425 0 
L 2847 0 
L 2847 2094 
Q 2847 2600 2669 2842 
Q 2491 3084 2119 3084 
Q 1678 3084 1418 2786 
Q 1159 2488 1159 1978 
L 1159 0 
L 581 0 
L 581 3500 
L 1159 3500 
L 1159 2956 
Q 1356 3278 1631 3431 
Q 1906 3584 2284 3584 
Q 2666 3584 2933 3390 
Q 3200 3197 3328 2828 
z
" transform="scale(0.015625)"/>
       <path id="DejaVuSans-65" d="M 3597 1894 
L 3597 1613 
L 953 1613 
Q 991 1019 1311 708 
Q 1631 397 2203 397 
Q 2534 397 2845 478 
Q 3156 559 3463 722 
L 3463 178 
Q 3153 47 2828 -22 
Q 2503 -91 2169 -91 
Q 1331 -91 842 396 
Q 353 884 353 1716 
Q 353 2575 817 3079 
Q 1281 3584 2069 3584 
Q 2775 3584 3186 3129 
Q 3597 2675 3597 1894 
z
M 3022 2063 
Q 3016 2534 2758 2815 
Q 2500 3097 2075 3097 
Q 1594 3097 1305 2825 
Q 1016 2553 972 2059 
L 3022 2063 
z
" transform="scale(0.015625)"/>
       <path id="DejaVuSans-20" transform="scale(0.015625)"/>
       <path id="DejaVuSans-5b" d="M 550 4863 
L 1875 4863 
L 1875 4416 
L 1125 4416 
L 1125 -397 
L 1875 -397 
L 1875 -844 
L 550 -844 
L 550 4863 
z
" transform="scale(0.015625)"/>
       <path id="DejaVuSans-73" d="M 2834 3397 
L 2834 2853 
Q 2591 2978 2328 3040 
Q 2066 3103 1784 3103 
Q 1356 3103 1142 2972 
Q 928 2841 928 2578 
Q 928 2378 1081 2264 
Q 1234 2150 1697 2047 
L 1894 2003 
Q 2506 1872 2764 1633 
Q 3022 1394 3022 966 
Q 3022 478 2636 193 
Q 2250 -91 1575 -91 
Q 1294 -91 989 -36 
Q 684 19 347 128 
L 347 722 
Q 666 556 975 473 
Q 1284 391 1588 391 
Q 1994 391 2212 530 
Q 2431 669 2431 922 
Q 2431 1156 2273 1281 
Q 2116 1406 1581 1522 
L 1381 1569 
Q 847 1681 609 1914 
Q 372 2147 372 2553 
Q 372 3047 722 3315 
Q 1072 3584 1716 3584 
Q 2034 3584 2315 3537 
Q 2597 3491 2834 3397 
z
" transform="scale(0.015625)"/>
       <path id="DejaVuSans-5d" d="M 1947 4863 
L 1947 -844 
L 622 -844 
L 622 -397 
L 1369 -397 
L 1369 4416 
L 622 4416 
L 622 4863 
L 1947 4863 
z
" transform="scale(0.015625)"/>
      </defs>
      <use xlink:href="#DejaVuSans-54"/>
      <use xlink:href="#DejaVuSans-69" x="57.958984"/>
      <use xlink:href="#DejaVuSans-6d" x="85.742188"/>
      <use xlink:href="#DejaVuSans-65" x="183.154297"/>
      <use xlink:href="#DejaVuSans-20" x="244.677734"/>
      <use xlink:href="#DejaVuSans-5b" x="276.464844"/>
      <use xlink:href="#DejaVuSans-73" x="315.478516"/>
      <use xlink:href="#DejaVuSans-5d" x="367.578125"/>
     </g>
    </g>
   </g>
   <g id="matplotlib.axis_2">
    <g id="ytick_1">
     <g id="line2d_8">
      <defs>
       <path id="m203da91a88" d="M 0 0 
L -3.5 0 
" style="stroke: #000000; stroke-width: 0.8"/>
      </defs>
      <g>
       <use xlink:href="#m203da91a88" x="43.78125" y="195.923357" style="stroke: #000000; stroke-width: 0.8"/>
      </g>
     </g>
     <g id="text_9">
      <!-- 0.0 -->
      <g transform="translate(20.878125 199.722576)scale(0.1 -0.1)">
       <defs>
        <path id="DejaVuSans-2e" d="M 684 794 
L 1344 794 
L 1344 0 
L 684 0 
L 684 794 
z
" transform="scale(0.015625)"/>
       </defs>
       <use xlink:href="#DejaVuSans-30"/>
       <use xlink:href="#DejaVuSans-2e" x="63.623047"/>
       <use xlink:href="#DejaVuSans-30" x="95.410156"/>
      </g>
     </g>
    </g>
    <g id="ytick_2">
     <g id="line2d_9">
      <g>
       <use xlink:href="#m203da91a88" x="43.78125" y="166.801929" style="stroke: #000000; stroke-width: 0.8"/>
      </g>
     </g>
     <g id="text_10">
      <!-- 0.2 -->
      <g transform="translate(20.878125 170.601147)scale(0.1 -0.1)">
       <use xlink:href="#DejaVuSans-30"/>
       <use xlink:href="#DejaVuSans-2e" x="63.623047"/>
       <use xlink:href="#DejaVuSans-32" x="95.410156"/>
      </g>
     </g>
    </g>
    <g id="ytick_3">
     <g id="line2d_10">
      <g>
       <use xlink:href="#m203da91a88" x="43.78125" y="137.6805" style="stroke: #000000; stroke-width: 0.8"/>
      </g>
     </g>
     <g id="text_11">
      <!-- 0.4 -->
      <g transform="translate(20.878125 141.479719)scale(0.1 -0.1)">
       <defs>
        <path id="DejaVuSans-34" d="M 2419 4116 
L 825 1625 
L 2419 1625 
L 2419 4116 
z
M 2253 4666 
L 3047 4666 
L 3047 1625 
L 3713 1625 
L 3713 1100 
L 3047 1100 
L 3047 0 
L 2419 0 
L 2419 1100 
L 313 1100 
L 313 1709 
L 2253 4666 
z
" transform="scale(0.015625)"/>
       </defs>
       <use xlink:href="#DejaVuSans-30"/>
       <use xlink:href="#DejaVuSans-2e" x="63.623047"/>
       <use xlink:href="#DejaVuSans-34" x="95.410156"/>
      </g>
     </g>
    </g>
    <g id="ytick_4">
     <g id="line2d_11">
      <g>
       <use xlink:href="#m203da91a88" x="43.78125" y="108.559071" style="stroke: #000000; stroke-width: 0.8"/>
      </g>
     </g>
     <g id="text_12">
      <!-- 0.6 -->
      <g transform="translate(20.878125 112.35829)scale(0.1 -0.1)">
       <defs>
        <path id="DejaVuSans-36" d="M 2113 2584 
Q 1688 2584 1439 2293 
Q 1191 2003 1191 1497 
Q 1191 994 1439 701 
Q 1688 409 2113 409 
Q 2538 409 2786 701 
Q 3034 994 3034 1497 
Q 3034 2003 2786 2293 
Q 2538 2584 2113 2584 
z
M 3366 4563 
L 3366 3988 
Q 3128 4100 2886 4159 
Q 2644 4219 2406 4219 
Q 1781 4219 1451 3797 
Q 1122 3375 1075 2522 
Q 1259 2794 1537 2939 
Q 1816 3084 2150 3084 
Q 2853 3084 3261 2657 
Q 3669 2231 3669 1497 
Q 3669 778 3244 343 
Q 2819 -91 2113 -91 
Q 1303 -91 875 529 
Q 447 1150 447 2328 
Q 447 3434 972 4092 
Q 1497 4750 2381 4750 
Q 2619 4750 2861 4703 
Q 3103 4656 3366 4563 
z
" transform="scale(0.015625)"/>
       </defs>
       <use xlink:href="#DejaVuSans-30"/>
       <use xlink:href="#DejaVuSans-2e" x="63.623047"/>
       <use xlink:href="#DejaVuSans-36" x="95.410156"/>
      </g>
     </g>
    </g>
    <g id="ytick_5">
     <g id="line2d_12">
      <g>
       <use xlink:href="#m203da91a88" x="43.78125" y="79.437643" style="stroke: #000000; stroke-width: 0.8"/>
      </g>
     </g>
     <g id="text_13">
      <!-- 0.8 -->
      <g transform="translate(20.878125 83.236862)scale(0.1 -0.1)">
       <defs>
        <path id="DejaVuSans-38" d="M 2034 2216 
Q 1584 2216 1326 1975 
Q 1069 1734 1069 1313 
Q 1069 891 1326 650 
Q 1584 409 2034 409 
Q 2484 409 2743 651 
Q 3003 894 3003 1313 
Q 3003 1734 2745 1975 
Q 2488 2216 2034 2216 
z
M 1403 2484 
Q 997 2584 770 2862 
Q 544 3141 544 3541 
Q 544 4100 942 4425 
Q 1341 4750 2034 4750 
Q 2731 4750 3128 4425 
Q 3525 4100 3525 3541 
Q 3525 3141 3298 2862 
Q 3072 2584 2669 2484 
Q 3125 2378 3379 2068 
Q 3634 1759 3634 1313 
Q 3634 634 3220 271 
Q 2806 -91 2034 -91 
Q 1263 -91 848 271 
Q 434 634 434 1313 
Q 434 1759 690 2068 
Q 947 2378 1403 2484 
z
M 1172 3481 
Q 1172 3119 1398 2916 
Q 1625 2713 2034 2713 
Q 2441 2713 2670 2916 
Q 2900 3119 2900 3481 
Q 2900 3844 2670 4047 
Q 2441 4250 2034 4250 
Q 1625 4250 1398 4047 
Q 1172 3844 1172 3481 
z
" transform="scale(0.015625)"/>
       </defs>
       <use xlink:href="#DejaVuSans-30"/>
       <use xlink:href="#DejaVuSans-2e" x="63.623047"/>
       <use xlink:href="#DejaVuSans-38" x="95.410156"/>
      </g>
     </g>
    </g>
    <g id="ytick_6">
     <g id="line2d_13">
      <g>
       <use xlink:href="#m203da91a88" x="43.78125" y="50.316214" style="stroke: #000000; stroke-width: 0.8"/>
      </g>
     </g>
     <g id="text_14">
      <!-- 1.0 -->
      <g transform="translate(20.878125 54.115433)scale(0.1 -0.1)">
       <use xlink:href="#DejaVuSans-31"/>
       <use xlink:href="#DejaVuSans-2e" x="63.623047"/>
       <use xlink:href="#DejaVuSans-30" x="95.410156"/>
      </g>
     </g>
    </g>
    <g id="text_15">
     <!-- (F-F$^o$)/F$^o$ -->
     <g transform="translate(14.798438 137.9955)rotate(-90)scale(0.1 -0.1)">
      <defs>
       <path id="DejaVuSans-28" d="M 1984 4856 
Q 1566 4138 1362 3434 
Q 1159 2731 1159 2009 
Q 1159 1288 1364 580 
Q 1569 -128 1984 -844 
L 1484 -844 
Q 1016 -109 783 600 
Q 550 1309 550 2009 
Q 550 2706 781 3412 
Q 1013 4119 1484 4856 
L 1984 4856 
z
" transform="scale(0.015625)"/>
       <path id="DejaVuSans-46" d="M 628 4666 
L 3309 4666 
L 3309 4134 
L 1259 4134 
L 1259 2759 
L 3109 2759 
L 3109 2228 
L 1259 2228 
L 1259 0 
L 628 0 
L 628 4666 
z
" transform="scale(0.015625)"/>
       <path id="DejaVuSans-2d" d="M 313 2009 
L 1997 2009 
L 1997 1497 
L 313 1497 
L 313 2009 
z
" transform="scale(0.015625)"/>
       <path id="DejaVuSans-Oblique-6f" d="M 1625 -91 
Q 1009 -91 651 289 
Q 294 669 294 1325 
Q 294 1706 417 2101 
Q 541 2497 738 2766 
Q 1047 3184 1428 3384 
Q 1809 3584 2291 3584 
Q 2888 3584 3255 3212 
Q 3622 2841 3622 2241 
Q 3622 1825 3500 1412 
Q 3378 1000 3181 728 
Q 2875 309 2494 109 
Q 2113 -91 1625 -91 
z
M 891 1344 
Q 891 869 1089 633 
Q 1288 397 1691 397 
Q 2269 397 2648 901 
Q 3028 1406 3028 2181 
Q 3028 2634 2825 2865 
Q 2622 3097 2228 3097 
Q 1903 3097 1650 2945 
Q 1397 2794 1197 2484 
Q 1050 2253 970 1956 
Q 891 1659 891 1344 
z
" transform="scale(0.015625)"/>
       <path id="DejaVuSans-29" d="M 513 4856 
L 1013 4856 
Q 1481 4119 1714 3412 
Q 1947 2706 1947 2009 
Q 1947 1309 1714 600 
Q 1481 -109 1013 -844 
L 513 -844 
Q 928 -128 1133 580 
Q 1338 1288 1338 2009 
Q 1338 2731 1133 3434 
Q 928 4138 513 4856 
z
" transform="scale(0.015625)"/>
       <path id="DejaVuSans-2f" d="M 1625 4666 
L 2156 4666 
L 531 -594 
L 0 -594 
L 1625 4666 
z
" transform="scale(0.015625)"/>
      </defs>
      <use xlink:href="#DejaVuSans-28" transform="translate(0 0.51875)"/>
      <use xlink:href="#DejaVuSans-46" transform="translate(39.013672 0.51875)"/>
      <use xlink:href="#DejaVuSans-2d" transform="translate(96.533203 0.51875)"/>
      <use xlink:href="#DejaVuSans-46" transform="translate(132.617188 0.51875)"/>
      <use xlink:href="#DejaVuSans-Oblique-6f" transform="translate(191.09375 38.8)scale(0.7)"/>
      <use xlink:href="#DejaVuSans-29" transform="translate(236.655273 0.51875)"/>
      <use xlink:href="#DejaVuSans-2f" transform="translate(275.668945 0.51875)"/>
      <use xlink:href="#DejaVuSans-46" transform="translate(309.360352 0.51875)"/>
      <use xlink:href="#DejaVuSans-Oblique-6f" transform="translate(367.836914 38.8)scale(0.7)"/>
     </g>
    </g>
   </g>
   <g id="line2d_14">
    <path d="M 56.463068 179.007121 
L 56.851158 179.523636 
L 56.985594 179.506599 
L 57.120876 179.938494 
L 57.389748 179.060375 
L 57.524184 179.3553 
L 57.658621 178.639424 
L 57.793902 178.925887 
L 57.928339 178.398767 
L 58.065311 179.363198 
L 58.335029 179.360603 
L 58.739184 178.066384 
L 58.874465 178.262474 
L 59.143338 176.381564 
L 59.277774 176.03677 
L 59.681928 174.271731 
L 59.816364 174.029269 
L 59.951646 174.105088 
L 60.086082 172.746445 
L 60.223055 172.802181 
L 60.491928 173.296582 
L 60.896927 172.327751 
L 61.031364 172.742271 
L 61.1658 171.857608 
L 61.301082 172.242455 
L 61.435518 169.414489 
L 62.10939 144.728539 
L 62.243826 143.803597 
L 62.513544 145.94299 
L 63.054671 153.725679 
L 63.324389 157.169333 
L 63.862134 163.004996 
L 64.397343 167.728879 
L 65.071215 175.327211 
L 65.205651 175.64425 
L 66.149241 182.57635 
L 66.283677 182.851418 
L 66.418114 183.476244 
L 66.55255 184.972421 
L 66.822268 184.706604 
L 66.956704 185.834744 
L 67.09114 186.008947 
L 67.226422 187.331146 
L 67.361704 187.25781 
L 67.49614 187.587598 
L 67.631422 188.536798 
L 67.765858 187.900914 
L 67.900294 188.555301 
L 68.034731 188.620852 
L 68.169167 187.581506 
L 68.302757 187.741943 
L 68.438039 186.995604 
L 68.573321 187.273154 
L 68.707757 185.974084 
L 68.843039 185.915302 
L 68.977475 186.011316 
L 69.111911 186.622265 
L 69.247193 186.398307 
L 69.516066 186.533133 
L 69.785784 185.252566 
L 69.92022 185.589801 
L 70.055502 185.441323 
L 70.189092 185.658737 
L 70.324374 185.255612 
L 70.594092 183.243373 
L 70.86381 183.451084 
L 70.999092 182.950704 
L 71.133528 184.106825 
L 71.267964 183.935218 
L 71.538528 182.814975 
L 71.672964 182.948673 
L 71.808246 183.819459 
L 71.942682 182.81757 
L 72.077964 183.60746 
L 72.2124 183.690838 
L 72.346836 183.446797 
L 72.481272 183.475567 
L 72.615709 183.248337 
L 72.75099 182.201544 
L 72.886272 183.064545 
L 73.15599 182.264275 
L 73.291272 182.593838 
L 73.425708 181.487473 
L 73.559299 181.381079 
L 73.830708 181.386833 
L 73.965144 181.327148 
L 74.100426 180.906084 
L 74.234862 180.964076 
L 74.369298 181.438055 
L 74.50458 181.175285 
L 74.773453 181.182957 
L 74.908734 180.936998 
L 75.04317 181.146966 
L 75.178452 181.737268 
L 75.312888 181.760284 
L 75.44817 181.048018 
L 75.582606 178.190153 
L 76.122042 159.058142 
L 76.526197 151.101927 
L 76.795915 153.290174 
L 77.200069 156.27068 
L 77.604223 144.630381 
L 77.738659 143.011676 
L 78.008377 146.109746 
L 78.143659 149.070507 
L 78.278095 149.087995 
L 78.412531 147.897914 
L 78.950276 155.810014 
L 79.084713 156.458421 
L 79.219149 155.127082 
L 79.488867 155.466122 
L 80.028303 164.531748 
L 80.162739 164.825094 
L 80.566893 171.182912 
L 80.70133 171.771071 
L 81.104638 176.684387 
L 81.914638 182.225463 
L 82.049074 182.211021 
L 82.322174 183.958573 
L 82.457456 184.173166 
L 82.860764 186.633322 
L 82.996046 187.265595 
L 83.129637 186.749645 
L 83.264073 187.111363 
L 83.399355 186.933437 
L 83.803509 188.424649 
L 83.937945 187.359353 
L 84.344636 189.53643 
L 84.479072 189.557754 
L 84.614354 190.474685 
L 84.74879 189.505854 
L 85.152944 191.077398 
L 85.287381 191.41452 
L 85.421817 190.548134 
L 85.691535 191.173976 
L 85.826817 190.681832 
L 86.095689 190.883225 
L 86.230971 190.688376 
L 86.364562 190.834485 
L 86.63428 188.989904 
L 86.769561 188.914311 
L 86.903998 188.28373 
L 87.043507 189.170199 
L 87.177943 188.930445 
L 87.312379 188.438075 
L 87.446816 188.567712 
L 87.582097 188.041269 
L 87.851815 188.457256 
L 87.986252 188.239052 
L 88.25597 187.36725 
L 88.390406 187.423099 
L 88.524842 187.233778 
L 88.659278 186.646861 
L 88.928996 186.677775 
L 89.063432 186.616849 
L 89.197869 187.892791 
L 89.467587 187.90396 
L 89.737305 188.65989 
L 90.006177 188.169551 
L 90.14315 188.111333 
L 90.412868 187.033965 
L 90.547304 187.160893 
L 90.815331 184.751283 
L 90.950613 185.16287 
L 91.221176 182.796246 
L 92.029485 153.542902 
L 92.164766 153.283743 
L 92.299203 151.254692 
L 92.568921 144.446137 
L 92.838639 146.561724 
L 93.107511 149.386418 
L 93.241947 147.287981 
L 93.512511 141.232647 
L 93.646102 141.846755 
L 94.320819 151.930177 
L 94.724974 145.615007 
L 95.534127 155.117041 
L 95.803 149.110673 
L 96.071872 150.324673 
L 96.34159 154.193002 
L 96.476027 154.982328 
L 97.284335 164.884891 
L 97.687644 168.397369 
L 97.820389 169.007415 
L 98.223698 172.458064 
L 98.628697 173.690342 
L 98.763134 173.586655 
L 99.032852 175.657 
L 99.571442 177.227866 
L 99.704187 178.072477 
L 99.839469 177.843554 
L 100.108342 176.207926 
L 100.243623 176.345798 
L 100.378059 176.926172 
L 100.512496 176.752985 
L 100.782214 178.225806 
L 100.91665 177.676798 
L 101.185522 179.344582 
L 101.45524 179.16722 
L 101.859395 178.437354 
L 101.993831 178.232689 
L 102.129113 178.508885 
L 102.262703 178.380377 
L 102.39714 178.632654 
L 102.666858 179.363085 
L 102.801294 179.566735 
L 102.933193 180.309802 
L 103.06763 179.499604 
L 103.202911 179.732362 
L 103.337348 179.632061 
L 103.472629 179.046723 
L 103.740656 179.728526 
L 103.875093 179.837854 
L 104.279247 181.363139 
L 104.550656 181.413347 
L 104.95481 182.147275 
L 105.089246 182.516891 
L 105.223683 182.4202 
L 105.763118 180.753093 
L 105.897555 181.793117 
L 106.167273 180.625487 
L 106.298327 179.300129 
L 106.432763 179.161354 
L 106.568045 179.448832 
L 106.699945 180.13639 
L 106.834381 179.541913 
L 106.968817 180.252826 
L 107.103253 180.161099 
L 107.238535 179.319309 
L 107.377199 180.007543 
L 107.512481 178.809226 
L 107.646917 179.44556 
L 108.187198 165.080418 
L 108.456916 158.095629 
L 108.591352 157.520333 
L 108.860225 159.199173 
L 109.264379 146.622537 
L 109.534097 148.7212 
L 109.803815 151.989862 
L 110.342406 140.713199 
L 110.747405 145.46619 
L 111.154096 138.93936 
L 111.289378 139.75881 
L 112.097686 153.012059 
L 112.642195 158.039893 
L 113.043813 163.390859 
L 113.71684 169.351645 
L 114.525148 176.582731 
L 114.794866 176.401421 
L 115.199866 178.954432 
L 115.334302 178.240022 
L 115.468738 178.368981 
L 115.605711 178.247243 
L 115.740993 177.274576 
L 115.875429 177.767284 
L 116.010711 177.530464 
L 116.145147 178.519039 
L 116.279583 178.574662 
L 116.414865 178.466463 
L 116.549301 178.63367 
L 116.819019 179.530067 
L 116.953455 179.556806 
L 117.088737 180.0793 
L 117.223173 179.915929 
L 117.492891 178.173681 
L 117.627328 178.311215 
L 117.897046 179.334089 
L 118.032327 179.143753 
L 118.166764 179.267861 
L 118.3012 179.236495 
L 118.436482 179.331494 
L 118.7062 175.480654 
L 119.243944 160.852402 
L 119.51789 160.175676 
L 119.786762 161.234203 
L 119.921199 159.238436 
L 120.189226 154.007178 
L 120.592534 157.190093 
L 121.265561 147.370456 
L 121.666333 151.976662 
L 121.936051 154.971835 
L 122.071333 154.954685 
L 122.340205 150.087176 
L 122.475487 150.593085 
L 122.879641 154.825275 
L 123.279568 157.796191 
L 123.95344 165.402872 
L 124.356749 169.467178 
L 124.492031 169.964061 
L 125.165057 174.614268 
L 125.43393 176.050422 
L 125.572594 176.102772 
L 125.842312 178.539573 
L 125.977593 178.48711 
L 126.516184 181.478108 
L 126.651466 182.339642 
L 126.785902 182.400004 
L 127.05562 183.737886 
L 127.593365 184.427926 
L 127.863083 185.210708 
L 128.401673 184.635186 
L 128.670546 185.224585 
L 129.0747 183.708777 
L 129.209136 183.644693 
L 129.344418 183.431001 
L 129.478854 183.585798 
L 129.747727 181.66788 
L 129.882163 181.70421 
L 130.019981 182.231217 
L 130.155263 181.117406 
L 130.289699 181.672845 
L 130.558572 180.437521 
L 131.098007 167.029926 
L 131.232444 166.290695 
L 131.769343 169.480604 
L 131.908852 168.196652 
L 132.313007 159.550962 
L 132.717161 153.128946 
L 134.335469 167.676979 
L 134.469905 168.031589 
L 134.605187 168.050205 
L 135.009341 169.609338 
L 135.279059 170.279859 
L 135.414341 171.207508 
L 135.548777 171.187425 
L 135.684059 170.923301 
L 135.952931 172.861076 
L 136.088213 173.070931 
L 136.222649 173.930547 
L 136.357085 173.499441 
L 136.895676 175.049887 
L 137.030112 174.829877 
L 137.164548 175.91819 
L 137.298985 175.235484 
L 137.434266 175.530184 
L 137.568702 175.453689 
L 137.703984 173.991021 
L 138.112366 166.193326 
L 138.381238 161.289149 
L 138.515675 160.885911 
L 138.650956 161.231721 
L 138.919829 163.52828 
L 139.323983 157.995214 
L 139.592856 159.71061 
L 139.997855 163.72877 
L 140.132292 164.295605 
L 140.40201 167.138351 
L 140.671728 169.510052 
L 140.807009 169.018246 
L 141.076727 165.459511 
L 141.212009 165.723409 
L 141.616163 168.121736 
L 141.750599 168.001352 
L 142.019472 163.430799 
L 142.153908 164.371988 
L 142.28919 164.46913 
L 142.423626 165.22709 
L 142.558062 164.457848 
L 142.826935 159.624186 
L 143.23278 162.63177 
L 143.367216 161.98844 
L 143.636934 158.740087 
L 143.772216 159.466456 
L 144.177216 155.800875 
L 144.312498 156.243714 
L 145.255242 165.545709 
L 145.52496 164.859393 
L 145.659396 166.43229 
L 145.794678 166.583363 
L 147.007141 174.251761 
L 147.142423 174.432507 
L 147.277704 174.80043 
L 147.412141 173.18071 
L 147.681859 167.995146 
L 147.81714 167.839335 
L 147.951577 168.456602 
L 148.221294 162.214768 
L 148.355731 162.314844 
L 148.630522 163.813277 
L 148.764958 163.538209 
L 149.03383 159.803917 
L 150.111857 166.128226 
L 150.245448 167.219698 
L 150.650447 162.373626 
L 150.921011 160.769476 
L 151.054602 161.430406 
L 151.459601 165.202946 
L 151.594038 166.053197 
L 151.999037 169.694972 
L 152.26791 171.333647 
L 152.402346 172.127937 
L 152.537628 173.643745 
L 152.672064 173.383006 
L 152.941782 175.51484 
L 153.076218 176.518421 
L 153.210654 176.609697 
L 153.346782 177.003118 
L 153.6165 178.191507 
L 153.750936 178.654317 
L 153.885372 178.61133 
L 154.155936 180.208711 
L 154.290372 179.831987 
L 154.424808 180.802398 
L 154.56009 180.452978 
L 154.694526 181.100031 
L 154.829808 182.478305 
L 154.964244 182.073487 
L 155.369244 183.195084 
L 155.50368 183.547437 
L 155.90868 181.748438 
L 156.043961 181.808912 
L 156.312834 182.909636 
L 156.44727 183.64977 
L 156.851424 183.380456 
L 156.986706 183.680571 
L 157.121142 183.595501 
L 157.255579 184.121605 
L 157.39086 184.192347 
L 157.659733 184.606077 
L 157.794169 185.429476 
L 158.065578 184.887915 
L 158.20086 185.395403 
L 158.335296 185.157567 
L 158.604168 185.64926 
L 158.874732 185.116273 
L 159.14445 185.69879 
L 159.278886 185.64328 
L 159.952758 175.235372 
L 160.087195 174.179327 
L 160.356913 176.063961 
L 160.491349 175.407092 
L 160.895503 167.246325 
L 161.300503 168.400528 
L 161.434939 167.532563 
L 161.974375 157.952115 
L 162.107966 157.835454 
L 162.381911 159.36796 
L 162.651629 162.989765 
L 162.786065 163.679579 
L 162.918811 165.499338 
L 163.053247 165.246045 
L 163.188529 164.674698 
L 163.457401 161.885544 
L 163.592683 161.71168 
L 163.862401 165.14642 
L 163.996837 164.33137 
L 164.403528 158.907068 
L 164.537964 159.294511 
L 164.807682 162.037971 
L 164.942118 162.511724 
L 165.346273 166.412546 
L 165.481554 167.101006 
L 165.751272 170.596559 
L 166.02099 172.27461 
L 166.155426 173.808696 
L 166.290708 173.813773 
L 166.560426 176.031693 
L 166.694862 177.007293 
L 166.830144 177.17292 
L 167.099017 179.156953 
L 167.233453 179.101895 
L 167.503171 180.238158 
L 167.773734 176.940388 
L 168.178734 171.050907 
L 168.31317 171.457981 
L 168.449298 170.768731 
L 168.713097 168.921442 
L 168.981124 169.899525 
L 169.117251 169.400611 
L 169.251687 166.746847 
L 169.386124 166.540151 
L 169.52056 167.256705 
L 169.789432 166.723944 
L 170.059996 162.506534 
L 170.328868 162.27716 
L 170.598586 165.815249 
L 170.733023 165.450597 
L 171.002741 164.724002 
L 171.138022 164.606777 
L 171.40774 162.350158 
L 171.542176 162.388632 
L 171.677458 162.826845 
L 172.218585 169.409412 
L 172.621894 171.936473 
L 173.163021 176.10627 
L 173.297457 176.070843 
L 173.568021 178.137125 
L 173.701611 177.922419 
L 174.646047 182.416589 
L 174.780483 182.568903 
L 175.050201 180.909582 
L 175.319919 177.335615 
L 175.588792 178.532917 
L 175.723228 177.902562 
L 175.857664 179.335781 
L 175.9921 178.47515 
L 176.127382 178.963119 
L 176.263509 179.997389 
L 176.533227 179.115095 
L 176.802945 179.92834 
L 176.938227 179.846316 
L 177.207945 176.169339 
L 177.342381 176.038462 
L 177.477663 176.373666 
L 177.612099 177.005262 
L 177.746536 176.317141 
L 178.016254 171.989162 
L 178.285972 172.770026 
L 178.55569 170.213969 
L 178.959844 172.628881 
L 179.633716 166.783741 
L 180.038716 170.843647 
L 180.173152 170.428675 
L 180.308434 168.758184 
L 180.44287 168.553293 
L 180.579843 168.790452 
L 180.715124 169.901217 
L 180.849561 169.758267 
L 181.120124 167.708344 
L 181.388997 169.779591 
L 182.202378 177.67646 
L 182.33766 178.113658 
L 182.741814 181.459492 
L 182.87625 181.341702 
L 183.282096 184.071962 
L 183.551813 184.837707 
L 183.820686 186.766343 
L 183.955122 186.720197 
L 184.090404 187.686885 
L 184.225686 187.528703 
L 184.360967 188.340933 
L 184.495404 187.82408 
L 184.62984 189.347447 
L 184.765122 189.594196 
L 184.900403 189.492315 
L 185.170967 185.183065 
L 185.44153 183.235926 
L 185.575967 183.451987 
L 185.711248 184.617359 
L 185.845685 184.70243 
L 186.25153 186.676534 
L 186.521248 187.815505 
L 186.790966 184.162899 
L 186.927093 184.353461 
L 187.062375 183.983168 
L 187.332938 179.99942 
L 187.737093 181.388863 
L 187.872374 181.302214 
L 188.00681 180.29254 
L 188.277374 176.621543 
L 188.412656 176.804997 
L 188.682374 178.251982 
L 188.81681 179.302272 
L 189.086528 177.690112 
L 189.22181 177.94002 
L 189.625964 181.088861 
L 189.895682 181.860248 
L 190.435118 185.494689 
L 190.839272 182.485525 
L 190.973708 182.950478 
L 191.10899 182.788687 
L 191.243426 181.509925 
L 191.648426 183.455484 
L 191.916453 184.420592 
L 192.455043 181.185214 
L 192.590325 181.544788 
L 192.994479 184.369595 
L 193.128916 183.367142 
L 193.263352 183.334874 
L 193.400325 183.182786 
L 193.535606 183.727958 
L 193.80617 185.481263 
L 193.941452 185.771449 
L 194.210324 187.383272 
L 194.345606 188.057854 
L 194.615324 190.376076 
L 194.74976 190.235382 
L 195.15476 191.53513 
L 195.289196 191.647165 
L 195.423632 191.53434 
L 195.558914 191.696696 
L 196.233632 194.20153 
L 196.368913 194.045944 
L 196.50335 195.481872 
L 196.638631 195.27653 
L 196.773068 195.89752 
L 196.907504 195.923357 
L 197.178067 193.42721 
L 197.313349 191.508277 
L 197.583067 191.082249 
L 197.718349 191.79632 
L 197.852785 191.733251 
L 197.988067 191.532873 
L 198.121658 191.585788 
L 198.256094 192.284628 
L 198.39053 191.931034 
L 198.794684 188.13796 
L 199.064402 185.105329 
L 199.33412 183.003958 
L 199.468556 179.547893 
L 199.602993 179.506035 
L 199.872711 180.168996 
L 200.007992 181.381191 
L 200.142429 181.508345 
L 200.27771 182.159235 
L 200.547428 178.732956 
L 200.681019 178.622726 
L 200.815455 178.667517 
L 200.949892 179.496896 
L 201.220455 181.736591 
L 201.354891 182.849274 
L 201.490173 183.019866 
L 201.624609 182.873532 
L 201.759045 181.904701 
L 201.893482 181.840052 
L 202.028763 181.63031 
L 202.298481 182.663564 
L 202.432918 182.482592 
L 202.569045 183.487978 
L 202.703481 183.528482 
L 202.972354 182.405984 
L 203.10679 183.074022 
L 203.241226 183.148261 
L 203.51179 185.272649 
L 204.051226 180.993975 
L 204.320944 182.024973 
L 204.456225 181.191306 
L 204.725943 178.688728 
L 204.995661 177.508124 
L 205.130097 177.796393 
L 205.939251 183.788432 
L 206.074533 184.216491 
L 206.344251 185.658398 
L 206.616506 185.242299 
L 206.885378 182.399552 
L 207.02066 183.655637 
L 207.155096 183.776924 
L 207.694532 187.502866 
L 207.829814 188.16831 
L 208.36925 184.535787 
L 208.503686 185.047111 
L 208.77425 186.788005 
L 208.910377 187.844502 
L 209.045659 187.915581 
L 209.313685 189.689195 
L 209.448122 190.891913 
L 209.583403 190.392548 
L 209.718685 190.671678 
L 209.987558 187.464957 
L 210.122839 187.047842 
L 210.258121 187.608132 
L 210.393403 187.63239 
L 210.933684 190.147153 
L 211.203402 186.773338 
L 211.608402 184.020739 
L 211.742838 184.026606 
L 212.147838 185.957273 
L 212.28312 185.720678 
L 212.417556 184.84978 
L 212.551992 184.955158 
L 212.892733 186.90162 
L 213.162451 189.000397 
L 213.296887 190.059036 
L 213.432169 189.998336 
L 213.701887 191.40256 
L 214.241323 187.322008 
L 214.376605 188.091815 
L 214.511041 187.942998 
L 215.590759 191.739118 
L 215.725195 191.498913 
L 215.859631 192.533972 
L 215.994067 192.294106 
L 216.535194 187.760898 
L 216.670476 188.269514 
L 216.804912 187.536037 
L 217.073785 185.324436 
L 217.343503 185.786794 
L 217.478784 185.863966 
L 218.017375 187.746456 
L 218.152657 188.981781 
L 218.421529 189.392916 
L 218.690402 190.091079 
L 218.825683 190.819705 
L 218.96012 190.869122 
L 219.229837 188.763125 
L 219.364274 188.387642 
L 219.769273 189.997885 
L 220.038991 188.878997 
L 220.446528 185.532373 
L 220.580964 185.249068 
L 220.7154 185.937754 
L 220.850682 185.355011 
L 221.1204 182.366156 
L 221.254836 182.476387 
L 221.389272 182.797487 
L 221.794272 184.843461 
L 221.929554 185.403752 
L 222.199272 187.167211 
L 222.333708 187.577331 
L 222.468144 187.501738 
L 222.872298 184.372416 
L 223.006735 184.859144 
L 223.276453 186.410041 
L 223.546171 186.700904 
L 223.949479 183.796443 
L 224.084761 181.102738 
L 224.219197 181.155089 
L 224.488915 183.089479 
L 224.762015 183.682376 
L 224.896452 185.128458 
L 225.031733 183.929238 
L 225.301451 185.641362 
L 225.435888 186.118726 
L 225.840042 183.77117 
L 225.974478 183.844055 
L 226.243351 184.537028 
L 226.512223 181.841067 
L 226.646659 181.717185 
L 226.781941 182.95093 
L 226.916377 182.969433 
L 227.050813 183.878015 
L 227.320531 182.47334 
L 227.455813 182.190149 
L 228.397712 187.959696 
L 228.532994 188.21784 
L 228.66743 188.915326 
L 228.801867 188.801937 
L 229.206866 187.37402 
L 229.475739 188.762561 
L 229.745457 187.920997 
L 230.014329 184.549777 
L 230.148765 184.699496 
L 230.284047 185.068999 
L 230.418483 185.033121 
L 230.689892 186.130008 
L 230.825174 187.051452 
L 231.229328 184.721384 
L 231.36461 184.632027 
L 232.037637 188.812317 
L 232.172073 188.927624 
L 232.576227 190.38025 
L 232.710663 189.878516 
L 232.8451 187.947962 
L 232.980381 187.728066 
L 233.114818 187.041862 
L 233.38369 188.137622 
L 233.653408 189.187687 
L 234.192844 186.998312 
L 234.32728 188.570984 
L 234.462562 188.298962 
L 234.597844 187.463829 
L 234.867562 187.890534 
L 235.405307 185.694954 
L 235.541434 186.138132 
L 235.946434 183.197002 
L 236.081715 183.831757 
L 236.216152 183.625851 
L 236.351433 184.136385 
L 236.621997 181.079045 
L 236.757279 181.255504 
L 237.026997 182.748972 
L 237.161433 183.103808 
L 237.564742 186.100899 
L 237.700023 185.868028 
L 237.835305 184.944327 
L 238.105023 184.840302 
L 238.239459 186.297892 
L 238.378123 186.216545 
L 238.782277 184.477907 
L 239.05115 185.554261 
L 239.186432 185.206646 
L 239.321713 184.056731 
L 239.591431 183.989487 
L 239.859458 185.819626 
L 240.264458 183.661729 
L 240.398894 183.71848 
L 241.072766 186.570478 
L 241.476921 183.038595 
L 241.88192 182.647994 
L 242.016357 180.51977 
L 242.151638 180.581373 
L 242.555793 182.411738 
L 242.959947 182.126854 
L 243.094383 182.836976 
L 243.229665 184.580353 
L 243.364101 184.730862 
L 243.499383 185.102847 
L 243.769101 181.93144 
L 243.903537 182.323057 
L 244.173255 183.564812 
L 244.442127 184.241877 
L 244.576564 183.682151 
L 244.715227 182.372023 
L 244.850509 182.996173 
L 244.9841 183.066237 
L 245.253818 184.704461 
L 245.792408 186.742198 
L 246.061281 188.177336 
L 246.196563 188.652895 
L 246.330999 188.63834 
L 246.599871 189.564298 
L 246.735153 189.721012 
L 247.004871 190.757425 
L 247.139307 190.835839 
L 247.273743 191.144642 
L 247.409025 192.190532 
L 247.814025 189.089077 
L 247.948461 190.176826 
L 248.082897 190.068627 
L 248.487052 191.68327 
L 248.622333 192.290721 
L 249.161769 186.626552 
L 249.430642 187.749164 
L 249.70036 185.11018 
L 249.834796 185.535645 
L 249.970078 185.512064 
L 250.104514 183.252512 
L 250.374232 182.636598 
L 250.508668 183.630025 
L 250.64395 183.433032 
L 250.778386 184.563203 
L 250.912822 184.405699 
L 251.317822 182.544195 
L 251.721976 185.798076 
L 251.856413 185.274454 
L 252.126131 183.073909 
L 252.260567 183.163493 
L 252.934439 186.361977 
L 253.068875 186.114438 
L 253.473875 184.406376 
L 253.608311 184.887576 
L 253.742747 184.254175 
L 253.877184 182.941904 
L 254.012465 182.775938 
L 254.551056 184.963846 
L 254.685492 185.238237 
L 255.088801 182.024521 
L 255.224083 182.053517 
L 255.358519 183.214941 
L 255.498028 183.35868 
L 255.902182 185.201118 
L 256.844927 189.621387 
L 256.9819 189.461965 
L 257.386899 191.007672 
L 257.521336 191.37898 
L 257.656617 192.385833 
L 257.791899 190.993907 
L 258.196053 190.439935 
L 258.331335 190.534708 
L 258.871617 187.00384 
L 259.006053 187.915356 
L 259.140489 187.602604 
L 259.544643 189.774604 
L 259.679925 189.247597 
L 260.084079 190.665811 
L 260.219361 190.393789 
L 260.353797 189.807323 
L 260.62267 187.311966 
L 260.757951 187.158749 
L 260.893233 186.521738 
L 261.297387 187.297412 
L 261.431824 188.599641 
L 261.69816 186.776723 
L 261.967878 186.922719 
L 262.23675 187.552735 
L 262.371186 187.531073 
L 262.506468 188.191214 
L 262.776186 187.38282 
L 263.045058 185.27987 
L 263.179495 185.409506 
L 263.582803 183.297191 
L 263.852521 180.678967 
L 263.987803 181.057834 
L 264.123085 181.020376 
L 264.257521 180.857795 
L 264.391957 182.051374 
L 264.662521 182.173789 
L 264.796957 182.244982 
L 265.066675 180.411909 
L 265.201111 180.425561 
L 265.335548 181.234293 
L 265.470829 181.264417 
L 265.874984 178.820057 
L 266.279983 179.545524 
L 266.414419 180.2482 
L 266.684137 179.164738 
L 266.819419 178.932431 
L 266.954701 179.301708 
L 267.494137 182.416815 
L 268.032727 178.306138 
L 268.167164 178.831452 
L 268.437727 177.233395 
L 268.573009 177.322414 
L 268.702372 177.369349 
L 268.971244 175.19577 
L 269.240962 177.09225 
L 269.51068 175.389717 
L 269.645962 175.067488 
L 269.780398 175.70653 
L 269.914835 175.557826 
L 270.454271 178.860674 
L 270.992861 182.402599 
L 271.397015 180.276519 
L 271.532297 180.382913 
L 271.667579 181.537003 
L 271.802861 181.242642 
L 272.070887 182.667964 
L 272.205324 182.604895 
L 272.475887 181.389879 
L 272.610323 182.391993 
L 272.880041 182.511926 
L 273.014478 181.980407 
L 273.148914 180.884196 
L 273.28335 180.752529 
L 273.691732 181.395182 
L 273.960604 180.140564 
L 274.095886 180.175089 
L 274.50004 182.189359 
L 274.634477 181.000406 
L 274.768913 181.859571 
L 275.038631 181.853478 
L 275.177295 181.509022 
L 275.311731 181.740991 
L 275.447013 181.418988 
L 275.716731 182.378793 
L 275.851167 182.526142 
L 276.390603 185.254822 
L 276.525039 185.434102 
L 276.794757 187.348747 
L 277.063629 188.045782 
L 277.60222 190.118157 
L 277.871092 190.850844 
L 278.14081 189.653768 
L 278.276092 190.057457 
L 278.409683 189.442559 
L 278.544965 189.415707 
L 278.814683 190.079458 
L 278.949964 190.763066 
L 279.084401 188.113928 
L 279.218837 188.187152 
L 279.354118 187.837394 
L 279.623836 188.941728 
L 279.758273 189.296337 
L 280.027991 187.585342 
L 280.162427 186.584017 
L 280.567427 187.737994 
L 280.701863 189.05004 
L 280.836299 188.966323 
L 281.106017 190.965249 
L 281.241299 190.947423 
L 281.375735 191.112938 
L 281.510171 192.493581 
L 281.779044 189.58235 
L 281.914326 189.737033 
L 282.184044 190.977999 
L 282.31848 190.256142 
L 282.588198 192.486698 
L 282.722634 191.733025 
L 282.857916 193.10295 
L 282.992352 192.861504 
L 283.397352 193.621721 
L 283.531788 193.487233 
L 283.66707 194.07212 
L 283.801506 193.875127 
L 284.071224 191.228471 
L 284.340942 190.857163 
L 284.476224 191.625277 
L 284.611505 191.665669 
L 284.880378 191.383944 
L 285.014814 190.707105 
L 285.150096 190.647533 
L 285.285378 191.705835 
L 285.420659 190.993681 
L 285.555096 192.128929 
L 285.689532 192.12137 
L 285.824814 193.172676 
L 285.962632 193.008967 
L 286.097068 193.404194 
L 286.23235 192.318363 
L 286.366786 192.260032 
L 286.635658 192.604262 
L 286.905376 190.891913 
L 287.039813 189.48972 
L 287.448194 191.334188 
L 287.98763 188.511299 
L 288.256503 188.837026 
L 288.659812 190.511353 
L 289.064811 186.885035 
L 289.198402 187.407303 
L 289.333684 187.237276 
L 289.46812 187.306438 
L 289.737838 186.364911 
L 289.87312 186.70192 
L 290.007556 186.271266 
L 290.277274 187.202864 
L 290.681428 188.869632 
L 290.815864 188.918598 
L 290.951146 188.711113 
L 291.086428 186.691088 
L 291.220864 186.628583 
L 291.3553 188.296141 
L 291.490582 187.950557 
L 291.625018 188.050746 
L 291.7603 188.581589 
L 292.030018 187.732353 
L 292.164454 187.268867 
L 292.300582 187.535811 
L 292.435018 188.186701 
L 292.704736 186.155394 
L 293.244172 187.96184 
L 293.648326 184.576629 
L 294.05248 185.838919 
L 294.187762 186.206391 
L 294.453252 187.312079 
L 294.857407 183.526677 
L 294.991843 183.699751 
L 295.127125 184.652561 
L 295.396843 184.671064 
L 295.800151 186.879732 
L 295.935433 186.97586 
L 296.069869 188.247401 
L 296.474869 187.273154 
L 296.609305 187.54495 
L 296.742896 188.213102 
L 296.877332 188.256427 
L 297.012614 186.733398 
L 297.147896 187.28139 
L 297.283177 186.771984 
L 297.553741 187.450628 
L 297.689023 187.042314 
L 297.823459 185.297922 
L 297.958741 185.708831 
L 298.093177 185.418983 
L 298.499022 187.454803 
L 298.769586 188.179367 
L 298.904022 187.984631 
L 299.17374 187.123661 
L 299.445994 186.940658 
L 299.580431 187.841455 
L 299.714867 187.458865 
L 299.850149 187.986549 
L 299.984585 189.036726 
L 300.254303 187.20828 
L 300.389584 186.962208 
L 300.659302 187.610615 
L 300.793739 188.459851 
L 300.928175 188.293659 
L 301.062611 189.009648 
L 301.333175 188.83319 
L 301.467611 187.428853 
L 301.602893 187.59606 
L 301.871765 187.41317 
L 302.006201 187.840891 
L 302.410356 185.229662 
L 302.680919 186.18958 
L 302.949792 187.300909 
L 303.084228 187.317495 
L 303.21951 188.241534 
L 303.353946 186.221848 
L 303.489228 186.326888 
L 303.624509 186.94032 
L 303.758945 186.616962 
L 303.893382 186.92915 
L 304.297536 188.709195 
L 304.432818 188.428824 
L 304.567254 189.578965 
L 304.972254 186.947202 
L 305.107535 186.861906 
L 305.241972 186.348551 
L 305.376408 187.65597 
L 305.51169 186.905005 
L 305.647817 187.744425 
L 305.783099 187.610276 
L 306.052817 185.842191 
L 306.188098 185.697662 
L 306.457816 186.173446 
L 306.591407 186.936371 
L 306.726689 186.817566 
L 306.861125 187.389816 
L 307.135071 185.593185 
L 307.269507 185.847832 
L 307.539225 187.344685 
L 307.673661 187.242014 
L 307.808943 188.562635 
L 307.943379 188.308326 
L 308.211406 186.609177 
L 308.750842 187.738784 
L 309.02056 186.917078 
L 309.154996 187.714301 
L 309.290278 187.563002 
L 309.559996 189.229206 
L 309.695278 189.715371 
L 309.829714 189.379264 
L 310.099432 190.930612 
L 310.099432 190.930612 
" clip-path="url(#p524b237680)" style="fill: none; stroke: #1f77b4; stroke-width: 1.5; stroke-linecap: square"/>
   </g>
   <g id="patch_3">
    <path d="M 43.78125 198.8355 
L 43.78125 35.7555 
" style="fill: none; stroke: #000000; stroke-width: 0.8; stroke-linejoin: miter; stroke-linecap: square"/>
   </g>
   <g id="patch_4">
    <path d="M 322.78125 198.8355 
L 322.78125 35.7555 
" style="fill: none; stroke: #000000; stroke-width: 0.8; stroke-linejoin: miter; stroke-linecap: square"/>
   </g>
   <g id="patch_5">
    <path d="M 43.78125 198.8355 
L 322.78125 198.8355 
" style="fill: none; stroke: #000000; stroke-width: 0.8; stroke-linejoin: miter; stroke-linecap: square"/>
   </g>
   <g id="patch_6">
    <path d="M 43.78125 35.7555 
L 322.78125 35.7555 
" style="fill: none; stroke: #000000; stroke-width: 0.8; stroke-linejoin: miter; stroke-linecap: square"/>
   </g>
   <g id="text_16">
    <!-- After equalize -->
    <g transform="translate(141.814687 16.318125)scale(0.12 -0.12)">
     <defs>
      <path id="DejaVuSans-41" d="M 2188 4044 
L 1331 1722 
L 3047 1722 
L 2188 4044 
z
M 1831 4666 
L 2547 4666 
L 4325 0 
L 3669 0 
L 3244 1197 
L 1141 1197 
L 716 0 
L 50 0 
L 1831 4666 
z
" transform="scale(0.015625)"/>
      <path id="DejaVuSans-66" d="M 2375 4863 
L 2375 4384 
L 1825 4384 
Q 1516 4384 1395 4259 
Q 1275 4134 1275 3809 
L 1275 3500 
L 2222 3500 
L 2222 3053 
L 1275 3053 
L 1275 0 
L 697 0 
L 697 3053 
L 147 3053 
L 147 3500 
L 697 3500 
L 697 3744 
Q 697 4328 969 4595 
Q 1241 4863 1831 4863 
L 2375 4863 
z
" transform="scale(0.015625)"/>
      <path id="DejaVuSans-74" d="M 1172 4494 
L 1172 3500 
L 2356 3500 
L 2356 3053 
L 1172 3053 
L 1172 1153 
Q 1172 725 1289 603 
Q 1406 481 1766 481 
L 2356 481 
L 2356 0 
L 1766 0 
Q 1100 0 847 248 
Q 594 497 594 1153 
L 594 3053 
L 172 3053 
L 172 3500 
L 594 3500 
L 594 4494 
L 1172 4494 
z
" transform="scale(0.015625)"/>
      <path id="DejaVuSans-72" d="M 2631 2963 
Q 2534 3019 2420 3045 
Q 2306 3072 2169 3072 
Q 1681 3072 1420 2755 
Q 1159 2438 1159 1844 
L 1159 0 
L 581 0 
L 581 3500 
L 1159 3500 
L 1159 2956 
Q 1341 3275 1631 3429 
Q 1922 3584 2338 3584 
Q 2397 3584 2469 3576 
Q 2541 3569 2628 3553 
L 2631 2963 
z
" transform="scale(0.015625)"/>
      <path id="DejaVuSans-71" d="M 947 1747 
Q 947 1113 1208 752 
Q 1469 391 1925 391 
Q 2381 391 2643 752 
Q 2906 1113 2906 1747 
Q 2906 2381 2643 2742 
Q 2381 3103 1925 3103 
Q 1469 3103 1208 2742 
Q 947 2381 947 1747 
z
M 2906 525 
Q 2725 213 2448 61 
Q 2172 -91 1784 -91 
Q 1150 -91 751 415 
Q 353 922 353 1747 
Q 353 2572 751 3078 
Q 1150 3584 1784 3584 
Q 2172 3584 2448 3432 
Q 2725 3281 2906 2969 
L 2906 3500 
L 3481 3500 
L 3481 -1331 
L 2906 -1331 
L 2906 525 
z
" transform="scale(0.015625)"/>
      <path id="DejaVuSans-75" d="M 544 1381 
L 544 3500 
L 1119 3500 
L 1119 1403 
Q 1119 906 1312 657 
Q 1506 409 1894 409 
Q 2359 409 2629 706 
Q 2900 1003 2900 1516 
L 2900 3500 
L 3475 3500 
L 3475 0 
L 2900 0 
L 2900 538 
Q 2691 219 2414 64 
Q 2138 -91 1772 -91 
Q 1169 -91 856 284 
Q 544 659 544 1381 
z
M 1991 3584 
L 1991 3584 
z
" transform="scale(0.015625)"/>
      <path id="DejaVuSans-61" d="M 2194 1759 
Q 1497 1759 1228 1600 
Q 959 1441 959 1056 
Q 959 750 1161 570 
Q 1363 391 1709 391 
Q 2188 391 2477 730 
Q 2766 1069 2766 1631 
L 2766 1759 
L 2194 1759 
z
M 3341 1997 
L 3341 0 
L 2766 0 
L 2766 531 
Q 2569 213 2275 61 
Q 1981 -91 1556 -91 
Q 1019 -91 701 211 
Q 384 513 384 1019 
Q 384 1609 779 1909 
Q 1175 2209 1959 2209 
L 2766 2209 
L 2766 2266 
Q 2766 2663 2505 2880 
Q 2244 3097 1772 3097 
Q 1472 3097 1187 3025 
Q 903 2953 641 2809 
L 641 3341 
Q 956 3463 1253 3523 
Q 1550 3584 1831 3584 
Q 2591 3584 2966 3190 
Q 3341 2797 3341 1997 
z
" transform="scale(0.015625)"/>
      <path id="DejaVuSans-6c" d="M 603 4863 
L 1178 4863 
L 1178 0 
L 603 0 
L 603 4863 
z
" transform="scale(0.015625)"/>
      <path id="DejaVuSans-7a" d="M 353 3500 
L 3084 3500 
L 3084 2975 
L 922 459 
L 3084 459 
L 3084 0 
L 275 0 
L 275 525 
L 2438 3041 
L 353 3041 
L 353 3500 
z
" transform="scale(0.015625)"/>
     </defs>
     <use xlink:href="#DejaVuSans-41"/>
     <use xlink:href="#DejaVuSans-66" x="64.783203"/>
     <use xlink:href="#DejaVuSans-74" x="98.238281"/>
     <use xlink:href="#DejaVuSans-65" x="137.447266"/>
     <use xlink:href="#DejaVuSans-72" x="198.970703"/>
     <use xlink:href="#DejaVuSans-20" x="240.083984"/>
     <use xlink:href="#DejaVuSans-65" x="271.871094"/>
     <use xlink:href="#DejaVuSans-71" x="333.394531"/>
     <use xlink:href="#DejaVuSans-75" x="396.871094"/>
     <use xlink:href="#DejaVuSans-61" x="460.25"/>
     <use xlink:href="#DejaVuSans-6c" x="521.529297"/>
     <use xlink:href="#DejaVuSans-69" x="549.3125"/>
     <use xlink:href="#DejaVuSans-7a" x="577.095703"/>
     <use xlink:href="#DejaVuSans-65" x="629.585938"/>
    </g>
    <!-- NTR_C3_005_crop - Intensity Equalized, ROI=7 -->
    <g transform="translate(43.003125 29.7555)scale(0.12 -0.12)">
     <defs>
      <path id="DejaVuSans-4e" d="M 628 4666 
L 1478 4666 
L 3547 763 
L 3547 4666 
L 4159 4666 
L 4159 0 
L 3309 0 
L 1241 3903 
L 1241 0 
L 628 0 
L 628 4666 
z
" transform="scale(0.015625)"/>
      <path id="DejaVuSans-52" d="M 2841 2188 
Q 3044 2119 3236 1894 
Q 3428 1669 3622 1275 
L 4263 0 
L 3584 0 
L 2988 1197 
Q 2756 1666 2539 1819 
Q 2322 1972 1947 1972 
L 1259 1972 
L 1259 0 
L 628 0 
L 628 4666 
L 2053 4666 
Q 2853 4666 3247 4331 
Q 3641 3997 3641 3322 
Q 3641 2881 3436 2590 
Q 3231 2300 2841 2188 
z
M 1259 4147 
L 1259 2491 
L 2053 2491 
Q 2509 2491 2742 2702 
Q 2975 2913 2975 3322 
Q 2975 3731 2742 3939 
Q 2509 4147 2053 4147 
L 1259 4147 
z
" transform="scale(0.015625)"/>
      <path id="DejaVuSans-5f" d="M 3263 -1063 
L 3263 -1509 
L -63 -1509 
L -63 -1063 
L 3263 -1063 
z
" transform="scale(0.015625)"/>
      <path id="DejaVuSans-43" d="M 4122 4306 
L 4122 3641 
Q 3803 3938 3442 4084 
Q 3081 4231 2675 4231 
Q 1875 4231 1450 3742 
Q 1025 3253 1025 2328 
Q 1025 1406 1450 917 
Q 1875 428 2675 428 
Q 3081 428 3442 575 
Q 3803 722 4122 1019 
L 4122 359 
Q 3791 134 3420 21 
Q 3050 -91 2638 -91 
Q 1578 -91 968 557 
Q 359 1206 359 2328 
Q 359 3453 968 4101 
Q 1578 4750 2638 4750 
Q 3056 4750 3426 4639 
Q 3797 4528 4122 4306 
z
" transform="scale(0.015625)"/>
      <path id="DejaVuSans-63" d="M 3122 3366 
L 3122 2828 
Q 2878 2963 2633 3030 
Q 2388 3097 2138 3097 
Q 1578 3097 1268 2742 
Q 959 2388 959 1747 
Q 959 1106 1268 751 
Q 1578 397 2138 397 
Q 2388 397 2633 464 
Q 2878 531 3122 666 
L 3122 134 
Q 2881 22 2623 -34 
Q 2366 -91 2075 -91 
Q 1284 -91 818 406 
Q 353 903 353 1747 
Q 353 2603 823 3093 
Q 1294 3584 2113 3584 
Q 2378 3584 2631 3529 
Q 2884 3475 3122 3366 
z
" transform="scale(0.015625)"/>
      <path id="DejaVuSans-6f" d="M 1959 3097 
Q 1497 3097 1228 2736 
Q 959 2375 959 1747 
Q 959 1119 1226 758 
Q 1494 397 1959 397 
Q 2419 397 2687 759 
Q 2956 1122 2956 1747 
Q 2956 2369 2687 2733 
Q 2419 3097 1959 3097 
z
M 1959 3584 
Q 2709 3584 3137 3096 
Q 3566 2609 3566 1747 
Q 3566 888 3137 398 
Q 2709 -91 1959 -91 
Q 1206 -91 779 398 
Q 353 888 353 1747 
Q 353 2609 779 3096 
Q 1206 3584 1959 3584 
z
" transform="scale(0.015625)"/>
      <path id="DejaVuSans-70" d="M 1159 525 
L 1159 -1331 
L 581 -1331 
L 581 3500 
L 1159 3500 
L 1159 2969 
Q 1341 3281 1617 3432 
Q 1894 3584 2278 3584 
Q 2916 3584 3314 3078 
Q 3713 2572 3713 1747 
Q 3713 922 3314 415 
Q 2916 -91 2278 -91 
Q 1894 -91 1617 61 
Q 1341 213 1159 525 
z
M 3116 1747 
Q 3116 2381 2855 2742 
Q 2594 3103 2138 3103 
Q 1681 3103 1420 2742 
Q 1159 2381 1159 1747 
Q 1159 1113 1420 752 
Q 1681 391 2138 391 
Q 2594 391 2855 752 
Q 3116 1113 3116 1747 
z
" transform="scale(0.015625)"/>
      <path id="DejaVuSans-49" d="M 628 4666 
L 1259 4666 
L 1259 0 
L 628 0 
L 628 4666 
z
" transform="scale(0.015625)"/>
      <path id="DejaVuSans-6e" d="M 3513 2113 
L 3513 0 
L 2938 0 
L 2938 2094 
Q 2938 2591 2744 2837 
Q 2550 3084 2163 3084 
Q 1697 3084 1428 2787 
Q 1159 2491 1159 1978 
L 1159 0 
L 581 0 
L 581 3500 
L 1159 3500 
L 1159 2956 
Q 1366 3272 1645 3428 
Q 1925 3584 2291 3584 
Q 2894 3584 3203 3211 
Q 3513 2838 3513 2113 
z
" transform="scale(0.015625)"/>
      <path id="DejaVuSans-79" d="M 2059 -325 
Q 1816 -950 1584 -1140 
Q 1353 -1331 966 -1331 
L 506 -1331 
L 506 -850 
L 844 -850 
Q 1081 -850 1212 -737 
Q 1344 -625 1503 -206 
L 1606 56 
L 191 3500 
L 800 3500 
L 1894 763 
L 2988 3500 
L 3597 3500 
L 2059 -325 
z
" transform="scale(0.015625)"/>
      <path id="DejaVuSans-45" d="M 628 4666 
L 3578 4666 
L 3578 4134 
L 1259 4134 
L 1259 2753 
L 3481 2753 
L 3481 2222 
L 1259 2222 
L 1259 531 
L 3634 531 
L 3634 0 
L 628 0 
L 628 4666 
z
" transform="scale(0.015625)"/>
      <path id="DejaVuSans-64" d="M 2906 2969 
L 2906 4863 
L 3481 4863 
L 3481 0 
L 2906 0 
L 2906 525 
Q 2725 213 2448 61 
Q 2172 -91 1784 -91 
Q 1150 -91 751 415 
Q 353 922 353 1747 
Q 353 2572 751 3078 
Q 1150 3584 1784 3584 
Q 2172 3584 2448 3432 
Q 2725 3281 2906 2969 
z
M 947 1747 
Q 947 1113 1208 752 
Q 1469 391 1925 391 
Q 2381 391 2643 752 
Q 2906 1113 2906 1747 
Q 2906 2381 2643 2742 
Q 2381 3103 1925 3103 
Q 1469 3103 1208 2742 
Q 947 2381 947 1747 
z
" transform="scale(0.015625)"/>
      <path id="DejaVuSans-2c" d="M 750 794 
L 1409 794 
L 1409 256 
L 897 -744 
L 494 -744 
L 750 256 
L 750 794 
z
" transform="scale(0.015625)"/>
      <path id="DejaVuSans-4f" d="M 2522 4238 
Q 1834 4238 1429 3725 
Q 1025 3213 1025 2328 
Q 1025 1447 1429 934 
Q 1834 422 2522 422 
Q 3209 422 3611 934 
Q 4013 1447 4013 2328 
Q 4013 3213 3611 3725 
Q 3209 4238 2522 4238 
z
M 2522 4750 
Q 3503 4750 4090 4092 
Q 4678 3434 4678 2328 
Q 4678 1225 4090 567 
Q 3503 -91 2522 -91 
Q 1538 -91 948 565 
Q 359 1222 359 2328 
Q 359 3434 948 4092 
Q 1538 4750 2522 4750 
z
" transform="scale(0.015625)"/>
      <path id="DejaVuSans-3d" d="M 678 2906 
L 4684 2906 
L 4684 2381 
L 678 2381 
L 678 2906 
z
M 678 1631 
L 4684 1631 
L 4684 1100 
L 678 1100 
L 678 1631 
z
" transform="scale(0.015625)"/>
      <path id="DejaVuSans-37" d="M 525 4666 
L 3525 4666 
L 3525 4397 
L 1831 0 
L 1172 0 
L 2766 4134 
L 525 4134 
L 525 4666 
z
" transform="scale(0.015625)"/>
     </defs>
     <use xlink:href="#DejaVuSans-4e"/>
     <use xlink:href="#DejaVuSans-54" x="74.804688"/>
     <use xlink:href="#DejaVuSans-52" x="135.888672"/>
     <use xlink:href="#DejaVuSans-5f" x="205.371094"/>
     <use xlink:href="#DejaVuSans-43" x="255.371094"/>
     <use xlink:href="#DejaVuSans-33" x="325.195312"/>
     <use xlink:href="#DejaVuSans-5f" x="388.818359"/>
     <use xlink:href="#DejaVuSans-30" x="438.818359"/>
     <use xlink:href="#DejaVuSans-30" x="502.441406"/>
     <use xlink:href="#DejaVuSans-35" x="566.064453"/>
     <use xlink:href="#DejaVuSans-5f" x="629.6875"/>
     <use xlink:href="#DejaVuSans-63" x="679.6875"/>
     <use xlink:href="#DejaVuSans-72" x="734.667969"/>
     <use xlink:href="#DejaVuSans-6f" x="773.53125"/>
     <use xlink:href="#DejaVuSans-70" x="834.712891"/>
     <use xlink:href="#DejaVuSans-20" x="898.189453"/>
     <use xlink:href="#DejaVuSans-2d" x="929.976562"/>
     <use xlink:href="#DejaVuSans-20" x="966.060547"/>
     <use xlink:href="#DejaVuSans-49" x="997.847656"/>
     <use xlink:href="#DejaVuSans-6e" x="1027.339844"/>
     <use xlink:href="#DejaVuSans-74" x="1090.71875"/>
     <use xlink:href="#DejaVuSans-65" x="1129.927734"/>
     <use xlink:href="#DejaVuSans-6e" x="1191.451172"/>
     <use xlink:href="#DejaVuSans-73" x="1254.830078"/>
     <use xlink:href="#DejaVuSans-69" x="1306.929688"/>
     <use xlink:href="#DejaVuSans-74" x="1334.712891"/>
     <use xlink:href="#DejaVuSans-79" x="1373.921875"/>
     <use xlink:href="#DejaVuSans-20" x="1433.101562"/>
     <use xlink:href="#DejaVuSans-45" x="1464.888672"/>
     <use xlink:href="#DejaVuSans-71" x="1528.072266"/>
     <use xlink:href="#DejaVuSans-75" x="1591.548828"/>
     <use xlink:href="#DejaVuSans-61" x="1654.927734"/>
     <use xlink:href="#DejaVuSans-6c" x="1716.207031"/>
     <use xlink:href="#DejaVuSans-69" x="1743.990234"/>
     <use xlink:href="#DejaVuSans-7a" x="1771.773438"/>
     <use xlink:href="#DejaVuSans-65" x="1824.263672"/>
     <use xlink:href="#DejaVuSans-64" x="1885.787109"/>
     <use xlink:href="#DejaVuSans-2c" x="1949.263672"/>
     <use xlink:href="#DejaVuSans-20" x="1981.050781"/>
     <use xlink:href="#DejaVuSans-52" x="2012.837891"/>
     <use xlink:href="#DejaVuSans-4f" x="2082.320312"/>
     <use xlink:href="#DejaVuSans-49" x="2161.03125"/>
     <use xlink:href="#DejaVuSans-3d" x="2190.523438"/>
     <use xlink:href="#DejaVuSans-37" x="2274.3125"/>
    </g>
   </g>
  </g>
 </g>
 <defs>
  <clipPath id="p524b237680">
   <rect x="43.78125" y="35.7555" width="279" height="163.08"/>
  </clipPath>
 </defs>
</svg>
