<?xml version="1.0" encoding="utf-8" standalone="no"?>
<!DOCTYPE svg PUBLIC "-//W3C//DTD SVG 1.1//EN"
  "http://www.w3.org/Graphics/SVG/1.1/DTD/svg11.dtd">
<svg xmlns:xlink="http://www.w3.org/1999/xlink" width="330.759375pt" height="236.39175pt" viewBox="0 0 330.759375 236.39175" xmlns="http://www.w3.org/2000/svg" version="1.1">
 <metadata>
  <rdf:RDF xmlns:dc="http://purl.org/dc/elements/1.1/" xmlns:cc="http://creativecommons.org/ns#" xmlns:rdf="http://www.w3.org/1999/02/22-rdf-syntax-ns#">
   <cc:Work>
    <dc:type rdf:resource="http://purl.org/dc/dcmitype/StillImage"/>
    <dc:date>2025-01-27T16:06:41.033938</dc:date>
    <dc:format>image/svg+xml</dc:format>
    <dc:creator>
     <cc:Agent>
      <dc:title>Matplotlib v3.5.2, https://matplotlib.org/</dc:title>
     </cc:Agent>
    </dc:creator>
   </cc:Work>
  </rdf:RDF>
 </metadata>
 <defs>
  <style type="text/css">*{stroke-linejoin: round; stroke-linecap: butt}</style>
 </defs>
 <g id="figure_1">
  <g id="patch_1">
   <path d="M 0 236.39175 
L 330.759375 236.39175 
L 330.759375 0 
L 0 0 
L 0 236.39175 
z
" style="fill: none"/>
  </g>
  <g id="axes_1">
   <g id="patch_2">
    <path d="M 43.78125 198.8355 
L 322.78125 198.8355 
L 322.78125 35.7555 
L 43.78125 35.7555 
z
" style="fill: #ffffff"/>
   </g>
   <g id="matplotlib.axis_1">
    <g id="xtick_1">
     <g id="line2d_1">
      <defs>
       <path id="m6cfe0412fc" d="M 0 0 
L 0 3.5 
" style="stroke: #000000; stroke-width: 0.8"/>
      </defs>
      <g>
       <use xlink:href="#m6cfe0412fc" x="56.427557" y="198.8355" style="stroke: #000000; stroke-width: 0.8"/>
      </g>
     </g>
     <g id="text_1">
      <!-- 0 -->
      <g transform="translate(53.246307 213.433938)scale(0.1 -0.1)">
       <defs>
        <path id="DejaVuSans-30" d="M 2034 4250 
Q 1547 4250 1301 3770 
Q 1056 3291 1056 2328 
Q 1056 1369 1301 889 
Q 1547 409 2034 409 
Q 2525 409 2770 889 
Q 3016 1369 3016 2328 
Q 3016 3291 2770 3770 
Q 2525 4250 2034 4250 
z
M 2034 4750 
Q 2819 4750 3233 4129 
Q 3647 3509 3647 2328 
Q 3647 1150 3233 529 
Q 2819 -91 2034 -91 
Q 1250 -91 836 529 
Q 422 1150 422 2328 
Q 422 3509 836 4129 
Q 1250 4750 2034 4750 
z
" transform="scale(0.015625)"/>
       </defs>
       <use xlink:href="#DejaVuSans-30"/>
      </g>
     </g>
    </g>
    <g id="xtick_2">
     <g id="line2d_2">
      <g>
       <use xlink:href="#m6cfe0412fc" x="98.703102" y="198.8355" style="stroke: #000000; stroke-width: 0.8"/>
      </g>
     </g>
     <g id="text_2">
      <!-- 50 -->
      <g transform="translate(92.340602 213.433938)scale(0.1 -0.1)">
       <defs>
        <path id="DejaVuSans-35" d="M 691 4666 
L 3169 4666 
L 3169 4134 
L 1269 4134 
L 1269 2991 
Q 1406 3038 1543 3061 
Q 1681 3084 1819 3084 
Q 2600 3084 3056 2656 
Q 3513 2228 3513 1497 
Q 3513 744 3044 326 
Q 2575 -91 1722 -91 
Q 1428 -91 1123 -41 
Q 819 9 494 109 
L 494 744 
Q 775 591 1075 516 
Q 1375 441 1709 441 
Q 2250 441 2565 725 
Q 2881 1009 2881 1497 
Q 2881 1984 2565 2268 
Q 2250 2553 1709 2553 
Q 1456 2553 1204 2497 
Q 953 2441 691 2322 
L 691 4666 
z
" transform="scale(0.015625)"/>
       </defs>
       <use xlink:href="#DejaVuSans-35"/>
       <use xlink:href="#DejaVuSans-30" x="63.623047"/>
      </g>
     </g>
    </g>
    <g id="xtick_3">
     <g id="line2d_3">
      <g>
       <use xlink:href="#m6cfe0412fc" x="140.978648" y="198.8355" style="stroke: #000000; stroke-width: 0.8"/>
      </g>
     </g>
     <g id="text_3">
      <!-- 100 -->
      <g transform="translate(131.434898 213.433938)scale(0.1 -0.1)">
       <defs>
        <path id="DejaVuSans-31" d="M 794 531 
L 1825 531 
L 1825 4091 
L 703 3866 
L 703 4441 
L 1819 4666 
L 2450 4666 
L 2450 531 
L 3481 531 
L 3481 0 
L 794 0 
L 794 531 
z
" transform="scale(0.015625)"/>
       </defs>
       <use xlink:href="#DejaVuSans-31"/>
       <use xlink:href="#DejaVuSans-30" x="63.623047"/>
       <use xlink:href="#DejaVuSans-30" x="127.246094"/>
      </g>
     </g>
    </g>
    <g id="xtick_4">
     <g id="line2d_4">
      <g>
       <use xlink:href="#m6cfe0412fc" x="183.254194" y="198.8355" style="stroke: #000000; stroke-width: 0.8"/>
      </g>
     </g>
     <g id="text_4">
      <!-- 150 -->
      <g transform="translate(173.710444 213.433938)scale(0.1 -0.1)">
       <use xlink:href="#DejaVuSans-31"/>
       <use xlink:href="#DejaVuSans-35" x="63.623047"/>
       <use xlink:href="#DejaVuSans-30" x="127.246094"/>
      </g>
     </g>
    </g>
    <g id="xtick_5">
     <g id="line2d_5">
      <g>
       <use xlink:href="#m6cfe0412fc" x="225.529739" y="198.8355" style="stroke: #000000; stroke-width: 0.8"/>
      </g>
     </g>
     <g id="text_5">
      <!-- 200 -->
      <g transform="translate(215.985989 213.433938)scale(0.1 -0.1)">
       <defs>
        <path id="DejaVuSans-32" d="M 1228 531 
L 3431 531 
L 3431 0 
L 469 0 
L 469 531 
Q 828 903 1448 1529 
Q 2069 2156 2228 2338 
Q 2531 2678 2651 2914 
Q 2772 3150 2772 3378 
Q 2772 3750 2511 3984 
Q 2250 4219 1831 4219 
Q 1534 4219 1204 4116 
Q 875 4013 500 3803 
L 500 4441 
Q 881 4594 1212 4672 
Q 1544 4750 1819 4750 
Q 2544 4750 2975 4387 
Q 3406 4025 3406 3419 
Q 3406 3131 3298 2873 
Q 3191 2616 2906 2266 
Q 2828 2175 2409 1742 
Q 1991 1309 1228 531 
z
" transform="scale(0.015625)"/>
       </defs>
       <use xlink:href="#DejaVuSans-32"/>
       <use xlink:href="#DejaVuSans-30" x="63.623047"/>
       <use xlink:href="#DejaVuSans-30" x="127.246094"/>
      </g>
     </g>
    </g>
    <g id="xtick_6">
     <g id="line2d_6">
      <g>
       <use xlink:href="#m6cfe0412fc" x="267.805285" y="198.8355" style="stroke: #000000; stroke-width: 0.8"/>
      </g>
     </g>
     <g id="text_6">
      <!-- 250 -->
      <g transform="translate(258.261535 213.433938)scale(0.1 -0.1)">
       <use xlink:href="#DejaVuSans-32"/>
       <use xlink:href="#DejaVuSans-35" x="63.623047"/>
       <use xlink:href="#DejaVuSans-30" x="127.246094"/>
      </g>
     </g>
    </g>
    <g id="xtick_7">
     <g id="line2d_7">
      <g>
       <use xlink:href="#m6cfe0412fc" x="310.080831" y="198.8355" style="stroke: #000000; stroke-width: 0.8"/>
      </g>
     </g>
     <g id="text_7">
      <!-- 300 -->
      <g transform="translate(300.537081 213.433938)scale(0.1 -0.1)">
       <defs>
        <path id="DejaVuSans-33" d="M 2597 2516 
Q 3050 2419 3304 2112 
Q 3559 1806 3559 1356 
Q 3559 666 3084 287 
Q 2609 -91 1734 -91 
Q 1441 -91 1130 -33 
Q 819 25 488 141 
L 488 750 
Q 750 597 1062 519 
Q 1375 441 1716 441 
Q 2309 441 2620 675 
Q 2931 909 2931 1356 
Q 2931 1769 2642 2001 
Q 2353 2234 1838 2234 
L 1294 2234 
L 1294 2753 
L 1863 2753 
Q 2328 2753 2575 2939 
Q 2822 3125 2822 3475 
Q 2822 3834 2567 4026 
Q 2313 4219 1838 4219 
Q 1578 4219 1281 4162 
Q 984 4106 628 3988 
L 628 4550 
Q 988 4650 1302 4700 
Q 1616 4750 1894 4750 
Q 2613 4750 3031 4423 
Q 3450 4097 3450 3541 
Q 3450 3153 3228 2886 
Q 3006 2619 2597 2516 
z
" transform="scale(0.015625)"/>
       </defs>
       <use xlink:href="#DejaVuSans-33"/>
       <use xlink:href="#DejaVuSans-30" x="63.623047"/>
       <use xlink:href="#DejaVuSans-30" x="127.246094"/>
      </g>
     </g>
    </g>
    <g id="text_8">
     <!-- Time [s] -->
     <g transform="translate(162.952344 227.112063)scale(0.1 -0.1)">
      <defs>
       <path id="DejaVuSans-54" d="M -19 4666 
L 3928 4666 
L 3928 4134 
L 2272 4134 
L 2272 0 
L 1638 0 
L 1638 4134 
L -19 4134 
L -19 4666 
z
" transform="scale(0.015625)"/>
       <path id="DejaVuSans-69" d="M 603 3500 
L 1178 3500 
L 1178 0 
L 603 0 
L 603 3500 
z
M 603 4863 
L 1178 4863 
L 1178 4134 
L 603 4134 
L 603 4863 
z
" transform="scale(0.015625)"/>
       <path id="DejaVuSans-6d" d="M 3328 2828 
Q 3544 3216 3844 3400 
Q 4144 3584 4550 3584 
Q 5097 3584 5394 3201 
Q 5691 2819 5691 2113 
L 5691 0 
L 5113 0 
L 5113 2094 
Q 5113 2597 4934 2840 
Q 4756 3084 4391 3084 
Q 3944 3084 3684 2787 
Q 3425 2491 3425 1978 
L 3425 0 
L 2847 0 
L 2847 2094 
Q 2847 2600 2669 2842 
Q 2491 3084 2119 3084 
Q 1678 3084 1418 2786 
Q 1159 2488 1159 1978 
L 1159 0 
L 581 0 
L 581 3500 
L 1159 3500 
L 1159 2956 
Q 1356 3278 1631 3431 
Q 1906 3584 2284 3584 
Q 2666 3584 2933 3390 
Q 3200 3197 3328 2828 
z
" transform="scale(0.015625)"/>
       <path id="DejaVuSans-65" d="M 3597 1894 
L 3597 1613 
L 953 1613 
Q 991 1019 1311 708 
Q 1631 397 2203 397 
Q 2534 397 2845 478 
Q 3156 559 3463 722 
L 3463 178 
Q 3153 47 2828 -22 
Q 2503 -91 2169 -91 
Q 1331 -91 842 396 
Q 353 884 353 1716 
Q 353 2575 817 3079 
Q 1281 3584 2069 3584 
Q 2775 3584 3186 3129 
Q 3597 2675 3597 1894 
z
M 3022 2063 
Q 3016 2534 2758 2815 
Q 2500 3097 2075 3097 
Q 1594 3097 1305 2825 
Q 1016 2553 972 2059 
L 3022 2063 
z
" transform="scale(0.015625)"/>
       <path id="DejaVuSans-20" transform="scale(0.015625)"/>
       <path id="DejaVuSans-5b" d="M 550 4863 
L 1875 4863 
L 1875 4416 
L 1125 4416 
L 1125 -397 
L 1875 -397 
L 1875 -844 
L 550 -844 
L 550 4863 
z
" transform="scale(0.015625)"/>
       <path id="DejaVuSans-73" d="M 2834 3397 
L 2834 2853 
Q 2591 2978 2328 3040 
Q 2066 3103 1784 3103 
Q 1356 3103 1142 2972 
Q 928 2841 928 2578 
Q 928 2378 1081 2264 
Q 1234 2150 1697 2047 
L 1894 2003 
Q 2506 1872 2764 1633 
Q 3022 1394 3022 966 
Q 3022 478 2636 193 
Q 2250 -91 1575 -91 
Q 1294 -91 989 -36 
Q 684 19 347 128 
L 347 722 
Q 666 556 975 473 
Q 1284 391 1588 391 
Q 1994 391 2212 530 
Q 2431 669 2431 922 
Q 2431 1156 2273 1281 
Q 2116 1406 1581 1522 
L 1381 1569 
Q 847 1681 609 1914 
Q 372 2147 372 2553 
Q 372 3047 722 3315 
Q 1072 3584 1716 3584 
Q 2034 3584 2315 3537 
Q 2597 3491 2834 3397 
z
" transform="scale(0.015625)"/>
       <path id="DejaVuSans-5d" d="M 1947 4863 
L 1947 -844 
L 622 -844 
L 622 -397 
L 1369 -397 
L 1369 4416 
L 622 4416 
L 622 4863 
L 1947 4863 
z
" transform="scale(0.015625)"/>
      </defs>
      <use xlink:href="#DejaVuSans-54"/>
      <use xlink:href="#DejaVuSans-69" x="57.958984"/>
      <use xlink:href="#DejaVuSans-6d" x="85.742188"/>
      <use xlink:href="#DejaVuSans-65" x="183.154297"/>
      <use xlink:href="#DejaVuSans-20" x="244.677734"/>
      <use xlink:href="#DejaVuSans-5b" x="276.464844"/>
      <use xlink:href="#DejaVuSans-73" x="315.478516"/>
      <use xlink:href="#DejaVuSans-5d" x="367.578125"/>
     </g>
    </g>
   </g>
   <g id="matplotlib.axis_2">
    <g id="ytick_1">
     <g id="line2d_8">
      <defs>
       <path id="mc0b5c75001" d="M 0 0 
L -3.5 0 
" style="stroke: #000000; stroke-width: 0.8"/>
      </defs>
      <g>
       <use xlink:href="#mc0b5c75001" x="43.78125" y="195.923357" style="stroke: #000000; stroke-width: 0.8"/>
      </g>
     </g>
     <g id="text_9">
      <!-- 0.0 -->
      <g transform="translate(20.878125 199.722576)scale(0.1 -0.1)">
       <defs>
        <path id="DejaVuSans-2e" d="M 684 794 
L 1344 794 
L 1344 0 
L 684 0 
L 684 794 
z
" transform="scale(0.015625)"/>
       </defs>
       <use xlink:href="#DejaVuSans-30"/>
       <use xlink:href="#DejaVuSans-2e" x="63.623047"/>
       <use xlink:href="#DejaVuSans-30" x="95.410156"/>
      </g>
     </g>
    </g>
    <g id="ytick_2">
     <g id="line2d_9">
      <g>
       <use xlink:href="#mc0b5c75001" x="43.78125" y="166.801929" style="stroke: #000000; stroke-width: 0.8"/>
      </g>
     </g>
     <g id="text_10">
      <!-- 0.2 -->
      <g transform="translate(20.878125 170.601147)scale(0.1 -0.1)">
       <use xlink:href="#DejaVuSans-30"/>
       <use xlink:href="#DejaVuSans-2e" x="63.623047"/>
       <use xlink:href="#DejaVuSans-32" x="95.410156"/>
      </g>
     </g>
    </g>
    <g id="ytick_3">
     <g id="line2d_10">
      <g>
       <use xlink:href="#mc0b5c75001" x="43.78125" y="137.6805" style="stroke: #000000; stroke-width: 0.8"/>
      </g>
     </g>
     <g id="text_11">
      <!-- 0.4 -->
      <g transform="translate(20.878125 141.479719)scale(0.1 -0.1)">
       <defs>
        <path id="DejaVuSans-34" d="M 2419 4116 
L 825 1625 
L 2419 1625 
L 2419 4116 
z
M 2253 4666 
L 3047 4666 
L 3047 1625 
L 3713 1625 
L 3713 1100 
L 3047 1100 
L 3047 0 
L 2419 0 
L 2419 1100 
L 313 1100 
L 313 1709 
L 2253 4666 
z
" transform="scale(0.015625)"/>
       </defs>
       <use xlink:href="#DejaVuSans-30"/>
       <use xlink:href="#DejaVuSans-2e" x="63.623047"/>
       <use xlink:href="#DejaVuSans-34" x="95.410156"/>
      </g>
     </g>
    </g>
    <g id="ytick_4">
     <g id="line2d_11">
      <g>
       <use xlink:href="#mc0b5c75001" x="43.78125" y="108.559071" style="stroke: #000000; stroke-width: 0.8"/>
      </g>
     </g>
     <g id="text_12">
      <!-- 0.6 -->
      <g transform="translate(20.878125 112.35829)scale(0.1 -0.1)">
       <defs>
        <path id="DejaVuSans-36" d="M 2113 2584 
Q 1688 2584 1439 2293 
Q 1191 2003 1191 1497 
Q 1191 994 1439 701 
Q 1688 409 2113 409 
Q 2538 409 2786 701 
Q 3034 994 3034 1497 
Q 3034 2003 2786 2293 
Q 2538 2584 2113 2584 
z
M 3366 4563 
L 3366 3988 
Q 3128 4100 2886 4159 
Q 2644 4219 2406 4219 
Q 1781 4219 1451 3797 
Q 1122 3375 1075 2522 
Q 1259 2794 1537 2939 
Q 1816 3084 2150 3084 
Q 2853 3084 3261 2657 
Q 3669 2231 3669 1497 
Q 3669 778 3244 343 
Q 2819 -91 2113 -91 
Q 1303 -91 875 529 
Q 447 1150 447 2328 
Q 447 3434 972 4092 
Q 1497 4750 2381 4750 
Q 2619 4750 2861 4703 
Q 3103 4656 3366 4563 
z
" transform="scale(0.015625)"/>
       </defs>
       <use xlink:href="#DejaVuSans-30"/>
       <use xlink:href="#DejaVuSans-2e" x="63.623047"/>
       <use xlink:href="#DejaVuSans-36" x="95.410156"/>
      </g>
     </g>
    </g>
    <g id="ytick_5">
     <g id="line2d_12">
      <g>
       <use xlink:href="#mc0b5c75001" x="43.78125" y="79.437643" style="stroke: #000000; stroke-width: 0.8"/>
      </g>
     </g>
     <g id="text_13">
      <!-- 0.8 -->
      <g transform="translate(20.878125 83.236862)scale(0.1 -0.1)">
       <defs>
        <path id="DejaVuSans-38" d="M 2034 2216 
Q 1584 2216 1326 1975 
Q 1069 1734 1069 1313 
Q 1069 891 1326 650 
Q 1584 409 2034 409 
Q 2484 409 2743 651 
Q 3003 894 3003 1313 
Q 3003 1734 2745 1975 
Q 2488 2216 2034 2216 
z
M 1403 2484 
Q 997 2584 770 2862 
Q 544 3141 544 3541 
Q 544 4100 942 4425 
Q 1341 4750 2034 4750 
Q 2731 4750 3128 4425 
Q 3525 4100 3525 3541 
Q 3525 3141 3298 2862 
Q 3072 2584 2669 2484 
Q 3125 2378 3379 2068 
Q 3634 1759 3634 1313 
Q 3634 634 3220 271 
Q 2806 -91 2034 -91 
Q 1263 -91 848 271 
Q 434 634 434 1313 
Q 434 1759 690 2068 
Q 947 2378 1403 2484 
z
M 1172 3481 
Q 1172 3119 1398 2916 
Q 1625 2713 2034 2713 
Q 2441 2713 2670 2916 
Q 2900 3119 2900 3481 
Q 2900 3844 2670 4047 
Q 2441 4250 2034 4250 
Q 1625 4250 1398 4047 
Q 1172 3844 1172 3481 
z
" transform="scale(0.015625)"/>
       </defs>
       <use xlink:href="#DejaVuSans-30"/>
       <use xlink:href="#DejaVuSans-2e" x="63.623047"/>
       <use xlink:href="#DejaVuSans-38" x="95.410156"/>
      </g>
     </g>
    </g>
    <g id="ytick_6">
     <g id="line2d_13">
      <g>
       <use xlink:href="#mc0b5c75001" x="43.78125" y="50.316214" style="stroke: #000000; stroke-width: 0.8"/>
      </g>
     </g>
     <g id="text_14">
      <!-- 1.0 -->
      <g transform="translate(20.878125 54.115433)scale(0.1 -0.1)">
       <use xlink:href="#DejaVuSans-31"/>
       <use xlink:href="#DejaVuSans-2e" x="63.623047"/>
       <use xlink:href="#DejaVuSans-30" x="95.410156"/>
      </g>
     </g>
    </g>
    <g id="text_15">
     <!-- (F-F$^o$)/F$^o$ -->
     <g transform="translate(14.798438 137.9955)rotate(-90)scale(0.1 -0.1)">
      <defs>
       <path id="DejaVuSans-28" d="M 1984 4856 
Q 1566 4138 1362 3434 
Q 1159 2731 1159 2009 
Q 1159 1288 1364 580 
Q 1569 -128 1984 -844 
L 1484 -844 
Q 1016 -109 783 600 
Q 550 1309 550 2009 
Q 550 2706 781 3412 
Q 1013 4119 1484 4856 
L 1984 4856 
z
" transform="scale(0.015625)"/>
       <path id="DejaVuSans-46" d="M 628 4666 
L 3309 4666 
L 3309 4134 
L 1259 4134 
L 1259 2759 
L 3109 2759 
L 3109 2228 
L 1259 2228 
L 1259 0 
L 628 0 
L 628 4666 
z
" transform="scale(0.015625)"/>
       <path id="DejaVuSans-2d" d="M 313 2009 
L 1997 2009 
L 1997 1497 
L 313 1497 
L 313 2009 
z
" transform="scale(0.015625)"/>
       <path id="DejaVuSans-Oblique-6f" d="M 1625 -91 
Q 1009 -91 651 289 
Q 294 669 294 1325 
Q 294 1706 417 2101 
Q 541 2497 738 2766 
Q 1047 3184 1428 3384 
Q 1809 3584 2291 3584 
Q 2888 3584 3255 3212 
Q 3622 2841 3622 2241 
Q 3622 1825 3500 1412 
Q 3378 1000 3181 728 
Q 2875 309 2494 109 
Q 2113 -91 1625 -91 
z
M 891 1344 
Q 891 869 1089 633 
Q 1288 397 1691 397 
Q 2269 397 2648 901 
Q 3028 1406 3028 2181 
Q 3028 2634 2825 2865 
Q 2622 3097 2228 3097 
Q 1903 3097 1650 2945 
Q 1397 2794 1197 2484 
Q 1050 2253 970 1956 
Q 891 1659 891 1344 
z
" transform="scale(0.015625)"/>
       <path id="DejaVuSans-29" d="M 513 4856 
L 1013 4856 
Q 1481 4119 1714 3412 
Q 1947 2706 1947 2009 
Q 1947 1309 1714 600 
Q 1481 -109 1013 -844 
L 513 -844 
Q 928 -128 1133 580 
Q 1338 1288 1338 2009 
Q 1338 2731 1133 3434 
Q 928 4138 513 4856 
z
" transform="scale(0.015625)"/>
       <path id="DejaVuSans-2f" d="M 1625 4666 
L 2156 4666 
L 531 -594 
L 0 -594 
L 1625 4666 
z
" transform="scale(0.015625)"/>
      </defs>
      <use xlink:href="#DejaVuSans-28" transform="translate(0 0.51875)"/>
      <use xlink:href="#DejaVuSans-46" transform="translate(39.013672 0.51875)"/>
      <use xlink:href="#DejaVuSans-2d" transform="translate(96.533203 0.51875)"/>
      <use xlink:href="#DejaVuSans-46" transform="translate(132.617188 0.51875)"/>
      <use xlink:href="#DejaVuSans-Oblique-6f" transform="translate(191.09375 38.8)scale(0.7)"/>
      <use xlink:href="#DejaVuSans-29" transform="translate(236.655273 0.51875)"/>
      <use xlink:href="#DejaVuSans-2f" transform="translate(275.668945 0.51875)"/>
      <use xlink:href="#DejaVuSans-46" transform="translate(309.360352 0.51875)"/>
      <use xlink:href="#DejaVuSans-Oblique-6f" transform="translate(367.836914 38.8)scale(0.7)"/>
     </g>
    </g>
   </g>
   <g id="line2d_14">
    <path d="M 56.463068 187.762394 
L 56.985594 186.247218 
L 57.389748 183.733554 
L 58.065311 178.678592 
L 58.603902 166.873724 
L 59.143338 146.965954 
L 59.681928 127.529653 
L 59.951646 123.990147 
L 60.223055 123.225859 
L 60.491928 121.060284 
L 60.627209 120.419935 
L 60.761646 120.38253 
L 61.031364 119.632479 
L 61.301082 118.531547 
L 61.435518 118.447246 
L 61.569954 118.101391 
L 61.839672 115.979362 
L 61.974108 115.543065 
L 62.10939 115.964847 
L 62.243826 115.854586 
L 62.378263 116.699266 
L 62.513544 116.697033 
L 62.782417 115.1612 
L 62.920235 114.925326 
L 63.054671 114.348621 
L 63.189107 114.296422 
L 63.324389 113.960615 
L 63.458825 113.163947 
L 63.593262 113.097511 
L 63.727698 113.908695 
L 63.862134 113.879943 
L 63.993188 114.49824 
L 64.262906 114.405007 
L 64.801497 118.56951 
L 64.936779 120.393417 
L 65.071215 120.520984 
L 65.745087 124.010245 
L 66.013959 123.096338 
L 66.149241 122.950347 
L 66.283677 122.324792 
L 66.418114 122.678185 
L 66.687832 122.665065 
L 66.822268 122.203087 
L 67.09114 123.144629 
L 67.226422 122.285992 
L 67.361704 122.210345 
L 67.49614 122.296599 
L 67.631422 122.525774 
L 67.765858 122.516004 
L 67.900294 122.802403 
L 68.707757 127.834196 
L 69.111911 129.380357 
L 69.247193 130.141575 
L 69.381629 130.057832 
L 69.650502 131.45884 
L 69.785784 131.094562 
L 70.055502 132.019355 
L 70.324374 134.527715 
L 70.45881 134.602804 
L 70.594092 133.623578 
L 70.729374 133.839912 
L 70.999092 132.647143 
L 71.267964 133.503547 
L 71.403246 133.520854 
L 71.538528 134.02917 
L 71.808246 132.489429 
L 72.346836 133.869501 
L 72.75099 137.156106 
L 72.886272 137.063431 
L 73.15599 138.193952 
L 73.291272 137.969522 
L 73.559299 138.78601 
L 73.694581 140.014509 
L 73.965144 139.287347 
L 74.100426 139.28623 
L 74.234862 138.439596 
L 74.369298 138.763957 
L 74.50458 138.43485 
L 74.773453 138.702826 
L 74.908734 140.265456 
L 75.04317 140.448014 
L 75.44817 139.772493 
L 75.717888 140.797778 
L 75.852324 141.712243 
L 76.122042 141.667581 
L 76.795915 145.148468 
L 76.930351 144.507839 
L 77.065633 144.671416 
L 77.200069 144.417956 
L 77.469787 145.059422 
L 77.604223 144.19241 
L 77.873941 145.669345 
L 78.143659 145.761182 
L 78.547813 148.528864 
L 78.682249 149.300409 
L 79.084713 154.498571 
L 79.893021 160.982734 
L 80.028303 161.202697 
L 81.376047 169.446286 
L 82.049074 175.404548 
L 82.187738 175.955014 
L 82.457456 178.839377 
L 82.726328 180.213866 
L 82.996046 182.349853 
L 83.129637 182.627319 
L 83.669073 185.886009 
L 83.803509 185.79473 
L 84.073227 186.959306 
L 84.207663 186.794892 
L 84.479072 188.354173 
L 84.614354 188.155704 
L 85.152944 189.299344 
L 85.287381 189.897822 
L 85.557099 189.351264 
L 85.691535 189.336749 
L 86.230971 190.193153 
L 86.364562 189.757414 
L 86.499843 190.461687 
L 86.63428 190.497975 
L 86.769561 190.778791 
L 86.903998 190.68137 
L 87.312379 191.732336 
L 87.446816 191.911544 
L 87.582097 191.500091 
L 87.851815 192.060606 
L 87.986252 192.412602 
L 88.121533 192.054464 
L 88.25597 192.037158 
L 88.524842 192.244559 
L 88.659278 192.311274 
L 88.928996 192.03325 
L 89.063432 192.434096 
L 89.33315 192.359845 
L 89.602023 192.055302 
L 89.737305 192.12732 
L 90.006177 192.791676 
L 90.14315 193.107942 
L 90.547304 192.440795 
L 90.680895 192.457265 
L 90.815331 192.602139 
L 90.950613 192.51393 
L 91.08674 192.834663 
L 91.221176 191.953415 
L 91.356458 192.365707 
L 91.490894 192.185102 
L 91.626176 192.736127 
L 91.760612 192.389713 
L 91.895048 192.843317 
L 92.029485 192.106664 
L 92.299203 192.443308 
L 92.568921 192.431863 
L 92.838639 191.985796 
L 92.973075 192.505556 
L 93.377229 191.450404 
L 93.646102 191.399042 
L 94.320819 188.551246 
L 94.589692 187.718848 
L 94.860255 185.885172 
L 95.264409 182.278672 
L 97.149053 148.074422 
L 98.358979 139.056497 
L 98.763134 137.778869 
L 98.89757 138.18167 
L 99.032852 138.09374 
L 99.301724 138.972755 
L 99.43616 139.08162 
L 99.704187 139.857073 
L 99.839469 140.093785 
L 99.973905 140.008926 
L 100.108342 140.245916 
L 100.378059 141.631013 
L 100.512496 143.186945 
L 100.646932 143.279899 
L 100.782214 143.091758 
L 101.185522 144.600235 
L 101.320804 145.359219 
L 101.590522 144.882167 
L 101.724958 145.204296 
L 101.859395 145.995381 
L 101.993831 145.825105 
L 102.129113 146.126577 
L 102.39714 148.145045 
L 102.531576 149.09217 
L 102.801294 152.017008 
L 103.60622 157.91386 
L 103.740656 158.121819 
L 104.550656 161.291464 
L 104.685092 161.843605 
L 104.819528 161.924556 
L 105.089246 163.695146 
L 105.223683 164.123907 
L 105.493401 166.251519 
L 105.897555 169.698629 
L 106.432763 172.011591 
L 106.568045 172.624863 
L 106.699945 172.506508 
L 106.834381 172.957878 
L 107.103253 174.260629 
L 107.781353 178.11054 
L 107.916635 178.168322 
L 108.187198 179.311962 
L 108.32248 179.897321 
L 108.591352 179.406591 
L 108.725789 179.753842 
L 108.994661 179.215938 
L 109.129097 179.720625 
L 109.264379 179.538346 
L 109.399661 179.138616 
L 109.669379 179.709738 
L 109.803815 179.864661 
L 110.072688 180.400612 
L 110.207969 180.613596 
L 110.747405 182.802898 
L 110.881842 183.027048 
L 111.017123 182.902272 
L 112.23635 186.964889 
L 112.372477 187.15303 
L 112.506914 188.457734 
L 112.642195 188.53059 
L 112.777477 188.232747 
L 113.043813 189.570948 
L 113.178249 189.59635 
L 113.312685 189.862929 
L 113.447122 189.842273 
L 113.71684 190.626101 
L 113.851276 191.358566 
L 113.986558 191.388993 
L 114.120994 191.789002 
L 114.25543 192.67974 
L 114.525148 192.795863 
L 114.794866 193.104872 
L 115.063739 193.457427 
L 115.334302 193.308644 
L 115.468738 193.424209 
L 115.605711 193.169632 
L 115.740993 193.18973 
L 116.010711 193.881162 
L 116.145147 193.808865 
L 116.279583 193.601742 
L 116.414865 193.864414 
L 116.683737 193.663712 
L 116.819019 194.088564 
L 116.953455 193.676273 
L 117.088737 194.559475 
L 117.223173 193.930012 
L 117.358455 194.336999 
L 117.627328 193.549822 
L 117.762609 194.126527 
L 117.897046 194.051997 
L 118.032327 194.227576 
L 118.3012 194.149975 
L 118.436482 194.297082 
L 118.571763 193.981653 
L 118.7062 194.156674 
L 118.840636 193.881442 
L 119.383454 194.838337 
L 119.51789 194.11257 
L 119.786762 194.483269 
L 119.921199 194.409576 
L 120.189226 193.879208 
L 120.323662 194.35626 
L 120.458098 194.347607 
L 120.592534 194.624515 
L 120.727816 193.965742 
L 120.862252 194.473499 
L 120.996689 194.454518 
L 121.131125 194.312993 
L 121.265561 193.80719 
L 121.400843 194.235671 
L 121.531897 194.134901 
L 121.801615 193.547868 
L 121.936051 193.841245 
L 122.071333 193.633564 
L 122.205769 193.177448 
L 122.340205 193.300829 
L 122.475487 192.496624 
L 122.609923 192.825172 
L 122.745205 192.170866 
L 122.879641 192.289222 
L 123.010696 192.585111 
L 123.279568 191.648315 
L 123.683722 190.404742 
L 124.356749 184.796243 
L 124.627312 181.034262 
L 125.299494 161.82239 
L 125.572594 154.346718 
L 125.842312 151.484966 
L 125.977593 150.793255 
L 126.246466 150.928917 
L 126.516184 150.42116 
L 126.651466 150.318436 
L 126.785902 150.4862 
L 126.921184 150.320948 
L 127.728646 144.190735 
L 128.267237 143.553736 
L 128.401673 144.758787 
L 128.536109 144.697655 
L 129.747727 153.524369 
L 129.882163 154.218592 
L 130.155263 154.178675 
L 130.289699 154.228083 
L 130.424135 153.590805 
L 130.558572 153.523811 
L 130.693853 153.140271 
L 131.098007 150.943712 
L 131.232444 150.731006 
L 131.503007 149.571734 
L 131.769343 150.085074 
L 131.908852 150.37901 
L 132.313007 152.452189 
L 132.448288 152.08484 
L 132.852443 154.003375 
L 132.986879 155.160972 
L 133.122161 155.035638 
L 133.391879 156.183465 
L 133.796033 157.320127 
L 133.931315 157.048244 
L 134.335469 159.633088 
L 134.605187 159.417312 
L 134.739623 159.663235 
L 134.874059 159.049405 
L 135.009341 159.284162 
L 135.952931 162.683819 
L 136.357085 166.267709 
L 137.298985 174.246113 
L 137.703984 178.654585 
L 138.515675 184.59917 
L 139.323983 188.713427 
L 139.458419 189.43389 
L 139.728137 189.694049 
L 139.862574 190.16161 
L 139.997855 189.980448 
L 140.40201 191.538612 
L 140.671728 192.066747 
L 140.807009 192.96558 
L 141.076727 191.722845 
L 141.212009 192.642893 
L 141.346445 192.613863 
L 141.480881 193.217086 
L 141.616163 193.195872 
L 141.750599 193.297758 
L 141.885036 192.938783 
L 142.019472 193.098172 
L 142.153908 193.655896 
L 142.28919 193.500693 
L 142.423626 193.66092 
L 142.558062 194.069862 
L 142.692499 194.019337 
L 142.826935 194.361564 
L 142.962217 194.373288 
L 143.097498 194.642938 
L 143.23278 194.036923 
L 143.367216 194.581248 
L 143.502498 194.566174 
L 143.636934 195.154603 
L 143.772216 194.992143 
L 143.907498 194.636518 
L 144.041934 194.609999 
L 144.177216 195.308968 
L 144.312498 194.963671 
L 144.446934 194.945247 
L 144.715806 194.808468 
L 144.850242 195.488177 
L 145.11996 194.857597 
L 145.390524 195.463891 
L 145.52496 195.432348 
L 145.659396 194.718306 
L 145.794678 195.067232 
L 145.929114 194.685646 
L 146.064396 195.250907 
L 146.198832 194.532956 
L 146.334114 194.865134 
L 146.469396 195.493201 
L 146.738268 195.229692 
L 146.872705 195.362563 
L 147.007141 195.294732 
L 147.142423 195.612394 
L 147.277704 195.031502 
L 147.412141 195.363401 
L 147.547422 194.704628 
L 147.681859 194.86653 
L 147.81714 194.847269 
L 147.951577 194.482153 
L 148.086858 194.824938 
L 148.221294 194.340349 
L 148.355731 194.813772 
L 148.491012 194.653824 
L 148.630522 194.89249 
L 148.764958 194.752919 
L 148.899394 194.31746 
L 149.03383 195.076165 
L 149.168267 194.846432 
L 149.303548 194.95083 
L 149.437985 194.619769 
L 149.977421 194.92487 
L 150.245448 194.309923 
L 150.785729 194.755711 
L 150.921011 194.247954 
L 151.054602 194.341745 
L 151.459601 193.765877 
L 151.729319 194.054788 
L 151.863756 193.273752 
L 151.999037 193.258399 
L 152.132628 192.990703 
L 152.26791 193.158746 
L 152.402346 192.685044 
L 152.537628 193.014988 
L 153.076218 191.934155 
L 153.210654 192.010081 
L 153.346782 191.81217 
L 153.750936 190.831827 
L 153.885372 190.803913 
L 154.56009 186.322586 
L 154.964244 181.607617 
L 155.50368 170.292362 
L 156.043961 159.364276 
L 156.44727 154.958316 
L 156.582552 155.041221 
L 156.716988 154.592083 
L 157.121142 157.240851 
L 157.525297 159.155199 
L 157.659733 159.224705 
L 157.794169 159.427082 
L 157.931142 159.204049 
L 158.065578 159.581168 
L 158.20086 159.257365 
L 158.469732 159.503009 
L 158.73945 158.020491 
L 159.817477 149.659384 
L 160.087195 148.573526 
L 160.221631 148.514907 
L 160.491349 149.062023 
L 160.626631 150.160442 
L 160.761067 149.822682 
L 161.030785 151.586852 
L 161.165221 151.607509 
L 161.434939 151.218665 
L 161.704657 151.874367 
L 162.381911 155.923585 
L 162.517193 155.89595 
L 162.786065 156.828281 
L 162.918811 156.072646 
L 163.188529 157.012514 
L 163.457401 156.579566 
L 163.592683 156.546069 
L 163.727119 156.27279 
L 163.862401 156.409848 
L 163.996837 156.239014 
L 164.807682 159.260993 
L 165.481554 164.333821 
L 165.751272 164.483998 
L 166.290708 166.779095 
L 166.830144 170.717494 
L 167.099017 172.662268 
L 167.909016 178.944892 
L 168.449298 181.681868 
L 169.117251 184.766654 
L 169.251687 184.612289 
L 169.386124 185.523964 
L 169.52056 185.580908 
L 169.654996 185.885451 
L 169.924714 187.033557 
L 170.059996 186.863002 
L 170.463305 187.843066 
L 170.733023 189.32335 
L 170.868304 189.489439 
L 171.002741 189.922107 
L 171.138022 189.775 
L 171.40774 190.581159 
L 171.542176 190.424003 
L 171.948867 190.551849 
L 172.083303 190.607398 
L 172.218585 191.272312 
L 172.488303 190.858346 
L 172.621894 191.129112 
L 172.757176 191.150048 
L 172.892457 191.50037 
L 173.027739 191.419977 
L 173.163021 191.8934 
L 173.297457 191.652781 
L 173.432739 191.999195 
L 173.568021 191.562618 
L 173.836048 192.242885 
L 173.971329 191.608956 
L 174.105766 192.02348 
L 174.241047 191.772532 
L 174.376329 192.361519 
L 174.510765 192.094661 
L 174.646047 192.372964 
L 174.780483 192.0754 
L 174.915765 192.093544 
L 175.185483 192.438562 
L 175.319919 192.367381 
L 175.455201 192.555802 
L 175.588792 193.113246 
L 175.723228 192.732219 
L 175.857664 193.172982 
L 175.9921 192.500811 
L 176.263509 192.591811 
L 176.667664 192.914218 
L 176.802945 192.744501 
L 176.938227 193.151209 
L 177.072663 192.937387 
L 177.207945 193.385967 
L 177.342381 192.77074 
L 177.477663 192.886025 
L 177.612099 192.691464 
L 177.746536 193.157908 
L 178.55569 192.621679 
L 178.825407 192.888537 
L 178.959844 192.551614 
L 179.363998 192.430188 
L 179.498434 192.605209 
L 179.633716 192.443308 
L 179.903434 192.794746 
L 180.038716 192.496624 
L 180.173152 192.853087 
L 180.308434 192.752317 
L 180.44287 192.389713 
L 180.715124 192.187056 
L 180.849561 192.415394 
L 181.120124 192.331093 
L 181.25456 192.558593 
L 181.388997 192.412323 
L 181.524278 192.653501 
L 181.65956 192.129833 
L 182.202378 192.551335 
L 182.33766 191.670367 
L 182.607378 192.183707 
L 182.741814 191.850971 
L 182.87625 192.297596 
L 183.146814 191.985238 
L 183.282096 192.250142 
L 183.551813 191.771695 
L 183.955122 191.956207 
L 184.090404 191.416348 
L 184.225686 191.614538 
L 184.495404 190.909149 
L 184.62984 190.965257 
L 184.765122 190.606561 
L 184.900403 190.856671 
L 185.306249 189.446451 
L 185.44153 189.573739 
L 185.711248 188.363943 
L 185.981812 187.380809 
L 186.521248 177.934681 
L 187.332938 162.85242 
L 187.737093 158.528807 
L 187.872374 158.206957 
L 188.142092 156.715787 
L 188.277374 157.392424 
L 188.412656 157.032053 
L 188.81681 159.25876 
L 189.086528 160.934164 
L 189.356246 161.898037 
L 189.490682 161.486305 
L 189.7604 161.895525 
L 189.895682 161.877102 
L 190.1654 163.153334 
L 190.300682 162.752488 
L 190.435118 163.120674 
L 190.569554 163.853419 
L 190.973708 163.355432 
L 191.10899 163.758511 
L 191.243426 163.619778 
L 191.377863 163.764652 
L 191.916453 164.840182 
L 192.050889 164.75644 
L 192.185325 165.394556 
L 192.455043 165.49393 
L 192.590325 166.248448 
L 192.724761 165.747111 
L 192.994479 166.398626 
L 193.128916 165.836715 
L 193.263352 166.360384 
L 193.400325 166.239516 
L 193.670888 166.658227 
L 193.941452 166.018436 
L 194.076733 166.333865 
L 194.210324 165.93581 
L 194.345606 166.264917 
L 194.480042 165.410467 
L 195.019478 168.06398 
L 195.15476 167.624054 
L 195.423632 167.95372 
L 195.694196 168.904194 
L 195.829477 168.366569 
L 195.963914 168.871256 
L 196.099195 168.529029 
L 196.233632 169.314811 
L 196.50335 169.174403 
L 196.773068 170.987981 
L 197.042786 170.277009 
L 197.178067 170.350144 
L 197.313349 170.838641 
L 197.447785 170.747362 
L 197.583067 171.232509 
L 197.718349 171.138438 
L 198.39053 174.619046 
L 198.659402 175.392266 
L 198.794684 175.298475 
L 198.92912 175.765477 
L 199.064402 175.467076 
L 199.199684 176.65147 
L 199.33412 176.828446 
L 199.602993 177.698528 
L 200.142429 178.829607 
L 200.412147 180.188744 
L 200.949892 182.221169 
L 201.086019 182.34427 
L 201.354891 183.403051 
L 201.490173 184.799314 
L 201.624609 184.885289 
L 201.759045 185.105531 
L 201.893482 186.048748 
L 202.028763 186.178828 
L 202.1632 186.105135 
L 202.298481 186.586095 
L 202.432918 186.459085 
L 202.837917 187.779143 
L 202.972354 187.648784 
L 203.241226 188.212369 
L 203.647071 188.942602 
L 203.781508 188.564645 
L 204.051226 188.753065 
L 204.186507 188.56967 
L 204.320944 188.705053 
L 204.456225 189.175405 
L 204.591507 189.055096 
L 204.725943 188.677418 
L 204.995661 189.068494 
L 205.130097 188.950976 
L 205.266225 189.111761 
L 205.804815 188.771209 
L 205.939251 189.36243 
L 206.074533 188.932274 
L 206.209815 189.048396 
L 206.344251 188.873375 
L 206.479533 189.115948 
L 206.616506 189.050629 
L 206.750942 188.639455 
L 206.885378 189.435286 
L 207.155096 188.466108 
L 207.289532 188.863884 
L 207.424814 188.291925 
L 207.55925 188.71594 
L 207.694532 188.356127 
L 207.829814 188.448243 
L 207.965096 188.109087 
L 208.099532 188.728501 
L 208.36925 188.471691 
L 208.503686 188.4622 
L 208.638122 188.596746 
L 209.045659 187.700704 
L 209.313685 188.791308 
L 209.448122 188.060796 
L 209.583403 188.394369 
L 209.718685 188.111599 
L 209.853121 188.263452 
L 209.987558 187.577045 
L 210.122839 188.198412 
L 210.258121 188.085081 
L 210.393403 188.585581 
L 210.527839 188.310627 
L 210.663121 187.598818 
L 210.798403 187.841949 
L 210.933684 187.595468 
L 211.068121 187.927087 
L 211.203402 187.727781 
L 211.337839 188.026182 
L 211.608402 187.674186 
L 211.87812 187.480183 
L 212.012556 187.791704 
L 212.147838 187.542431 
L 212.28312 187.694005 
L 212.417556 187.511167 
L 212.551992 187.634269 
L 213.027169 186.42503 
L 213.162451 186.352733 
L 213.296887 186.140027 
L 213.432169 186.895104 
L 213.566605 186.727061 
L 213.836323 186.841229 
L 213.971605 186.195576 
L 214.106887 186.36334 
L 214.241323 186.026975 
L 214.376605 186.265362 
L 214.646323 185.420961 
L 214.780759 185.719083 
L 214.916041 184.963169 
L 215.321041 184.631271 
L 216.670476 176.949314 
L 217.209066 170.168703 
L 217.748502 163.682027 
L 218.017375 161.342826 
L 218.287093 160.560953 
L 218.555965 160.105115 
L 218.690402 160.94533 
L 218.825683 160.306097 
L 219.094556 162.320657 
L 219.229837 162.312841 
L 219.364274 161.38051 
L 219.49871 161.433268 
L 219.769273 161.972289 
L 219.90371 160.73737 
L 220.038991 160.550345 
L 220.175964 160.097858 
L 220.311246 160.1361 
L 220.446528 159.841886 
L 220.580964 160.399609 
L 220.7154 159.372929 
L 221.1204 160.253898 
L 221.254836 160.994737 
L 221.389272 161.058661 
L 221.524554 161.781356 
L 221.659836 161.473743 
L 221.794272 161.452808 
L 222.06399 161.18902 
L 222.199272 160.60729 
L 222.333708 161.142124 
L 222.468144 160.394864 
L 222.602581 160.725366 
L 223.006735 158.094185 
L 223.276453 158.781988 
L 223.410889 158.498939 
L 223.546171 158.506755 
L 223.680607 159.36595 
L 223.815043 159.433502 
L 223.949479 159.761214 
L 224.219197 160.877219 
L 224.354479 160.50987 
L 224.762015 162.91076 
L 224.896452 163.041957 
L 225.301451 164.461667 
L 225.974478 166.132884 
L 226.243351 167.207576 
L 226.377787 167.20646 
L 226.781941 169.228835 
L 226.916377 169.400507 
L 227.590249 172.255281 
L 228.12884 175.575662 
L 228.262431 175.478521 
L 228.532994 176.909397 
L 228.66743 177.176255 
L 228.801867 178.259601 
L 228.937148 178.139012 
L 229.206866 178.878736 
L 229.341302 179.057665 
L 229.475739 179.742956 
L 229.61102 179.033659 
L 229.745457 180.267182 
L 229.879893 180.432155 
L 230.014329 180.166971 
L 230.148765 180.591544 
L 230.284047 180.642069 
L 230.555456 181.369231 
L 230.689892 182.00316 
L 230.825174 180.899436 
L 230.95961 180.980946 
L 231.36461 182.112862 
L 231.634328 181.507684 
L 231.768764 181.801341 
L 231.904046 182.496681 
L 232.037637 181.872242 
L 232.440945 181.824509 
L 232.576227 181.522758 
L 232.8451 181.681031 
L 233.114818 182.205258 
L 233.38369 182.005393 
L 233.518126 182.040564 
L 233.653408 181.833163 
L 233.787844 182.259969 
L 234.32728 181.465534 
L 234.462562 180.812903 
L 234.73228 181.235243 
L 234.867562 181.274323 
L 235.001998 182.013488 
L 235.13728 181.383188 
L 235.270871 181.415568 
L 235.405307 180.697059 
L 235.811998 180.75847 
L 235.946434 181.115212 
L 236.081715 180.606618 
L 236.216152 180.649885 
L 236.351433 180.532366 
L 236.487561 180.578145 
L 236.757279 179.768637 
L 236.891715 180.312403 
L 237.161433 180.100256 
L 237.295869 180.640394 
L 237.430305 179.987204 
L 237.564742 180.670262 
L 237.835305 179.704713 
L 237.969741 180.240106 
L 238.105023 179.928026 
L 238.239459 180.185952 
L 238.378123 179.702201 
L 238.646996 180.142965 
L 238.782277 179.195561 
L 238.916714 179.664796 
L 239.05115 179.145873 
L 239.186432 179.407987 
L 239.321713 179.060456 
L 239.45615 179.238548 
L 239.72164 178.960803 
L 239.859458 179.183557 
L 239.99474 178.777966 
L 240.129176 178.765125 
L 240.264458 179.249156 
L 240.398894 178.981739 
L 240.53333 179.11768 
L 240.667767 178.01312 
L 240.803048 178.487659 
L 240.937485 178.375165 
L 241.072766 177.792598 
L 241.342484 177.673684 
L 241.476921 177.613948 
L 241.88192 176.824817 
L 242.016357 176.345532 
L 242.151638 176.644771 
L 242.286075 176.581685 
L 242.421356 176.228014 
L 242.555793 175.438324 
L 242.690229 175.516763 
L 243.094383 173.354817 
L 243.229665 174.115476 
L 243.499383 171.87202 
L 243.633819 171.478152 
L 244.037973 167.70668 
L 245.3891 147.995984 
L 245.92769 144.706867 
L 246.196563 146.29797 
L 246.330999 146.242979 
L 246.466281 146.872442 
L 246.599871 145.679952 
L 246.870435 146.744316 
L 247.004871 146.249958 
L 247.139307 147.248724 
L 247.273743 146.677601 
L 247.409025 148.137229 
L 247.678743 147.868696 
L 247.948461 148.529422 
L 248.082897 148.28964 
L 248.217334 148.487272 
L 248.352615 148.268425 
L 248.487052 148.621259 
L 248.75677 147.432678 
L 248.892051 147.615236 
L 249.027333 147.599604 
L 249.296206 148.225159 
L 249.430642 148.3611 
L 249.834796 150.120246 
L 249.970078 150.423393 
L 250.104514 151.316086 
L 250.239796 150.988653 
L 250.508668 151.210291 
L 250.64395 151.998864 
L 250.778386 151.453702 
L 251.048104 152.667686 
L 251.317822 153.605878 
L 251.451413 153.704694 
L 251.586695 153.418016 
L 251.721976 154.875411 
L 251.856413 154.931518 
L 251.990849 155.2623 
L 252.260567 155.261463 
L 252.395849 155.543116 
L 252.529439 155.522739 
L 252.664721 156.453674 
L 252.799157 156.338947 
L 252.934439 155.721487 
L 253.473875 157.140639 
L 253.608311 157.238059 
L 253.877184 158.350157 
L 254.012465 158.502847 
L 254.146902 158.985481 
L 254.415774 160.319217 
L 254.551056 160.509591 
L 254.819928 161.973126 
L 254.954365 161.976197 
L 255.224083 163.242659 
L 255.358519 163.377484 
L 255.498028 163.901711 
L 255.63331 163.64183 
L 255.767746 164.104646 
L 256.037464 164.073103 
L 256.441618 166.442172 
L 256.576055 166.53373 
L 257.117181 169.986703 
L 257.521336 171.249257 
L 257.791899 172.735961 
L 258.061617 173.822098 
L 258.196053 174.586945 
L 258.331335 174.628257 
L 258.601053 175.871272 
L 258.736335 175.467076 
L 258.871617 175.67029 
L 259.006053 176.271281 
L 259.140489 176.097097 
L 259.274925 176.901581 
L 259.410207 176.705624 
L 259.544643 177.020774 
L 259.815207 177.770267 
L 260.084079 178.148224 
L 260.219361 178.61411 
L 260.62267 178.741119 
L 260.893233 178.552699 
L 261.162951 179.55314 
L 261.431824 179.60841 
L 261.567105 179.826419 
L 261.832596 179.255018 
L 261.967878 180.01791 
L 262.102314 179.713088 
L 262.371186 179.658376 
L 262.506468 180.337526 
L 262.64175 179.809391 
L 263.045058 180.740047 
L 263.179495 181.32708 
L 263.313931 180.300679 
L 263.448367 180.256575 
L 263.582803 180.451694 
L 263.718085 180.952194 
L 263.852521 180.872918 
L 263.987803 180.471793 
L 264.123085 180.576191 
L 264.257521 180.481004 
L 264.391957 180.85282 
L 264.662521 180.330547 
L 264.796957 180.852262 
L 264.931393 180.733069 
L 265.066675 181.040403 
L 265.201111 180.311845 
L 265.335548 180.942703 
L 265.470829 180.738372 
L 265.605266 180.834955 
L 265.740547 180.572562 
L 265.874984 180.727207 
L 266.010265 181.083949 
L 266.414419 180.424339 
L 266.549701 180.758191 
L 266.684137 180.448345 
L 266.819419 180.495799 
L 267.089137 180.721624 
L 267.358855 180.054477 
L 267.628573 180.148268 
L 267.759627 179.807158 
L 267.894064 179.953986 
L 268.032727 179.799063 
L 268.167164 179.969339 
L 268.302445 179.254459 
L 268.437727 179.619855 
L 268.573009 179.495637 
L 269.240962 177.915979 
L 269.51068 176.140643 
L 269.780398 173.84108 
L 270.049271 170.553638 
L 270.723143 156.218358 
L 271.127297 153.747682 
L 271.261734 153.477753 
L 271.802861 155.316174 
L 271.936451 154.904162 
L 272.070887 156.395891 
L 272.205324 156.251855 
L 272.340605 156.900857 
L 272.475887 156.900857 
L 272.610323 157.337154 
L 272.745605 157.207912 
L 272.880041 157.649513 
L 273.418632 160.598637 
L 273.553068 160.880011 
L 273.691732 161.553298 
L 273.826168 161.302351 
L 273.960604 161.724133 
L 274.095886 161.679749 
L 274.50004 161.075688 
L 274.634477 161.165013 
L 274.904195 160.628505 
L 275.038631 160.445388 
L 275.177295 160.773379 
L 275.311731 160.082505 
L 275.447013 160.420824 
L 275.581449 160.250548 
L 275.716731 159.826812 
L 275.851167 159.97057 
L 275.986449 159.947122 
L 276.12173 160.047612 
L 276.525039 161.501936 
L 276.660321 161.477093 
L 276.794757 161.293418 
L 276.930039 162.128329 
L 277.198066 161.228378 
L 277.333347 161.431593 
L 277.467784 160.512382 
L 277.60222 160.389281 
L 277.736656 160.842885 
L 277.871092 160.180483 
L 278.14081 160.384815 
L 278.409683 161.150219 
L 278.544965 161.008694 
L 278.814683 161.651835 
L 278.949964 161.391118 
L 279.218837 161.907528 
L 279.488555 162.530012 
L 279.623836 162.14396 
L 279.758273 162.106835 
L 279.892709 163.900315 
L 280.027991 163.642668 
L 280.567427 166.82292 
L 280.701863 166.590954 
L 281.375735 169.859415 
L 281.510171 169.91301 
L 281.644608 171.619956 
L 281.779044 171.850526 
L 282.31848 174.706696 
L 282.453762 174.602856 
L 282.588198 175.091352 
L 282.857916 176.956013 
L 282.992352 177.30159 
L 283.126788 177.219801 
L 283.397352 179.165134 
L 283.531788 179.189419 
L 283.66707 179.332898 
L 283.801506 180.321336 
L 283.936788 180.315474 
L 284.071224 180.565584 
L 284.340942 181.842933 
L 284.476224 181.669586 
L 284.611505 181.864147 
L 284.880378 183.003042 
L 285.014814 182.764935 
L 285.285378 183.973615 
L 285.420659 183.982827 
L 286.366786 186.033675 
L 286.501222 185.318516 
L 286.635658 185.801988 
L 286.770095 185.556902 
L 286.905376 186.440104 
L 287.039813 186.432846 
L 287.448194 187.278085 
L 287.583476 187.161404 
L 287.718758 187.717173 
L 287.853194 187.533778 
L 288.122067 187.932391 
L 288.525375 187.604959 
L 288.659812 188.418654 
L 288.795093 187.992685 
L 288.92953 188.140909 
L 289.333684 189.287899 
L 289.87312 189.318326 
L 290.007556 189.567877 
L 290.142838 189.104504 
L 290.277274 189.61254 
L 290.41171 189.226209 
L 290.681428 190.649828 
L 290.815864 190.192595 
L 290.951146 190.388273 
L 291.086428 190.282478 
L 291.220864 190.988146 
L 291.490582 190.595116 
L 291.7603 191.32172 
L 291.894736 191.119622 
L 292.030018 191.184941 
L 292.164454 190.828199 
L 292.300582 191.339864 
L 292.435018 191.026109 
L 292.569454 191.327023 
L 292.839172 190.905241 
L 292.974454 191.415232 
L 293.10889 192.413161 
L 293.244172 191.62375 
L 293.378608 191.820265 
L 293.513044 191.359125 
L 293.648326 191.931363 
L 293.782762 191.931922 
L 293.918044 191.572388 
L 294.05248 192.342817 
L 294.187762 192.300667 
L 294.317971 192.545473 
L 294.587689 192.164167 
L 294.991843 192.556639 
L 295.127125 192.357053 
L 295.396843 192.747292 
L 295.534661 192.23786 
L 295.665715 193.065513 
L 295.800151 192.745059 
L 296.069869 192.993774 
L 296.205151 192.878488 
L 296.339587 192.95609 
L 296.474869 192.78051 
L 296.609305 192.883513 
L 296.742896 192.652943 
L 296.877332 193.095939 
L 297.147896 192.534308 
L 297.283177 192.931246 
L 297.418459 192.626145 
L 297.689023 193.370335 
L 297.823459 193.257283 
L 297.958741 192.941853 
L 298.093177 193.018896 
L 298.229304 192.472897 
L 298.499022 193.092589 
L 298.634304 192.532354 
L 299.038458 192.944086 
L 299.17374 192.70905 
L 299.310713 193.129436 
L 299.445994 192.67667 
L 299.580431 192.617492 
L 299.984585 190.842435 
L 300.119021 191.54587 
L 300.659302 188.391578 
L 302.140638 174.689389 
L 302.410356 172.909587 
L 302.545637 173.06451 
L 302.81451 171.954925 
L 303.084228 170.720843 
L 303.21951 171.360634 
L 303.353946 171.42037 
L 303.489228 172.158977 
L 303.624509 172.160652 
L 303.758945 171.812284 
L 304.028663 172.095333 
L 304.1631 172.70721 
L 304.297536 172.766109 
L 304.567254 174.252255 
L 304.702536 173.799488 
L 305.107535 176.030382 
L 305.376408 177.534393 
L 305.51169 177.479123 
L 305.647817 177.569007 
L 306.052817 180.171716 
L 306.32338 180.910881 
L 306.591407 181.402448 
L 306.726689 182.210282 
L 306.861125 182.117328 
L 306.996407 182.187393 
L 307.404789 184.397351 
L 307.539225 184.749348 
L 307.673661 185.806175 
L 307.808943 185.87289 
L 307.943379 186.586374 
L 308.078661 186.610101 
L 308.346688 187.951373 
L 308.481124 187.972866 
L 308.885278 190.328536 
L 309.02056 190.630288 
L 309.290278 192.728869 
L 309.695278 193.789604 
L 310.099432 195.923357 
L 310.099432 195.923357 
" clip-path="url(#p257c6ad069)" style="fill: none; stroke: #1f77b4; stroke-width: 1.5; stroke-linecap: square"/>
   </g>
   <g id="patch_3">
    <path d="M 43.78125 198.8355 
L 43.78125 35.7555 
" style="fill: none; stroke: #000000; stroke-width: 0.8; stroke-linejoin: miter; stroke-linecap: square"/>
   </g>
   <g id="patch_4">
    <path d="M 322.78125 198.8355 
L 322.78125 35.7555 
" style="fill: none; stroke: #000000; stroke-width: 0.8; stroke-linejoin: miter; stroke-linecap: square"/>
   </g>
   <g id="patch_5">
    <path d="M 43.78125 198.8355 
L 322.78125 198.8355 
" style="fill: none; stroke: #000000; stroke-width: 0.8; stroke-linejoin: miter; stroke-linecap: square"/>
   </g>
   <g id="patch_6">
    <path d="M 43.78125 35.7555 
L 322.78125 35.7555 
" style="fill: none; stroke: #000000; stroke-width: 0.8; stroke-linejoin: miter; stroke-linecap: square"/>
   </g>
   <g id="text_16">
    <!-- After equalize -->
    <g transform="translate(141.814687 16.318125)scale(0.12 -0.12)">
     <defs>
      <path id="DejaVuSans-41" d="M 2188 4044 
L 1331 1722 
L 3047 1722 
L 2188 4044 
z
M 1831 4666 
L 2547 4666 
L 4325 0 
L 3669 0 
L 3244 1197 
L 1141 1197 
L 716 0 
L 50 0 
L 1831 4666 
z
" transform="scale(0.015625)"/>
      <path id="DejaVuSans-66" d="M 2375 4863 
L 2375 4384 
L 1825 4384 
Q 1516 4384 1395 4259 
Q 1275 4134 1275 3809 
L 1275 3500 
L 2222 3500 
L 2222 3053 
L 1275 3053 
L 1275 0 
L 697 0 
L 697 3053 
L 147 3053 
L 147 3500 
L 697 3500 
L 697 3744 
Q 697 4328 969 4595 
Q 1241 4863 1831 4863 
L 2375 4863 
z
" transform="scale(0.015625)"/>
      <path id="DejaVuSans-74" d="M 1172 4494 
L 1172 3500 
L 2356 3500 
L 2356 3053 
L 1172 3053 
L 1172 1153 
Q 1172 725 1289 603 
Q 1406 481 1766 481 
L 2356 481 
L 2356 0 
L 1766 0 
Q 1100 0 847 248 
Q 594 497 594 1153 
L 594 3053 
L 172 3053 
L 172 3500 
L 594 3500 
L 594 4494 
L 1172 4494 
z
" transform="scale(0.015625)"/>
      <path id="DejaVuSans-72" d="M 2631 2963 
Q 2534 3019 2420 3045 
Q 2306 3072 2169 3072 
Q 1681 3072 1420 2755 
Q 1159 2438 1159 1844 
L 1159 0 
L 581 0 
L 581 3500 
L 1159 3500 
L 1159 2956 
Q 1341 3275 1631 3429 
Q 1922 3584 2338 3584 
Q 2397 3584 2469 3576 
Q 2541 3569 2628 3553 
L 2631 2963 
z
" transform="scale(0.015625)"/>
      <path id="DejaVuSans-71" d="M 947 1747 
Q 947 1113 1208 752 
Q 1469 391 1925 391 
Q 2381 391 2643 752 
Q 2906 1113 2906 1747 
Q 2906 2381 2643 2742 
Q 2381 3103 1925 3103 
Q 1469 3103 1208 2742 
Q 947 2381 947 1747 
z
M 2906 525 
Q 2725 213 2448 61 
Q 2172 -91 1784 -91 
Q 1150 -91 751 415 
Q 353 922 353 1747 
Q 353 2572 751 3078 
Q 1150 3584 1784 3584 
Q 2172 3584 2448 3432 
Q 2725 3281 2906 2969 
L 2906 3500 
L 3481 3500 
L 3481 -1331 
L 2906 -1331 
L 2906 525 
z
" transform="scale(0.015625)"/>
      <path id="DejaVuSans-75" d="M 544 1381 
L 544 3500 
L 1119 3500 
L 1119 1403 
Q 1119 906 1312 657 
Q 1506 409 1894 409 
Q 2359 409 2629 706 
Q 2900 1003 2900 1516 
L 2900 3500 
L 3475 3500 
L 3475 0 
L 2900 0 
L 2900 538 
Q 2691 219 2414 64 
Q 2138 -91 1772 -91 
Q 1169 -91 856 284 
Q 544 659 544 1381 
z
M 1991 3584 
L 1991 3584 
z
" transform="scale(0.015625)"/>
      <path id="DejaVuSans-61" d="M 2194 1759 
Q 1497 1759 1228 1600 
Q 959 1441 959 1056 
Q 959 750 1161 570 
Q 1363 391 1709 391 
Q 2188 391 2477 730 
Q 2766 1069 2766 1631 
L 2766 1759 
L 2194 1759 
z
M 3341 1997 
L 3341 0 
L 2766 0 
L 2766 531 
Q 2569 213 2275 61 
Q 1981 -91 1556 -91 
Q 1019 -91 701 211 
Q 384 513 384 1019 
Q 384 1609 779 1909 
Q 1175 2209 1959 2209 
L 2766 2209 
L 2766 2266 
Q 2766 2663 2505 2880 
Q 2244 3097 1772 3097 
Q 1472 3097 1187 3025 
Q 903 2953 641 2809 
L 641 3341 
Q 956 3463 1253 3523 
Q 1550 3584 1831 3584 
Q 2591 3584 2966 3190 
Q 3341 2797 3341 1997 
z
" transform="scale(0.015625)"/>
      <path id="DejaVuSans-6c" d="M 603 4863 
L 1178 4863 
L 1178 0 
L 603 0 
L 603 4863 
z
" transform="scale(0.015625)"/>
      <path id="DejaVuSans-7a" d="M 353 3500 
L 3084 3500 
L 3084 2975 
L 922 459 
L 3084 459 
L 3084 0 
L 275 0 
L 275 525 
L 2438 3041 
L 353 3041 
L 353 3500 
z
" transform="scale(0.015625)"/>
     </defs>
     <use xlink:href="#DejaVuSans-41"/>
     <use xlink:href="#DejaVuSans-66" x="64.783203"/>
     <use xlink:href="#DejaVuSans-74" x="98.238281"/>
     <use xlink:href="#DejaVuSans-65" x="137.447266"/>
     <use xlink:href="#DejaVuSans-72" x="198.970703"/>
     <use xlink:href="#DejaVuSans-20" x="240.083984"/>
     <use xlink:href="#DejaVuSans-65" x="271.871094"/>
     <use xlink:href="#DejaVuSans-71" x="333.394531"/>
     <use xlink:href="#DejaVuSans-75" x="396.871094"/>
     <use xlink:href="#DejaVuSans-61" x="460.25"/>
     <use xlink:href="#DejaVuSans-6c" x="521.529297"/>
     <use xlink:href="#DejaVuSans-69" x="549.3125"/>
     <use xlink:href="#DejaVuSans-7a" x="577.095703"/>
     <use xlink:href="#DejaVuSans-65" x="629.585938"/>
    </g>
    <!-- NTR_C3_005_crop - Intensity Equalized, ROI=3 -->
    <g transform="translate(43.003125 29.7555)scale(0.12 -0.12)">
     <defs>
      <path id="DejaVuSans-4e" d="M 628 4666 
L 1478 4666 
L 3547 763 
L 3547 4666 
L 4159 4666 
L 4159 0 
L 3309 0 
L 1241 3903 
L 1241 0 
L 628 0 
L 628 4666 
z
" transform="scale(0.015625)"/>
      <path id="DejaVuSans-52" d="M 2841 2188 
Q 3044 2119 3236 1894 
Q 3428 1669 3622 1275 
L 4263 0 
L 3584 0 
L 2988 1197 
Q 2756 1666 2539 1819 
Q 2322 1972 1947 1972 
L 1259 1972 
L 1259 0 
L 628 0 
L 628 4666 
L 2053 4666 
Q 2853 4666 3247 4331 
Q 3641 3997 3641 3322 
Q 3641 2881 3436 2590 
Q 3231 2300 2841 2188 
z
M 1259 4147 
L 1259 2491 
L 2053 2491 
Q 2509 2491 2742 2702 
Q 2975 2913 2975 3322 
Q 2975 3731 2742 3939 
Q 2509 4147 2053 4147 
L 1259 4147 
z
" transform="scale(0.015625)"/>
      <path id="DejaVuSans-5f" d="M 3263 -1063 
L 3263 -1509 
L -63 -1509 
L -63 -1063 
L 3263 -1063 
z
" transform="scale(0.015625)"/>
      <path id="DejaVuSans-43" d="M 4122 4306 
L 4122 3641 
Q 3803 3938 3442 4084 
Q 3081 4231 2675 4231 
Q 1875 4231 1450 3742 
Q 1025 3253 1025 2328 
Q 1025 1406 1450 917 
Q 1875 428 2675 428 
Q 3081 428 3442 575 
Q 3803 722 4122 1019 
L 4122 359 
Q 3791 134 3420 21 
Q 3050 -91 2638 -91 
Q 1578 -91 968 557 
Q 359 1206 359 2328 
Q 359 3453 968 4101 
Q 1578 4750 2638 4750 
Q 3056 4750 3426 4639 
Q 3797 4528 4122 4306 
z
" transform="scale(0.015625)"/>
      <path id="DejaVuSans-63" d="M 3122 3366 
L 3122 2828 
Q 2878 2963 2633 3030 
Q 2388 3097 2138 3097 
Q 1578 3097 1268 2742 
Q 959 2388 959 1747 
Q 959 1106 1268 751 
Q 1578 397 2138 397 
Q 2388 397 2633 464 
Q 2878 531 3122 666 
L 3122 134 
Q 2881 22 2623 -34 
Q 2366 -91 2075 -91 
Q 1284 -91 818 406 
Q 353 903 353 1747 
Q 353 2603 823 3093 
Q 1294 3584 2113 3584 
Q 2378 3584 2631 3529 
Q 2884 3475 3122 3366 
z
" transform="scale(0.015625)"/>
      <path id="DejaVuSans-6f" d="M 1959 3097 
Q 1497 3097 1228 2736 
Q 959 2375 959 1747 
Q 959 1119 1226 758 
Q 1494 397 1959 397 
Q 2419 397 2687 759 
Q 2956 1122 2956 1747 
Q 2956 2369 2687 2733 
Q 2419 3097 1959 3097 
z
M 1959 3584 
Q 2709 3584 3137 3096 
Q 3566 2609 3566 1747 
Q 3566 888 3137 398 
Q 2709 -91 1959 -91 
Q 1206 -91 779 398 
Q 353 888 353 1747 
Q 353 2609 779 3096 
Q 1206 3584 1959 3584 
z
" transform="scale(0.015625)"/>
      <path id="DejaVuSans-70" d="M 1159 525 
L 1159 -1331 
L 581 -1331 
L 581 3500 
L 1159 3500 
L 1159 2969 
Q 1341 3281 1617 3432 
Q 1894 3584 2278 3584 
Q 2916 3584 3314 3078 
Q 3713 2572 3713 1747 
Q 3713 922 3314 415 
Q 2916 -91 2278 -91 
Q 1894 -91 1617 61 
Q 1341 213 1159 525 
z
M 3116 1747 
Q 3116 2381 2855 2742 
Q 2594 3103 2138 3103 
Q 1681 3103 1420 2742 
Q 1159 2381 1159 1747 
Q 1159 1113 1420 752 
Q 1681 391 2138 391 
Q 2594 391 2855 752 
Q 3116 1113 3116 1747 
z
" transform="scale(0.015625)"/>
      <path id="DejaVuSans-49" d="M 628 4666 
L 1259 4666 
L 1259 0 
L 628 0 
L 628 4666 
z
" transform="scale(0.015625)"/>
      <path id="DejaVuSans-6e" d="M 3513 2113 
L 3513 0 
L 2938 0 
L 2938 2094 
Q 2938 2591 2744 2837 
Q 2550 3084 2163 3084 
Q 1697 3084 1428 2787 
Q 1159 2491 1159 1978 
L 1159 0 
L 581 0 
L 581 3500 
L 1159 3500 
L 1159 2956 
Q 1366 3272 1645 3428 
Q 1925 3584 2291 3584 
Q 2894 3584 3203 3211 
Q 3513 2838 3513 2113 
z
" transform="scale(0.015625)"/>
      <path id="DejaVuSans-79" d="M 2059 -325 
Q 1816 -950 1584 -1140 
Q 1353 -1331 966 -1331 
L 506 -1331 
L 506 -850 
L 844 -850 
Q 1081 -850 1212 -737 
Q 1344 -625 1503 -206 
L 1606 56 
L 191 3500 
L 800 3500 
L 1894 763 
L 2988 3500 
L 3597 3500 
L 2059 -325 
z
" transform="scale(0.015625)"/>
      <path id="DejaVuSans-45" d="M 628 4666 
L 3578 4666 
L 3578 4134 
L 1259 4134 
L 1259 2753 
L 3481 2753 
L 3481 2222 
L 1259 2222 
L 1259 531 
L 3634 531 
L 3634 0 
L 628 0 
L 628 4666 
z
" transform="scale(0.015625)"/>
      <path id="DejaVuSans-64" d="M 2906 2969 
L 2906 4863 
L 3481 4863 
L 3481 0 
L 2906 0 
L 2906 525 
Q 2725 213 2448 61 
Q 2172 -91 1784 -91 
Q 1150 -91 751 415 
Q 353 922 353 1747 
Q 353 2572 751 3078 
Q 1150 3584 1784 3584 
Q 2172 3584 2448 3432 
Q 2725 3281 2906 2969 
z
M 947 1747 
Q 947 1113 1208 752 
Q 1469 391 1925 391 
Q 2381 391 2643 752 
Q 2906 1113 2906 1747 
Q 2906 2381 2643 2742 
Q 2381 3103 1925 3103 
Q 1469 3103 1208 2742 
Q 947 2381 947 1747 
z
" transform="scale(0.015625)"/>
      <path id="DejaVuSans-2c" d="M 750 794 
L 1409 794 
L 1409 256 
L 897 -744 
L 494 -744 
L 750 256 
L 750 794 
z
" transform="scale(0.015625)"/>
      <path id="DejaVuSans-4f" d="M 2522 4238 
Q 1834 4238 1429 3725 
Q 1025 3213 1025 2328 
Q 1025 1447 1429 934 
Q 1834 422 2522 422 
Q 3209 422 3611 934 
Q 4013 1447 4013 2328 
Q 4013 3213 3611 3725 
Q 3209 4238 2522 4238 
z
M 2522 4750 
Q 3503 4750 4090 4092 
Q 4678 3434 4678 2328 
Q 4678 1225 4090 567 
Q 3503 -91 2522 -91 
Q 1538 -91 948 565 
Q 359 1222 359 2328 
Q 359 3434 948 4092 
Q 1538 4750 2522 4750 
z
" transform="scale(0.015625)"/>
      <path id="DejaVuSans-3d" d="M 678 2906 
L 4684 2906 
L 4684 2381 
L 678 2381 
L 678 2906 
z
M 678 1631 
L 4684 1631 
L 4684 1100 
L 678 1100 
L 678 1631 
z
" transform="scale(0.015625)"/>
     </defs>
     <use xlink:href="#DejaVuSans-4e"/>
     <use xlink:href="#DejaVuSans-54" x="74.804688"/>
     <use xlink:href="#DejaVuSans-52" x="135.888672"/>
     <use xlink:href="#DejaVuSans-5f" x="205.371094"/>
     <use xlink:href="#DejaVuSans-43" x="255.371094"/>
     <use xlink:href="#DejaVuSans-33" x="325.195312"/>
     <use xlink:href="#DejaVuSans-5f" x="388.818359"/>
     <use xlink:href="#DejaVuSans-30" x="438.818359"/>
     <use xlink:href="#DejaVuSans-30" x="502.441406"/>
     <use xlink:href="#DejaVuSans-35" x="566.064453"/>
     <use xlink:href="#DejaVuSans-5f" x="629.6875"/>
     <use xlink:href="#DejaVuSans-63" x="679.6875"/>
     <use xlink:href="#DejaVuSans-72" x="734.667969"/>
     <use xlink:href="#DejaVuSans-6f" x="773.53125"/>
     <use xlink:href="#DejaVuSans-70" x="834.712891"/>
     <use xlink:href="#DejaVuSans-20" x="898.189453"/>
     <use xlink:href="#DejaVuSans-2d" x="929.976562"/>
     <use xlink:href="#DejaVuSans-20" x="966.060547"/>
     <use xlink:href="#DejaVuSans-49" x="997.847656"/>
     <use xlink:href="#DejaVuSans-6e" x="1027.339844"/>
     <use xlink:href="#DejaVuSans-74" x="1090.71875"/>
     <use xlink:href="#DejaVuSans-65" x="1129.927734"/>
     <use xlink:href="#DejaVuSans-6e" x="1191.451172"/>
     <use xlink:href="#DejaVuSans-73" x="1254.830078"/>
     <use xlink:href="#DejaVuSans-69" x="1306.929688"/>
     <use xlink:href="#DejaVuSans-74" x="1334.712891"/>
     <use xlink:href="#DejaVuSans-79" x="1373.921875"/>
     <use xlink:href="#DejaVuSans-20" x="1433.101562"/>
     <use xlink:href="#DejaVuSans-45" x="1464.888672"/>
     <use xlink:href="#DejaVuSans-71" x="1528.072266"/>
     <use xlink:href="#DejaVuSans-75" x="1591.548828"/>
     <use xlink:href="#DejaVuSans-61" x="1654.927734"/>
     <use xlink:href="#DejaVuSans-6c" x="1716.207031"/>
     <use xlink:href="#DejaVuSans-69" x="1743.990234"/>
     <use xlink:href="#DejaVuSans-7a" x="1771.773438"/>
     <use xlink:href="#DejaVuSans-65" x="1824.263672"/>
     <use xlink:href="#DejaVuSans-64" x="1885.787109"/>
     <use xlink:href="#DejaVuSans-2c" x="1949.263672"/>
     <use xlink:href="#DejaVuSans-20" x="1981.050781"/>
     <use xlink:href="#DejaVuSans-52" x="2012.837891"/>
     <use xlink:href="#DejaVuSans-4f" x="2082.320312"/>
     <use xlink:href="#DejaVuSans-49" x="2161.03125"/>
     <use xlink:href="#DejaVuSans-3d" x="2190.523438"/>
     <use xlink:href="#DejaVuSans-33" x="2274.3125"/>
    </g>
   </g>
  </g>
 </g>
 <defs>
  <clipPath id="p257c6ad069">
   <rect x="43.78125" y="35.7555" width="279" height="163.08"/>
  </clipPath>
 </defs>
</svg>
