<?xml version="1.0" encoding="utf-8" standalone="no"?>
<!DOCTYPE svg PUBLIC "-//W3C//DTD SVG 1.1//EN"
  "http://www.w3.org/Graphics/SVG/1.1/DTD/svg11.dtd">
<svg xmlns:xlink="http://www.w3.org/1999/xlink" width="330.759375pt" height="236.39175pt" viewBox="0 0 330.759375 236.39175" xmlns="http://www.w3.org/2000/svg" version="1.1">
 <metadata>
  <rdf:RDF xmlns:dc="http://purl.org/dc/elements/1.1/" xmlns:cc="http://creativecommons.org/ns#" xmlns:rdf="http://www.w3.org/1999/02/22-rdf-syntax-ns#">
   <cc:Work>
    <dc:type rdf:resource="http://purl.org/dc/dcmitype/StillImage"/>
    <dc:date>2025-01-27T16:06:40.958636</dc:date>
    <dc:format>image/svg+xml</dc:format>
    <dc:creator>
     <cc:Agent>
      <dc:title>Matplotlib v3.5.2, https://matplotlib.org/</dc:title>
     </cc:Agent>
    </dc:creator>
   </cc:Work>
  </rdf:RDF>
 </metadata>
 <defs>
  <style type="text/css">*{stroke-linejoin: round; stroke-linecap: butt}</style>
 </defs>
 <g id="figure_1">
  <g id="patch_1">
   <path d="M 0 236.39175 
L 330.759375 236.39175 
L 330.759375 0 
L 0 0 
L 0 236.39175 
z
" style="fill: none"/>
  </g>
  <g id="axes_1">
   <g id="patch_2">
    <path d="M 43.78125 198.8355 
L 322.78125 198.8355 
L 322.78125 35.7555 
L 43.78125 35.7555 
z
" style="fill: #ffffff"/>
   </g>
   <g id="matplotlib.axis_1">
    <g id="xtick_1">
     <g id="line2d_1">
      <defs>
       <path id="m7aa4faaa22" d="M 0 0 
L 0 3.5 
" style="stroke: #000000; stroke-width: 0.8"/>
      </defs>
      <g>
       <use xlink:href="#m7aa4faaa22" x="56.427557" y="198.8355" style="stroke: #000000; stroke-width: 0.8"/>
      </g>
     </g>
     <g id="text_1">
      <!-- 0 -->
      <g transform="translate(53.246307 213.433938)scale(0.1 -0.1)">
       <defs>
        <path id="DejaVuSans-30" d="M 2034 4250 
Q 1547 4250 1301 3770 
Q 1056 3291 1056 2328 
Q 1056 1369 1301 889 
Q 1547 409 2034 409 
Q 2525 409 2770 889 
Q 3016 1369 3016 2328 
Q 3016 3291 2770 3770 
Q 2525 4250 2034 4250 
z
M 2034 4750 
Q 2819 4750 3233 4129 
Q 3647 3509 3647 2328 
Q 3647 1150 3233 529 
Q 2819 -91 2034 -91 
Q 1250 -91 836 529 
Q 422 1150 422 2328 
Q 422 3509 836 4129 
Q 1250 4750 2034 4750 
z
" transform="scale(0.015625)"/>
       </defs>
       <use xlink:href="#DejaVuSans-30"/>
      </g>
     </g>
    </g>
    <g id="xtick_2">
     <g id="line2d_2">
      <g>
       <use xlink:href="#m7aa4faaa22" x="98.703102" y="198.8355" style="stroke: #000000; stroke-width: 0.8"/>
      </g>
     </g>
     <g id="text_2">
      <!-- 50 -->
      <g transform="translate(92.340602 213.433938)scale(0.1 -0.1)">
       <defs>
        <path id="DejaVuSans-35" d="M 691 4666 
L 3169 4666 
L 3169 4134 
L 1269 4134 
L 1269 2991 
Q 1406 3038 1543 3061 
Q 1681 3084 1819 3084 
Q 2600 3084 3056 2656 
Q 3513 2228 3513 1497 
Q 3513 744 3044 326 
Q 2575 -91 1722 -91 
Q 1428 -91 1123 -41 
Q 819 9 494 109 
L 494 744 
Q 775 591 1075 516 
Q 1375 441 1709 441 
Q 2250 441 2565 725 
Q 2881 1009 2881 1497 
Q 2881 1984 2565 2268 
Q 2250 2553 1709 2553 
Q 1456 2553 1204 2497 
Q 953 2441 691 2322 
L 691 4666 
z
" transform="scale(0.015625)"/>
       </defs>
       <use xlink:href="#DejaVuSans-35"/>
       <use xlink:href="#DejaVuSans-30" x="63.623047"/>
      </g>
     </g>
    </g>
    <g id="xtick_3">
     <g id="line2d_3">
      <g>
       <use xlink:href="#m7aa4faaa22" x="140.978648" y="198.8355" style="stroke: #000000; stroke-width: 0.8"/>
      </g>
     </g>
     <g id="text_3">
      <!-- 100 -->
      <g transform="translate(131.434898 213.433938)scale(0.1 -0.1)">
       <defs>
        <path id="DejaVuSans-31" d="M 794 531 
L 1825 531 
L 1825 4091 
L 703 3866 
L 703 4441 
L 1819 4666 
L 2450 4666 
L 2450 531 
L 3481 531 
L 3481 0 
L 794 0 
L 794 531 
z
" transform="scale(0.015625)"/>
       </defs>
       <use xlink:href="#DejaVuSans-31"/>
       <use xlink:href="#DejaVuSans-30" x="63.623047"/>
       <use xlink:href="#DejaVuSans-30" x="127.246094"/>
      </g>
     </g>
    </g>
    <g id="xtick_4">
     <g id="line2d_4">
      <g>
       <use xlink:href="#m7aa4faaa22" x="183.254194" y="198.8355" style="stroke: #000000; stroke-width: 0.8"/>
      </g>
     </g>
     <g id="text_4">
      <!-- 150 -->
      <g transform="translate(173.710444 213.433938)scale(0.1 -0.1)">
       <use xlink:href="#DejaVuSans-31"/>
       <use xlink:href="#DejaVuSans-35" x="63.623047"/>
       <use xlink:href="#DejaVuSans-30" x="127.246094"/>
      </g>
     </g>
    </g>
    <g id="xtick_5">
     <g id="line2d_5">
      <g>
       <use xlink:href="#m7aa4faaa22" x="225.529739" y="198.8355" style="stroke: #000000; stroke-width: 0.8"/>
      </g>
     </g>
     <g id="text_5">
      <!-- 200 -->
      <g transform="translate(215.985989 213.433938)scale(0.1 -0.1)">
       <defs>
        <path id="DejaVuSans-32" d="M 1228 531 
L 3431 531 
L 3431 0 
L 469 0 
L 469 531 
Q 828 903 1448 1529 
Q 2069 2156 2228 2338 
Q 2531 2678 2651 2914 
Q 2772 3150 2772 3378 
Q 2772 3750 2511 3984 
Q 2250 4219 1831 4219 
Q 1534 4219 1204 4116 
Q 875 4013 500 3803 
L 500 4441 
Q 881 4594 1212 4672 
Q 1544 4750 1819 4750 
Q 2544 4750 2975 4387 
Q 3406 4025 3406 3419 
Q 3406 3131 3298 2873 
Q 3191 2616 2906 2266 
Q 2828 2175 2409 1742 
Q 1991 1309 1228 531 
z
" transform="scale(0.015625)"/>
       </defs>
       <use xlink:href="#DejaVuSans-32"/>
       <use xlink:href="#DejaVuSans-30" x="63.623047"/>
       <use xlink:href="#DejaVuSans-30" x="127.246094"/>
      </g>
     </g>
    </g>
    <g id="xtick_6">
     <g id="line2d_6">
      <g>
       <use xlink:href="#m7aa4faaa22" x="267.805285" y="198.8355" style="stroke: #000000; stroke-width: 0.8"/>
      </g>
     </g>
     <g id="text_6">
      <!-- 250 -->
      <g transform="translate(258.261535 213.433938)scale(0.1 -0.1)">
       <use xlink:href="#DejaVuSans-32"/>
       <use xlink:href="#DejaVuSans-35" x="63.623047"/>
       <use xlink:href="#DejaVuSans-30" x="127.246094"/>
      </g>
     </g>
    </g>
    <g id="xtick_7">
     <g id="line2d_7">
      <g>
       <use xlink:href="#m7aa4faaa22" x="310.080831" y="198.8355" style="stroke: #000000; stroke-width: 0.8"/>
      </g>
     </g>
     <g id="text_7">
      <!-- 300 -->
      <g transform="translate(300.537081 213.433938)scale(0.1 -0.1)">
       <defs>
        <path id="DejaVuSans-33" d="M 2597 2516 
Q 3050 2419 3304 2112 
Q 3559 1806 3559 1356 
Q 3559 666 3084 287 
Q 2609 -91 1734 -91 
Q 1441 -91 1130 -33 
Q 819 25 488 141 
L 488 750 
Q 750 597 1062 519 
Q 1375 441 1716 441 
Q 2309 441 2620 675 
Q 2931 909 2931 1356 
Q 2931 1769 2642 2001 
Q 2353 2234 1838 2234 
L 1294 2234 
L 1294 2753 
L 1863 2753 
Q 2328 2753 2575 2939 
Q 2822 3125 2822 3475 
Q 2822 3834 2567 4026 
Q 2313 4219 1838 4219 
Q 1578 4219 1281 4162 
Q 984 4106 628 3988 
L 628 4550 
Q 988 4650 1302 4700 
Q 1616 4750 1894 4750 
Q 2613 4750 3031 4423 
Q 3450 4097 3450 3541 
Q 3450 3153 3228 2886 
Q 3006 2619 2597 2516 
z
" transform="scale(0.015625)"/>
       </defs>
       <use xlink:href="#DejaVuSans-33"/>
       <use xlink:href="#DejaVuSans-30" x="63.623047"/>
       <use xlink:href="#DejaVuSans-30" x="127.246094"/>
      </g>
     </g>
    </g>
    <g id="text_8">
     <!-- Time [s] -->
     <g transform="translate(162.952344 227.112063)scale(0.1 -0.1)">
      <defs>
       <path id="DejaVuSans-54" d="M -19 4666 
L 3928 4666 
L 3928 4134 
L 2272 4134 
L 2272 0 
L 1638 0 
L 1638 4134 
L -19 4134 
L -19 4666 
z
" transform="scale(0.015625)"/>
       <path id="DejaVuSans-69" d="M 603 3500 
L 1178 3500 
L 1178 0 
L 603 0 
L 603 3500 
z
M 603 4863 
L 1178 4863 
L 1178 4134 
L 603 4134 
L 603 4863 
z
" transform="scale(0.015625)"/>
       <path id="DejaVuSans-6d" d="M 3328 2828 
Q 3544 3216 3844 3400 
Q 4144 3584 4550 3584 
Q 5097 3584 5394 3201 
Q 5691 2819 5691 2113 
L 5691 0 
L 5113 0 
L 5113 2094 
Q 5113 2597 4934 2840 
Q 4756 3084 4391 3084 
Q 3944 3084 3684 2787 
Q 3425 2491 3425 1978 
L 3425 0 
L 2847 0 
L 2847 2094 
Q 2847 2600 2669 2842 
Q 2491 3084 2119 3084 
Q 1678 3084 1418 2786 
Q 1159 2488 1159 1978 
L 1159 0 
L 581 0 
L 581 3500 
L 1159 3500 
L 1159 2956 
Q 1356 3278 1631 3431 
Q 1906 3584 2284 3584 
Q 2666 3584 2933 3390 
Q 3200 3197 3328 2828 
z
" transform="scale(0.015625)"/>
       <path id="DejaVuSans-65" d="M 3597 1894 
L 3597 1613 
L 953 1613 
Q 991 1019 1311 708 
Q 1631 397 2203 397 
Q 2534 397 2845 478 
Q 3156 559 3463 722 
L 3463 178 
Q 3153 47 2828 -22 
Q 2503 -91 2169 -91 
Q 1331 -91 842 396 
Q 353 884 353 1716 
Q 353 2575 817 3079 
Q 1281 3584 2069 3584 
Q 2775 3584 3186 3129 
Q 3597 2675 3597 1894 
z
M 3022 2063 
Q 3016 2534 2758 2815 
Q 2500 3097 2075 3097 
Q 1594 3097 1305 2825 
Q 1016 2553 972 2059 
L 3022 2063 
z
" transform="scale(0.015625)"/>
       <path id="DejaVuSans-20" transform="scale(0.015625)"/>
       <path id="DejaVuSans-5b" d="M 550 4863 
L 1875 4863 
L 1875 4416 
L 1125 4416 
L 1125 -397 
L 1875 -397 
L 1875 -844 
L 550 -844 
L 550 4863 
z
" transform="scale(0.015625)"/>
       <path id="DejaVuSans-73" d="M 2834 3397 
L 2834 2853 
Q 2591 2978 2328 3040 
Q 2066 3103 1784 3103 
Q 1356 3103 1142 2972 
Q 928 2841 928 2578 
Q 928 2378 1081 2264 
Q 1234 2150 1697 2047 
L 1894 2003 
Q 2506 1872 2764 1633 
Q 3022 1394 3022 966 
Q 3022 478 2636 193 
Q 2250 -91 1575 -91 
Q 1294 -91 989 -36 
Q 684 19 347 128 
L 347 722 
Q 666 556 975 473 
Q 1284 391 1588 391 
Q 1994 391 2212 530 
Q 2431 669 2431 922 
Q 2431 1156 2273 1281 
Q 2116 1406 1581 1522 
L 1381 1569 
Q 847 1681 609 1914 
Q 372 2147 372 2553 
Q 372 3047 722 3315 
Q 1072 3584 1716 3584 
Q 2034 3584 2315 3537 
Q 2597 3491 2834 3397 
z
" transform="scale(0.015625)"/>
       <path id="DejaVuSans-5d" d="M 1947 4863 
L 1947 -844 
L 622 -844 
L 622 -397 
L 1369 -397 
L 1369 4416 
L 622 4416 
L 622 4863 
L 1947 4863 
z
" transform="scale(0.015625)"/>
      </defs>
      <use xlink:href="#DejaVuSans-54"/>
      <use xlink:href="#DejaVuSans-69" x="57.958984"/>
      <use xlink:href="#DejaVuSans-6d" x="85.742188"/>
      <use xlink:href="#DejaVuSans-65" x="183.154297"/>
      <use xlink:href="#DejaVuSans-20" x="244.677734"/>
      <use xlink:href="#DejaVuSans-5b" x="276.464844"/>
      <use xlink:href="#DejaVuSans-73" x="315.478516"/>
      <use xlink:href="#DejaVuSans-5d" x="367.578125"/>
     </g>
    </g>
   </g>
   <g id="matplotlib.axis_2">
    <g id="ytick_1">
     <g id="line2d_8">
      <defs>
       <path id="mfe037676b3" d="M 0 0 
L -3.5 0 
" style="stroke: #000000; stroke-width: 0.8"/>
      </defs>
      <g>
       <use xlink:href="#mfe037676b3" x="43.78125" y="195.923357" style="stroke: #000000; stroke-width: 0.8"/>
      </g>
     </g>
     <g id="text_9">
      <!-- 0.0 -->
      <g transform="translate(20.878125 199.722576)scale(0.1 -0.1)">
       <defs>
        <path id="DejaVuSans-2e" d="M 684 794 
L 1344 794 
L 1344 0 
L 684 0 
L 684 794 
z
" transform="scale(0.015625)"/>
       </defs>
       <use xlink:href="#DejaVuSans-30"/>
       <use xlink:href="#DejaVuSans-2e" x="63.623047"/>
       <use xlink:href="#DejaVuSans-30" x="95.410156"/>
      </g>
     </g>
    </g>
    <g id="ytick_2">
     <g id="line2d_9">
      <g>
       <use xlink:href="#mfe037676b3" x="43.78125" y="166.801929" style="stroke: #000000; stroke-width: 0.8"/>
      </g>
     </g>
     <g id="text_10">
      <!-- 0.2 -->
      <g transform="translate(20.878125 170.601147)scale(0.1 -0.1)">
       <use xlink:href="#DejaVuSans-30"/>
       <use xlink:href="#DejaVuSans-2e" x="63.623047"/>
       <use xlink:href="#DejaVuSans-32" x="95.410156"/>
      </g>
     </g>
    </g>
    <g id="ytick_3">
     <g id="line2d_10">
      <g>
       <use xlink:href="#mfe037676b3" x="43.78125" y="137.6805" style="stroke: #000000; stroke-width: 0.8"/>
      </g>
     </g>
     <g id="text_11">
      <!-- 0.4 -->
      <g transform="translate(20.878125 141.479719)scale(0.1 -0.1)">
       <defs>
        <path id="DejaVuSans-34" d="M 2419 4116 
L 825 1625 
L 2419 1625 
L 2419 4116 
z
M 2253 4666 
L 3047 4666 
L 3047 1625 
L 3713 1625 
L 3713 1100 
L 3047 1100 
L 3047 0 
L 2419 0 
L 2419 1100 
L 313 1100 
L 313 1709 
L 2253 4666 
z
" transform="scale(0.015625)"/>
       </defs>
       <use xlink:href="#DejaVuSans-30"/>
       <use xlink:href="#DejaVuSans-2e" x="63.623047"/>
       <use xlink:href="#DejaVuSans-34" x="95.410156"/>
      </g>
     </g>
    </g>
    <g id="ytick_4">
     <g id="line2d_11">
      <g>
       <use xlink:href="#mfe037676b3" x="43.78125" y="108.559071" style="stroke: #000000; stroke-width: 0.8"/>
      </g>
     </g>
     <g id="text_12">
      <!-- 0.6 -->
      <g transform="translate(20.878125 112.35829)scale(0.1 -0.1)">
       <defs>
        <path id="DejaVuSans-36" d="M 2113 2584 
Q 1688 2584 1439 2293 
Q 1191 2003 1191 1497 
Q 1191 994 1439 701 
Q 1688 409 2113 409 
Q 2538 409 2786 701 
Q 3034 994 3034 1497 
Q 3034 2003 2786 2293 
Q 2538 2584 2113 2584 
z
M 3366 4563 
L 3366 3988 
Q 3128 4100 2886 4159 
Q 2644 4219 2406 4219 
Q 1781 4219 1451 3797 
Q 1122 3375 1075 2522 
Q 1259 2794 1537 2939 
Q 1816 3084 2150 3084 
Q 2853 3084 3261 2657 
Q 3669 2231 3669 1497 
Q 3669 778 3244 343 
Q 2819 -91 2113 -91 
Q 1303 -91 875 529 
Q 447 1150 447 2328 
Q 447 3434 972 4092 
Q 1497 4750 2381 4750 
Q 2619 4750 2861 4703 
Q 3103 4656 3366 4563 
z
" transform="scale(0.015625)"/>
       </defs>
       <use xlink:href="#DejaVuSans-30"/>
       <use xlink:href="#DejaVuSans-2e" x="63.623047"/>
       <use xlink:href="#DejaVuSans-36" x="95.410156"/>
      </g>
     </g>
    </g>
    <g id="ytick_5">
     <g id="line2d_12">
      <g>
       <use xlink:href="#mfe037676b3" x="43.78125" y="79.437643" style="stroke: #000000; stroke-width: 0.8"/>
      </g>
     </g>
     <g id="text_13">
      <!-- 0.8 -->
      <g transform="translate(20.878125 83.236862)scale(0.1 -0.1)">
       <defs>
        <path id="DejaVuSans-38" d="M 2034 2216 
Q 1584 2216 1326 1975 
Q 1069 1734 1069 1313 
Q 1069 891 1326 650 
Q 1584 409 2034 409 
Q 2484 409 2743 651 
Q 3003 894 3003 1313 
Q 3003 1734 2745 1975 
Q 2488 2216 2034 2216 
z
M 1403 2484 
Q 997 2584 770 2862 
Q 544 3141 544 3541 
Q 544 4100 942 4425 
Q 1341 4750 2034 4750 
Q 2731 4750 3128 4425 
Q 3525 4100 3525 3541 
Q 3525 3141 3298 2862 
Q 3072 2584 2669 2484 
Q 3125 2378 3379 2068 
Q 3634 1759 3634 1313 
Q 3634 634 3220 271 
Q 2806 -91 2034 -91 
Q 1263 -91 848 271 
Q 434 634 434 1313 
Q 434 1759 690 2068 
Q 947 2378 1403 2484 
z
M 1172 3481 
Q 1172 3119 1398 2916 
Q 1625 2713 2034 2713 
Q 2441 2713 2670 2916 
Q 2900 3119 2900 3481 
Q 2900 3844 2670 4047 
Q 2441 4250 2034 4250 
Q 1625 4250 1398 4047 
Q 1172 3844 1172 3481 
z
" transform="scale(0.015625)"/>
       </defs>
       <use xlink:href="#DejaVuSans-30"/>
       <use xlink:href="#DejaVuSans-2e" x="63.623047"/>
       <use xlink:href="#DejaVuSans-38" x="95.410156"/>
      </g>
     </g>
    </g>
    <g id="ytick_6">
     <g id="line2d_13">
      <g>
       <use xlink:href="#mfe037676b3" x="43.78125" y="50.316214" style="stroke: #000000; stroke-width: 0.8"/>
      </g>
     </g>
     <g id="text_14">
      <!-- 1.0 -->
      <g transform="translate(20.878125 54.115433)scale(0.1 -0.1)">
       <use xlink:href="#DejaVuSans-31"/>
       <use xlink:href="#DejaVuSans-2e" x="63.623047"/>
       <use xlink:href="#DejaVuSans-30" x="95.410156"/>
      </g>
     </g>
    </g>
    <g id="text_15">
     <!-- (F-F$^o$)/F$^o$ -->
     <g transform="translate(14.798438 137.9955)rotate(-90)scale(0.1 -0.1)">
      <defs>
       <path id="DejaVuSans-28" d="M 1984 4856 
Q 1566 4138 1362 3434 
Q 1159 2731 1159 2009 
Q 1159 1288 1364 580 
Q 1569 -128 1984 -844 
L 1484 -844 
Q 1016 -109 783 600 
Q 550 1309 550 2009 
Q 550 2706 781 3412 
Q 1013 4119 1484 4856 
L 1984 4856 
z
" transform="scale(0.015625)"/>
       <path id="DejaVuSans-46" d="M 628 4666 
L 3309 4666 
L 3309 4134 
L 1259 4134 
L 1259 2759 
L 3109 2759 
L 3109 2228 
L 1259 2228 
L 1259 0 
L 628 0 
L 628 4666 
z
" transform="scale(0.015625)"/>
       <path id="DejaVuSans-2d" d="M 313 2009 
L 1997 2009 
L 1997 1497 
L 313 1497 
L 313 2009 
z
" transform="scale(0.015625)"/>
       <path id="DejaVuSans-Oblique-6f" d="M 1625 -91 
Q 1009 -91 651 289 
Q 294 669 294 1325 
Q 294 1706 417 2101 
Q 541 2497 738 2766 
Q 1047 3184 1428 3384 
Q 1809 3584 2291 3584 
Q 2888 3584 3255 3212 
Q 3622 2841 3622 2241 
Q 3622 1825 3500 1412 
Q 3378 1000 3181 728 
Q 2875 309 2494 109 
Q 2113 -91 1625 -91 
z
M 891 1344 
Q 891 869 1089 633 
Q 1288 397 1691 397 
Q 2269 397 2648 901 
Q 3028 1406 3028 2181 
Q 3028 2634 2825 2865 
Q 2622 3097 2228 3097 
Q 1903 3097 1650 2945 
Q 1397 2794 1197 2484 
Q 1050 2253 970 1956 
Q 891 1659 891 1344 
z
" transform="scale(0.015625)"/>
       <path id="DejaVuSans-29" d="M 513 4856 
L 1013 4856 
Q 1481 4119 1714 3412 
Q 1947 2706 1947 2009 
Q 1947 1309 1714 600 
Q 1481 -109 1013 -844 
L 513 -844 
Q 928 -128 1133 580 
Q 1338 1288 1338 2009 
Q 1338 2731 1133 3434 
Q 928 4138 513 4856 
z
" transform="scale(0.015625)"/>
       <path id="DejaVuSans-2f" d="M 1625 4666 
L 2156 4666 
L 531 -594 
L 0 -594 
L 1625 4666 
z
" transform="scale(0.015625)"/>
      </defs>
      <use xlink:href="#DejaVuSans-28" transform="translate(0 0.51875)"/>
      <use xlink:href="#DejaVuSans-46" transform="translate(39.013672 0.51875)"/>
      <use xlink:href="#DejaVuSans-2d" transform="translate(96.533203 0.51875)"/>
      <use xlink:href="#DejaVuSans-46" transform="translate(132.617188 0.51875)"/>
      <use xlink:href="#DejaVuSans-Oblique-6f" transform="translate(191.09375 38.8)scale(0.7)"/>
      <use xlink:href="#DejaVuSans-29" transform="translate(236.655273 0.51875)"/>
      <use xlink:href="#DejaVuSans-2f" transform="translate(275.668945 0.51875)"/>
      <use xlink:href="#DejaVuSans-46" transform="translate(309.360352 0.51875)"/>
      <use xlink:href="#DejaVuSans-Oblique-6f" transform="translate(367.836914 38.8)scale(0.7)"/>
     </g>
    </g>
   </g>
   <g id="line2d_14">
    <path d="M 56.463068 123.614304 
L 56.851158 126.172973 
L 57.120876 123.575816 
L 57.254466 123.326023 
L 57.524184 124.315058 
L 57.793902 126.456467 
L 58.065311 123.92502 
L 58.200593 124.818024 
L 58.335029 124.613571 
L 58.469466 123.924644 
L 58.739184 125.116913 
L 59.143338 128.010142 
L 59.277774 128.78393 
L 59.41221 126.689551 
L 59.681928 121.581317 
L 59.951646 121.979428 
L 60.223055 124.279293 
L 60.357491 124.315809 
L 60.627209 121.062017 
L 60.761646 121.309182 
L 61.1658 124.079627 
L 61.435518 123.875362 
L 61.705236 124.746118 
L 62.10939 112.192238 
L 62.243826 112.58697 
L 62.920235 118.891227 
L 63.054671 118.6205 
L 63.189107 116.603378 
L 63.324389 116.941786 
L 63.727698 120.519531 
L 63.993188 117.370594 
L 64.12847 117.561342 
L 64.667061 122.447193 
L 64.936779 124.211799 
L 65.071215 124.329045 
L 65.340933 126.12951 
L 65.610651 127.632495 
L 65.879523 125.385011 
L 66.013959 125.588901 
L 66.283677 127.56472 
L 66.822268 132.721391 
L 67.09114 130.166007 
L 67.226422 130.46743 
L 67.361704 127.14652 
L 67.631422 127.371625 
L 68.438039 133.082142 
L 68.573321 131.022965 
L 68.843039 122.945465 
L 68.977475 123.266226 
L 69.111911 123.237783 
L 69.516066 126.869316 
L 69.785784 128.279555 
L 69.92022 129.775406 
L 70.055502 128.829176 
L 70.594092 132.485585 
L 70.86381 134.006405 
L 71.267964 125.179244 
L 71.538528 126.192029 
L 72.2124 131.807078 
L 72.346836 131.983933 
L 72.615709 126.669556 
L 72.75099 126.79159 
L 72.886272 128.176859 
L 73.020708 127.960203 
L 73.291272 130.545626 
L 73.425708 130.923085 
L 73.694581 133.261437 
L 73.830708 131.797691 
L 73.965144 128.20136 
L 74.100426 127.993433 
L 74.908734 133.396613 
L 75.04317 132.974095 
L 75.178452 132.983388 
L 75.44817 129.013165 
L 75.852324 131.576247 
L 76.39176 136.237556 
L 76.660633 131.821722 
L 76.795915 132.054055 
L 77.065633 133.257119 
L 77.469787 136.936245 
L 77.604223 137.250904 
L 77.738659 138.324706 
L 77.873941 136.823599 
L 78.008377 136.680913 
L 78.278095 138.751918 
L 78.950276 143.49452 
L 79.354431 145.72276 
L 79.488867 146.087828 
L 79.758585 138.734364 
L 79.893021 138.482223 
L 80.028303 138.517519 
L 80.566893 141.486879 
L 80.70133 141.606566 
L 80.970202 131.239997 
L 81.240765 125.189476 
L 81.645765 127.737726 
L 82.049074 130.445558 
L 82.187738 130.970209 
L 82.322174 130.490523 
L 82.860764 133.978432 
L 82.996046 134.943436 
L 83.264073 130.27565 
L 83.399355 130.333569 
L 83.937945 134.641074 
L 84.207663 131.209583 
L 85.287381 138.991667 
L 85.421817 139.34838 
L 85.826817 126.206298 
L 85.961253 125.805652 
L 86.230971 127.443155 
L 86.903998 133.45303 
L 87.312379 124.041891 
L 87.446816 124.691016 
L 87.851815 129.299756 
L 88.121533 131.206485 
L 88.390406 133.433035 
L 88.524842 134.487406 
L 89.197869 117.433394 
L 89.467587 120.546941 
L 90.14315 127.882195 
L 90.412868 125.228245 
L 90.547304 125.864416 
L 90.950613 129.929638 
L 91.08674 128.792566 
L 91.221176 129.513503 
L 91.626176 133.557603 
L 91.760612 131.9446 
L 92.164766 118.066937 
L 92.299203 118.605762 
L 92.973075 125.627577 
L 93.241947 128.71315 
L 93.377229 129.854634 
L 93.512511 128.853583 
L 93.781383 130.541026 
L 94.050256 133.405249 
L 94.320819 135.973212 
L 94.455256 134.646143 
L 94.724974 124.961649 
L 94.860255 124.709696 
L 95.668564 133.308279 
L 96.071872 137.374252 
L 96.34159 133.958437 
L 96.476027 134.644923 
L 96.610463 134.731942 
L 97.015463 125.295176 
L 97.149053 125.989923 
L 98.090107 136.34119 
L 98.223698 137.079118 
L 98.493416 140.10574 
L 98.628697 140.856998 
L 98.89757 135.77242 
L 99.167288 136.915499 
L 99.571442 140.703235 
L 99.839469 143.352116 
L 99.973905 141.013389 
L 100.108342 134.809668 
L 100.243623 134.391938 
L 100.378059 134.571609 
L 101.051086 140.537833 
L 101.320804 137.22002 
L 101.45524 137.177966 
L 101.859395 141.504527 
L 101.993831 142.260854 
L 102.39714 145.551913 
L 102.531576 145.614244 
L 102.801294 136.985059 
L 103.06763 138.493676 
L 103.472629 141.858331 
L 103.875093 145.48686 
L 104.009529 144.648864 
L 104.41622 133.708174 
L 104.685092 135.641374 
L 105.089246 139.436996 
L 105.897555 146.337152 
L 106.031991 145.209562 
L 106.298327 146.805949 
L 106.699945 132.801276 
L 106.834381 132.475259 
L 107.103253 134.240992 
L 107.646917 139.491629 
L 107.781353 137.679524 
L 107.916635 133.437729 
L 108.052762 133.012207 
L 108.591352 137.906506 
L 108.860225 140.885723 
L 109.399661 145.365014 
L 109.534097 142.768044 
L 109.669379 136.503964 
L 109.803815 135.450533 
L 109.938251 135.770824 
L 110.881842 144.45408 
L 111.017123 142.23748 
L 111.289378 134.351385 
L 111.827968 138.721691 
L 112.23635 142.347498 
L 112.372477 143.474901 
L 112.506914 140.415987 
L 112.642195 140.543559 
L 112.777477 141.321852 
L 113.312685 146.174566 
L 113.447122 145.91792 
L 113.851276 133.96313 
L 113.986558 134.208136 
L 114.389866 138.034735 
L 114.659584 140.844607 
L 114.794866 141.68279 
L 115.334302 126.671246 
L 115.468738 127.53102 
L 116.549301 140.798609 
L 116.953455 131.376487 
L 117.088737 131.884428 
L 118.436482 146.023714 
L 118.7062 137.352474 
L 118.840636 137.590064 
L 119.243944 141.545455 
L 119.786762 146.799284 
L 119.921199 147.783157 
L 120.053944 147.363361 
L 120.592534 135.082085 
L 120.727816 135.591904 
L 121.400843 142.916644 
L 121.936051 148.1961 
L 122.071333 146.281111 
L 122.205769 142.22875 
L 122.475487 143.89526 
L 122.745205 146.482654 
L 123.549286 153.430404 
L 123.818159 145.302777 
L 123.95344 144.747242 
L 124.087877 144.77822 
L 124.627312 149.787512 
L 125.299494 154.375038 
L 125.43393 155.708396 
L 125.977593 145.82677 
L 126.785902 152.162756 
L 127.458929 156.939997 
L 127.593365 156.129975 
L 127.728646 151.851476 
L 127.863083 151.714236 
L 128.670546 156.760889 
L 128.939418 150.094098 
L 129.0747 150.502254 
L 129.747727 155.1155 
L 130.155263 157.449628 
L 130.289699 157.635589 
L 130.558572 150.849956 
L 130.693853 151.076563 
L 131.367725 155.67066 
L 131.503007 155.030077 
L 131.769343 147.696607 
L 131.908852 148.182489 
L 132.582725 152.311731 
L 132.717161 150.343235 
L 132.986879 151.839273 
L 133.256597 154.264551 
L 133.526315 156.097871 
L 133.661597 156.026528 
L 133.931315 149.63835 
L 134.065751 150.093066 
L 134.469905 152.993148 
L 135.009341 156.635007 
L 135.414341 159.750995 
L 135.548777 159.571042 
L 135.684059 161.140958 
L 135.818495 159.893492 
L 136.088213 151.742397 
L 136.222649 152.184347 
L 136.357085 152.180029 
L 136.76124 155.033269 
L 137.703984 161.764362 
L 137.842648 161.820497 
L 137.977084 162.855342 
L 138.246802 153.451713 
L 138.381238 152.332289 
L 139.189547 157.638029 
L 139.592856 147.870458 
L 139.728137 148.302551 
L 140.671728 155.095693 
L 140.807009 154.948502 
L 141.076727 148.133112 
L 141.212009 148.302269 
L 141.750599 151.932019 
L 142.423626 157.256158 
L 142.558062 158.04121 
L 142.692499 157.427287 
L 142.962217 148.707327 
L 143.097498 148.667807 
L 143.907498 154.424321 
L 144.041934 153.438665 
L 144.312498 145.601383 
L 144.446934 145.220732 
L 145.11996 151.023525 
L 145.794678 155.496809 
L 146.198832 147.704962 
L 146.469396 149.469943 
L 147.142423 153.984624 
L 147.547422 156.708509 
L 147.681859 158.087113 
L 147.81714 156.374981 
L 148.086858 149.741327 
L 148.355731 150.988135 
L 149.708548 160.297893 
L 149.842984 158.748629 
L 150.111857 150.443208 
L 150.245448 150.731302 
L 150.785729 154.038037 
L 151.054602 155.884031 
L 151.325165 157.51318 
L 151.729319 160.319859 
L 151.999037 162.523599 
L 152.132628 162.482858 
L 152.537628 152.777524 
L 152.672064 152.610244 
L 152.807346 153.093873 
L 153.346782 156.913431 
L 153.6165 158.678695 
L 153.750936 158.63786 
L 154.020654 151.96065 
L 154.155936 151.729912 
L 155.369244 159.038975 
L 155.638962 151.941687 
L 155.773398 151.30608 
L 156.716988 156.797593 
L 157.121142 158.411253 
L 157.39086 153.097627 
L 157.659733 153.64171 
L 157.931142 155.68765 
L 158.20086 156.988153 
L 158.604168 159.935829 
L 158.73945 160.059834 
L 158.874732 159.863641 
L 159.14445 153.729105 
L 160.491349 162.191386 
L 160.761067 163.143529 
L 161.165221 166.134574 
L 161.300503 164.761226 
L 161.434939 161.092801 
L 161.704657 160.598283 
L 161.974375 162.81432 
L 162.651629 165.216411 
L 163.053247 168.089928 
L 163.322965 169.308293 
L 163.457401 167.280094 
L 163.727119 160.273017 
L 163.862401 160.455035 
L 165.885708 170.263441 
L 166.290708 162.879937 
L 166.425144 163.095467 
L 167.233453 166.332174 
L 167.367889 167.572599 
L 167.503171 166.507621 
L 167.773734 159.802437 
L 167.909016 159.915458 
L 168.981124 165.227864 
L 169.117251 163.685359 
L 169.386124 158.836212 
L 169.789432 160.928431 
L 170.328868 163.702256 
L 170.598586 165.456724 
L 170.868304 166.582906 
L 171.138022 167.973526 
L 171.542176 159.597796 
L 172.353021 162.882471 
L 172.757176 165.60307 
L 173.163021 168.108045 
L 173.297457 166.10951 
L 173.568021 158.247071 
L 173.971329 159.451074 
L 175.050201 165.448839 
L 175.185483 164.234135 
L 175.455201 157.155527 
L 175.588792 156.594548 
L 175.857664 157.889231 
L 176.533227 162.388611 
L 177.072663 165.655357 
L 177.207945 164.573764 
L 177.477663 158.963221 
L 177.746536 160.22364 
L 178.421253 164.046109 
L 178.690126 165.866663 
L 178.825407 165.010362 
L 179.228716 156.061355 
L 179.363998 156.108385 
L 179.633716 158.027129 
L 180.038716 160.595655 
L 180.44287 163.097814 
L 180.849561 165.607294 
L 181.524278 168.77172 
L 181.65956 167.338388 
L 181.929278 160.304182 
L 182.067096 160.07551 
L 182.33766 161.322225 
L 182.607378 163.59036 
L 182.741814 163.850386 
L 183.011532 165.485261 
L 183.551813 169.017571 
L 183.68625 169.13416 
L 183.820686 170.188625 
L 183.955122 170.151827 
L 184.225686 171.240179 
L 184.360967 169.276564 
L 184.62984 163.609135 
L 184.765122 163.688363 
L 185.711248 169.065821 
L 185.845685 169.244741 
L 186.25153 170.952367 
L 186.521248 172.660181 
L 186.655684 173.128227 
L 186.790966 172.969865 
L 187.062375 165.749511 
L 187.197657 165.963633 
L 187.332938 165.954903 
L 187.872374 168.283961 
L 188.277374 170.483946 
L 188.412656 170.689901 
L 188.682374 172.295394 
L 188.81681 171.450546 
L 189.086528 164.984454 
L 189.490682 165.778423 
L 189.7604 167.509048 
L 189.895682 167.874961 
L 190.1654 169.637877 
L 190.435118 170.879241 
L 190.839272 172.730867 
L 190.973708 171.042484 
L 191.10899 167.261413 
L 191.243426 166.664387 
L 191.782017 168.779981 
L 192.320607 171.560095 
L 192.455043 172.012276 
L 192.994479 175.136806 
L 193.400325 176.409805 
L 193.670888 177.552227 
L 193.941452 178.409654 
L 194.076733 178.436032 
L 194.210324 177.034617 
L 194.480042 169.838294 
L 194.615324 169.700302 
L 195.019478 170.844602 
L 195.558914 173.224258 
L 195.694196 172.292203 
L 195.963914 166.429895 
L 196.099195 166.257264 
L 196.50335 168.068713 
L 196.638631 168.47715 
L 197.042786 170.887126 
L 197.313349 171.785294 
L 197.583067 173.185395 
L 197.852785 165.842725 
L 197.988067 165.149481 
L 198.794684 169.004992 
L 199.468556 172.799299 
L 199.602993 173.305645 
L 199.872711 174.920244 
L 200.007992 175.288222 
L 200.142429 176.273409 
L 200.27771 176.388214 
L 200.412147 175.900643 
L 200.681019 171.131663 
L 200.949892 171.841992 
L 201.220455 173.335402 
L 201.490173 174.395499 
L 201.759045 175.490798 
L 201.893482 174.793423 
L 202.1632 169.070046 
L 202.298481 168.758015 
L 202.569045 169.857538 
L 202.972354 171.690389 
L 203.10679 172.491868 
L 203.241226 172.573162 
L 203.51179 174.012032 
L 203.647071 174.5165 
L 203.781508 175.470428 
L 203.915944 175.355059 
L 204.186507 169.047704 
L 204.456225 169.784975 
L 204.725943 171.061071 
L 205.130097 173.25026 
L 205.266225 173.565107 
L 205.400661 174.597606 
L 205.535097 174.672422 
L 205.804815 175.79316 
L 206.074533 177.170731 
L 206.209815 176.07027 
L 206.479533 169.470879 
L 206.616506 168.353145 
L 207.424814 172.023916 
L 208.36925 176.315651 
L 208.77425 167.704208 
L 208.910377 168.437442 
L 209.045659 168.13508 
L 209.448122 170.756644 
L 209.853121 172.91495 
L 210.258121 164.256945 
L 210.933684 168.405807 
L 211.87812 173.089364 
L 212.28312 175.271607 
L 212.417556 173.653441 
L 212.551992 169.855942 
L 212.758297 169.177904 
L 213.027169 170.822636 
L 213.701887 174.091448 
L 213.836323 174.116511 
L 213.971605 170.601568 
L 214.106887 170.459164 
L 214.376605 171.728501 
L 214.916041 174.256193 
L 215.185759 175.828268 
L 215.725195 177.780243 
L 216.129349 179.457642 
L 216.399912 180.244195 
L 216.535194 181.482461 
L 216.670476 181.405111 
L 216.939348 183.047026 
L 217.209066 183.861647 
L 217.343503 183.172345 
L 217.613221 179.304912 
L 217.748502 179.005648 
L 218.825683 182.346365 
L 219.229837 173.547459 
L 219.364274 173.80204 
L 220.311246 177.671257 
L 220.446528 177.376217 
L 220.7154 171.650587 
L 220.850682 171.735448 
L 221.794272 175.702291 
L 222.06399 169.835478 
L 222.468144 170.85352 
L 222.737017 173.100816 
L 222.872298 173.240122 
L 223.410889 175.78856 
L 223.680607 176.85335 
L 223.949479 178.287715 
L 224.626734 181.587035 
L 224.762015 181.638946 
L 225.031733 182.76372 
L 225.435888 174.835665 
L 225.840042 175.715621 
L 225.974478 175.912471 
L 226.243351 177.748702 
L 226.781941 180.344357 
L 227.186095 174.349126 
L 227.320531 174.892176 
L 227.455813 174.920619 
L 227.993558 177.241323 
L 228.397712 179.004709 
L 228.801867 181.279791 
L 228.937148 181.333956 
L 229.206866 181.89991 
L 229.475739 183.22313 
L 229.61102 183.762894 
L 229.745457 183.832641 
L 230.148765 177.485954 
L 230.284047 177.684399 
L 231.229328 180.790249 
L 231.634328 182.089438 
L 232.037637 175.822072 
L 232.172073 175.991981 
L 232.8451 178.561727 
L 233.38369 180.576033 
L 233.518126 180.175293 
L 233.787844 175.343982 
L 234.058408 175.764529 
L 235.001998 180.171069 
L 235.405307 173.751725 
L 235.676716 174.752494 
L 235.811998 175.23556 
L 236.081715 176.974821 
L 236.216152 177.211378 
L 236.351433 177.796952 
L 236.621997 173.07932 
L 237.430305 176.118332 
L 237.835305 178.371073 
L 237.969741 178.450489 
L 238.105023 177.338856 
L 238.378123 173.783266 
L 238.782277 175.482913 
L 239.591431 179.337955 
L 239.72164 179.376912 
L 239.859458 180.185431 
L 239.99474 180.12939 
L 240.264458 174.57639 
L 240.398894 175.112212 
L 240.53333 175.187591 
L 240.937485 176.889209 
L 241.207203 177.841072 
L 241.476921 178.923885 
L 242.151638 182.052827 
L 242.421356 176.935394 
L 242.555793 176.915212 
L 242.825511 177.872237 
L 243.364101 180.05448 
L 243.499383 180.135022 
L 243.633819 180.954994 
L 244.037973 174.958731 
L 244.173255 175.520649 
L 244.307691 175.400493 
L 244.576564 176.893434 
L 244.9841 178.391349 
L 245.523536 181.167614 
L 245.658818 181.284861 
L 245.792408 182.246392 
L 246.061281 176.100309 
L 246.196563 175.691496 
L 246.330999 175.953962 
L 247.004871 178.991004 
L 247.273743 179.85472 
L 247.409025 180.534448 
L 247.543461 179.130685 
L 247.678743 176.451484 
L 247.814025 176.158791 
L 248.082897 177.032833 
L 248.217334 177.931658 
L 248.352615 177.623288 
L 248.622333 178.572992 
L 249.027333 180.568617 
L 249.430642 174.650456 
L 249.565078 174.473882 
L 249.834796 175.427528 
L 250.778386 179.872838 
L 250.912822 178.935432 
L 251.18254 174.130217 
L 251.317822 174.328662 
L 251.856413 176.854101 
L 252.126131 178.093306 
L 252.395849 179.528515 
L 252.529439 179.60136 
L 252.664721 178.331928 
L 252.934439 174.813323 
L 253.068875 175.025944 
L 254.415774 181.574831 
L 254.551056 181.126029 
L 254.819928 176.042202 
L 254.954365 176.147902 
L 255.224083 176.90329 
L 256.306337 182.059868 
L 256.441618 180.897263 
L 256.710491 176.763421 
L 256.844927 176.779004 
L 257.656617 180.171444 
L 257.791899 178.967066 
L 258.061617 175.011206 
L 258.466617 177.294267 
L 258.601053 177.480791 
L 259.544643 181.656312 
L 259.679925 181.866585 
L 259.815207 181.624396 
L 260.084079 178.015486 
L 260.353797 178.822879 
L 260.488233 179.255629 
L 260.893233 181.142644 
L 261.162951 182.339513 
L 261.431824 179.311671 
L 261.567105 179.317772 
L 261.69816 179.528421 
L 262.102314 181.55249 
L 262.776186 184.158377 
L 262.910622 184.300593 
L 263.045058 184.904847 
L 263.582803 179.124302 
L 264.123085 181.449418 
L 264.391957 181.787451 
L 264.527239 182.706552 
L 264.662521 182.668816 
L 265.066675 184.600702 
L 265.605266 186.631905 
L 265.740547 186.358925 
L 266.010265 181.037038 
L 266.144702 179.715133 
L 266.279983 179.590752 
L 266.954701 182.429818 
L 267.224419 183.629596 
L 267.358855 184.034278 
L 267.494137 183.99335 
L 267.628573 184.854062 
L 267.759627 184.345652 
L 268.032727 179.255535 
L 268.167164 179.341146 
L 268.302445 180.078981 
L 268.437727 180.198855 
L 268.702372 181.320907 
L 269.51068 184.201558 
L 269.645962 184.680118 
L 269.780398 184.261918 
L 270.049271 179.376912 
L 270.184553 179.244364 
L 270.318989 179.447973 
L 270.723143 181.040981 
L 271.127297 182.259158 
L 271.261734 182.697822 
L 271.532297 179.419436 
L 272.205324 182.143789 
L 272.340605 182.158715 
L 272.475887 183.199474 
L 272.610323 183.029754 
L 273.014478 184.765447 
L 273.148914 183.824286 
L 273.418632 178.823724 
L 273.960604 180.448555 
L 274.230322 181.689167 
L 274.364759 181.835232 
L 274.634477 182.963762 
L 274.768913 183.628657 
L 274.904195 183.315031 
L 275.038631 181.061727 
L 275.177295 181.114952 
L 275.851167 184.196207 
L 275.986449 184.202778 
L 276.255321 185.294041 
L 276.794757 186.963179 
L 276.930039 186.842647 
L 277.198066 181.366529 
L 277.467784 180.949268 
L 277.736656 182.317077 
L 277.871092 182.629389 
L 278.14081 184.392306 
L 278.276092 184.585495 
L 278.680246 186.146117 
L 278.814683 186.196057 
L 279.218837 187.846984 
L 279.488555 188.642737 
L 279.758273 183.943692 
L 279.892709 183.828698 
L 280.296863 184.808065 
L 280.567427 185.705857 
L 280.701863 185.846571 
L 280.971581 186.905729 
L 281.106017 187.737905 
L 281.241299 187.513645 
L 281.510171 188.252511 
L 281.644608 188.862961 
L 282.184044 182.282908 
L 282.31848 182.043253 
L 282.588198 183.128882 
L 282.722634 183.694743 
L 282.857916 183.575901 
L 283.126788 185.118594 
L 283.397352 185.587485 
L 283.531788 186.467347 
L 283.801506 182.691251 
L 283.936788 182.365703 
L 285.014814 186.248907 
L 285.150096 187.110464 
L 285.285378 187.157776 
L 285.962632 189.823084 
L 286.097068 188.943879 
L 286.366786 184.13735 
L 286.501222 184.429292 
L 286.770095 185.372799 
L 287.718758 188.163614 
L 287.853194 188.972697 
L 287.98763 189.047795 
L 288.525375 190.991978 
L 288.92953 185.033358 
L 289.198402 185.576971 
L 289.333684 186.197183 
L 289.46812 186.261486 
L 290.815864 190.564767 
L 291.086428 191.14743 
L 291.220864 191.271717 
L 291.625018 183.875353 
L 291.7603 183.855452 
L 291.894736 183.638138 
L 292.030018 183.99917 
L 292.164454 185.0174 
L 292.300582 184.878657 
L 292.569454 185.890034 
L 292.839172 187.217197 
L 292.974454 187.059961 
L 293.378608 188.895253 
L 293.513044 188.650059 
L 293.648326 188.860145 
L 293.918044 189.951313 
L 294.05248 190.591333 
L 294.187762 190.580913 
L 294.453252 191.60393 
L 294.587689 192.230338 
L 294.722125 192.012461 
L 294.857407 192.727203 
L 294.991843 192.605732 
L 295.262406 193.228761 
L 295.534661 194.152555 
L 295.665715 193.776973 
L 295.935433 194.448534 
L 296.069869 194.747704 
L 296.205151 194.666411 
L 296.474869 192.050104 
L 296.742896 192.272487 
L 297.012614 193.01952 
L 297.147896 192.654452 
L 297.418459 194.001797 
L 297.553741 193.921536 
L 297.823459 194.688377 
L 298.093177 194.962108 
L 298.229304 194.635902 
L 298.364586 195.260433 
L 298.499022 195.317226 
L 298.634304 195.923357 
L 298.769586 195.756077 
L 298.904022 195.205236 
L 299.17374 191.324942 
L 299.310713 190.920729 
L 299.445994 191.227879 
L 299.580431 190.994982 
L 299.850149 191.905916 
L 299.984585 191.926193 
L 300.389584 193.348448 
L 300.524021 193.00666 
L 300.793739 193.966407 
L 300.928175 193.909333 
L 301.062611 194.419715 
L 301.197893 194.185692 
L 301.333175 194.260133 
L 301.467611 193.445042 
L 301.737329 189.410986 
L 301.871765 188.899665 
L 302.006201 189.76723 
L 302.140638 189.642193 
L 303.353946 192.829148 
L 303.489228 191.436368 
L 303.758945 186.421256 
L 303.893382 186.340714 
L 304.028663 186.824061 
L 304.1631 186.65434 
L 304.702536 188.660667 
L 304.836972 189.234694 
L 304.972254 189.145797 
L 305.376408 190.493236 
L 305.51169 191.082846 
L 305.647817 191.007561 
L 306.052817 192.152518 
L 306.32338 192.700449 
L 306.457816 193.473204 
L 306.591407 192.942263 
L 306.996407 186.760979 
L 307.404789 188.103912 
L 307.539225 188.851509 
L 307.673661 188.565762 
L 308.078661 189.888513 
L 308.481124 191.012818 
L 308.750842 192.132148 
L 308.885278 191.870151 
L 309.02056 192.430943 
L 309.154996 191.67255 
L 309.424714 186.87738 
L 309.559996 186.278195 
L 309.829714 186.678935 
L 310.099432 187.657832 
L 310.099432 187.657832 
" clip-path="url(#p5f0ec844be)" style="fill: none; stroke: #1f77b4; stroke-width: 1.5; stroke-linecap: square"/>
   </g>
   <g id="patch_3">
    <path d="M 43.78125 198.8355 
L 43.78125 35.7555 
" style="fill: none; stroke: #000000; stroke-width: 0.8; stroke-linejoin: miter; stroke-linecap: square"/>
   </g>
   <g id="patch_4">
    <path d="M 322.78125 198.8355 
L 322.78125 35.7555 
" style="fill: none; stroke: #000000; stroke-width: 0.8; stroke-linejoin: miter; stroke-linecap: square"/>
   </g>
   <g id="patch_5">
    <path d="M 43.78125 198.8355 
L 322.78125 198.8355 
" style="fill: none; stroke: #000000; stroke-width: 0.8; stroke-linejoin: miter; stroke-linecap: square"/>
   </g>
   <g id="patch_6">
    <path d="M 43.78125 35.7555 
L 322.78125 35.7555 
" style="fill: none; stroke: #000000; stroke-width: 0.8; stroke-linejoin: miter; stroke-linecap: square"/>
   </g>
   <g id="text_16">
    <!-- After equalize -->
    <g transform="translate(141.814687 16.318125)scale(0.12 -0.12)">
     <defs>
      <path id="DejaVuSans-41" d="M 2188 4044 
L 1331 1722 
L 3047 1722 
L 2188 4044 
z
M 1831 4666 
L 2547 4666 
L 4325 0 
L 3669 0 
L 3244 1197 
L 1141 1197 
L 716 0 
L 50 0 
L 1831 4666 
z
" transform="scale(0.015625)"/>
      <path id="DejaVuSans-66" d="M 2375 4863 
L 2375 4384 
L 1825 4384 
Q 1516 4384 1395 4259 
Q 1275 4134 1275 3809 
L 1275 3500 
L 2222 3500 
L 2222 3053 
L 1275 3053 
L 1275 0 
L 697 0 
L 697 3053 
L 147 3053 
L 147 3500 
L 697 3500 
L 697 3744 
Q 697 4328 969 4595 
Q 1241 4863 1831 4863 
L 2375 4863 
z
" transform="scale(0.015625)"/>
      <path id="DejaVuSans-74" d="M 1172 4494 
L 1172 3500 
L 2356 3500 
L 2356 3053 
L 1172 3053 
L 1172 1153 
Q 1172 725 1289 603 
Q 1406 481 1766 481 
L 2356 481 
L 2356 0 
L 1766 0 
Q 1100 0 847 248 
Q 594 497 594 1153 
L 594 3053 
L 172 3053 
L 172 3500 
L 594 3500 
L 594 4494 
L 1172 4494 
z
" transform="scale(0.015625)"/>
      <path id="DejaVuSans-72" d="M 2631 2963 
Q 2534 3019 2420 3045 
Q 2306 3072 2169 3072 
Q 1681 3072 1420 2755 
Q 1159 2438 1159 1844 
L 1159 0 
L 581 0 
L 581 3500 
L 1159 3500 
L 1159 2956 
Q 1341 3275 1631 3429 
Q 1922 3584 2338 3584 
Q 2397 3584 2469 3576 
Q 2541 3569 2628 3553 
L 2631 2963 
z
" transform="scale(0.015625)"/>
      <path id="DejaVuSans-71" d="M 947 1747 
Q 947 1113 1208 752 
Q 1469 391 1925 391 
Q 2381 391 2643 752 
Q 2906 1113 2906 1747 
Q 2906 2381 2643 2742 
Q 2381 3103 1925 3103 
Q 1469 3103 1208 2742 
Q 947 2381 947 1747 
z
M 2906 525 
Q 2725 213 2448 61 
Q 2172 -91 1784 -91 
Q 1150 -91 751 415 
Q 353 922 353 1747 
Q 353 2572 751 3078 
Q 1150 3584 1784 3584 
Q 2172 3584 2448 3432 
Q 2725 3281 2906 2969 
L 2906 3500 
L 3481 3500 
L 3481 -1331 
L 2906 -1331 
L 2906 525 
z
" transform="scale(0.015625)"/>
      <path id="DejaVuSans-75" d="M 544 1381 
L 544 3500 
L 1119 3500 
L 1119 1403 
Q 1119 906 1312 657 
Q 1506 409 1894 409 
Q 2359 409 2629 706 
Q 2900 1003 2900 1516 
L 2900 3500 
L 3475 3500 
L 3475 0 
L 2900 0 
L 2900 538 
Q 2691 219 2414 64 
Q 2138 -91 1772 -91 
Q 1169 -91 856 284 
Q 544 659 544 1381 
z
M 1991 3584 
L 1991 3584 
z
" transform="scale(0.015625)"/>
      <path id="DejaVuSans-61" d="M 2194 1759 
Q 1497 1759 1228 1600 
Q 959 1441 959 1056 
Q 959 750 1161 570 
Q 1363 391 1709 391 
Q 2188 391 2477 730 
Q 2766 1069 2766 1631 
L 2766 1759 
L 2194 1759 
z
M 3341 1997 
L 3341 0 
L 2766 0 
L 2766 531 
Q 2569 213 2275 61 
Q 1981 -91 1556 -91 
Q 1019 -91 701 211 
Q 384 513 384 1019 
Q 384 1609 779 1909 
Q 1175 2209 1959 2209 
L 2766 2209 
L 2766 2266 
Q 2766 2663 2505 2880 
Q 2244 3097 1772 3097 
Q 1472 3097 1187 3025 
Q 903 2953 641 2809 
L 641 3341 
Q 956 3463 1253 3523 
Q 1550 3584 1831 3584 
Q 2591 3584 2966 3190 
Q 3341 2797 3341 1997 
z
" transform="scale(0.015625)"/>
      <path id="DejaVuSans-6c" d="M 603 4863 
L 1178 4863 
L 1178 0 
L 603 0 
L 603 4863 
z
" transform="scale(0.015625)"/>
      <path id="DejaVuSans-7a" d="M 353 3500 
L 3084 3500 
L 3084 2975 
L 922 459 
L 3084 459 
L 3084 0 
L 275 0 
L 275 525 
L 2438 3041 
L 353 3041 
L 353 3500 
z
" transform="scale(0.015625)"/>
     </defs>
     <use xlink:href="#DejaVuSans-41"/>
     <use xlink:href="#DejaVuSans-66" x="64.783203"/>
     <use xlink:href="#DejaVuSans-74" x="98.238281"/>
     <use xlink:href="#DejaVuSans-65" x="137.447266"/>
     <use xlink:href="#DejaVuSans-72" x="198.970703"/>
     <use xlink:href="#DejaVuSans-20" x="240.083984"/>
     <use xlink:href="#DejaVuSans-65" x="271.871094"/>
     <use xlink:href="#DejaVuSans-71" x="333.394531"/>
     <use xlink:href="#DejaVuSans-75" x="396.871094"/>
     <use xlink:href="#DejaVuSans-61" x="460.25"/>
     <use xlink:href="#DejaVuSans-6c" x="521.529297"/>
     <use xlink:href="#DejaVuSans-69" x="549.3125"/>
     <use xlink:href="#DejaVuSans-7a" x="577.095703"/>
     <use xlink:href="#DejaVuSans-65" x="629.585938"/>
    </g>
    <!-- NTR_C3_005_crop - Intensity Equalized, ROI=2 -->
    <g transform="translate(43.003125 29.7555)scale(0.12 -0.12)">
     <defs>
      <path id="DejaVuSans-4e" d="M 628 4666 
L 1478 4666 
L 3547 763 
L 3547 4666 
L 4159 4666 
L 4159 0 
L 3309 0 
L 1241 3903 
L 1241 0 
L 628 0 
L 628 4666 
z
" transform="scale(0.015625)"/>
      <path id="DejaVuSans-52" d="M 2841 2188 
Q 3044 2119 3236 1894 
Q 3428 1669 3622 1275 
L 4263 0 
L 3584 0 
L 2988 1197 
Q 2756 1666 2539 1819 
Q 2322 1972 1947 1972 
L 1259 1972 
L 1259 0 
L 628 0 
L 628 4666 
L 2053 4666 
Q 2853 4666 3247 4331 
Q 3641 3997 3641 3322 
Q 3641 2881 3436 2590 
Q 3231 2300 2841 2188 
z
M 1259 4147 
L 1259 2491 
L 2053 2491 
Q 2509 2491 2742 2702 
Q 2975 2913 2975 3322 
Q 2975 3731 2742 3939 
Q 2509 4147 2053 4147 
L 1259 4147 
z
" transform="scale(0.015625)"/>
      <path id="DejaVuSans-5f" d="M 3263 -1063 
L 3263 -1509 
L -63 -1509 
L -63 -1063 
L 3263 -1063 
z
" transform="scale(0.015625)"/>
      <path id="DejaVuSans-43" d="M 4122 4306 
L 4122 3641 
Q 3803 3938 3442 4084 
Q 3081 4231 2675 4231 
Q 1875 4231 1450 3742 
Q 1025 3253 1025 2328 
Q 1025 1406 1450 917 
Q 1875 428 2675 428 
Q 3081 428 3442 575 
Q 3803 722 4122 1019 
L 4122 359 
Q 3791 134 3420 21 
Q 3050 -91 2638 -91 
Q 1578 -91 968 557 
Q 359 1206 359 2328 
Q 359 3453 968 4101 
Q 1578 4750 2638 4750 
Q 3056 4750 3426 4639 
Q 3797 4528 4122 4306 
z
" transform="scale(0.015625)"/>
      <path id="DejaVuSans-63" d="M 3122 3366 
L 3122 2828 
Q 2878 2963 2633 3030 
Q 2388 3097 2138 3097 
Q 1578 3097 1268 2742 
Q 959 2388 959 1747 
Q 959 1106 1268 751 
Q 1578 397 2138 397 
Q 2388 397 2633 464 
Q 2878 531 3122 666 
L 3122 134 
Q 2881 22 2623 -34 
Q 2366 -91 2075 -91 
Q 1284 -91 818 406 
Q 353 903 353 1747 
Q 353 2603 823 3093 
Q 1294 3584 2113 3584 
Q 2378 3584 2631 3529 
Q 2884 3475 3122 3366 
z
" transform="scale(0.015625)"/>
      <path id="DejaVuSans-6f" d="M 1959 3097 
Q 1497 3097 1228 2736 
Q 959 2375 959 1747 
Q 959 1119 1226 758 
Q 1494 397 1959 397 
Q 2419 397 2687 759 
Q 2956 1122 2956 1747 
Q 2956 2369 2687 2733 
Q 2419 3097 1959 3097 
z
M 1959 3584 
Q 2709 3584 3137 3096 
Q 3566 2609 3566 1747 
Q 3566 888 3137 398 
Q 2709 -91 1959 -91 
Q 1206 -91 779 398 
Q 353 888 353 1747 
Q 353 2609 779 3096 
Q 1206 3584 1959 3584 
z
" transform="scale(0.015625)"/>
      <path id="DejaVuSans-70" d="M 1159 525 
L 1159 -1331 
L 581 -1331 
L 581 3500 
L 1159 3500 
L 1159 2969 
Q 1341 3281 1617 3432 
Q 1894 3584 2278 3584 
Q 2916 3584 3314 3078 
Q 3713 2572 3713 1747 
Q 3713 922 3314 415 
Q 2916 -91 2278 -91 
Q 1894 -91 1617 61 
Q 1341 213 1159 525 
z
M 3116 1747 
Q 3116 2381 2855 2742 
Q 2594 3103 2138 3103 
Q 1681 3103 1420 2742 
Q 1159 2381 1159 1747 
Q 1159 1113 1420 752 
Q 1681 391 2138 391 
Q 2594 391 2855 752 
Q 3116 1113 3116 1747 
z
" transform="scale(0.015625)"/>
      <path id="DejaVuSans-49" d="M 628 4666 
L 1259 4666 
L 1259 0 
L 628 0 
L 628 4666 
z
" transform="scale(0.015625)"/>
      <path id="DejaVuSans-6e" d="M 3513 2113 
L 3513 0 
L 2938 0 
L 2938 2094 
Q 2938 2591 2744 2837 
Q 2550 3084 2163 3084 
Q 1697 3084 1428 2787 
Q 1159 2491 1159 1978 
L 1159 0 
L 581 0 
L 581 3500 
L 1159 3500 
L 1159 2956 
Q 1366 3272 1645 3428 
Q 1925 3584 2291 3584 
Q 2894 3584 3203 3211 
Q 3513 2838 3513 2113 
z
" transform="scale(0.015625)"/>
      <path id="DejaVuSans-79" d="M 2059 -325 
Q 1816 -950 1584 -1140 
Q 1353 -1331 966 -1331 
L 506 -1331 
L 506 -850 
L 844 -850 
Q 1081 -850 1212 -737 
Q 1344 -625 1503 -206 
L 1606 56 
L 191 3500 
L 800 3500 
L 1894 763 
L 2988 3500 
L 3597 3500 
L 2059 -325 
z
" transform="scale(0.015625)"/>
      <path id="DejaVuSans-45" d="M 628 4666 
L 3578 4666 
L 3578 4134 
L 1259 4134 
L 1259 2753 
L 3481 2753 
L 3481 2222 
L 1259 2222 
L 1259 531 
L 3634 531 
L 3634 0 
L 628 0 
L 628 4666 
z
" transform="scale(0.015625)"/>
      <path id="DejaVuSans-64" d="M 2906 2969 
L 2906 4863 
L 3481 4863 
L 3481 0 
L 2906 0 
L 2906 525 
Q 2725 213 2448 61 
Q 2172 -91 1784 -91 
Q 1150 -91 751 415 
Q 353 922 353 1747 
Q 353 2572 751 3078 
Q 1150 3584 1784 3584 
Q 2172 3584 2448 3432 
Q 2725 3281 2906 2969 
z
M 947 1747 
Q 947 1113 1208 752 
Q 1469 391 1925 391 
Q 2381 391 2643 752 
Q 2906 1113 2906 1747 
Q 2906 2381 2643 2742 
Q 2381 3103 1925 3103 
Q 1469 3103 1208 2742 
Q 947 2381 947 1747 
z
" transform="scale(0.015625)"/>
      <path id="DejaVuSans-2c" d="M 750 794 
L 1409 794 
L 1409 256 
L 897 -744 
L 494 -744 
L 750 256 
L 750 794 
z
" transform="scale(0.015625)"/>
      <path id="DejaVuSans-4f" d="M 2522 4238 
Q 1834 4238 1429 3725 
Q 1025 3213 1025 2328 
Q 1025 1447 1429 934 
Q 1834 422 2522 422 
Q 3209 422 3611 934 
Q 4013 1447 4013 2328 
Q 4013 3213 3611 3725 
Q 3209 4238 2522 4238 
z
M 2522 4750 
Q 3503 4750 4090 4092 
Q 4678 3434 4678 2328 
Q 4678 1225 4090 567 
Q 3503 -91 2522 -91 
Q 1538 -91 948 565 
Q 359 1222 359 2328 
Q 359 3434 948 4092 
Q 1538 4750 2522 4750 
z
" transform="scale(0.015625)"/>
      <path id="DejaVuSans-3d" d="M 678 2906 
L 4684 2906 
L 4684 2381 
L 678 2381 
L 678 2906 
z
M 678 1631 
L 4684 1631 
L 4684 1100 
L 678 1100 
L 678 1631 
z
" transform="scale(0.015625)"/>
     </defs>
     <use xlink:href="#DejaVuSans-4e"/>
     <use xlink:href="#DejaVuSans-54" x="74.804688"/>
     <use xlink:href="#DejaVuSans-52" x="135.888672"/>
     <use xlink:href="#DejaVuSans-5f" x="205.371094"/>
     <use xlink:href="#DejaVuSans-43" x="255.371094"/>
     <use xlink:href="#DejaVuSans-33" x="325.195312"/>
     <use xlink:href="#DejaVuSans-5f" x="388.818359"/>
     <use xlink:href="#DejaVuSans-30" x="438.818359"/>
     <use xlink:href="#DejaVuSans-30" x="502.441406"/>
     <use xlink:href="#DejaVuSans-35" x="566.064453"/>
     <use xlink:href="#DejaVuSans-5f" x="629.6875"/>
     <use xlink:href="#DejaVuSans-63" x="679.6875"/>
     <use xlink:href="#DejaVuSans-72" x="734.667969"/>
     <use xlink:href="#DejaVuSans-6f" x="773.53125"/>
     <use xlink:href="#DejaVuSans-70" x="834.712891"/>
     <use xlink:href="#DejaVuSans-20" x="898.189453"/>
     <use xlink:href="#DejaVuSans-2d" x="929.976562"/>
     <use xlink:href="#DejaVuSans-20" x="966.060547"/>
     <use xlink:href="#DejaVuSans-49" x="997.847656"/>
     <use xlink:href="#DejaVuSans-6e" x="1027.339844"/>
     <use xlink:href="#DejaVuSans-74" x="1090.71875"/>
     <use xlink:href="#DejaVuSans-65" x="1129.927734"/>
     <use xlink:href="#DejaVuSans-6e" x="1191.451172"/>
     <use xlink:href="#DejaVuSans-73" x="1254.830078"/>
     <use xlink:href="#DejaVuSans-69" x="1306.929688"/>
     <use xlink:href="#DejaVuSans-74" x="1334.712891"/>
     <use xlink:href="#DejaVuSans-79" x="1373.921875"/>
     <use xlink:href="#DejaVuSans-20" x="1433.101562"/>
     <use xlink:href="#DejaVuSans-45" x="1464.888672"/>
     <use xlink:href="#DejaVuSans-71" x="1528.072266"/>
     <use xlink:href="#DejaVuSans-75" x="1591.548828"/>
     <use xlink:href="#DejaVuSans-61" x="1654.927734"/>
     <use xlink:href="#DejaVuSans-6c" x="1716.207031"/>
     <use xlink:href="#DejaVuSans-69" x="1743.990234"/>
     <use xlink:href="#DejaVuSans-7a" x="1771.773438"/>
     <use xlink:href="#DejaVuSans-65" x="1824.263672"/>
     <use xlink:href="#DejaVuSans-64" x="1885.787109"/>
     <use xlink:href="#DejaVuSans-2c" x="1949.263672"/>
     <use xlink:href="#DejaVuSans-20" x="1981.050781"/>
     <use xlink:href="#DejaVuSans-52" x="2012.837891"/>
     <use xlink:href="#DejaVuSans-4f" x="2082.320312"/>
     <use xlink:href="#DejaVuSans-49" x="2161.03125"/>
     <use xlink:href="#DejaVuSans-3d" x="2190.523438"/>
     <use xlink:href="#DejaVuSans-32" x="2274.3125"/>
    </g>
   </g>
  </g>
 </g>
 <defs>
  <clipPath id="p5f0ec844be">
   <rect x="43.78125" y="35.7555" width="279" height="163.08"/>
  </clipPath>
 </defs>
</svg>
