<?xml version="1.0" encoding="utf-8" standalone="no"?>
<!DOCTYPE svg PUBLIC "-//W3C//DTD SVG 1.1//EN"
  "http://www.w3.org/Graphics/SVG/1.1/DTD/svg11.dtd">
<svg xmlns:xlink="http://www.w3.org/1999/xlink" width="334.576875pt" height="236.39175pt" viewBox="0 0 334.576875 236.39175" xmlns="http://www.w3.org/2000/svg" version="1.1">
 <metadata>
  <rdf:RDF xmlns:dc="http://purl.org/dc/elements/1.1/" xmlns:cc="http://creativecommons.org/ns#" xmlns:rdf="http://www.w3.org/1999/02/22-rdf-syntax-ns#">
   <cc:Work>
    <dc:type rdf:resource="http://purl.org/dc/dcmitype/StillImage"/>
    <dc:date>2025-01-27T16:06:41.888198</dc:date>
    <dc:format>image/svg+xml</dc:format>
    <dc:creator>
     <cc:Agent>
      <dc:title>Matplotlib v3.5.2, https://matplotlib.org/</dc:title>
     </cc:Agent>
    </dc:creator>
   </cc:Work>
  </rdf:RDF>
 </metadata>
 <defs>
  <style type="text/css">*{stroke-linejoin: round; stroke-linecap: butt}</style>
 </defs>
 <g id="figure_1">
  <g id="patch_1">
   <path d="M 0 236.39175 
L 334.576875 236.39175 
L 334.576875 0 
L 0 0 
L 0 236.39175 
z
" style="fill: none"/>
  </g>
  <g id="axes_1">
   <g id="patch_2">
    <path d="M 43.78125 198.8355 
L 322.78125 198.8355 
L 322.78125 35.7555 
L 43.78125 35.7555 
z
" style="fill: #ffffff"/>
   </g>
   <g id="matplotlib.axis_1">
    <g id="xtick_1">
     <g id="line2d_1">
      <defs>
       <path id="mf6fd5f906c" d="M 0 0 
L 0 3.5 
" style="stroke: #000000; stroke-width: 0.8"/>
      </defs>
      <g>
       <use xlink:href="#mf6fd5f906c" x="56.427557" y="198.8355" style="stroke: #000000; stroke-width: 0.8"/>
      </g>
     </g>
     <g id="text_1">
      <!-- 0 -->
      <g transform="translate(53.246307 213.433938)scale(0.1 -0.1)">
       <defs>
        <path id="DejaVuSans-30" d="M 2034 4250 
Q 1547 4250 1301 3770 
Q 1056 3291 1056 2328 
Q 1056 1369 1301 889 
Q 1547 409 2034 409 
Q 2525 409 2770 889 
Q 3016 1369 3016 2328 
Q 3016 3291 2770 3770 
Q 2525 4250 2034 4250 
z
M 2034 4750 
Q 2819 4750 3233 4129 
Q 3647 3509 3647 2328 
Q 3647 1150 3233 529 
Q 2819 -91 2034 -91 
Q 1250 -91 836 529 
Q 422 1150 422 2328 
Q 422 3509 836 4129 
Q 1250 4750 2034 4750 
z
" transform="scale(0.015625)"/>
       </defs>
       <use xlink:href="#DejaVuSans-30"/>
      </g>
     </g>
    </g>
    <g id="xtick_2">
     <g id="line2d_2">
      <g>
       <use xlink:href="#mf6fd5f906c" x="98.703102" y="198.8355" style="stroke: #000000; stroke-width: 0.8"/>
      </g>
     </g>
     <g id="text_2">
      <!-- 50 -->
      <g transform="translate(92.340602 213.433938)scale(0.1 -0.1)">
       <defs>
        <path id="DejaVuSans-35" d="M 691 4666 
L 3169 4666 
L 3169 4134 
L 1269 4134 
L 1269 2991 
Q 1406 3038 1543 3061 
Q 1681 3084 1819 3084 
Q 2600 3084 3056 2656 
Q 3513 2228 3513 1497 
Q 3513 744 3044 326 
Q 2575 -91 1722 -91 
Q 1428 -91 1123 -41 
Q 819 9 494 109 
L 494 744 
Q 775 591 1075 516 
Q 1375 441 1709 441 
Q 2250 441 2565 725 
Q 2881 1009 2881 1497 
Q 2881 1984 2565 2268 
Q 2250 2553 1709 2553 
Q 1456 2553 1204 2497 
Q 953 2441 691 2322 
L 691 4666 
z
" transform="scale(0.015625)"/>
       </defs>
       <use xlink:href="#DejaVuSans-35"/>
       <use xlink:href="#DejaVuSans-30" x="63.623047"/>
      </g>
     </g>
    </g>
    <g id="xtick_3">
     <g id="line2d_3">
      <g>
       <use xlink:href="#mf6fd5f906c" x="140.978648" y="198.8355" style="stroke: #000000; stroke-width: 0.8"/>
      </g>
     </g>
     <g id="text_3">
      <!-- 100 -->
      <g transform="translate(131.434898 213.433938)scale(0.1 -0.1)">
       <defs>
        <path id="DejaVuSans-31" d="M 794 531 
L 1825 531 
L 1825 4091 
L 703 3866 
L 703 4441 
L 1819 4666 
L 2450 4666 
L 2450 531 
L 3481 531 
L 3481 0 
L 794 0 
L 794 531 
z
" transform="scale(0.015625)"/>
       </defs>
       <use xlink:href="#DejaVuSans-31"/>
       <use xlink:href="#DejaVuSans-30" x="63.623047"/>
       <use xlink:href="#DejaVuSans-30" x="127.246094"/>
      </g>
     </g>
    </g>
    <g id="xtick_4">
     <g id="line2d_4">
      <g>
       <use xlink:href="#mf6fd5f906c" x="183.254194" y="198.8355" style="stroke: #000000; stroke-width: 0.8"/>
      </g>
     </g>
     <g id="text_4">
      <!-- 150 -->
      <g transform="translate(173.710444 213.433938)scale(0.1 -0.1)">
       <use xlink:href="#DejaVuSans-31"/>
       <use xlink:href="#DejaVuSans-35" x="63.623047"/>
       <use xlink:href="#DejaVuSans-30" x="127.246094"/>
      </g>
     </g>
    </g>
    <g id="xtick_5">
     <g id="line2d_5">
      <g>
       <use xlink:href="#mf6fd5f906c" x="225.529739" y="198.8355" style="stroke: #000000; stroke-width: 0.8"/>
      </g>
     </g>
     <g id="text_5">
      <!-- 200 -->
      <g transform="translate(215.985989 213.433938)scale(0.1 -0.1)">
       <defs>
        <path id="DejaVuSans-32" d="M 1228 531 
L 3431 531 
L 3431 0 
L 469 0 
L 469 531 
Q 828 903 1448 1529 
Q 2069 2156 2228 2338 
Q 2531 2678 2651 2914 
Q 2772 3150 2772 3378 
Q 2772 3750 2511 3984 
Q 2250 4219 1831 4219 
Q 1534 4219 1204 4116 
Q 875 4013 500 3803 
L 500 4441 
Q 881 4594 1212 4672 
Q 1544 4750 1819 4750 
Q 2544 4750 2975 4387 
Q 3406 4025 3406 3419 
Q 3406 3131 3298 2873 
Q 3191 2616 2906 2266 
Q 2828 2175 2409 1742 
Q 1991 1309 1228 531 
z
" transform="scale(0.015625)"/>
       </defs>
       <use xlink:href="#DejaVuSans-32"/>
       <use xlink:href="#DejaVuSans-30" x="63.623047"/>
       <use xlink:href="#DejaVuSans-30" x="127.246094"/>
      </g>
     </g>
    </g>
    <g id="xtick_6">
     <g id="line2d_6">
      <g>
       <use xlink:href="#mf6fd5f906c" x="267.805285" y="198.8355" style="stroke: #000000; stroke-width: 0.8"/>
      </g>
     </g>
     <g id="text_6">
      <!-- 250 -->
      <g transform="translate(258.261535 213.433938)scale(0.1 -0.1)">
       <use xlink:href="#DejaVuSans-32"/>
       <use xlink:href="#DejaVuSans-35" x="63.623047"/>
       <use xlink:href="#DejaVuSans-30" x="127.246094"/>
      </g>
     </g>
    </g>
    <g id="xtick_7">
     <g id="line2d_7">
      <g>
       <use xlink:href="#mf6fd5f906c" x="310.080831" y="198.8355" style="stroke: #000000; stroke-width: 0.8"/>
      </g>
     </g>
     <g id="text_7">
      <!-- 300 -->
      <g transform="translate(300.537081 213.433938)scale(0.1 -0.1)">
       <defs>
        <path id="DejaVuSans-33" d="M 2597 2516 
Q 3050 2419 3304 2112 
Q 3559 1806 3559 1356 
Q 3559 666 3084 287 
Q 2609 -91 1734 -91 
Q 1441 -91 1130 -33 
Q 819 25 488 141 
L 488 750 
Q 750 597 1062 519 
Q 1375 441 1716 441 
Q 2309 441 2620 675 
Q 2931 909 2931 1356 
Q 2931 1769 2642 2001 
Q 2353 2234 1838 2234 
L 1294 2234 
L 1294 2753 
L 1863 2753 
Q 2328 2753 2575 2939 
Q 2822 3125 2822 3475 
Q 2822 3834 2567 4026 
Q 2313 4219 1838 4219 
Q 1578 4219 1281 4162 
Q 984 4106 628 3988 
L 628 4550 
Q 988 4650 1302 4700 
Q 1616 4750 1894 4750 
Q 2613 4750 3031 4423 
Q 3450 4097 3450 3541 
Q 3450 3153 3228 2886 
Q 3006 2619 2597 2516 
z
" transform="scale(0.015625)"/>
       </defs>
       <use xlink:href="#DejaVuSans-33"/>
       <use xlink:href="#DejaVuSans-30" x="63.623047"/>
       <use xlink:href="#DejaVuSans-30" x="127.246094"/>
      </g>
     </g>
    </g>
    <g id="text_8">
     <!-- Time [s] -->
     <g transform="translate(162.952344 227.112063)scale(0.1 -0.1)">
      <defs>
       <path id="DejaVuSans-54" d="M -19 4666 
L 3928 4666 
L 3928 4134 
L 2272 4134 
L 2272 0 
L 1638 0 
L 1638 4134 
L -19 4134 
L -19 4666 
z
" transform="scale(0.015625)"/>
       <path id="DejaVuSans-69" d="M 603 3500 
L 1178 3500 
L 1178 0 
L 603 0 
L 603 3500 
z
M 603 4863 
L 1178 4863 
L 1178 4134 
L 603 4134 
L 603 4863 
z
" transform="scale(0.015625)"/>
       <path id="DejaVuSans-6d" d="M 3328 2828 
Q 3544 3216 3844 3400 
Q 4144 3584 4550 3584 
Q 5097 3584 5394 3201 
Q 5691 2819 5691 2113 
L 5691 0 
L 5113 0 
L 5113 2094 
Q 5113 2597 4934 2840 
Q 4756 3084 4391 3084 
Q 3944 3084 3684 2787 
Q 3425 2491 3425 1978 
L 3425 0 
L 2847 0 
L 2847 2094 
Q 2847 2600 2669 2842 
Q 2491 3084 2119 3084 
Q 1678 3084 1418 2786 
Q 1159 2488 1159 1978 
L 1159 0 
L 581 0 
L 581 3500 
L 1159 3500 
L 1159 2956 
Q 1356 3278 1631 3431 
Q 1906 3584 2284 3584 
Q 2666 3584 2933 3390 
Q 3200 3197 3328 2828 
z
" transform="scale(0.015625)"/>
       <path id="DejaVuSans-65" d="M 3597 1894 
L 3597 1613 
L 953 1613 
Q 991 1019 1311 708 
Q 1631 397 2203 397 
Q 2534 397 2845 478 
Q 3156 559 3463 722 
L 3463 178 
Q 3153 47 2828 -22 
Q 2503 -91 2169 -91 
Q 1331 -91 842 396 
Q 353 884 353 1716 
Q 353 2575 817 3079 
Q 1281 3584 2069 3584 
Q 2775 3584 3186 3129 
Q 3597 2675 3597 1894 
z
M 3022 2063 
Q 3016 2534 2758 2815 
Q 2500 3097 2075 3097 
Q 1594 3097 1305 2825 
Q 1016 2553 972 2059 
L 3022 2063 
z
" transform="scale(0.015625)"/>
       <path id="DejaVuSans-20" transform="scale(0.015625)"/>
       <path id="DejaVuSans-5b" d="M 550 4863 
L 1875 4863 
L 1875 4416 
L 1125 4416 
L 1125 -397 
L 1875 -397 
L 1875 -844 
L 550 -844 
L 550 4863 
z
" transform="scale(0.015625)"/>
       <path id="DejaVuSans-73" d="M 2834 3397 
L 2834 2853 
Q 2591 2978 2328 3040 
Q 2066 3103 1784 3103 
Q 1356 3103 1142 2972 
Q 928 2841 928 2578 
Q 928 2378 1081 2264 
Q 1234 2150 1697 2047 
L 1894 2003 
Q 2506 1872 2764 1633 
Q 3022 1394 3022 966 
Q 3022 478 2636 193 
Q 2250 -91 1575 -91 
Q 1294 -91 989 -36 
Q 684 19 347 128 
L 347 722 
Q 666 556 975 473 
Q 1284 391 1588 391 
Q 1994 391 2212 530 
Q 2431 669 2431 922 
Q 2431 1156 2273 1281 
Q 2116 1406 1581 1522 
L 1381 1569 
Q 847 1681 609 1914 
Q 372 2147 372 2553 
Q 372 3047 722 3315 
Q 1072 3584 1716 3584 
Q 2034 3584 2315 3537 
Q 2597 3491 2834 3397 
z
" transform="scale(0.015625)"/>
       <path id="DejaVuSans-5d" d="M 1947 4863 
L 1947 -844 
L 622 -844 
L 622 -397 
L 1369 -397 
L 1369 4416 
L 622 4416 
L 622 4863 
L 1947 4863 
z
" transform="scale(0.015625)"/>
      </defs>
      <use xlink:href="#DejaVuSans-54"/>
      <use xlink:href="#DejaVuSans-69" x="57.958984"/>
      <use xlink:href="#DejaVuSans-6d" x="85.742188"/>
      <use xlink:href="#DejaVuSans-65" x="183.154297"/>
      <use xlink:href="#DejaVuSans-20" x="244.677734"/>
      <use xlink:href="#DejaVuSans-5b" x="276.464844"/>
      <use xlink:href="#DejaVuSans-73" x="315.478516"/>
      <use xlink:href="#DejaVuSans-5d" x="367.578125"/>
     </g>
    </g>
   </g>
   <g id="matplotlib.axis_2">
    <g id="ytick_1">
     <g id="line2d_8">
      <defs>
       <path id="md923b4a571" d="M 0 0 
L -3.5 0 
" style="stroke: #000000; stroke-width: 0.8"/>
      </defs>
      <g>
       <use xlink:href="#md923b4a571" x="43.78125" y="195.923357" style="stroke: #000000; stroke-width: 0.8"/>
      </g>
     </g>
     <g id="text_9">
      <!-- 0.0 -->
      <g transform="translate(20.878125 199.722576)scale(0.1 -0.1)">
       <defs>
        <path id="DejaVuSans-2e" d="M 684 794 
L 1344 794 
L 1344 0 
L 684 0 
L 684 794 
z
" transform="scale(0.015625)"/>
       </defs>
       <use xlink:href="#DejaVuSans-30"/>
       <use xlink:href="#DejaVuSans-2e" x="63.623047"/>
       <use xlink:href="#DejaVuSans-30" x="95.410156"/>
      </g>
     </g>
    </g>
    <g id="ytick_2">
     <g id="line2d_9">
      <g>
       <use xlink:href="#md923b4a571" x="43.78125" y="166.801929" style="stroke: #000000; stroke-width: 0.8"/>
      </g>
     </g>
     <g id="text_10">
      <!-- 0.2 -->
      <g transform="translate(20.878125 170.601147)scale(0.1 -0.1)">
       <use xlink:href="#DejaVuSans-30"/>
       <use xlink:href="#DejaVuSans-2e" x="63.623047"/>
       <use xlink:href="#DejaVuSans-32" x="95.410156"/>
      </g>
     </g>
    </g>
    <g id="ytick_3">
     <g id="line2d_10">
      <g>
       <use xlink:href="#md923b4a571" x="43.78125" y="137.6805" style="stroke: #000000; stroke-width: 0.8"/>
      </g>
     </g>
     <g id="text_11">
      <!-- 0.4 -->
      <g transform="translate(20.878125 141.479719)scale(0.1 -0.1)">
       <defs>
        <path id="DejaVuSans-34" d="M 2419 4116 
L 825 1625 
L 2419 1625 
L 2419 4116 
z
M 2253 4666 
L 3047 4666 
L 3047 1625 
L 3713 1625 
L 3713 1100 
L 3047 1100 
L 3047 0 
L 2419 0 
L 2419 1100 
L 313 1100 
L 313 1709 
L 2253 4666 
z
" transform="scale(0.015625)"/>
       </defs>
       <use xlink:href="#DejaVuSans-30"/>
       <use xlink:href="#DejaVuSans-2e" x="63.623047"/>
       <use xlink:href="#DejaVuSans-34" x="95.410156"/>
      </g>
     </g>
    </g>
    <g id="ytick_4">
     <g id="line2d_11">
      <g>
       <use xlink:href="#md923b4a571" x="43.78125" y="108.559071" style="stroke: #000000; stroke-width: 0.8"/>
      </g>
     </g>
     <g id="text_12">
      <!-- 0.6 -->
      <g transform="translate(20.878125 112.35829)scale(0.1 -0.1)">
       <defs>
        <path id="DejaVuSans-36" d="M 2113 2584 
Q 1688 2584 1439 2293 
Q 1191 2003 1191 1497 
Q 1191 994 1439 701 
Q 1688 409 2113 409 
Q 2538 409 2786 701 
Q 3034 994 3034 1497 
Q 3034 2003 2786 2293 
Q 2538 2584 2113 2584 
z
M 3366 4563 
L 3366 3988 
Q 3128 4100 2886 4159 
Q 2644 4219 2406 4219 
Q 1781 4219 1451 3797 
Q 1122 3375 1075 2522 
Q 1259 2794 1537 2939 
Q 1816 3084 2150 3084 
Q 2853 3084 3261 2657 
Q 3669 2231 3669 1497 
Q 3669 778 3244 343 
Q 2819 -91 2113 -91 
Q 1303 -91 875 529 
Q 447 1150 447 2328 
Q 447 3434 972 4092 
Q 1497 4750 2381 4750 
Q 2619 4750 2861 4703 
Q 3103 4656 3366 4563 
z
" transform="scale(0.015625)"/>
       </defs>
       <use xlink:href="#DejaVuSans-30"/>
       <use xlink:href="#DejaVuSans-2e" x="63.623047"/>
       <use xlink:href="#DejaVuSans-36" x="95.410156"/>
      </g>
     </g>
    </g>
    <g id="ytick_5">
     <g id="line2d_12">
      <g>
       <use xlink:href="#md923b4a571" x="43.78125" y="79.437643" style="stroke: #000000; stroke-width: 0.8"/>
      </g>
     </g>
     <g id="text_13">
      <!-- 0.8 -->
      <g transform="translate(20.878125 83.236862)scale(0.1 -0.1)">
       <defs>
        <path id="DejaVuSans-38" d="M 2034 2216 
Q 1584 2216 1326 1975 
Q 1069 1734 1069 1313 
Q 1069 891 1326 650 
Q 1584 409 2034 409 
Q 2484 409 2743 651 
Q 3003 894 3003 1313 
Q 3003 1734 2745 1975 
Q 2488 2216 2034 2216 
z
M 1403 2484 
Q 997 2584 770 2862 
Q 544 3141 544 3541 
Q 544 4100 942 4425 
Q 1341 4750 2034 4750 
Q 2731 4750 3128 4425 
Q 3525 4100 3525 3541 
Q 3525 3141 3298 2862 
Q 3072 2584 2669 2484 
Q 3125 2378 3379 2068 
Q 3634 1759 3634 1313 
Q 3634 634 3220 271 
Q 2806 -91 2034 -91 
Q 1263 -91 848 271 
Q 434 634 434 1313 
Q 434 1759 690 2068 
Q 947 2378 1403 2484 
z
M 1172 3481 
Q 1172 3119 1398 2916 
Q 1625 2713 2034 2713 
Q 2441 2713 2670 2916 
Q 2900 3119 2900 3481 
Q 2900 3844 2670 4047 
Q 2441 4250 2034 4250 
Q 1625 4250 1398 4047 
Q 1172 3844 1172 3481 
z
" transform="scale(0.015625)"/>
       </defs>
       <use xlink:href="#DejaVuSans-30"/>
       <use xlink:href="#DejaVuSans-2e" x="63.623047"/>
       <use xlink:href="#DejaVuSans-38" x="95.410156"/>
      </g>
     </g>
    </g>
    <g id="ytick_6">
     <g id="line2d_13">
      <g>
       <use xlink:href="#md923b4a571" x="43.78125" y="50.316214" style="stroke: #000000; stroke-width: 0.8"/>
      </g>
     </g>
     <g id="text_14">
      <!-- 1.0 -->
      <g transform="translate(20.878125 54.115433)scale(0.1 -0.1)">
       <use xlink:href="#DejaVuSans-31"/>
       <use xlink:href="#DejaVuSans-2e" x="63.623047"/>
       <use xlink:href="#DejaVuSans-30" x="95.410156"/>
      </g>
     </g>
    </g>
    <g id="text_15">
     <!-- (F-F$^o$)/F$^o$ -->
     <g transform="translate(14.798438 137.9955)rotate(-90)scale(0.1 -0.1)">
      <defs>
       <path id="DejaVuSans-28" d="M 1984 4856 
Q 1566 4138 1362 3434 
Q 1159 2731 1159 2009 
Q 1159 1288 1364 580 
Q 1569 -128 1984 -844 
L 1484 -844 
Q 1016 -109 783 600 
Q 550 1309 550 2009 
Q 550 2706 781 3412 
Q 1013 4119 1484 4856 
L 1984 4856 
z
" transform="scale(0.015625)"/>
       <path id="DejaVuSans-46" d="M 628 4666 
L 3309 4666 
L 3309 4134 
L 1259 4134 
L 1259 2759 
L 3109 2759 
L 3109 2228 
L 1259 2228 
L 1259 0 
L 628 0 
L 628 4666 
z
" transform="scale(0.015625)"/>
       <path id="DejaVuSans-2d" d="M 313 2009 
L 1997 2009 
L 1997 1497 
L 313 1497 
L 313 2009 
z
" transform="scale(0.015625)"/>
       <path id="DejaVuSans-Oblique-6f" d="M 1625 -91 
Q 1009 -91 651 289 
Q 294 669 294 1325 
Q 294 1706 417 2101 
Q 541 2497 738 2766 
Q 1047 3184 1428 3384 
Q 1809 3584 2291 3584 
Q 2888 3584 3255 3212 
Q 3622 2841 3622 2241 
Q 3622 1825 3500 1412 
Q 3378 1000 3181 728 
Q 2875 309 2494 109 
Q 2113 -91 1625 -91 
z
M 891 1344 
Q 891 869 1089 633 
Q 1288 397 1691 397 
Q 2269 397 2648 901 
Q 3028 1406 3028 2181 
Q 3028 2634 2825 2865 
Q 2622 3097 2228 3097 
Q 1903 3097 1650 2945 
Q 1397 2794 1197 2484 
Q 1050 2253 970 1956 
Q 891 1659 891 1344 
z
" transform="scale(0.015625)"/>
       <path id="DejaVuSans-29" d="M 513 4856 
L 1013 4856 
Q 1481 4119 1714 3412 
Q 1947 2706 1947 2009 
Q 1947 1309 1714 600 
Q 1481 -109 1013 -844 
L 513 -844 
Q 928 -128 1133 580 
Q 1338 1288 1338 2009 
Q 1338 2731 1133 3434 
Q 928 4138 513 4856 
z
" transform="scale(0.015625)"/>
       <path id="DejaVuSans-2f" d="M 1625 4666 
L 2156 4666 
L 531 -594 
L 0 -594 
L 1625 4666 
z
" transform="scale(0.015625)"/>
      </defs>
      <use xlink:href="#DejaVuSans-28" transform="translate(0 0.51875)"/>
      <use xlink:href="#DejaVuSans-46" transform="translate(39.013672 0.51875)"/>
      <use xlink:href="#DejaVuSans-2d" transform="translate(96.533203 0.51875)"/>
      <use xlink:href="#DejaVuSans-46" transform="translate(132.617188 0.51875)"/>
      <use xlink:href="#DejaVuSans-Oblique-6f" transform="translate(191.09375 38.8)scale(0.7)"/>
      <use xlink:href="#DejaVuSans-29" transform="translate(236.655273 0.51875)"/>
      <use xlink:href="#DejaVuSans-2f" transform="translate(275.668945 0.51875)"/>
      <use xlink:href="#DejaVuSans-46" transform="translate(309.360352 0.51875)"/>
      <use xlink:href="#DejaVuSans-Oblique-6f" transform="translate(367.836914 38.8)scale(0.7)"/>
     </g>
    </g>
   </g>
   <g id="line2d_14">
    <path d="M 56.463068 183.075402 
L 56.851158 183.294166 
L 57.120876 182.57713 
L 57.254466 183.121166 
L 57.389748 182.011751 
L 57.524184 182.100611 
L 57.658621 181.997591 
L 57.793902 181.553292 
L 58.065311 181.785189 
L 58.200593 181.691609 
L 58.335029 182.613044 
L 58.469466 182.36124 
L 58.739184 183.615745 
L 59.008902 183.195456 
L 59.277774 184.308565 
L 59.41221 183.938349 
L 59.681928 182.471442 
L 60.086082 176.468164 
L 60.223055 176.471653 
L 60.357491 174.791729 
L 60.491928 174.873816 
L 60.627209 174.644792 
L 61.301082 169.914283 
L 61.435518 169.376404 
L 61.569954 169.526829 
L 61.705236 168.640282 
L 61.839672 169.928238 
L 62.10939 168.318499 
L 62.243826 167.515886 
L 62.378263 167.967163 
L 62.513544 167.904777 
L 62.647135 167.230221 
L 62.782417 168.322193 
L 62.920235 168.332248 
L 63.054671 169.162565 
L 63.324389 168.648696 
L 63.458825 170.505315 
L 63.593262 170.732698 
L 63.862134 174.369593 
L 63.993188 173.151206 
L 64.262906 174.889002 
L 64.397343 173.77302 
L 64.801497 178.936131 
L 64.936779 179.166387 
L 65.205651 181.048863 
L 65.340933 181.254082 
L 65.475369 182.056489 
L 65.610651 181.566426 
L 65.745087 178.5614 
L 65.879523 179.055979 
L 66.013959 180.147745 
L 66.149241 180.211568 
L 66.283677 181.008229 
L 66.418114 181.031009 
L 66.822268 183.004602 
L 66.956704 182.545321 
L 67.09114 182.603398 
L 67.49614 183.9246 
L 67.631422 183.473117 
L 67.765858 181.094216 
L 67.900294 181.736963 
L 68.034731 181.585511 
L 68.169167 178.900012 
L 68.302757 178.887904 
L 68.438039 179.580724 
L 68.707757 176.978339 
L 68.843039 178.469257 
L 69.111911 169.260865 
L 69.247193 171.973043 
L 69.516066 169.618357 
L 69.650502 168.528438 
L 69.92022 171.522586 
L 70.055502 172.327661 
L 70.45881 170.055064 
L 70.594092 170.10329 
L 70.729374 170.314256 
L 70.999092 169.364706 
L 71.133528 172.304061 
L 71.267964 171.452401 
L 71.672964 176.879834 
L 71.942682 179.0293 
L 72.077964 180.098082 
L 72.2124 179.959764 
L 72.346836 181.478592 
L 72.481272 181.01808 
L 72.615709 181.712336 
L 72.75099 181.59844 
L 72.886272 182.681792 
L 73.020708 182.644442 
L 73.15599 182.453793 
L 73.425708 184.155471 
L 73.559299 183.742981 
L 73.694581 184.095958 
L 73.830708 181.082724 
L 73.965144 181.739425 
L 74.100426 178.497988 
L 74.234862 180.038158 
L 74.369298 177.655563 
L 74.639016 180.417608 
L 74.773453 179.899019 
L 74.908734 178.636716 
L 75.04317 179.464775 
L 75.178452 181.702281 
L 75.312888 181.789909 
L 75.44817 179.224464 
L 75.582606 179.242318 
L 75.986761 182.735559 
L 76.39176 183.604868 
L 76.526197 184.862862 
L 76.795915 185.0059 
L 76.930351 186.137068 
L 77.200069 184.929353 
L 77.469787 186.299396 
L 77.604223 186.809366 
L 77.738659 183.785461 
L 77.873941 183.418324 
L 78.008377 184.047731 
L 78.143659 183.258253 
L 78.412531 179.346159 
L 78.547813 179.525315 
L 78.81584 176.556614 
L 78.950276 176.780713 
L 79.219149 175.329813 
L 79.354431 175.344384 
L 79.488867 173.819605 
L 79.623303 173.76358 
L 79.758585 175.816593 
L 80.028303 174.087621 
L 80.162739 174.756431 
L 80.298021 174.096446 
L 80.566893 178.384091 
L 80.70133 177.958466 
L 80.836611 178.634459 
L 81.104638 182.739459 
L 81.240765 182.525415 
L 81.376047 184.073384 
L 81.511329 182.09035 
L 81.780201 184.311643 
L 81.914638 182.367396 
L 82.049074 183.119319 
L 82.187738 179.194297 
L 82.457456 182.434298 
L 82.726328 178.716136 
L 82.860764 178.799865 
L 82.996046 181.127256 
L 83.129637 181.101604 
L 83.399355 182.684665 
L 83.534637 181.593925 
L 83.803509 182.301726 
L 83.937945 181.240127 
L 84.207663 177.865297 
L 84.344636 177.553364 
L 84.614354 175.548782 
L 84.74879 175.684432 
L 84.884072 176.806981 
L 85.287381 173.175217 
L 85.691535 176.411113 
L 85.826817 175.837321 
L 85.961253 177.102497 
L 86.095689 176.970951 
L 86.230971 176.510234 
L 86.364562 173.691548 
L 86.499843 173.43995 
L 86.903998 178.342226 
L 87.043507 178.97738 
L 87.177943 180.126813 
L 87.446816 178.702386 
L 87.582097 180.209721 
L 87.851815 180.115936 
L 88.121533 176.596221 
L 88.390406 174.273345 
L 88.659278 174.526175 
L 88.793714 171.792244 
L 88.928996 173.899846 
L 89.197869 171.818512 
L 89.33315 172.183597 
L 89.467587 172.09248 
L 89.737305 176.824015 
L 89.871741 174.410226 
L 90.14315 177.285347 
L 90.277586 177.908393 
L 90.680895 181.047016 
L 90.815331 180.239068 
L 90.950613 181.281581 
L 91.221176 180.678032 
L 91.356458 181.404302 
L 91.490894 178.482391 
L 91.626176 178.673245 
L 91.895048 179.581135 
L 92.029485 179.704266 
L 92.164766 179.587702 
L 92.299203 179.300395 
L 92.568921 181.187386 
L 92.704202 180.367124 
L 92.838639 173.549537 
L 93.107511 174.846112 
L 93.377229 170.242429 
L 93.512511 170.602794 
L 93.646102 171.826721 
L 93.781383 166.543558 
L 94.050256 169.532986 
L 94.184692 167.708587 
L 94.320819 170.719153 
L 94.455256 170.224575 
L 94.589692 168.892292 
L 94.724974 170.525631 
L 94.860255 169.599477 
L 94.994692 170.71156 
L 95.264409 165.467388 
L 95.398846 164.785444 
L 95.937436 171.990486 
L 96.34159 175.196626 
L 96.476027 172.356597 
L 96.610463 172.253372 
L 97.015463 175.426472 
L 97.149053 175.710905 
L 97.284335 175.482086 
L 97.418771 177.139231 
L 97.553208 177.027182 
L 97.954825 179.033199 
L 98.223698 179.403415 
L 98.358979 180.147745 
L 98.493416 179.271049 
L 98.628697 179.273922 
L 98.763134 177.47928 
L 98.89757 177.596049 
L 99.167288 171.122204 
L 99.43616 170.204258 
L 99.571442 172.278819 
L 99.704187 172.391895 
L 99.839469 171.847859 
L 99.973905 172.758622 
L 100.243623 168.471592 
L 100.378059 170.497311 
L 100.512496 165.020831 
L 100.782214 168.179155 
L 101.051086 167.50029 
L 101.185522 164.58002 
L 101.320804 167.727878 
L 101.45524 167.387419 
L 101.590522 163.181861 
L 101.724958 164.739681 
L 101.993831 170.027564 
L 102.262703 172.680638 
L 102.39714 167.189382 
L 102.801294 172.738305 
L 102.933193 173.122065 
L 103.06763 167.552005 
L 103.202911 166.897561 
L 103.337348 169.06365 
L 103.60622 164.004585 
L 104.009529 171.213526 
L 104.143965 172.219716 
L 104.279247 174.595744 
L 104.41622 174.944822 
L 104.819528 177.352454 
L 104.95481 177.37708 
L 105.089246 177.936508 
L 105.223683 179.276795 
L 105.358964 178.80479 
L 105.493401 178.946802 
L 105.897555 180.562904 
L 106.031991 181.126641 
L 106.298327 178.362133 
L 106.432763 178.314111 
L 106.568045 178.988872 
L 106.699945 178.375472 
L 107.103253 180.203565 
L 107.781353 181.326114 
L 107.916635 180.622007 
L 108.187198 181.194774 
L 108.456916 175.191085 
L 108.591352 174.649306 
L 108.860225 166.089613 
L 108.994661 167.11181 
L 109.129097 169.064881 
L 109.264379 168.076956 
L 109.399661 165.584773 
L 109.534097 167.900878 
L 109.669379 165.299519 
L 109.803815 166.303041 
L 110.342406 173.096002 
L 110.476842 174.048219 
L 110.747405 171.901831 
L 110.881842 172.00362 
L 111.559096 178.169842 
L 111.693532 178.57002 
L 111.96325 177.163037 
L 112.372477 166.310839 
L 112.506914 165.676096 
L 112.911913 173.431741 
L 113.043813 169.776786 
L 113.178249 169.928649 
L 113.447122 174.246461 
L 113.851276 178.209244 
L 114.120994 179.687644 
L 114.525148 181.216322 
L 114.659584 181.220631 
L 114.929302 182.755055 
L 115.063739 182.002311 
L 115.199866 181.895392 
L 115.468738 175.096684 
L 115.605711 174.093368 
L 115.875429 177.876173 
L 116.010711 176.729203 
L 116.145147 170.764712 
L 116.279583 171.208396 
L 116.683737 177.304843 
L 116.819019 178.219916 
L 117.088737 168.144268 
L 117.897046 177.490772 
L 118.032327 171.630737 
L 118.166764 172.181956 
L 118.3012 167.800525 
L 118.436482 169.082735 
L 118.840636 176.068808 
L 119.109508 177.996842 
L 119.383454 179.506025 
L 119.786762 180.636577 
L 119.921199 182.437581 
L 120.053944 181.980558 
L 120.189226 182.453793 
L 120.323662 181.904627 
L 120.458098 182.808617 
L 120.592534 182.661065 
L 120.727816 183.862213 
L 120.996689 182.955144 
L 121.131125 184.421846 
L 121.531897 182.439839 
L 121.936051 182.88106 
L 122.071333 182.599499 
L 122.205769 183.19443 
L 122.340205 182.531161 
L 122.475487 182.712575 
L 122.609923 182.497916 
L 122.745205 183.047698 
L 122.879641 182.639517 
L 123.145132 182.770447 
L 123.279568 182.561739 
L 123.549286 181.237254 
L 123.683722 182.513102 
L 123.818159 181.78129 
L 123.95344 182.498531 
L 124.087877 182.266018 
L 124.222313 182.328815 
L 124.356749 182.168949 
L 124.492031 182.318759 
L 124.761749 181.901754 
L 125.030621 170.415223 
L 125.165057 171.653311 
L 125.43393 174.83503 
L 125.572594 169.307655 
L 125.707875 169.970308 
L 125.842312 172.584801 
L 126.112875 167.913806 
L 126.381748 171.079723 
L 126.785902 176.045823 
L 126.921184 168.639667 
L 127.05562 169.421142 
L 127.458929 174.845086 
L 127.728646 176.126885 
L 127.863083 176.393259 
L 127.998364 178.070106 
L 128.132801 178.036655 
L 128.401673 176.651015 
L 128.536109 170.046034 
L 128.670546 172.436222 
L 128.939418 169.512054 
L 129.0747 171.446245 
L 129.209136 170.933607 
L 129.344418 168.057049 
L 129.478854 169.50405 
L 129.612445 172.329714 
L 129.747727 168.266168 
L 130.424135 175.908326 
L 130.558572 176.143918 
L 130.693853 177.981041 
L 130.828289 178.232024 
L 130.963571 179.649678 
L 131.098007 179.660555 
L 131.232444 180.036311 
L 131.367725 177.201002 
L 131.503007 170.9176 
L 131.769343 173.493922 
L 131.908852 175.442479 
L 132.17857 171.774185 
L 132.717161 177.270366 
L 132.986879 178.425751 
L 133.122161 176.087483 
L 133.256597 171.485647 
L 133.526315 174.225939 
L 133.796033 177.038058 
L 134.065751 178.984563 
L 134.200187 179.014935 
L 134.469905 180.443261 
L 134.605187 181.421746 
L 134.739623 181.546519 
L 134.874059 180.671259 
L 135.009341 181.036755 
L 135.143777 181.728754 
L 135.279059 181.629017 
L 135.414341 182.565433 
L 135.548777 182.556403 
L 135.952931 172.649035 
L 136.088213 168.227381 
L 136.492367 174.009638 
L 136.895676 178.672014 
L 137.030112 179.619921 
L 137.164548 179.508077 
L 137.298985 181.544057 
L 137.568702 181.705564 
L 137.703984 182.95617 
L 137.977084 182.935648 
L 138.112366 182.530545 
L 138.246802 183.509852 
L 138.381238 183.573675 
L 138.515675 183.112137 
L 138.650956 183.410731 
L 138.785393 184.17784 
L 138.919829 182.685486 
L 139.055111 183.463472 
L 139.189547 183.477632 
L 139.458419 182.835501 
L 139.728137 183.784845 
L 139.862574 183.023482 
L 139.997855 183.248402 
L 140.132292 182.817647 
L 140.40201 175.591673 
L 140.537291 176.37007 
L 140.671728 171.904705 
L 140.807009 171.89116 
L 141.076727 175.008235 
L 141.212009 170.751988 
L 141.346445 171.048735 
L 141.480881 170.082563 
L 142.558062 181.663494 
L 142.692499 182.360008 
L 142.826935 182.434503 
L 143.097498 183.934861 
L 143.23278 183.648785 
L 143.367216 183.039284 
L 143.772216 184.807453 
L 143.907498 184.447293 
L 144.041934 185.083473 
L 144.177216 184.76723 
L 144.312498 186.053954 
L 144.58137 185.174179 
L 144.715806 185.775882 
L 144.850242 185.330762 
L 144.985524 185.339586 
L 145.11996 185.030526 
L 145.255242 185.653982 
L 145.390524 178.305697 
L 145.52496 177.839439 
L 145.659396 178.667499 
L 145.794678 180.263078 
L 145.929114 179.744079 
L 146.064396 174.550596 
L 146.469396 179.235956 
L 146.603832 173.287882 
L 146.738268 173.68375 
L 147.142423 180.047803 
L 147.277704 180.729131 
L 147.681859 183.929935 
L 147.951577 185.792505 
L 148.086858 184.691709 
L 148.221294 186.526574 
L 148.630522 186.278464 
L 148.899394 177.335831 
L 149.03383 177.404374 
L 149.437985 182.755876 
L 149.573266 183.657815 
L 149.708548 177.360458 
L 149.842984 176.385666 
L 150.111857 179.80585 
L 150.245448 179.318044 
L 150.380729 174.543824 
L 150.516011 175.274404 
L 150.785729 180.011685 
L 151.054602 181.962293 
L 151.459601 184.291121 
L 151.863756 185.992389 
L 151.999037 185.786964 
L 152.132628 185.881775 
L 152.26791 186.689929 
L 152.672064 185.494732 
L 153.076218 186.068525 
L 153.210654 185.57682 
L 153.346782 185.566764 
L 153.481218 185.022728 
L 153.885372 185.58195 
L 154.155936 186.272718 
L 154.290372 185.714522 
L 154.424808 186.214641 
L 154.56009 185.575793 
L 154.694526 185.511149 
L 154.829808 186.575006 
L 155.099526 185.930412 
L 155.234808 186.25548 
L 155.50368 185.750435 
L 155.638962 186.817985 
L 155.773398 186.111005 
L 155.90868 187.094621 
L 156.043961 186.859235 
L 156.178398 179.685591 
L 156.312834 180.02646 
L 156.44727 174.463788 
L 156.716988 177.69948 
L 157.121142 181.330013 
L 157.525297 182.706213 
L 157.659733 182.981617 
L 157.794169 183.580652 
L 158.065578 183.305043 
L 158.20086 183.789771 
L 158.335296 183.82199 
L 158.604168 174.039395 
L 158.73945 175.680123 
L 158.874732 171.864687 
L 159.14445 174.923274 
L 159.278886 170.600947 
L 159.548604 173.13602 
L 159.817477 176.709297 
L 160.087195 179.344722 
L 160.221631 177.839234 
L 160.356913 172.034608 
L 160.491349 172.941882 
L 161.030785 179.465391 
L 161.434939 181.916735 
L 161.569375 181.654465 
L 161.704657 180.858009 
L 161.974375 182.439223 
L 162.107966 182.592932 
L 162.243247 183.603637 
L 162.517193 183.075813 
L 162.651629 183.724306 
L 163.053247 183.398212 
L 163.188529 183.690444 
L 163.322965 183.515803 
L 163.457401 184.073999 
L 163.592683 183.69537 
L 163.727119 184.086518 
L 163.862401 183.876784 
L 163.996837 183.975494 
L 164.132119 184.247615 
L 164.267401 177.225218 
L 164.403528 177.427975 
L 164.537964 178.149731 
L 164.6724 173.16865 
L 164.807682 173.467449 
L 164.942118 170.321438 
L 165.346273 175.697977 
L 165.61599 177.861808 
L 165.885708 180.040826 
L 166.02099 179.887322 
L 166.290708 182.06716 
L 166.425144 181.317905 
L 166.560426 182.345027 
L 166.694862 173.873167 
L 166.830144 173.408551 
L 167.233453 178.58931 
L 167.503171 168.772649 
L 167.909016 175.279329 
L 168.043452 177.481537 
L 168.178734 177.793265 
L 168.582888 180.514677 
L 168.713097 180.936197 
L 168.981124 182.445995 
L 169.117251 181.692635 
L 169.251687 183.028613 
L 169.386124 182.003748 
L 169.654996 172.371578 
L 169.789432 174.640892 
L 169.924714 175.038197 
L 170.059996 172.178467 
L 170.328868 175.096274 
L 170.598586 168.808973 
L 171.138022 176.01935 
L 171.40774 178.695203 
L 171.677458 179.293417 
L 171.948867 179.368528 
L 172.218585 169.366964 
L 172.353021 171.377496 
L 172.892457 177.002145 
L 173.163021 179.813648 
L 173.297457 178.646156 
L 173.432739 178.968145 
L 173.568021 179.778145 
L 173.701611 179.227953 
L 173.836048 179.518132 
L 173.971329 178.426571 
L 174.105766 176.105747 
L 174.241047 169.39631 
L 174.780483 173.397469 
L 174.915765 174.286684 
L 175.050201 176.111699 
L 175.185483 175.545704 
L 175.319919 168.739403 
L 175.455201 168.808357 
L 175.9921 175.727939 
L 176.127382 170.725104 
L 176.263509 170.146797 
L 176.938227 177.531405 
L 177.207945 179.31948 
L 177.477663 172.415495 
L 177.612099 173.544201 
L 178.016254 178.807664 
L 178.15069 178.618862 
L 178.285972 179.598578 
L 178.421253 172.37363 
L 178.55569 172.86903 
L 179.09428 179.237803 
L 179.363998 180.624469 
L 179.498434 182.81539 
L 179.633716 181.933768 
L 179.903434 183.61123 
L 180.038716 183.535709 
L 180.173152 183.818707 
L 180.308434 183.82158 
L 180.849561 184.553802 
L 180.984842 183.832661 
L 181.120124 174.735704 
L 181.25456 173.585245 
L 181.65956 178.507017 
L 181.793996 179.428862 
L 181.929278 173.181989 
L 182.067096 173.794568 
L 182.472096 178.802943 
L 183.011532 183.331516 
L 183.146814 183.140662 
L 183.282096 180.794801 
L 183.416532 174.81225 
L 183.820686 179.913385 
L 183.955122 181.497267 
L 184.090404 181.259418 
L 184.360967 171.412589 
L 184.765122 178.564274 
L 184.900403 178.302824 
L 185.170967 182.246932 
L 185.306249 183.06391 
L 185.44153 182.313218 
L 185.845685 184.347351 
L 185.981812 184.086518 
L 186.116248 184.550313 
L 186.25153 183.804957 
L 186.385966 173.681903 
L 186.521248 173.246838 
L 186.927093 178.758411 
L 187.062375 179.477499 
L 187.332938 173.530041 
L 187.737093 178.21971 
L 187.872374 179.547889 
L 188.00681 177.95703 
L 188.142092 173.206205 
L 188.682374 180.882635 
L 188.952092 183.348549 
L 189.086528 182.939753 
L 189.22181 183.518266 
L 189.356246 183.567518 
L 189.625964 184.565704 
L 189.7604 184.677549 
L 189.895682 184.189127 
L 190.030118 184.701354 
L 190.1654 184.719414 
L 190.300682 184.267316 
L 190.569554 184.652307 
L 190.839272 176.802467 
L 191.513144 181.945465 
L 191.648426 181.753791 
L 191.782017 183.456495 
L 191.916453 182.888653 
L 192.185325 183.879041 
L 192.320607 183.256816 
L 192.590325 184.330113 
L 192.724761 184.629322 
L 192.859198 184.514605 
L 193.128916 184.526918 
L 193.400325 178.239206 
L 193.535606 179.125343 
L 193.670888 175.200525 
L 194.210324 181.489263 
L 194.345606 182.019139 
L 194.480042 180.421918 
L 194.615324 175.414774 
L 195.019478 178.302619 
L 195.289196 180.953436 
L 195.423632 181.37824 
L 195.558914 182.209583 
L 195.694196 182.041713 
L 196.099195 183.395955 
L 196.233632 183.035385 
L 196.638631 183.887865 
L 196.773068 184.642251 
L 196.907504 183.535914 
L 197.042786 183.91988 
L 197.313349 183.306479 
L 197.447785 184.336064 
L 197.583067 183.734361 
L 197.718349 176.575904 
L 197.852785 176.771068 
L 197.988067 177.264825 
L 198.121658 174.366514 
L 198.256094 175.358134 
L 198.524966 178.831469 
L 198.659402 179.259967 
L 198.794684 181.339864 
L 198.92912 174.443061 
L 199.064402 173.354989 
L 199.33412 177.602821 
L 199.602993 179.750851 
L 200.007992 183.516213 
L 200.142429 181.992666 
L 200.27771 182.527672 
L 200.547428 174.504627 
L 200.815455 177.961545 
L 201.354891 182.432451 
L 201.490173 182.657987 
L 201.624609 183.460804 
L 201.759045 182.563175 
L 201.893482 183.643039 
L 202.028763 183.596249 
L 202.1632 183.852773 
L 202.298481 184.801912 
L 202.432918 183.965849 
L 202.569045 185.224048 
L 202.837917 184.947207 
L 202.972354 185.626893 
L 203.241226 174.143441 
L 203.51179 175.683406 
L 203.647071 172.768472 
L 203.781508 174.794602 
L 203.915944 175.112691 
L 204.051226 171.565477 
L 204.186507 172.181545 
L 204.456225 177.48872 
L 204.591507 178.319652 
L 204.725943 174.974168 
L 205.400661 181.549598 
L 205.670379 183.039489 
L 205.804815 182.716679 
L 206.209815 183.924805 
L 206.479533 184.291326 
L 206.750942 176.614075 
L 206.885378 178.652518 
L 207.02066 178.718393 
L 207.55925 181.375572 
L 207.694532 181.175688 
L 207.829814 181.880206 
L 207.965096 181.747634 
L 208.099532 182.958838 
L 208.233968 182.90897 
L 208.36925 182.088093 
L 208.503686 182.370474 
L 208.638122 182.982438 
L 208.77425 183.047082 
L 208.910377 182.503662 
L 209.045659 182.614275 
L 209.179249 182.193165 
L 209.448122 182.544706 
L 209.718685 181.830953 
L 209.987558 182.078653 
L 210.122839 176.25843 
L 210.258121 175.680328 
L 210.393403 176.216566 
L 210.798403 178.890367 
L 210.933684 177.239378 
L 211.068121 172.665863 
L 211.472275 177.323313 
L 211.608402 177.718565 
L 212.012556 180.637398 
L 212.28312 181.709463 
L 212.551992 182.251447 
L 212.758297 182.213482 
L 212.892733 182.054232 
L 213.027169 182.765316 
L 213.162451 182.714217 
L 213.296887 182.909585 
L 213.432169 183.692086 
L 213.566605 182.288182 
L 213.836323 183.292935 
L 213.971605 182.94632 
L 214.106887 182.913074 
L 214.241323 182.702314 
L 214.376605 183.439256 
L 214.646323 173.532709 
L 214.916041 176.667227 
L 215.185759 171.760641 
L 215.455477 176.105747 
L 215.590759 177.266672 
L 215.725195 172.843993 
L 215.994067 174.845906 
L 216.265476 177.899774 
L 216.399912 176.959459 
L 216.535194 173.783692 
L 217.209066 182.130573 
L 217.343503 181.878769 
L 217.478784 182.967868 
L 217.613221 182.877366 
L 218.017375 183.708093 
L 218.152657 184.235917 
L 218.287093 184.152188 
L 218.421529 184.237764 
L 218.555965 184.71572 
L 218.96012 176.215129 
L 219.094556 178.808895 
L 219.364274 175.550424 
L 219.633992 178.317805 
L 219.769273 179.69811 
L 219.90371 178.705259 
L 220.038991 175.833011 
L 220.580964 181.700639 
L 220.7154 182.503046 
L 220.850682 182.177363 
L 221.1204 183.736003 
L 221.254836 183.065552 
L 221.389272 185.136214 
L 221.524554 185.281099 
L 221.659836 184.851985 
L 222.06399 186.121061 
L 222.333708 177.38652 
L 222.468144 178.73399 
L 222.602581 179.353547 
L 222.872298 182.887011 
L 223.410889 185.085935 
L 223.546171 184.482591 
L 223.680607 177.549259 
L 224.084761 180.575832 
L 224.354479 183.417298 
L 224.488915 178.249672 
L 224.626734 177.695581 
L 225.167015 182.490322 
L 225.435888 183.367635 
L 225.70476 185.273095 
L 225.840042 184.53841 
L 225.974478 185.23985 
L 226.243351 178.075852 
L 226.377787 178.934079 
L 226.512223 176.032689 
L 226.781941 178.485469 
L 227.186095 182.549836 
L 227.320531 182.409671 
L 227.455813 177.019383 
L 227.590249 177.604874 
L 228.262431 182.818673 
L 228.397712 176.909386 
L 228.532994 176.517622 
L 228.801867 180.318077 
L 229.206866 183.016094 
L 229.341302 182.549631 
L 229.475739 183.68634 
L 229.745457 178.624813 
L 229.879893 178.520357 
L 230.284047 181.843471 
L 230.555456 183.08279 
L 230.689892 183.466756 
L 231.094047 183.383437 
L 231.229328 183.242656 
L 231.36461 183.817475 
L 232.306509 178.484238 
L 232.440945 178.811152 
L 232.576227 179.00098 
L 232.710663 178.63097 
L 232.8451 174.476101 
L 233.114818 176.45462 
L 233.518126 182.197269 
L 233.653408 182.580209 
L 233.787844 183.377075 
L 233.923126 183.286573 
L 234.058408 184.437442 
L 234.192844 183.337673 
L 234.462562 176.261714 
L 234.73228 179.566359 
L 234.867562 178.615168 
L 235.001998 175.609732 
L 235.270871 178.224431 
L 235.541434 181.122947 
L 235.811998 182.106563 
L 235.946434 177.142925 
L 236.216152 178.45797 
L 236.487561 181.995744 
L 236.757279 183.525448 
L 236.891715 183.373586 
L 237.026997 181.668625 
L 237.161433 177.441314 
L 237.969741 184.820792 
L 238.105023 185.144423 
L 238.378123 177.903262 
L 238.646996 181.501576 
L 238.916714 182.9416 
L 239.05115 184.64102 
L 239.186432 184.651076 
L 239.45615 186.039589 
L 239.591431 186.080838 
L 239.72164 186.561461 
L 239.859458 186.605584 
L 239.99474 187.137307 
L 240.129176 187.158855 
L 240.398894 188.594568 
L 240.803048 186.760524 
L 241.072766 188.156015 
L 241.207203 187.909546 
L 241.342484 187.146336 
L 241.476921 187.934173 
L 241.612202 186.959381 
L 241.746639 187.138743 
L 242.016357 187.732032 
L 242.151638 187.349708 
L 242.286075 187.79565 
L 242.421356 187.621008 
L 242.555793 186.680694 
L 242.690229 187.624292 
L 242.825511 187.522708 
L 243.094383 188.606881 
L 243.364101 187.610747 
L 243.499383 188.209577 
L 243.633819 188.270527 
L 243.769101 188.520895 
L 243.903537 188.305414 
L 244.037973 188.796504 
L 244.307691 180.131328 
L 244.715227 183.652684 
L 244.850509 184.253771 
L 244.9841 185.698309 
L 245.119382 185.452867 
L 245.253818 185.710007 
L 245.3891 183.961539 
L 245.523536 179.795178 
L 245.658818 181.585921 
L 245.92769 177.815223 
L 246.061281 178.577202 
L 246.735153 184.787752 
L 246.870435 185.455945 
L 247.004871 185.361134 
L 247.273743 186.701831 
L 247.543461 179.059878 
L 247.678743 179.218923 
L 247.948461 183.167751 
L 248.082897 183.873295 
L 248.217334 185.376115 
L 248.352615 184.578018 
L 248.487052 186.478142 
L 248.622333 186.25117 
L 248.75677 187.57155 
L 248.892051 186.073861 
L 249.027333 180.324234 
L 249.161769 179.859207 
L 249.296206 181.774723 
L 249.430642 178.905143 
L 249.565078 179.183009 
L 249.970078 183.588656 
L 250.104514 183.848874 
L 250.239796 185.633665 
L 250.374232 181.379676 
L 250.508668 180.720717 
L 250.778386 183.85031 
L 250.912822 185.416749 
L 251.048104 185.654392 
L 251.317822 187.234786 
L 251.451413 188.199111 
L 251.586695 186.515287 
L 251.721976 180.260205 
L 251.856413 180.543203 
L 252.126131 183.735798 
L 252.395849 187.199283 
L 252.529439 186.674537 
L 252.664721 182.166692 
L 252.799157 181.700639 
L 252.934439 183.4331 
L 253.068875 179.809133 
L 254.012465 186.483068 
L 254.146902 186.805262 
L 254.281338 187.588378 
L 254.415774 187.663283 
L 254.551056 188.41377 
L 254.685492 187.77677 
L 254.819928 189.096124 
L 255.088801 182.745615 
L 255.498028 185.748999 
L 255.63331 185.855713 
L 255.767746 186.158411 
L 255.902182 180.770585 
L 256.441618 185.944983 
L 256.576055 186.147124 
L 256.844927 187.498492 
L 257.117181 188.291254 
L 257.251618 188.43265 
L 257.386899 188.325731 
L 257.521336 188.987358 
L 257.656617 189.068214 
L 257.791899 189.622101 
L 257.926335 188.312597 
L 258.061617 188.36657 
L 258.331335 189.482962 
L 258.466617 189.12034 
L 258.601053 189.427143 
L 258.736335 189.072729 
L 258.871617 189.446844 
L 259.006053 188.828108 
L 259.274925 190.678159 
L 259.544643 189.170003 
L 259.815207 190.174756 
L 259.949643 189.556636 
L 260.084079 189.919258 
L 260.219361 189.615534 
L 260.353797 188.658597 
L 260.488233 189.06924 
L 260.62267 189.111721 
L 260.757951 189.767396 
L 260.893233 189.600142 
L 261.028515 189.863849 
L 261.162951 187.929248 
L 261.297387 182.802461 
L 261.431824 182.973614 
L 261.69816 185.097427 
L 261.832596 180.7279 
L 261.967878 181.081698 
L 262.23675 184.173531 
L 262.371186 186.231058 
L 262.506468 186.319098 
L 263.045058 188.522536 
L 263.179495 187.933762 
L 263.313931 188.897677 
L 263.448367 184.016538 
L 263.582803 183.20387 
L 263.852521 184.339758 
L 264.123085 186.9208 
L 264.257521 187.188611 
L 264.391957 187.846134 
L 264.527239 187.113706 
L 264.662521 184.073384 
L 264.796957 184.50496 
L 264.931393 185.466617 
L 265.066675 184.578839 
L 265.201111 182.159099 
L 265.335548 183.192788 
L 265.470829 182.005595 
L 265.605266 183.573675 
L 265.740547 183.449107 
L 266.010265 187.024641 
L 266.819419 190.565288 
L 267.089137 190.148488 
L 267.358855 191.680655 
L 267.628573 191.612727 
L 267.759627 191.883617 
L 267.894064 191.901676 
L 268.032727 192.087194 
L 268.302445 186.616871 
L 268.702372 190.217647 
L 268.836808 190.474992 
L 268.971244 191.133951 
L 269.240962 184.692325 
L 269.645962 188.496884 
L 269.780398 189.584546 
L 269.914835 189.663145 
L 270.049271 190.369509 
L 270.318989 192.176875 
L 270.454271 191.23143 
L 270.588707 192.249728 
L 270.723143 191.531871 
L 270.858425 189.847021 
L 270.992861 184.907805 
L 271.397015 188.491959 
L 271.802861 190.391673 
L 271.936451 190.116064 
L 272.070887 185.196959 
L 272.205324 185.515459 
L 272.475887 188.071054 
L 273.014478 191.764384 
L 273.148914 191.729497 
L 273.28335 191.31085 
L 273.553068 185.71801 
L 273.826168 189.092841 
L 273.960604 190.297067 
L 274.095886 189.980208 
L 274.364759 192.239467 
L 274.50004 192.010647 
L 274.634477 193.196815 
L 274.768913 193.268026 
L 274.904195 193.898459 
L 275.038631 193.481864 
L 275.177295 193.813909 
L 275.311731 194.731033 
L 275.447013 194.211213 
L 275.716731 194.961084 
L 275.851167 195.207963 
L 275.986449 193.343341 
L 276.390603 194.944461 
L 276.525039 194.430593 
L 276.660321 194.918399 
L 276.794757 194.58266 
L 276.930039 194.786648 
L 277.063629 195.923357 
L 277.333347 187.977064 
L 277.467784 188.887006 
L 277.60222 189.191756 
L 277.871092 191.163297 
L 278.14081 186.544633 
L 278.680246 191.061303 
L 278.814683 191.73668 
L 278.949964 191.652129 
L 279.218837 186.666534 
L 279.623836 190.639167 
L 279.758273 190.640399 
L 280.027991 191.334655 
L 280.296863 185.152426 
L 280.432145 186.277438 
L 280.701863 188.31506 
L 281.106017 190.353502 
L 281.241299 186.034048 
L 281.375735 185.546652 
L 281.510171 186.303501 
L 281.644608 187.828895 
L 281.779044 187.79134 
L 282.048762 189.923568 
L 282.184044 190.660715 
L 282.31848 190.462679 
L 282.453762 186.990164 
L 282.588198 186.498049 
L 282.722634 186.989549 
L 282.992352 189.681409 
L 283.397352 190.782 
L 283.531788 191.879718 
L 283.66707 191.70446 
L 283.936788 192.475264 
L 284.071224 192.431142 
L 284.206506 192.587724 
L 284.340942 192.463156 
L 284.611505 192.847326 
L 284.745942 191.903523 
L 285.014814 192.877083 
L 285.285378 187.990403 
L 285.420659 187.642967 
L 285.689532 189.707267 
L 285.824814 189.861797 
L 286.097068 185.406693 
L 286.366786 190.056755 
L 286.635658 185.144833 
L 286.905376 188.050532 
L 287.309531 189.055901 
L 287.448194 190.74034 
L 287.583476 190.881942 
L 287.718758 191.623194 
L 287.853194 191.153242 
L 287.98763 191.447526 
L 288.122067 191.187924 
L 288.390939 191.958727 
L 288.525375 191.360923 
L 288.659812 191.753303 
L 288.795093 191.550751 
L 289.064811 192.184879 
L 289.198402 192.093966 
L 289.333684 190.574523 
L 289.46812 185.72704 
L 290.007556 189.748516 
L 290.142838 188.631097 
L 290.277274 185.164329 
L 290.546992 187.737573 
L 290.815864 190.423687 
L 290.951146 190.404807 
L 291.086428 191.190797 
L 291.220864 190.872502 
L 291.3553 191.973092 
L 291.490582 191.843189 
L 291.625018 191.898393 
L 291.7603 191.399299 
L 292.030018 186.571928 
L 292.164454 187.737368 
L 292.300582 187.067737 
L 292.435018 185.667116 
L 292.704736 187.334317 
L 292.839172 188.159914 
L 292.974454 184.45386 
L 293.10889 184.942692 
L 293.513044 188.017287 
L 293.648326 188.675835 
L 293.782762 190.122425 
L 293.918044 189.454232 
L 294.05248 190.118526 
L 294.187762 190.202666 
L 294.453252 192.049434 
L 294.722125 191.046733 
L 294.857407 191.235329 
L 294.991843 190.929142 
L 295.127125 191.618884 
L 295.396843 185.220559 
L 295.534661 185.582155 
L 295.665715 187.228834 
L 295.800151 186.901099 
L 296.069869 189.179648 
L 296.205151 189.675047 
L 296.339587 190.644914 
L 296.474869 190.772149 
L 296.609305 191.416538 
L 296.877332 185.169665 
L 297.283177 188.174895 
L 297.418459 188.228662 
L 297.689023 185.592211 
L 297.823459 185.752898 
L 298.229304 188.823388 
L 298.364586 188.968478 
L 298.634304 190.528554 
L 298.904022 185.71247 
L 299.038458 185.70816 
L 299.310713 188.949187 
L 299.445994 188.641769 
L 299.850149 190.812783 
L 299.984585 191.035035 
L 300.119021 190.820581 
L 300.254303 191.570452 
L 300.524021 185.852839 
L 300.659302 188.110046 
L 300.793739 188.340917 
L 300.928175 187.819866 
L 301.062611 186.231674 
L 301.333175 188.541006 
L 301.467611 190.442157 
L 301.602893 189.761855 
L 301.737329 190.350424 
L 301.871765 190.395162 
L 302.006201 191.339375 
L 302.140638 190.607564 
L 302.545637 191.740784 
L 302.680919 191.653771 
L 303.21951 192.61194 
L 303.353946 193.302092 
L 303.489228 192.414314 
L 303.624509 192.653189 
L 303.758945 192.481626 
L 304.028663 192.738765 
L 304.1631 193.863572 
L 304.297536 193.222877 
L 304.567254 193.220825 
L 304.702536 192.714549 
L 304.836972 192.971894 
L 304.972254 193.483711 
L 305.107535 193.269052 
L 305.241972 193.688109 
L 305.376408 192.979693 
L 305.51169 187.675391 
L 305.647817 187.522708 
L 305.783099 189.538987 
L 305.91838 189.248397 
L 306.052817 190.720024 
L 306.32338 190.964235 
L 306.457816 191.646794 
L 306.591407 193.037359 
L 306.726689 191.666905 
L 306.861125 187.185328 
L 306.996407 187.378234 
L 307.135071 188.401662 
L 307.269507 188.393864 
L 307.404789 189.857487 
L 307.539225 185.321937 
L 307.673661 185.863716 
L 307.943379 188.11374 
L 308.078661 185.789221 
L 308.211406 185.445069 
L 308.346688 187.703506 
L 308.481124 188.085419 
L 308.885278 191.464764 
L 309.02056 190.855058 
L 309.154996 191.359076 
L 309.290278 190.878863 
L 309.559996 191.729702 
L 309.829714 191.473794 
L 310.099432 192.794995 
L 310.099432 192.794995 
" clip-path="url(#p9404a1b90e)" style="fill: none; stroke: #1f77b4; stroke-width: 1.5; stroke-linecap: square"/>
   </g>
   <g id="patch_3">
    <path d="M 43.78125 198.8355 
L 43.78125 35.7555 
" style="fill: none; stroke: #000000; stroke-width: 0.8; stroke-linejoin: miter; stroke-linecap: square"/>
   </g>
   <g id="patch_4">
    <path d="M 322.78125 198.8355 
L 322.78125 35.7555 
" style="fill: none; stroke: #000000; stroke-width: 0.8; stroke-linejoin: miter; stroke-linecap: square"/>
   </g>
   <g id="patch_5">
    <path d="M 43.78125 198.8355 
L 322.78125 198.8355 
" style="fill: none; stroke: #000000; stroke-width: 0.8; stroke-linejoin: miter; stroke-linecap: square"/>
   </g>
   <g id="patch_6">
    <path d="M 43.78125 35.7555 
L 322.78125 35.7555 
" style="fill: none; stroke: #000000; stroke-width: 0.8; stroke-linejoin: miter; stroke-linecap: square"/>
   </g>
   <g id="text_16">
    <!-- After equalize -->
    <g transform="translate(141.814687 16.318125)scale(0.12 -0.12)">
     <defs>
      <path id="DejaVuSans-41" d="M 2188 4044 
L 1331 1722 
L 3047 1722 
L 2188 4044 
z
M 1831 4666 
L 2547 4666 
L 4325 0 
L 3669 0 
L 3244 1197 
L 1141 1197 
L 716 0 
L 50 0 
L 1831 4666 
z
" transform="scale(0.015625)"/>
      <path id="DejaVuSans-66" d="M 2375 4863 
L 2375 4384 
L 1825 4384 
Q 1516 4384 1395 4259 
Q 1275 4134 1275 3809 
L 1275 3500 
L 2222 3500 
L 2222 3053 
L 1275 3053 
L 1275 0 
L 697 0 
L 697 3053 
L 147 3053 
L 147 3500 
L 697 3500 
L 697 3744 
Q 697 4328 969 4595 
Q 1241 4863 1831 4863 
L 2375 4863 
z
" transform="scale(0.015625)"/>
      <path id="DejaVuSans-74" d="M 1172 4494 
L 1172 3500 
L 2356 3500 
L 2356 3053 
L 1172 3053 
L 1172 1153 
Q 1172 725 1289 603 
Q 1406 481 1766 481 
L 2356 481 
L 2356 0 
L 1766 0 
Q 1100 0 847 248 
Q 594 497 594 1153 
L 594 3053 
L 172 3053 
L 172 3500 
L 594 3500 
L 594 4494 
L 1172 4494 
z
" transform="scale(0.015625)"/>
      <path id="DejaVuSans-72" d="M 2631 2963 
Q 2534 3019 2420 3045 
Q 2306 3072 2169 3072 
Q 1681 3072 1420 2755 
Q 1159 2438 1159 1844 
L 1159 0 
L 581 0 
L 581 3500 
L 1159 3500 
L 1159 2956 
Q 1341 3275 1631 3429 
Q 1922 3584 2338 3584 
Q 2397 3584 2469 3576 
Q 2541 3569 2628 3553 
L 2631 2963 
z
" transform="scale(0.015625)"/>
      <path id="DejaVuSans-71" d="M 947 1747 
Q 947 1113 1208 752 
Q 1469 391 1925 391 
Q 2381 391 2643 752 
Q 2906 1113 2906 1747 
Q 2906 2381 2643 2742 
Q 2381 3103 1925 3103 
Q 1469 3103 1208 2742 
Q 947 2381 947 1747 
z
M 2906 525 
Q 2725 213 2448 61 
Q 2172 -91 1784 -91 
Q 1150 -91 751 415 
Q 353 922 353 1747 
Q 353 2572 751 3078 
Q 1150 3584 1784 3584 
Q 2172 3584 2448 3432 
Q 2725 3281 2906 2969 
L 2906 3500 
L 3481 3500 
L 3481 -1331 
L 2906 -1331 
L 2906 525 
z
" transform="scale(0.015625)"/>
      <path id="DejaVuSans-75" d="M 544 1381 
L 544 3500 
L 1119 3500 
L 1119 1403 
Q 1119 906 1312 657 
Q 1506 409 1894 409 
Q 2359 409 2629 706 
Q 2900 1003 2900 1516 
L 2900 3500 
L 3475 3500 
L 3475 0 
L 2900 0 
L 2900 538 
Q 2691 219 2414 64 
Q 2138 -91 1772 -91 
Q 1169 -91 856 284 
Q 544 659 544 1381 
z
M 1991 3584 
L 1991 3584 
z
" transform="scale(0.015625)"/>
      <path id="DejaVuSans-61" d="M 2194 1759 
Q 1497 1759 1228 1600 
Q 959 1441 959 1056 
Q 959 750 1161 570 
Q 1363 391 1709 391 
Q 2188 391 2477 730 
Q 2766 1069 2766 1631 
L 2766 1759 
L 2194 1759 
z
M 3341 1997 
L 3341 0 
L 2766 0 
L 2766 531 
Q 2569 213 2275 61 
Q 1981 -91 1556 -91 
Q 1019 -91 701 211 
Q 384 513 384 1019 
Q 384 1609 779 1909 
Q 1175 2209 1959 2209 
L 2766 2209 
L 2766 2266 
Q 2766 2663 2505 2880 
Q 2244 3097 1772 3097 
Q 1472 3097 1187 3025 
Q 903 2953 641 2809 
L 641 3341 
Q 956 3463 1253 3523 
Q 1550 3584 1831 3584 
Q 2591 3584 2966 3190 
Q 3341 2797 3341 1997 
z
" transform="scale(0.015625)"/>
      <path id="DejaVuSans-6c" d="M 603 4863 
L 1178 4863 
L 1178 0 
L 603 0 
L 603 4863 
z
" transform="scale(0.015625)"/>
      <path id="DejaVuSans-7a" d="M 353 3500 
L 3084 3500 
L 3084 2975 
L 922 459 
L 3084 459 
L 3084 0 
L 275 0 
L 275 525 
L 2438 3041 
L 353 3041 
L 353 3500 
z
" transform="scale(0.015625)"/>
     </defs>
     <use xlink:href="#DejaVuSans-41"/>
     <use xlink:href="#DejaVuSans-66" x="64.783203"/>
     <use xlink:href="#DejaVuSans-74" x="98.238281"/>
     <use xlink:href="#DejaVuSans-65" x="137.447266"/>
     <use xlink:href="#DejaVuSans-72" x="198.970703"/>
     <use xlink:href="#DejaVuSans-20" x="240.083984"/>
     <use xlink:href="#DejaVuSans-65" x="271.871094"/>
     <use xlink:href="#DejaVuSans-71" x="333.394531"/>
     <use xlink:href="#DejaVuSans-75" x="396.871094"/>
     <use xlink:href="#DejaVuSans-61" x="460.25"/>
     <use xlink:href="#DejaVuSans-6c" x="521.529297"/>
     <use xlink:href="#DejaVuSans-69" x="549.3125"/>
     <use xlink:href="#DejaVuSans-7a" x="577.095703"/>
     <use xlink:href="#DejaVuSans-65" x="629.585938"/>
    </g>
    <!-- NTR_C3_005_crop - Intensity Equalized, ROI=13 -->
    <g transform="translate(39.185625 29.7555)scale(0.12 -0.12)">
     <defs>
      <path id="DejaVuSans-4e" d="M 628 4666 
L 1478 4666 
L 3547 763 
L 3547 4666 
L 4159 4666 
L 4159 0 
L 3309 0 
L 1241 3903 
L 1241 0 
L 628 0 
L 628 4666 
z
" transform="scale(0.015625)"/>
      <path id="DejaVuSans-52" d="M 2841 2188 
Q 3044 2119 3236 1894 
Q 3428 1669 3622 1275 
L 4263 0 
L 3584 0 
L 2988 1197 
Q 2756 1666 2539 1819 
Q 2322 1972 1947 1972 
L 1259 1972 
L 1259 0 
L 628 0 
L 628 4666 
L 2053 4666 
Q 2853 4666 3247 4331 
Q 3641 3997 3641 3322 
Q 3641 2881 3436 2590 
Q 3231 2300 2841 2188 
z
M 1259 4147 
L 1259 2491 
L 2053 2491 
Q 2509 2491 2742 2702 
Q 2975 2913 2975 3322 
Q 2975 3731 2742 3939 
Q 2509 4147 2053 4147 
L 1259 4147 
z
" transform="scale(0.015625)"/>
      <path id="DejaVuSans-5f" d="M 3263 -1063 
L 3263 -1509 
L -63 -1509 
L -63 -1063 
L 3263 -1063 
z
" transform="scale(0.015625)"/>
      <path id="DejaVuSans-43" d="M 4122 4306 
L 4122 3641 
Q 3803 3938 3442 4084 
Q 3081 4231 2675 4231 
Q 1875 4231 1450 3742 
Q 1025 3253 1025 2328 
Q 1025 1406 1450 917 
Q 1875 428 2675 428 
Q 3081 428 3442 575 
Q 3803 722 4122 1019 
L 4122 359 
Q 3791 134 3420 21 
Q 3050 -91 2638 -91 
Q 1578 -91 968 557 
Q 359 1206 359 2328 
Q 359 3453 968 4101 
Q 1578 4750 2638 4750 
Q 3056 4750 3426 4639 
Q 3797 4528 4122 4306 
z
" transform="scale(0.015625)"/>
      <path id="DejaVuSans-63" d="M 3122 3366 
L 3122 2828 
Q 2878 2963 2633 3030 
Q 2388 3097 2138 3097 
Q 1578 3097 1268 2742 
Q 959 2388 959 1747 
Q 959 1106 1268 751 
Q 1578 397 2138 397 
Q 2388 397 2633 464 
Q 2878 531 3122 666 
L 3122 134 
Q 2881 22 2623 -34 
Q 2366 -91 2075 -91 
Q 1284 -91 818 406 
Q 353 903 353 1747 
Q 353 2603 823 3093 
Q 1294 3584 2113 3584 
Q 2378 3584 2631 3529 
Q 2884 3475 3122 3366 
z
" transform="scale(0.015625)"/>
      <path id="DejaVuSans-6f" d="M 1959 3097 
Q 1497 3097 1228 2736 
Q 959 2375 959 1747 
Q 959 1119 1226 758 
Q 1494 397 1959 397 
Q 2419 397 2687 759 
Q 2956 1122 2956 1747 
Q 2956 2369 2687 2733 
Q 2419 3097 1959 3097 
z
M 1959 3584 
Q 2709 3584 3137 3096 
Q 3566 2609 3566 1747 
Q 3566 888 3137 398 
Q 2709 -91 1959 -91 
Q 1206 -91 779 398 
Q 353 888 353 1747 
Q 353 2609 779 3096 
Q 1206 3584 1959 3584 
z
" transform="scale(0.015625)"/>
      <path id="DejaVuSans-70" d="M 1159 525 
L 1159 -1331 
L 581 -1331 
L 581 3500 
L 1159 3500 
L 1159 2969 
Q 1341 3281 1617 3432 
Q 1894 3584 2278 3584 
Q 2916 3584 3314 3078 
Q 3713 2572 3713 1747 
Q 3713 922 3314 415 
Q 2916 -91 2278 -91 
Q 1894 -91 1617 61 
Q 1341 213 1159 525 
z
M 3116 1747 
Q 3116 2381 2855 2742 
Q 2594 3103 2138 3103 
Q 1681 3103 1420 2742 
Q 1159 2381 1159 1747 
Q 1159 1113 1420 752 
Q 1681 391 2138 391 
Q 2594 391 2855 752 
Q 3116 1113 3116 1747 
z
" transform="scale(0.015625)"/>
      <path id="DejaVuSans-49" d="M 628 4666 
L 1259 4666 
L 1259 0 
L 628 0 
L 628 4666 
z
" transform="scale(0.015625)"/>
      <path id="DejaVuSans-6e" d="M 3513 2113 
L 3513 0 
L 2938 0 
L 2938 2094 
Q 2938 2591 2744 2837 
Q 2550 3084 2163 3084 
Q 1697 3084 1428 2787 
Q 1159 2491 1159 1978 
L 1159 0 
L 581 0 
L 581 3500 
L 1159 3500 
L 1159 2956 
Q 1366 3272 1645 3428 
Q 1925 3584 2291 3584 
Q 2894 3584 3203 3211 
Q 3513 2838 3513 2113 
z
" transform="scale(0.015625)"/>
      <path id="DejaVuSans-79" d="M 2059 -325 
Q 1816 -950 1584 -1140 
Q 1353 -1331 966 -1331 
L 506 -1331 
L 506 -850 
L 844 -850 
Q 1081 -850 1212 -737 
Q 1344 -625 1503 -206 
L 1606 56 
L 191 3500 
L 800 3500 
L 1894 763 
L 2988 3500 
L 3597 3500 
L 2059 -325 
z
" transform="scale(0.015625)"/>
      <path id="DejaVuSans-45" d="M 628 4666 
L 3578 4666 
L 3578 4134 
L 1259 4134 
L 1259 2753 
L 3481 2753 
L 3481 2222 
L 1259 2222 
L 1259 531 
L 3634 531 
L 3634 0 
L 628 0 
L 628 4666 
z
" transform="scale(0.015625)"/>
      <path id="DejaVuSans-64" d="M 2906 2969 
L 2906 4863 
L 3481 4863 
L 3481 0 
L 2906 0 
L 2906 525 
Q 2725 213 2448 61 
Q 2172 -91 1784 -91 
Q 1150 -91 751 415 
Q 353 922 353 1747 
Q 353 2572 751 3078 
Q 1150 3584 1784 3584 
Q 2172 3584 2448 3432 
Q 2725 3281 2906 2969 
z
M 947 1747 
Q 947 1113 1208 752 
Q 1469 391 1925 391 
Q 2381 391 2643 752 
Q 2906 1113 2906 1747 
Q 2906 2381 2643 2742 
Q 2381 3103 1925 3103 
Q 1469 3103 1208 2742 
Q 947 2381 947 1747 
z
" transform="scale(0.015625)"/>
      <path id="DejaVuSans-2c" d="M 750 794 
L 1409 794 
L 1409 256 
L 897 -744 
L 494 -744 
L 750 256 
L 750 794 
z
" transform="scale(0.015625)"/>
      <path id="DejaVuSans-4f" d="M 2522 4238 
Q 1834 4238 1429 3725 
Q 1025 3213 1025 2328 
Q 1025 1447 1429 934 
Q 1834 422 2522 422 
Q 3209 422 3611 934 
Q 4013 1447 4013 2328 
Q 4013 3213 3611 3725 
Q 3209 4238 2522 4238 
z
M 2522 4750 
Q 3503 4750 4090 4092 
Q 4678 3434 4678 2328 
Q 4678 1225 4090 567 
Q 3503 -91 2522 -91 
Q 1538 -91 948 565 
Q 359 1222 359 2328 
Q 359 3434 948 4092 
Q 1538 4750 2522 4750 
z
" transform="scale(0.015625)"/>
      <path id="DejaVuSans-3d" d="M 678 2906 
L 4684 2906 
L 4684 2381 
L 678 2381 
L 678 2906 
z
M 678 1631 
L 4684 1631 
L 4684 1100 
L 678 1100 
L 678 1631 
z
" transform="scale(0.015625)"/>
     </defs>
     <use xlink:href="#DejaVuSans-4e"/>
     <use xlink:href="#DejaVuSans-54" x="74.804688"/>
     <use xlink:href="#DejaVuSans-52" x="135.888672"/>
     <use xlink:href="#DejaVuSans-5f" x="205.371094"/>
     <use xlink:href="#DejaVuSans-43" x="255.371094"/>
     <use xlink:href="#DejaVuSans-33" x="325.195312"/>
     <use xlink:href="#DejaVuSans-5f" x="388.818359"/>
     <use xlink:href="#DejaVuSans-30" x="438.818359"/>
     <use xlink:href="#DejaVuSans-30" x="502.441406"/>
     <use xlink:href="#DejaVuSans-35" x="566.064453"/>
     <use xlink:href="#DejaVuSans-5f" x="629.6875"/>
     <use xlink:href="#DejaVuSans-63" x="679.6875"/>
     <use xlink:href="#DejaVuSans-72" x="734.667969"/>
     <use xlink:href="#DejaVuSans-6f" x="773.53125"/>
     <use xlink:href="#DejaVuSans-70" x="834.712891"/>
     <use xlink:href="#DejaVuSans-20" x="898.189453"/>
     <use xlink:href="#DejaVuSans-2d" x="929.976562"/>
     <use xlink:href="#DejaVuSans-20" x="966.060547"/>
     <use xlink:href="#DejaVuSans-49" x="997.847656"/>
     <use xlink:href="#DejaVuSans-6e" x="1027.339844"/>
     <use xlink:href="#DejaVuSans-74" x="1090.71875"/>
     <use xlink:href="#DejaVuSans-65" x="1129.927734"/>
     <use xlink:href="#DejaVuSans-6e" x="1191.451172"/>
     <use xlink:href="#DejaVuSans-73" x="1254.830078"/>
     <use xlink:href="#DejaVuSans-69" x="1306.929688"/>
     <use xlink:href="#DejaVuSans-74" x="1334.712891"/>
     <use xlink:href="#DejaVuSans-79" x="1373.921875"/>
     <use xlink:href="#DejaVuSans-20" x="1433.101562"/>
     <use xlink:href="#DejaVuSans-45" x="1464.888672"/>
     <use xlink:href="#DejaVuSans-71" x="1528.072266"/>
     <use xlink:href="#DejaVuSans-75" x="1591.548828"/>
     <use xlink:href="#DejaVuSans-61" x="1654.927734"/>
     <use xlink:href="#DejaVuSans-6c" x="1716.207031"/>
     <use xlink:href="#DejaVuSans-69" x="1743.990234"/>
     <use xlink:href="#DejaVuSans-7a" x="1771.773438"/>
     <use xlink:href="#DejaVuSans-65" x="1824.263672"/>
     <use xlink:href="#DejaVuSans-64" x="1885.787109"/>
     <use xlink:href="#DejaVuSans-2c" x="1949.263672"/>
     <use xlink:href="#DejaVuSans-20" x="1981.050781"/>
     <use xlink:href="#DejaVuSans-52" x="2012.837891"/>
     <use xlink:href="#DejaVuSans-4f" x="2082.320312"/>
     <use xlink:href="#DejaVuSans-49" x="2161.03125"/>
     <use xlink:href="#DejaVuSans-3d" x="2190.523438"/>
     <use xlink:href="#DejaVuSans-31" x="2274.3125"/>
     <use xlink:href="#DejaVuSans-33" x="2337.935547"/>
    </g>
   </g>
  </g>
 </g>
 <defs>
  <clipPath id="p9404a1b90e">
   <rect x="43.78125" y="35.7555" width="279" height="163.08"/>
  </clipPath>
 </defs>
</svg>
