<?xml version="1.0" encoding="utf-8" standalone="no"?>
<!DOCTYPE svg PUBLIC "-//W3C//DTD SVG 1.1//EN"
  "http://www.w3.org/Graphics/SVG/1.1/DTD/svg11.dtd">
<svg xmlns:xlink="http://www.w3.org/1999/xlink" width="330.759375pt" height="236.39175pt" viewBox="0 0 330.759375 236.39175" xmlns="http://www.w3.org/2000/svg" version="1.1">
 <metadata>
  <rdf:RDF xmlns:dc="http://purl.org/dc/elements/1.1/" xmlns:cc="http://creativecommons.org/ns#" xmlns:rdf="http://www.w3.org/1999/02/22-rdf-syntax-ns#">
   <cc:Work>
    <dc:type rdf:resource="http://purl.org/dc/dcmitype/StillImage"/>
    <dc:date>2025-01-27T16:06:41.107277</dc:date>
    <dc:format>image/svg+xml</dc:format>
    <dc:creator>
     <cc:Agent>
      <dc:title>Matplotlib v3.5.2, https://matplotlib.org/</dc:title>
     </cc:Agent>
    </dc:creator>
   </cc:Work>
  </rdf:RDF>
 </metadata>
 <defs>
  <style type="text/css">*{stroke-linejoin: round; stroke-linecap: butt}</style>
 </defs>
 <g id="figure_1">
  <g id="patch_1">
   <path d="M 0 236.39175 
L 330.759375 236.39175 
L 330.759375 0 
L 0 0 
L 0 236.39175 
z
" style="fill: none"/>
  </g>
  <g id="axes_1">
   <g id="patch_2">
    <path d="M 43.78125 198.8355 
L 322.78125 198.8355 
L 322.78125 35.7555 
L 43.78125 35.7555 
z
" style="fill: #ffffff"/>
   </g>
   <g id="matplotlib.axis_1">
    <g id="xtick_1">
     <g id="line2d_1">
      <defs>
       <path id="mc27bb9efdc" d="M 0 0 
L 0 3.5 
" style="stroke: #000000; stroke-width: 0.8"/>
      </defs>
      <g>
       <use xlink:href="#mc27bb9efdc" x="56.427557" y="198.8355" style="stroke: #000000; stroke-width: 0.8"/>
      </g>
     </g>
     <g id="text_1">
      <!-- 0 -->
      <g transform="translate(53.246307 213.433938)scale(0.1 -0.1)">
       <defs>
        <path id="DejaVuSans-30" d="M 2034 4250 
Q 1547 4250 1301 3770 
Q 1056 3291 1056 2328 
Q 1056 1369 1301 889 
Q 1547 409 2034 409 
Q 2525 409 2770 889 
Q 3016 1369 3016 2328 
Q 3016 3291 2770 3770 
Q 2525 4250 2034 4250 
z
M 2034 4750 
Q 2819 4750 3233 4129 
Q 3647 3509 3647 2328 
Q 3647 1150 3233 529 
Q 2819 -91 2034 -91 
Q 1250 -91 836 529 
Q 422 1150 422 2328 
Q 422 3509 836 4129 
Q 1250 4750 2034 4750 
z
" transform="scale(0.015625)"/>
       </defs>
       <use xlink:href="#DejaVuSans-30"/>
      </g>
     </g>
    </g>
    <g id="xtick_2">
     <g id="line2d_2">
      <g>
       <use xlink:href="#mc27bb9efdc" x="98.703102" y="198.8355" style="stroke: #000000; stroke-width: 0.8"/>
      </g>
     </g>
     <g id="text_2">
      <!-- 50 -->
      <g transform="translate(92.340602 213.433938)scale(0.1 -0.1)">
       <defs>
        <path id="DejaVuSans-35" d="M 691 4666 
L 3169 4666 
L 3169 4134 
L 1269 4134 
L 1269 2991 
Q 1406 3038 1543 3061 
Q 1681 3084 1819 3084 
Q 2600 3084 3056 2656 
Q 3513 2228 3513 1497 
Q 3513 744 3044 326 
Q 2575 -91 1722 -91 
Q 1428 -91 1123 -41 
Q 819 9 494 109 
L 494 744 
Q 775 591 1075 516 
Q 1375 441 1709 441 
Q 2250 441 2565 725 
Q 2881 1009 2881 1497 
Q 2881 1984 2565 2268 
Q 2250 2553 1709 2553 
Q 1456 2553 1204 2497 
Q 953 2441 691 2322 
L 691 4666 
z
" transform="scale(0.015625)"/>
       </defs>
       <use xlink:href="#DejaVuSans-35"/>
       <use xlink:href="#DejaVuSans-30" x="63.623047"/>
      </g>
     </g>
    </g>
    <g id="xtick_3">
     <g id="line2d_3">
      <g>
       <use xlink:href="#mc27bb9efdc" x="140.978648" y="198.8355" style="stroke: #000000; stroke-width: 0.8"/>
      </g>
     </g>
     <g id="text_3">
      <!-- 100 -->
      <g transform="translate(131.434898 213.433938)scale(0.1 -0.1)">
       <defs>
        <path id="DejaVuSans-31" d="M 794 531 
L 1825 531 
L 1825 4091 
L 703 3866 
L 703 4441 
L 1819 4666 
L 2450 4666 
L 2450 531 
L 3481 531 
L 3481 0 
L 794 0 
L 794 531 
z
" transform="scale(0.015625)"/>
       </defs>
       <use xlink:href="#DejaVuSans-31"/>
       <use xlink:href="#DejaVuSans-30" x="63.623047"/>
       <use xlink:href="#DejaVuSans-30" x="127.246094"/>
      </g>
     </g>
    </g>
    <g id="xtick_4">
     <g id="line2d_4">
      <g>
       <use xlink:href="#mc27bb9efdc" x="183.254194" y="198.8355" style="stroke: #000000; stroke-width: 0.8"/>
      </g>
     </g>
     <g id="text_4">
      <!-- 150 -->
      <g transform="translate(173.710444 213.433938)scale(0.1 -0.1)">
       <use xlink:href="#DejaVuSans-31"/>
       <use xlink:href="#DejaVuSans-35" x="63.623047"/>
       <use xlink:href="#DejaVuSans-30" x="127.246094"/>
      </g>
     </g>
    </g>
    <g id="xtick_5">
     <g id="line2d_5">
      <g>
       <use xlink:href="#mc27bb9efdc" x="225.529739" y="198.8355" style="stroke: #000000; stroke-width: 0.8"/>
      </g>
     </g>
     <g id="text_5">
      <!-- 200 -->
      <g transform="translate(215.985989 213.433938)scale(0.1 -0.1)">
       <defs>
        <path id="DejaVuSans-32" d="M 1228 531 
L 3431 531 
L 3431 0 
L 469 0 
L 469 531 
Q 828 903 1448 1529 
Q 2069 2156 2228 2338 
Q 2531 2678 2651 2914 
Q 2772 3150 2772 3378 
Q 2772 3750 2511 3984 
Q 2250 4219 1831 4219 
Q 1534 4219 1204 4116 
Q 875 4013 500 3803 
L 500 4441 
Q 881 4594 1212 4672 
Q 1544 4750 1819 4750 
Q 2544 4750 2975 4387 
Q 3406 4025 3406 3419 
Q 3406 3131 3298 2873 
Q 3191 2616 2906 2266 
Q 2828 2175 2409 1742 
Q 1991 1309 1228 531 
z
" transform="scale(0.015625)"/>
       </defs>
       <use xlink:href="#DejaVuSans-32"/>
       <use xlink:href="#DejaVuSans-30" x="63.623047"/>
       <use xlink:href="#DejaVuSans-30" x="127.246094"/>
      </g>
     </g>
    </g>
    <g id="xtick_6">
     <g id="line2d_6">
      <g>
       <use xlink:href="#mc27bb9efdc" x="267.805285" y="198.8355" style="stroke: #000000; stroke-width: 0.8"/>
      </g>
     </g>
     <g id="text_6">
      <!-- 250 -->
      <g transform="translate(258.261535 213.433938)scale(0.1 -0.1)">
       <use xlink:href="#DejaVuSans-32"/>
       <use xlink:href="#DejaVuSans-35" x="63.623047"/>
       <use xlink:href="#DejaVuSans-30" x="127.246094"/>
      </g>
     </g>
    </g>
    <g id="xtick_7">
     <g id="line2d_7">
      <g>
       <use xlink:href="#mc27bb9efdc" x="310.080831" y="198.8355" style="stroke: #000000; stroke-width: 0.8"/>
      </g>
     </g>
     <g id="text_7">
      <!-- 300 -->
      <g transform="translate(300.537081 213.433938)scale(0.1 -0.1)">
       <defs>
        <path id="DejaVuSans-33" d="M 2597 2516 
Q 3050 2419 3304 2112 
Q 3559 1806 3559 1356 
Q 3559 666 3084 287 
Q 2609 -91 1734 -91 
Q 1441 -91 1130 -33 
Q 819 25 488 141 
L 488 750 
Q 750 597 1062 519 
Q 1375 441 1716 441 
Q 2309 441 2620 675 
Q 2931 909 2931 1356 
Q 2931 1769 2642 2001 
Q 2353 2234 1838 2234 
L 1294 2234 
L 1294 2753 
L 1863 2753 
Q 2328 2753 2575 2939 
Q 2822 3125 2822 3475 
Q 2822 3834 2567 4026 
Q 2313 4219 1838 4219 
Q 1578 4219 1281 4162 
Q 984 4106 628 3988 
L 628 4550 
Q 988 4650 1302 4700 
Q 1616 4750 1894 4750 
Q 2613 4750 3031 4423 
Q 3450 4097 3450 3541 
Q 3450 3153 3228 2886 
Q 3006 2619 2597 2516 
z
" transform="scale(0.015625)"/>
       </defs>
       <use xlink:href="#DejaVuSans-33"/>
       <use xlink:href="#DejaVuSans-30" x="63.623047"/>
       <use xlink:href="#DejaVuSans-30" x="127.246094"/>
      </g>
     </g>
    </g>
    <g id="text_8">
     <!-- Time [s] -->
     <g transform="translate(162.952344 227.112063)scale(0.1 -0.1)">
      <defs>
       <path id="DejaVuSans-54" d="M -19 4666 
L 3928 4666 
L 3928 4134 
L 2272 4134 
L 2272 0 
L 1638 0 
L 1638 4134 
L -19 4134 
L -19 4666 
z
" transform="scale(0.015625)"/>
       <path id="DejaVuSans-69" d="M 603 3500 
L 1178 3500 
L 1178 0 
L 603 0 
L 603 3500 
z
M 603 4863 
L 1178 4863 
L 1178 4134 
L 603 4134 
L 603 4863 
z
" transform="scale(0.015625)"/>
       <path id="DejaVuSans-6d" d="M 3328 2828 
Q 3544 3216 3844 3400 
Q 4144 3584 4550 3584 
Q 5097 3584 5394 3201 
Q 5691 2819 5691 2113 
L 5691 0 
L 5113 0 
L 5113 2094 
Q 5113 2597 4934 2840 
Q 4756 3084 4391 3084 
Q 3944 3084 3684 2787 
Q 3425 2491 3425 1978 
L 3425 0 
L 2847 0 
L 2847 2094 
Q 2847 2600 2669 2842 
Q 2491 3084 2119 3084 
Q 1678 3084 1418 2786 
Q 1159 2488 1159 1978 
L 1159 0 
L 581 0 
L 581 3500 
L 1159 3500 
L 1159 2956 
Q 1356 3278 1631 3431 
Q 1906 3584 2284 3584 
Q 2666 3584 2933 3390 
Q 3200 3197 3328 2828 
z
" transform="scale(0.015625)"/>
       <path id="DejaVuSans-65" d="M 3597 1894 
L 3597 1613 
L 953 1613 
Q 991 1019 1311 708 
Q 1631 397 2203 397 
Q 2534 397 2845 478 
Q 3156 559 3463 722 
L 3463 178 
Q 3153 47 2828 -22 
Q 2503 -91 2169 -91 
Q 1331 -91 842 396 
Q 353 884 353 1716 
Q 353 2575 817 3079 
Q 1281 3584 2069 3584 
Q 2775 3584 3186 3129 
Q 3597 2675 3597 1894 
z
M 3022 2063 
Q 3016 2534 2758 2815 
Q 2500 3097 2075 3097 
Q 1594 3097 1305 2825 
Q 1016 2553 972 2059 
L 3022 2063 
z
" transform="scale(0.015625)"/>
       <path id="DejaVuSans-20" transform="scale(0.015625)"/>
       <path id="DejaVuSans-5b" d="M 550 4863 
L 1875 4863 
L 1875 4416 
L 1125 4416 
L 1125 -397 
L 1875 -397 
L 1875 -844 
L 550 -844 
L 550 4863 
z
" transform="scale(0.015625)"/>
       <path id="DejaVuSans-73" d="M 2834 3397 
L 2834 2853 
Q 2591 2978 2328 3040 
Q 2066 3103 1784 3103 
Q 1356 3103 1142 2972 
Q 928 2841 928 2578 
Q 928 2378 1081 2264 
Q 1234 2150 1697 2047 
L 1894 2003 
Q 2506 1872 2764 1633 
Q 3022 1394 3022 966 
Q 3022 478 2636 193 
Q 2250 -91 1575 -91 
Q 1294 -91 989 -36 
Q 684 19 347 128 
L 347 722 
Q 666 556 975 473 
Q 1284 391 1588 391 
Q 1994 391 2212 530 
Q 2431 669 2431 922 
Q 2431 1156 2273 1281 
Q 2116 1406 1581 1522 
L 1381 1569 
Q 847 1681 609 1914 
Q 372 2147 372 2553 
Q 372 3047 722 3315 
Q 1072 3584 1716 3584 
Q 2034 3584 2315 3537 
Q 2597 3491 2834 3397 
z
" transform="scale(0.015625)"/>
       <path id="DejaVuSans-5d" d="M 1947 4863 
L 1947 -844 
L 622 -844 
L 622 -397 
L 1369 -397 
L 1369 4416 
L 622 4416 
L 622 4863 
L 1947 4863 
z
" transform="scale(0.015625)"/>
      </defs>
      <use xlink:href="#DejaVuSans-54"/>
      <use xlink:href="#DejaVuSans-69" x="57.958984"/>
      <use xlink:href="#DejaVuSans-6d" x="85.742188"/>
      <use xlink:href="#DejaVuSans-65" x="183.154297"/>
      <use xlink:href="#DejaVuSans-20" x="244.677734"/>
      <use xlink:href="#DejaVuSans-5b" x="276.464844"/>
      <use xlink:href="#DejaVuSans-73" x="315.478516"/>
      <use xlink:href="#DejaVuSans-5d" x="367.578125"/>
     </g>
    </g>
   </g>
   <g id="matplotlib.axis_2">
    <g id="ytick_1">
     <g id="line2d_8">
      <defs>
       <path id="m0b99e88009" d="M 0 0 
L -3.5 0 
" style="stroke: #000000; stroke-width: 0.8"/>
      </defs>
      <g>
       <use xlink:href="#m0b99e88009" x="43.78125" y="195.923357" style="stroke: #000000; stroke-width: 0.8"/>
      </g>
     </g>
     <g id="text_9">
      <!-- 0.0 -->
      <g transform="translate(20.878125 199.722576)scale(0.1 -0.1)">
       <defs>
        <path id="DejaVuSans-2e" d="M 684 794 
L 1344 794 
L 1344 0 
L 684 0 
L 684 794 
z
" transform="scale(0.015625)"/>
       </defs>
       <use xlink:href="#DejaVuSans-30"/>
       <use xlink:href="#DejaVuSans-2e" x="63.623047"/>
       <use xlink:href="#DejaVuSans-30" x="95.410156"/>
      </g>
     </g>
    </g>
    <g id="ytick_2">
     <g id="line2d_9">
      <g>
       <use xlink:href="#m0b99e88009" x="43.78125" y="166.801929" style="stroke: #000000; stroke-width: 0.8"/>
      </g>
     </g>
     <g id="text_10">
      <!-- 0.2 -->
      <g transform="translate(20.878125 170.601147)scale(0.1 -0.1)">
       <use xlink:href="#DejaVuSans-30"/>
       <use xlink:href="#DejaVuSans-2e" x="63.623047"/>
       <use xlink:href="#DejaVuSans-32" x="95.410156"/>
      </g>
     </g>
    </g>
    <g id="ytick_3">
     <g id="line2d_10">
      <g>
       <use xlink:href="#m0b99e88009" x="43.78125" y="137.6805" style="stroke: #000000; stroke-width: 0.8"/>
      </g>
     </g>
     <g id="text_11">
      <!-- 0.4 -->
      <g transform="translate(20.878125 141.479719)scale(0.1 -0.1)">
       <defs>
        <path id="DejaVuSans-34" d="M 2419 4116 
L 825 1625 
L 2419 1625 
L 2419 4116 
z
M 2253 4666 
L 3047 4666 
L 3047 1625 
L 3713 1625 
L 3713 1100 
L 3047 1100 
L 3047 0 
L 2419 0 
L 2419 1100 
L 313 1100 
L 313 1709 
L 2253 4666 
z
" transform="scale(0.015625)"/>
       </defs>
       <use xlink:href="#DejaVuSans-30"/>
       <use xlink:href="#DejaVuSans-2e" x="63.623047"/>
       <use xlink:href="#DejaVuSans-34" x="95.410156"/>
      </g>
     </g>
    </g>
    <g id="ytick_4">
     <g id="line2d_11">
      <g>
       <use xlink:href="#m0b99e88009" x="43.78125" y="108.559071" style="stroke: #000000; stroke-width: 0.8"/>
      </g>
     </g>
     <g id="text_12">
      <!-- 0.6 -->
      <g transform="translate(20.878125 112.35829)scale(0.1 -0.1)">
       <defs>
        <path id="DejaVuSans-36" d="M 2113 2584 
Q 1688 2584 1439 2293 
Q 1191 2003 1191 1497 
Q 1191 994 1439 701 
Q 1688 409 2113 409 
Q 2538 409 2786 701 
Q 3034 994 3034 1497 
Q 3034 2003 2786 2293 
Q 2538 2584 2113 2584 
z
M 3366 4563 
L 3366 3988 
Q 3128 4100 2886 4159 
Q 2644 4219 2406 4219 
Q 1781 4219 1451 3797 
Q 1122 3375 1075 2522 
Q 1259 2794 1537 2939 
Q 1816 3084 2150 3084 
Q 2853 3084 3261 2657 
Q 3669 2231 3669 1497 
Q 3669 778 3244 343 
Q 2819 -91 2113 -91 
Q 1303 -91 875 529 
Q 447 1150 447 2328 
Q 447 3434 972 4092 
Q 1497 4750 2381 4750 
Q 2619 4750 2861 4703 
Q 3103 4656 3366 4563 
z
" transform="scale(0.015625)"/>
       </defs>
       <use xlink:href="#DejaVuSans-30"/>
       <use xlink:href="#DejaVuSans-2e" x="63.623047"/>
       <use xlink:href="#DejaVuSans-36" x="95.410156"/>
      </g>
     </g>
    </g>
    <g id="ytick_5">
     <g id="line2d_12">
      <g>
       <use xlink:href="#m0b99e88009" x="43.78125" y="79.437643" style="stroke: #000000; stroke-width: 0.8"/>
      </g>
     </g>
     <g id="text_13">
      <!-- 0.8 -->
      <g transform="translate(20.878125 83.236862)scale(0.1 -0.1)">
       <defs>
        <path id="DejaVuSans-38" d="M 2034 2216 
Q 1584 2216 1326 1975 
Q 1069 1734 1069 1313 
Q 1069 891 1326 650 
Q 1584 409 2034 409 
Q 2484 409 2743 651 
Q 3003 894 3003 1313 
Q 3003 1734 2745 1975 
Q 2488 2216 2034 2216 
z
M 1403 2484 
Q 997 2584 770 2862 
Q 544 3141 544 3541 
Q 544 4100 942 4425 
Q 1341 4750 2034 4750 
Q 2731 4750 3128 4425 
Q 3525 4100 3525 3541 
Q 3525 3141 3298 2862 
Q 3072 2584 2669 2484 
Q 3125 2378 3379 2068 
Q 3634 1759 3634 1313 
Q 3634 634 3220 271 
Q 2806 -91 2034 -91 
Q 1263 -91 848 271 
Q 434 634 434 1313 
Q 434 1759 690 2068 
Q 947 2378 1403 2484 
z
M 1172 3481 
Q 1172 3119 1398 2916 
Q 1625 2713 2034 2713 
Q 2441 2713 2670 2916 
Q 2900 3119 2900 3481 
Q 2900 3844 2670 4047 
Q 2441 4250 2034 4250 
Q 1625 4250 1398 4047 
Q 1172 3844 1172 3481 
z
" transform="scale(0.015625)"/>
       </defs>
       <use xlink:href="#DejaVuSans-30"/>
       <use xlink:href="#DejaVuSans-2e" x="63.623047"/>
       <use xlink:href="#DejaVuSans-38" x="95.410156"/>
      </g>
     </g>
    </g>
    <g id="ytick_6">
     <g id="line2d_13">
      <g>
       <use xlink:href="#m0b99e88009" x="43.78125" y="50.316214" style="stroke: #000000; stroke-width: 0.8"/>
      </g>
     </g>
     <g id="text_14">
      <!-- 1.0 -->
      <g transform="translate(20.878125 54.115433)scale(0.1 -0.1)">
       <use xlink:href="#DejaVuSans-31"/>
       <use xlink:href="#DejaVuSans-2e" x="63.623047"/>
       <use xlink:href="#DejaVuSans-30" x="95.410156"/>
      </g>
     </g>
    </g>
    <g id="text_15">
     <!-- (F-F$^o$)/F$^o$ -->
     <g transform="translate(14.798438 137.9955)rotate(-90)scale(0.1 -0.1)">
      <defs>
       <path id="DejaVuSans-28" d="M 1984 4856 
Q 1566 4138 1362 3434 
Q 1159 2731 1159 2009 
Q 1159 1288 1364 580 
Q 1569 -128 1984 -844 
L 1484 -844 
Q 1016 -109 783 600 
Q 550 1309 550 2009 
Q 550 2706 781 3412 
Q 1013 4119 1484 4856 
L 1984 4856 
z
" transform="scale(0.015625)"/>
       <path id="DejaVuSans-46" d="M 628 4666 
L 3309 4666 
L 3309 4134 
L 1259 4134 
L 1259 2759 
L 3109 2759 
L 3109 2228 
L 1259 2228 
L 1259 0 
L 628 0 
L 628 4666 
z
" transform="scale(0.015625)"/>
       <path id="DejaVuSans-2d" d="M 313 2009 
L 1997 2009 
L 1997 1497 
L 313 1497 
L 313 2009 
z
" transform="scale(0.015625)"/>
       <path id="DejaVuSans-Oblique-6f" d="M 1625 -91 
Q 1009 -91 651 289 
Q 294 669 294 1325 
Q 294 1706 417 2101 
Q 541 2497 738 2766 
Q 1047 3184 1428 3384 
Q 1809 3584 2291 3584 
Q 2888 3584 3255 3212 
Q 3622 2841 3622 2241 
Q 3622 1825 3500 1412 
Q 3378 1000 3181 728 
Q 2875 309 2494 109 
Q 2113 -91 1625 -91 
z
M 891 1344 
Q 891 869 1089 633 
Q 1288 397 1691 397 
Q 2269 397 2648 901 
Q 3028 1406 3028 2181 
Q 3028 2634 2825 2865 
Q 2622 3097 2228 3097 
Q 1903 3097 1650 2945 
Q 1397 2794 1197 2484 
Q 1050 2253 970 1956 
Q 891 1659 891 1344 
z
" transform="scale(0.015625)"/>
       <path id="DejaVuSans-29" d="M 513 4856 
L 1013 4856 
Q 1481 4119 1714 3412 
Q 1947 2706 1947 2009 
Q 1947 1309 1714 600 
Q 1481 -109 1013 -844 
L 513 -844 
Q 928 -128 1133 580 
Q 1338 1288 1338 2009 
Q 1338 2731 1133 3434 
Q 928 4138 513 4856 
z
" transform="scale(0.015625)"/>
       <path id="DejaVuSans-2f" d="M 1625 4666 
L 2156 4666 
L 531 -594 
L 0 -594 
L 1625 4666 
z
" transform="scale(0.015625)"/>
      </defs>
      <use xlink:href="#DejaVuSans-28" transform="translate(0 0.51875)"/>
      <use xlink:href="#DejaVuSans-46" transform="translate(39.013672 0.51875)"/>
      <use xlink:href="#DejaVuSans-2d" transform="translate(96.533203 0.51875)"/>
      <use xlink:href="#DejaVuSans-46" transform="translate(132.617188 0.51875)"/>
      <use xlink:href="#DejaVuSans-Oblique-6f" transform="translate(191.09375 38.8)scale(0.7)"/>
      <use xlink:href="#DejaVuSans-29" transform="translate(236.655273 0.51875)"/>
      <use xlink:href="#DejaVuSans-2f" transform="translate(275.668945 0.51875)"/>
      <use xlink:href="#DejaVuSans-46" transform="translate(309.360352 0.51875)"/>
      <use xlink:href="#DejaVuSans-Oblique-6f" transform="translate(367.836914 38.8)scale(0.7)"/>
     </g>
    </g>
   </g>
   <g id="line2d_14">
    <path d="M 56.463068 173.823575 
L 56.851158 175.228724 
L 56.985594 175.217991 
L 57.120876 176.010002 
L 57.254466 175.847426 
L 57.389748 175.874058 
L 57.793902 178.03107 
L 58.065311 178.25645 
L 59.41221 184.577829 
L 59.816364 186.630299 
L 59.951646 186.890261 
L 60.223055 188.103618 
L 60.357491 188.191663 
L 60.627209 189.511549 
L 61.031364 190.995997 
L 61.1658 191.924349 
L 61.301082 191.915604 
L 61.435518 192.661903 
L 61.705236 192.194646 
L 61.839672 193.586081 
L 62.10939 193.281996 
L 62.647135 194.820306 
L 62.920235 195.262719 
L 63.189107 195.425295 
L 63.458825 195.311213 
L 63.593262 195.375608 
L 63.862134 195.923357 
L 64.12847 195.506384 
L 64.262906 195.628614 
L 64.397343 195.082454 
L 64.801497 195.499626 
L 65.071215 195.122403 
L 65.205651 195.131744 
L 65.475369 194.558356 
L 65.610651 194.970957 
L 65.745087 194.841771 
L 65.879523 194.524768 
L 66.013959 194.665084 
L 66.149241 194.152711 
L 66.283677 194.352056 
L 66.687832 193.477763 
L 66.822268 193.481142 
L 66.956704 193.661605 
L 67.09114 193.120017 
L 67.361704 192.987651 
L 67.49614 193.162946 
L 67.900294 192.386438 
L 68.169167 192.903382 
L 68.438039 191.551498 
L 68.573321 191.638152 
L 68.707757 191.486507 
L 68.843039 191.771909 
L 69.111911 191.09557 
L 69.381629 190.896623 
L 69.650502 190.177752 
L 69.785784 190.287262 
L 70.45881 189.015275 
L 70.594092 188.95565 
L 70.729374 188.535696 
L 70.999092 187.094773 
L 71.133528 186.93339 
L 71.267964 185.913216 
L 71.403246 186.275931 
L 71.942682 185.120013 
L 72.077964 184.840176 
L 72.2124 184.939153 
L 72.481272 184.307531 
L 72.75099 183.881615 
L 73.15599 182.709995 
L 73.965144 179.369042 
L 74.50458 175.822185 
L 74.639016 175.697968 
L 75.04317 172.536285 
L 75.178452 171.787999 
L 75.582606 168.563114 
L 75.852324 167.475167 
L 75.986761 167.826951 
L 76.256479 167.078069 
L 77.200069 161.622039 
L 77.334505 161.3585 
L 77.604223 160.142957 
L 77.738659 160.204966 
L 77.873941 160.13938 
L 78.008377 160.566886 
L 78.143659 160.31865 
L 78.278095 160.335743 
L 78.547813 160.876735 
L 78.682249 160.391591 
L 78.950276 161.061371 
L 79.084713 161.417727 
L 79.219149 161.415143 
L 79.758585 163.225141 
L 79.893021 162.89661 
L 80.162739 163.032753 
L 80.566893 164.086713 
L 80.836611 164.383046 
L 81.645765 168.472286 
L 81.780201 168.524954 
L 81.914638 169.029377 
L 82.049074 169.97343 
L 82.187738 170.045575 
L 82.591892 172.168601 
L 82.860764 172.322233 
L 82.996046 172.041204 
L 83.129637 172.667856 
L 83.264073 172.335748 
L 83.399355 172.975915 
L 83.534637 172.834009 
L 83.669073 173.027987 
L 83.937945 174.135014 
L 84.073227 173.858953 
L 84.207663 174.20378 
L 84.344636 174.14992 
L 84.614354 175.330284 
L 84.884072 175.415547 
L 85.152944 176.000661 
L 85.287381 175.957731 
L 85.691535 177.167908 
L 85.826817 177.182218 
L 86.095689 178.027691 
L 86.364562 178.490973 
L 86.63428 179.212826 
L 86.903998 179.055815 
L 87.043507 179.964888 
L 87.177943 179.69638 
L 87.312379 180.546425 
L 87.446816 180.576237 
L 87.717379 181.577728 
L 87.851815 181.319952 
L 89.197869 184.3602 
L 89.871741 185.362088 
L 90.14315 185.000566 
L 90.277586 185.366858 
L 90.412868 185.020242 
L 90.680895 185.467425 
L 90.815331 185.04906 
L 91.08674 185.796353 
L 91.490894 185.101728 
L 91.626176 185.815234 
L 92.164766 186.207165 
L 92.299203 186.428371 
L 92.568921 186.198817 
L 92.704202 185.903875 
L 92.838639 186.230617 
L 93.107511 185.94919 
L 93.241947 185.870287 
L 93.377229 186.021137 
L 93.512511 185.896919 
L 93.646102 186.108188 
L 93.781383 185.813842 
L 93.91582 185.823184 
L 94.050256 186.016963 
L 94.184692 185.820202 
L 94.320819 186.126274 
L 94.455256 185.924545 
L 94.589692 185.974828 
L 94.860255 186.433737 
L 94.994692 185.953363 
L 95.129128 186.028888 
L 95.398846 186.042005 
L 95.668564 185.440792 
L 95.803 185.812451 
L 96.206309 184.965785 
L 96.476027 184.973138 
L 96.610463 184.731461 
L 96.745745 184.815929 
L 97.015463 184.660905 
L 97.149053 184.799631 
L 97.284335 184.367752 
L 97.418771 184.324425 
L 97.553208 184.084735 
L 97.687644 184.328996 
L 97.954825 184.121305 
L 98.090107 183.475175 
L 98.223698 183.846635 
L 98.358979 183.704133 
L 98.493416 183.385738 
L 98.628697 182.775582 
L 98.763134 183.405414 
L 98.89757 182.013582 
L 99.301724 182.76803 
L 99.43616 182.505682 
L 99.571442 182.486404 
L 99.839469 181.951175 
L 99.973905 182.172183 
L 100.108342 181.731956 
L 100.243623 182.269967 
L 100.378059 182.288848 
L 100.512496 182.106199 
L 100.782214 182.622149 
L 100.91665 181.984764 
L 101.051086 181.910035 
L 101.185522 181.63775 
L 101.320804 181.74885 
L 101.45524 181.092187 
L 101.724958 181.508365 
L 102.262703 181.048661 
L 102.801294 179.236278 
L 102.933193 179.059591 
L 103.202911 178.079167 
L 103.337348 177.992314 
L 103.472629 178.151511 
L 104.279247 175.071514 
L 104.41622 175.329489 
L 104.685092 174.795453 
L 105.223683 172.694289 
L 105.493401 171.045476 
L 105.897555 168.769216 
L 106.298327 166.665866 
L 106.432763 166.708398 
L 106.568045 166.488781 
L 106.699945 165.503588 
L 106.834381 165.376985 
L 107.103253 163.709291 
L 107.377199 162.38384 
L 107.646917 161.788789 
L 107.781353 161.622039 
L 107.916635 161.048453 
L 108.052762 160.988828 
L 108.187198 160.185092 
L 108.32248 160.115132 
L 108.456916 160.208743 
L 108.591352 160.090686 
L 108.725789 160.242331 
L 108.994661 160.129641 
L 109.264379 160.894821 
L 109.399661 160.834004 
L 109.534097 161.379169 
L 109.669379 161.271051 
L 109.803815 161.883791 
L 109.938251 161.788392 
L 110.072688 162.504679 
L 110.207969 162.283473 
L 110.342406 162.366549 
L 110.747405 164.052926 
L 110.881842 164.219079 
L 111.017123 164.160051 
L 111.289378 164.446248 
L 111.423814 165.080056 
L 111.559096 165.054815 
L 111.693532 165.645891 
L 111.827968 165.244619 
L 111.96325 165.380563 
L 112.097686 166.021525 
L 112.23635 166.099434 
L 112.372477 166.383246 
L 112.642195 167.34936 
L 113.178249 168.845932 
L 113.312685 168.368341 
L 113.71684 169.727976 
L 114.120994 170.602268 
L 114.389866 171.414949 
L 114.525148 171.244224 
L 114.794866 172.694886 
L 115.063739 173.548707 
L 115.199866 173.235083 
L 115.334302 173.391497 
L 115.468738 173.843053 
L 115.605711 173.586072 
L 115.740993 173.939446 
L 116.010711 173.872666 
L 116.279583 174.197222 
L 116.549301 175.332868 
L 116.683737 174.796248 
L 116.819019 175.196129 
L 116.953455 175.048658 
L 117.223173 175.819005 
L 117.358455 175.732947 
L 117.492891 175.973432 
L 117.627328 175.682664 
L 117.762609 175.656231 
L 118.032327 174.889262 
L 118.166764 175.006722 
L 118.3012 174.806185 
L 118.436482 175.489282 
L 118.571763 174.603463 
L 118.7062 174.897808 
L 118.975072 174.851103 
L 119.109508 174.629499 
L 119.243944 174.898802 
L 119.383454 174.606245 
L 119.51789 174.954849 
L 119.786762 174.618567 
L 119.921199 175.316372 
L 120.053944 175.09755 
L 120.189226 175.157174 
L 120.323662 174.382852 
L 120.458098 175.048857 
L 120.727816 174.542248 
L 120.996689 174.722314 
L 121.265561 175.355525 
L 121.400843 175.287156 
L 121.666333 175.654243 
L 121.801615 175.784622 
L 122.071333 175.301465 
L 122.205769 175.1848 
L 122.475487 174.685943 
L 122.609923 174.581203 
L 122.745205 174.158466 
L 123.010696 174.602866 
L 123.145132 174.424391 
L 123.279568 174.5975 
L 123.41485 174.508064 
L 123.549286 175.026199 
L 123.818159 174.649373 
L 123.95344 174.690117 
L 124.087877 174.581203 
L 124.356749 174.899796 
L 124.492031 174.842358 
L 124.627312 174.595115 
L 124.761749 174.8515 
L 125.030621 174.675211 
L 125.165057 174.042596 
L 125.299494 174.428366 
L 125.43393 174.005827 
L 125.572594 173.967668 
L 125.707875 173.581302 
L 125.842312 173.930104 
L 126.112875 173.477754 
L 126.381748 173.52446 
L 126.516184 173.330283 
L 126.785902 172.767031 
L 126.921184 172.88469 
L 127.05562 172.003044 
L 127.190056 171.87823 
L 127.324492 172.101027 
L 127.593365 171.670737 
L 127.863083 171.376789 
L 127.998364 170.207356 
L 128.132801 170.929606 
L 128.267237 170.590145 
L 128.401673 170.559339 
L 128.670546 169.582294 
L 128.804982 169.901284 
L 128.939418 169.894129 
L 129.0747 169.275228 
L 129.209136 169.622838 
L 129.344418 169.284569 
L 129.478854 169.402427 
L 129.612445 169.012483 
L 129.747727 169.005924 
L 130.289699 168.389011 
L 130.424135 168.245713 
L 130.558572 168.60982 
L 130.693853 167.894526 
L 130.828289 167.929704 
L 131.098007 168.390004 
L 131.232444 167.906451 
L 131.503007 168.031066 
L 131.769343 167.19851 
L 132.313007 166.764047 
L 132.582725 166.703032 
L 132.717161 166.267575 
L 132.852443 166.576628 
L 132.986879 165.997277 
L 133.122161 166.060877 
L 133.256597 166.590341 
L 133.391879 166.312094 
L 133.526315 166.50965 
L 133.661597 166.269165 
L 133.796033 166.260022 
L 134.335469 164.398747 
L 134.469905 164.394971 
L 134.739623 162.938347 
L 134.874059 163.25376 
L 135.143777 162.152498 
L 135.279059 161.619456 
L 135.414341 161.55685 
L 135.818495 160.885877 
L 135.952931 160.684545 
L 136.088213 160.913702 
L 136.222649 160.138585 
L 136.357085 160.212519 
L 136.492367 159.398248 
L 136.76124 159.364461 
L 137.030112 158.476654 
L 137.164548 158.234778 
L 137.298985 158.257037 
L 137.568702 157.439786 
L 137.703984 157.345778 
L 137.977084 156.865404 
L 138.246802 156.116522 
L 138.381238 155.763148 
L 138.515675 156.319841 
L 138.785393 155.083827 
L 138.919829 154.978292 
L 139.055111 154.460156 
L 139.189547 154.702827 
L 139.592856 153.498017 
L 139.728137 153.571753 
L 140.266728 152.791865 
L 140.537291 152.97054 
L 140.671728 152.58 
L 140.807009 152.633662 
L 141.076727 151.910617 
L 141.212009 151.98952 
L 141.346445 152.375886 
L 141.480881 151.987532 
L 141.750599 152.928604 
L 141.885036 152.721906 
L 142.28919 153.668344 
L 142.423626 154.247694 
L 142.558062 153.977993 
L 142.692499 153.998663 
L 142.826935 153.741086 
L 143.23278 154.361577 
L 143.367216 154.154283 
L 143.502498 154.150507 
L 143.907498 154.839168 
L 144.041934 154.832212 
L 144.177216 155.269259 
L 144.446934 154.344882 
L 144.58137 154.605441 
L 144.715806 154.616968 
L 144.985524 153.906245 
L 145.11996 154.402718 
L 145.390524 154.355217 
L 145.52496 154.126657 
L 145.659396 154.798624 
L 145.794678 154.647377 
L 146.064396 155.06912 
L 146.198832 155.649663 
L 146.469396 155.758974 
L 146.738268 156.96915 
L 146.872705 157.081443 
L 147.007141 157.418917 
L 147.142423 157.292116 
L 147.277704 156.916681 
L 147.412141 157.098734 
L 147.547422 157.06614 
L 147.681859 157.436606 
L 147.81714 157.141067 
L 148.086858 157.806078 
L 148.221294 157.763745 
L 148.355731 158.387019 
L 148.491012 158.403515 
L 148.630522 158.744765 
L 148.764958 158.275918 
L 148.899394 158.47089 
L 149.03383 158.291818 
L 149.168267 159.082637 
L 149.303548 158.883292 
L 149.437985 159.016851 
L 149.573266 158.964381 
L 149.842984 159.786204 
L 150.111857 159.677489 
L 150.380729 160.605642 
L 150.650447 161.686235 
L 150.785729 161.628996 
L 151.054602 162.307521 
L 151.325165 163.210831 
L 151.729319 164.247302 
L 152.132628 164.635854 
L 152.26791 165.132923 
L 152.402346 165.055212 
L 152.672064 165.257339 
L 153.210654 165.878227 
L 153.346782 166.36993 
L 153.481218 166.203578 
L 153.750936 167.013476 
L 153.885372 166.47785 
L 154.155936 167.070517 
L 154.290372 167.039313 
L 154.829808 167.801313 
L 154.964244 167.227925 
L 155.369244 167.114241 
L 155.50368 166.875744 
L 155.638962 166.939343 
L 155.773398 166.849708 
L 155.90868 166.428561 
L 156.178398 166.850105 
L 156.312834 166.897606 
L 156.44727 166.506072 
L 156.716988 166.827845 
L 156.851424 166.544033 
L 157.121142 166.796443 
L 157.255579 166.735626 
L 157.39086 166.886476 
L 157.525297 166.423592 
L 157.659733 166.57782 
L 157.794169 166.133817 
L 157.931142 166.446448 
L 158.065578 166.388414 
L 158.20086 166.007016 
L 158.335296 166.379867 
L 158.469732 166.165816 
L 158.604168 166.194634 
L 158.73945 165.385332 
L 158.874732 166.128849 
L 159.14445 166.359794 
L 159.278886 166.104999 
L 159.414168 166.183107 
L 159.548604 166.017947 
L 159.68304 166.179728 
L 159.952758 165.513127 
L 160.087195 166.429952 
L 160.221631 166.392786 
L 160.626631 165.820591 
L 160.761067 165.884985 
L 161.300503 164.981278 
L 161.704657 165.330279 
L 161.839093 165.417331 
L 162.107966 164.810553 
L 162.243247 164.494942 
L 162.381911 164.480632 
L 162.651629 163.598986 
L 163.188529 163.829136 
L 163.592683 162.654336 
L 163.996837 162.136797 
L 164.132119 162.327595 
L 164.267401 162.150113 
L 164.537964 161.449129 
L 164.6724 161.418919 
L 165.346273 159.226331 
L 165.61599 158.423986 
L 165.751272 158.727076 
L 165.885708 158.24233 
L 166.02099 158.428159 
L 166.155426 158.119305 
L 166.425144 157.01685 
L 166.560426 156.974318 
L 166.96458 155.962293 
L 167.099017 155.713858 
L 167.233453 154.515805 
L 167.367889 154.397948 
L 167.503171 153.91022 
L 167.638453 154.117713 
L 167.773734 153.264488 
L 168.178734 152.850695 
L 168.31317 153.017842 
L 168.713097 152.166008 
L 168.846688 152.348856 
L 168.981124 152.178529 
L 169.117251 152.232986 
L 169.251687 152.726279 
L 169.386124 152.718527 
L 169.52056 152.460553 
L 169.654996 152.790474 
L 169.789432 151.772885 
L 170.059996 152.263395 
L 170.194432 152.183299 
L 170.328868 152.614383 
L 170.463305 152.522959 
L 170.598586 152.565889 
L 170.733023 152.809157 
L 171.002741 152.174157 
L 171.138022 152.26896 
L 171.272459 152.713161 
L 171.40774 152.751122 
L 171.542176 153.223149 
L 171.811894 153.108272 
L 172.083303 153.704715 
L 172.218585 153.92294 
L 172.353021 153.573144 
L 172.488303 153.999856 
L 172.621894 154.053319 
L 172.757176 154.319442 
L 173.027739 154.187275 
L 173.163021 153.500203 
L 173.297457 154.253657 
L 173.432739 154.246303 
L 173.701611 154.949275 
L 173.836048 155.049841 
L 174.105766 155.579703 
L 174.241047 155.390694 
L 174.376329 155.979187 
L 174.510765 155.824163 
L 174.646047 156.364162 
L 174.780483 156.438891 
L 175.185483 157.236069 
L 175.319919 157.026589 
L 175.588792 157.898496 
L 175.723228 158.123479 
L 175.857664 157.929103 
L 175.9921 158.289036 
L 176.127382 158.28844 
L 176.263509 158.524751 
L 176.397946 158.444854 
L 176.533227 158.870175 
L 176.802945 158.97889 
L 177.612099 160.544229 
L 177.746536 160.382647 
L 178.016254 159.739896 
L 178.15069 160.208146 
L 178.421253 160.141566 
L 178.55569 160.262007 
L 178.690126 160.647578 
L 178.825407 160.06942 
L 178.959844 160.609021 
L 179.09428 160.299372 
L 179.498434 160.762057 
L 179.633716 160.362574 
L 179.768152 160.692495 
L 179.903434 160.515212 
L 180.038716 160.862425 
L 180.173152 160.609816 
L 180.308434 160.109567 
L 180.579843 160.514019 
L 180.715124 159.762951 
L 181.120124 160.274131 
L 181.388997 159.725387 
L 181.65956 160.058092 
L 181.929278 159.598785 
L 182.202378 160.213711 
L 182.33766 159.549297 
L 182.472096 160.186284 
L 183.011532 159.823171 
L 183.146814 159.976804 
L 183.416532 159.992107 
L 183.68625 160.340512 
L 183.820686 160.103605 
L 184.090404 160.300167 
L 184.225686 160.161043 
L 184.360967 160.772193 
L 184.765122 159.636348 
L 184.900403 160.344686 
L 185.306249 159.226133 
L 185.575967 159.561023 
L 185.711248 159.395665 
L 185.981812 158.62492 
L 186.116248 158.604648 
L 186.25153 158.112548 
L 186.385966 158.09625 
L 186.790966 156.634658 
L 186.927093 156.544824 
L 187.197657 155.108074 
L 187.332938 155.259322 
L 187.46822 155.032153 
L 187.603502 154.274923 
L 187.737093 154.315666 
L 188.412656 153.309008 
L 188.682374 152.120495 
L 189.22181 150.837577 
L 189.356246 150.891835 
L 189.625964 150.187074 
L 189.7604 149.614481 
L 189.895682 149.865301 
L 190.030118 149.547702 
L 190.1654 149.675895 
L 190.435118 148.978885 
L 190.704836 149.709483 
L 190.839272 150.115525 
L 190.973708 149.908827 
L 191.10899 150.067428 
L 191.243426 149.914988 
L 191.377863 150.434913 
L 191.513144 150.218079 
L 191.782017 150.750326 
L 191.916453 150.83062 
L 192.050889 151.204267 
L 192.185325 151.073689 
L 192.455043 152.105589 
L 192.590325 152.092869 
L 192.859198 153.120793 
L 192.994479 153.262501 
L 193.128916 153.631576 
L 193.263352 153.415537 
L 193.400325 153.906444 
L 193.535606 153.518488 
L 193.670888 153.608322 
L 193.80617 154.320436 
L 193.941452 154.27532 
L 194.076733 154.510638 
L 194.210324 154.494142 
L 194.345606 154.782326 
L 194.480042 154.438294 
L 194.615324 154.995384 
L 194.74976 154.544226 
L 194.885042 155.008303 
L 195.019478 154.896805 
L 195.15476 155.113639 
L 195.558914 154.445647 
L 195.694196 154.607428 
L 195.963914 154.017544 
L 196.099195 154.795444 
L 196.233632 154.207349 
L 196.368913 154.372906 
L 196.638631 153.543332 
L 196.773068 153.799915 
L 197.042786 153.114433 
L 197.178067 153.385724 
L 197.447785 153.24203 
L 197.583067 153.743272 
L 197.852785 153.392879 
L 197.988067 153.639128 
L 198.121658 153.265482 
L 198.256094 153.307219 
L 198.524966 153.211025 
L 198.794684 153.712069 
L 198.92912 154.098435 
L 199.064402 153.800511 
L 199.199684 154.176145 
L 199.468556 154.192244 
L 199.602993 154.800015 
L 199.737429 154.630881 
L 200.142429 155.554661 
L 200.412147 155.426071 
L 200.547428 155.275221 
L 200.815455 155.768315 
L 200.949892 155.826548 
L 201.354891 156.251472 
L 201.624609 156.409874 
L 202.1632 157.41216 
L 202.298481 157.159949 
L 202.432918 157.624423 
L 202.569045 157.523061 
L 202.703481 157.852387 
L 202.972354 157.453698 
L 203.241226 157.72479 
L 203.51179 157.66298 
L 203.915944 158.448034 
L 204.456225 157.818599 
L 204.725943 158.465922 
L 204.86038 158.364361 
L 204.995661 157.818401 
L 205.400661 158.49951 
L 205.535097 158.145937 
L 205.670379 158.544228 
L 205.939251 158.256839 
L 206.074533 158.503684 
L 206.209815 158.116125 
L 206.344251 158.259621 
L 206.479533 158.135801 
L 206.616506 158.44545 
L 206.750942 158.087307 
L 207.02066 158.286055 
L 207.289532 157.391092 
L 207.55925 157.978591 
L 207.829814 156.977299 
L 207.965096 156.900582 
L 208.099532 156.446245 
L 208.233968 156.676593 
L 208.36925 156.321033 
L 208.503686 156.307717 
L 208.77425 155.639328 
L 208.910377 155.509148 
L 209.179249 155.466815 
L 209.718685 154.308511 
L 209.853121 154.795245 
L 209.987558 154.054909 
L 210.122839 154.366943 
L 210.258121 153.899488 
L 210.393403 154.147923 
L 210.933684 151.976999 
L 211.068121 152.00701 
L 211.742838 149.895909 
L 212.28312 148.334147 
L 212.417556 148.839563 
L 212.551992 148.602059 
L 212.758297 148.60663 
L 212.892733 148.885673 
L 213.027169 148.716737 
L 213.162451 148.72727 
L 213.432169 149.025989 
L 213.566605 149.407982 
L 213.701887 149.332259 
L 213.971605 149.497419 
L 214.106887 149.736711 
L 214.241323 149.663771 
L 214.511041 150.352234 
L 214.646323 150.28784 
L 214.780759 150.832807 
L 214.916041 150.833602 
L 215.185759 151.4054 
L 215.321041 151.455683 
L 215.590759 152.444653 
L 215.725195 152.523158 
L 215.859631 152.866197 
L 215.994067 152.542437 
L 216.129349 153.455286 
L 216.399912 153.377973 
L 216.670476 154.635253 
L 216.939348 153.829131 
L 217.209066 154.008402 
L 217.478784 154.974715 
L 217.882939 155.119403 
L 218.152657 155.730354 
L 218.287093 155.847616 
L 218.555965 156.611603 
L 218.96012 156.498515 
L 219.094556 156.701636 
L 219.229837 157.911017 
L 219.364274 157.92652 
L 219.49871 157.705909 
L 219.769273 158.531508 
L 219.90371 158.371516 
L 220.038991 159.176247 
L 220.175964 159.230704 
L 220.311246 159.414148 
L 220.7154 161.184595 
L 220.850682 161.818005 
L 220.985118 161.361481 
L 221.1204 161.951166 
L 221.254836 161.910423 
L 221.524554 163.088998 
L 221.659836 163.199701 
L 221.794272 163.146834 
L 222.199272 163.813435 
L 222.333708 163.781436 
L 222.468144 164.257835 
L 222.602581 163.774878 
L 222.737017 164.463341 
L 223.006735 163.988929 
L 223.141171 164.608029 
L 223.276453 164.438696 
L 223.410889 164.824863 
L 223.546171 164.400735 
L 223.680607 164.601669 
L 223.815043 165.517897 
L 223.949479 164.878525 
L 224.084761 164.849707 
L 224.219197 165.486694 
L 224.354479 165.059386 
L 224.626734 165.656027 
L 224.762015 165.546318 
L 225.031733 165.648872 
L 225.167015 166.055709 
L 225.301451 165.556256 
L 225.570324 166.033648 
L 225.840042 165.358501 
L 225.974478 165.659406 
L 226.108914 165.667356 
L 226.243351 165.829733 
L 226.377787 165.684846 
L 226.512223 166.03186 
L 226.646659 165.947392 
L 226.781941 165.64609 
L 226.916377 165.780245 
L 227.050813 165.712472 
L 227.186095 166.026493 
L 227.320531 165.502395 
L 227.455813 165.864514 
L 227.590249 165.901481 
L 227.724686 165.695976 
L 227.859122 165.996483 
L 227.993558 165.901083 
L 228.12884 166.01914 
L 228.262431 165.905058 
L 228.397712 166.183504 
L 228.532994 165.78581 
L 228.66743 165.757587 
L 228.801867 165.947193 
L 229.206866 165.513922 
L 229.341302 165.284965 
L 229.61102 165.798728 
L 229.745457 165.802902 
L 229.879893 166.096651 
L 230.014329 165.551088 
L 230.418483 165.866501 
L 230.555456 165.70313 
L 230.689892 165.773686 
L 230.825174 165.970248 
L 230.95961 165.90804 
L 231.094047 166.074789 
L 231.229328 165.417728 
L 231.36461 165.659803 
L 231.499046 165.397456 
L 231.904046 165.966273 
L 232.037637 165.799325 
L 232.172073 166.045375 
L 232.306509 165.905853 
L 232.440945 165.938051 
L 232.576227 165.748445 
L 232.980381 166.595509 
L 233.114818 166.204572 
L 233.38369 166.733241 
L 233.787844 166.77955 
L 233.923126 167.030568 
L 234.32728 166.863024 
L 234.462562 167.071113 
L 234.73228 167.008308 
L 235.13728 167.48431 
L 235.405307 167.02083 
L 235.541434 167.328889 
L 235.676716 166.869384 
L 235.811998 167.018643 
L 235.946434 166.871769 
L 236.081715 167.021227 
L 236.216152 166.545822 
L 236.351433 166.815324 
L 236.487561 166.78114 
L 236.757279 167.313784 
L 236.891715 166.972733 
L 237.026997 167.221764 
L 237.430305 166.453802 
L 237.564742 166.691107 
L 237.835305 165.734731 
L 237.969741 165.764146 
L 238.105023 165.244221 
L 238.239459 165.425678 
L 238.378123 165.379569 
L 238.646996 164.653542 
L 238.916714 164.816913 
L 239.321713 163.686037 
L 239.45615 163.058987 
L 239.72164 163.522666 
L 239.859458 163.031361 
L 239.99474 163.233289 
L 240.129176 163.014269 
L 240.398894 163.422696 
L 240.53333 163.254754 
L 240.667767 163.633965 
L 240.803048 163.51571 
L 240.937485 162.833011 
L 241.207203 163.40143 
L 241.342484 163.304441 
L 241.612202 163.686037 
L 241.746639 163.461055 
L 241.88192 164.026095 
L 242.016357 163.822378 
L 242.421356 164.463937 
L 242.555793 165.078267 
L 242.825511 164.848713 
L 242.959947 165.318752 
L 243.094383 165.244818 
L 243.229665 165.919965 
L 243.364101 165.271847 
L 243.769101 166.145146 
L 244.307691 165.672921 
L 244.442127 165.341409 
L 244.576564 165.591037 
L 244.715227 165.613296 
L 244.9841 166.367147 
L 245.119382 166.324814 
L 245.253818 166.752122 
L 245.523536 166.058492 
L 245.658818 167.028581 
L 245.792408 166.499514 
L 246.330999 167.454895 
L 246.466281 166.810355 
L 246.870435 167.93189 
L 247.004871 167.759178 
L 247.139307 168.048555 
L 247.273743 167.732745 
L 247.409025 167.827548 
L 247.678743 168.935568 
L 247.814025 168.615186 
L 247.948461 168.752521 
L 248.082897 169.366056 
L 248.217334 169.45907 
L 248.487052 170.036433 
L 248.622333 169.788594 
L 248.75677 170.438102 
L 249.027333 170.268173 
L 249.161769 170.839772 
L 249.296206 170.461157 
L 249.430642 170.730063 
L 249.565078 170.636254 
L 249.834796 170.955046 
L 250.104514 170.828443 
L 250.508668 171.671334 
L 250.64395 171.596604 
L 250.778386 171.864119 
L 250.912822 171.64331 
L 251.048104 172.198016 
L 251.18254 171.875249 
L 251.317822 172.253466 
L 251.451413 172.203978 
L 251.721976 172.723903 
L 251.990849 172.966375 
L 252.126131 173.258734 
L 252.260567 173.147435 
L 252.529439 174.030671 
L 252.664721 173.448936 
L 252.934439 173.832917 
L 253.068875 173.655633 
L 253.204157 174.152305 
L 253.338593 173.900491 
L 253.473875 174.452812 
L 253.608311 174.202389 
L 253.742747 174.33237 
L 253.877184 174.908541 
L 254.012465 174.70224 
L 254.146902 175.053825 
L 254.415774 174.596308 
L 254.819928 175.277417 
L 254.954365 175.077079 
L 255.088801 175.134517 
L 255.498028 175.658218 
L 255.63331 175.628605 
L 255.767746 175.335253 
L 255.902182 175.719234 
L 256.037464 175.43085 
L 256.1719 175.473979 
L 256.441618 175.171882 
L 256.844927 175.744872 
L 256.9819 175.699558 
L 257.251618 175.829738 
L 257.386899 175.450328 
L 257.521336 175.597401 
L 257.656617 176.00086 
L 257.791899 175.814831 
L 257.926335 176.076781 
L 258.196053 175.865512 
L 258.331335 175.974426 
L 258.466617 175.681869 
L 258.601053 176.266188 
L 258.871617 176.004835 
L 259.006053 176.55636 
L 259.140489 176.495742 
L 259.274925 176.598892 
L 259.410207 176.869388 
L 259.544643 176.637648 
L 259.679925 177.057006 
L 259.949643 176.890853 
L 260.084079 176.937758 
L 260.353797 176.556956 
L 260.488233 176.972538 
L 260.62267 176.45639 
L 260.757951 177.037529 
L 260.893233 176.864817 
L 261.162951 177.118221 
L 261.297387 176.928218 
L 261.431824 177.085626 
L 261.69816 176.74696 
L 261.832596 177.194937 
L 261.967878 176.791479 
L 262.102314 176.992811 
L 262.23675 177.457086 
L 262.776186 176.908343 
L 263.045058 177.306038 
L 263.179495 177.275232 
L 263.313931 177.674914 
L 263.448367 177.610917 
L 263.582803 177.166914 
L 263.852521 177.410778 
L 264.391957 177.288747 
L 264.527239 177.183211 
L 264.796957 177.803901 
L 264.931393 177.246413 
L 265.066675 177.501804 
L 265.201111 177.482128 
L 265.335548 177.944019 
L 265.470829 177.172479 
L 265.605266 177.336844 
L 265.740547 177.815826 
L 265.874984 177.356917 
L 266.010265 177.933485 
L 266.144702 177.048063 
L 266.549701 178.020537 
L 266.684137 178.083341 
L 266.819419 178.314882 
L 266.954701 178.243532 
L 267.089137 178.337341 
L 267.224419 178.250488 
L 267.358855 178.410281 
L 267.494137 178.364967 
L 267.759627 178.577826 
L 267.894064 178.2962 
L 268.032727 178.815926 
L 268.437727 179.092782 
L 268.573009 178.76763 
L 268.971244 178.655139 
L 269.106526 178.927225 
L 269.240962 178.27076 
L 269.375399 178.964788 
L 269.51068 178.325018 
L 269.780398 178.914505 
L 270.049271 178.708403 
L 270.723143 177.993507 
L 270.858425 178.041206 
L 271.261734 178.645798 
L 271.397015 178.303752 
L 271.802861 178.401338 
L 271.936451 178.827255 
L 272.205324 178.70264 
L 272.340605 178.792871 
L 272.475887 179.225744 
L 272.745605 179.104707 
L 272.880041 178.681572 
L 273.148914 178.797045 
L 273.28335 179.18997 
L 273.553068 179.114445 
L 273.691732 178.997582 
L 273.826168 179.547716 
L 274.095886 178.843552 
L 274.634477 179.568187 
L 274.768913 179.326311 
L 274.904195 179.625427 
L 275.038631 179.373414 
L 275.177295 179.351949 
L 275.447013 180.058896 
L 275.581449 179.980192 
L 275.716731 180.156282 
L 275.851167 180.113154 
L 276.12173 180.88211 
L 276.525039 180.174766 
L 276.794757 180.859055 
L 277.063629 181.283382 
L 277.333347 181.433039 
L 277.467784 181.727584 
L 277.60222 181.747459 
L 277.871092 181.98854 
L 278.14081 181.828548 
L 278.276092 182.076983 
L 278.409683 181.58846 
L 278.680246 182.618571 
L 278.814683 182.803208 
L 278.949964 182.302562 
L 279.084401 182.265793 
L 279.218837 182.598498 
L 279.354118 182.541258 
L 279.488555 182.648383 
L 279.758273 182.470504 
L 279.892709 182.687934 
L 280.162427 182.630098 
L 280.296863 182.737025 
L 280.432145 182.610621 
L 280.567427 183.185997 
L 280.836299 182.927227 
L 281.106017 182.7569 
L 281.241299 182.515818 
L 281.375735 182.544836 
L 281.510171 182.907749 
L 281.644608 182.849715 
L 281.779044 182.663687 
L 281.914326 182.838784 
L 282.048762 182.535097 
L 282.184044 183.142471 
L 282.453762 182.025507 
L 282.588198 182.397166 
L 282.857916 182.326809 
L 283.126788 182.479249 
L 283.26207 181.989534 
L 283.397352 182.51562 
L 283.531788 182.386831 
L 283.66707 182.584585 
L 284.206506 181.795357 
L 284.340942 181.248601 
L 284.476224 182.025905 
L 284.611505 182.052139 
L 284.880378 181.227534 
L 285.014814 181.662792 
L 285.555096 180.812946 
L 285.689532 181.214615 
L 286.097068 181.315977 
L 286.23235 181.461858 
L 286.501222 181.000365 
L 286.635658 181.187983 
L 287.175094 180.706218 
L 287.309531 181.643514 
L 287.448194 181.385936 
L 287.583476 181.682866 
L 287.718758 181.314586 
L 287.853194 181.921363 
L 288.525375 181.121999 
L 288.659812 181.451125 
L 288.795093 181.484714 
L 289.064811 181.16314 
L 289.198402 181.576138 
L 289.333684 181.610323 
L 289.603402 180.968764 
L 289.737838 181.109676 
L 289.87312 180.512439 
L 290.007556 180.699858 
L 290.142838 180.664282 
L 290.277274 179.974229 
L 290.41171 180.896619 
L 290.546992 180.49952 
L 290.815864 180.825666 
L 291.086428 180.225049 
L 291.220864 180.609825 
L 291.3553 180.604658 
L 291.7603 179.807082 
L 291.894736 180.179933 
L 292.030018 179.52327 
L 292.164454 179.427672 
L 292.300582 179.560635 
L 292.704736 179.28994 
L 292.839172 179.495843 
L 292.974454 179.087813 
L 293.10889 179.314386 
L 293.244172 179.31538 
L 293.782762 178.609427 
L 293.918044 178.630892 
L 294.453252 179.194938 
L 294.857407 178.15489 
L 294.991843 178.271555 
L 295.127125 178.858856 
L 295.262406 178.658518 
L 295.534661 178.803405 
L 295.800151 179.106297 
L 295.935433 178.608433 
L 296.205151 178.710391 
L 296.474869 178.287455 
L 296.609305 178.372718 
L 296.877332 178.30574 
L 297.012614 178.363576 
L 297.283177 177.995296 
L 297.418459 178.602073 
L 297.553741 178.285269 
L 297.689023 178.255258 
L 297.823459 178.600284 
L 297.958741 178.529928 
L 298.229304 178.663089 
L 298.364586 179.203683 
L 298.634304 178.836795 
L 298.769586 178.867998 
L 298.904022 179.19633 
L 299.038458 178.99619 
L 299.17374 179.190168 
L 299.310713 178.917089 
L 299.580431 180.090894 
L 299.714867 179.592434 
L 299.984585 179.776475 
L 300.119021 180.085131 
L 300.389584 180.025109 
L 300.524021 180.803406 
L 300.659302 180.124085 
L 300.928175 181.306238 
L 301.062611 180.488589 
L 301.333175 181.111465 
L 301.467611 181.391302 
L 301.602893 181.077678 
L 301.871765 181.903675 
L 302.006201 181.971646 
L 302.140638 182.257446 
L 302.275074 182.21233 
L 302.410356 182.608037 
L 302.545637 182.368347 
L 302.680919 182.653551 
L 302.81451 182.465734 
L 303.21951 183.194543 
L 303.353946 183.376 
L 303.624509 182.81553 
L 304.1631 183.44576 
L 304.432818 183.024216 
L 304.702536 183.432245 
L 304.836972 183.400247 
L 304.972254 183.700158 
L 305.376408 183.021831 
L 305.51169 183.417935 
L 305.647817 182.856274 
L 305.783099 182.873366 
L 305.91838 183.014278 
L 306.188098 182.96638 
L 306.32338 182.536687 
L 306.457816 182.614596 
L 306.726689 183.133925 
L 306.861125 182.835604 
L 306.996407 183.169103 
L 307.135071 183.144856 
L 307.269507 183.362882 
L 307.404789 183.008515 
L 307.539225 183.365466 
L 307.673661 182.934779 
L 307.808943 183.486504 
L 308.078661 182.707411 
L 308.211406 182.936369 
L 308.346688 182.137203 
L 308.481124 182.413066 
L 308.750842 181.957535 
L 309.02056 182.01875 
L 309.154996 181.774886 
L 309.290278 182.08056 
L 309.695278 181.133327 
L 309.829714 181.738913 
L 309.964996 180.945312 
L 310.099432 181.333665 
L 310.099432 181.333665 
" clip-path="url(#pfe62591d52)" style="fill: none; stroke: #1f77b4; stroke-width: 1.5; stroke-linecap: square"/>
   </g>
   <g id="patch_3">
    <path d="M 43.78125 198.8355 
L 43.78125 35.7555 
" style="fill: none; stroke: #000000; stroke-width: 0.8; stroke-linejoin: miter; stroke-linecap: square"/>
   </g>
   <g id="patch_4">
    <path d="M 322.78125 198.8355 
L 322.78125 35.7555 
" style="fill: none; stroke: #000000; stroke-width: 0.8; stroke-linejoin: miter; stroke-linecap: square"/>
   </g>
   <g id="patch_5">
    <path d="M 43.78125 198.8355 
L 322.78125 198.8355 
" style="fill: none; stroke: #000000; stroke-width: 0.8; stroke-linejoin: miter; stroke-linecap: square"/>
   </g>
   <g id="patch_6">
    <path d="M 43.78125 35.7555 
L 322.78125 35.7555 
" style="fill: none; stroke: #000000; stroke-width: 0.8; stroke-linejoin: miter; stroke-linecap: square"/>
   </g>
   <g id="text_16">
    <!-- After equalize -->
    <g transform="translate(141.814687 16.318125)scale(0.12 -0.12)">
     <defs>
      <path id="DejaVuSans-41" d="M 2188 4044 
L 1331 1722 
L 3047 1722 
L 2188 4044 
z
M 1831 4666 
L 2547 4666 
L 4325 0 
L 3669 0 
L 3244 1197 
L 1141 1197 
L 716 0 
L 50 0 
L 1831 4666 
z
" transform="scale(0.015625)"/>
      <path id="DejaVuSans-66" d="M 2375 4863 
L 2375 4384 
L 1825 4384 
Q 1516 4384 1395 4259 
Q 1275 4134 1275 3809 
L 1275 3500 
L 2222 3500 
L 2222 3053 
L 1275 3053 
L 1275 0 
L 697 0 
L 697 3053 
L 147 3053 
L 147 3500 
L 697 3500 
L 697 3744 
Q 697 4328 969 4595 
Q 1241 4863 1831 4863 
L 2375 4863 
z
" transform="scale(0.015625)"/>
      <path id="DejaVuSans-74" d="M 1172 4494 
L 1172 3500 
L 2356 3500 
L 2356 3053 
L 1172 3053 
L 1172 1153 
Q 1172 725 1289 603 
Q 1406 481 1766 481 
L 2356 481 
L 2356 0 
L 1766 0 
Q 1100 0 847 248 
Q 594 497 594 1153 
L 594 3053 
L 172 3053 
L 172 3500 
L 594 3500 
L 594 4494 
L 1172 4494 
z
" transform="scale(0.015625)"/>
      <path id="DejaVuSans-72" d="M 2631 2963 
Q 2534 3019 2420 3045 
Q 2306 3072 2169 3072 
Q 1681 3072 1420 2755 
Q 1159 2438 1159 1844 
L 1159 0 
L 581 0 
L 581 3500 
L 1159 3500 
L 1159 2956 
Q 1341 3275 1631 3429 
Q 1922 3584 2338 3584 
Q 2397 3584 2469 3576 
Q 2541 3569 2628 3553 
L 2631 2963 
z
" transform="scale(0.015625)"/>
      <path id="DejaVuSans-71" d="M 947 1747 
Q 947 1113 1208 752 
Q 1469 391 1925 391 
Q 2381 391 2643 752 
Q 2906 1113 2906 1747 
Q 2906 2381 2643 2742 
Q 2381 3103 1925 3103 
Q 1469 3103 1208 2742 
Q 947 2381 947 1747 
z
M 2906 525 
Q 2725 213 2448 61 
Q 2172 -91 1784 -91 
Q 1150 -91 751 415 
Q 353 922 353 1747 
Q 353 2572 751 3078 
Q 1150 3584 1784 3584 
Q 2172 3584 2448 3432 
Q 2725 3281 2906 2969 
L 2906 3500 
L 3481 3500 
L 3481 -1331 
L 2906 -1331 
L 2906 525 
z
" transform="scale(0.015625)"/>
      <path id="DejaVuSans-75" d="M 544 1381 
L 544 3500 
L 1119 3500 
L 1119 1403 
Q 1119 906 1312 657 
Q 1506 409 1894 409 
Q 2359 409 2629 706 
Q 2900 1003 2900 1516 
L 2900 3500 
L 3475 3500 
L 3475 0 
L 2900 0 
L 2900 538 
Q 2691 219 2414 64 
Q 2138 -91 1772 -91 
Q 1169 -91 856 284 
Q 544 659 544 1381 
z
M 1991 3584 
L 1991 3584 
z
" transform="scale(0.015625)"/>
      <path id="DejaVuSans-61" d="M 2194 1759 
Q 1497 1759 1228 1600 
Q 959 1441 959 1056 
Q 959 750 1161 570 
Q 1363 391 1709 391 
Q 2188 391 2477 730 
Q 2766 1069 2766 1631 
L 2766 1759 
L 2194 1759 
z
M 3341 1997 
L 3341 0 
L 2766 0 
L 2766 531 
Q 2569 213 2275 61 
Q 1981 -91 1556 -91 
Q 1019 -91 701 211 
Q 384 513 384 1019 
Q 384 1609 779 1909 
Q 1175 2209 1959 2209 
L 2766 2209 
L 2766 2266 
Q 2766 2663 2505 2880 
Q 2244 3097 1772 3097 
Q 1472 3097 1187 3025 
Q 903 2953 641 2809 
L 641 3341 
Q 956 3463 1253 3523 
Q 1550 3584 1831 3584 
Q 2591 3584 2966 3190 
Q 3341 2797 3341 1997 
z
" transform="scale(0.015625)"/>
      <path id="DejaVuSans-6c" d="M 603 4863 
L 1178 4863 
L 1178 0 
L 603 0 
L 603 4863 
z
" transform="scale(0.015625)"/>
      <path id="DejaVuSans-7a" d="M 353 3500 
L 3084 3500 
L 3084 2975 
L 922 459 
L 3084 459 
L 3084 0 
L 275 0 
L 275 525 
L 2438 3041 
L 353 3041 
L 353 3500 
z
" transform="scale(0.015625)"/>
     </defs>
     <use xlink:href="#DejaVuSans-41"/>
     <use xlink:href="#DejaVuSans-66" x="64.783203"/>
     <use xlink:href="#DejaVuSans-74" x="98.238281"/>
     <use xlink:href="#DejaVuSans-65" x="137.447266"/>
     <use xlink:href="#DejaVuSans-72" x="198.970703"/>
     <use xlink:href="#DejaVuSans-20" x="240.083984"/>
     <use xlink:href="#DejaVuSans-65" x="271.871094"/>
     <use xlink:href="#DejaVuSans-71" x="333.394531"/>
     <use xlink:href="#DejaVuSans-75" x="396.871094"/>
     <use xlink:href="#DejaVuSans-61" x="460.25"/>
     <use xlink:href="#DejaVuSans-6c" x="521.529297"/>
     <use xlink:href="#DejaVuSans-69" x="549.3125"/>
     <use xlink:href="#DejaVuSans-7a" x="577.095703"/>
     <use xlink:href="#DejaVuSans-65" x="629.585938"/>
    </g>
    <!-- NTR_C3_005_crop - Intensity Equalized, ROI=4 -->
    <g transform="translate(43.003125 29.7555)scale(0.12 -0.12)">
     <defs>
      <path id="DejaVuSans-4e" d="M 628 4666 
L 1478 4666 
L 3547 763 
L 3547 4666 
L 4159 4666 
L 4159 0 
L 3309 0 
L 1241 3903 
L 1241 0 
L 628 0 
L 628 4666 
z
" transform="scale(0.015625)"/>
      <path id="DejaVuSans-52" d="M 2841 2188 
Q 3044 2119 3236 1894 
Q 3428 1669 3622 1275 
L 4263 0 
L 3584 0 
L 2988 1197 
Q 2756 1666 2539 1819 
Q 2322 1972 1947 1972 
L 1259 1972 
L 1259 0 
L 628 0 
L 628 4666 
L 2053 4666 
Q 2853 4666 3247 4331 
Q 3641 3997 3641 3322 
Q 3641 2881 3436 2590 
Q 3231 2300 2841 2188 
z
M 1259 4147 
L 1259 2491 
L 2053 2491 
Q 2509 2491 2742 2702 
Q 2975 2913 2975 3322 
Q 2975 3731 2742 3939 
Q 2509 4147 2053 4147 
L 1259 4147 
z
" transform="scale(0.015625)"/>
      <path id="DejaVuSans-5f" d="M 3263 -1063 
L 3263 -1509 
L -63 -1509 
L -63 -1063 
L 3263 -1063 
z
" transform="scale(0.015625)"/>
      <path id="DejaVuSans-43" d="M 4122 4306 
L 4122 3641 
Q 3803 3938 3442 4084 
Q 3081 4231 2675 4231 
Q 1875 4231 1450 3742 
Q 1025 3253 1025 2328 
Q 1025 1406 1450 917 
Q 1875 428 2675 428 
Q 3081 428 3442 575 
Q 3803 722 4122 1019 
L 4122 359 
Q 3791 134 3420 21 
Q 3050 -91 2638 -91 
Q 1578 -91 968 557 
Q 359 1206 359 2328 
Q 359 3453 968 4101 
Q 1578 4750 2638 4750 
Q 3056 4750 3426 4639 
Q 3797 4528 4122 4306 
z
" transform="scale(0.015625)"/>
      <path id="DejaVuSans-63" d="M 3122 3366 
L 3122 2828 
Q 2878 2963 2633 3030 
Q 2388 3097 2138 3097 
Q 1578 3097 1268 2742 
Q 959 2388 959 1747 
Q 959 1106 1268 751 
Q 1578 397 2138 397 
Q 2388 397 2633 464 
Q 2878 531 3122 666 
L 3122 134 
Q 2881 22 2623 -34 
Q 2366 -91 2075 -91 
Q 1284 -91 818 406 
Q 353 903 353 1747 
Q 353 2603 823 3093 
Q 1294 3584 2113 3584 
Q 2378 3584 2631 3529 
Q 2884 3475 3122 3366 
z
" transform="scale(0.015625)"/>
      <path id="DejaVuSans-6f" d="M 1959 3097 
Q 1497 3097 1228 2736 
Q 959 2375 959 1747 
Q 959 1119 1226 758 
Q 1494 397 1959 397 
Q 2419 397 2687 759 
Q 2956 1122 2956 1747 
Q 2956 2369 2687 2733 
Q 2419 3097 1959 3097 
z
M 1959 3584 
Q 2709 3584 3137 3096 
Q 3566 2609 3566 1747 
Q 3566 888 3137 398 
Q 2709 -91 1959 -91 
Q 1206 -91 779 398 
Q 353 888 353 1747 
Q 353 2609 779 3096 
Q 1206 3584 1959 3584 
z
" transform="scale(0.015625)"/>
      <path id="DejaVuSans-70" d="M 1159 525 
L 1159 -1331 
L 581 -1331 
L 581 3500 
L 1159 3500 
L 1159 2969 
Q 1341 3281 1617 3432 
Q 1894 3584 2278 3584 
Q 2916 3584 3314 3078 
Q 3713 2572 3713 1747 
Q 3713 922 3314 415 
Q 2916 -91 2278 -91 
Q 1894 -91 1617 61 
Q 1341 213 1159 525 
z
M 3116 1747 
Q 3116 2381 2855 2742 
Q 2594 3103 2138 3103 
Q 1681 3103 1420 2742 
Q 1159 2381 1159 1747 
Q 1159 1113 1420 752 
Q 1681 391 2138 391 
Q 2594 391 2855 752 
Q 3116 1113 3116 1747 
z
" transform="scale(0.015625)"/>
      <path id="DejaVuSans-49" d="M 628 4666 
L 1259 4666 
L 1259 0 
L 628 0 
L 628 4666 
z
" transform="scale(0.015625)"/>
      <path id="DejaVuSans-6e" d="M 3513 2113 
L 3513 0 
L 2938 0 
L 2938 2094 
Q 2938 2591 2744 2837 
Q 2550 3084 2163 3084 
Q 1697 3084 1428 2787 
Q 1159 2491 1159 1978 
L 1159 0 
L 581 0 
L 581 3500 
L 1159 3500 
L 1159 2956 
Q 1366 3272 1645 3428 
Q 1925 3584 2291 3584 
Q 2894 3584 3203 3211 
Q 3513 2838 3513 2113 
z
" transform="scale(0.015625)"/>
      <path id="DejaVuSans-79" d="M 2059 -325 
Q 1816 -950 1584 -1140 
Q 1353 -1331 966 -1331 
L 506 -1331 
L 506 -850 
L 844 -850 
Q 1081 -850 1212 -737 
Q 1344 -625 1503 -206 
L 1606 56 
L 191 3500 
L 800 3500 
L 1894 763 
L 2988 3500 
L 3597 3500 
L 2059 -325 
z
" transform="scale(0.015625)"/>
      <path id="DejaVuSans-45" d="M 628 4666 
L 3578 4666 
L 3578 4134 
L 1259 4134 
L 1259 2753 
L 3481 2753 
L 3481 2222 
L 1259 2222 
L 1259 531 
L 3634 531 
L 3634 0 
L 628 0 
L 628 4666 
z
" transform="scale(0.015625)"/>
      <path id="DejaVuSans-64" d="M 2906 2969 
L 2906 4863 
L 3481 4863 
L 3481 0 
L 2906 0 
L 2906 525 
Q 2725 213 2448 61 
Q 2172 -91 1784 -91 
Q 1150 -91 751 415 
Q 353 922 353 1747 
Q 353 2572 751 3078 
Q 1150 3584 1784 3584 
Q 2172 3584 2448 3432 
Q 2725 3281 2906 2969 
z
M 947 1747 
Q 947 1113 1208 752 
Q 1469 391 1925 391 
Q 2381 391 2643 752 
Q 2906 1113 2906 1747 
Q 2906 2381 2643 2742 
Q 2381 3103 1925 3103 
Q 1469 3103 1208 2742 
Q 947 2381 947 1747 
z
" transform="scale(0.015625)"/>
      <path id="DejaVuSans-2c" d="M 750 794 
L 1409 794 
L 1409 256 
L 897 -744 
L 494 -744 
L 750 256 
L 750 794 
z
" transform="scale(0.015625)"/>
      <path id="DejaVuSans-4f" d="M 2522 4238 
Q 1834 4238 1429 3725 
Q 1025 3213 1025 2328 
Q 1025 1447 1429 934 
Q 1834 422 2522 422 
Q 3209 422 3611 934 
Q 4013 1447 4013 2328 
Q 4013 3213 3611 3725 
Q 3209 4238 2522 4238 
z
M 2522 4750 
Q 3503 4750 4090 4092 
Q 4678 3434 4678 2328 
Q 4678 1225 4090 567 
Q 3503 -91 2522 -91 
Q 1538 -91 948 565 
Q 359 1222 359 2328 
Q 359 3434 948 4092 
Q 1538 4750 2522 4750 
z
" transform="scale(0.015625)"/>
      <path id="DejaVuSans-3d" d="M 678 2906 
L 4684 2906 
L 4684 2381 
L 678 2381 
L 678 2906 
z
M 678 1631 
L 4684 1631 
L 4684 1100 
L 678 1100 
L 678 1631 
z
" transform="scale(0.015625)"/>
     </defs>
     <use xlink:href="#DejaVuSans-4e"/>
     <use xlink:href="#DejaVuSans-54" x="74.804688"/>
     <use xlink:href="#DejaVuSans-52" x="135.888672"/>
     <use xlink:href="#DejaVuSans-5f" x="205.371094"/>
     <use xlink:href="#DejaVuSans-43" x="255.371094"/>
     <use xlink:href="#DejaVuSans-33" x="325.195312"/>
     <use xlink:href="#DejaVuSans-5f" x="388.818359"/>
     <use xlink:href="#DejaVuSans-30" x="438.818359"/>
     <use xlink:href="#DejaVuSans-30" x="502.441406"/>
     <use xlink:href="#DejaVuSans-35" x="566.064453"/>
     <use xlink:href="#DejaVuSans-5f" x="629.6875"/>
     <use xlink:href="#DejaVuSans-63" x="679.6875"/>
     <use xlink:href="#DejaVuSans-72" x="734.667969"/>
     <use xlink:href="#DejaVuSans-6f" x="773.53125"/>
     <use xlink:href="#DejaVuSans-70" x="834.712891"/>
     <use xlink:href="#DejaVuSans-20" x="898.189453"/>
     <use xlink:href="#DejaVuSans-2d" x="929.976562"/>
     <use xlink:href="#DejaVuSans-20" x="966.060547"/>
     <use xlink:href="#DejaVuSans-49" x="997.847656"/>
     <use xlink:href="#DejaVuSans-6e" x="1027.339844"/>
     <use xlink:href="#DejaVuSans-74" x="1090.71875"/>
     <use xlink:href="#DejaVuSans-65" x="1129.927734"/>
     <use xlink:href="#DejaVuSans-6e" x="1191.451172"/>
     <use xlink:href="#DejaVuSans-73" x="1254.830078"/>
     <use xlink:href="#DejaVuSans-69" x="1306.929688"/>
     <use xlink:href="#DejaVuSans-74" x="1334.712891"/>
     <use xlink:href="#DejaVuSans-79" x="1373.921875"/>
     <use xlink:href="#DejaVuSans-20" x="1433.101562"/>
     <use xlink:href="#DejaVuSans-45" x="1464.888672"/>
     <use xlink:href="#DejaVuSans-71" x="1528.072266"/>
     <use xlink:href="#DejaVuSans-75" x="1591.548828"/>
     <use xlink:href="#DejaVuSans-61" x="1654.927734"/>
     <use xlink:href="#DejaVuSans-6c" x="1716.207031"/>
     <use xlink:href="#DejaVuSans-69" x="1743.990234"/>
     <use xlink:href="#DejaVuSans-7a" x="1771.773438"/>
     <use xlink:href="#DejaVuSans-65" x="1824.263672"/>
     <use xlink:href="#DejaVuSans-64" x="1885.787109"/>
     <use xlink:href="#DejaVuSans-2c" x="1949.263672"/>
     <use xlink:href="#DejaVuSans-20" x="1981.050781"/>
     <use xlink:href="#DejaVuSans-52" x="2012.837891"/>
     <use xlink:href="#DejaVuSans-4f" x="2082.320312"/>
     <use xlink:href="#DejaVuSans-49" x="2161.03125"/>
     <use xlink:href="#DejaVuSans-3d" x="2190.523438"/>
     <use xlink:href="#DejaVuSans-34" x="2274.3125"/>
    </g>
   </g>
  </g>
 </g>
 <defs>
  <clipPath id="pfe62591d52">
   <rect x="43.78125" y="35.7555" width="279" height="163.08"/>
  </clipPath>
 </defs>
</svg>
