<?xml version="1.0" encoding="utf-8" standalone="no"?>
<!DOCTYPE svg PUBLIC "-//W3C//DTD SVG 1.1//EN"
  "http://www.w3.org/Graphics/SVG/1.1/DTD/svg11.dtd">
<svg xmlns:xlink="http://www.w3.org/1999/xlink" width="330.759375pt" height="236.39175pt" viewBox="0 0 330.759375 236.39175" xmlns="http://www.w3.org/2000/svg" version="1.1">
 <metadata>
  <rdf:RDF xmlns:dc="http://purl.org/dc/elements/1.1/" xmlns:cc="http://creativecommons.org/ns#" xmlns:rdf="http://www.w3.org/1999/02/22-rdf-syntax-ns#">
   <cc:Work>
    <dc:type rdf:resource="http://purl.org/dc/dcmitype/StillImage"/>
    <dc:date>2025-01-27T16:06:41.476239</dc:date>
    <dc:format>image/svg+xml</dc:format>
    <dc:creator>
     <cc:Agent>
      <dc:title>Matplotlib v3.5.2, https://matplotlib.org/</dc:title>
     </cc:Agent>
    </dc:creator>
   </cc:Work>
  </rdf:RDF>
 </metadata>
 <defs>
  <style type="text/css">*{stroke-linejoin: round; stroke-linecap: butt}</style>
 </defs>
 <g id="figure_1">
  <g id="patch_1">
   <path d="M 0 236.39175 
L 330.759375 236.39175 
L 330.759375 0 
L 0 0 
L 0 236.39175 
z
" style="fill: none"/>
  </g>
  <g id="axes_1">
   <g id="patch_2">
    <path d="M 43.78125 198.8355 
L 322.78125 198.8355 
L 322.78125 35.7555 
L 43.78125 35.7555 
z
" style="fill: #ffffff"/>
   </g>
   <g id="matplotlib.axis_1">
    <g id="xtick_1">
     <g id="line2d_1">
      <defs>
       <path id="m29003a74d4" d="M 0 0 
L 0 3.5 
" style="stroke: #000000; stroke-width: 0.8"/>
      </defs>
      <g>
       <use xlink:href="#m29003a74d4" x="56.427557" y="198.8355" style="stroke: #000000; stroke-width: 0.8"/>
      </g>
     </g>
     <g id="text_1">
      <!-- 0 -->
      <g transform="translate(53.246307 213.433938)scale(0.1 -0.1)">
       <defs>
        <path id="DejaVuSans-30" d="M 2034 4250 
Q 1547 4250 1301 3770 
Q 1056 3291 1056 2328 
Q 1056 1369 1301 889 
Q 1547 409 2034 409 
Q 2525 409 2770 889 
Q 3016 1369 3016 2328 
Q 3016 3291 2770 3770 
Q 2525 4250 2034 4250 
z
M 2034 4750 
Q 2819 4750 3233 4129 
Q 3647 3509 3647 2328 
Q 3647 1150 3233 529 
Q 2819 -91 2034 -91 
Q 1250 -91 836 529 
Q 422 1150 422 2328 
Q 422 3509 836 4129 
Q 1250 4750 2034 4750 
z
" transform="scale(0.015625)"/>
       </defs>
       <use xlink:href="#DejaVuSans-30"/>
      </g>
     </g>
    </g>
    <g id="xtick_2">
     <g id="line2d_2">
      <g>
       <use xlink:href="#m29003a74d4" x="98.703102" y="198.8355" style="stroke: #000000; stroke-width: 0.8"/>
      </g>
     </g>
     <g id="text_2">
      <!-- 50 -->
      <g transform="translate(92.340602 213.433938)scale(0.1 -0.1)">
       <defs>
        <path id="DejaVuSans-35" d="M 691 4666 
L 3169 4666 
L 3169 4134 
L 1269 4134 
L 1269 2991 
Q 1406 3038 1543 3061 
Q 1681 3084 1819 3084 
Q 2600 3084 3056 2656 
Q 3513 2228 3513 1497 
Q 3513 744 3044 326 
Q 2575 -91 1722 -91 
Q 1428 -91 1123 -41 
Q 819 9 494 109 
L 494 744 
Q 775 591 1075 516 
Q 1375 441 1709 441 
Q 2250 441 2565 725 
Q 2881 1009 2881 1497 
Q 2881 1984 2565 2268 
Q 2250 2553 1709 2553 
Q 1456 2553 1204 2497 
Q 953 2441 691 2322 
L 691 4666 
z
" transform="scale(0.015625)"/>
       </defs>
       <use xlink:href="#DejaVuSans-35"/>
       <use xlink:href="#DejaVuSans-30" x="63.623047"/>
      </g>
     </g>
    </g>
    <g id="xtick_3">
     <g id="line2d_3">
      <g>
       <use xlink:href="#m29003a74d4" x="140.978648" y="198.8355" style="stroke: #000000; stroke-width: 0.8"/>
      </g>
     </g>
     <g id="text_3">
      <!-- 100 -->
      <g transform="translate(131.434898 213.433938)scale(0.1 -0.1)">
       <defs>
        <path id="DejaVuSans-31" d="M 794 531 
L 1825 531 
L 1825 4091 
L 703 3866 
L 703 4441 
L 1819 4666 
L 2450 4666 
L 2450 531 
L 3481 531 
L 3481 0 
L 794 0 
L 794 531 
z
" transform="scale(0.015625)"/>
       </defs>
       <use xlink:href="#DejaVuSans-31"/>
       <use xlink:href="#DejaVuSans-30" x="63.623047"/>
       <use xlink:href="#DejaVuSans-30" x="127.246094"/>
      </g>
     </g>
    </g>
    <g id="xtick_4">
     <g id="line2d_4">
      <g>
       <use xlink:href="#m29003a74d4" x="183.254194" y="198.8355" style="stroke: #000000; stroke-width: 0.8"/>
      </g>
     </g>
     <g id="text_4">
      <!-- 150 -->
      <g transform="translate(173.710444 213.433938)scale(0.1 -0.1)">
       <use xlink:href="#DejaVuSans-31"/>
       <use xlink:href="#DejaVuSans-35" x="63.623047"/>
       <use xlink:href="#DejaVuSans-30" x="127.246094"/>
      </g>
     </g>
    </g>
    <g id="xtick_5">
     <g id="line2d_5">
      <g>
       <use xlink:href="#m29003a74d4" x="225.529739" y="198.8355" style="stroke: #000000; stroke-width: 0.8"/>
      </g>
     </g>
     <g id="text_5">
      <!-- 200 -->
      <g transform="translate(215.985989 213.433938)scale(0.1 -0.1)">
       <defs>
        <path id="DejaVuSans-32" d="M 1228 531 
L 3431 531 
L 3431 0 
L 469 0 
L 469 531 
Q 828 903 1448 1529 
Q 2069 2156 2228 2338 
Q 2531 2678 2651 2914 
Q 2772 3150 2772 3378 
Q 2772 3750 2511 3984 
Q 2250 4219 1831 4219 
Q 1534 4219 1204 4116 
Q 875 4013 500 3803 
L 500 4441 
Q 881 4594 1212 4672 
Q 1544 4750 1819 4750 
Q 2544 4750 2975 4387 
Q 3406 4025 3406 3419 
Q 3406 3131 3298 2873 
Q 3191 2616 2906 2266 
Q 2828 2175 2409 1742 
Q 1991 1309 1228 531 
z
" transform="scale(0.015625)"/>
       </defs>
       <use xlink:href="#DejaVuSans-32"/>
       <use xlink:href="#DejaVuSans-30" x="63.623047"/>
       <use xlink:href="#DejaVuSans-30" x="127.246094"/>
      </g>
     </g>
    </g>
    <g id="xtick_6">
     <g id="line2d_6">
      <g>
       <use xlink:href="#m29003a74d4" x="267.805285" y="198.8355" style="stroke: #000000; stroke-width: 0.8"/>
      </g>
     </g>
     <g id="text_6">
      <!-- 250 -->
      <g transform="translate(258.261535 213.433938)scale(0.1 -0.1)">
       <use xlink:href="#DejaVuSans-32"/>
       <use xlink:href="#DejaVuSans-35" x="63.623047"/>
       <use xlink:href="#DejaVuSans-30" x="127.246094"/>
      </g>
     </g>
    </g>
    <g id="xtick_7">
     <g id="line2d_7">
      <g>
       <use xlink:href="#m29003a74d4" x="310.080831" y="198.8355" style="stroke: #000000; stroke-width: 0.8"/>
      </g>
     </g>
     <g id="text_7">
      <!-- 300 -->
      <g transform="translate(300.537081 213.433938)scale(0.1 -0.1)">
       <defs>
        <path id="DejaVuSans-33" d="M 2597 2516 
Q 3050 2419 3304 2112 
Q 3559 1806 3559 1356 
Q 3559 666 3084 287 
Q 2609 -91 1734 -91 
Q 1441 -91 1130 -33 
Q 819 25 488 141 
L 488 750 
Q 750 597 1062 519 
Q 1375 441 1716 441 
Q 2309 441 2620 675 
Q 2931 909 2931 1356 
Q 2931 1769 2642 2001 
Q 2353 2234 1838 2234 
L 1294 2234 
L 1294 2753 
L 1863 2753 
Q 2328 2753 2575 2939 
Q 2822 3125 2822 3475 
Q 2822 3834 2567 4026 
Q 2313 4219 1838 4219 
Q 1578 4219 1281 4162 
Q 984 4106 628 3988 
L 628 4550 
Q 988 4650 1302 4700 
Q 1616 4750 1894 4750 
Q 2613 4750 3031 4423 
Q 3450 4097 3450 3541 
Q 3450 3153 3228 2886 
Q 3006 2619 2597 2516 
z
" transform="scale(0.015625)"/>
       </defs>
       <use xlink:href="#DejaVuSans-33"/>
       <use xlink:href="#DejaVuSans-30" x="63.623047"/>
       <use xlink:href="#DejaVuSans-30" x="127.246094"/>
      </g>
     </g>
    </g>
    <g id="text_8">
     <!-- Time [s] -->
     <g transform="translate(162.952344 227.112063)scale(0.1 -0.1)">
      <defs>
       <path id="DejaVuSans-54" d="M -19 4666 
L 3928 4666 
L 3928 4134 
L 2272 4134 
L 2272 0 
L 1638 0 
L 1638 4134 
L -19 4134 
L -19 4666 
z
" transform="scale(0.015625)"/>
       <path id="DejaVuSans-69" d="M 603 3500 
L 1178 3500 
L 1178 0 
L 603 0 
L 603 3500 
z
M 603 4863 
L 1178 4863 
L 1178 4134 
L 603 4134 
L 603 4863 
z
" transform="scale(0.015625)"/>
       <path id="DejaVuSans-6d" d="M 3328 2828 
Q 3544 3216 3844 3400 
Q 4144 3584 4550 3584 
Q 5097 3584 5394 3201 
Q 5691 2819 5691 2113 
L 5691 0 
L 5113 0 
L 5113 2094 
Q 5113 2597 4934 2840 
Q 4756 3084 4391 3084 
Q 3944 3084 3684 2787 
Q 3425 2491 3425 1978 
L 3425 0 
L 2847 0 
L 2847 2094 
Q 2847 2600 2669 2842 
Q 2491 3084 2119 3084 
Q 1678 3084 1418 2786 
Q 1159 2488 1159 1978 
L 1159 0 
L 581 0 
L 581 3500 
L 1159 3500 
L 1159 2956 
Q 1356 3278 1631 3431 
Q 1906 3584 2284 3584 
Q 2666 3584 2933 3390 
Q 3200 3197 3328 2828 
z
" transform="scale(0.015625)"/>
       <path id="DejaVuSans-65" d="M 3597 1894 
L 3597 1613 
L 953 1613 
Q 991 1019 1311 708 
Q 1631 397 2203 397 
Q 2534 397 2845 478 
Q 3156 559 3463 722 
L 3463 178 
Q 3153 47 2828 -22 
Q 2503 -91 2169 -91 
Q 1331 -91 842 396 
Q 353 884 353 1716 
Q 353 2575 817 3079 
Q 1281 3584 2069 3584 
Q 2775 3584 3186 3129 
Q 3597 2675 3597 1894 
z
M 3022 2063 
Q 3016 2534 2758 2815 
Q 2500 3097 2075 3097 
Q 1594 3097 1305 2825 
Q 1016 2553 972 2059 
L 3022 2063 
z
" transform="scale(0.015625)"/>
       <path id="DejaVuSans-20" transform="scale(0.015625)"/>
       <path id="DejaVuSans-5b" d="M 550 4863 
L 1875 4863 
L 1875 4416 
L 1125 4416 
L 1125 -397 
L 1875 -397 
L 1875 -844 
L 550 -844 
L 550 4863 
z
" transform="scale(0.015625)"/>
       <path id="DejaVuSans-73" d="M 2834 3397 
L 2834 2853 
Q 2591 2978 2328 3040 
Q 2066 3103 1784 3103 
Q 1356 3103 1142 2972 
Q 928 2841 928 2578 
Q 928 2378 1081 2264 
Q 1234 2150 1697 2047 
L 1894 2003 
Q 2506 1872 2764 1633 
Q 3022 1394 3022 966 
Q 3022 478 2636 193 
Q 2250 -91 1575 -91 
Q 1294 -91 989 -36 
Q 684 19 347 128 
L 347 722 
Q 666 556 975 473 
Q 1284 391 1588 391 
Q 1994 391 2212 530 
Q 2431 669 2431 922 
Q 2431 1156 2273 1281 
Q 2116 1406 1581 1522 
L 1381 1569 
Q 847 1681 609 1914 
Q 372 2147 372 2553 
Q 372 3047 722 3315 
Q 1072 3584 1716 3584 
Q 2034 3584 2315 3537 
Q 2597 3491 2834 3397 
z
" transform="scale(0.015625)"/>
       <path id="DejaVuSans-5d" d="M 1947 4863 
L 1947 -844 
L 622 -844 
L 622 -397 
L 1369 -397 
L 1369 4416 
L 622 4416 
L 622 4863 
L 1947 4863 
z
" transform="scale(0.015625)"/>
      </defs>
      <use xlink:href="#DejaVuSans-54"/>
      <use xlink:href="#DejaVuSans-69" x="57.958984"/>
      <use xlink:href="#DejaVuSans-6d" x="85.742188"/>
      <use xlink:href="#DejaVuSans-65" x="183.154297"/>
      <use xlink:href="#DejaVuSans-20" x="244.677734"/>
      <use xlink:href="#DejaVuSans-5b" x="276.464844"/>
      <use xlink:href="#DejaVuSans-73" x="315.478516"/>
      <use xlink:href="#DejaVuSans-5d" x="367.578125"/>
     </g>
    </g>
   </g>
   <g id="matplotlib.axis_2">
    <g id="ytick_1">
     <g id="line2d_8">
      <defs>
       <path id="mc876f71c21" d="M 0 0 
L -3.5 0 
" style="stroke: #000000; stroke-width: 0.8"/>
      </defs>
      <g>
       <use xlink:href="#mc876f71c21" x="43.78125" y="195.923357" style="stroke: #000000; stroke-width: 0.8"/>
      </g>
     </g>
     <g id="text_9">
      <!-- 0.0 -->
      <g transform="translate(20.878125 199.722576)scale(0.1 -0.1)">
       <defs>
        <path id="DejaVuSans-2e" d="M 684 794 
L 1344 794 
L 1344 0 
L 684 0 
L 684 794 
z
" transform="scale(0.015625)"/>
       </defs>
       <use xlink:href="#DejaVuSans-30"/>
       <use xlink:href="#DejaVuSans-2e" x="63.623047"/>
       <use xlink:href="#DejaVuSans-30" x="95.410156"/>
      </g>
     </g>
    </g>
    <g id="ytick_2">
     <g id="line2d_9">
      <g>
       <use xlink:href="#mc876f71c21" x="43.78125" y="166.801929" style="stroke: #000000; stroke-width: 0.8"/>
      </g>
     </g>
     <g id="text_10">
      <!-- 0.2 -->
      <g transform="translate(20.878125 170.601147)scale(0.1 -0.1)">
       <use xlink:href="#DejaVuSans-30"/>
       <use xlink:href="#DejaVuSans-2e" x="63.623047"/>
       <use xlink:href="#DejaVuSans-32" x="95.410156"/>
      </g>
     </g>
    </g>
    <g id="ytick_3">
     <g id="line2d_10">
      <g>
       <use xlink:href="#mc876f71c21" x="43.78125" y="137.6805" style="stroke: #000000; stroke-width: 0.8"/>
      </g>
     </g>
     <g id="text_11">
      <!-- 0.4 -->
      <g transform="translate(20.878125 141.479719)scale(0.1 -0.1)">
       <defs>
        <path id="DejaVuSans-34" d="M 2419 4116 
L 825 1625 
L 2419 1625 
L 2419 4116 
z
M 2253 4666 
L 3047 4666 
L 3047 1625 
L 3713 1625 
L 3713 1100 
L 3047 1100 
L 3047 0 
L 2419 0 
L 2419 1100 
L 313 1100 
L 313 1709 
L 2253 4666 
z
" transform="scale(0.015625)"/>
       </defs>
       <use xlink:href="#DejaVuSans-30"/>
       <use xlink:href="#DejaVuSans-2e" x="63.623047"/>
       <use xlink:href="#DejaVuSans-34" x="95.410156"/>
      </g>
     </g>
    </g>
    <g id="ytick_4">
     <g id="line2d_11">
      <g>
       <use xlink:href="#mc876f71c21" x="43.78125" y="108.559071" style="stroke: #000000; stroke-width: 0.8"/>
      </g>
     </g>
     <g id="text_12">
      <!-- 0.6 -->
      <g transform="translate(20.878125 112.35829)scale(0.1 -0.1)">
       <defs>
        <path id="DejaVuSans-36" d="M 2113 2584 
Q 1688 2584 1439 2293 
Q 1191 2003 1191 1497 
Q 1191 994 1439 701 
Q 1688 409 2113 409 
Q 2538 409 2786 701 
Q 3034 994 3034 1497 
Q 3034 2003 2786 2293 
Q 2538 2584 2113 2584 
z
M 3366 4563 
L 3366 3988 
Q 3128 4100 2886 4159 
Q 2644 4219 2406 4219 
Q 1781 4219 1451 3797 
Q 1122 3375 1075 2522 
Q 1259 2794 1537 2939 
Q 1816 3084 2150 3084 
Q 2853 3084 3261 2657 
Q 3669 2231 3669 1497 
Q 3669 778 3244 343 
Q 2819 -91 2113 -91 
Q 1303 -91 875 529 
Q 447 1150 447 2328 
Q 447 3434 972 4092 
Q 1497 4750 2381 4750 
Q 2619 4750 2861 4703 
Q 3103 4656 3366 4563 
z
" transform="scale(0.015625)"/>
       </defs>
       <use xlink:href="#DejaVuSans-30"/>
       <use xlink:href="#DejaVuSans-2e" x="63.623047"/>
       <use xlink:href="#DejaVuSans-36" x="95.410156"/>
      </g>
     </g>
    </g>
    <g id="ytick_5">
     <g id="line2d_12">
      <g>
       <use xlink:href="#mc876f71c21" x="43.78125" y="79.437643" style="stroke: #000000; stroke-width: 0.8"/>
      </g>
     </g>
     <g id="text_13">
      <!-- 0.8 -->
      <g transform="translate(20.878125 83.236862)scale(0.1 -0.1)">
       <defs>
        <path id="DejaVuSans-38" d="M 2034 2216 
Q 1584 2216 1326 1975 
Q 1069 1734 1069 1313 
Q 1069 891 1326 650 
Q 1584 409 2034 409 
Q 2484 409 2743 651 
Q 3003 894 3003 1313 
Q 3003 1734 2745 1975 
Q 2488 2216 2034 2216 
z
M 1403 2484 
Q 997 2584 770 2862 
Q 544 3141 544 3541 
Q 544 4100 942 4425 
Q 1341 4750 2034 4750 
Q 2731 4750 3128 4425 
Q 3525 4100 3525 3541 
Q 3525 3141 3298 2862 
Q 3072 2584 2669 2484 
Q 3125 2378 3379 2068 
Q 3634 1759 3634 1313 
Q 3634 634 3220 271 
Q 2806 -91 2034 -91 
Q 1263 -91 848 271 
Q 434 634 434 1313 
Q 434 1759 690 2068 
Q 947 2378 1403 2484 
z
M 1172 3481 
Q 1172 3119 1398 2916 
Q 1625 2713 2034 2713 
Q 2441 2713 2670 2916 
Q 2900 3119 2900 3481 
Q 2900 3844 2670 4047 
Q 2441 4250 2034 4250 
Q 1625 4250 1398 4047 
Q 1172 3844 1172 3481 
z
" transform="scale(0.015625)"/>
       </defs>
       <use xlink:href="#DejaVuSans-30"/>
       <use xlink:href="#DejaVuSans-2e" x="63.623047"/>
       <use xlink:href="#DejaVuSans-38" x="95.410156"/>
      </g>
     </g>
    </g>
    <g id="ytick_6">
     <g id="line2d_13">
      <g>
       <use xlink:href="#mc876f71c21" x="43.78125" y="50.316214" style="stroke: #000000; stroke-width: 0.8"/>
      </g>
     </g>
     <g id="text_14">
      <!-- 1.0 -->
      <g transform="translate(20.878125 54.115433)scale(0.1 -0.1)">
       <use xlink:href="#DejaVuSans-31"/>
       <use xlink:href="#DejaVuSans-2e" x="63.623047"/>
       <use xlink:href="#DejaVuSans-30" x="95.410156"/>
      </g>
     </g>
    </g>
    <g id="text_15">
     <!-- (F-F$^o$)/F$^o$ -->
     <g transform="translate(14.798438 137.9955)rotate(-90)scale(0.1 -0.1)">
      <defs>
       <path id="DejaVuSans-28" d="M 1984 4856 
Q 1566 4138 1362 3434 
Q 1159 2731 1159 2009 
Q 1159 1288 1364 580 
Q 1569 -128 1984 -844 
L 1484 -844 
Q 1016 -109 783 600 
Q 550 1309 550 2009 
Q 550 2706 781 3412 
Q 1013 4119 1484 4856 
L 1984 4856 
z
" transform="scale(0.015625)"/>
       <path id="DejaVuSans-46" d="M 628 4666 
L 3309 4666 
L 3309 4134 
L 1259 4134 
L 1259 2759 
L 3109 2759 
L 3109 2228 
L 1259 2228 
L 1259 0 
L 628 0 
L 628 4666 
z
" transform="scale(0.015625)"/>
       <path id="DejaVuSans-2d" d="M 313 2009 
L 1997 2009 
L 1997 1497 
L 313 1497 
L 313 2009 
z
" transform="scale(0.015625)"/>
       <path id="DejaVuSans-Oblique-6f" d="M 1625 -91 
Q 1009 -91 651 289 
Q 294 669 294 1325 
Q 294 1706 417 2101 
Q 541 2497 738 2766 
Q 1047 3184 1428 3384 
Q 1809 3584 2291 3584 
Q 2888 3584 3255 3212 
Q 3622 2841 3622 2241 
Q 3622 1825 3500 1412 
Q 3378 1000 3181 728 
Q 2875 309 2494 109 
Q 2113 -91 1625 -91 
z
M 891 1344 
Q 891 869 1089 633 
Q 1288 397 1691 397 
Q 2269 397 2648 901 
Q 3028 1406 3028 2181 
Q 3028 2634 2825 2865 
Q 2622 3097 2228 3097 
Q 1903 3097 1650 2945 
Q 1397 2794 1197 2484 
Q 1050 2253 970 1956 
Q 891 1659 891 1344 
z
" transform="scale(0.015625)"/>
       <path id="DejaVuSans-29" d="M 513 4856 
L 1013 4856 
Q 1481 4119 1714 3412 
Q 1947 2706 1947 2009 
Q 1947 1309 1714 600 
Q 1481 -109 1013 -844 
L 513 -844 
Q 928 -128 1133 580 
Q 1338 1288 1338 2009 
Q 1338 2731 1133 3434 
Q 928 4138 513 4856 
z
" transform="scale(0.015625)"/>
       <path id="DejaVuSans-2f" d="M 1625 4666 
L 2156 4666 
L 531 -594 
L 0 -594 
L 1625 4666 
z
" transform="scale(0.015625)"/>
      </defs>
      <use xlink:href="#DejaVuSans-28" transform="translate(0 0.51875)"/>
      <use xlink:href="#DejaVuSans-46" transform="translate(39.013672 0.51875)"/>
      <use xlink:href="#DejaVuSans-2d" transform="translate(96.533203 0.51875)"/>
      <use xlink:href="#DejaVuSans-46" transform="translate(132.617188 0.51875)"/>
      <use xlink:href="#DejaVuSans-Oblique-6f" transform="translate(191.09375 38.8)scale(0.7)"/>
      <use xlink:href="#DejaVuSans-29" transform="translate(236.655273 0.51875)"/>
      <use xlink:href="#DejaVuSans-2f" transform="translate(275.668945 0.51875)"/>
      <use xlink:href="#DejaVuSans-46" transform="translate(309.360352 0.51875)"/>
      <use xlink:href="#DejaVuSans-Oblique-6f" transform="translate(367.836914 38.8)scale(0.7)"/>
     </g>
    </g>
   </g>
   <g id="line2d_14">
    <path d="M 56.463068 185.420993 
L 57.120876 188.707615 
L 57.793902 192.235944 
L 57.928339 191.970214 
L 58.065311 191.988628 
L 58.200593 192.781051 
L 58.335029 192.738429 
L 58.469466 192.846105 
L 58.603902 193.796863 
L 58.739184 193.933887 
L 59.008902 194.826415 
L 59.143338 195.037185 
L 59.277774 194.821181 
L 59.547492 192.822457 
L 59.816364 193.689935 
L 59.951646 193.816304 
L 60.223055 194.303273 
L 60.357491 194.005016 
L 60.491928 193.184272 
L 60.896927 194.524139 
L 61.1658 195.378251 
L 61.301082 195.140094 
L 61.569954 195.812691 
L 61.705236 195.923357 
L 61.839672 194.530401 
L 61.974108 194.509558 
L 62.10939 194.262334 
L 62.243826 194.487312 
L 62.378263 194.486564 
L 62.513544 194.973066 
L 62.920235 194.763324 
L 63.189107 193.600019 
L 63.727698 194.715935 
L 63.993188 193.645818 
L 64.12847 193.736482 
L 64.397343 194.376833 
L 64.532624 194.187653 
L 64.667061 194.600502 
L 64.801497 194.565919 
L 64.936779 194.32393 
L 65.205651 193.519169 
L 65.475369 192.56813 
L 65.610651 191.974047 
L 66.283677 179.543248 
L 66.687832 171.844088 
L 66.956704 170.698355 
L 67.226422 171.967372 
L 67.361704 171.885774 
L 67.49614 172.728857 
L 67.765858 175.691705 
L 68.438039 180.266972 
L 68.573321 180.198553 
L 68.707757 179.853468 
L 68.977475 181.925097 
L 69.381629 185.410805 
L 69.92022 188.385804 
L 70.055502 187.863223 
L 70.45881 190.212265 
L 70.594092 190.57623 
L 70.86381 192.155749 
L 70.999092 192.070693 
L 71.133528 191.72 
L 71.672964 193.482903 
L 71.942682 193.839765 
L 72.077964 194.273083 
L 72.2124 194.268877 
L 72.346836 194.118487 
L 72.481272 193.108376 
L 73.15599 194.672473 
L 73.425708 194.790336 
L 73.559299 195.207111 
L 73.830708 194.550777 
L 73.965144 193.833409 
L 74.100426 193.9523 
L 74.369298 194.585641 
L 74.639016 194.586669 
L 74.908734 195.326469 
L 75.44817 192.822083 
L 75.717888 194.224106 
L 75.852324 193.650679 
L 75.986761 193.849392 
L 76.256479 193.440095 
L 76.39176 193.225772 
L 76.660633 191.959839 
L 76.930351 192.805259 
L 77.065633 193.772 
L 77.200069 192.912747 
L 77.334505 193.39981 
L 77.604223 192.872556 
L 77.738659 192.338199 
L 78.008377 190.711572 
L 78.412531 187.752557 
L 78.682249 181.935191 
L 79.084713 173.495764 
L 79.354431 171.578264 
L 79.488867 171.476103 
L 79.623303 170.262887 
L 79.758585 170.293451 
L 80.162739 173.872347 
L 80.70133 176.745278 
L 80.836611 176.091935 
L 81.104638 176.970723 
L 81.511329 179.598674 
L 81.645765 179.991708 
L 82.049074 182.434031 
L 82.322174 183.330671 
L 82.726328 186.255851 
L 82.996046 187.972487 
L 83.129637 187.498323 
L 83.264073 187.919211 
L 83.803509 191.846743 
L 83.937945 192.146308 
L 84.073227 191.353605 
L 84.207663 191.458196 
L 84.479072 192.489243 
L 84.614354 192.298755 
L 85.018508 192.940975 
L 85.421817 193.514309 
L 85.557099 191.94395 
L 85.691535 191.904974 
L 85.826817 191.70813 
L 85.961253 191.759631 
L 86.095689 191.631299 
L 86.364562 193.336345 
L 86.499843 193.444581 
L 86.63428 193.001729 
L 86.769561 193.130154 
L 86.903998 193.094356 
L 87.177943 191.801131 
L 87.312379 191.54671 
L 87.582097 191.867119 
L 87.851815 192.331002 
L 87.986252 192.005265 
L 88.121533 192.098359 
L 88.25597 192.867042 
L 88.390406 192.94705 
L 88.524842 192.51691 
L 88.793714 190.952346 
L 89.063432 190.443131 
L 89.33315 190.829716 
L 89.602023 191.772249 
L 89.737305 191.501004 
L 89.871741 191.756266 
L 90.006177 191.613914 
L 90.14315 191.287243 
L 90.412868 189.90382 
L 90.547304 189.827737 
L 90.680895 189.956817 
L 90.815331 188.368512 
L 90.950613 185.168629 
L 91.221176 175.144168 
L 91.490894 170.836968 
L 91.760612 170.17512 
L 91.895048 170.060528 
L 92.029485 170.183439 
L 92.973075 175.569729 
L 93.377229 176.925858 
L 93.512511 176.97792 
L 94.050256 180.608878 
L 94.184692 181.000042 
L 94.320819 181.893224 
L 94.589692 181.893131 
L 95.398846 188.531707 
L 95.668564 188.883615 
L 96.071872 190.094121 
L 96.206309 189.156075 
L 96.476027 190.735126 
L 96.610463 191.009549 
L 96.745745 190.305359 
L 97.149053 190.469209 
L 97.284335 190.564547 
L 97.418771 190.983284 
L 97.553208 190.650444 
L 97.954825 191.504463 
L 98.223698 192.075927 
L 98.358979 191.644384 
L 98.493416 191.859455 
L 98.628697 191.634383 
L 98.89757 190.309379 
L 99.301724 191.125543 
L 99.571442 191.345006 
L 99.839469 192.183789 
L 100.108342 190.402379 
L 100.243623 190.320595 
L 100.378059 190.912061 
L 100.512496 190.751203 
L 100.646932 190.917576 
L 100.782214 190.80962 
L 100.91665 191.154705 
L 101.051086 191.027588 
L 101.185522 190.27601 
L 101.320804 190.355832 
L 101.45524 190.602682 
L 101.993831 189.82297 
L 102.262703 188.504882 
L 102.39714 186.946768 
L 103.06763 172.158515 
L 103.202911 171.588359 
L 103.472629 171.84147 
L 103.60622 172.317691 
L 103.740656 172.100938 
L 103.875093 172.785032 
L 104.143965 172.019153 
L 104.550656 173.826174 
L 104.819528 175.752272 
L 106.298327 183.305061 
L 106.432763 182.684993 
L 106.568045 183.038583 
L 106.968817 185.030577 
L 107.103253 185.468756 
L 107.377199 186.715434 
L 107.646917 187.524494 
L 107.916635 187.10744 
L 108.052762 187.062107 
L 108.32248 187.352513 
L 108.591352 187.859765 
L 108.725789 187.642264 
L 108.860225 187.677969 
L 109.264379 188.564608 
L 109.399661 188.479646 
L 109.669379 187.057714 
L 109.938251 187.776111 
L 110.207969 188.193353 
L 110.342406 187.895657 
L 110.747405 188.229058 
L 110.881842 188.232049 
L 111.154096 186.353338 
L 111.289378 186.327261 
L 111.423814 186.57869 
L 111.693532 187.353167 
L 112.097686 187.884908 
L 112.23635 187.48879 
L 112.372477 187.591044 
L 112.506914 186.916764 
L 112.642195 186.807687 
L 112.911913 187.259793 
L 113.043813 187.233341 
L 113.178249 187.074913 
L 113.312685 187.28316 
L 113.447122 186.755906 
L 113.71684 185.329021 
L 114.120994 186.051249 
L 114.25543 186.313054 
L 114.525148 185.421741 
L 114.794866 182.614238 
L 115.468738 167.80458 
L 115.605711 166.343299 
L 115.875429 167.150303 
L 117.223173 174.286691 
L 117.492891 176.745278 
L 117.627328 176.994184 
L 117.897046 178.026259 
L 118.166764 179.291538 
L 118.436482 181.481404 
L 118.571763 181.00079 
L 118.7062 181.341762 
L 119.652326 186.534667 
L 119.921199 187.219227 
L 120.053944 187.117254 
L 120.323662 185.922076 
L 120.996689 187.491126 
L 121.131125 187.439906 
L 121.400843 187.739378 
L 121.531897 188.14746 
L 121.666333 187.935661 
L 121.936051 188.406647 
L 122.205769 187.050424 
L 122.475487 187.612074 
L 122.745205 188.783137 
L 123.145132 188.128579 
L 123.279568 188.083341 
L 123.41485 188.196437 
L 123.549286 188.143441 
L 123.683722 186.941627 
L 123.818159 186.907511 
L 124.087877 187.172213 
L 124.222313 187.747603 
L 124.356749 187.698439 
L 124.492031 187.795739 
L 125.030621 187.256147 
L 125.165057 186.864142 
L 125.299494 186.976304 
L 125.43393 186.875732 
L 125.572594 185.830384 
L 125.707875 185.916188 
L 125.842312 185.706726 
L 125.977593 186.317633 
L 126.112875 186.097236 
L 126.246466 186.099292 
L 126.381748 186.283611 
L 126.651466 184.845136 
L 126.921184 181.031261 
L 127.324492 171.415723 
L 127.728646 168.836188 
L 127.863083 169.067896 
L 128.670546 172.296754 
L 128.804982 171.620605 
L 128.939418 171.953258 
L 129.612445 176.912493 
L 129.747727 177.543403 
L 130.289699 181.440464 
L 130.424135 181.258762 
L 130.558572 181.398497 
L 130.693853 182.115211 
L 130.963571 183.904285 
L 131.098007 184.093652 
L 131.367725 184.854857 
L 131.908852 185.687004 
L 132.313007 185.990962 
L 132.582725 186.625985 
L 132.717161 186.007039 
L 132.852443 186.80722 
L 132.986879 186.460733 
L 133.256597 186.577755 
L 133.526315 186.634678 
L 133.796033 185.491749 
L 133.931315 185.753086 
L 134.065751 185.578207 
L 134.469905 186.581961 
L 134.605187 186.591776 
L 135.009341 187.967066 
L 135.143777 188.112035 
L 135.414341 186.71048 
L 135.548777 186.764505 
L 135.684059 186.485409 
L 135.818495 185.410431 
L 135.952931 185.271538 
L 136.088213 184.857941 
L 136.222649 185.210503 
L 136.357085 185.001602 
L 136.492367 185.040765 
L 136.625958 185.960585 
L 136.76124 185.760563 
L 137.030112 185.744674 
L 137.298985 186.360629 
L 137.434266 186.484381 
L 137.977084 184.84336 
L 138.246802 182.871649 
L 138.381238 182.700789 
L 138.515675 182.040904 
L 138.650956 179.98853 
L 138.919829 173.669988 
L 139.189547 170.796216 
L 139.458419 169.154448 
L 139.592856 168.976671 
L 139.862574 169.970799 
L 140.941446 174.622242 
L 141.076727 174.970785 
L 141.346445 176.911932 
L 141.750599 179.222465 
L 142.019472 181.551131 
L 142.28919 182.413935 
L 142.558062 183.331699 
L 142.962217 182.904924 
L 143.636934 185.963296 
L 143.907498 186.094338 
L 144.041934 185.847769 
L 144.177216 185.214335 
L 144.312498 185.114418 
L 144.58137 186.449984 
L 144.850242 186.074429 
L 144.985524 185.915346 
L 145.390524 186.619629 
L 145.52496 186.540368 
L 145.659396 186.669822 
L 145.794678 187.181934 
L 146.064396 185.92217 
L 146.738268 187.794337 
L 147.007141 186.827783 
L 147.412141 187.463366 
L 147.547422 187.804899 
L 147.681859 187.524401 
L 147.951577 186.221361 
L 148.086858 186.211547 
L 148.355731 186.977332 
L 148.764958 186.413438 
L 148.899394 186.607852 
L 149.168267 186.384931 
L 149.303548 186.319596 
L 149.437985 186.737212 
L 149.708548 186.409232 
L 149.977421 184.691942 
L 150.111857 184.904395 
L 150.380729 185.821224 
L 150.650447 184.49435 
L 151.459601 172.970099 
L 151.594038 172.393494 
L 151.999037 174.224722 
L 152.132628 174.536532 
L 152.26791 173.841783 
L 152.537628 175.465231 
L 153.346782 180.944242 
L 153.6165 182.231018 
L 153.885372 181.663106 
L 155.099526 187.431307 
L 155.234808 187.402892 
L 155.369244 187.230257 
L 155.50368 186.490269 
L 155.773398 187.38476 
L 155.90868 186.442507 
L 156.312834 186.670663 
L 156.582552 187.811722 
L 156.851424 188.384869 
L 156.986706 188.933621 
L 157.255579 187.873037 
L 157.794169 188.650786 
L 157.931142 188.583676 
L 158.20086 189.023911 
L 158.73945 189.506767 
L 159.009168 188.231488 
L 159.14445 187.802749 
L 159.278886 188.368979 
L 159.414168 188.413096 
L 159.68304 188.906047 
L 159.952758 189.140559 
L 161.030785 189.265433 
L 161.165221 189.545837 
L 161.434939 188.14288 
L 161.839093 189.167384 
L 162.107966 189.251973 
L 162.243247 189.107658 
L 162.517193 189.182246 
L 162.651629 189.148037 
L 162.786065 188.930723 
L 163.592683 181.776296 
L 164.132119 174.748331 
L 164.537964 172.888781 
L 164.807682 173.466882 
L 164.942118 173.117872 
L 165.751272 176.740511 
L 166.155426 176.404026 
L 166.425144 177.928959 
L 166.694862 180.064333 
L 166.830144 179.914129 
L 167.233453 182.705369 
L 167.367889 182.621622 
L 167.503171 182.564606 
L 167.638453 182.019687 
L 168.449298 185.806456 
L 168.582888 185.986382 
L 168.713097 185.950677 
L 168.981124 187.324846 
L 169.251687 186.054708 
L 169.386124 186.293986 
L 169.654996 186.932561 
L 169.789432 186.881153 
L 169.924714 187.062762 
L 170.059996 187.600951 
L 170.194432 187.382423 
L 170.328868 187.862662 
L 170.463305 187.546273 
L 170.598586 188.187184 
L 171.002741 188.318133 
L 171.272459 186.734128 
L 171.40774 186.018722 
L 171.677458 186.811426 
L 171.811894 186.661783 
L 171.948867 186.275292 
L 172.218585 187.813218 
L 172.353021 187.306807 
L 172.488303 187.737976 
L 172.757176 187.341951 
L 172.892457 187.533841 
L 173.027739 187.519354 
L 173.163021 187.966038 
L 173.297457 187.114356 
L 173.432739 187.062762 
L 173.568021 187.17455 
L 173.701611 186.717397 
L 173.836048 187.295497 
L 174.105766 187.163427 
L 174.241047 187.130059 
L 174.510765 187.321575 
L 174.646047 187.388966 
L 174.780483 187.973516 
L 174.915765 187.942484 
L 175.319919 186.253234 
L 175.455201 186.093777 
L 175.588792 186.493354 
L 176.263509 181.343071 
L 176.667664 176.682467 
L 176.802945 176.479081 
L 176.938227 176.627788 
L 177.072663 177.378712 
L 177.342381 176.2012 
L 177.612099 178.193754 
L 177.746536 178.122625 
L 177.881817 178.38013 
L 178.690126 183.420214 
L 178.825407 183.875217 
L 179.09428 181.892103 
L 179.768152 185.054037 
L 179.903434 185.041886 
L 180.038716 185.26621 
L 180.44287 187.378965 
L 180.715124 186.551958 
L 180.849561 186.867507 
L 180.984842 187.704888 
L 181.388997 187.684979 
L 181.524278 188.519744 
L 181.65956 188.51236 
L 181.793996 188.114559 
L 181.929278 186.877227 
L 182.067096 187.221938 
L 182.33766 186.770206 
L 182.472096 187.913883 
L 182.607378 188.101006 
L 182.741814 188.654898 
L 182.87625 188.595546 
L 183.146814 186.929196 
L 183.551813 187.953887 
L 183.68625 187.360925 
L 183.820686 187.707599 
L 183.955122 187.420091 
L 184.225686 187.656472 
L 184.495404 186.90695 
L 184.765122 187.693391 
L 184.900403 186.701227 
L 185.035685 186.875638 
L 185.170967 187.981367 
L 185.306249 187.49795 
L 185.44153 187.438784 
L 185.711248 186.842457 
L 185.845685 187.26026 
L 185.981812 186.492232 
L 186.116248 187.208292 
L 186.25153 186.898071 
L 186.385966 187.136508 
L 186.521248 186.383529 
L 186.790966 187.175204 
L 186.927093 186.910409 
L 187.062375 185.688499 
L 187.332938 185.855994 
L 187.46822 185.066842 
L 187.603502 184.986553 
L 187.872374 184.245164 
L 188.81681 174.814039 
L 188.952092 174.617101 
L 189.356246 176.477959 
L 189.490682 176.457303 
L 189.7604 177.586491 
L 189.895682 177.666126 
L 190.300682 179.343413 
L 190.435118 178.733065 
L 190.569554 178.683808 
L 190.704836 179.513244 
L 190.839272 179.626341 
L 190.973708 179.280135 
L 191.377863 181.13931 
L 191.513144 181.289046 
L 191.648426 182.146616 
L 191.916453 182.061467 
L 192.050889 182.420104 
L 192.185325 182.4216 
L 192.590325 185.378091 
L 192.724761 184.527344 
L 192.994479 184.718954 
L 193.128916 184.452289 
L 193.400325 185.482308 
L 193.535606 185.757011 
L 193.670888 185.191809 
L 193.80617 185.412955 
L 194.076733 186.622994 
L 194.480042 184.466216 
L 194.615324 185.711586 
L 194.885042 186.0677 
L 195.019478 185.010855 
L 195.15476 185.096565 
L 195.289196 185.728317 
L 195.558914 185.272099 
L 195.694196 185.204988 
L 196.099195 186.471669 
L 196.233632 186.257347 
L 196.368913 185.177228 
L 196.638631 185.735514 
L 196.773068 186.372219 
L 197.042786 186.167243 
L 197.178067 186.05424 
L 197.313349 186.130604 
L 197.447785 186.681599 
L 197.583067 186.367078 
L 197.852785 185.067871 
L 197.988067 185.582506 
L 198.121658 185.44408 
L 198.256094 185.088807 
L 198.92912 187.279047 
L 199.199684 187.693205 
L 199.33412 187.570761 
L 199.468556 187.667968 
L 199.872711 184.762604 
L 200.007992 184.529587 
L 200.681019 179.57699 
L 200.949892 176.931093 
L 201.086019 177.269821 
L 201.220455 176.634331 
L 201.490173 177.5277 
L 201.759045 176.799396 
L 201.893482 176.355329 
L 202.028763 176.826876 
L 202.432918 179.347338 
L 202.569045 179.88478 
L 202.703481 179.458005 
L 202.972354 179.865432 
L 203.376508 182.64125 
L 203.647071 183.593784 
L 203.915944 184.554543 
L 204.051226 183.576025 
L 204.320944 183.844372 
L 204.86038 186.177899 
L 205.130097 187.678343 
L 205.400661 188.51292 
L 205.670379 187.520475 
L 206.074533 189.059429 
L 206.209815 188.798279 
L 206.344251 188.810149 
L 206.479533 188.987178 
L 206.616506 188.879129 
L 206.885378 189.838579 
L 207.155096 190.283862 
L 207.424814 189.931487 
L 207.55925 189.989904 
L 207.694532 190.324801 
L 207.829814 189.991119 
L 207.965096 189.978688 
L 208.099532 189.747448 
L 208.233968 189.989063 
L 208.36925 189.824185 
L 208.638122 188.887915 
L 209.045659 189.281696 
L 209.179249 189.466389 
L 209.448122 189.347591 
L 209.583403 189.348713 
L 209.853121 189.566867 
L 210.122839 188.527408 
L 210.258121 188.456185 
L 210.393403 188.770145 
L 210.527839 188.693594 
L 210.663121 188.759957 
L 210.798403 189.038585 
L 210.933684 188.777155 
L 211.203402 189.167758 
L 211.337839 188.751171 
L 211.472275 189.034847 
L 211.608402 188.904832 
L 212.147838 186.428113 
L 212.28312 185.199006 
L 212.551992 181.182025 
L 212.892733 179.265647 
L 213.432169 179.984791 
L 213.701887 181.085846 
L 213.836323 180.601681 
L 213.971605 180.573828 
L 214.106887 180.879749 
L 214.241323 179.307147 
L 214.511041 180.106954 
L 214.780759 180.784785 
L 214.916041 180.811891 
L 215.185759 181.366531 
L 215.321041 181.019764 
L 215.455477 181.651048 
L 215.590759 181.574404 
L 215.859631 182.294764 
L 215.994067 182.800052 
L 216.129349 182.47497 
L 216.265476 181.661891 
L 216.399912 182.047073 
L 216.670476 183.295995 
L 216.804912 184.163379 
L 216.939348 183.899145 
L 217.209066 185.128812 
L 217.613221 185.787856 
L 217.882939 185.195829 
L 218.152657 186.45419 
L 218.421529 187.492622 
L 218.555965 186.944898 
L 218.690402 187.080895 
L 218.825683 186.80507 
L 218.96012 185.740841 
L 219.094556 186.030499 
L 219.49871 187.653387 
L 219.633992 187.666379 
L 220.311246 188.590966 
L 220.7154 187.873598 
L 220.850682 188.402721 
L 221.254836 186.341842 
L 221.389272 186.247439 
L 221.659836 187.070333 
L 221.794272 187.33625 
L 221.929554 186.154532 
L 222.199272 187.005933 
L 222.333708 186.577662 
L 222.737017 188.200456 
L 222.872298 188.366082 
L 223.006735 188.23803 
L 223.276453 186.670569 
L 223.410889 187.221845 
L 223.546171 186.5671 
L 223.680607 186.916764 
L 223.815043 186.581494 
L 224.084761 187.585716 
L 224.219197 187.837613 
L 224.488915 185.867023 
L 224.626734 185.181995 
L 224.762015 185.564747 
L 224.896452 184.463692 
L 225.031733 184.541084 
L 225.301451 183.076718 
L 225.435888 182.704528 
L 225.570324 181.163612 
L 225.70476 181.149685 
L 225.974478 180.723657 
L 226.108914 180.906481 
L 226.243351 180.788337 
L 226.377787 179.804865 
L 226.512223 179.815988 
L 226.646659 179.670177 
L 226.781941 180.906574 
L 226.916377 180.914145 
L 227.050813 181.214178 
L 227.186095 180.780766 
L 227.724686 183.680523 
L 227.859122 182.669477 
L 228.12884 183.397968 
L 228.397712 185.100491 
L 228.532994 184.288907 
L 228.66743 184.225535 
L 229.341302 187.312228 
L 229.475739 187.506081 
L 229.61102 187.455421 
L 229.745457 188.042308 
L 229.879893 187.531878 
L 230.014329 187.571415 
L 230.148765 188.014922 
L 230.284047 187.984264 
L 230.555456 188.709297 
L 230.689892 188.542737 
L 231.094047 189.245243 
L 231.36461 188.964465 
L 231.499046 189.316747 
L 231.634328 189.220194 
L 231.904046 188.127551 
L 232.172073 188.91016 
L 232.306509 188.880905 
L 232.576227 189.307119 
L 232.710663 189.018677 
L 232.8451 189.200098 
L 232.980381 189.576588 
L 233.249254 189.436947 
L 233.38369 189.591169 
L 233.787844 188.464784 
L 234.058408 188.890438 
L 234.32728 188.987178 
L 234.597844 189.386754 
L 234.73228 189.528265 
L 234.867562 189.132801 
L 235.001998 189.325813 
L 235.270871 188.525632 
L 235.405307 188.932686 
L 235.541434 188.759302 
L 235.946434 189.379183 
L 236.081715 189.527517 
L 236.216152 189.450126 
L 236.351433 189.671926 
L 236.487561 189.059803 
L 236.621997 189.207108 
L 236.757279 188.98372 
L 237.161433 189.397129 
L 237.295869 189.744737 
L 237.564742 189.225054 
L 237.700023 189.464613 
L 237.969741 189.086908 
L 238.239459 188.878755 
L 238.378123 188.5175 
L 238.646996 188.468523 
L 238.782277 188.227562 
L 239.05115 186.032929 
L 239.186432 186.048819 
L 239.45615 183.315903 
L 239.859458 177.606868 
L 240.129176 175.575804 
L 240.937485 178.408544 
L 241.207203 179.561474 
L 241.342484 178.897476 
L 241.88192 181.784895 
L 242.016357 181.213711 
L 242.151638 182.242515 
L 242.286075 181.454672 
L 242.555793 182.519461 
L 242.959947 185.204241 
L 243.229665 186.574577 
L 243.364101 185.724017 
L 243.499383 186.138455 
L 243.633819 186.187806 
L 243.769101 186.869843 
L 243.903537 186.68057 
L 244.037973 186.757027 
L 244.173255 186.301744 
L 244.307691 186.382033 
L 244.576564 187.83107 
L 244.715227 188.268968 
L 244.850509 188.197372 
L 244.9841 187.713113 
L 245.119382 187.654135 
L 245.3891 188.679107 
L 245.523536 188.851088 
L 245.792408 187.728909 
L 246.196563 186.840214 
L 246.599871 188.532829 
L 246.735153 187.339895 
L 246.870435 187.310546 
L 247.409025 189.194397 
L 247.678743 188.142973 
L 247.814025 188.303926 
L 247.948461 187.241379 
L 248.082897 187.670866 
L 248.217334 187.106505 
L 248.622333 188.765004 
L 248.75677 188.452633 
L 248.892051 187.725544 
L 249.027333 188.209336 
L 249.161769 188.071096 
L 249.430642 188.165593 
L 249.834796 188.869595 
L 249.970078 188.430855 
L 250.104514 187.432989 
L 250.239796 187.91622 
L 250.374232 187.398219 
L 250.64395 188.155498 
L 250.778386 188.635924 
L 251.048104 187.67367 
L 251.18254 187.817891 
L 251.317822 187.751903 
L 251.451413 188.122691 
L 251.586695 187.458319 
L 251.721976 187.998845 
L 251.990849 188.028101 
L 252.126131 187.899863 
L 252.529439 186.22295 
L 253.068875 182.162786 
L 253.204157 181.769285 
L 253.338593 181.721336 
L 253.473875 181.833779 
L 253.608311 181.717785 
L 253.877184 181.914909 
L 254.012465 182.236159 
L 254.146902 181.984169 
L 254.281338 182.114463 
L 254.415774 182.422348 
L 254.685492 182.081189 
L 254.819928 182.577692 
L 254.954365 182.622556 
L 255.498028 184.285075 
L 256.441618 186.647857 
L 256.576055 186.600935 
L 256.9819 188.017165 
L 257.117181 188.0181 
L 257.386899 188.603304 
L 257.656617 189.373949 
L 257.926335 188.705839 
L 258.196053 188.812953 
L 258.331335 189.339179 
L 258.466617 189.34918 
L 258.601053 189.633604 
L 258.736335 189.38853 
L 258.871617 189.89223 
L 259.006053 189.719875 
L 259.140489 189.859516 
L 259.410207 187.248483 
L 259.544643 187.444205 
L 259.815207 187.189785 
L 259.949643 187.207077 
L 260.084079 186.902277 
L 260.353797 187.802469 
L 260.488233 188.194568 
L 260.757951 188.248873 
L 260.893233 186.974154 
L 261.028515 186.766374 
L 261.162951 186.797406 
L 261.297387 186.216968 
L 261.69816 186.552239 
L 262.102314 187.603662 
L 262.64175 185.67532 
L 262.776186 185.839637 
L 262.910622 186.26903 
L 263.045058 186.065269 
L 263.718085 182.202791 
L 263.987803 181.504116 
L 264.391957 181.480843 
L 264.662521 182.145775 
L 267.224419 189.423113 
L 267.358855 189.497047 
L 267.494137 189.300483 
L 267.759627 187.809292 
L 268.032727 187.063416 
L 268.167164 187.051452 
L 268.437727 188.150264 
L 268.573009 187.621327 
L 268.836808 188.384869 
L 268.971244 188.653216 
L 269.240962 189.477418 
L 269.375399 189.470221 
L 269.51068 187.848362 
L 269.645962 187.963328 
L 269.780398 187.931174 
L 269.914835 187.663762 
L 270.049271 187.05949 
L 270.318989 188.529371 
L 270.588707 188.497872 
L 270.723143 187.231285 
L 271.127297 188.473477 
L 271.261734 188.386832 
L 271.532297 187.095756 
L 271.802861 188.087734 
L 272.070887 189.030827 
L 272.205324 188.770425 
L 272.475887 189.425263 
L 272.745605 189.510973 
L 272.880041 189.483026 
L 273.014478 189.336936 
L 273.28335 188.327573 
L 274.230322 186.897136 
L 275.038631 182.557035 
L 275.447013 183.040079 
L 275.581449 183.022413 
L 276.255321 184.346577 
L 276.525039 185.177135 
L 276.930039 186.021526 
L 277.063629 185.637466 
L 277.736656 187.792561 
L 278.276092 189.321981 
L 278.409683 189.54537 
L 278.544965 189.536397 
L 278.680246 189.876341 
L 278.814683 189.657999 
L 278.949964 189.934665 
L 279.084401 189.924944 
L 279.488555 190.40023 
L 279.623836 189.444424 
L 279.758273 187.686568 
L 279.892709 187.532533 
L 280.162427 187.815087 
L 280.296863 188.188399 
L 280.432145 188.040158 
L 280.836299 189.399372 
L 281.106017 188.397207 
L 281.375735 188.846134 
L 281.644608 187.959776 
L 281.914326 187.227266 
L 282.453762 188.55199 
L 282.588198 187.360925 
L 282.722634 187.58394 
L 282.857916 188.106801 
L 282.992352 187.312883 
L 283.26207 188.294485 
L 283.397352 188.545634 
L 283.531788 188.052403 
L 283.66707 186.877882 
L 283.936788 186.399885 
L 284.071224 186.747961 
L 284.340942 187.843408 
L 284.745942 187.633665 
L 285.689532 181.813402 
L 285.824814 181.79527 
L 285.962632 181.907151 
L 286.097068 181.768818 
L 286.501222 182.496935 
L 286.635658 182.505067 
L 286.905376 183.640518 
L 287.309531 184.721851 
L 287.853194 186.169393 
L 288.525375 188.276446 
L 288.659812 187.796674 
L 288.92953 188.23532 
L 289.064811 188.481141 
L 289.333684 189.284594 
L 289.603402 189.69604 
L 289.737838 189.511441 
L 290.007556 189.808483 
L 290.142838 189.512749 
L 290.546992 190.110478 
L 290.815864 189.715014 
L 290.951146 189.294314 
L 291.220864 189.575093 
L 291.490582 189.003722 
L 291.625018 189.072608 
L 291.7603 189.015218 
L 291.894736 188.81099 
L 292.030018 189.378342 
L 292.300582 187.85855 
L 292.569454 187.26054 
L 292.704736 187.345223 
L 293.10889 188.565543 
L 293.244172 189.075599 
L 293.513044 189.151869 
L 293.782762 189.63996 
L 293.918044 189.563503 
L 294.05248 189.252347 
L 294.187762 187.712085 
L 294.453252 187.785645 
L 294.587689 187.524027 
L 294.991843 188.573862 
L 295.262406 188.845854 
L 295.396843 188.715372 
L 295.534661 188.120074 
L 295.665715 188.256163 
L 296.069869 186.165093 
L 296.474869 182.437957 
L 296.742896 182.275229 
L 297.553741 183.946626 
L 297.689023 184.376019 
L 297.823459 184.420136 
L 298.904022 187.606933 
L 299.038458 187.388966 
L 299.310713 188.395898 
L 299.445994 188.597135 
L 299.714867 189.1414 
L 299.850149 189.178133 
L 300.119021 189.693423 
L 300.254303 189.752215 
L 300.659302 190.272739 
L 300.793739 190.157306 
L 300.928175 190.45575 
L 301.197893 190.279188 
L 301.333175 190.632965 
L 301.602893 189.539575 
L 301.737329 189.475362 
L 302.006201 189.9456 
L 302.275074 190.041031 
L 302.410356 190.109263 
L 302.545637 189.810726 
L 302.680919 190.003364 
L 302.81451 189.946348 
L 302.949792 190.261803 
L 303.084228 189.69576 
L 303.21951 188.250836 
L 303.353946 188.502078 
L 303.624509 187.515895 
L 303.758945 187.659649 
L 304.028663 188.49217 
L 304.297536 187.530383 
L 304.836972 188.699857 
L 305.241972 188.074368 
L 305.51169 185.646158 
L 305.91838 182.702004 
L 306.457816 179.959742 
L 306.591407 180.158735 
L 306.726689 179.87964 
L 306.861125 180.002457 
L 307.539225 183.301229 
L 307.673661 183.634536 
L 308.078661 185.225551 
L 308.211406 185.525771 
L 308.481124 186.585326 
L 309.154996 188.380756 
L 309.290278 188.168397 
L 309.695278 188.878007 
L 309.829714 189.147382 
L 309.964996 189.077562 
L 310.099432 189.612013 
L 310.099432 189.612013 
" clip-path="url(#p897bf64345)" style="fill: none; stroke: #1f77b4; stroke-width: 1.5; stroke-linecap: square"/>
   </g>
   <g id="patch_3">
    <path d="M 43.78125 198.8355 
L 43.78125 35.7555 
" style="fill: none; stroke: #000000; stroke-width: 0.8; stroke-linejoin: miter; stroke-linecap: square"/>
   </g>
   <g id="patch_4">
    <path d="M 322.78125 198.8355 
L 322.78125 35.7555 
" style="fill: none; stroke: #000000; stroke-width: 0.8; stroke-linejoin: miter; stroke-linecap: square"/>
   </g>
   <g id="patch_5">
    <path d="M 43.78125 198.8355 
L 322.78125 198.8355 
" style="fill: none; stroke: #000000; stroke-width: 0.8; stroke-linejoin: miter; stroke-linecap: square"/>
   </g>
   <g id="patch_6">
    <path d="M 43.78125 35.7555 
L 322.78125 35.7555 
" style="fill: none; stroke: #000000; stroke-width: 0.8; stroke-linejoin: miter; stroke-linecap: square"/>
   </g>
   <g id="text_16">
    <!-- After equalize -->
    <g transform="translate(141.814687 16.318125)scale(0.12 -0.12)">
     <defs>
      <path id="DejaVuSans-41" d="M 2188 4044 
L 1331 1722 
L 3047 1722 
L 2188 4044 
z
M 1831 4666 
L 2547 4666 
L 4325 0 
L 3669 0 
L 3244 1197 
L 1141 1197 
L 716 0 
L 50 0 
L 1831 4666 
z
" transform="scale(0.015625)"/>
      <path id="DejaVuSans-66" d="M 2375 4863 
L 2375 4384 
L 1825 4384 
Q 1516 4384 1395 4259 
Q 1275 4134 1275 3809 
L 1275 3500 
L 2222 3500 
L 2222 3053 
L 1275 3053 
L 1275 0 
L 697 0 
L 697 3053 
L 147 3053 
L 147 3500 
L 697 3500 
L 697 3744 
Q 697 4328 969 4595 
Q 1241 4863 1831 4863 
L 2375 4863 
z
" transform="scale(0.015625)"/>
      <path id="DejaVuSans-74" d="M 1172 4494 
L 1172 3500 
L 2356 3500 
L 2356 3053 
L 1172 3053 
L 1172 1153 
Q 1172 725 1289 603 
Q 1406 481 1766 481 
L 2356 481 
L 2356 0 
L 1766 0 
Q 1100 0 847 248 
Q 594 497 594 1153 
L 594 3053 
L 172 3053 
L 172 3500 
L 594 3500 
L 594 4494 
L 1172 4494 
z
" transform="scale(0.015625)"/>
      <path id="DejaVuSans-72" d="M 2631 2963 
Q 2534 3019 2420 3045 
Q 2306 3072 2169 3072 
Q 1681 3072 1420 2755 
Q 1159 2438 1159 1844 
L 1159 0 
L 581 0 
L 581 3500 
L 1159 3500 
L 1159 2956 
Q 1341 3275 1631 3429 
Q 1922 3584 2338 3584 
Q 2397 3584 2469 3576 
Q 2541 3569 2628 3553 
L 2631 2963 
z
" transform="scale(0.015625)"/>
      <path id="DejaVuSans-71" d="M 947 1747 
Q 947 1113 1208 752 
Q 1469 391 1925 391 
Q 2381 391 2643 752 
Q 2906 1113 2906 1747 
Q 2906 2381 2643 2742 
Q 2381 3103 1925 3103 
Q 1469 3103 1208 2742 
Q 947 2381 947 1747 
z
M 2906 525 
Q 2725 213 2448 61 
Q 2172 -91 1784 -91 
Q 1150 -91 751 415 
Q 353 922 353 1747 
Q 353 2572 751 3078 
Q 1150 3584 1784 3584 
Q 2172 3584 2448 3432 
Q 2725 3281 2906 2969 
L 2906 3500 
L 3481 3500 
L 3481 -1331 
L 2906 -1331 
L 2906 525 
z
" transform="scale(0.015625)"/>
      <path id="DejaVuSans-75" d="M 544 1381 
L 544 3500 
L 1119 3500 
L 1119 1403 
Q 1119 906 1312 657 
Q 1506 409 1894 409 
Q 2359 409 2629 706 
Q 2900 1003 2900 1516 
L 2900 3500 
L 3475 3500 
L 3475 0 
L 2900 0 
L 2900 538 
Q 2691 219 2414 64 
Q 2138 -91 1772 -91 
Q 1169 -91 856 284 
Q 544 659 544 1381 
z
M 1991 3584 
L 1991 3584 
z
" transform="scale(0.015625)"/>
      <path id="DejaVuSans-61" d="M 2194 1759 
Q 1497 1759 1228 1600 
Q 959 1441 959 1056 
Q 959 750 1161 570 
Q 1363 391 1709 391 
Q 2188 391 2477 730 
Q 2766 1069 2766 1631 
L 2766 1759 
L 2194 1759 
z
M 3341 1997 
L 3341 0 
L 2766 0 
L 2766 531 
Q 2569 213 2275 61 
Q 1981 -91 1556 -91 
Q 1019 -91 701 211 
Q 384 513 384 1019 
Q 384 1609 779 1909 
Q 1175 2209 1959 2209 
L 2766 2209 
L 2766 2266 
Q 2766 2663 2505 2880 
Q 2244 3097 1772 3097 
Q 1472 3097 1187 3025 
Q 903 2953 641 2809 
L 641 3341 
Q 956 3463 1253 3523 
Q 1550 3584 1831 3584 
Q 2591 3584 2966 3190 
Q 3341 2797 3341 1997 
z
" transform="scale(0.015625)"/>
      <path id="DejaVuSans-6c" d="M 603 4863 
L 1178 4863 
L 1178 0 
L 603 0 
L 603 4863 
z
" transform="scale(0.015625)"/>
      <path id="DejaVuSans-7a" d="M 353 3500 
L 3084 3500 
L 3084 2975 
L 922 459 
L 3084 459 
L 3084 0 
L 275 0 
L 275 525 
L 2438 3041 
L 353 3041 
L 353 3500 
z
" transform="scale(0.015625)"/>
     </defs>
     <use xlink:href="#DejaVuSans-41"/>
     <use xlink:href="#DejaVuSans-66" x="64.783203"/>
     <use xlink:href="#DejaVuSans-74" x="98.238281"/>
     <use xlink:href="#DejaVuSans-65" x="137.447266"/>
     <use xlink:href="#DejaVuSans-72" x="198.970703"/>
     <use xlink:href="#DejaVuSans-20" x="240.083984"/>
     <use xlink:href="#DejaVuSans-65" x="271.871094"/>
     <use xlink:href="#DejaVuSans-71" x="333.394531"/>
     <use xlink:href="#DejaVuSans-75" x="396.871094"/>
     <use xlink:href="#DejaVuSans-61" x="460.25"/>
     <use xlink:href="#DejaVuSans-6c" x="521.529297"/>
     <use xlink:href="#DejaVuSans-69" x="549.3125"/>
     <use xlink:href="#DejaVuSans-7a" x="577.095703"/>
     <use xlink:href="#DejaVuSans-65" x="629.585938"/>
    </g>
    <!-- NTR_C3_005_crop - Intensity Equalized, ROI=9 -->
    <g transform="translate(43.003125 29.7555)scale(0.12 -0.12)">
     <defs>
      <path id="DejaVuSans-4e" d="M 628 4666 
L 1478 4666 
L 3547 763 
L 3547 4666 
L 4159 4666 
L 4159 0 
L 3309 0 
L 1241 3903 
L 1241 0 
L 628 0 
L 628 4666 
z
" transform="scale(0.015625)"/>
      <path id="DejaVuSans-52" d="M 2841 2188 
Q 3044 2119 3236 1894 
Q 3428 1669 3622 1275 
L 4263 0 
L 3584 0 
L 2988 1197 
Q 2756 1666 2539 1819 
Q 2322 1972 1947 1972 
L 1259 1972 
L 1259 0 
L 628 0 
L 628 4666 
L 2053 4666 
Q 2853 4666 3247 4331 
Q 3641 3997 3641 3322 
Q 3641 2881 3436 2590 
Q 3231 2300 2841 2188 
z
M 1259 4147 
L 1259 2491 
L 2053 2491 
Q 2509 2491 2742 2702 
Q 2975 2913 2975 3322 
Q 2975 3731 2742 3939 
Q 2509 4147 2053 4147 
L 1259 4147 
z
" transform="scale(0.015625)"/>
      <path id="DejaVuSans-5f" d="M 3263 -1063 
L 3263 -1509 
L -63 -1509 
L -63 -1063 
L 3263 -1063 
z
" transform="scale(0.015625)"/>
      <path id="DejaVuSans-43" d="M 4122 4306 
L 4122 3641 
Q 3803 3938 3442 4084 
Q 3081 4231 2675 4231 
Q 1875 4231 1450 3742 
Q 1025 3253 1025 2328 
Q 1025 1406 1450 917 
Q 1875 428 2675 428 
Q 3081 428 3442 575 
Q 3803 722 4122 1019 
L 4122 359 
Q 3791 134 3420 21 
Q 3050 -91 2638 -91 
Q 1578 -91 968 557 
Q 359 1206 359 2328 
Q 359 3453 968 4101 
Q 1578 4750 2638 4750 
Q 3056 4750 3426 4639 
Q 3797 4528 4122 4306 
z
" transform="scale(0.015625)"/>
      <path id="DejaVuSans-63" d="M 3122 3366 
L 3122 2828 
Q 2878 2963 2633 3030 
Q 2388 3097 2138 3097 
Q 1578 3097 1268 2742 
Q 959 2388 959 1747 
Q 959 1106 1268 751 
Q 1578 397 2138 397 
Q 2388 397 2633 464 
Q 2878 531 3122 666 
L 3122 134 
Q 2881 22 2623 -34 
Q 2366 -91 2075 -91 
Q 1284 -91 818 406 
Q 353 903 353 1747 
Q 353 2603 823 3093 
Q 1294 3584 2113 3584 
Q 2378 3584 2631 3529 
Q 2884 3475 3122 3366 
z
" transform="scale(0.015625)"/>
      <path id="DejaVuSans-6f" d="M 1959 3097 
Q 1497 3097 1228 2736 
Q 959 2375 959 1747 
Q 959 1119 1226 758 
Q 1494 397 1959 397 
Q 2419 397 2687 759 
Q 2956 1122 2956 1747 
Q 2956 2369 2687 2733 
Q 2419 3097 1959 3097 
z
M 1959 3584 
Q 2709 3584 3137 3096 
Q 3566 2609 3566 1747 
Q 3566 888 3137 398 
Q 2709 -91 1959 -91 
Q 1206 -91 779 398 
Q 353 888 353 1747 
Q 353 2609 779 3096 
Q 1206 3584 1959 3584 
z
" transform="scale(0.015625)"/>
      <path id="DejaVuSans-70" d="M 1159 525 
L 1159 -1331 
L 581 -1331 
L 581 3500 
L 1159 3500 
L 1159 2969 
Q 1341 3281 1617 3432 
Q 1894 3584 2278 3584 
Q 2916 3584 3314 3078 
Q 3713 2572 3713 1747 
Q 3713 922 3314 415 
Q 2916 -91 2278 -91 
Q 1894 -91 1617 61 
Q 1341 213 1159 525 
z
M 3116 1747 
Q 3116 2381 2855 2742 
Q 2594 3103 2138 3103 
Q 1681 3103 1420 2742 
Q 1159 2381 1159 1747 
Q 1159 1113 1420 752 
Q 1681 391 2138 391 
Q 2594 391 2855 752 
Q 3116 1113 3116 1747 
z
" transform="scale(0.015625)"/>
      <path id="DejaVuSans-49" d="M 628 4666 
L 1259 4666 
L 1259 0 
L 628 0 
L 628 4666 
z
" transform="scale(0.015625)"/>
      <path id="DejaVuSans-6e" d="M 3513 2113 
L 3513 0 
L 2938 0 
L 2938 2094 
Q 2938 2591 2744 2837 
Q 2550 3084 2163 3084 
Q 1697 3084 1428 2787 
Q 1159 2491 1159 1978 
L 1159 0 
L 581 0 
L 581 3500 
L 1159 3500 
L 1159 2956 
Q 1366 3272 1645 3428 
Q 1925 3584 2291 3584 
Q 2894 3584 3203 3211 
Q 3513 2838 3513 2113 
z
" transform="scale(0.015625)"/>
      <path id="DejaVuSans-79" d="M 2059 -325 
Q 1816 -950 1584 -1140 
Q 1353 -1331 966 -1331 
L 506 -1331 
L 506 -850 
L 844 -850 
Q 1081 -850 1212 -737 
Q 1344 -625 1503 -206 
L 1606 56 
L 191 3500 
L 800 3500 
L 1894 763 
L 2988 3500 
L 3597 3500 
L 2059 -325 
z
" transform="scale(0.015625)"/>
      <path id="DejaVuSans-45" d="M 628 4666 
L 3578 4666 
L 3578 4134 
L 1259 4134 
L 1259 2753 
L 3481 2753 
L 3481 2222 
L 1259 2222 
L 1259 531 
L 3634 531 
L 3634 0 
L 628 0 
L 628 4666 
z
" transform="scale(0.015625)"/>
      <path id="DejaVuSans-64" d="M 2906 2969 
L 2906 4863 
L 3481 4863 
L 3481 0 
L 2906 0 
L 2906 525 
Q 2725 213 2448 61 
Q 2172 -91 1784 -91 
Q 1150 -91 751 415 
Q 353 922 353 1747 
Q 353 2572 751 3078 
Q 1150 3584 1784 3584 
Q 2172 3584 2448 3432 
Q 2725 3281 2906 2969 
z
M 947 1747 
Q 947 1113 1208 752 
Q 1469 391 1925 391 
Q 2381 391 2643 752 
Q 2906 1113 2906 1747 
Q 2906 2381 2643 2742 
Q 2381 3103 1925 3103 
Q 1469 3103 1208 2742 
Q 947 2381 947 1747 
z
" transform="scale(0.015625)"/>
      <path id="DejaVuSans-2c" d="M 750 794 
L 1409 794 
L 1409 256 
L 897 -744 
L 494 -744 
L 750 256 
L 750 794 
z
" transform="scale(0.015625)"/>
      <path id="DejaVuSans-4f" d="M 2522 4238 
Q 1834 4238 1429 3725 
Q 1025 3213 1025 2328 
Q 1025 1447 1429 934 
Q 1834 422 2522 422 
Q 3209 422 3611 934 
Q 4013 1447 4013 2328 
Q 4013 3213 3611 3725 
Q 3209 4238 2522 4238 
z
M 2522 4750 
Q 3503 4750 4090 4092 
Q 4678 3434 4678 2328 
Q 4678 1225 4090 567 
Q 3503 -91 2522 -91 
Q 1538 -91 948 565 
Q 359 1222 359 2328 
Q 359 3434 948 4092 
Q 1538 4750 2522 4750 
z
" transform="scale(0.015625)"/>
      <path id="DejaVuSans-3d" d="M 678 2906 
L 4684 2906 
L 4684 2381 
L 678 2381 
L 678 2906 
z
M 678 1631 
L 4684 1631 
L 4684 1100 
L 678 1100 
L 678 1631 
z
" transform="scale(0.015625)"/>
      <path id="DejaVuSans-39" d="M 703 97 
L 703 672 
Q 941 559 1184 500 
Q 1428 441 1663 441 
Q 2288 441 2617 861 
Q 2947 1281 2994 2138 
Q 2813 1869 2534 1725 
Q 2256 1581 1919 1581 
Q 1219 1581 811 2004 
Q 403 2428 403 3163 
Q 403 3881 828 4315 
Q 1253 4750 1959 4750 
Q 2769 4750 3195 4129 
Q 3622 3509 3622 2328 
Q 3622 1225 3098 567 
Q 2575 -91 1691 -91 
Q 1453 -91 1209 -44 
Q 966 3 703 97 
z
M 1959 2075 
Q 2384 2075 2632 2365 
Q 2881 2656 2881 3163 
Q 2881 3666 2632 3958 
Q 2384 4250 1959 4250 
Q 1534 4250 1286 3958 
Q 1038 3666 1038 3163 
Q 1038 2656 1286 2365 
Q 1534 2075 1959 2075 
z
" transform="scale(0.015625)"/>
     </defs>
     <use xlink:href="#DejaVuSans-4e"/>
     <use xlink:href="#DejaVuSans-54" x="74.804688"/>
     <use xlink:href="#DejaVuSans-52" x="135.888672"/>
     <use xlink:href="#DejaVuSans-5f" x="205.371094"/>
     <use xlink:href="#DejaVuSans-43" x="255.371094"/>
     <use xlink:href="#DejaVuSans-33" x="325.195312"/>
     <use xlink:href="#DejaVuSans-5f" x="388.818359"/>
     <use xlink:href="#DejaVuSans-30" x="438.818359"/>
     <use xlink:href="#DejaVuSans-30" x="502.441406"/>
     <use xlink:href="#DejaVuSans-35" x="566.064453"/>
     <use xlink:href="#DejaVuSans-5f" x="629.6875"/>
     <use xlink:href="#DejaVuSans-63" x="679.6875"/>
     <use xlink:href="#DejaVuSans-72" x="734.667969"/>
     <use xlink:href="#DejaVuSans-6f" x="773.53125"/>
     <use xlink:href="#DejaVuSans-70" x="834.712891"/>
     <use xlink:href="#DejaVuSans-20" x="898.189453"/>
     <use xlink:href="#DejaVuSans-2d" x="929.976562"/>
     <use xlink:href="#DejaVuSans-20" x="966.060547"/>
     <use xlink:href="#DejaVuSans-49" x="997.847656"/>
     <use xlink:href="#DejaVuSans-6e" x="1027.339844"/>
     <use xlink:href="#DejaVuSans-74" x="1090.71875"/>
     <use xlink:href="#DejaVuSans-65" x="1129.927734"/>
     <use xlink:href="#DejaVuSans-6e" x="1191.451172"/>
     <use xlink:href="#DejaVuSans-73" x="1254.830078"/>
     <use xlink:href="#DejaVuSans-69" x="1306.929688"/>
     <use xlink:href="#DejaVuSans-74" x="1334.712891"/>
     <use xlink:href="#DejaVuSans-79" x="1373.921875"/>
     <use xlink:href="#DejaVuSans-20" x="1433.101562"/>
     <use xlink:href="#DejaVuSans-45" x="1464.888672"/>
     <use xlink:href="#DejaVuSans-71" x="1528.072266"/>
     <use xlink:href="#DejaVuSans-75" x="1591.548828"/>
     <use xlink:href="#DejaVuSans-61" x="1654.927734"/>
     <use xlink:href="#DejaVuSans-6c" x="1716.207031"/>
     <use xlink:href="#DejaVuSans-69" x="1743.990234"/>
     <use xlink:href="#DejaVuSans-7a" x="1771.773438"/>
     <use xlink:href="#DejaVuSans-65" x="1824.263672"/>
     <use xlink:href="#DejaVuSans-64" x="1885.787109"/>
     <use xlink:href="#DejaVuSans-2c" x="1949.263672"/>
     <use xlink:href="#DejaVuSans-20" x="1981.050781"/>
     <use xlink:href="#DejaVuSans-52" x="2012.837891"/>
     <use xlink:href="#DejaVuSans-4f" x="2082.320312"/>
     <use xlink:href="#DejaVuSans-49" x="2161.03125"/>
     <use xlink:href="#DejaVuSans-3d" x="2190.523438"/>
     <use xlink:href="#DejaVuSans-39" x="2274.3125"/>
    </g>
   </g>
  </g>
 </g>
 <defs>
  <clipPath id="p897bf64345">
   <rect x="43.78125" y="35.7555" width="279" height="163.08"/>
  </clipPath>
 </defs>
</svg>
