<?xml version="1.0" encoding="utf-8" standalone="no"?>
<!DOCTYPE svg PUBLIC "-//W3C//DTD SVG 1.1//EN"
  "http://www.w3.org/Graphics/SVG/1.1/DTD/svg11.dtd">
<svg xmlns:xlink="http://www.w3.org/1999/xlink" width="334.576875pt" height="236.39175pt" viewBox="0 0 334.576875 236.39175" xmlns="http://www.w3.org/2000/svg" version="1.1">
 <metadata>
  <rdf:RDF xmlns:dc="http://purl.org/dc/elements/1.1/" xmlns:cc="http://creativecommons.org/ns#" xmlns:rdf="http://www.w3.org/1999/02/22-rdf-syntax-ns#">
   <cc:Work>
    <dc:type rdf:resource="http://purl.org/dc/dcmitype/StillImage"/>
    <dc:date>2025-01-27T16:06:42.079136</dc:date>
    <dc:format>image/svg+xml</dc:format>
    <dc:creator>
     <cc:Agent>
      <dc:title>Matplotlib v3.5.2, https://matplotlib.org/</dc:title>
     </cc:Agent>
    </dc:creator>
   </cc:Work>
  </rdf:RDF>
 </metadata>
 <defs>
  <style type="text/css">*{stroke-linejoin: round; stroke-linecap: butt}</style>
 </defs>
 <g id="figure_1">
  <g id="patch_1">
   <path d="M 0 236.39175 
L 334.576875 236.39175 
L 334.576875 0 
L 0 0 
L 0 236.39175 
z
" style="fill: none"/>
  </g>
  <g id="axes_1">
   <g id="patch_2">
    <path d="M 43.78125 198.8355 
L 322.78125 198.8355 
L 322.78125 35.7555 
L 43.78125 35.7555 
z
" style="fill: #ffffff"/>
   </g>
   <g id="matplotlib.axis_1">
    <g id="xtick_1">
     <g id="line2d_1">
      <defs>
       <path id="m7ea7cac892" d="M 0 0 
L 0 3.5 
" style="stroke: #000000; stroke-width: 0.8"/>
      </defs>
      <g>
       <use xlink:href="#m7ea7cac892" x="56.427557" y="198.8355" style="stroke: #000000; stroke-width: 0.8"/>
      </g>
     </g>
     <g id="text_1">
      <!-- 0 -->
      <g transform="translate(53.246307 213.433938)scale(0.1 -0.1)">
       <defs>
        <path id="DejaVuSans-30" d="M 2034 4250 
Q 1547 4250 1301 3770 
Q 1056 3291 1056 2328 
Q 1056 1369 1301 889 
Q 1547 409 2034 409 
Q 2525 409 2770 889 
Q 3016 1369 3016 2328 
Q 3016 3291 2770 3770 
Q 2525 4250 2034 4250 
z
M 2034 4750 
Q 2819 4750 3233 4129 
Q 3647 3509 3647 2328 
Q 3647 1150 3233 529 
Q 2819 -91 2034 -91 
Q 1250 -91 836 529 
Q 422 1150 422 2328 
Q 422 3509 836 4129 
Q 1250 4750 2034 4750 
z
" transform="scale(0.015625)"/>
       </defs>
       <use xlink:href="#DejaVuSans-30"/>
      </g>
     </g>
    </g>
    <g id="xtick_2">
     <g id="line2d_2">
      <g>
       <use xlink:href="#m7ea7cac892" x="98.703102" y="198.8355" style="stroke: #000000; stroke-width: 0.8"/>
      </g>
     </g>
     <g id="text_2">
      <!-- 50 -->
      <g transform="translate(92.340602 213.433938)scale(0.1 -0.1)">
       <defs>
        <path id="DejaVuSans-35" d="M 691 4666 
L 3169 4666 
L 3169 4134 
L 1269 4134 
L 1269 2991 
Q 1406 3038 1543 3061 
Q 1681 3084 1819 3084 
Q 2600 3084 3056 2656 
Q 3513 2228 3513 1497 
Q 3513 744 3044 326 
Q 2575 -91 1722 -91 
Q 1428 -91 1123 -41 
Q 819 9 494 109 
L 494 744 
Q 775 591 1075 516 
Q 1375 441 1709 441 
Q 2250 441 2565 725 
Q 2881 1009 2881 1497 
Q 2881 1984 2565 2268 
Q 2250 2553 1709 2553 
Q 1456 2553 1204 2497 
Q 953 2441 691 2322 
L 691 4666 
z
" transform="scale(0.015625)"/>
       </defs>
       <use xlink:href="#DejaVuSans-35"/>
       <use xlink:href="#DejaVuSans-30" x="63.623047"/>
      </g>
     </g>
    </g>
    <g id="xtick_3">
     <g id="line2d_3">
      <g>
       <use xlink:href="#m7ea7cac892" x="140.978648" y="198.8355" style="stroke: #000000; stroke-width: 0.8"/>
      </g>
     </g>
     <g id="text_3">
      <!-- 100 -->
      <g transform="translate(131.434898 213.433938)scale(0.1 -0.1)">
       <defs>
        <path id="DejaVuSans-31" d="M 794 531 
L 1825 531 
L 1825 4091 
L 703 3866 
L 703 4441 
L 1819 4666 
L 2450 4666 
L 2450 531 
L 3481 531 
L 3481 0 
L 794 0 
L 794 531 
z
" transform="scale(0.015625)"/>
       </defs>
       <use xlink:href="#DejaVuSans-31"/>
       <use xlink:href="#DejaVuSans-30" x="63.623047"/>
       <use xlink:href="#DejaVuSans-30" x="127.246094"/>
      </g>
     </g>
    </g>
    <g id="xtick_4">
     <g id="line2d_4">
      <g>
       <use xlink:href="#m7ea7cac892" x="183.254194" y="198.8355" style="stroke: #000000; stroke-width: 0.8"/>
      </g>
     </g>
     <g id="text_4">
      <!-- 150 -->
      <g transform="translate(173.710444 213.433938)scale(0.1 -0.1)">
       <use xlink:href="#DejaVuSans-31"/>
       <use xlink:href="#DejaVuSans-35" x="63.623047"/>
       <use xlink:href="#DejaVuSans-30" x="127.246094"/>
      </g>
     </g>
    </g>
    <g id="xtick_5">
     <g id="line2d_5">
      <g>
       <use xlink:href="#m7ea7cac892" x="225.529739" y="198.8355" style="stroke: #000000; stroke-width: 0.8"/>
      </g>
     </g>
     <g id="text_5">
      <!-- 200 -->
      <g transform="translate(215.985989 213.433938)scale(0.1 -0.1)">
       <defs>
        <path id="DejaVuSans-32" d="M 1228 531 
L 3431 531 
L 3431 0 
L 469 0 
L 469 531 
Q 828 903 1448 1529 
Q 2069 2156 2228 2338 
Q 2531 2678 2651 2914 
Q 2772 3150 2772 3378 
Q 2772 3750 2511 3984 
Q 2250 4219 1831 4219 
Q 1534 4219 1204 4116 
Q 875 4013 500 3803 
L 500 4441 
Q 881 4594 1212 4672 
Q 1544 4750 1819 4750 
Q 2544 4750 2975 4387 
Q 3406 4025 3406 3419 
Q 3406 3131 3298 2873 
Q 3191 2616 2906 2266 
Q 2828 2175 2409 1742 
Q 1991 1309 1228 531 
z
" transform="scale(0.015625)"/>
       </defs>
       <use xlink:href="#DejaVuSans-32"/>
       <use xlink:href="#DejaVuSans-30" x="63.623047"/>
       <use xlink:href="#DejaVuSans-30" x="127.246094"/>
      </g>
     </g>
    </g>
    <g id="xtick_6">
     <g id="line2d_6">
      <g>
       <use xlink:href="#m7ea7cac892" x="267.805285" y="198.8355" style="stroke: #000000; stroke-width: 0.8"/>
      </g>
     </g>
     <g id="text_6">
      <!-- 250 -->
      <g transform="translate(258.261535 213.433938)scale(0.1 -0.1)">
       <use xlink:href="#DejaVuSans-32"/>
       <use xlink:href="#DejaVuSans-35" x="63.623047"/>
       <use xlink:href="#DejaVuSans-30" x="127.246094"/>
      </g>
     </g>
    </g>
    <g id="xtick_7">
     <g id="line2d_7">
      <g>
       <use xlink:href="#m7ea7cac892" x="310.080831" y="198.8355" style="stroke: #000000; stroke-width: 0.8"/>
      </g>
     </g>
     <g id="text_7">
      <!-- 300 -->
      <g transform="translate(300.537081 213.433938)scale(0.1 -0.1)">
       <defs>
        <path id="DejaVuSans-33" d="M 2597 2516 
Q 3050 2419 3304 2112 
Q 3559 1806 3559 1356 
Q 3559 666 3084 287 
Q 2609 -91 1734 -91 
Q 1441 -91 1130 -33 
Q 819 25 488 141 
L 488 750 
Q 750 597 1062 519 
Q 1375 441 1716 441 
Q 2309 441 2620 675 
Q 2931 909 2931 1356 
Q 2931 1769 2642 2001 
Q 2353 2234 1838 2234 
L 1294 2234 
L 1294 2753 
L 1863 2753 
Q 2328 2753 2575 2939 
Q 2822 3125 2822 3475 
Q 2822 3834 2567 4026 
Q 2313 4219 1838 4219 
Q 1578 4219 1281 4162 
Q 984 4106 628 3988 
L 628 4550 
Q 988 4650 1302 4700 
Q 1616 4750 1894 4750 
Q 2613 4750 3031 4423 
Q 3450 4097 3450 3541 
Q 3450 3153 3228 2886 
Q 3006 2619 2597 2516 
z
" transform="scale(0.015625)"/>
       </defs>
       <use xlink:href="#DejaVuSans-33"/>
       <use xlink:href="#DejaVuSans-30" x="63.623047"/>
       <use xlink:href="#DejaVuSans-30" x="127.246094"/>
      </g>
     </g>
    </g>
    <g id="text_8">
     <!-- Time [s] -->
     <g transform="translate(162.952344 227.112063)scale(0.1 -0.1)">
      <defs>
       <path id="DejaVuSans-54" d="M -19 4666 
L 3928 4666 
L 3928 4134 
L 2272 4134 
L 2272 0 
L 1638 0 
L 1638 4134 
L -19 4134 
L -19 4666 
z
" transform="scale(0.015625)"/>
       <path id="DejaVuSans-69" d="M 603 3500 
L 1178 3500 
L 1178 0 
L 603 0 
L 603 3500 
z
M 603 4863 
L 1178 4863 
L 1178 4134 
L 603 4134 
L 603 4863 
z
" transform="scale(0.015625)"/>
       <path id="DejaVuSans-6d" d="M 3328 2828 
Q 3544 3216 3844 3400 
Q 4144 3584 4550 3584 
Q 5097 3584 5394 3201 
Q 5691 2819 5691 2113 
L 5691 0 
L 5113 0 
L 5113 2094 
Q 5113 2597 4934 2840 
Q 4756 3084 4391 3084 
Q 3944 3084 3684 2787 
Q 3425 2491 3425 1978 
L 3425 0 
L 2847 0 
L 2847 2094 
Q 2847 2600 2669 2842 
Q 2491 3084 2119 3084 
Q 1678 3084 1418 2786 
Q 1159 2488 1159 1978 
L 1159 0 
L 581 0 
L 581 3500 
L 1159 3500 
L 1159 2956 
Q 1356 3278 1631 3431 
Q 1906 3584 2284 3584 
Q 2666 3584 2933 3390 
Q 3200 3197 3328 2828 
z
" transform="scale(0.015625)"/>
       <path id="DejaVuSans-65" d="M 3597 1894 
L 3597 1613 
L 953 1613 
Q 991 1019 1311 708 
Q 1631 397 2203 397 
Q 2534 397 2845 478 
Q 3156 559 3463 722 
L 3463 178 
Q 3153 47 2828 -22 
Q 2503 -91 2169 -91 
Q 1331 -91 842 396 
Q 353 884 353 1716 
Q 353 2575 817 3079 
Q 1281 3584 2069 3584 
Q 2775 3584 3186 3129 
Q 3597 2675 3597 1894 
z
M 3022 2063 
Q 3016 2534 2758 2815 
Q 2500 3097 2075 3097 
Q 1594 3097 1305 2825 
Q 1016 2553 972 2059 
L 3022 2063 
z
" transform="scale(0.015625)"/>
       <path id="DejaVuSans-20" transform="scale(0.015625)"/>
       <path id="DejaVuSans-5b" d="M 550 4863 
L 1875 4863 
L 1875 4416 
L 1125 4416 
L 1125 -397 
L 1875 -397 
L 1875 -844 
L 550 -844 
L 550 4863 
z
" transform="scale(0.015625)"/>
       <path id="DejaVuSans-73" d="M 2834 3397 
L 2834 2853 
Q 2591 2978 2328 3040 
Q 2066 3103 1784 3103 
Q 1356 3103 1142 2972 
Q 928 2841 928 2578 
Q 928 2378 1081 2264 
Q 1234 2150 1697 2047 
L 1894 2003 
Q 2506 1872 2764 1633 
Q 3022 1394 3022 966 
Q 3022 478 2636 193 
Q 2250 -91 1575 -91 
Q 1294 -91 989 -36 
Q 684 19 347 128 
L 347 722 
Q 666 556 975 473 
Q 1284 391 1588 391 
Q 1994 391 2212 530 
Q 2431 669 2431 922 
Q 2431 1156 2273 1281 
Q 2116 1406 1581 1522 
L 1381 1569 
Q 847 1681 609 1914 
Q 372 2147 372 2553 
Q 372 3047 722 3315 
Q 1072 3584 1716 3584 
Q 2034 3584 2315 3537 
Q 2597 3491 2834 3397 
z
" transform="scale(0.015625)"/>
       <path id="DejaVuSans-5d" d="M 1947 4863 
L 1947 -844 
L 622 -844 
L 622 -397 
L 1369 -397 
L 1369 4416 
L 622 4416 
L 622 4863 
L 1947 4863 
z
" transform="scale(0.015625)"/>
      </defs>
      <use xlink:href="#DejaVuSans-54"/>
      <use xlink:href="#DejaVuSans-69" x="57.958984"/>
      <use xlink:href="#DejaVuSans-6d" x="85.742188"/>
      <use xlink:href="#DejaVuSans-65" x="183.154297"/>
      <use xlink:href="#DejaVuSans-20" x="244.677734"/>
      <use xlink:href="#DejaVuSans-5b" x="276.464844"/>
      <use xlink:href="#DejaVuSans-73" x="315.478516"/>
      <use xlink:href="#DejaVuSans-5d" x="367.578125"/>
     </g>
    </g>
   </g>
   <g id="matplotlib.axis_2">
    <g id="ytick_1">
     <g id="line2d_8">
      <defs>
       <path id="m2b0e5d31b7" d="M 0 0 
L -3.5 0 
" style="stroke: #000000; stroke-width: 0.8"/>
      </defs>
      <g>
       <use xlink:href="#m2b0e5d31b7" x="43.78125" y="195.923357" style="stroke: #000000; stroke-width: 0.8"/>
      </g>
     </g>
     <g id="text_9">
      <!-- 0.0 -->
      <g transform="translate(20.878125 199.722576)scale(0.1 -0.1)">
       <defs>
        <path id="DejaVuSans-2e" d="M 684 794 
L 1344 794 
L 1344 0 
L 684 0 
L 684 794 
z
" transform="scale(0.015625)"/>
       </defs>
       <use xlink:href="#DejaVuSans-30"/>
       <use xlink:href="#DejaVuSans-2e" x="63.623047"/>
       <use xlink:href="#DejaVuSans-30" x="95.410156"/>
      </g>
     </g>
    </g>
    <g id="ytick_2">
     <g id="line2d_9">
      <g>
       <use xlink:href="#m2b0e5d31b7" x="43.78125" y="166.801929" style="stroke: #000000; stroke-width: 0.8"/>
      </g>
     </g>
     <g id="text_10">
      <!-- 0.2 -->
      <g transform="translate(20.878125 170.601147)scale(0.1 -0.1)">
       <use xlink:href="#DejaVuSans-30"/>
       <use xlink:href="#DejaVuSans-2e" x="63.623047"/>
       <use xlink:href="#DejaVuSans-32" x="95.410156"/>
      </g>
     </g>
    </g>
    <g id="ytick_3">
     <g id="line2d_10">
      <g>
       <use xlink:href="#m2b0e5d31b7" x="43.78125" y="137.6805" style="stroke: #000000; stroke-width: 0.8"/>
      </g>
     </g>
     <g id="text_11">
      <!-- 0.4 -->
      <g transform="translate(20.878125 141.479719)scale(0.1 -0.1)">
       <defs>
        <path id="DejaVuSans-34" d="M 2419 4116 
L 825 1625 
L 2419 1625 
L 2419 4116 
z
M 2253 4666 
L 3047 4666 
L 3047 1625 
L 3713 1625 
L 3713 1100 
L 3047 1100 
L 3047 0 
L 2419 0 
L 2419 1100 
L 313 1100 
L 313 1709 
L 2253 4666 
z
" transform="scale(0.015625)"/>
       </defs>
       <use xlink:href="#DejaVuSans-30"/>
       <use xlink:href="#DejaVuSans-2e" x="63.623047"/>
       <use xlink:href="#DejaVuSans-34" x="95.410156"/>
      </g>
     </g>
    </g>
    <g id="ytick_4">
     <g id="line2d_11">
      <g>
       <use xlink:href="#m2b0e5d31b7" x="43.78125" y="108.559071" style="stroke: #000000; stroke-width: 0.8"/>
      </g>
     </g>
     <g id="text_12">
      <!-- 0.6 -->
      <g transform="translate(20.878125 112.35829)scale(0.1 -0.1)">
       <defs>
        <path id="DejaVuSans-36" d="M 2113 2584 
Q 1688 2584 1439 2293 
Q 1191 2003 1191 1497 
Q 1191 994 1439 701 
Q 1688 409 2113 409 
Q 2538 409 2786 701 
Q 3034 994 3034 1497 
Q 3034 2003 2786 2293 
Q 2538 2584 2113 2584 
z
M 3366 4563 
L 3366 3988 
Q 3128 4100 2886 4159 
Q 2644 4219 2406 4219 
Q 1781 4219 1451 3797 
Q 1122 3375 1075 2522 
Q 1259 2794 1537 2939 
Q 1816 3084 2150 3084 
Q 2853 3084 3261 2657 
Q 3669 2231 3669 1497 
Q 3669 778 3244 343 
Q 2819 -91 2113 -91 
Q 1303 -91 875 529 
Q 447 1150 447 2328 
Q 447 3434 972 4092 
Q 1497 4750 2381 4750 
Q 2619 4750 2861 4703 
Q 3103 4656 3366 4563 
z
" transform="scale(0.015625)"/>
       </defs>
       <use xlink:href="#DejaVuSans-30"/>
       <use xlink:href="#DejaVuSans-2e" x="63.623047"/>
       <use xlink:href="#DejaVuSans-36" x="95.410156"/>
      </g>
     </g>
    </g>
    <g id="ytick_5">
     <g id="line2d_12">
      <g>
       <use xlink:href="#m2b0e5d31b7" x="43.78125" y="79.437643" style="stroke: #000000; stroke-width: 0.8"/>
      </g>
     </g>
     <g id="text_13">
      <!-- 0.8 -->
      <g transform="translate(20.878125 83.236862)scale(0.1 -0.1)">
       <defs>
        <path id="DejaVuSans-38" d="M 2034 2216 
Q 1584 2216 1326 1975 
Q 1069 1734 1069 1313 
Q 1069 891 1326 650 
Q 1584 409 2034 409 
Q 2484 409 2743 651 
Q 3003 894 3003 1313 
Q 3003 1734 2745 1975 
Q 2488 2216 2034 2216 
z
M 1403 2484 
Q 997 2584 770 2862 
Q 544 3141 544 3541 
Q 544 4100 942 4425 
Q 1341 4750 2034 4750 
Q 2731 4750 3128 4425 
Q 3525 4100 3525 3541 
Q 3525 3141 3298 2862 
Q 3072 2584 2669 2484 
Q 3125 2378 3379 2068 
Q 3634 1759 3634 1313 
Q 3634 634 3220 271 
Q 2806 -91 2034 -91 
Q 1263 -91 848 271 
Q 434 634 434 1313 
Q 434 1759 690 2068 
Q 947 2378 1403 2484 
z
M 1172 3481 
Q 1172 3119 1398 2916 
Q 1625 2713 2034 2713 
Q 2441 2713 2670 2916 
Q 2900 3119 2900 3481 
Q 2900 3844 2670 4047 
Q 2441 4250 2034 4250 
Q 1625 4250 1398 4047 
Q 1172 3844 1172 3481 
z
" transform="scale(0.015625)"/>
       </defs>
       <use xlink:href="#DejaVuSans-30"/>
       <use xlink:href="#DejaVuSans-2e" x="63.623047"/>
       <use xlink:href="#DejaVuSans-38" x="95.410156"/>
      </g>
     </g>
    </g>
    <g id="ytick_6">
     <g id="line2d_13">
      <g>
       <use xlink:href="#m2b0e5d31b7" x="43.78125" y="50.316214" style="stroke: #000000; stroke-width: 0.8"/>
      </g>
     </g>
     <g id="text_14">
      <!-- 1.0 -->
      <g transform="translate(20.878125 54.115433)scale(0.1 -0.1)">
       <use xlink:href="#DejaVuSans-31"/>
       <use xlink:href="#DejaVuSans-2e" x="63.623047"/>
       <use xlink:href="#DejaVuSans-30" x="95.410156"/>
      </g>
     </g>
    </g>
    <g id="text_15">
     <!-- (F-F$^o$)/F$^o$ -->
     <g transform="translate(14.798438 137.9955)rotate(-90)scale(0.1 -0.1)">
      <defs>
       <path id="DejaVuSans-28" d="M 1984 4856 
Q 1566 4138 1362 3434 
Q 1159 2731 1159 2009 
Q 1159 1288 1364 580 
Q 1569 -128 1984 -844 
L 1484 -844 
Q 1016 -109 783 600 
Q 550 1309 550 2009 
Q 550 2706 781 3412 
Q 1013 4119 1484 4856 
L 1984 4856 
z
" transform="scale(0.015625)"/>
       <path id="DejaVuSans-46" d="M 628 4666 
L 3309 4666 
L 3309 4134 
L 1259 4134 
L 1259 2759 
L 3109 2759 
L 3109 2228 
L 1259 2228 
L 1259 0 
L 628 0 
L 628 4666 
z
" transform="scale(0.015625)"/>
       <path id="DejaVuSans-2d" d="M 313 2009 
L 1997 2009 
L 1997 1497 
L 313 1497 
L 313 2009 
z
" transform="scale(0.015625)"/>
       <path id="DejaVuSans-Oblique-6f" d="M 1625 -91 
Q 1009 -91 651 289 
Q 294 669 294 1325 
Q 294 1706 417 2101 
Q 541 2497 738 2766 
Q 1047 3184 1428 3384 
Q 1809 3584 2291 3584 
Q 2888 3584 3255 3212 
Q 3622 2841 3622 2241 
Q 3622 1825 3500 1412 
Q 3378 1000 3181 728 
Q 2875 309 2494 109 
Q 2113 -91 1625 -91 
z
M 891 1344 
Q 891 869 1089 633 
Q 1288 397 1691 397 
Q 2269 397 2648 901 
Q 3028 1406 3028 2181 
Q 3028 2634 2825 2865 
Q 2622 3097 2228 3097 
Q 1903 3097 1650 2945 
Q 1397 2794 1197 2484 
Q 1050 2253 970 1956 
Q 891 1659 891 1344 
z
" transform="scale(0.015625)"/>
       <path id="DejaVuSans-29" d="M 513 4856 
L 1013 4856 
Q 1481 4119 1714 3412 
Q 1947 2706 1947 2009 
Q 1947 1309 1714 600 
Q 1481 -109 1013 -844 
L 513 -844 
Q 928 -128 1133 580 
Q 1338 1288 1338 2009 
Q 1338 2731 1133 3434 
Q 928 4138 513 4856 
z
" transform="scale(0.015625)"/>
       <path id="DejaVuSans-2f" d="M 1625 4666 
L 2156 4666 
L 531 -594 
L 0 -594 
L 1625 4666 
z
" transform="scale(0.015625)"/>
      </defs>
      <use xlink:href="#DejaVuSans-28" transform="translate(0 0.51875)"/>
      <use xlink:href="#DejaVuSans-46" transform="translate(39.013672 0.51875)"/>
      <use xlink:href="#DejaVuSans-2d" transform="translate(96.533203 0.51875)"/>
      <use xlink:href="#DejaVuSans-46" transform="translate(132.617188 0.51875)"/>
      <use xlink:href="#DejaVuSans-Oblique-6f" transform="translate(191.09375 38.8)scale(0.7)"/>
      <use xlink:href="#DejaVuSans-29" transform="translate(236.655273 0.51875)"/>
      <use xlink:href="#DejaVuSans-2f" transform="translate(275.668945 0.51875)"/>
      <use xlink:href="#DejaVuSans-46" transform="translate(309.360352 0.51875)"/>
      <use xlink:href="#DejaVuSans-Oblique-6f" transform="translate(367.836914 38.8)scale(0.7)"/>
     </g>
    </g>
   </g>
   <g id="line2d_14">
    <path d="M 56.463068 194.78974 
L 56.851158 194.118722 
L 56.985594 194.460158 
L 57.120876 194.481799 
L 57.254466 194.746733 
L 57.524184 193.427303 
L 57.658621 193.567903 
L 57.793902 193.458318 
L 57.928339 194.144085 
L 58.065311 193.904239 
L 58.200593 194.090188 
L 58.335029 194.674227 
L 58.469466 194.397853 
L 58.603902 194.437552 
L 58.874465 195.084998 
L 59.008902 195.902681 
L 59.143338 193.62938 
L 59.41221 195.290522 
L 59.547492 194.606409 
L 59.681928 195.238693 
L 59.816364 194.332653 
L 60.086082 195.239382 
L 60.223055 194.592349 
L 60.491928 195.33091 
L 60.761646 195.227252 
L 61.031364 195.923357 
L 61.1658 195.86822 
L 61.301082 195.635542 
L 61.435518 195.7443 
L 61.705236 195.10788 
L 61.839672 194.823373 
L 61.974108 195.444905 
L 62.10939 195.271086 
L 62.378263 195.6689 
L 62.513544 195.531471 
L 62.647135 194.346162 
L 62.782417 195.14496 
L 62.920235 195.069422 
L 63.054671 194.842258 
L 63.189107 195.051916 
L 63.324389 189.39844 
L 63.593262 188.433679 
L 63.862134 190.058016 
L 64.12847 190.092753 
L 64.397343 189.602033 
L 64.532624 189.734224 
L 64.667061 189.691217 
L 64.801497 190.159331 
L 64.936779 190.134519 
L 65.205651 191.019606 
L 65.340933 191.698757 
L 65.475369 191.477244 
L 65.610651 191.931435 
L 65.745087 191.119267 
L 65.879523 191.590964 
L 66.013959 190.7555 
L 66.149241 190.890448 
L 66.283677 191.583245 
L 66.418114 190.890586 
L 66.55255 191.895045 
L 66.687832 190.276497 
L 66.956704 191.766851 
L 67.09114 191.217548 
L 67.226422 191.649134 
L 67.361704 191.029531 
L 67.49614 191.064405 
L 67.765858 190.491394 
L 68.573321 192.402581 
L 68.707757 191.981196 
L 68.977475 192.69081 
L 69.111911 193.218334 
L 69.247193 192.525261 
L 69.381629 193.338808 
L 69.516066 192.759042 
L 69.650502 193.1898 
L 69.785784 194.427627 
L 70.055502 188.537199 
L 70.189092 187.754804 
L 70.324374 189.297263 
L 70.45881 189.035086 
L 70.594092 189.273416 
L 70.999092 190.363889 
L 71.267964 185.41534 
L 71.403246 184.877478 
L 71.538528 185.309063 
L 71.672964 186.391265 
L 71.808246 180.884453 
L 71.942682 180.361616 
L 72.2124 181.386476 
L 72.481272 183.583273 
L 72.615709 184.031675 
L 72.75099 185.205957 
L 72.886272 185.141308 
L 73.020708 185.779795 
L 73.15599 185.707566 
L 73.291272 186.038388 
L 73.425708 187.129688 
L 73.559299 186.968137 
L 73.694581 187.274009 
L 73.830708 188.289771 
L 73.965144 188.226777 
L 74.100426 189.009999 
L 74.234862 188.777596 
L 74.369298 190.232939 
L 74.50458 184.449339 
L 74.773453 183.490781 
L 74.908734 183.862956 
L 75.04317 185.122148 
L 75.178452 185.17632 
L 75.582606 186.323033 
L 75.717888 186.098625 
L 75.852324 187.086681 
L 75.986761 187.084338 
L 76.122042 188.145312 
L 76.256479 188.106716 
L 76.39176 188.207066 
L 76.526197 188.792483 
L 76.660633 187.58195 
L 76.930351 188.719289 
L 77.065633 187.906018 
L 77.200069 188.148758 
L 77.334505 188.721081 
L 77.469787 188.527412 
L 77.738659 182.786405 
L 78.278095 184.973278 
L 78.412531 184.877202 
L 78.950276 187.897747 
L 79.219149 187.408819 
L 79.354431 188.252278 
L 79.488867 188.004713 
L 79.758585 189.220623 
L 79.893021 188.713362 
L 80.162739 189.451922 
L 80.298021 188.914474 
L 80.432457 182.48839 
L 80.566893 182.56696 
L 80.70133 182.420571 
L 80.836611 182.49666 
L 81.240765 184.16111 
L 81.914638 185.393285 
L 82.049074 186.246255 
L 82.187738 185.637542 
L 82.322174 185.912814 
L 82.457456 179.982273 
L 82.591892 179.970832 
L 82.726328 180.150441 
L 82.860764 179.834368 
L 83.264073 181.816131 
L 83.399355 181.600408 
L 83.534637 182.163908 
L 83.669073 183.418965 
L 83.803509 182.92218 
L 84.073227 184.284617 
L 84.207663 184.565953 
L 84.344636 183.736692 
L 84.479072 185.745197 
L 84.614354 185.54946 
L 84.74879 184.215695 
L 84.884072 184.70545 
L 85.018508 186.120818 
L 85.287381 184.86135 
L 85.557099 179.625537 
L 85.691535 179.654759 
L 86.63428 182.856429 
L 86.903998 176.912105 
L 87.043507 177.048018 
L 87.312379 178.430579 
L 87.446816 178.467659 
L 87.717379 171.755964 
L 88.390406 175.860917 
L 88.524842 175.977118 
L 88.793714 179.024956 
L 88.928996 178.382196 
L 89.33315 180.152095 
L 89.467587 180.717939 
L 89.602023 180.709531 
L 89.737305 181.277442 
L 89.871741 180.840206 
L 90.14315 174.38545 
L 90.277586 174.621436 
L 90.412868 174.349059 
L 90.547304 175.842446 
L 90.680895 175.444495 
L 90.950613 177.001565 
L 91.221176 177.359818 
L 91.356458 178.090521 
L 91.626176 177.675891 
L 91.760612 178.268752 
L 92.029485 172.317259 
L 92.164766 172.824934 
L 92.704202 174.366428 
L 92.838639 173.322408 
L 93.241947 159.930034 
L 93.377229 160.584924 
L 93.646102 164.847155 
L 93.91582 166.265418 
L 94.050256 167.573682 
L 94.184692 161.357118 
L 94.589692 163.629591 
L 94.724974 165.137727 
L 94.860255 164.922831 
L 94.994692 167.418333 
L 95.129128 167.196407 
L 95.264409 168.547402 
L 95.398846 168.301629 
L 95.534127 169.909838 
L 95.803 163.798586 
L 95.937436 155.350764 
L 96.071872 154.954605 
L 96.34159 158.206863 
L 96.476027 152.66945 
L 96.610463 152.058531 
L 96.880181 155.466001 
L 97.015463 156.636836 
L 97.284335 159.525465 
L 97.820389 164.864385 
L 97.954825 162.467854 
L 98.223698 151.676018 
L 98.628697 156.329722 
L 99.032852 160.873842 
L 99.43616 165.261923 
L 99.839469 167.673066 
L 100.243623 170.359343 
L 100.378059 169.846017 
L 100.782214 172.213464 
L 100.91665 171.833432 
L 101.051086 173.003578 
L 101.185522 173.115506 
L 101.45524 164.868107 
L 101.590522 164.874172 
L 102.262703 169.284998 
L 102.39714 168.865681 
L 102.666858 171.95432 
L 102.801294 171.243741 
L 102.933193 171.448713 
L 103.06763 172.519888 
L 103.337348 165.423475 
L 103.472629 166.540276 
L 103.60622 166.612781 
L 104.279247 170.628825 
L 104.41622 169.6529 
L 104.685092 171.081087 
L 104.819528 170.744062 
L 105.089246 171.798282 
L 105.763118 173.59575 
L 105.897555 174.29089 
L 106.167273 173.740346 
L 106.298327 173.710435 
L 106.568045 174.014653 
L 106.699945 173.382507 
L 106.834381 173.80596 
L 107.103253 173.804581 
L 107.377199 174.542039 
L 107.512481 174.906357 
L 107.646917 176.444543 
L 108.187198 176.372313 
L 108.32248 177.591945 
L 108.456916 177.563411 
L 108.591352 177.846126 
L 108.725789 177.723722 
L 108.860225 178.645889 
L 108.994661 178.148415 
L 109.129097 178.756577 
L 109.264379 178.456769 
L 109.399661 179.809281 
L 109.534097 179.23558 
L 109.669379 179.382382 
L 109.803815 179.361844 
L 109.938251 179.822514 
L 110.072688 179.389412 
L 110.207969 179.691839 
L 110.342406 179.269903 
L 110.881842 180.907335 
L 111.017123 180.515862 
L 111.154096 179.687704 
L 111.289378 181.150627 
L 111.423814 181.187569 
L 111.693532 181.756583 
L 111.96325 173.603469 
L 112.097686 173.267546 
L 112.23635 173.378647 
L 112.642195 175.616522 
L 112.777477 175.508316 
L 112.911913 176.34888 
L 113.043813 176.383616 
L 113.447122 178.126912 
L 113.582403 177.799398 
L 113.71684 177.820212 
L 113.851276 178.648646 
L 113.986558 177.633987 
L 114.120994 177.861013 
L 114.25543 178.823982 
L 114.389866 178.853204 
L 114.525148 179.423184 
L 114.929302 172.916323 
L 115.063739 174.299987 
L 115.199866 173.392983 
L 115.334302 175.00009 
L 115.468738 174.991957 
L 115.875429 177.122866 
L 116.279583 178.046825 
L 116.414865 178.598471 
L 116.549301 178.586065 
L 116.683737 178.13725 
L 116.819019 178.734384 
L 116.953455 178.658571 
L 117.088737 177.945097 
L 117.223173 178.623007 
L 117.358455 175.116016 
L 117.492891 164.62702 
L 117.627328 163.284433 
L 117.897046 164.369255 
L 118.166764 167.953576 
L 118.3012 167.8575 
L 118.436482 168.75968 
L 118.571763 171.836327 
L 118.7062 171.768921 
L 119.652326 176.348604 
L 119.786762 176.43641 
L 119.921199 177.436734 
L 120.053944 174.182408 
L 120.189226 157.275874 
L 120.592534 161.738666 
L 121.265561 169.278106 
L 121.400843 169.787985 
L 121.666333 172.986485 
L 121.801615 172.969531 
L 122.071333 174.938199 
L 122.205769 174.527566 
L 122.475487 149.962359 
L 122.609923 151.780779 
L 123.010696 159.499551 
L 123.41485 164.1261 
L 123.549286 165.244693 
L 123.683722 160.616903 
L 123.818159 160.183664 
L 123.95344 160.955583 
L 124.087877 160.867225 
L 124.222313 156.337993 
L 124.356749 156.288783 
L 124.761749 161.941846 
L 124.896185 162.988072 
L 125.165057 166.189328 
L 125.43393 168.072258 
L 125.572594 168.726735 
L 125.707875 170.079247 
L 125.842312 170.049197 
L 125.977593 169.809627 
L 126.112875 162.364885 
L 126.246466 162.353996 
L 126.381748 163.250248 
L 126.516184 165.297625 
L 126.651466 165.470204 
L 126.921184 167.430877 
L 127.05562 167.727652 
L 127.190056 167.247408 
L 127.458929 169.095464 
L 127.593365 168.829014 
L 127.863083 170.391874 
L 127.998364 170.882318 
L 128.132801 170.511797 
L 128.267237 171.097628 
L 128.401673 171.027328 
L 128.670546 171.42845 
L 128.939418 172.674547 
L 129.0747 172.796676 
L 129.209136 172.133515 
L 129.344418 164.930825 
L 129.478854 164.286825 
L 129.612445 164.615166 
L 130.019981 166.387546 
L 130.289699 167.717452 
L 130.424135 167.082549 
L 130.693853 127.582647 
L 131.367725 145.679865 
L 131.769343 153.099105 
L 132.17857 158.071364 
L 132.313007 158.490405 
L 132.582725 161.247395 
L 132.717161 163.431374 
L 132.852443 163.800516 
L 132.986879 162.261366 
L 133.122161 155.705433 
L 133.256597 155.940455 
L 133.526315 157.803536 
L 133.661597 160.207235 
L 133.796033 160.586854 
L 134.065751 153.775223 
L 134.200187 154.057387 
L 134.469905 156.911694 
L 135.009341 161.432656 
L 135.143777 162.235865 
L 135.279059 143.454672 
L 135.414341 141.549549 
L 136.088213 152.889447 
L 136.625958 157.695191 
L 136.76124 157.530883 
L 136.895676 139.999233 
L 137.030112 138.8193 
L 137.164548 133.815476 
L 137.703984 144.743776 
L 138.246802 151.787257 
L 138.919829 158.477724 
L 139.055111 159.299404 
L 139.323983 138.341676 
L 139.458419 139.664 
L 139.592856 133.848558 
L 140.40201 148.75596 
L 140.941446 154.712553 
L 141.212009 156.97965 
L 141.346445 158.083494 
L 141.616163 113.845253 
L 142.153908 131.334998 
L 142.423626 137.852197 
L 142.962217 146.739047 
L 143.097498 147.933729 
L 143.502498 153.364452 
L 143.636934 154.643632 
L 143.907498 125.065779 
L 144.58137 141.283651 
L 144.715806 106.357642 
L 144.850242 102.840588 
L 144.985524 106.856081 
L 145.11996 97.631792 
L 145.390524 107.796719 
L 145.929114 128.547269 
L 146.064396 130.749994 
L 146.334114 138.743763 
L 147.142423 151.728812 
L 147.277704 151.98961 
L 147.412141 152.653184 
L 147.681859 155.2092 
L 147.81714 154.707039 
L 147.951577 126.700179 
L 148.086858 128.204041 
L 148.630522 140.724561 
L 149.168267 147.317849 
L 149.437985 151.31749 
L 149.842984 155.282394 
L 149.977421 155.164401 
L 150.111857 155.605084 
L 150.245448 100.893699 
L 150.380729 100.866131 
L 151.459601 136.424147 
L 151.999037 145.975399 
L 152.132628 142.619208 
L 152.26791 93.625534 
L 152.402346 91.16463 
L 153.076218 118.242983 
L 153.346782 125.962445 
L 153.481218 117.798579 
L 153.6165 100.217719 
L 154.829808 134.84323 
L 154.964244 137.104952 
L 155.099526 128.614812 
L 155.234808 98.801386 
L 156.312834 130.351353 
L 156.716988 137.686096 
L 156.986706 97.847378 
L 157.121142 101.006317 
L 157.525297 116.228965 
L 158.065578 129.596803 
L 158.20086 122.266471 
L 158.335296 85.928954 
L 158.73945 99.313609 
L 159.278886 117.796649 
L 159.817477 129.586051 
L 160.221631 136.858627 
L 160.491349 140.465417 
L 160.761067 143.194838 
L 161.165221 146.308841 
L 161.704657 149.391691 
L 161.974375 81.271666 
L 162.243247 89.091615 
L 163.188529 119.473918 
L 163.862401 132.595431 
L 163.996837 133.474729 
L 164.403528 139.190648 
L 165.076555 143.926369 
L 165.346273 145.975813 
L 165.481554 145.881666 
L 165.751272 147.836688 
L 165.885708 148.588757 
L 166.02099 106.829202 
L 166.155426 102.129734 
L 166.560426 115.178604 
L 167.638453 136.590937 
L 168.31317 145.836041 
L 168.449298 146.315044 
L 168.846688 150.772322 
L 168.981124 150.540057 
L 169.251687 152.481708 
L 169.386124 153.047414 
L 169.52056 154.765209 
L 169.654996 154.934204 
L 169.789432 154.677265 
L 169.924714 155.975191 
L 170.194432 105.66071 
L 170.328868 107.831042 
L 171.002741 128.567946 
L 171.40774 135.9927 
L 171.811894 140.648058 
L 172.218585 145.629277 
L 172.353021 146.621606 
L 172.621894 99.279838 
L 172.757176 100.980402 
L 173.432739 121.341409 
L 173.836048 129.43856 
L 174.241047 135.044343 
L 175.050201 142.723968 
L 175.185483 143.637451 
L 175.455201 146.413325 
L 175.588792 146.818996 
L 175.723228 148.302183 
L 175.857664 147.451969 
L 175.9921 149.18341 
L 176.127382 149.144677 
L 176.263509 150.215852 
L 176.397946 149.695496 
L 176.667664 152.080173 
L 176.802945 151.744388 
L 177.072663 152.427536 
L 177.207945 153.325305 
L 177.342381 153.017365 
L 177.612099 153.574938 
L 177.881817 154.616339 
L 178.016254 154.304539 
L 178.55569 157.022106 
L 178.690126 157.30427 
L 178.959844 156.818237 
L 179.09428 157.762045 
L 179.228716 157.589328 
L 179.363998 156.66978 
L 179.903434 158.363039 
L 180.038716 157.7189 
L 180.173152 159.443725 
L 180.308434 159.407748 
L 180.44287 158.973957 
L 180.579843 159.817003 
L 180.715124 159.725062 
L 180.984842 158.906139 
L 181.120124 160.314201 
L 181.388997 159.662481 
L 181.65956 159.434765 
L 181.793996 159.578948 
L 181.929278 160.736688 
L 182.067096 160.796374 
L 182.202378 161.277721 
L 182.33766 161.341128 
L 182.607378 162.211467 
L 182.741814 161.66368 
L 182.87625 162.322016 
L 183.011532 162.235865 
L 183.146814 162.644017 
L 183.282096 162.098573 
L 183.416532 162.115804 
L 183.551813 162.608591 
L 183.68625 162.146129 
L 183.820686 162.610383 
L 183.955122 163.482375 
L 184.090404 162.846783 
L 184.225686 163.340811 
L 184.360967 163.190149 
L 184.495404 164.161664 
L 184.765122 164.112178 
L 185.035685 163.643376 
L 185.170967 163.745379 
L 185.306249 164.070688 
L 185.44153 164.046703 
L 185.575967 166.257698 
L 185.711248 164.607171 
L 185.981812 165.475855 
L 186.116248 166.008479 
L 186.25153 166.036323 
L 186.385966 165.468549 
L 186.521248 166.868341 
L 186.655684 166.802315 
L 186.790966 167.348723 
L 186.927093 166.970345 
L 187.062375 167.633919 
L 187.197657 167.286556 
L 187.332938 167.787613 
L 187.46822 167.807325 
L 187.603502 168.698064 
L 187.737093 168.626248 
L 187.872374 169.275762 
L 188.00681 168.779529 
L 188.142092 170.154233 
L 188.277374 170.133281 
L 188.412656 169.024751 
L 188.547092 170.607873 
L 188.682374 169.213871 
L 188.81681 169.457163 
L 189.086528 170.334807 
L 189.22181 170.325434 
L 189.356246 170.07139 
L 189.490682 170.435983 
L 189.625964 170.294143 
L 190.030118 171.087979 
L 190.300682 171.183504 
L 190.435118 170.954272 
L 190.569554 163.028597 
L 190.704836 122.277361 
L 190.839272 122.020008 
L 191.916453 147.687267 
L 192.590325 154.722202 
L 192.724761 154.224452 
L 193.128916 158.317413 
L 193.263352 159.450893 
L 193.400325 159.128341 
L 193.535606 159.468123 
L 193.80617 161.574358 
L 193.941452 161.804279 
L 194.345606 163.757234 
L 194.885042 165.241798 
L 195.019478 164.857493 
L 195.15476 165.235733 
L 195.289196 165.207889 
L 195.558914 165.923568 
L 195.694196 164.941991 
L 195.829477 166.103866 
L 195.963914 165.224706 
L 196.233632 110.102137 
L 196.368913 111.797601 
L 197.852785 145.395909 
L 198.256094 148.337332 
L 198.524966 151.745077 
L 198.659402 152.016352 
L 198.92912 154.592079 
L 199.199684 155.871947 
L 199.33412 156.884401 
L 199.468556 157.004462 
L 199.602993 158.461734 
L 199.737429 158.594752 
L 200.007992 160.360654 
L 200.412147 160.967713 
L 200.681019 162.700256 
L 200.815455 162.781584 
L 201.086019 164.104321 
L 201.220455 165.105196 
L 201.354891 164.645767 
L 201.624609 166.051348 
L 201.759045 165.425405 
L 201.893482 165.441946 
L 202.1632 166.972826 
L 202.298481 166.655788 
L 202.432918 167.321292 
L 202.569045 166.18409 
L 202.837917 168.91172 
L 203.10679 168.033387 
L 203.241226 168.068675 
L 203.51179 168.483581 
L 203.781508 169.743738 
L 203.915944 169.647524 
L 204.051226 170.382225 
L 204.186507 170.226187 
L 204.456225 170.947655 
L 204.591507 170.564177 
L 204.86038 171.803106 
L 205.130097 170.789688 
L 205.266225 171.826264 
L 205.400661 171.835775 
L 205.535097 171.398401 
L 205.670379 171.960247 
L 205.804815 171.7051 
L 205.939251 172.424777 
L 206.074533 170.290835 
L 206.209815 130.183737 
L 206.344251 128.002515 
L 207.289532 147.599737 
L 207.424814 148.695999 
L 207.694532 152.397073 
L 208.099532 157.751983 
L 208.233968 157.898234 
L 208.503686 159.35013 
L 208.638122 161.389373 
L 209.045659 162.161016 
L 209.313685 164.442311 
L 209.583403 166.295605 
L 210.122839 167.49649 
L 210.258121 168.49447 
L 210.393403 168.225264 
L 210.527839 169.132268 
L 210.663121 169.229034 
L 210.798403 168.825844 
L 211.068121 119.652286 
L 211.337839 124.276905 
L 211.742838 134.73723 
L 212.012556 140.435919 
L 212.758297 150.914576 
L 213.027169 153.020949 
L 213.162451 155.223949 
L 213.432169 108.968519 
L 213.566605 109.972427 
L 214.376605 130.75413 
L 215.455477 147.518134 
L 215.590759 147.825936 
L 216.399912 154.066347 
L 216.535194 154.980519 
L 216.804912 102.569314 
L 216.939348 98.628807 
L 217.613221 117.404073 
L 217.882939 124.132171 
L 218.421529 135.458009 
L 218.690402 140.224054 
L 218.96012 144.476775 
L 219.364274 149.865318 
L 220.038991 156.154662 
L 220.311246 158.330921 
L 220.446528 158.600679 
L 220.580964 146.299743 
L 220.7154 108.935023 
L 220.850682 107.142242 
L 221.929554 134.388212 
L 222.199272 139.477361 
L 222.737017 147.092889 
L 223.680607 157.876041 
L 224.219197 161.036496 
L 225.031733 165.142 
L 225.435888 167.519785 
L 225.570324 167.912912 
L 225.840042 170.129697 
L 225.974478 168.819917 
L 226.108914 170.187315 
L 226.243351 169.128409 
L 226.377787 122.63327 
L 226.512223 115.179569 
L 227.993558 149.302369 
L 228.532994 157.260849 
L 228.66743 157.928559 
L 229.071585 161.57422 
L 229.475739 163.925401 
L 229.61102 165.736515 
L 229.879893 115.210584 
L 230.014329 116.777165 
L 230.825174 139.098018 
L 231.36461 148.08894 
L 231.634328 108.263178 
L 232.037637 116.703557 
L 232.576227 130.336466 
L 233.38369 145.240836 
L 233.518126 145.815502 
L 234.867562 160.490088 
L 235.001998 159.992201 
L 235.541434 164.414467 
L 235.676716 164.442863 
L 235.811998 164.604001 
L 236.081715 168.017535 
L 236.216152 167.95137 
L 236.487561 110.581829 
L 237.026997 122.268263 
L 237.430305 132.143307 
L 238.239459 148.898076 
L 239.186432 159.928931 
L 239.591431 162.276528 
L 239.72164 120.439643 
L 239.859458 112.492465 
L 239.99474 113.839739 
L 241.476921 146.526081 
L 241.612202 147.790924 
L 241.746639 146.415255 
L 242.016357 107.829801 
L 242.151638 107.881217 
L 242.421356 103.836363 
L 242.825511 107.693199 
L 242.959947 110.085044 
L 243.094383 103.64104 
L 243.229665 104.04423 
L 244.037973 112.808263 
L 244.173255 110.383473 
L 244.307691 105.869955 
L 244.576564 108.082329 
L 244.9841 113.62691 
L 245.119382 114.56231 
L 245.3891 106.779579 
L 245.523536 107.861229 
L 246.061281 115.659813 
L 247.948461 139.279695 
L 248.082897 135.31286 
L 248.217334 114.093921 
L 248.352615 112.855681 
L 248.622333 115.940598 
L 249.70036 134.984933 
L 249.834796 135.348975 
L 250.104514 140.663497 
L 250.374232 115.602195 
L 250.778386 119.576886 
L 251.721976 137.092822 
L 251.990849 117.40876 
L 252.395849 122.213953 
L 253.068875 133.005513 
L 253.608311 141.593521 
L 253.742747 136.127372 
L 253.877184 118.910279 
L 254.012465 118.665609 
L 255.088801 136.906459 
L 255.358519 120.743035 
L 255.498028 121.808834 
L 255.902182 129.108565 
L 256.710491 140.226398 
L 256.9819 120.082355 
L 257.386899 126.121515 
L 257.521336 126.591834 
L 257.926335 133.585417 
L 258.331335 139.345308 
L 258.736335 120.091728 
L 259.006053 123.587417 
L 259.274925 127.798233 
L 259.410207 128.803381 
L 259.815207 134.697669 
L 259.949643 135.427132 
L 260.084079 121.751905 
L 260.219361 120.775014 
L 260.488233 124.406478 
L 261.69816 139.378804 
L 262.23675 144.688639 
L 262.371186 147.129831 
L 262.506468 147.397384 
L 263.045058 152.965812 
L 263.179495 153.159894 
L 263.313931 151.204734 
L 263.582803 120.292978 
L 264.257521 128.629837 
L 264.662521 133.923407 
L 265.740547 145.857406 
L 266.010265 119.549731 
L 266.549701 125.434783 
L 267.358855 137.665696 
L 267.494137 138.169097 
L 268.437727 148.63204 
L 268.573009 149.356403 
L 268.836808 151.83371 
L 269.240962 155.353797 
L 269.51068 121.204669 
L 269.645962 120.016328 
L 271.397015 139.528914 
L 271.532297 139.937755 
L 271.802861 143.861583 
L 271.936451 144.139336 
L 272.610323 151.142154 
L 272.745605 151.146151 
L 273.014478 153.80417 
L 273.148914 154.324388 
L 273.28335 156.391752 
L 273.418632 156.239573 
L 273.553068 157.679202 
L 273.691732 157.781894 
L 274.095886 161.402744 
L 274.50004 163.826982 
L 274.768913 165.748232 
L 275.038631 167.327219 
L 275.447013 123.590311 
L 275.716731 127.150097 
L 275.986449 131.964663 
L 277.063629 148.80903 
L 278.006374 158.109546 
L 279.354118 169.167694 
L 279.488555 169.642424 
L 279.892709 172.782065 
L 280.027991 173.577003 
L 280.162427 175.409069 
L 280.296863 175.616522 
L 280.701863 177.406684 
L 280.836299 177.409992 
L 281.106017 179.300917 
L 281.241299 178.983328 
L 281.644608 180.76646 
L 281.779044 180.264161 
L 281.914326 181.936744 
L 282.048762 182.062594 
L 282.453762 184.030435 
L 282.588198 183.26017 
L 282.857916 185.10354 
L 282.992352 184.617644 
L 283.397352 186.308284 
L 283.531788 186.277959 
L 283.801506 187.759353 
L 283.936788 187.692637 
L 284.071224 188.36462 
L 284.206506 188.189422 
L 284.340942 181.258007 
L 284.476224 143.617188 
L 284.611505 137.455761 
L 284.745942 138.410597 
L 285.150096 144.759765 
L 285.555096 150.877634 
L 285.689532 152.093544 
L 286.097068 157.449969 
L 286.770095 164.833922 
L 286.905376 165.27047 
L 287.175094 167.982385 
L 287.309531 168.617977 
L 287.448194 170.571483 
L 287.583476 170.264783 
L 287.718758 172.513547 
L 287.853194 172.094919 
L 288.256503 175.659391 
L 288.390939 175.299071 
L 288.525375 177.205572 
L 288.659812 176.853108 
L 289.064811 178.734935 
L 289.46812 180.646123 
L 289.603402 180.8329 
L 289.737838 180.472028 
L 289.87312 181.726947 
L 290.007556 181.846594 
L 290.277274 183.489678 
L 290.41171 183.12729 
L 291.220864 186.540962 
L 291.3553 185.867188 
L 291.490582 185.976359 
L 291.625018 185.825559 
L 291.7603 186.179539 
L 292.030018 187.800844 
L 292.164454 187.18965 
L 292.300582 187.834753 
L 292.435018 187.057872 
L 292.704736 188.653125 
L 293.10889 189.458125 
L 293.378608 189.222001 
L 293.513044 189.52429 
L 293.648326 189.127992 
L 294.05248 190.72421 
L 294.187762 190.016664 
L 294.317971 191.022501 
L 294.453252 190.426883 
L 294.587689 190.768595 
L 294.722125 190.689198 
L 294.857407 191.348775 
L 294.991843 191.252836 
L 295.127125 191.940533 
L 295.262406 191.272548 
L 295.534661 192.31767 
L 295.665715 191.788768 
L 295.935433 191.931022 
L 296.069869 192.075481 
L 296.205151 192.739469 
L 296.339587 192.060456 
L 296.474869 192.100155 
L 296.609305 192.971044 
L 296.742896 192.956157 
L 297.012614 193.736209 
L 297.283177 138.377101 
L 297.418459 137.761496 
L 298.634304 159.399753 
L 299.17374 166.627392 
L 299.310713 167.37188 
L 299.714867 172.248614 
L 299.850149 172.731063 
L 299.984585 174.665408 
L 300.119021 174.670508 
L 300.524021 179.012964 
L 300.659302 179.377558 
L 300.793739 179.380728 
L 301.333175 182.903296 
L 301.467611 182.843472 
L 302.140638 186.461978 
L 302.275074 186.016885 
L 302.410356 186.881985 
L 302.545637 186.432067 
L 302.949792 187.904226 
L 303.084228 187.865768 
L 303.489228 189.647935 
L 303.624509 189.21566 
L 303.758945 189.978068 
L 303.893382 189.917968 
L 304.1631 190.139481 
L 304.297536 189.341373 
L 304.567254 139.341448 
L 304.972254 144.544455 
L 305.241972 148.42886 
L 305.51169 151.738461 
L 306.457816 164.202741 
L 307.269507 172.411268 
L 307.673661 174.399648 
L 307.943379 176.995637 
L 308.078661 177.465956 
L 308.346688 179.149566 
L 308.885278 182.581847 
L 309.154996 182.44814 
L 309.964996 187.156154 
L 310.099432 187.553278 
L 310.099432 187.553278 
" clip-path="url(#pa89d41c5a9)" style="fill: none; stroke: #1f77b4; stroke-width: 1.5; stroke-linecap: square"/>
   </g>
   <g id="patch_3">
    <path d="M 43.78125 198.8355 
L 43.78125 35.7555 
" style="fill: none; stroke: #000000; stroke-width: 0.8; stroke-linejoin: miter; stroke-linecap: square"/>
   </g>
   <g id="patch_4">
    <path d="M 322.78125 198.8355 
L 322.78125 35.7555 
" style="fill: none; stroke: #000000; stroke-width: 0.8; stroke-linejoin: miter; stroke-linecap: square"/>
   </g>
   <g id="patch_5">
    <path d="M 43.78125 198.8355 
L 322.78125 198.8355 
" style="fill: none; stroke: #000000; stroke-width: 0.8; stroke-linejoin: miter; stroke-linecap: square"/>
   </g>
   <g id="patch_6">
    <path d="M 43.78125 35.7555 
L 322.78125 35.7555 
" style="fill: none; stroke: #000000; stroke-width: 0.8; stroke-linejoin: miter; stroke-linecap: square"/>
   </g>
   <g id="text_16">
    <!-- After equalize -->
    <g transform="translate(141.814687 16.318125)scale(0.12 -0.12)">
     <defs>
      <path id="DejaVuSans-41" d="M 2188 4044 
L 1331 1722 
L 3047 1722 
L 2188 4044 
z
M 1831 4666 
L 2547 4666 
L 4325 0 
L 3669 0 
L 3244 1197 
L 1141 1197 
L 716 0 
L 50 0 
L 1831 4666 
z
" transform="scale(0.015625)"/>
      <path id="DejaVuSans-66" d="M 2375 4863 
L 2375 4384 
L 1825 4384 
Q 1516 4384 1395 4259 
Q 1275 4134 1275 3809 
L 1275 3500 
L 2222 3500 
L 2222 3053 
L 1275 3053 
L 1275 0 
L 697 0 
L 697 3053 
L 147 3053 
L 147 3500 
L 697 3500 
L 697 3744 
Q 697 4328 969 4595 
Q 1241 4863 1831 4863 
L 2375 4863 
z
" transform="scale(0.015625)"/>
      <path id="DejaVuSans-74" d="M 1172 4494 
L 1172 3500 
L 2356 3500 
L 2356 3053 
L 1172 3053 
L 1172 1153 
Q 1172 725 1289 603 
Q 1406 481 1766 481 
L 2356 481 
L 2356 0 
L 1766 0 
Q 1100 0 847 248 
Q 594 497 594 1153 
L 594 3053 
L 172 3053 
L 172 3500 
L 594 3500 
L 594 4494 
L 1172 4494 
z
" transform="scale(0.015625)"/>
      <path id="DejaVuSans-72" d="M 2631 2963 
Q 2534 3019 2420 3045 
Q 2306 3072 2169 3072 
Q 1681 3072 1420 2755 
Q 1159 2438 1159 1844 
L 1159 0 
L 581 0 
L 581 3500 
L 1159 3500 
L 1159 2956 
Q 1341 3275 1631 3429 
Q 1922 3584 2338 3584 
Q 2397 3584 2469 3576 
Q 2541 3569 2628 3553 
L 2631 2963 
z
" transform="scale(0.015625)"/>
      <path id="DejaVuSans-71" d="M 947 1747 
Q 947 1113 1208 752 
Q 1469 391 1925 391 
Q 2381 391 2643 752 
Q 2906 1113 2906 1747 
Q 2906 2381 2643 2742 
Q 2381 3103 1925 3103 
Q 1469 3103 1208 2742 
Q 947 2381 947 1747 
z
M 2906 525 
Q 2725 213 2448 61 
Q 2172 -91 1784 -91 
Q 1150 -91 751 415 
Q 353 922 353 1747 
Q 353 2572 751 3078 
Q 1150 3584 1784 3584 
Q 2172 3584 2448 3432 
Q 2725 3281 2906 2969 
L 2906 3500 
L 3481 3500 
L 3481 -1331 
L 2906 -1331 
L 2906 525 
z
" transform="scale(0.015625)"/>
      <path id="DejaVuSans-75" d="M 544 1381 
L 544 3500 
L 1119 3500 
L 1119 1403 
Q 1119 906 1312 657 
Q 1506 409 1894 409 
Q 2359 409 2629 706 
Q 2900 1003 2900 1516 
L 2900 3500 
L 3475 3500 
L 3475 0 
L 2900 0 
L 2900 538 
Q 2691 219 2414 64 
Q 2138 -91 1772 -91 
Q 1169 -91 856 284 
Q 544 659 544 1381 
z
M 1991 3584 
L 1991 3584 
z
" transform="scale(0.015625)"/>
      <path id="DejaVuSans-61" d="M 2194 1759 
Q 1497 1759 1228 1600 
Q 959 1441 959 1056 
Q 959 750 1161 570 
Q 1363 391 1709 391 
Q 2188 391 2477 730 
Q 2766 1069 2766 1631 
L 2766 1759 
L 2194 1759 
z
M 3341 1997 
L 3341 0 
L 2766 0 
L 2766 531 
Q 2569 213 2275 61 
Q 1981 -91 1556 -91 
Q 1019 -91 701 211 
Q 384 513 384 1019 
Q 384 1609 779 1909 
Q 1175 2209 1959 2209 
L 2766 2209 
L 2766 2266 
Q 2766 2663 2505 2880 
Q 2244 3097 1772 3097 
Q 1472 3097 1187 3025 
Q 903 2953 641 2809 
L 641 3341 
Q 956 3463 1253 3523 
Q 1550 3584 1831 3584 
Q 2591 3584 2966 3190 
Q 3341 2797 3341 1997 
z
" transform="scale(0.015625)"/>
      <path id="DejaVuSans-6c" d="M 603 4863 
L 1178 4863 
L 1178 0 
L 603 0 
L 603 4863 
z
" transform="scale(0.015625)"/>
      <path id="DejaVuSans-7a" d="M 353 3500 
L 3084 3500 
L 3084 2975 
L 922 459 
L 3084 459 
L 3084 0 
L 275 0 
L 275 525 
L 2438 3041 
L 353 3041 
L 353 3500 
z
" transform="scale(0.015625)"/>
     </defs>
     <use xlink:href="#DejaVuSans-41"/>
     <use xlink:href="#DejaVuSans-66" x="64.783203"/>
     <use xlink:href="#DejaVuSans-74" x="98.238281"/>
     <use xlink:href="#DejaVuSans-65" x="137.447266"/>
     <use xlink:href="#DejaVuSans-72" x="198.970703"/>
     <use xlink:href="#DejaVuSans-20" x="240.083984"/>
     <use xlink:href="#DejaVuSans-65" x="271.871094"/>
     <use xlink:href="#DejaVuSans-71" x="333.394531"/>
     <use xlink:href="#DejaVuSans-75" x="396.871094"/>
     <use xlink:href="#DejaVuSans-61" x="460.25"/>
     <use xlink:href="#DejaVuSans-6c" x="521.529297"/>
     <use xlink:href="#DejaVuSans-69" x="549.3125"/>
     <use xlink:href="#DejaVuSans-7a" x="577.095703"/>
     <use xlink:href="#DejaVuSans-65" x="629.585938"/>
    </g>
    <!-- NTR_C3_005_crop - Intensity Equalized, ROI=15 -->
    <g transform="translate(39.185625 29.7555)scale(0.12 -0.12)">
     <defs>
      <path id="DejaVuSans-4e" d="M 628 4666 
L 1478 4666 
L 3547 763 
L 3547 4666 
L 4159 4666 
L 4159 0 
L 3309 0 
L 1241 3903 
L 1241 0 
L 628 0 
L 628 4666 
z
" transform="scale(0.015625)"/>
      <path id="DejaVuSans-52" d="M 2841 2188 
Q 3044 2119 3236 1894 
Q 3428 1669 3622 1275 
L 4263 0 
L 3584 0 
L 2988 1197 
Q 2756 1666 2539 1819 
Q 2322 1972 1947 1972 
L 1259 1972 
L 1259 0 
L 628 0 
L 628 4666 
L 2053 4666 
Q 2853 4666 3247 4331 
Q 3641 3997 3641 3322 
Q 3641 2881 3436 2590 
Q 3231 2300 2841 2188 
z
M 1259 4147 
L 1259 2491 
L 2053 2491 
Q 2509 2491 2742 2702 
Q 2975 2913 2975 3322 
Q 2975 3731 2742 3939 
Q 2509 4147 2053 4147 
L 1259 4147 
z
" transform="scale(0.015625)"/>
      <path id="DejaVuSans-5f" d="M 3263 -1063 
L 3263 -1509 
L -63 -1509 
L -63 -1063 
L 3263 -1063 
z
" transform="scale(0.015625)"/>
      <path id="DejaVuSans-43" d="M 4122 4306 
L 4122 3641 
Q 3803 3938 3442 4084 
Q 3081 4231 2675 4231 
Q 1875 4231 1450 3742 
Q 1025 3253 1025 2328 
Q 1025 1406 1450 917 
Q 1875 428 2675 428 
Q 3081 428 3442 575 
Q 3803 722 4122 1019 
L 4122 359 
Q 3791 134 3420 21 
Q 3050 -91 2638 -91 
Q 1578 -91 968 557 
Q 359 1206 359 2328 
Q 359 3453 968 4101 
Q 1578 4750 2638 4750 
Q 3056 4750 3426 4639 
Q 3797 4528 4122 4306 
z
" transform="scale(0.015625)"/>
      <path id="DejaVuSans-63" d="M 3122 3366 
L 3122 2828 
Q 2878 2963 2633 3030 
Q 2388 3097 2138 3097 
Q 1578 3097 1268 2742 
Q 959 2388 959 1747 
Q 959 1106 1268 751 
Q 1578 397 2138 397 
Q 2388 397 2633 464 
Q 2878 531 3122 666 
L 3122 134 
Q 2881 22 2623 -34 
Q 2366 -91 2075 -91 
Q 1284 -91 818 406 
Q 353 903 353 1747 
Q 353 2603 823 3093 
Q 1294 3584 2113 3584 
Q 2378 3584 2631 3529 
Q 2884 3475 3122 3366 
z
" transform="scale(0.015625)"/>
      <path id="DejaVuSans-6f" d="M 1959 3097 
Q 1497 3097 1228 2736 
Q 959 2375 959 1747 
Q 959 1119 1226 758 
Q 1494 397 1959 397 
Q 2419 397 2687 759 
Q 2956 1122 2956 1747 
Q 2956 2369 2687 2733 
Q 2419 3097 1959 3097 
z
M 1959 3584 
Q 2709 3584 3137 3096 
Q 3566 2609 3566 1747 
Q 3566 888 3137 398 
Q 2709 -91 1959 -91 
Q 1206 -91 779 398 
Q 353 888 353 1747 
Q 353 2609 779 3096 
Q 1206 3584 1959 3584 
z
" transform="scale(0.015625)"/>
      <path id="DejaVuSans-70" d="M 1159 525 
L 1159 -1331 
L 581 -1331 
L 581 3500 
L 1159 3500 
L 1159 2969 
Q 1341 3281 1617 3432 
Q 1894 3584 2278 3584 
Q 2916 3584 3314 3078 
Q 3713 2572 3713 1747 
Q 3713 922 3314 415 
Q 2916 -91 2278 -91 
Q 1894 -91 1617 61 
Q 1341 213 1159 525 
z
M 3116 1747 
Q 3116 2381 2855 2742 
Q 2594 3103 2138 3103 
Q 1681 3103 1420 2742 
Q 1159 2381 1159 1747 
Q 1159 1113 1420 752 
Q 1681 391 2138 391 
Q 2594 391 2855 752 
Q 3116 1113 3116 1747 
z
" transform="scale(0.015625)"/>
      <path id="DejaVuSans-49" d="M 628 4666 
L 1259 4666 
L 1259 0 
L 628 0 
L 628 4666 
z
" transform="scale(0.015625)"/>
      <path id="DejaVuSans-6e" d="M 3513 2113 
L 3513 0 
L 2938 0 
L 2938 2094 
Q 2938 2591 2744 2837 
Q 2550 3084 2163 3084 
Q 1697 3084 1428 2787 
Q 1159 2491 1159 1978 
L 1159 0 
L 581 0 
L 581 3500 
L 1159 3500 
L 1159 2956 
Q 1366 3272 1645 3428 
Q 1925 3584 2291 3584 
Q 2894 3584 3203 3211 
Q 3513 2838 3513 2113 
z
" transform="scale(0.015625)"/>
      <path id="DejaVuSans-79" d="M 2059 -325 
Q 1816 -950 1584 -1140 
Q 1353 -1331 966 -1331 
L 506 -1331 
L 506 -850 
L 844 -850 
Q 1081 -850 1212 -737 
Q 1344 -625 1503 -206 
L 1606 56 
L 191 3500 
L 800 3500 
L 1894 763 
L 2988 3500 
L 3597 3500 
L 2059 -325 
z
" transform="scale(0.015625)"/>
      <path id="DejaVuSans-45" d="M 628 4666 
L 3578 4666 
L 3578 4134 
L 1259 4134 
L 1259 2753 
L 3481 2753 
L 3481 2222 
L 1259 2222 
L 1259 531 
L 3634 531 
L 3634 0 
L 628 0 
L 628 4666 
z
" transform="scale(0.015625)"/>
      <path id="DejaVuSans-64" d="M 2906 2969 
L 2906 4863 
L 3481 4863 
L 3481 0 
L 2906 0 
L 2906 525 
Q 2725 213 2448 61 
Q 2172 -91 1784 -91 
Q 1150 -91 751 415 
Q 353 922 353 1747 
Q 353 2572 751 3078 
Q 1150 3584 1784 3584 
Q 2172 3584 2448 3432 
Q 2725 3281 2906 2969 
z
M 947 1747 
Q 947 1113 1208 752 
Q 1469 391 1925 391 
Q 2381 391 2643 752 
Q 2906 1113 2906 1747 
Q 2906 2381 2643 2742 
Q 2381 3103 1925 3103 
Q 1469 3103 1208 2742 
Q 947 2381 947 1747 
z
" transform="scale(0.015625)"/>
      <path id="DejaVuSans-2c" d="M 750 794 
L 1409 794 
L 1409 256 
L 897 -744 
L 494 -744 
L 750 256 
L 750 794 
z
" transform="scale(0.015625)"/>
      <path id="DejaVuSans-4f" d="M 2522 4238 
Q 1834 4238 1429 3725 
Q 1025 3213 1025 2328 
Q 1025 1447 1429 934 
Q 1834 422 2522 422 
Q 3209 422 3611 934 
Q 4013 1447 4013 2328 
Q 4013 3213 3611 3725 
Q 3209 4238 2522 4238 
z
M 2522 4750 
Q 3503 4750 4090 4092 
Q 4678 3434 4678 2328 
Q 4678 1225 4090 567 
Q 3503 -91 2522 -91 
Q 1538 -91 948 565 
Q 359 1222 359 2328 
Q 359 3434 948 4092 
Q 1538 4750 2522 4750 
z
" transform="scale(0.015625)"/>
      <path id="DejaVuSans-3d" d="M 678 2906 
L 4684 2906 
L 4684 2381 
L 678 2381 
L 678 2906 
z
M 678 1631 
L 4684 1631 
L 4684 1100 
L 678 1100 
L 678 1631 
z
" transform="scale(0.015625)"/>
     </defs>
     <use xlink:href="#DejaVuSans-4e"/>
     <use xlink:href="#DejaVuSans-54" x="74.804688"/>
     <use xlink:href="#DejaVuSans-52" x="135.888672"/>
     <use xlink:href="#DejaVuSans-5f" x="205.371094"/>
     <use xlink:href="#DejaVuSans-43" x="255.371094"/>
     <use xlink:href="#DejaVuSans-33" x="325.195312"/>
     <use xlink:href="#DejaVuSans-5f" x="388.818359"/>
     <use xlink:href="#DejaVuSans-30" x="438.818359"/>
     <use xlink:href="#DejaVuSans-30" x="502.441406"/>
     <use xlink:href="#DejaVuSans-35" x="566.064453"/>
     <use xlink:href="#DejaVuSans-5f" x="629.6875"/>
     <use xlink:href="#DejaVuSans-63" x="679.6875"/>
     <use xlink:href="#DejaVuSans-72" x="734.667969"/>
     <use xlink:href="#DejaVuSans-6f" x="773.53125"/>
     <use xlink:href="#DejaVuSans-70" x="834.712891"/>
     <use xlink:href="#DejaVuSans-20" x="898.189453"/>
     <use xlink:href="#DejaVuSans-2d" x="929.976562"/>
     <use xlink:href="#DejaVuSans-20" x="966.060547"/>
     <use xlink:href="#DejaVuSans-49" x="997.847656"/>
     <use xlink:href="#DejaVuSans-6e" x="1027.339844"/>
     <use xlink:href="#DejaVuSans-74" x="1090.71875"/>
     <use xlink:href="#DejaVuSans-65" x="1129.927734"/>
     <use xlink:href="#DejaVuSans-6e" x="1191.451172"/>
     <use xlink:href="#DejaVuSans-73" x="1254.830078"/>
     <use xlink:href="#DejaVuSans-69" x="1306.929688"/>
     <use xlink:href="#DejaVuSans-74" x="1334.712891"/>
     <use xlink:href="#DejaVuSans-79" x="1373.921875"/>
     <use xlink:href="#DejaVuSans-20" x="1433.101562"/>
     <use xlink:href="#DejaVuSans-45" x="1464.888672"/>
     <use xlink:href="#DejaVuSans-71" x="1528.072266"/>
     <use xlink:href="#DejaVuSans-75" x="1591.548828"/>
     <use xlink:href="#DejaVuSans-61" x="1654.927734"/>
     <use xlink:href="#DejaVuSans-6c" x="1716.207031"/>
     <use xlink:href="#DejaVuSans-69" x="1743.990234"/>
     <use xlink:href="#DejaVuSans-7a" x="1771.773438"/>
     <use xlink:href="#DejaVuSans-65" x="1824.263672"/>
     <use xlink:href="#DejaVuSans-64" x="1885.787109"/>
     <use xlink:href="#DejaVuSans-2c" x="1949.263672"/>
     <use xlink:href="#DejaVuSans-20" x="1981.050781"/>
     <use xlink:href="#DejaVuSans-52" x="2012.837891"/>
     <use xlink:href="#DejaVuSans-4f" x="2082.320312"/>
     <use xlink:href="#DejaVuSans-49" x="2161.03125"/>
     <use xlink:href="#DejaVuSans-3d" x="2190.523438"/>
     <use xlink:href="#DejaVuSans-31" x="2274.3125"/>
     <use xlink:href="#DejaVuSans-35" x="2337.935547"/>
    </g>
   </g>
  </g>
 </g>
 <defs>
  <clipPath id="pa89d41c5a9">
   <rect x="43.78125" y="35.7555" width="279" height="163.08"/>
  </clipPath>
 </defs>
</svg>
