<?xml version="1.0" encoding="utf-8" standalone="no"?>
<!DOCTYPE svg PUBLIC "-//W3C//DTD SVG 1.1//EN"
  "http://www.w3.org/Graphics/SVG/1.1/DTD/svg11.dtd">
<svg xmlns:xlink="http://www.w3.org/1999/xlink" width="190.58125pt" height="234.152188pt" viewBox="0 0 190.58125 234.152188" xmlns="http://www.w3.org/2000/svg" version="1.1">
 <metadata>
  <rdf:RDF xmlns:dc="http://purl.org/dc/elements/1.1/" xmlns:cc="http://creativecommons.org/ns#" xmlns:rdf="http://www.w3.org/1999/02/22-rdf-syntax-ns#">
   <cc:Work>
    <dc:type rdf:resource="http://purl.org/dc/dcmitype/StillImage"/>
    <dc:date>2025-01-27T14:18:53.889003</dc:date>
    <dc:format>image/svg+xml</dc:format>
    <dc:creator>
     <cc:Agent>
      <dc:title>Matplotlib v3.5.2, https://matplotlib.org/</dc:title>
     </cc:Agent>
    </dc:creator>
   </cc:Work>
  </rdf:RDF>
 </metadata>
 <defs>
  <style type="text/css">*{stroke-linejoin: round; stroke-linecap: butt}</style>
 </defs>
 <g id="figure_1">
  <g id="patch_1">
   <path d="M 0 234.152188 
L 190.58125 234.152188 
L 190.58125 -0 
L 0 -0 
L 0 234.152188 
z
" style="fill: none"/>
  </g>
  <g id="axes_1">
   <g id="patch_2">
    <path d="M 43.88125 185.398125 
L 183.38125 185.398125 
L 183.38125 22.318125 
L 43.88125 22.318125 
z
" style="fill: #ffffff"/>
   </g>
   <g id="patch_3">
    <path d="M 43.88125 29.730852 
L 47.115924 29.730852 
L 47.115924 50.179755 
L 43.88125 50.179755 
z
" clip-path="url(#p4d587ca4aa)" style="opacity: 0.3"/>
   </g>
   <g id="patch_4">
    <path d="M 43.88125 55.291981 
L 54.851779 55.291981 
L 54.851779 75.740884 
L 43.88125 75.740884 
z
" clip-path="url(#p4d587ca4aa)" style="opacity: 0.3"/>
   </g>
   <g id="patch_5">
    <path d="M 43.88125 80.853109 
L 93.062832 80.853109 
L 93.062832 101.302012 
L 43.88125 101.302012 
z
" clip-path="url(#p4d587ca4aa)" style="opacity: 0.3"/>
   </g>
   <g id="patch_6">
    <path d="M 43.88125 106.414238 
L 48.623398 106.414238 
L 48.623398 126.863141 
L 43.88125 126.863141 
z
" clip-path="url(#p4d587ca4aa)" style="opacity: 0.3"/>
   </g>
   <g id="patch_7">
    <path d="M 43.88125 131.975366 
L 68.605552 131.975366 
L 68.605552 152.424269 
L 43.88125 152.424269 
z
" clip-path="url(#p4d587ca4aa)" style="opacity: 0.3"/>
   </g>
   <g id="patch_8">
    <path d="M 43.88125 157.536495 
L 55.814816 157.536495 
L 55.814816 177.985398 
L 43.88125 177.985398 
z
" clip-path="url(#p4d587ca4aa)" style="opacity: 0.3"/>
   </g>
   <g id="matplotlib.axis_1">
    <g id="xtick_1">
     <g id="line2d_1">
      <defs>
       <path id="m31d2d3eae2" d="M 0 0 
L 0 3.5 
" style="stroke: #000000; stroke-width: 0.8"/>
      </defs>
      <g>
       <use xlink:href="#m31d2d3eae2" x="43.88125" y="185.398125" style="stroke: #000000; stroke-width: 0.8"/>
      </g>
     </g>
     <g id="text_1">
      <!-- 0 -->
      <g transform="translate(40.7 199.996563)scale(0.1 -0.1)">
       <defs>
        <path id="DejaVuSans-30" d="M 2034 4250 
Q 1547 4250 1301 3770 
Q 1056 3291 1056 2328 
Q 1056 1369 1301 889 
Q 1547 409 2034 409 
Q 2525 409 2770 889 
Q 3016 1369 3016 2328 
Q 3016 3291 2770 3770 
Q 2525 4250 2034 4250 
z
M 2034 4750 
Q 2819 4750 3233 4129 
Q 3647 3509 3647 2328 
Q 3647 1150 3233 529 
Q 2819 -91 2034 -91 
Q 1250 -91 836 529 
Q 422 1150 422 2328 
Q 422 3509 836 4129 
Q 1250 4750 2034 4750 
z
" transform="scale(0.015625)"/>
       </defs>
       <use xlink:href="#DejaVuSans-30"/>
      </g>
     </g>
    </g>
    <g id="xtick_2">
     <g id="line2d_2">
      <g>
       <use xlink:href="#m31d2d3eae2" x="108.432154" y="185.398125" style="stroke: #000000; stroke-width: 0.8"/>
      </g>
     </g>
     <g id="text_2">
      <!-- 5 -->
      <g transform="translate(105.250904 199.996563)scale(0.1 -0.1)">
       <defs>
        <path id="DejaVuSans-35" d="M 691 4666 
L 3169 4666 
L 3169 4134 
L 1269 4134 
L 1269 2991 
Q 1406 3038 1543 3061 
Q 1681 3084 1819 3084 
Q 2600 3084 3056 2656 
Q 3513 2228 3513 1497 
Q 3513 744 3044 326 
Q 2575 -91 1722 -91 
Q 1428 -91 1123 -41 
Q 819 9 494 109 
L 494 744 
Q 775 591 1075 516 
Q 1375 441 1709 441 
Q 2250 441 2565 725 
Q 2881 1009 2881 1497 
Q 2881 1984 2565 2268 
Q 2250 2553 1709 2553 
Q 1456 2553 1204 2497 
Q 953 2441 691 2322 
L 691 4666 
z
" transform="scale(0.015625)"/>
       </defs>
       <use xlink:href="#DejaVuSans-35"/>
      </g>
     </g>
    </g>
    <g id="xtick_3">
     <g id="line2d_3">
      <g>
       <use xlink:href="#m31d2d3eae2" x="172.983057" y="185.398125" style="stroke: #000000; stroke-width: 0.8"/>
      </g>
     </g>
     <g id="text_3">
      <!-- 10 -->
      <g transform="translate(166.620557 199.996563)scale(0.1 -0.1)">
       <defs>
        <path id="DejaVuSans-31" d="M 794 531 
L 1825 531 
L 1825 4091 
L 703 3866 
L 703 4441 
L 1819 4666 
L 2450 4666 
L 2450 531 
L 3481 531 
L 3481 0 
L 794 0 
L 794 531 
z
" transform="scale(0.015625)"/>
       </defs>
       <use xlink:href="#DejaVuSans-31"/>
       <use xlink:href="#DejaVuSans-30" x="63.623047"/>
      </g>
     </g>
    </g>
    <g id="text_4">
     <!-- (%) iMN -->
     <g transform="translate(93.946094 213.674688)scale(0.1 -0.1)">
      <defs>
       <path id="DejaVuSans-28" d="M 1984 4856 
Q 1566 4138 1362 3434 
Q 1159 2731 1159 2009 
Q 1159 1288 1364 580 
Q 1569 -128 1984 -844 
L 1484 -844 
Q 1016 -109 783 600 
Q 550 1309 550 2009 
Q 550 2706 781 3412 
Q 1013 4119 1484 4856 
L 1984 4856 
z
" transform="scale(0.015625)"/>
       <path id="DejaVuSans-25" d="M 4653 2053 
Q 4381 2053 4226 1822 
Q 4072 1591 4072 1178 
Q 4072 772 4226 539 
Q 4381 306 4653 306 
Q 4919 306 5073 539 
Q 5228 772 5228 1178 
Q 5228 1588 5073 1820 
Q 4919 2053 4653 2053 
z
M 4653 2450 
Q 5147 2450 5437 2106 
Q 5728 1763 5728 1178 
Q 5728 594 5436 251 
Q 5144 -91 4653 -91 
Q 4153 -91 3862 251 
Q 3572 594 3572 1178 
Q 3572 1766 3864 2108 
Q 4156 2450 4653 2450 
z
M 1428 4353 
Q 1159 4353 1004 4120 
Q 850 3888 850 3481 
Q 850 3069 1003 2837 
Q 1156 2606 1428 2606 
Q 1700 2606 1854 2837 
Q 2009 3069 2009 3481 
Q 2009 3884 1853 4118 
Q 1697 4353 1428 4353 
z
M 4250 4750 
L 4750 4750 
L 1831 -91 
L 1331 -91 
L 4250 4750 
z
M 1428 4750 
Q 1922 4750 2215 4408 
Q 2509 4066 2509 3481 
Q 2509 2891 2217 2550 
Q 1925 2209 1428 2209 
Q 931 2209 642 2551 
Q 353 2894 353 3481 
Q 353 4063 643 4406 
Q 934 4750 1428 4750 
z
" transform="scale(0.015625)"/>
       <path id="DejaVuSans-29" d="M 513 4856 
L 1013 4856 
Q 1481 4119 1714 3412 
Q 1947 2706 1947 2009 
Q 1947 1309 1714 600 
Q 1481 -109 1013 -844 
L 513 -844 
Q 928 -128 1133 580 
Q 1338 1288 1338 2009 
Q 1338 2731 1133 3434 
Q 928 4138 513 4856 
z
" transform="scale(0.015625)"/>
       <path id="DejaVuSans-20" transform="scale(0.015625)"/>
       <path id="DejaVuSans-69" d="M 603 3500 
L 1178 3500 
L 1178 0 
L 603 0 
L 603 3500 
z
M 603 4863 
L 1178 4863 
L 1178 4134 
L 603 4134 
L 603 4863 
z
" transform="scale(0.015625)"/>
       <path id="DejaVuSans-4d" d="M 628 4666 
L 1569 4666 
L 2759 1491 
L 3956 4666 
L 4897 4666 
L 4897 0 
L 4281 0 
L 4281 4097 
L 3078 897 
L 2444 897 
L 1241 4097 
L 1241 0 
L 628 0 
L 628 4666 
z
" transform="scale(0.015625)"/>
       <path id="DejaVuSans-4e" d="M 628 4666 
L 1478 4666 
L 3547 763 
L 3547 4666 
L 4159 4666 
L 4159 0 
L 3309 0 
L 1241 3903 
L 1241 0 
L 628 0 
L 628 4666 
z
" transform="scale(0.015625)"/>
      </defs>
      <use xlink:href="#DejaVuSans-28"/>
      <use xlink:href="#DejaVuSans-25" x="39.013672"/>
      <use xlink:href="#DejaVuSans-29" x="134.033203"/>
      <use xlink:href="#DejaVuSans-20" x="173.046875"/>
      <use xlink:href="#DejaVuSans-69" x="204.833984"/>
      <use xlink:href="#DejaVuSans-4d" x="232.617188"/>
      <use xlink:href="#DejaVuSans-4e" x="318.896484"/>
     </g>
     <!-- of all cells -->
     <g transform="translate(88.582812 224.8725)scale(0.1 -0.1)">
      <defs>
       <path id="DejaVuSans-6f" d="M 1959 3097 
Q 1497 3097 1228 2736 
Q 959 2375 959 1747 
Q 959 1119 1226 758 
Q 1494 397 1959 397 
Q 2419 397 2687 759 
Q 2956 1122 2956 1747 
Q 2956 2369 2687 2733 
Q 2419 3097 1959 3097 
z
M 1959 3584 
Q 2709 3584 3137 3096 
Q 3566 2609 3566 1747 
Q 3566 888 3137 398 
Q 2709 -91 1959 -91 
Q 1206 -91 779 398 
Q 353 888 353 1747 
Q 353 2609 779 3096 
Q 1206 3584 1959 3584 
z
" transform="scale(0.015625)"/>
       <path id="DejaVuSans-66" d="M 2375 4863 
L 2375 4384 
L 1825 4384 
Q 1516 4384 1395 4259 
Q 1275 4134 1275 3809 
L 1275 3500 
L 2222 3500 
L 2222 3053 
L 1275 3053 
L 1275 0 
L 697 0 
L 697 3053 
L 147 3053 
L 147 3500 
L 697 3500 
L 697 3744 
Q 697 4328 969 4595 
Q 1241 4863 1831 4863 
L 2375 4863 
z
" transform="scale(0.015625)"/>
       <path id="DejaVuSans-61" d="M 2194 1759 
Q 1497 1759 1228 1600 
Q 959 1441 959 1056 
Q 959 750 1161 570 
Q 1363 391 1709 391 
Q 2188 391 2477 730 
Q 2766 1069 2766 1631 
L 2766 1759 
L 2194 1759 
z
M 3341 1997 
L 3341 0 
L 2766 0 
L 2766 531 
Q 2569 213 2275 61 
Q 1981 -91 1556 -91 
Q 1019 -91 701 211 
Q 384 513 384 1019 
Q 384 1609 779 1909 
Q 1175 2209 1959 2209 
L 2766 2209 
L 2766 2266 
Q 2766 2663 2505 2880 
Q 2244 3097 1772 3097 
Q 1472 3097 1187 3025 
Q 903 2953 641 2809 
L 641 3341 
Q 956 3463 1253 3523 
Q 1550 3584 1831 3584 
Q 2591 3584 2966 3190 
Q 3341 2797 3341 1997 
z
" transform="scale(0.015625)"/>
       <path id="DejaVuSans-6c" d="M 603 4863 
L 1178 4863 
L 1178 0 
L 603 0 
L 603 4863 
z
" transform="scale(0.015625)"/>
       <path id="DejaVuSans-63" d="M 3122 3366 
L 3122 2828 
Q 2878 2963 2633 3030 
Q 2388 3097 2138 3097 
Q 1578 3097 1268 2742 
Q 959 2388 959 1747 
Q 959 1106 1268 751 
Q 1578 397 2138 397 
Q 2388 397 2633 464 
Q 2878 531 3122 666 
L 3122 134 
Q 2881 22 2623 -34 
Q 2366 -91 2075 -91 
Q 1284 -91 818 406 
Q 353 903 353 1747 
Q 353 2603 823 3093 
Q 1294 3584 2113 3584 
Q 2378 3584 2631 3529 
Q 2884 3475 3122 3366 
z
" transform="scale(0.015625)"/>
       <path id="DejaVuSans-65" d="M 3597 1894 
L 3597 1613 
L 953 1613 
Q 991 1019 1311 708 
Q 1631 397 2203 397 
Q 2534 397 2845 478 
Q 3156 559 3463 722 
L 3463 178 
Q 3153 47 2828 -22 
Q 2503 -91 2169 -91 
Q 1331 -91 842 396 
Q 353 884 353 1716 
Q 353 2575 817 3079 
Q 1281 3584 2069 3584 
Q 2775 3584 3186 3129 
Q 3597 2675 3597 1894 
z
M 3022 2063 
Q 3016 2534 2758 2815 
Q 2500 3097 2075 3097 
Q 1594 3097 1305 2825 
Q 1016 2553 972 2059 
L 3022 2063 
z
" transform="scale(0.015625)"/>
       <path id="DejaVuSans-73" d="M 2834 3397 
L 2834 2853 
Q 2591 2978 2328 3040 
Q 2066 3103 1784 3103 
Q 1356 3103 1142 2972 
Q 928 2841 928 2578 
Q 928 2378 1081 2264 
Q 1234 2150 1697 2047 
L 1894 2003 
Q 2506 1872 2764 1633 
Q 3022 1394 3022 966 
Q 3022 478 2636 193 
Q 2250 -91 1575 -91 
Q 1294 -91 989 -36 
Q 684 19 347 128 
L 347 722 
Q 666 556 975 473 
Q 1284 391 1588 391 
Q 1994 391 2212 530 
Q 2431 669 2431 922 
Q 2431 1156 2273 1281 
Q 2116 1406 1581 1522 
L 1381 1569 
Q 847 1681 609 1914 
Q 372 2147 372 2553 
Q 372 3047 722 3315 
Q 1072 3584 1716 3584 
Q 2034 3584 2315 3537 
Q 2597 3491 2834 3397 
z
" transform="scale(0.015625)"/>
      </defs>
      <use xlink:href="#DejaVuSans-6f"/>
      <use xlink:href="#DejaVuSans-66" x="61.181641"/>
      <use xlink:href="#DejaVuSans-20" x="96.386719"/>
      <use xlink:href="#DejaVuSans-61" x="128.173828"/>
      <use xlink:href="#DejaVuSans-6c" x="189.453125"/>
      <use xlink:href="#DejaVuSans-6c" x="217.236328"/>
      <use xlink:href="#DejaVuSans-20" x="245.019531"/>
      <use xlink:href="#DejaVuSans-63" x="276.806641"/>
      <use xlink:href="#DejaVuSans-65" x="331.787109"/>
      <use xlink:href="#DejaVuSans-6c" x="393.310547"/>
      <use xlink:href="#DejaVuSans-6c" x="421.09375"/>
      <use xlink:href="#DejaVuSans-73" x="448.876953"/>
     </g>
    </g>
   </g>
   <g id="matplotlib.axis_2">
    <g id="ytick_1">
     <g id="line2d_4">
      <defs>
       <path id="m283b64b81b" d="M 0 0 
L -3.5 0 
" style="stroke: #000000; stroke-width: 0.8"/>
      </defs>
      <g>
       <use xlink:href="#m283b64b81b" x="43.88125" y="39.955304" style="stroke: #000000; stroke-width: 0.8"/>
      </g>
     </g>
     <g id="text_5">
      <!-- ILN -->
      <g transform="translate(20.878125 43.754522)scale(0.1 -0.1)">
       <defs>
        <path id="DejaVuSans-49" d="M 628 4666 
L 1259 4666 
L 1259 0 
L 628 0 
L 628 4666 
z
" transform="scale(0.015625)"/>
        <path id="DejaVuSans-4c" d="M 628 4666 
L 1259 4666 
L 1259 531 
L 3531 531 
L 3531 0 
L 628 0 
L 628 4666 
z
" transform="scale(0.015625)"/>
       </defs>
       <use xlink:href="#DejaVuSans-49"/>
       <use xlink:href="#DejaVuSans-4c" x="29.492188"/>
       <use xlink:href="#DejaVuSans-4e" x="85.205078"/>
      </g>
     </g>
    </g>
    <g id="ytick_2">
     <g id="line2d_5">
      <g>
       <use xlink:href="#m283b64b81b" x="43.88125" y="65.516432" style="stroke: #000000; stroke-width: 0.8"/>
      </g>
     </g>
     <g id="text_6">
      <!-- INL -->
      <g transform="translate(20.878125 69.315651)scale(0.1 -0.1)">
       <use xlink:href="#DejaVuSans-49"/>
       <use xlink:href="#DejaVuSans-4e" x="29.492188"/>
       <use xlink:href="#DejaVuSans-4c" x="104.296875"/>
      </g>
     </g>
    </g>
    <g id="ytick_3">
     <g id="line2d_6">
      <g>
       <use xlink:href="#m283b64b81b" x="43.88125" y="91.077561" style="stroke: #000000; stroke-width: 0.8"/>
      </g>
     </g>
     <g id="text_7">
      <!-- NIL -->
      <g transform="translate(20.878125 94.876779)scale(0.1 -0.1)">
       <use xlink:href="#DejaVuSans-4e"/>
       <use xlink:href="#DejaVuSans-49" x="74.804688"/>
       <use xlink:href="#DejaVuSans-4c" x="104.296875"/>
      </g>
     </g>
    </g>
    <g id="ytick_4">
     <g id="line2d_7">
      <g>
       <use xlink:href="#m283b64b81b" x="43.88125" y="116.638689" style="stroke: #000000; stroke-width: 0.8"/>
      </g>
     </g>
     <g id="text_8">
      <!-- LIN -->
      <g transform="translate(20.878125 120.437908)scale(0.1 -0.1)">
       <use xlink:href="#DejaVuSans-4c"/>
       <use xlink:href="#DejaVuSans-49" x="55.712891"/>
       <use xlink:href="#DejaVuSans-4e" x="85.205078"/>
      </g>
     </g>
    </g>
    <g id="ytick_5">
     <g id="line2d_8">
      <g>
       <use xlink:href="#m283b64b81b" x="43.88125" y="142.199818" style="stroke: #000000; stroke-width: 0.8"/>
      </g>
     </g>
     <g id="text_9">
      <!-- NLI -->
      <g transform="translate(20.878125 145.999037)scale(0.1 -0.1)">
       <use xlink:href="#DejaVuSans-4e"/>
       <use xlink:href="#DejaVuSans-4c" x="74.804688"/>
       <use xlink:href="#DejaVuSans-49" x="130.517578"/>
      </g>
     </g>
    </g>
    <g id="ytick_6">
     <g id="line2d_9">
      <g>
       <use xlink:href="#m283b64b81b" x="43.88125" y="167.760946" style="stroke: #000000; stroke-width: 0.8"/>
      </g>
     </g>
     <g id="text_10">
      <!-- LNI -->
      <g transform="translate(20.878125 171.560165)scale(0.1 -0.1)">
       <use xlink:href="#DejaVuSans-4c"/>
       <use xlink:href="#DejaVuSans-4e" x="55.712891"/>
       <use xlink:href="#DejaVuSans-49" x="130.517578"/>
      </g>
     </g>
    </g>
    <g id="text_11">
     <!-- cond -->
     <g transform="translate(14.798438 116.009688)rotate(-90)scale(0.1 -0.1)">
      <defs>
       <path id="DejaVuSans-6e" d="M 3513 2113 
L 3513 0 
L 2938 0 
L 2938 2094 
Q 2938 2591 2744 2837 
Q 2550 3084 2163 3084 
Q 1697 3084 1428 2787 
Q 1159 2491 1159 1978 
L 1159 0 
L 581 0 
L 581 3500 
L 1159 3500 
L 1159 2956 
Q 1366 3272 1645 3428 
Q 1925 3584 2291 3584 
Q 2894 3584 3203 3211 
Q 3513 2838 3513 2113 
z
" transform="scale(0.015625)"/>
       <path id="DejaVuSans-64" d="M 2906 2969 
L 2906 4863 
L 3481 4863 
L 3481 0 
L 2906 0 
L 2906 525 
Q 2725 213 2448 61 
Q 2172 -91 1784 -91 
Q 1150 -91 751 415 
Q 353 922 353 1747 
Q 353 2572 751 3078 
Q 1150 3584 1784 3584 
Q 2172 3584 2448 3432 
Q 2725 3281 2906 2969 
z
M 947 1747 
Q 947 1113 1208 752 
Q 1469 391 1925 391 
Q 2381 391 2643 752 
Q 2906 1113 2906 1747 
Q 2906 2381 2643 2742 
Q 2381 3103 1925 3103 
Q 1469 3103 1208 2742 
Q 947 2381 947 1747 
z
" transform="scale(0.015625)"/>
      </defs>
      <use xlink:href="#DejaVuSans-63"/>
      <use xlink:href="#DejaVuSans-6f" x="54.980469"/>
      <use xlink:href="#DejaVuSans-6e" x="116.162109"/>
      <use xlink:href="#DejaVuSans-64" x="179.541016"/>
     </g>
    </g>
   </g>
   <g id="line2d_10">
    <path d="M 44.792355 39.955304 
L 51.730982 39.955304 
" clip-path="url(#p4d587ca4aa)" style="fill: none; stroke: #424242; stroke-width: 2.7; stroke-linecap: square"/>
   </g>
   <g id="line2d_11">
    <path d="M 51.030946 65.516432 
L 60.114032 65.516432 
" clip-path="url(#p4d587ca4aa)" style="fill: none; stroke: #424242; stroke-width: 2.7; stroke-linecap: square"/>
   </g>
   <g id="line2d_12">
    <path d="M 77.617157 91.077561 
L 112.649591 91.077561 
" clip-path="url(#p4d587ca4aa)" style="fill: none; stroke: #424242; stroke-width: 2.7; stroke-linecap: square"/>
   </g>
   <g id="line2d_13">
    <path d="M 46.276768 116.638689 
L 51.539762 116.638689 
" clip-path="url(#p4d587ca4aa)" style="fill: none; stroke: #424242; stroke-width: 2.7; stroke-linecap: square"/>
   </g>
   <g id="line2d_14">
    <path d="M 61.400875 142.199818 
L 76.831967 142.199818 
" clip-path="url(#p4d587ca4aa)" style="fill: none; stroke: #424242; stroke-width: 2.7; stroke-linecap: square"/>
   </g>
   <g id="line2d_15">
    <path d="M 50.442077 167.760946 
L 62.744899 167.760946 
" clip-path="url(#p4d587ca4aa)" style="fill: none; stroke: #424242; stroke-width: 2.7; stroke-linecap: square"/>
   </g>
   <g id="line2d_16">
    <path d="M 149.23551 91.077561 
L 151.316827 91.077561 
L 151.316827 142.199818 
L 149.23551 142.199818 
" clip-path="url(#p4d587ca4aa)" style="fill: none; stroke: #333333; stroke-width: 1.5; stroke-linecap: square"/>
   </g>
   <g id="line2d_17">
    <path d="M 167.728641 91.077561 
L 169.809958 91.077561 
L 169.809958 167.760946 
L 167.728641 167.760946 
" clip-path="url(#p4d587ca4aa)" style="fill: none; stroke: #333333; stroke-width: 1.5; stroke-linecap: square"/>
   </g>
   <g id="patch_9">
    <path d="M 43.88125 185.398125 
L 43.88125 22.318125 
" style="fill: none; stroke: #000000; stroke-width: 0.8; stroke-linejoin: miter; stroke-linecap: square"/>
   </g>
   <g id="patch_10">
    <path d="M 183.38125 185.398125 
L 183.38125 22.318125 
" style="fill: none; stroke: #000000; stroke-width: 0.8; stroke-linejoin: miter; stroke-linecap: square"/>
   </g>
   <g id="patch_11">
    <path d="M 43.88125 185.398125 
L 183.38125 185.398125 
" style="fill: none; stroke: #000000; stroke-width: 0.8; stroke-linejoin: miter; stroke-linecap: square"/>
   </g>
   <g id="patch_12">
    <path d="M 43.88125 22.318125 
L 183.38125 22.318125 
" style="fill: none; stroke: #000000; stroke-width: 0.8; stroke-linejoin: miter; stroke-linecap: square"/>
   </g>
   <g id="PathCollection_1">
    <path d="M 0 236.652188 
C 0.663008 236.652188 1.29895 236.388772 1.767767 235.919954 
C 2.236584 235.451137 2.5 234.815195 2.5 234.152188 
C 2.5 233.48918 2.236584 232.853238 1.767767 232.384421 
C 1.29895 231.915603 0.663008 231.652188 0 231.652188 
C -0.663008 231.652188 -1.29895 231.915603 -1.767767 232.384421 
C -2.236584 232.853238 -2.5 233.48918 -2.5 234.152188 
C -2.5 234.815195 -2.236584 235.451137 -1.767767 235.919954 
C -1.29895 236.388772 -0.663008 236.652188 0 236.652188 
" clip-path="url(#p4d587ca4aa)" style="fill: none; stroke: #000000; stroke-width: 0.4"/>
   </g>
   <g id="PathCollection_2">
    <path d="M 0 236.652188 
C 0.663008 236.652188 1.29895 236.388772 1.767767 235.919954 
C 2.236584 235.451137 2.5 234.815195 2.5 234.152188 
C 2.5 233.48918 2.236584 232.853238 1.767767 232.384421 
C 1.29895 231.915603 0.663008 231.652188 0 231.652188 
C -0.663008 231.652188 -1.29895 231.915603 -1.767767 232.384421 
C -2.236584 232.853238 -2.5 233.48918 -2.5 234.152188 
C -2.5 234.815195 -2.236584 235.451137 -1.767767 235.919954 
C -1.29895 236.388772 -0.663008 236.652188 0 236.652188 
" clip-path="url(#p4d587ca4aa)" style="fill: none; stroke: #000000; stroke-width: 0.4"/>
   </g>
   <g id="PathCollection_3">
    <path d="M 0 236.652188 
C 0.663008 236.652188 1.29895 236.388772 1.767767 235.919954 
C 2.236584 235.451137 2.5 234.815195 2.5 234.152188 
C 2.5 233.48918 2.236584 232.853238 1.767767 232.384421 
C 1.29895 231.915603 0.663008 231.652188 0 231.652188 
C -0.663008 231.652188 -1.29895 231.915603 -1.767767 232.384421 
C -2.236584 232.853238 -2.5 233.48918 -2.5 234.152188 
C -2.5 234.815195 -2.236584 235.451137 -1.767767 235.919954 
C -1.29895 236.388772 -0.663008 236.652188 0 236.652188 
" clip-path="url(#p4d587ca4aa)" style="fill: none; stroke: #000000; stroke-width: 0.4"/>
   </g>
   <g id="PathCollection_4">
    <path d="M 0 236.652188 
C 0.663008 236.652188 1.29895 236.388772 1.767767 235.919954 
C 2.236584 235.451137 2.5 234.815195 2.5 234.152188 
C 2.5 233.48918 2.236584 232.853238 1.767767 232.384421 
C 1.29895 231.915603 0.663008 231.652188 0 231.652188 
C -0.663008 231.652188 -1.29895 231.915603 -1.767767 232.384421 
C -2.236584 232.853238 -2.5 233.48918 -2.5 234.152188 
C -2.5 234.815195 -2.236584 235.451137 -1.767767 235.919954 
C -1.29895 236.388772 -0.663008 236.652188 0 236.652188 
" clip-path="url(#p4d587ca4aa)" style="fill: none; stroke: #000000; stroke-width: 0.4"/>
   </g>
   <g id="PathCollection_5">
    <path d="M 0 236.652188 
C 0.663008 236.652188 1.29895 236.388772 1.767767 235.919954 
C 2.236584 235.451137 2.5 234.815195 2.5 234.152188 
C 2.5 233.48918 2.236584 232.853238 1.767767 232.384421 
C 1.29895 231.915603 0.663008 231.652188 0 231.652188 
C -0.663008 231.652188 -1.29895 231.915603 -1.767767 232.384421 
C -2.236584 232.853238 -2.5 233.48918 -2.5 234.152188 
C -2.5 234.815195 -2.236584 235.451137 -1.767767 235.919954 
C -1.29895 236.388772 -0.663008 236.652188 0 236.652188 
" clip-path="url(#p4d587ca4aa)" style="fill: none; stroke: #000000; stroke-width: 0.4"/>
   </g>
   <g id="PathCollection_6">
    <path d="M 0 236.652188 
C 0.663008 236.652188 1.29895 236.388772 1.767767 235.919954 
C 2.236584 235.451137 2.5 234.815195 2.5 234.152188 
C 2.5 233.48918 2.236584 232.853238 1.767767 232.384421 
C 1.29895 231.915603 0.663008 231.652188 0 231.652188 
C -0.663008 231.652188 -1.29895 231.915603 -1.767767 232.384421 
C -2.236584 232.853238 -2.5 233.48918 -2.5 234.152188 
C -2.5 234.815195 -2.236584 235.451137 -1.767767 235.919954 
C -1.29895 236.388772 -0.663008 236.652188 0 236.652188 
" clip-path="url(#p4d587ca4aa)" style="fill: none; stroke: #000000; stroke-width: 0.4"/>
   </g>
   <g id="PathCollection_7">
    <path d="M 2.5 235.152188 
L 2.5 231.652188 
L -1 231.652188 
" clip-path="url(#p4d587ca4aa)" style="fill: none; stroke: #000000; stroke-width: 0.4"/>
   </g>
   <g id="PathCollection_8">
    <path d="M 2.5 235.152188 
L 2.5 231.652188 
L -1 231.652188 
" clip-path="url(#p4d587ca4aa)" style="fill: none; stroke: #000000; stroke-width: 0.4"/>
   </g>
   <g id="PathCollection_9">
    <path d="M 2.5 235.152188 
L 2.5 231.652188 
L -1 231.652188 
" clip-path="url(#p4d587ca4aa)" style="fill: none; stroke: #000000; stroke-width: 0.4"/>
   </g>
   <g id="PathCollection_10">
    <path d="M 2.5 235.152188 
L 2.5 231.652188 
L -1 231.652188 
" clip-path="url(#p4d587ca4aa)" style="fill: none; stroke: #000000; stroke-width: 0.4"/>
   </g>
   <g id="PathCollection_11">
    <path d="M 2.5 235.152188 
L 2.5 231.652188 
L -1 231.652188 
" clip-path="url(#p4d587ca4aa)" style="fill: none; stroke: #000000; stroke-width: 0.4"/>
   </g>
   <g id="PathCollection_12">
    <path d="M 2.5 235.152188 
L 2.5 231.652188 
L -1 231.652188 
" clip-path="url(#p4d587ca4aa)" style="fill: none; stroke: #000000; stroke-width: 0.4"/>
   </g>
   <g id="PathCollection_13">
    <path d="M 0 231.652188 
L -1 233.652188 
M 1.75 235.152188 
L 0 231.652188 
" clip-path="url(#p4d587ca4aa)" style="fill: none; stroke: #000000; stroke-width: 0.4"/>
   </g>
   <g id="PathCollection_14">
    <path d="M 0 231.652188 
L -1 233.652188 
M 1.75 235.152188 
L 0 231.652188 
" clip-path="url(#p4d587ca4aa)" style="fill: none; stroke: #000000; stroke-width: 0.4"/>
   </g>
   <g id="PathCollection_15">
    <path d="M 0 231.652188 
L -1 233.652188 
M 1.75 235.152188 
L 0 231.652188 
" clip-path="url(#p4d587ca4aa)" style="fill: none; stroke: #000000; stroke-width: 0.4"/>
   </g>
   <g id="PathCollection_16">
    <path d="M 0 231.652188 
L -1 233.652188 
M 1.75 235.152188 
L 0 231.652188 
" clip-path="url(#p4d587ca4aa)" style="fill: none; stroke: #000000; stroke-width: 0.4"/>
   </g>
   <g id="PathCollection_17">
    <path d="M 0 231.652188 
L -1 233.652188 
M 1.75 235.152188 
L 0 231.652188 
" clip-path="url(#p4d587ca4aa)" style="fill: none; stroke: #000000; stroke-width: 0.4"/>
   </g>
   <g id="PathCollection_18">
    <path d="M 0 231.652188 
L -1 233.652188 
M 1.75 235.152188 
L 0 231.652188 
" clip-path="url(#p4d587ca4aa)" style="fill: none; stroke: #000000; stroke-width: 0.4"/>
   </g>
   <g id="PathCollection_19">
    <path d="M 45.547411 43.468839 
L 49.082944 39.933305 
L 45.547411 36.397771 
L 42.011877 39.933305 
z
" clip-path="url(#p4d587ca4aa)" style="fill: #ffffff; stroke: #000000; stroke-width: 0.4"/>
    <path d="M 46.228149 44.116941 
L 49.763683 40.581407 
L 46.228149 37.045873 
L 42.692615 40.581407 
z
" clip-path="url(#p4d587ca4aa)" style="fill: #ffffff; stroke: #000000; stroke-width: 0.4"/>
    <path d="M 50.197931 45.72811 
L 53.733465 42.192576 
L 50.197931 38.657042 
L 46.662397 42.192576 
z
" clip-path="url(#p4d587ca4aa)" style="fill: #ffffff; stroke: #000000; stroke-width: 0.4"/>
    <path d="M 43.88125 42.955055 
L 47.416784 39.419521 
L 43.88125 35.883987 
L 40.345716 39.419521 
z
" clip-path="url(#p4d587ca4aa)" style="fill: #ffffff; stroke: #000000; stroke-width: 0.4"/>
   </g>
   <g id="PathCollection_20">
    <path d="M 68.372361 70.551976 
L 71.907895 67.016442 
L 68.372361 63.480908 
L 64.836827 67.016442 
z
" clip-path="url(#p4d587ca4aa)" style="fill: #ffffff; stroke: #000000; stroke-width: 0.4"/>
    <path d="M 51.20865 67.040816 
L 54.744184 63.505282 
L 51.20865 59.969748 
L 47.673116 63.505282 
z
" clip-path="url(#p4d587ca4aa)" style="fill: #ffffff; stroke: #000000; stroke-width: 0.4"/>
    <path d="M 64.663434 71.022363 
L 68.198967 67.486829 
L 64.663434 63.951295 
L 61.1279 67.486829 
z
" clip-path="url(#p4d587ca4aa)" style="fill: #ffffff; stroke: #000000; stroke-width: 0.4"/>
    <path d="M 53.060191 67.363064 
L 56.595725 63.82753 
L 53.060191 60.291996 
L 49.524657 63.82753 
z
" clip-path="url(#p4d587ca4aa)" style="fill: #ffffff; stroke: #000000; stroke-width: 0.4"/>
   </g>
   <g id="PathCollection_21">
    <path d="M 131.441761 95.504105 
L 134.977295 91.968571 
L 131.441761 88.433037 
L 127.906227 91.968571 
z
" clip-path="url(#p4d587ca4aa)" style="fill: #ffffff; stroke: #000000; stroke-width: 0.4"/>
    <path d="M 75.052005 96.660883 
L 78.587539 93.125349 
L 75.052005 89.589815 
L 71.516471 93.125349 
z
" clip-path="url(#p4d587ca4aa)" style="fill: #ffffff; stroke: #000000; stroke-width: 0.4"/>
    <path d="M 142.99156 96.148402 
L 146.527094 92.612868 
L 142.99156 89.077334 
L 139.456027 92.612868 
z
" clip-path="url(#p4d587ca4aa)" style="fill: #ffffff; stroke: #000000; stroke-width: 0.4"/>
    <path d="M 106.976372 92.598248 
L 110.511906 89.062714 
L 106.976372 85.52718 
L 103.440838 89.062714 
z
" clip-path="url(#p4d587ca4aa)" style="fill: #ffffff; stroke: #000000; stroke-width: 0.4"/>
   </g>
   <g id="PathCollection_22">
    <path d="M 54.895288 120.90313 
L 58.430822 117.367596 
L 54.895288 113.832063 
L 51.359755 117.367596 
z
" clip-path="url(#p4d587ca4aa)" style="fill: #ffffff; stroke: #000000; stroke-width: 0.4"/>
    <path d="M 46.329801 121.606276 
L 49.865335 118.070742 
L 46.329801 114.535208 
L 42.794267 118.070742 
z
" clip-path="url(#p4d587ca4aa)" style="fill: #ffffff; stroke: #000000; stroke-width: 0.4"/>
    <path d="M 48.964376 117.882921 
L 52.49991 114.347387 
L 48.964376 110.811853 
L 45.428842 114.347387 
z
" clip-path="url(#p4d587ca4aa)" style="fill: #ffffff; stroke: #000000; stroke-width: 0.4"/>
    <path d="M 46.551503 118.20204 
L 50.087037 114.666506 
L 46.551503 111.130972 
L 43.01597 114.666506 
z
" clip-path="url(#p4d587ca4aa)" style="fill: #ffffff; stroke: #000000; stroke-width: 0.4"/>
   </g>
   <g id="PathCollection_23">
    <path d="M 80.410056 144.609122 
L 83.94559 141.073588 
L 80.410056 137.538054 
L 76.874522 141.073588 
z
" clip-path="url(#p4d587ca4aa)" style="fill: #ffffff; stroke: #000000; stroke-width: 0.4"/>
    <path d="M 82.38953 146.37794 
L 85.925064 142.842406 
L 82.38953 139.306872 
L 78.853996 142.842406 
z
" clip-path="url(#p4d587ca4aa)" style="fill: #ffffff; stroke: #000000; stroke-width: 0.4"/>
    <path d="M 66.680263 147.828686 
L 70.215797 144.293152 
L 66.680263 140.757618 
L 63.144729 144.293152 
z
" clip-path="url(#p4d587ca4aa)" style="fill: #ffffff; stroke: #000000; stroke-width: 0.4"/>
    <path d="M 86.791277 146.62835 
L 90.326811 143.092816 
L 86.791277 139.557283 
L 83.255743 143.092816 
z
" clip-path="url(#p4d587ca4aa)" style="fill: #ffffff; stroke: #000000; stroke-width: 0.4"/>
   </g>
   <g id="PathCollection_24">
    <path d="M 63.705721 170.497149 
L 67.241254 166.961615 
L 63.705721 163.426081 
L 60.170187 166.961615 
z
" clip-path="url(#p4d587ca4aa)" style="fill: #ffffff; stroke: #000000; stroke-width: 0.4"/>
    <path d="M 60.985752 169.24725 
L 64.521286 165.711716 
L 60.985752 162.176182 
L 57.450218 165.711716 
z
" clip-path="url(#p4d587ca4aa)" style="fill: #ffffff; stroke: #000000; stroke-width: 0.4"/>
    <path d="M 65.270421 170.389793 
L 68.805955 166.85426 
L 65.270421 163.318726 
L 61.734887 166.85426 
z
" clip-path="url(#p4d587ca4aa)" style="fill: #ffffff; stroke: #000000; stroke-width: 0.4"/>
    <path d="M 74.258146 170.526172 
L 77.79368 166.990638 
L 74.258146 163.455104 
L 70.722612 166.990638 
z
" clip-path="url(#p4d587ca4aa)" style="fill: #ffffff; stroke: #000000; stroke-width: 0.4"/>
   </g>
   <g id="PathCollection_25">
    <defs>
     <path id="C0_0_f654cb9890" d="M -0.833333 2.5 
L 0.833333 2.5 
L 0.833333 0.833333 
L 2.5 0.833333 
L 2.5 -0.833333 
L 0.833333 -0.833333 
L 0.833333 -2.5 
L -0.833333 -2.5 
L -0.833333 -0.833333 
L -2.5 -0.833333 
L -2.5 0.833333 
L -0.833333 0.833333 
z
"/>
    </defs>
    <g clip-path="url(#p4d587ca4aa)">
     <use xlink:href="#C0_0_f654cb9890" x="46.379592" y="40.453189" style="fill: #ffffff; stroke: #000000; stroke-width: 0.4"/>
    </g>
    <g clip-path="url(#p4d587ca4aa)">
     <use xlink:href="#C0_0_f654cb9890" x="45.299506" y="41.307714" style="fill: #ffffff; stroke: #000000; stroke-width: 0.4"/>
    </g>
    <g clip-path="url(#p4d587ca4aa)">
     <use xlink:href="#C0_0_f654cb9890" x="59.643394" y="41.546678" style="fill: #ffffff; stroke: #000000; stroke-width: 0.4"/>
    </g>
    <g clip-path="url(#p4d587ca4aa)">
     <use xlink:href="#C0_0_f654cb9890" x="45.111126" y="40.142908" style="fill: #ffffff; stroke: #000000; stroke-width: 0.4"/>
    </g>
   </g>
   <g id="PathCollection_26">
    <defs>
     <path id="C1_0_8594461735" d="M -0.833333 2.5 
L 0.833333 2.5 
L 0.833333 0.833333 
L 2.5 0.833333 
L 2.5 -0.833333 
L 0.833333 -0.833333 
L 0.833333 -2.5 
L -0.833333 -2.5 
L -0.833333 -0.833333 
L -2.5 -0.833333 
L -2.5 0.833333 
L -0.833333 0.833333 
z
"/>
    </defs>
    <g clip-path="url(#p4d587ca4aa)">
     <use xlink:href="#C1_0_8594461735" x="58.497136" y="66.914469" style="fill: #ffffff; stroke: #000000; stroke-width: 0.4"/>
    </g>
    <g clip-path="url(#p4d587ca4aa)">
     <use xlink:href="#C1_0_8594461735" x="49.836386" y="66.805771" style="fill: #ffffff; stroke: #000000; stroke-width: 0.4"/>
    </g>
    <g clip-path="url(#p4d587ca4aa)">
     <use xlink:href="#C1_0_8594461735" x="48.038603" y="64.669956" style="fill: #ffffff; stroke: #000000; stroke-width: 0.4"/>
    </g>
    <g clip-path="url(#p4d587ca4aa)">
     <use xlink:href="#C1_0_8594461735" x="51.538534" y="63.063796" style="fill: #ffffff; stroke: #000000; stroke-width: 0.4"/>
    </g>
   </g>
   <g id="PathCollection_27">
    <defs>
     <path id="C2_0_4dd3201697" d="M -0.833333 2.5 
L 0.833333 2.5 
L 0.833333 0.833333 
L 2.5 0.833333 
L 2.5 -0.833333 
L 0.833333 -0.833333 
L 0.833333 -2.5 
L -0.833333 -2.5 
L -0.833333 -0.833333 
L -2.5 -0.833333 
L -2.5 0.833333 
L -0.833333 0.833333 
z
"/>
    </defs>
    <g clip-path="url(#p4d587ca4aa)">
     <use xlink:href="#C2_0_4dd3201697" x="74.986617" y="92.001669" style="fill: #ffffff; stroke: #000000; stroke-width: 0.4"/>
    </g>
    <g clip-path="url(#p4d587ca4aa)">
     <use xlink:href="#C2_0_4dd3201697" x="71.259524" y="89.854491" style="fill: #ffffff; stroke: #000000; stroke-width: 0.4"/>
    </g>
    <g clip-path="url(#p4d587ca4aa)">
     <use xlink:href="#C2_0_4dd3201697" x="67.757059" y="90.701481" style="fill: #ffffff; stroke: #000000; stroke-width: 0.4"/>
    </g>
    <g clip-path="url(#p4d587ca4aa)">
     <use xlink:href="#C2_0_4dd3201697" x="74.607514" y="92.940791" style="fill: #ffffff; stroke: #000000; stroke-width: 0.4"/>
    </g>
   </g>
   <g id="PathCollection_28">
    <defs>
     <path id="C3_0_5a4e2ba2e8" d="M -0.833333 2.5 
L 0.833333 2.5 
L 0.833333 0.833333 
L 2.5 0.833333 
L 2.5 -0.833333 
L 0.833333 -0.833333 
L 0.833333 -2.5 
L -0.833333 -2.5 
L -0.833333 -0.833333 
L -2.5 -0.833333 
L -2.5 0.833333 
L -0.833333 0.833333 
z
"/>
    </defs>
    <g clip-path="url(#p4d587ca4aa)">
     <use xlink:href="#C3_0_5a4e2ba2e8" x="47.143044" y="117.478186" style="fill: #ffffff; stroke: #000000; stroke-width: 0.4"/>
    </g>
    <g clip-path="url(#p4d587ca4aa)">
     <use xlink:href="#C3_0_5a4e2ba2e8" x="48.203083" y="114.802125" style="fill: #ffffff; stroke: #000000; stroke-width: 0.4"/>
    </g>
    <g clip-path="url(#p4d587ca4aa)">
     <use xlink:href="#C3_0_5a4e2ba2e8" x="44.150717" y="116.487989" style="fill: #ffffff; stroke: #000000; stroke-width: 0.4"/>
    </g>
    <g clip-path="url(#p4d587ca4aa)">
     <use xlink:href="#C3_0_5a4e2ba2e8" x="54.666168" y="117.01712" style="fill: #ffffff; stroke: #000000; stroke-width: 0.4"/>
    </g>
   </g>
   <g id="PathCollection_29">
    <defs>
     <path id="C4_0_96288a8ce7" d="M -0.833333 2.5 
L 0.833333 2.5 
L 0.833333 0.833333 
L 2.5 0.833333 
L 2.5 -0.833333 
L 0.833333 -0.833333 
L 0.833333 -2.5 
L -0.833333 -2.5 
L -0.833333 -0.833333 
L -2.5 -0.833333 
L -2.5 0.833333 
L -0.833333 0.833333 
z
"/>
    </defs>
    <g clip-path="url(#p4d587ca4aa)">
     <use xlink:href="#C4_0_96288a8ce7" x="60.97408" y="144.07303" style="fill: #ffffff; stroke: #000000; stroke-width: 0.4"/>
    </g>
    <g clip-path="url(#p4d587ca4aa)">
     <use xlink:href="#C4_0_96288a8ce7" x="75.359121" y="140.453602" style="fill: #ffffff; stroke: #000000; stroke-width: 0.4"/>
    </g>
    <g clip-path="url(#p4d587ca4aa)">
     <use xlink:href="#C4_0_96288a8ce7" x="61.076163" y="140.942505" style="fill: #ffffff; stroke: #000000; stroke-width: 0.4"/>
    </g>
    <g clip-path="url(#p4d587ca4aa)">
     <use xlink:href="#C4_0_96288a8ce7" x="61.685247" y="142.310779" style="fill: #ffffff; stroke: #000000; stroke-width: 0.4"/>
    </g>
   </g>
   <g id="PathCollection_30">
    <defs>
     <path id="C5_0_a626650985" d="M -0.833333 2.5 
L 0.833333 2.5 
L 0.833333 0.833333 
L 2.5 0.833333 
L 2.5 -0.833333 
L 0.833333 -0.833333 
L 0.833333 -2.5 
L -0.833333 -2.5 
L -0.833333 -0.833333 
L -2.5 -0.833333 
L -2.5 0.833333 
L -0.833333 0.833333 
z
"/>
    </defs>
    <g clip-path="url(#p4d587ca4aa)">
     <use xlink:href="#C5_0_a626650985" x="49.611005" y="167.276047" style="fill: #ffffff; stroke: #000000; stroke-width: 0.4"/>
    </g>
    <g clip-path="url(#p4d587ca4aa)">
     <use xlink:href="#C5_0_a626650985" x="51.024065" y="168.689098" style="fill: #ffffff; stroke: #000000; stroke-width: 0.4"/>
    </g>
    <g clip-path="url(#p4d587ca4aa)">
     <use xlink:href="#C5_0_a626650985" x="44.635349" y="169.212899" style="fill: #ffffff; stroke: #000000; stroke-width: 0.4"/>
    </g>
    <g clip-path="url(#p4d587ca4aa)">
     <use xlink:href="#C5_0_a626650985" x="48.549095" y="168.620973" style="fill: #ffffff; stroke: #000000; stroke-width: 0.4"/>
    </g>
   </g>
   <g id="PathCollection_31">
    <defs>
     <path id="C6_0_cefadf9f65" d="M -1.25 2.5 
L 0 1.25 
L 1.25 2.5 
L 2.5 1.25 
L 1.25 -0 
L 2.5 -1.25 
L 1.25 -2.5 
L 0 -1.25 
L -1.25 -2.5 
L -2.5 -1.25 
L -1.25 0 
L -2.5 1.25 
z
"/>
    </defs>
    <g clip-path="url(#p4d587ca4aa)">
     <use xlink:href="#C6_0_cefadf9f65" x="44.349349" y="37.561147" style="fill: #ffffff; stroke: #000000; stroke-width: 0.4"/>
    </g>
    <g clip-path="url(#p4d587ca4aa)">
     <use xlink:href="#C6_0_cefadf9f65" x="44.52153" y="39.475969" style="fill: #ffffff; stroke: #000000; stroke-width: 0.4"/>
    </g>
   </g>
   <g id="PathCollection_32">
    <defs>
     <path id="C7_0_cd584c78b8" d="M -1.25 2.5 
L 0 1.25 
L 1.25 2.5 
L 2.5 1.25 
L 1.25 -0 
L 2.5 -1.25 
L 1.25 -2.5 
L 0 -1.25 
L -1.25 -2.5 
L -2.5 -1.25 
L -1.25 0 
L -2.5 1.25 
z
"/>
    </defs>
    <g clip-path="url(#p4d587ca4aa)">
     <use xlink:href="#C7_0_cd584c78b8" x="49.449539" y="67.905374" style="fill: #ffffff; stroke: #000000; stroke-width: 0.4"/>
    </g>
    <g clip-path="url(#p4d587ca4aa)">
     <use xlink:href="#C7_0_cd584c78b8" x="53.852959" y="66.843028" style="fill: #ffffff; stroke: #000000; stroke-width: 0.4"/>
    </g>
   </g>
   <g id="PathCollection_33">
    <defs>
     <path id="C8_0_d66c9ec5cb" d="M -1.25 2.5 
L 0 1.25 
L 1.25 2.5 
L 2.5 1.25 
L 1.25 -0 
L 2.5 -1.25 
L 1.25 -2.5 
L 0 -1.25 
L -1.25 -2.5 
L -2.5 -1.25 
L -1.25 0 
L -2.5 1.25 
z
"/>
    </defs>
    <g clip-path="url(#p4d587ca4aa)">
     <use xlink:href="#C8_0_d66c9ec5cb" x="72.622527" y="89.685184" style="fill: #ffffff; stroke: #000000; stroke-width: 0.4"/>
    </g>
    <g clip-path="url(#p4d587ca4aa)">
     <use xlink:href="#C8_0_d66c9ec5cb" x="112.933383" y="88.761651" style="fill: #ffffff; stroke: #000000; stroke-width: 0.4"/>
    </g>
   </g>
   <g id="PathCollection_34">
    <defs>
     <path id="C9_0_29ce653e82" d="M -1.25 2.5 
L 0 1.25 
L 1.25 2.5 
L 2.5 1.25 
L 1.25 -0 
L 2.5 -1.25 
L 1.25 -2.5 
L 0 -1.25 
L -1.25 -2.5 
L -2.5 -1.25 
L -1.25 0 
L -2.5 1.25 
z
"/>
    </defs>
    <g clip-path="url(#p4d587ca4aa)">
     <use xlink:href="#C9_0_29ce653e82" x="49.796317" y="118.431552" style="fill: #ffffff; stroke: #000000; stroke-width: 0.4"/>
    </g>
    <g clip-path="url(#p4d587ca4aa)">
     <use xlink:href="#C9_0_29ce653e82" x="45.533678" y="116.489177" style="fill: #ffffff; stroke: #000000; stroke-width: 0.4"/>
    </g>
   </g>
   <g id="PathCollection_35">
    <defs>
     <path id="Ca_0_d4362e74d2" d="M -1.25 2.5 
L 0 1.25 
L 1.25 2.5 
L 2.5 1.25 
L 1.25 -0 
L 2.5 -1.25 
L 1.25 -2.5 
L 0 -1.25 
L -1.25 -2.5 
L -2.5 -1.25 
L -1.25 0 
L -2.5 1.25 
z
"/>
    </defs>
    <g clip-path="url(#p4d587ca4aa)">
     <use xlink:href="#Ca_0_d4362e74d2" x="53.180619" y="140.182676" style="fill: #ffffff; stroke: #000000; stroke-width: 0.4"/>
    </g>
    <g clip-path="url(#p4d587ca4aa)">
     <use xlink:href="#Ca_0_d4362e74d2" x="57.509168" y="143.036401" style="fill: #ffffff; stroke: #000000; stroke-width: 0.4"/>
    </g>
   </g>
   <g id="PathCollection_36">
    <defs>
     <path id="Cb_0_bdbbfbe2d9" d="M -1.25 2.5 
L 0 1.25 
L 1.25 2.5 
L 2.5 1.25 
L 1.25 -0 
L 2.5 -1.25 
L 1.25 -2.5 
L 0 -1.25 
L -1.25 -2.5 
L -2.5 -1.25 
L -1.25 0 
L -2.5 1.25 
z
"/>
    </defs>
    <g clip-path="url(#p4d587ca4aa)">
     <use xlink:href="#Cb_0_bdbbfbe2d9" x="50.452837" y="169.369877" style="fill: #ffffff; stroke: #000000; stroke-width: 0.4"/>
    </g>
    <g clip-path="url(#p4d587ca4aa)">
     <use xlink:href="#Cb_0_bdbbfbe2d9" x="49.655772" y="168.59836" style="fill: #ffffff; stroke: #000000; stroke-width: 0.4"/>
    </g>
   </g>
   <g id="text_12">
    <!-- ns -->
    <g transform="translate(154.396514 110.865252)rotate(-270)scale(0.1 -0.1)">
     <use xlink:href="#DejaVuSans-6e"/>
     <use xlink:href="#DejaVuSans-73" x="63.378906"/>
    </g>
   </g>
   <g id="text_13">
    <!-- * -->
    <g transform="translate(172.889645 126.919254)rotate(-270)scale(0.1 -0.1)">
     <defs>
      <path id="DejaVuSans-2a" d="M 3009 3897 
L 1888 3291 
L 3009 2681 
L 2828 2375 
L 1778 3009 
L 1778 1831 
L 1422 1831 
L 1422 3009 
L 372 2375 
L 191 2681 
L 1313 3291 
L 191 3897 
L 372 4206 
L 1422 3572 
L 1422 4750 
L 1778 4750 
L 1778 3572 
L 2828 4206 
L 3009 3897 
z
" transform="scale(0.015625)"/>
     </defs>
     <use xlink:href="#DejaVuSans-2a"/>
    </g>
   </g>
   <g id="text_14">
    <g id="patch_13">
     <path d="M 56.115924 45.794366 
L 74.019049 45.794366 
L 74.019049 34.116241 
L 56.115924 34.116241 
z
" style="fill: #ffffff; opacity: 0.75"/>
    </g>
    <!-- 0.3 -->
    <g transform="translate(57.115924 42.714679)scale(0.1 -0.1)">
     <defs>
      <path id="DejaVuSans-2e" d="M 684 794 
L 1344 794 
L 1344 0 
L 684 0 
L 684 794 
z
" transform="scale(0.015625)"/>
      <path id="DejaVuSans-33" d="M 2597 2516 
Q 3050 2419 3304 2112 
Q 3559 1806 3559 1356 
Q 3559 666 3084 287 
Q 2609 -91 1734 -91 
Q 1441 -91 1130 -33 
Q 819 25 488 141 
L 488 750 
Q 750 597 1062 519 
Q 1375 441 1716 441 
Q 2309 441 2620 675 
Q 2931 909 2931 1356 
Q 2931 1769 2642 2001 
Q 2353 2234 1838 2234 
L 1294 2234 
L 1294 2753 
L 1863 2753 
Q 2328 2753 2575 2939 
Q 2822 3125 2822 3475 
Q 2822 3834 2567 4026 
Q 2313 4219 1838 4219 
Q 1578 4219 1281 4162 
Q 984 4106 628 3988 
L 628 4550 
Q 988 4650 1302 4700 
Q 1616 4750 1894 4750 
Q 2613 4750 3031 4423 
Q 3450 4097 3450 3541 
Q 3450 3153 3228 2886 
Q 3006 2619 2597 2516 
z
" transform="scale(0.015625)"/>
     </defs>
     <use xlink:href="#DejaVuSans-30"/>
     <use xlink:href="#DejaVuSans-2e" x="63.623047"/>
     <use xlink:href="#DejaVuSans-33" x="95.410156"/>
    </g>
   </g>
   <g id="text_15">
    <g id="patch_14">
     <path d="M 63.851779 71.355495 
L 81.754904 71.355495 
L 81.754904 59.67737 
L 63.851779 59.67737 
z
" style="fill: #ffffff; opacity: 0.75"/>
    </g>
    <!-- 0.8 -->
    <g transform="translate(64.851779 68.275807)scale(0.1 -0.1)">
     <defs>
      <path id="DejaVuSans-38" d="M 2034 2216 
Q 1584 2216 1326 1975 
Q 1069 1734 1069 1313 
Q 1069 891 1326 650 
Q 1584 409 2034 409 
Q 2484 409 2743 651 
Q 3003 894 3003 1313 
Q 3003 1734 2745 1975 
Q 2488 2216 2034 2216 
z
M 1403 2484 
Q 997 2584 770 2862 
Q 544 3141 544 3541 
Q 544 4100 942 4425 
Q 1341 4750 2034 4750 
Q 2731 4750 3128 4425 
Q 3525 4100 3525 3541 
Q 3525 3141 3298 2862 
Q 3072 2584 2669 2484 
Q 3125 2378 3379 2068 
Q 3634 1759 3634 1313 
Q 3634 634 3220 271 
Q 2806 -91 2034 -91 
Q 1263 -91 848 271 
Q 434 634 434 1313 
Q 434 1759 690 2068 
Q 947 2378 1403 2484 
z
M 1172 3481 
Q 1172 3119 1398 2916 
Q 1625 2713 2034 2713 
Q 2441 2713 2670 2916 
Q 2900 3119 2900 3481 
Q 2900 3844 2670 4047 
Q 2441 4250 2034 4250 
Q 1625 4250 1398 4047 
Q 1172 3844 1172 3481 
z
" transform="scale(0.015625)"/>
     </defs>
     <use xlink:href="#DejaVuSans-30"/>
     <use xlink:href="#DejaVuSans-2e" x="63.623047"/>
     <use xlink:href="#DejaVuSans-38" x="95.410156"/>
    </g>
   </g>
   <g id="text_16">
    <g id="patch_15">
     <path d="M 102.062832 96.916623 
L 119.965957 96.916623 
L 119.965957 85.238498 
L 102.062832 85.238498 
z
" style="fill: #ffffff; opacity: 0.75"/>
    </g>
    <!-- 3.8 -->
    <g transform="translate(103.062832 93.836936)scale(0.1 -0.1)">
     <use xlink:href="#DejaVuSans-33"/>
     <use xlink:href="#DejaVuSans-2e" x="63.623047"/>
     <use xlink:href="#DejaVuSans-38" x="95.410156"/>
    </g>
   </g>
   <g id="text_17">
    <g id="patch_16">
     <path d="M 57.623398 122.477752 
L 75.526523 122.477752 
L 75.526523 110.799627 
L 57.623398 110.799627 
z
" style="fill: #ffffff; opacity: 0.75"/>
    </g>
    <!-- 0.4 -->
    <g transform="translate(58.623398 119.398064)scale(0.1 -0.1)">
     <defs>
      <path id="DejaVuSans-34" d="M 2419 4116 
L 825 1625 
L 2419 1625 
L 2419 4116 
z
M 2253 4666 
L 3047 4666 
L 3047 1625 
L 3713 1625 
L 3713 1100 
L 3047 1100 
L 3047 0 
L 2419 0 
L 2419 1100 
L 313 1100 
L 313 1709 
L 2253 4666 
z
" transform="scale(0.015625)"/>
     </defs>
     <use xlink:href="#DejaVuSans-30"/>
     <use xlink:href="#DejaVuSans-2e" x="63.623047"/>
     <use xlink:href="#DejaVuSans-34" x="95.410156"/>
    </g>
   </g>
   <g id="text_18">
    <g id="patch_17">
     <path d="M 77.605552 148.03888 
L 95.508677 148.03888 
L 95.508677 136.360755 
L 77.605552 136.360755 
z
" style="fill: #ffffff; opacity: 0.75"/>
    </g>
    <!-- 1.9 -->
    <g transform="translate(78.605552 144.959193)scale(0.1 -0.1)">
     <defs>
      <path id="DejaVuSans-39" d="M 703 97 
L 703 672 
Q 941 559 1184 500 
Q 1428 441 1663 441 
Q 2288 441 2617 861 
Q 2947 1281 2994 2138 
Q 2813 1869 2534 1725 
Q 2256 1581 1919 1581 
Q 1219 1581 811 2004 
Q 403 2428 403 3163 
Q 403 3881 828 4315 
Q 1253 4750 1959 4750 
Q 2769 4750 3195 4129 
Q 3622 3509 3622 2328 
Q 3622 1225 3098 567 
Q 2575 -91 1691 -91 
Q 1453 -91 1209 -44 
Q 966 3 703 97 
z
M 1959 2075 
Q 2384 2075 2632 2365 
Q 2881 2656 2881 3163 
Q 2881 3666 2632 3958 
Q 2384 4250 1959 4250 
Q 1534 4250 1286 3958 
Q 1038 3666 1038 3163 
Q 1038 2656 1286 2365 
Q 1534 2075 1959 2075 
z
" transform="scale(0.015625)"/>
     </defs>
     <use xlink:href="#DejaVuSans-31"/>
     <use xlink:href="#DejaVuSans-2e" x="63.623047"/>
     <use xlink:href="#DejaVuSans-39" x="95.410156"/>
    </g>
   </g>
   <g id="text_19">
    <g id="patch_18">
     <path d="M 64.814816 173.600009 
L 82.717941 173.600009 
L 82.717941 161.921884 
L 64.814816 161.921884 
z
" style="fill: #ffffff; opacity: 0.75"/>
    </g>
    <!-- 0.9 -->
    <g transform="translate(65.814816 170.520321)scale(0.1 -0.1)">
     <use xlink:href="#DejaVuSans-30"/>
     <use xlink:href="#DejaVuSans-2e" x="63.623047"/>
     <use xlink:href="#DejaVuSans-39" x="95.410156"/>
    </g>
   </g>
   <g id="text_20">
    <!-- 14 dpi, – DDRR -->
    <g transform="translate(68.505625 16.318125)scale(0.12 -0.12)">
     <defs>
      <path id="DejaVuSans-70" d="M 1159 525 
L 1159 -1331 
L 581 -1331 
L 581 3500 
L 1159 3500 
L 1159 2969 
Q 1341 3281 1617 3432 
Q 1894 3584 2278 3584 
Q 2916 3584 3314 3078 
Q 3713 2572 3713 1747 
Q 3713 922 3314 415 
Q 2916 -91 2278 -91 
Q 1894 -91 1617 61 
Q 1341 213 1159 525 
z
M 3116 1747 
Q 3116 2381 2855 2742 
Q 2594 3103 2138 3103 
Q 1681 3103 1420 2742 
Q 1159 2381 1159 1747 
Q 1159 1113 1420 752 
Q 1681 391 2138 391 
Q 2594 391 2855 752 
Q 3116 1113 3116 1747 
z
" transform="scale(0.015625)"/>
      <path id="DejaVuSans-2c" d="M 750 794 
L 1409 794 
L 1409 256 
L 897 -744 
L 494 -744 
L 750 256 
L 750 794 
z
" transform="scale(0.015625)"/>
      <path id="DejaVuSans-2013" d="M 313 1978 
L 2888 1978 
L 2888 1528 
L 313 1528 
L 313 1978 
z
" transform="scale(0.015625)"/>
      <path id="DejaVuSans-44" d="M 1259 4147 
L 1259 519 
L 2022 519 
Q 2988 519 3436 956 
Q 3884 1394 3884 2338 
Q 3884 3275 3436 3711 
Q 2988 4147 2022 4147 
L 1259 4147 
z
M 628 4666 
L 1925 4666 
Q 3281 4666 3915 4102 
Q 4550 3538 4550 2338 
Q 4550 1131 3912 565 
Q 3275 0 1925 0 
L 628 0 
L 628 4666 
z
" transform="scale(0.015625)"/>
      <path id="DejaVuSans-52" d="M 2841 2188 
Q 3044 2119 3236 1894 
Q 3428 1669 3622 1275 
L 4263 0 
L 3584 0 
L 2988 1197 
Q 2756 1666 2539 1819 
Q 2322 1972 1947 1972 
L 1259 1972 
L 1259 0 
L 628 0 
L 628 4666 
L 2053 4666 
Q 2853 4666 3247 4331 
Q 3641 3997 3641 3322 
Q 3641 2881 3436 2590 
Q 3231 2300 2841 2188 
z
M 1259 4147 
L 1259 2491 
L 2053 2491 
Q 2509 2491 2742 2702 
Q 2975 2913 2975 3322 
Q 2975 3731 2742 3939 
Q 2509 4147 2053 4147 
L 1259 4147 
z
" transform="scale(0.015625)"/>
     </defs>
     <use xlink:href="#DejaVuSans-31"/>
     <use xlink:href="#DejaVuSans-34" x="63.623047"/>
     <use xlink:href="#DejaVuSans-20" x="127.246094"/>
     <use xlink:href="#DejaVuSans-64" x="159.033203"/>
     <use xlink:href="#DejaVuSans-70" x="222.509766"/>
     <use xlink:href="#DejaVuSans-69" x="285.986328"/>
     <use xlink:href="#DejaVuSans-2c" x="313.769531"/>
     <use xlink:href="#DejaVuSans-20" x="345.556641"/>
     <use xlink:href="#DejaVuSans-2013" x="377.34375"/>
     <use xlink:href="#DejaVuSans-20" x="427.34375"/>
     <use xlink:href="#DejaVuSans-44" x="459.130859"/>
     <use xlink:href="#DejaVuSans-44" x="536.132812"/>
     <use xlink:href="#DejaVuSans-52" x="613.134766"/>
     <use xlink:href="#DejaVuSans-52" x="682.617188"/>
    </g>
   </g>
  </g>
 </g>
 <defs>
  <clipPath id="p4d587ca4aa">
   <rect x="43.88125" y="22.318125" width="139.5" height="163.08"/>
  </clipPath>
 </defs>
</svg>
