<?xml version="1.0" encoding="utf-8" standalone="no"?>
<!DOCTYPE svg PUBLIC "-//W3C//DTD SVG 1.1//EN"
  "http://www.w3.org/Graphics/SVG/1.1/DTD/svg11.dtd">
<svg xmlns:xlink="http://www.w3.org/1999/xlink" width="190.58125pt" height="234.152188pt" viewBox="0 0 190.58125 234.152188" xmlns="http://www.w3.org/2000/svg" version="1.1">
 <metadata>
  <rdf:RDF xmlns:dc="http://purl.org/dc/elements/1.1/" xmlns:cc="http://creativecommons.org/ns#" xmlns:rdf="http://www.w3.org/1999/02/22-rdf-syntax-ns#">
   <cc:Work>
    <dc:type rdf:resource="http://purl.org/dc/dcmitype/StillImage"/>
    <dc:date>2025-01-27T14:18:59.633247</dc:date>
    <dc:format>image/svg+xml</dc:format>
    <dc:creator>
     <cc:Agent>
      <dc:title>Matplotlib v3.5.2, https://matplotlib.org/</dc:title>
     </cc:Agent>
    </dc:creator>
   </cc:Work>
  </rdf:RDF>
 </metadata>
 <defs>
  <style type="text/css">*{stroke-linejoin: round; stroke-linecap: butt}</style>
 </defs>
 <g id="figure_1">
  <g id="patch_1">
   <path d="M 0 234.152188 
L 190.58125 234.152188 
L 190.58125 -0 
L 0 -0 
L 0 234.152188 
z
" style="fill: none"/>
  </g>
  <g id="axes_1">
   <g id="patch_2">
    <path d="M 43.88125 185.398125 
L 183.38125 185.398125 
L 183.38125 22.318125 
L 43.88125 22.318125 
z
" style="fill: #ffffff"/>
   </g>
   <g id="patch_3">
    <path d="M 43.88125 29.730852 
L 51.430832 29.730852 
L 51.430832 50.179755 
L 43.88125 50.179755 
z
" clip-path="url(#p8863683f65)" style="fill: #45ba45; opacity: 0.3"/>
   </g>
   <g id="patch_4">
    <path d="M 43.88125 55.291981 
L 51.970875 55.291981 
L 51.970875 75.740884 
L 43.88125 75.740884 
z
" clip-path="url(#p8863683f65)" style="fill: #45ba45; opacity: 0.3"/>
   </g>
   <g id="patch_5">
    <path d="M 43.88125 80.853109 
L 90.43987 80.853109 
L 90.43987 101.302012 
L 43.88125 101.302012 
z
" clip-path="url(#p8863683f65)" style="fill: #45ba45; opacity: 0.3"/>
   </g>
   <g id="patch_6">
    <path d="M 43.88125 106.414238 
L 95.115982 106.414238 
L 95.115982 126.863141 
L 43.88125 126.863141 
z
" clip-path="url(#p8863683f65)" style="fill: #45ba45; opacity: 0.3"/>
   </g>
   <g id="patch_7">
    <path d="M 43.88125 131.975366 
L 103.972511 131.975366 
L 103.972511 152.424269 
L 43.88125 152.424269 
z
" clip-path="url(#p8863683f65)" style="fill: #45ba45; opacity: 0.3"/>
   </g>
   <g id="patch_8">
    <path d="M 43.88125 157.536495 
L 137.424556 157.536495 
L 137.424556 177.985398 
L 43.88125 177.985398 
z
" clip-path="url(#p8863683f65)" style="fill: #45ba45; opacity: 0.3"/>
   </g>
   <g id="matplotlib.axis_1">
    <g id="xtick_1">
     <g id="line2d_1">
      <defs>
       <path id="m44ce7d579f" d="M 0 0 
L 0 3.5 
" style="stroke: #000000; stroke-width: 0.8"/>
      </defs>
      <g>
       <use xlink:href="#m44ce7d579f" x="43.88125" y="185.398125" style="stroke: #000000; stroke-width: 0.8"/>
      </g>
     </g>
     <g id="text_1">
      <!-- 0 -->
      <g transform="translate(40.7 199.996563)scale(0.1 -0.1)">
       <defs>
        <path id="DejaVuSans-30" d="M 2034 4250 
Q 1547 4250 1301 3770 
Q 1056 3291 1056 2328 
Q 1056 1369 1301 889 
Q 1547 409 2034 409 
Q 2525 409 2770 889 
Q 3016 1369 3016 2328 
Q 3016 3291 2770 3770 
Q 2525 4250 2034 4250 
z
M 2034 4750 
Q 2819 4750 3233 4129 
Q 3647 3509 3647 2328 
Q 3647 1150 3233 529 
Q 2819 -91 2034 -91 
Q 1250 -91 836 529 
Q 422 1150 422 2328 
Q 422 3509 836 4129 
Q 1250 4750 2034 4750 
z
" transform="scale(0.015625)"/>
       </defs>
       <use xlink:href="#DejaVuSans-30"/>
      </g>
     </g>
    </g>
    <g id="xtick_2">
     <g id="line2d_2">
      <g>
       <use xlink:href="#m44ce7d579f" x="83.721397" y="185.398125" style="stroke: #000000; stroke-width: 0.8"/>
      </g>
     </g>
     <g id="text_2">
      <!-- 20 -->
      <g transform="translate(77.358897 199.996563)scale(0.1 -0.1)">
       <defs>
        <path id="DejaVuSans-32" d="M 1228 531 
L 3431 531 
L 3431 0 
L 469 0 
L 469 531 
Q 828 903 1448 1529 
Q 2069 2156 2228 2338 
Q 2531 2678 2651 2914 
Q 2772 3150 2772 3378 
Q 2772 3750 2511 3984 
Q 2250 4219 1831 4219 
Q 1534 4219 1204 4116 
Q 875 4013 500 3803 
L 500 4441 
Q 881 4594 1212 4672 
Q 1544 4750 1819 4750 
Q 2544 4750 2975 4387 
Q 3406 4025 3406 3419 
Q 3406 3131 3298 2873 
Q 3191 2616 2906 2266 
Q 2828 2175 2409 1742 
Q 1991 1309 1228 531 
z
" transform="scale(0.015625)"/>
       </defs>
       <use xlink:href="#DejaVuSans-32"/>
       <use xlink:href="#DejaVuSans-30" x="63.623047"/>
      </g>
     </g>
    </g>
    <g id="xtick_3">
     <g id="line2d_3">
      <g>
       <use xlink:href="#m44ce7d579f" x="123.561544" y="185.398125" style="stroke: #000000; stroke-width: 0.8"/>
      </g>
     </g>
     <g id="text_3">
      <!-- 40 -->
      <g transform="translate(117.199044 199.996563)scale(0.1 -0.1)">
       <defs>
        <path id="DejaVuSans-34" d="M 2419 4116 
L 825 1625 
L 2419 1625 
L 2419 4116 
z
M 2253 4666 
L 3047 4666 
L 3047 1625 
L 3713 1625 
L 3713 1100 
L 3047 1100 
L 3047 0 
L 2419 0 
L 2419 1100 
L 313 1100 
L 313 1709 
L 2253 4666 
z
" transform="scale(0.015625)"/>
       </defs>
       <use xlink:href="#DejaVuSans-34"/>
       <use xlink:href="#DejaVuSans-30" x="63.623047"/>
      </g>
     </g>
    </g>
    <g id="xtick_4">
     <g id="line2d_4">
      <g>
       <use xlink:href="#m44ce7d579f" x="163.401691" y="185.398125" style="stroke: #000000; stroke-width: 0.8"/>
      </g>
     </g>
     <g id="text_4">
      <!-- 60 -->
      <g transform="translate(157.039191 199.996563)scale(0.1 -0.1)">
       <defs>
        <path id="DejaVuSans-36" d="M 2113 2584 
Q 1688 2584 1439 2293 
Q 1191 2003 1191 1497 
Q 1191 994 1439 701 
Q 1688 409 2113 409 
Q 2538 409 2786 701 
Q 3034 994 3034 1497 
Q 3034 2003 2786 2293 
Q 2538 2584 2113 2584 
z
M 3366 4563 
L 3366 3988 
Q 3128 4100 2886 4159 
Q 2644 4219 2406 4219 
Q 1781 4219 1451 3797 
Q 1122 3375 1075 2522 
Q 1259 2794 1537 2939 
Q 1816 3084 2150 3084 
Q 2853 3084 3261 2657 
Q 3669 2231 3669 1497 
Q 3669 778 3244 343 
Q 2819 -91 2113 -91 
Q 1303 -91 875 529 
Q 447 1150 447 2328 
Q 447 3434 972 4092 
Q 1497 4750 2381 4750 
Q 2619 4750 2861 4703 
Q 3103 4656 3366 4563 
z
" transform="scale(0.015625)"/>
       </defs>
       <use xlink:href="#DejaVuSans-36"/>
       <use xlink:href="#DejaVuSans-30" x="63.623047"/>
      </g>
     </g>
    </g>
    <g id="text_5">
     <!-- (%) iMN -->
     <g transform="translate(93.946094 213.674688)scale(0.1 -0.1)">
      <defs>
       <path id="DejaVuSans-28" d="M 1984 4856 
Q 1566 4138 1362 3434 
Q 1159 2731 1159 2009 
Q 1159 1288 1364 580 
Q 1569 -128 1984 -844 
L 1484 -844 
Q 1016 -109 783 600 
Q 550 1309 550 2009 
Q 550 2706 781 3412 
Q 1013 4119 1484 4856 
L 1984 4856 
z
" transform="scale(0.015625)"/>
       <path id="DejaVuSans-25" d="M 4653 2053 
Q 4381 2053 4226 1822 
Q 4072 1591 4072 1178 
Q 4072 772 4226 539 
Q 4381 306 4653 306 
Q 4919 306 5073 539 
Q 5228 772 5228 1178 
Q 5228 1588 5073 1820 
Q 4919 2053 4653 2053 
z
M 4653 2450 
Q 5147 2450 5437 2106 
Q 5728 1763 5728 1178 
Q 5728 594 5436 251 
Q 5144 -91 4653 -91 
Q 4153 -91 3862 251 
Q 3572 594 3572 1178 
Q 3572 1766 3864 2108 
Q 4156 2450 4653 2450 
z
M 1428 4353 
Q 1159 4353 1004 4120 
Q 850 3888 850 3481 
Q 850 3069 1003 2837 
Q 1156 2606 1428 2606 
Q 1700 2606 1854 2837 
Q 2009 3069 2009 3481 
Q 2009 3884 1853 4118 
Q 1697 4353 1428 4353 
z
M 4250 4750 
L 4750 4750 
L 1831 -91 
L 1331 -91 
L 4250 4750 
z
M 1428 4750 
Q 1922 4750 2215 4408 
Q 2509 4066 2509 3481 
Q 2509 2891 2217 2550 
Q 1925 2209 1428 2209 
Q 931 2209 642 2551 
Q 353 2894 353 3481 
Q 353 4063 643 4406 
Q 934 4750 1428 4750 
z
" transform="scale(0.015625)"/>
       <path id="DejaVuSans-29" d="M 513 4856 
L 1013 4856 
Q 1481 4119 1714 3412 
Q 1947 2706 1947 2009 
Q 1947 1309 1714 600 
Q 1481 -109 1013 -844 
L 513 -844 
Q 928 -128 1133 580 
Q 1338 1288 1338 2009 
Q 1338 2731 1133 3434 
Q 928 4138 513 4856 
z
" transform="scale(0.015625)"/>
       <path id="DejaVuSans-20" transform="scale(0.015625)"/>
       <path id="DejaVuSans-69" d="M 603 3500 
L 1178 3500 
L 1178 0 
L 603 0 
L 603 3500 
z
M 603 4863 
L 1178 4863 
L 1178 4134 
L 603 4134 
L 603 4863 
z
" transform="scale(0.015625)"/>
       <path id="DejaVuSans-4d" d="M 628 4666 
L 1569 4666 
L 2759 1491 
L 3956 4666 
L 4897 4666 
L 4897 0 
L 4281 0 
L 4281 4097 
L 3078 897 
L 2444 897 
L 1241 4097 
L 1241 0 
L 628 0 
L 628 4666 
z
" transform="scale(0.015625)"/>
       <path id="DejaVuSans-4e" d="M 628 4666 
L 1478 4666 
L 3547 763 
L 3547 4666 
L 4159 4666 
L 4159 0 
L 3309 0 
L 1241 3903 
L 1241 0 
L 628 0 
L 628 4666 
z
" transform="scale(0.015625)"/>
      </defs>
      <use xlink:href="#DejaVuSans-28"/>
      <use xlink:href="#DejaVuSans-25" x="39.013672"/>
      <use xlink:href="#DejaVuSans-29" x="134.033203"/>
      <use xlink:href="#DejaVuSans-20" x="173.046875"/>
      <use xlink:href="#DejaVuSans-69" x="204.833984"/>
      <use xlink:href="#DejaVuSans-4d" x="232.617188"/>
      <use xlink:href="#DejaVuSans-4e" x="318.896484"/>
     </g>
     <!-- of all cells -->
     <g transform="translate(88.582812 224.8725)scale(0.1 -0.1)">
      <defs>
       <path id="DejaVuSans-6f" d="M 1959 3097 
Q 1497 3097 1228 2736 
Q 959 2375 959 1747 
Q 959 1119 1226 758 
Q 1494 397 1959 397 
Q 2419 397 2687 759 
Q 2956 1122 2956 1747 
Q 2956 2369 2687 2733 
Q 2419 3097 1959 3097 
z
M 1959 3584 
Q 2709 3584 3137 3096 
Q 3566 2609 3566 1747 
Q 3566 888 3137 398 
Q 2709 -91 1959 -91 
Q 1206 -91 779 398 
Q 353 888 353 1747 
Q 353 2609 779 3096 
Q 1206 3584 1959 3584 
z
" transform="scale(0.015625)"/>
       <path id="DejaVuSans-66" d="M 2375 4863 
L 2375 4384 
L 1825 4384 
Q 1516 4384 1395 4259 
Q 1275 4134 1275 3809 
L 1275 3500 
L 2222 3500 
L 2222 3053 
L 1275 3053 
L 1275 0 
L 697 0 
L 697 3053 
L 147 3053 
L 147 3500 
L 697 3500 
L 697 3744 
Q 697 4328 969 4595 
Q 1241 4863 1831 4863 
L 2375 4863 
z
" transform="scale(0.015625)"/>
       <path id="DejaVuSans-61" d="M 2194 1759 
Q 1497 1759 1228 1600 
Q 959 1441 959 1056 
Q 959 750 1161 570 
Q 1363 391 1709 391 
Q 2188 391 2477 730 
Q 2766 1069 2766 1631 
L 2766 1759 
L 2194 1759 
z
M 3341 1997 
L 3341 0 
L 2766 0 
L 2766 531 
Q 2569 213 2275 61 
Q 1981 -91 1556 -91 
Q 1019 -91 701 211 
Q 384 513 384 1019 
Q 384 1609 779 1909 
Q 1175 2209 1959 2209 
L 2766 2209 
L 2766 2266 
Q 2766 2663 2505 2880 
Q 2244 3097 1772 3097 
Q 1472 3097 1187 3025 
Q 903 2953 641 2809 
L 641 3341 
Q 956 3463 1253 3523 
Q 1550 3584 1831 3584 
Q 2591 3584 2966 3190 
Q 3341 2797 3341 1997 
z
" transform="scale(0.015625)"/>
       <path id="DejaVuSans-6c" d="M 603 4863 
L 1178 4863 
L 1178 0 
L 603 0 
L 603 4863 
z
" transform="scale(0.015625)"/>
       <path id="DejaVuSans-63" d="M 3122 3366 
L 3122 2828 
Q 2878 2963 2633 3030 
Q 2388 3097 2138 3097 
Q 1578 3097 1268 2742 
Q 959 2388 959 1747 
Q 959 1106 1268 751 
Q 1578 397 2138 397 
Q 2388 397 2633 464 
Q 2878 531 3122 666 
L 3122 134 
Q 2881 22 2623 -34 
Q 2366 -91 2075 -91 
Q 1284 -91 818 406 
Q 353 903 353 1747 
Q 353 2603 823 3093 
Q 1294 3584 2113 3584 
Q 2378 3584 2631 3529 
Q 2884 3475 3122 3366 
z
" transform="scale(0.015625)"/>
       <path id="DejaVuSans-65" d="M 3597 1894 
L 3597 1613 
L 953 1613 
Q 991 1019 1311 708 
Q 1631 397 2203 397 
Q 2534 397 2845 478 
Q 3156 559 3463 722 
L 3463 178 
Q 3153 47 2828 -22 
Q 2503 -91 2169 -91 
Q 1331 -91 842 396 
Q 353 884 353 1716 
Q 353 2575 817 3079 
Q 1281 3584 2069 3584 
Q 2775 3584 3186 3129 
Q 3597 2675 3597 1894 
z
M 3022 2063 
Q 3016 2534 2758 2815 
Q 2500 3097 2075 3097 
Q 1594 3097 1305 2825 
Q 1016 2553 972 2059 
L 3022 2063 
z
" transform="scale(0.015625)"/>
       <path id="DejaVuSans-73" d="M 2834 3397 
L 2834 2853 
Q 2591 2978 2328 3040 
Q 2066 3103 1784 3103 
Q 1356 3103 1142 2972 
Q 928 2841 928 2578 
Q 928 2378 1081 2264 
Q 1234 2150 1697 2047 
L 1894 2003 
Q 2506 1872 2764 1633 
Q 3022 1394 3022 966 
Q 3022 478 2636 193 
Q 2250 -91 1575 -91 
Q 1294 -91 989 -36 
Q 684 19 347 128 
L 347 722 
Q 666 556 975 473 
Q 1284 391 1588 391 
Q 1994 391 2212 530 
Q 2431 669 2431 922 
Q 2431 1156 2273 1281 
Q 2116 1406 1581 1522 
L 1381 1569 
Q 847 1681 609 1914 
Q 372 2147 372 2553 
Q 372 3047 722 3315 
Q 1072 3584 1716 3584 
Q 2034 3584 2315 3537 
Q 2597 3491 2834 3397 
z
" transform="scale(0.015625)"/>
      </defs>
      <use xlink:href="#DejaVuSans-6f"/>
      <use xlink:href="#DejaVuSans-66" x="61.181641"/>
      <use xlink:href="#DejaVuSans-20" x="96.386719"/>
      <use xlink:href="#DejaVuSans-61" x="128.173828"/>
      <use xlink:href="#DejaVuSans-6c" x="189.453125"/>
      <use xlink:href="#DejaVuSans-6c" x="217.236328"/>
      <use xlink:href="#DejaVuSans-20" x="245.019531"/>
      <use xlink:href="#DejaVuSans-63" x="276.806641"/>
      <use xlink:href="#DejaVuSans-65" x="331.787109"/>
      <use xlink:href="#DejaVuSans-6c" x="393.310547"/>
      <use xlink:href="#DejaVuSans-6c" x="421.09375"/>
      <use xlink:href="#DejaVuSans-73" x="448.876953"/>
     </g>
    </g>
   </g>
   <g id="matplotlib.axis_2">
    <g id="ytick_1">
     <g id="line2d_5">
      <defs>
       <path id="m31a8213f5f" d="M 0 0 
L -3.5 0 
" style="stroke: #000000; stroke-width: 0.8"/>
      </defs>
      <g>
       <use xlink:href="#m31a8213f5f" x="43.88125" y="39.955304" style="stroke: #000000; stroke-width: 0.8"/>
      </g>
     </g>
     <g id="text_6">
      <!-- ILN -->
      <g transform="translate(20.878125 43.754522)scale(0.1 -0.1)">
       <defs>
        <path id="DejaVuSans-49" d="M 628 4666 
L 1259 4666 
L 1259 0 
L 628 0 
L 628 4666 
z
" transform="scale(0.015625)"/>
        <path id="DejaVuSans-4c" d="M 628 4666 
L 1259 4666 
L 1259 531 
L 3531 531 
L 3531 0 
L 628 0 
L 628 4666 
z
" transform="scale(0.015625)"/>
       </defs>
       <use xlink:href="#DejaVuSans-49"/>
       <use xlink:href="#DejaVuSans-4c" x="29.492188"/>
       <use xlink:href="#DejaVuSans-4e" x="85.205078"/>
      </g>
     </g>
    </g>
    <g id="ytick_2">
     <g id="line2d_6">
      <g>
       <use xlink:href="#m31a8213f5f" x="43.88125" y="65.516432" style="stroke: #000000; stroke-width: 0.8"/>
      </g>
     </g>
     <g id="text_7">
      <!-- INL -->
      <g transform="translate(20.878125 69.315651)scale(0.1 -0.1)">
       <use xlink:href="#DejaVuSans-49"/>
       <use xlink:href="#DejaVuSans-4e" x="29.492188"/>
       <use xlink:href="#DejaVuSans-4c" x="104.296875"/>
      </g>
     </g>
    </g>
    <g id="ytick_3">
     <g id="line2d_7">
      <g>
       <use xlink:href="#m31a8213f5f" x="43.88125" y="91.077561" style="stroke: #000000; stroke-width: 0.8"/>
      </g>
     </g>
     <g id="text_8">
      <!-- NIL -->
      <g transform="translate(20.878125 94.876779)scale(0.1 -0.1)">
       <use xlink:href="#DejaVuSans-4e"/>
       <use xlink:href="#DejaVuSans-49" x="74.804688"/>
       <use xlink:href="#DejaVuSans-4c" x="104.296875"/>
      </g>
     </g>
    </g>
    <g id="ytick_4">
     <g id="line2d_8">
      <g>
       <use xlink:href="#m31a8213f5f" x="43.88125" y="116.638689" style="stroke: #000000; stroke-width: 0.8"/>
      </g>
     </g>
     <g id="text_9">
      <!-- LIN -->
      <g transform="translate(20.878125 120.437908)scale(0.1 -0.1)">
       <use xlink:href="#DejaVuSans-4c"/>
       <use xlink:href="#DejaVuSans-49" x="55.712891"/>
       <use xlink:href="#DejaVuSans-4e" x="85.205078"/>
      </g>
     </g>
    </g>
    <g id="ytick_5">
     <g id="line2d_9">
      <g>
       <use xlink:href="#m31a8213f5f" x="43.88125" y="142.199818" style="stroke: #000000; stroke-width: 0.8"/>
      </g>
     </g>
     <g id="text_10">
      <!-- NLI -->
      <g transform="translate(20.878125 145.999037)scale(0.1 -0.1)">
       <use xlink:href="#DejaVuSans-4e"/>
       <use xlink:href="#DejaVuSans-4c" x="74.804688"/>
       <use xlink:href="#DejaVuSans-49" x="130.517578"/>
      </g>
     </g>
    </g>
    <g id="ytick_6">
     <g id="line2d_10">
      <g>
       <use xlink:href="#m31a8213f5f" x="43.88125" y="167.760946" style="stroke: #000000; stroke-width: 0.8"/>
      </g>
     </g>
     <g id="text_11">
      <!-- LNI -->
      <g transform="translate(20.878125 171.560165)scale(0.1 -0.1)">
       <use xlink:href="#DejaVuSans-4c"/>
       <use xlink:href="#DejaVuSans-4e" x="55.712891"/>
       <use xlink:href="#DejaVuSans-49" x="130.517578"/>
      </g>
     </g>
    </g>
    <g id="text_12">
     <!-- cond -->
     <g transform="translate(14.798438 116.009688)rotate(-90)scale(0.1 -0.1)">
      <defs>
       <path id="DejaVuSans-6e" d="M 3513 2113 
L 3513 0 
L 2938 0 
L 2938 2094 
Q 2938 2591 2744 2837 
Q 2550 3084 2163 3084 
Q 1697 3084 1428 2787 
Q 1159 2491 1159 1978 
L 1159 0 
L 581 0 
L 581 3500 
L 1159 3500 
L 1159 2956 
Q 1366 3272 1645 3428 
Q 1925 3584 2291 3584 
Q 2894 3584 3203 3211 
Q 3513 2838 3513 2113 
z
" transform="scale(0.015625)"/>
       <path id="DejaVuSans-64" d="M 2906 2969 
L 2906 4863 
L 3481 4863 
L 3481 0 
L 2906 0 
L 2906 525 
Q 2725 213 2448 61 
Q 2172 -91 1784 -91 
Q 1150 -91 751 415 
Q 353 922 353 1747 
Q 353 2572 751 3078 
Q 1150 3584 1784 3584 
Q 2172 3584 2448 3432 
Q 2725 3281 2906 2969 
z
M 947 1747 
Q 947 1113 1208 752 
Q 1469 391 1925 391 
Q 2381 391 2643 752 
Q 2906 1113 2906 1747 
Q 2906 2381 2643 2742 
Q 2381 3103 1925 3103 
Q 1469 3103 1208 2742 
Q 947 2381 947 1747 
z
" transform="scale(0.015625)"/>
      </defs>
      <use xlink:href="#DejaVuSans-63"/>
      <use xlink:href="#DejaVuSans-6f" x="54.980469"/>
      <use xlink:href="#DejaVuSans-6e" x="116.162109"/>
      <use xlink:href="#DejaVuSans-64" x="179.541016"/>
     </g>
    </g>
   </g>
   <g id="line2d_11">
    <path d="M 49.513408 39.955304 
L 54.115142 39.955304 
" clip-path="url(#p8863683f65)" style="fill: none; stroke: #424242; stroke-width: 2.7; stroke-linecap: square"/>
   </g>
   <g id="line2d_12">
    <path d="M 50.211108 65.516432 
L 54.749201 65.516432 
" clip-path="url(#p8863683f65)" style="fill: none; stroke: #424242; stroke-width: 2.7; stroke-linecap: square"/>
   </g>
   <g id="line2d_13">
    <path d="M 83.402717 91.077561 
L 99.95669 91.077561 
" clip-path="url(#p8863683f65)" style="fill: none; stroke: #424242; stroke-width: 2.7; stroke-linecap: square"/>
   </g>
   <g id="line2d_14">
    <path d="M 86.181037 116.638689 
L 106.453197 116.638689 
" clip-path="url(#p8863683f65)" style="fill: none; stroke: #424242; stroke-width: 2.7; stroke-linecap: square"/>
   </g>
   <g id="line2d_15">
    <path d="M 92.703783 142.199818 
L 115.34374 142.199818 
" clip-path="url(#p8863683f65)" style="fill: none; stroke: #424242; stroke-width: 2.7; stroke-linecap: square"/>
   </g>
   <g id="line2d_16">
    <path d="M 125.847242 167.760946 
L 150.541223 167.760946 
" clip-path="url(#p8863683f65)" style="fill: none; stroke: #424242; stroke-width: 2.7; stroke-linecap: square"/>
   </g>
   <g id="line2d_17">
    <path d="M 166.083531 142.199818 
L 168.497687 142.199818 
L 168.497687 167.760946 
L 166.083531 167.760946 
" clip-path="url(#p8863683f65)" style="fill: none; stroke: #333333; stroke-width: 1.5; stroke-linecap: square"/>
   </g>
   <g id="patch_9">
    <path d="M 43.88125 185.398125 
L 43.88125 22.318125 
" style="fill: none; stroke: #000000; stroke-width: 0.8; stroke-linejoin: miter; stroke-linecap: square"/>
   </g>
   <g id="patch_10">
    <path d="M 183.38125 185.398125 
L 183.38125 22.318125 
" style="fill: none; stroke: #000000; stroke-width: 0.8; stroke-linejoin: miter; stroke-linecap: square"/>
   </g>
   <g id="patch_11">
    <path d="M 43.88125 185.398125 
L 183.38125 185.398125 
" style="fill: none; stroke: #000000; stroke-width: 0.8; stroke-linejoin: miter; stroke-linecap: square"/>
   </g>
   <g id="patch_12">
    <path d="M 43.88125 22.318125 
L 183.38125 22.318125 
" style="fill: none; stroke: #000000; stroke-width: 0.8; stroke-linejoin: miter; stroke-linecap: square"/>
   </g>
   <g id="PathCollection_1">
    <path d="M 0 236.652188 
C 0.663008 236.652188 1.29895 236.388772 1.767767 235.919954 
C 2.236584 235.451137 2.5 234.815195 2.5 234.152188 
C 2.5 233.48918 2.236584 232.853238 1.767767 232.384421 
C 1.29895 231.915603 0.663008 231.652188 0 231.652188 
C -0.663008 231.652188 -1.29895 231.915603 -1.767767 232.384421 
C -2.236584 232.853238 -2.5 233.48918 -2.5 234.152188 
C -2.5 234.815195 -2.236584 235.451137 -1.767767 235.919954 
C -1.29895 236.388772 -0.663008 236.652188 0 236.652188 
" clip-path="url(#p8863683f65)" style="fill: none; stroke: #000000; stroke-width: 0.4"/>
   </g>
   <g id="PathCollection_2">
    <path d="M 0 236.652188 
C 0.663008 236.652188 1.29895 236.388772 1.767767 235.919954 
C 2.236584 235.451137 2.5 234.815195 2.5 234.152188 
C 2.5 233.48918 2.236584 232.853238 1.767767 232.384421 
C 1.29895 231.915603 0.663008 231.652188 0 231.652188 
C -0.663008 231.652188 -1.29895 231.915603 -1.767767 232.384421 
C -2.236584 232.853238 -2.5 233.48918 -2.5 234.152188 
C -2.5 234.815195 -2.236584 235.451137 -1.767767 235.919954 
C -1.29895 236.388772 -0.663008 236.652188 0 236.652188 
" clip-path="url(#p8863683f65)" style="fill: none; stroke: #000000; stroke-width: 0.4"/>
   </g>
   <g id="PathCollection_3">
    <path d="M 0 236.652188 
C 0.663008 236.652188 1.29895 236.388772 1.767767 235.919954 
C 2.236584 235.451137 2.5 234.815195 2.5 234.152188 
C 2.5 233.48918 2.236584 232.853238 1.767767 232.384421 
C 1.29895 231.915603 0.663008 231.652188 0 231.652188 
C -0.663008 231.652188 -1.29895 231.915603 -1.767767 232.384421 
C -2.236584 232.853238 -2.5 233.48918 -2.5 234.152188 
C -2.5 234.815195 -2.236584 235.451137 -1.767767 235.919954 
C -1.29895 236.388772 -0.663008 236.652188 0 236.652188 
" clip-path="url(#p8863683f65)" style="fill: none; stroke: #000000; stroke-width: 0.4"/>
   </g>
   <g id="PathCollection_4">
    <path d="M 0 236.652188 
C 0.663008 236.652188 1.29895 236.388772 1.767767 235.919954 
C 2.236584 235.451137 2.5 234.815195 2.5 234.152188 
C 2.5 233.48918 2.236584 232.853238 1.767767 232.384421 
C 1.29895 231.915603 0.663008 231.652188 0 231.652188 
C -0.663008 231.652188 -1.29895 231.915603 -1.767767 232.384421 
C -2.236584 232.853238 -2.5 233.48918 -2.5 234.152188 
C -2.5 234.815195 -2.236584 235.451137 -1.767767 235.919954 
C -1.29895 236.388772 -0.663008 236.652188 0 236.652188 
" clip-path="url(#p8863683f65)" style="fill: none; stroke: #000000; stroke-width: 0.4"/>
   </g>
   <g id="PathCollection_5">
    <path d="M 0 236.652188 
C 0.663008 236.652188 1.29895 236.388772 1.767767 235.919954 
C 2.236584 235.451137 2.5 234.815195 2.5 234.152188 
C 2.5 233.48918 2.236584 232.853238 1.767767 232.384421 
C 1.29895 231.915603 0.663008 231.652188 0 231.652188 
C -0.663008 231.652188 -1.29895 231.915603 -1.767767 232.384421 
C -2.236584 232.853238 -2.5 233.48918 -2.5 234.152188 
C -2.5 234.815195 -2.236584 235.451137 -1.767767 235.919954 
C -1.29895 236.388772 -0.663008 236.652188 0 236.652188 
" clip-path="url(#p8863683f65)" style="fill: none; stroke: #000000; stroke-width: 0.4"/>
   </g>
   <g id="PathCollection_6">
    <path d="M 0 236.652188 
C 0.663008 236.652188 1.29895 236.388772 1.767767 235.919954 
C 2.236584 235.451137 2.5 234.815195 2.5 234.152188 
C 2.5 233.48918 2.236584 232.853238 1.767767 232.384421 
C 1.29895 231.915603 0.663008 231.652188 0 231.652188 
C -0.663008 231.652188 -1.29895 231.915603 -1.767767 232.384421 
C -2.236584 232.853238 -2.5 233.48918 -2.5 234.152188 
C -2.5 234.815195 -2.236584 235.451137 -1.767767 235.919954 
C -1.29895 236.388772 -0.663008 236.652188 0 236.652188 
" clip-path="url(#p8863683f65)" style="fill: none; stroke: #000000; stroke-width: 0.4"/>
   </g>
   <g id="PathCollection_7">
    <path d="M 2.5 235.152188 
L 2.5 231.652188 
L -1 231.652188 
" clip-path="url(#p8863683f65)" style="fill: none; stroke: #000000; stroke-width: 0.4"/>
   </g>
   <g id="PathCollection_8">
    <path d="M 2.5 235.152188 
L 2.5 231.652188 
L -1 231.652188 
" clip-path="url(#p8863683f65)" style="fill: none; stroke: #000000; stroke-width: 0.4"/>
   </g>
   <g id="PathCollection_9">
    <path d="M 2.5 235.152188 
L 2.5 231.652188 
L -1 231.652188 
" clip-path="url(#p8863683f65)" style="fill: none; stroke: #000000; stroke-width: 0.4"/>
   </g>
   <g id="PathCollection_10">
    <path d="M 2.5 235.152188 
L 2.5 231.652188 
L -1 231.652188 
" clip-path="url(#p8863683f65)" style="fill: none; stroke: #000000; stroke-width: 0.4"/>
   </g>
   <g id="PathCollection_11">
    <path d="M 2.5 235.152188 
L 2.5 231.652188 
L -1 231.652188 
" clip-path="url(#p8863683f65)" style="fill: none; stroke: #000000; stroke-width: 0.4"/>
   </g>
   <g id="PathCollection_12">
    <path d="M 2.5 235.152188 
L 2.5 231.652188 
L -1 231.652188 
" clip-path="url(#p8863683f65)" style="fill: none; stroke: #000000; stroke-width: 0.4"/>
   </g>
   <g id="PathCollection_13">
    <path d="M 0 231.652188 
L -1 233.652188 
M 1.75 235.152188 
L 0 231.652188 
" clip-path="url(#p8863683f65)" style="fill: none; stroke: #000000; stroke-width: 0.4"/>
   </g>
   <g id="PathCollection_14">
    <path d="M 0 231.652188 
L -1 233.652188 
M 1.75 235.152188 
L 0 231.652188 
" clip-path="url(#p8863683f65)" style="fill: none; stroke: #000000; stroke-width: 0.4"/>
   </g>
   <g id="PathCollection_15">
    <path d="M 0 231.652188 
L -1 233.652188 
M 1.75 235.152188 
L 0 231.652188 
" clip-path="url(#p8863683f65)" style="fill: none; stroke: #000000; stroke-width: 0.4"/>
   </g>
   <g id="PathCollection_16">
    <path d="M 0 231.652188 
L -1 233.652188 
M 1.75 235.152188 
L 0 231.652188 
" clip-path="url(#p8863683f65)" style="fill: none; stroke: #000000; stroke-width: 0.4"/>
   </g>
   <g id="PathCollection_17">
    <path d="M 0 231.652188 
L -1 233.652188 
M 1.75 235.152188 
L 0 231.652188 
" clip-path="url(#p8863683f65)" style="fill: none; stroke: #000000; stroke-width: 0.4"/>
   </g>
   <g id="PathCollection_18">
    <path d="M 0 231.652188 
L -1 233.652188 
M 1.75 235.152188 
L 0 231.652188 
" clip-path="url(#p8863683f65)" style="fill: none; stroke: #000000; stroke-width: 0.4"/>
   </g>
   <g id="PathCollection_19">
    <path d="M 52.123545 43.178875 
L 55.659079 39.643341 
L 52.123545 36.107807 
L 48.588011 39.643341 
z
" clip-path="url(#p8863683f65)" style="fill: #ffffff; stroke: #000000; stroke-width: 0.4"/>
    <path d="M 50.633328 44.59213 
L 54.168862 41.056596 
L 50.633328 37.521062 
L 47.097795 41.056596 
z
" clip-path="url(#p8863683f65)" style="fill: #ffffff; stroke: #000000; stroke-width: 0.4"/>
    <path d="M 54.89096 44.025551 
L 58.426494 40.490017 
L 54.89096 36.954483 
L 51.355426 40.490017 
z
" clip-path="url(#p8863683f65)" style="fill: #ffffff; stroke: #000000; stroke-width: 0.4"/>
    <path d="M 55.70221 43.849211 
L 59.237744 40.313677 
L 55.70221 36.778143 
L 52.166676 40.313677 
z
" clip-path="url(#p8863683f65)" style="fill: #ffffff; stroke: #000000; stroke-width: 0.4"/>
   </g>
   <g id="PathCollection_20">
    <path d="M 53.40673 70.629551 
L 56.942264 67.094017 
L 53.40673 63.558483 
L 49.871196 67.094017 
z
" clip-path="url(#p8863683f65)" style="fill: #ffffff; stroke: #000000; stroke-width: 0.4"/>
    <path d="M 54.07498 68.821283 
L 57.610514 65.285749 
L 54.07498 61.750215 
L 50.539446 65.285749 
z
" clip-path="url(#p8863683f65)" style="fill: #ffffff; stroke: #000000; stroke-width: 0.4"/>
    <path d="M 53.504089 70.792166 
L 57.039623 67.256632 
L 53.504089 63.721098 
L 49.968555 67.256632 
z
" clip-path="url(#p8863683f65)" style="fill: #ffffff; stroke: #000000; stroke-width: 0.4"/>
    <path d="M 58.242111 70.497053 
L 61.777645 66.961519 
L 58.242111 63.425985 
L 54.706577 66.961519 
z
" clip-path="url(#p8863683f65)" style="fill: #ffffff; stroke: #000000; stroke-width: 0.4"/>
   </g>
   <g id="PathCollection_21">
    <path d="M 95.534588 96.028412 
L 99.070122 92.492878 
L 95.534588 88.957344 
L 91.999054 92.492878 
z
" clip-path="url(#p8863683f65)" style="fill: #ffffff; stroke: #000000; stroke-width: 0.4"/>
    <path d="M 101.659444 94.240309 
L 105.194978 90.704775 
L 101.659444 87.169241 
L 98.123911 90.704775 
z
" clip-path="url(#p8863683f65)" style="fill: #ffffff; stroke: #000000; stroke-width: 0.4"/>
    <path d="M 100.792093 94.698139 
L 104.327627 91.162605 
L 100.792093 87.627071 
L 97.256559 91.162605 
z
" clip-path="url(#p8863683f65)" style="fill: #ffffff; stroke: #000000; stroke-width: 0.4"/>
    <path d="M 110.61447 93.61932 
L 114.150004 90.083786 
L 110.61447 86.548252 
L 107.078936 90.083786 
z
" clip-path="url(#p8863683f65)" style="fill: #ffffff; stroke: #000000; stroke-width: 0.4"/>
   </g>
   <g id="PathCollection_22">
    <path d="M 102.232736 118.187841 
L 105.76827 114.652307 
L 102.232736 111.116773 
L 98.697202 114.652307 
z
" clip-path="url(#p8863683f65)" style="fill: #ffffff; stroke: #000000; stroke-width: 0.4"/>
    <path d="M 94.200033 118.707595 
L 97.735567 115.172061 
L 94.200033 111.636527 
L 90.664499 115.172061 
z
" clip-path="url(#p8863683f65)" style="fill: #ffffff; stroke: #000000; stroke-width: 0.4"/>
    <path d="M 107.082738 122.668319 
L 110.618272 119.132785 
L 107.082738 115.597251 
L 103.547204 119.132785 
z
" clip-path="url(#p8863683f65)" style="fill: #ffffff; stroke: #000000; stroke-width: 0.4"/>
    <path d="M 118.86701 119.669443 
L 122.402544 116.133909 
L 118.86701 112.598375 
L 115.331476 116.133909 
z
" clip-path="url(#p8863683f65)" style="fill: #ffffff; stroke: #000000; stroke-width: 0.4"/>
   </g>
   <g id="PathCollection_23">
    <path d="M 114.842292 143.752337 
L 118.377825 140.216803 
L 114.842292 136.681269 
L 111.306758 140.216803 
z
" clip-path="url(#p8863683f65)" style="fill: #ffffff; stroke: #000000; stroke-width: 0.4"/>
    <path d="M 105.259643 147.257949 
L 108.795177 143.722415 
L 105.259643 140.186881 
L 101.724109 143.722415 
z
" clip-path="url(#p8863683f65)" style="fill: #ffffff; stroke: #000000; stroke-width: 0.4"/>
    <path d="M 118.774465 147.250746 
L 122.309999 143.715212 
L 118.774465 140.179678 
L 115.238932 143.715212 
z
" clip-path="url(#p8863683f65)" style="fill: #ffffff; stroke: #000000; stroke-width: 0.4"/>
    <path d="M 125.914167 145.848841 
L 129.449701 142.313307 
L 125.914167 138.777773 
L 122.378634 142.313307 
z
" clip-path="url(#p8863683f65)" style="fill: #ffffff; stroke: #000000; stroke-width: 0.4"/>
   </g>
   <g id="PathCollection_24">
    <path d="M 139.620264 172.116066 
L 143.155798 168.580532 
L 139.620264 165.044998 
L 136.08473 168.580532 
z
" clip-path="url(#p8863683f65)" style="fill: #ffffff; stroke: #000000; stroke-width: 0.4"/>
    <path d="M 143.535746 171.579049 
L 147.07128 168.043516 
L 143.535746 164.507982 
L 140.000212 168.043516 
z
" clip-path="url(#p8863683f65)" style="fill: #ffffff; stroke: #000000; stroke-width: 0.4"/>
    <path d="M 150.383271 172.945561 
L 153.918805 169.410027 
L 150.383271 165.874493 
L 146.847738 169.410027 
z
" clip-path="url(#p8863683f65)" style="fill: #ffffff; stroke: #000000; stroke-width: 0.4"/>
    <path d="M 158.841063 171.63473 
L 162.376597 168.099196 
L 158.841063 164.563662 
L 155.305529 168.099196 
z
" clip-path="url(#p8863683f65)" style="fill: #ffffff; stroke: #000000; stroke-width: 0.4"/>
   </g>
   <g id="PathCollection_25">
    <defs>
     <path id="C0_0_0c4527ffac" d="M -0.833333 2.5 
L 0.833333 2.5 
L 0.833333 0.833333 
L 2.5 0.833333 
L 2.5 -0.833333 
L 0.833333 -0.833333 
L 0.833333 -2.5 
L -0.833333 -2.5 
L -0.833333 -0.833333 
L -2.5 -0.833333 
L -2.5 0.833333 
L -0.833333 0.833333 
z
"/>
    </defs>
    <g clip-path="url(#p8863683f65)">
     <use xlink:href="#C0_0_0c4527ffac" x="50.482094" y="37.571208" style="fill: #ffffff; stroke: #000000; stroke-width: 0.4"/>
    </g>
    <g clip-path="url(#p8863683f65)">
     <use xlink:href="#C0_0_0c4527ffac" x="52.156883" y="40.846293" style="fill: #ffffff; stroke: #000000; stroke-width: 0.4"/>
    </g>
    <g clip-path="url(#p8863683f65)">
     <use xlink:href="#C0_0_0c4527ffac" x="50.631398" y="40.336666" style="fill: #ffffff; stroke: #000000; stroke-width: 0.4"/>
    </g>
    <g clip-path="url(#p8863683f65)">
     <use xlink:href="#C0_0_0c4527ffac" x="53.998589" y="39.114686" style="fill: #ffffff; stroke: #000000; stroke-width: 0.4"/>
    </g>
   </g>
   <g id="PathCollection_26">
    <defs>
     <path id="C1_0_4dc0286eb1" d="M -0.833333 2.5 
L 0.833333 2.5 
L 0.833333 0.833333 
L 2.5 0.833333 
L 2.5 -0.833333 
L 0.833333 -0.833333 
L 0.833333 -2.5 
L -0.833333 -2.5 
L -0.833333 -0.833333 
L -2.5 -0.833333 
L -2.5 0.833333 
L -0.833333 0.833333 
z
"/>
    </defs>
    <g clip-path="url(#p8863683f65)">
     <use xlink:href="#C1_0_4dc0286eb1" x="49.829315" y="65.896087" style="fill: #ffffff; stroke: #000000; stroke-width: 0.4"/>
    </g>
    <g clip-path="url(#p8863683f65)">
     <use xlink:href="#C1_0_4dc0286eb1" x="49.977967" y="64.830819" style="fill: #ffffff; stroke: #000000; stroke-width: 0.4"/>
    </g>
    <g clip-path="url(#p8863683f65)">
     <use xlink:href="#C1_0_4dc0286eb1" x="49.801966" y="65.233236" style="fill: #ffffff; stroke: #000000; stroke-width: 0.4"/>
    </g>
    <g clip-path="url(#p8863683f65)">
     <use xlink:href="#C1_0_4dc0286eb1" x="52.706917" y="67.227844" style="fill: #ffffff; stroke: #000000; stroke-width: 0.4"/>
    </g>
   </g>
   <g id="PathCollection_27">
    <defs>
     <path id="C2_0_9e47660dde" d="M -0.833333 2.5 
L 0.833333 2.5 
L 0.833333 0.833333 
L 2.5 0.833333 
L 2.5 -0.833333 
L 0.833333 -0.833333 
L 0.833333 -2.5 
L -0.833333 -2.5 
L -0.833333 -0.833333 
L -2.5 -0.833333 
L -2.5 0.833333 
L -0.833333 0.833333 
z
"/>
    </defs>
    <g clip-path="url(#p8863683f65)">
     <use xlink:href="#C2_0_9e47660dde" x="90.37305" y="93.585268" style="fill: #ffffff; stroke: #000000; stroke-width: 0.4"/>
    </g>
    <g clip-path="url(#p8863683f65)">
     <use xlink:href="#C2_0_9e47660dde" x="86.577222" y="91.130478" style="fill: #ffffff; stroke: #000000; stroke-width: 0.4"/>
    </g>
    <g clip-path="url(#p8863683f65)">
     <use xlink:href="#C2_0_9e47660dde" x="83.995382" y="90.568532" style="fill: #ffffff; stroke: #000000; stroke-width: 0.4"/>
    </g>
    <g clip-path="url(#p8863683f65)">
     <use xlink:href="#C2_0_9e47660dde" x="86.448785" y="92.490502" style="fill: #ffffff; stroke: #000000; stroke-width: 0.4"/>
    </g>
   </g>
   <g id="PathCollection_28">
    <defs>
     <path id="C3_0_3d144c462c" d="M -0.833333 2.5 
L 0.833333 2.5 
L 0.833333 0.833333 
L 2.5 0.833333 
L 2.5 -0.833333 
L 0.833333 -0.833333 
L 0.833333 -2.5 
L -0.833333 -2.5 
L -0.833333 -0.833333 
L -2.5 -0.833333 
L -2.5 0.833333 
L -0.833333 0.833333 
z
"/>
    </defs>
    <g clip-path="url(#p8863683f65)">
     <use xlink:href="#C3_0_3d144c462c" x="87.728682" y="115.456682" style="fill: #ffffff; stroke: #000000; stroke-width: 0.4"/>
    </g>
    <g clip-path="url(#p8863683f65)">
     <use xlink:href="#C3_0_3d144c462c" x="88.846268" y="118.340296" style="fill: #ffffff; stroke: #000000; stroke-width: 0.4"/>
    </g>
    <g clip-path="url(#p8863683f65)">
     <use xlink:href="#C3_0_3d144c462c" x="100.518317" y="117.493741" style="fill: #ffffff; stroke: #000000; stroke-width: 0.4"/>
    </g>
    <g clip-path="url(#p8863683f65)">
     <use xlink:href="#C3_0_3d144c462c" x="95.807831" y="116.868197" style="fill: #ffffff; stroke: #000000; stroke-width: 0.4"/>
    </g>
   </g>
   <g id="PathCollection_29">
    <defs>
     <path id="C4_0_654216b3ee" d="M -0.833333 2.5 
L 0.833333 2.5 
L 0.833333 0.833333 
L 2.5 0.833333 
L 2.5 -0.833333 
L 0.833333 -0.833333 
L 0.833333 -2.5 
L -0.833333 -2.5 
L -0.833333 -0.833333 
L -2.5 -0.833333 
L -2.5 0.833333 
L -0.833333 0.833333 
z
"/>
    </defs>
    <g clip-path="url(#p8863683f65)">
     <use xlink:href="#C4_0_654216b3ee" x="99.873327" y="141.232822" style="fill: #ffffff; stroke: #000000; stroke-width: 0.4"/>
    </g>
    <g clip-path="url(#p8863683f65)">
     <use xlink:href="#C4_0_654216b3ee" x="109.7339" y="140.087318" style="fill: #ffffff; stroke: #000000; stroke-width: 0.4"/>
    </g>
    <g clip-path="url(#p8863683f65)">
     <use xlink:href="#C4_0_654216b3ee" x="102.996235" y="143.197325" style="fill: #ffffff; stroke: #000000; stroke-width: 0.4"/>
    </g>
    <g clip-path="url(#p8863683f65)">
     <use xlink:href="#C4_0_654216b3ee" x="108.329998" y="143.44577" style="fill: #ffffff; stroke: #000000; stroke-width: 0.4"/>
    </g>
   </g>
   <g id="PathCollection_30">
    <defs>
     <path id="C5_0_588821f16d" d="M -0.833333 2.5 
L 0.833333 2.5 
L 0.833333 0.833333 
L 2.5 0.833333 
L 2.5 -0.833333 
L 0.833333 -0.833333 
L 0.833333 -2.5 
L -0.833333 -2.5 
L -0.833333 -0.833333 
L -2.5 -0.833333 
L -2.5 0.833333 
L -0.833333 0.833333 
z
"/>
    </defs>
    <g clip-path="url(#p8863683f65)">
     <use xlink:href="#C5_0_588821f16d" x="134.192171" y="169.181948" style="fill: #ffffff; stroke: #000000; stroke-width: 0.4"/>
    </g>
    <g clip-path="url(#p8863683f65)">
     <use xlink:href="#C5_0_588821f16d" x="140.636568" y="165.321949" style="fill: #ffffff; stroke: #000000; stroke-width: 0.4"/>
    </g>
    <g clip-path="url(#p8863683f65)">
     <use xlink:href="#C5_0_588821f16d" x="146.513916" y="167.525448" style="fill: #ffffff; stroke: #000000; stroke-width: 0.4"/>
    </g>
    <g clip-path="url(#p8863683f65)">
     <use xlink:href="#C5_0_588821f16d" x="143.634978" y="165.768213" style="fill: #ffffff; stroke: #000000; stroke-width: 0.4"/>
    </g>
   </g>
   <g id="PathCollection_31">
    <defs>
     <path id="C6_0_85b5e0d516" d="M -1.25 2.5 
L 0 1.25 
L 1.25 2.5 
L 2.5 1.25 
L 1.25 -0 
L 2.5 -1.25 
L 1.25 -2.5 
L 0 -1.25 
L -1.25 -2.5 
L -2.5 -1.25 
L -1.25 0 
L -2.5 1.25 
z
"/>
    </defs>
    <g clip-path="url(#p8863683f65)">
     <use xlink:href="#C6_0_85b5e0d516" x="46.515665" y="37.561331" style="fill: #ffffff; stroke: #000000; stroke-width: 0.4"/>
    </g>
    <g clip-path="url(#p8863683f65)">
     <use xlink:href="#C6_0_85b5e0d516" x="47.173653" y="41.815138" style="fill: #ffffff; stroke: #000000; stroke-width: 0.4"/>
    </g>
   </g>
   <g id="PathCollection_32">
    <defs>
     <path id="C7_0_b6fe92abd8" d="M -1.25 2.5 
L 0 1.25 
L 1.25 2.5 
L 2.5 1.25 
L 1.25 -0 
L 2.5 -1.25 
L 1.25 -2.5 
L 0 -1.25 
L -1.25 -2.5 
L -2.5 -1.25 
L -1.25 0 
L -2.5 1.25 
z
"/>
    </defs>
    <g clip-path="url(#p8863683f65)">
     <use xlink:href="#C7_0_b6fe92abd8" x="48.087989" y="65.652982" style="fill: #ffffff; stroke: #000000; stroke-width: 0.4"/>
    </g>
    <g clip-path="url(#p8863683f65)">
     <use xlink:href="#C7_0_b6fe92abd8" x="50.076689" y="66.751724" style="fill: #ffffff; stroke: #000000; stroke-width: 0.4"/>
    </g>
   </g>
   <g id="PathCollection_33">
    <defs>
     <path id="C8_0_1482bcf4f2" d="M -1.25 2.5 
L 0 1.25 
L 1.25 2.5 
L 2.5 1.25 
L 1.25 -0 
L 2.5 -1.25 
L 1.25 -2.5 
L 0 -1.25 
L -1.25 -2.5 
L -2.5 -1.25 
L -1.25 0 
L -2.5 1.25 
z
"/>
    </defs>
    <g clip-path="url(#p8863683f65)">
     <use xlink:href="#C8_0_1482bcf4f2" x="77.653693" y="88.753261" style="fill: #ffffff; stroke: #000000; stroke-width: 0.4"/>
    </g>
    <g clip-path="url(#p8863683f65)">
     <use xlink:href="#C8_0_1482bcf4f2" x="70.749975" y="93.556424" style="fill: #ffffff; stroke: #000000; stroke-width: 0.4"/>
    </g>
   </g>
   <g id="PathCollection_34">
    <defs>
     <path id="C9_0_ffa2a99c9d" d="M -1.25 2.5 
L 0 1.25 
L 1.25 2.5 
L 2.5 1.25 
L 1.25 -0 
L 2.5 -1.25 
L 1.25 -2.5 
L 0 -1.25 
L -1.25 -2.5 
L -2.5 -1.25 
L -1.25 0 
L -2.5 1.25 
z
"/>
    </defs>
    <g clip-path="url(#p8863683f65)">
     <use xlink:href="#C9_0_ffa2a99c9d" x="73.473869" y="115.343631" style="fill: #ffffff; stroke: #000000; stroke-width: 0.4"/>
    </g>
    <g clip-path="url(#p8863683f65)">
     <use xlink:href="#C9_0_ffa2a99c9d" x="82.402334" y="117.363445" style="fill: #ffffff; stroke: #000000; stroke-width: 0.4"/>
    </g>
   </g>
   <g id="PathCollection_35">
    <defs>
     <path id="Ca_0_c8c5e3bfd1" d="M -1.25 2.5 
L 0 1.25 
L 1.25 2.5 
L 2.5 1.25 
L 1.25 -0 
L 2.5 -1.25 
L 1.25 -2.5 
L 0 -1.25 
L -1.25 -2.5 
L -2.5 -1.25 
L -1.25 0 
L -2.5 1.25 
z
"/>
    </defs>
    <g clip-path="url(#p8863683f65)">
     <use xlink:href="#Ca_0_c8c5e3bfd1" x="78.986243" y="142.318138" style="fill: #ffffff; stroke: #000000; stroke-width: 0.4"/>
    </g>
    <g clip-path="url(#p8863683f65)">
     <use xlink:href="#Ca_0_c8c5e3bfd1" x="75.014838" y="140.624817" style="fill: #ffffff; stroke: #000000; stroke-width: 0.4"/>
    </g>
   </g>
   <g id="PathCollection_36">
    <defs>
     <path id="Cb_0_819828029e" d="M -1.25 2.5 
L 0 1.25 
L 1.25 2.5 
L 2.5 1.25 
L 1.25 -0 
L 2.5 -1.25 
L 1.25 -2.5 
L 0 -1.25 
L -1.25 -2.5 
L -2.5 -1.25 
L -1.25 0 
L -2.5 1.25 
z
"/>
    </defs>
    <g clip-path="url(#p8863683f65)">
     <use xlink:href="#Cb_0_819828029e" x="105.012798" y="167.903796" style="fill: #ffffff; stroke: #000000; stroke-width: 0.4"/>
    </g>
    <g clip-path="url(#p8863683f65)">
     <use xlink:href="#Cb_0_819828029e" x="111.87479" y="166.652976" style="fill: #ffffff; stroke: #000000; stroke-width: 0.4"/>
    </g>
   </g>
   <g id="text_13">
    <!-- ns -->
    <g transform="translate(171.577375 149.206945)rotate(-270)scale(0.1 -0.1)">
     <use xlink:href="#DejaVuSans-6e"/>
     <use xlink:href="#DejaVuSans-73" x="63.378906"/>
    </g>
   </g>
   <g id="text_14">
    <g id="patch_13">
     <path d="M 60.430832 45.794366 
L 68.793332 45.794366 
L 68.793332 34.116241 
L 60.430832 34.116241 
z
" style="fill: #ffffff; opacity: 0.75"/>
    </g>
    <!-- 4 -->
    <g transform="translate(61.430832 42.714679)scale(0.1 -0.1)">
     <use xlink:href="#DejaVuSans-34"/>
    </g>
   </g>
   <g id="text_15">
    <g id="patch_14">
     <path d="M 60.970875 71.355495 
L 69.333375 71.355495 
L 69.333375 59.67737 
L 60.970875 59.67737 
z
" style="fill: #ffffff; opacity: 0.75"/>
    </g>
    <!-- 4 -->
    <g transform="translate(61.970875 68.275807)scale(0.1 -0.1)">
     <use xlink:href="#DejaVuSans-34"/>
    </g>
   </g>
   <g id="text_16">
    <g id="patch_15">
     <path d="M 99.43987 96.916623 
L 114.16487 96.916623 
L 114.16487 85.238498 
L 99.43987 85.238498 
z
" style="fill: #ffffff; opacity: 0.75"/>
    </g>
    <!-- 23 -->
    <g transform="translate(100.43987 93.836936)scale(0.1 -0.1)">
     <defs>
      <path id="DejaVuSans-33" d="M 2597 2516 
Q 3050 2419 3304 2112 
Q 3559 1806 3559 1356 
Q 3559 666 3084 287 
Q 2609 -91 1734 -91 
Q 1441 -91 1130 -33 
Q 819 25 488 141 
L 488 750 
Q 750 597 1062 519 
Q 1375 441 1716 441 
Q 2309 441 2620 675 
Q 2931 909 2931 1356 
Q 2931 1769 2642 2001 
Q 2353 2234 1838 2234 
L 1294 2234 
L 1294 2753 
L 1863 2753 
Q 2328 2753 2575 2939 
Q 2822 3125 2822 3475 
Q 2822 3834 2567 4026 
Q 2313 4219 1838 4219 
Q 1578 4219 1281 4162 
Q 984 4106 628 3988 
L 628 4550 
Q 988 4650 1302 4700 
Q 1616 4750 1894 4750 
Q 2613 4750 3031 4423 
Q 3450 4097 3450 3541 
Q 3450 3153 3228 2886 
Q 3006 2619 2597 2516 
z
" transform="scale(0.015625)"/>
     </defs>
     <use xlink:href="#DejaVuSans-32"/>
     <use xlink:href="#DejaVuSans-33" x="63.623047"/>
    </g>
   </g>
   <g id="text_17">
    <g id="patch_16">
     <path d="M 104.115982 122.477752 
L 118.840982 122.477752 
L 118.840982 110.799627 
L 104.115982 110.799627 
z
" style="fill: #ffffff; opacity: 0.75"/>
    </g>
    <!-- 26 -->
    <g transform="translate(105.115982 119.398064)scale(0.1 -0.1)">
     <use xlink:href="#DejaVuSans-32"/>
     <use xlink:href="#DejaVuSans-36" x="63.623047"/>
    </g>
   </g>
   <g id="text_18">
    <g id="patch_17">
     <path d="M 112.972511 148.03888 
L 127.697511 148.03888 
L 127.697511 136.360755 
L 112.972511 136.360755 
z
" style="fill: #ffffff; opacity: 0.75"/>
    </g>
    <!-- 30 -->
    <g transform="translate(113.972511 144.959193)scale(0.1 -0.1)">
     <use xlink:href="#DejaVuSans-33"/>
     <use xlink:href="#DejaVuSans-30" x="63.623047"/>
    </g>
   </g>
   <g id="text_19">
    <g id="patch_18">
     <path d="M 146.424556 173.600009 
L 161.149556 173.600009 
L 161.149556 161.921884 
L 146.424556 161.921884 
z
" style="fill: #ffffff; opacity: 0.75"/>
    </g>
    <!-- 47 -->
    <g transform="translate(147.424556 170.520321)scale(0.1 -0.1)">
     <defs>
      <path id="DejaVuSans-37" d="M 525 4666 
L 3525 4666 
L 3525 4397 
L 1831 0 
L 1172 0 
L 2766 4134 
L 525 4134 
L 525 4666 
z
" transform="scale(0.015625)"/>
     </defs>
     <use xlink:href="#DejaVuSans-34"/>
     <use xlink:href="#DejaVuSans-37" x="63.623047"/>
    </g>
   </g>
   <g id="text_20">
    <!-- 14 dpi, + DDRR -->
    <g transform="translate(66.477812 16.318125)scale(0.12 -0.12)">
     <defs>
      <path id="DejaVuSans-31" d="M 794 531 
L 1825 531 
L 1825 4091 
L 703 3866 
L 703 4441 
L 1819 4666 
L 2450 4666 
L 2450 531 
L 3481 531 
L 3481 0 
L 794 0 
L 794 531 
z
" transform="scale(0.015625)"/>
      <path id="DejaVuSans-70" d="M 1159 525 
L 1159 -1331 
L 581 -1331 
L 581 3500 
L 1159 3500 
L 1159 2969 
Q 1341 3281 1617 3432 
Q 1894 3584 2278 3584 
Q 2916 3584 3314 3078 
Q 3713 2572 3713 1747 
Q 3713 922 3314 415 
Q 2916 -91 2278 -91 
Q 1894 -91 1617 61 
Q 1341 213 1159 525 
z
M 3116 1747 
Q 3116 2381 2855 2742 
Q 2594 3103 2138 3103 
Q 1681 3103 1420 2742 
Q 1159 2381 1159 1747 
Q 1159 1113 1420 752 
Q 1681 391 2138 391 
Q 2594 391 2855 752 
Q 3116 1113 3116 1747 
z
" transform="scale(0.015625)"/>
      <path id="DejaVuSans-2c" d="M 750 794 
L 1409 794 
L 1409 256 
L 897 -744 
L 494 -744 
L 750 256 
L 750 794 
z
" transform="scale(0.015625)"/>
      <path id="DejaVuSans-2b" d="M 2944 4013 
L 2944 2272 
L 4684 2272 
L 4684 1741 
L 2944 1741 
L 2944 0 
L 2419 0 
L 2419 1741 
L 678 1741 
L 678 2272 
L 2419 2272 
L 2419 4013 
L 2944 4013 
z
" transform="scale(0.015625)"/>
      <path id="DejaVuSans-44" d="M 1259 4147 
L 1259 519 
L 2022 519 
Q 2988 519 3436 956 
Q 3884 1394 3884 2338 
Q 3884 3275 3436 3711 
Q 2988 4147 2022 4147 
L 1259 4147 
z
M 628 4666 
L 1925 4666 
Q 3281 4666 3915 4102 
Q 4550 3538 4550 2338 
Q 4550 1131 3912 565 
Q 3275 0 1925 0 
L 628 0 
L 628 4666 
z
" transform="scale(0.015625)"/>
      <path id="DejaVuSans-52" d="M 2841 2188 
Q 3044 2119 3236 1894 
Q 3428 1669 3622 1275 
L 4263 0 
L 3584 0 
L 2988 1197 
Q 2756 1666 2539 1819 
Q 2322 1972 1947 1972 
L 1259 1972 
L 1259 0 
L 628 0 
L 628 4666 
L 2053 4666 
Q 2853 4666 3247 4331 
Q 3641 3997 3641 3322 
Q 3641 2881 3436 2590 
Q 3231 2300 2841 2188 
z
M 1259 4147 
L 1259 2491 
L 2053 2491 
Q 2509 2491 2742 2702 
Q 2975 2913 2975 3322 
Q 2975 3731 2742 3939 
Q 2509 4147 2053 4147 
L 1259 4147 
z
" transform="scale(0.015625)"/>
     </defs>
     <use xlink:href="#DejaVuSans-31"/>
     <use xlink:href="#DejaVuSans-34" x="63.623047"/>
     <use xlink:href="#DejaVuSans-20" x="127.246094"/>
     <use xlink:href="#DejaVuSans-64" x="159.033203"/>
     <use xlink:href="#DejaVuSans-70" x="222.509766"/>
     <use xlink:href="#DejaVuSans-69" x="285.986328"/>
     <use xlink:href="#DejaVuSans-2c" x="313.769531"/>
     <use xlink:href="#DejaVuSans-20" x="345.556641"/>
     <use xlink:href="#DejaVuSans-2b" x="377.34375"/>
     <use xlink:href="#DejaVuSans-20" x="461.132812"/>
     <use xlink:href="#DejaVuSans-44" x="492.919922"/>
     <use xlink:href="#DejaVuSans-44" x="569.921875"/>
     <use xlink:href="#DejaVuSans-52" x="646.923828"/>
     <use xlink:href="#DejaVuSans-52" x="716.40625"/>
    </g>
   </g>
  </g>
 </g>
 <defs>
  <clipPath id="p8863683f65">
   <rect x="43.88125" y="22.318125" width="139.5" height="163.08"/>
  </clipPath>
 </defs>
</svg>
