<?xml version="1.0" encoding="utf-8" standalone="no"?>
<!DOCTYPE svg PUBLIC "-//W3C//DTD SVG 1.1//EN"
  "http://www.w3.org/Graphics/SVG/1.1/DTD/svg11.dtd">
<svg xmlns:xlink="http://www.w3.org/1999/xlink" width="290.05pt" height="220.474063pt" viewBox="0 0 290.05 220.474063" xmlns="http://www.w3.org/2000/svg" version="1.1">
 <metadata>
  <rdf:RDF xmlns:dc="http://purl.org/dc/elements/1.1/" xmlns:cc="http://creativecommons.org/ns#" xmlns:rdf="http://www.w3.org/1999/02/22-rdf-syntax-ns#">
   <cc:Work>
    <dc:type rdf:resource="http://purl.org/dc/dcmitype/StillImage"/>
    <dc:date>2025-01-27T15:21:15.700378</dc:date>
    <dc:format>image/svg+xml</dc:format>
    <dc:creator>
     <cc:Agent>
      <dc:title>Matplotlib v3.5.2, https://matplotlib.org/</dc:title>
     </cc:Agent>
    </dc:creator>
   </cc:Work>
  </rdf:RDF>
 </metadata>
 <defs>
  <style type="text/css">*{stroke-linejoin: round; stroke-linecap: butt}</style>
 </defs>
 <g id="figure_1">
  <g id="patch_1">
   <path d="M 0 220.474063 
L 290.05 220.474063 
L 290.05 0 
L 0 0 
L 0 220.474063 
z
" style="fill: none"/>
  </g>
  <g id="axes_1">
   <g id="patch_2">
    <path d="M 46.39375 185.398125 
L 213.79375 185.398125 
L 213.79375 22.318125 
L 46.39375 22.318125 
z
" style="fill: #ffffff"/>
   </g>
   <g id="patch_3">
    <path d="M 54.002841 185.398125 
L 64.872971 185.398125 
L 64.872971 171.6409 
L 54.002841 171.6409 
z
" clip-path="url(#p5030339c16)" style="fill: #4a4c7e"/>
   </g>
   <g id="patch_4">
    <path d="M 108.35349 185.398125 
L 119.22362 185.398125 
L 119.22362 144.706486 
L 108.35349 144.706486 
z
" clip-path="url(#p5030339c16)" style="fill: #4a4c7e"/>
   </g>
   <g id="patch_5">
    <path d="M 162.70414 185.398125 
L 173.574269 185.398125 
L 173.574269 176.620263 
L 162.70414 176.620263 
z
" clip-path="url(#p5030339c16)" style="fill: #4a4c7e"/>
   </g>
   <g id="patch_6">
    <path d="M 64.872971 185.398125 
L 75.743101 185.398125 
L 75.743101 162.444405 
L 64.872971 162.444405 
z
" clip-path="url(#p5030339c16)" style="fill: #367182"/>
   </g>
   <g id="patch_7">
    <path d="M 119.22362 185.398125 
L 130.09375 185.398125 
L 130.09375 126.208225 
L 119.22362 126.208225 
z
" clip-path="url(#p5030339c16)" style="fill: #367182"/>
   </g>
   <g id="patch_8">
    <path d="M 173.574269 185.398125 
L 184.444399 185.398125 
L 184.444399 178.539735 
L 173.574269 178.539735 
z
" clip-path="url(#p5030339c16)" style="fill: #367182"/>
   </g>
   <g id="patch_9">
    <path d="M 75.743101 185.398125 
L 86.613231 185.398125 
L 86.613231 143.381226 
L 75.743101 143.381226 
z
" clip-path="url(#p5030339c16)" style="fill: #33977c"/>
   </g>
   <g id="patch_10">
    <path d="M 130.09375 185.398125 
L 140.96388 185.398125 
L 140.96388 116.218881 
L 130.09375 116.218881 
z
" clip-path="url(#p5030339c16)" style="fill: #33977c"/>
   </g>
   <g id="patch_11">
    <path d="M 184.444399 185.398125 
L 195.314529 185.398125 
L 195.314529 177.536151 
L 184.444399 177.536151 
z
" clip-path="url(#p5030339c16)" style="fill: #33977c"/>
   </g>
   <g id="patch_12">
    <path d="M 86.613231 185.398125 
L 97.48336 185.398125 
L 97.48336 151.960588 
L 86.613231 151.960588 
z
" clip-path="url(#p5030339c16)" style="fill: #80c161"/>
   </g>
   <g id="patch_13">
    <path d="M 140.96388 185.398125 
L 151.83401 185.398125 
L 151.83401 142.769403 
L 140.96388 142.769403 
z
" clip-path="url(#p5030339c16)" style="fill: #80c161"/>
   </g>
   <g id="patch_14">
    <path d="M 195.314529 185.398125 
L 206.184659 185.398125 
L 206.184659 181.777285 
L 195.314529 181.777285 
z
" clip-path="url(#p5030339c16)" style="fill: #80c161"/>
   </g>
   <g id="PathCollection_1"/>
   <g id="PathCollection_2"/>
   <g id="PathCollection_3"/>
   <g id="PathCollection_4"/>
   <g id="PathCollection_5"/>
   <g id="PathCollection_6"/>
   <g id="PathCollection_7"/>
   <g id="PathCollection_8"/>
   <g id="PathCollection_9"/>
   <g id="PathCollection_10"/>
   <g id="PathCollection_11"/>
   <g id="PathCollection_12"/>
   <g id="PathCollection_13"/>
   <g id="PathCollection_14"/>
   <g id="PathCollection_15"/>
   <g id="PathCollection_16"/>
   <g id="PathCollection_17"/>
   <g id="PathCollection_18"/>
   <g id="PathCollection_19"/>
   <g id="PathCollection_20"/>
   <g id="matplotlib.axis_1">
    <g id="xtick_1">
     <g id="line2d_1">
      <defs>
       <path id="ma24e5b2d4d" d="M 0 0 
L 0 3.5 
" style="stroke: #000000; stroke-width: 0.8"/>
      </defs>
      <g>
       <use xlink:href="#ma24e5b2d4d" x="75.743101" y="185.398125" style="stroke: #000000; stroke-width: 0.8"/>
      </g>
     </g>
     <g id="text_1">
      <!-- INL -->
      <g transform="translate(67.741538 199.996563)scale(0.1 -0.1)">
       <defs>
        <path id="DejaVuSans-49" d="M 628 4666 
L 1259 4666 
L 1259 0 
L 628 0 
L 628 4666 
z
" transform="scale(0.015625)"/>
        <path id="DejaVuSans-4e" d="M 628 4666 
L 1478 4666 
L 3547 763 
L 3547 4666 
L 4159 4666 
L 4159 0 
L 3309 0 
L 1241 3903 
L 1241 0 
L 628 0 
L 628 4666 
z
" transform="scale(0.015625)"/>
        <path id="DejaVuSans-4c" d="M 628 4666 
L 1259 4666 
L 1259 531 
L 3531 531 
L 3531 0 
L 628 0 
L 628 4666 
z
" transform="scale(0.015625)"/>
       </defs>
       <use xlink:href="#DejaVuSans-49"/>
       <use xlink:href="#DejaVuSans-4e" x="29.492188"/>
       <use xlink:href="#DejaVuSans-4c" x="104.296875"/>
      </g>
     </g>
    </g>
    <g id="xtick_2">
     <g id="line2d_2">
      <g>
       <use xlink:href="#ma24e5b2d4d" x="130.09375" y="185.398125" style="stroke: #000000; stroke-width: 0.8"/>
      </g>
     </g>
     <g id="text_2">
      <!-- LNI -->
      <g transform="translate(122.092188 199.996563)scale(0.1 -0.1)">
       <use xlink:href="#DejaVuSans-4c"/>
       <use xlink:href="#DejaVuSans-4e" x="55.712891"/>
       <use xlink:href="#DejaVuSans-49" x="130.517578"/>
      </g>
     </g>
    </g>
    <g id="xtick_3">
     <g id="line2d_3">
      <g>
       <use xlink:href="#ma24e5b2d4d" x="184.444399" y="185.398125" style="stroke: #000000; stroke-width: 0.8"/>
      </g>
     </g>
     <g id="text_3">
      <!-- LNI -->
      <g transform="translate(176.442837 199.996563)scale(0.1 -0.1)">
       <use xlink:href="#DejaVuSans-4c"/>
       <use xlink:href="#DejaVuSans-4e" x="55.712891"/>
       <use xlink:href="#DejaVuSans-49" x="130.517578"/>
      </g>
      <!-- + Brn2 -->
      <g transform="translate(166.917056 211.194375)scale(0.1 -0.1)">
       <defs>
        <path id="DejaVuSans-2b" d="M 2944 4013 
L 2944 2272 
L 4684 2272 
L 4684 1741 
L 2944 1741 
L 2944 0 
L 2419 0 
L 2419 1741 
L 678 1741 
L 678 2272 
L 2419 2272 
L 2419 4013 
L 2944 4013 
z
" transform="scale(0.015625)"/>
        <path id="DejaVuSans-20" transform="scale(0.015625)"/>
        <path id="DejaVuSans-42" d="M 1259 2228 
L 1259 519 
L 2272 519 
Q 2781 519 3026 730 
Q 3272 941 3272 1375 
Q 3272 1813 3026 2020 
Q 2781 2228 2272 2228 
L 1259 2228 
z
M 1259 4147 
L 1259 2741 
L 2194 2741 
Q 2656 2741 2882 2914 
Q 3109 3088 3109 3444 
Q 3109 3797 2882 3972 
Q 2656 4147 2194 4147 
L 1259 4147 
z
M 628 4666 
L 2241 4666 
Q 2963 4666 3353 4366 
Q 3744 4066 3744 3513 
Q 3744 3084 3544 2831 
Q 3344 2578 2956 2516 
Q 3422 2416 3680 2098 
Q 3938 1781 3938 1306 
Q 3938 681 3513 340 
Q 3088 0 2303 0 
L 628 0 
L 628 4666 
z
" transform="scale(0.015625)"/>
        <path id="DejaVuSans-72" d="M 2631 2963 
Q 2534 3019 2420 3045 
Q 2306 3072 2169 3072 
Q 1681 3072 1420 2755 
Q 1159 2438 1159 1844 
L 1159 0 
L 581 0 
L 581 3500 
L 1159 3500 
L 1159 2956 
Q 1341 3275 1631 3429 
Q 1922 3584 2338 3584 
Q 2397 3584 2469 3576 
Q 2541 3569 2628 3553 
L 2631 2963 
z
" transform="scale(0.015625)"/>
        <path id="DejaVuSans-6e" d="M 3513 2113 
L 3513 0 
L 2938 0 
L 2938 2094 
Q 2938 2591 2744 2837 
Q 2550 3084 2163 3084 
Q 1697 3084 1428 2787 
Q 1159 2491 1159 1978 
L 1159 0 
L 581 0 
L 581 3500 
L 1159 3500 
L 1159 2956 
Q 1366 3272 1645 3428 
Q 1925 3584 2291 3584 
Q 2894 3584 3203 3211 
Q 3513 2838 3513 2113 
z
" transform="scale(0.015625)"/>
        <path id="DejaVuSans-32" d="M 1228 531 
L 3431 531 
L 3431 0 
L 469 0 
L 469 531 
Q 828 903 1448 1529 
Q 2069 2156 2228 2338 
Q 2531 2678 2651 2914 
Q 2772 3150 2772 3378 
Q 2772 3750 2511 3984 
Q 2250 4219 1831 4219 
Q 1534 4219 1204 4116 
Q 875 4013 500 3803 
L 500 4441 
Q 881 4594 1212 4672 
Q 1544 4750 1819 4750 
Q 2544 4750 2975 4387 
Q 3406 4025 3406 3419 
Q 3406 3131 3298 2873 
Q 3191 2616 2906 2266 
Q 2828 2175 2409 1742 
Q 1991 1309 1228 531 
z
" transform="scale(0.015625)"/>
       </defs>
       <use xlink:href="#DejaVuSans-2b"/>
       <use xlink:href="#DejaVuSans-20" x="83.789062"/>
       <use xlink:href="#DejaVuSans-42" x="115.576172"/>
       <use xlink:href="#DejaVuSans-72" x="184.179688"/>
       <use xlink:href="#DejaVuSans-6e" x="223.542969"/>
       <use xlink:href="#DejaVuSans-32" x="286.921875"/>
      </g>
     </g>
    </g>
   </g>
   <g id="matplotlib.axis_2">
    <g id="ytick_1">
     <g id="line2d_4">
      <defs>
       <path id="mcd84230a2d" d="M 0 0 
L -3.5 0 
" style="stroke: #000000; stroke-width: 0.8"/>
      </defs>
      <g>
       <use xlink:href="#mcd84230a2d" x="46.39375" y="185.398125" style="stroke: #000000; stroke-width: 0.8"/>
      </g>
     </g>
     <g id="text_4">
      <!-- 0 -->
      <g transform="translate(33.03125 189.197344)scale(0.1 -0.1)">
       <defs>
        <path id="DejaVuSans-30" d="M 2034 4250 
Q 1547 4250 1301 3770 
Q 1056 3291 1056 2328 
Q 1056 1369 1301 889 
Q 1547 409 2034 409 
Q 2525 409 2770 889 
Q 3016 1369 3016 2328 
Q 3016 3291 2770 3770 
Q 2525 4250 2034 4250 
z
M 2034 4750 
Q 2819 4750 3233 4129 
Q 3647 3509 3647 2328 
Q 3647 1150 3233 529 
Q 2819 -91 2034 -91 
Q 1250 -91 836 529 
Q 422 1150 422 2328 
Q 422 3509 836 4129 
Q 1250 4750 2034 4750 
z
" transform="scale(0.015625)"/>
       </defs>
       <use xlink:href="#DejaVuSans-30"/>
      </g>
     </g>
    </g>
    <g id="ytick_2">
     <g id="line2d_5">
      <g>
       <use xlink:href="#mcd84230a2d" x="46.39375" y="158.938288" style="stroke: #000000; stroke-width: 0.8"/>
      </g>
     </g>
     <g id="text_5">
      <!-- 10k -->
      <g transform="translate(20.878125 162.737507)scale(0.1 -0.1)">
       <defs>
        <path id="DejaVuSans-31" d="M 794 531 
L 1825 531 
L 1825 4091 
L 703 3866 
L 703 4441 
L 1819 4666 
L 2450 4666 
L 2450 531 
L 3481 531 
L 3481 0 
L 794 0 
L 794 531 
z
" transform="scale(0.015625)"/>
        <path id="DejaVuSans-6b" d="M 581 4863 
L 1159 4863 
L 1159 1991 
L 2875 3500 
L 3609 3500 
L 1753 1863 
L 3688 0 
L 2938 0 
L 1159 1709 
L 1159 0 
L 581 0 
L 581 4863 
z
" transform="scale(0.015625)"/>
       </defs>
       <use xlink:href="#DejaVuSans-31"/>
       <use xlink:href="#DejaVuSans-30" x="63.623047"/>
       <use xlink:href="#DejaVuSans-6b" x="127.246094"/>
      </g>
     </g>
    </g>
    <g id="ytick_3">
     <g id="line2d_6">
      <g>
       <use xlink:href="#mcd84230a2d" x="46.39375" y="132.478451" style="stroke: #000000; stroke-width: 0.8"/>
      </g>
     </g>
     <g id="text_6">
      <!-- 20k -->
      <g transform="translate(20.878125 136.277669)scale(0.1 -0.1)">
       <use xlink:href="#DejaVuSans-32"/>
       <use xlink:href="#DejaVuSans-30" x="63.623047"/>
       <use xlink:href="#DejaVuSans-6b" x="127.246094"/>
      </g>
     </g>
    </g>
    <g id="ytick_4">
     <g id="line2d_7">
      <g>
       <use xlink:href="#mcd84230a2d" x="46.39375" y="106.018613" style="stroke: #000000; stroke-width: 0.8"/>
      </g>
     </g>
     <g id="text_7">
      <!-- 30k -->
      <g transform="translate(20.878125 109.817832)scale(0.1 -0.1)">
       <defs>
        <path id="DejaVuSans-33" d="M 2597 2516 
Q 3050 2419 3304 2112 
Q 3559 1806 3559 1356 
Q 3559 666 3084 287 
Q 2609 -91 1734 -91 
Q 1441 -91 1130 -33 
Q 819 25 488 141 
L 488 750 
Q 750 597 1062 519 
Q 1375 441 1716 441 
Q 2309 441 2620 675 
Q 2931 909 2931 1356 
Q 2931 1769 2642 2001 
Q 2353 2234 1838 2234 
L 1294 2234 
L 1294 2753 
L 1863 2753 
Q 2328 2753 2575 2939 
Q 2822 3125 2822 3475 
Q 2822 3834 2567 4026 
Q 2313 4219 1838 4219 
Q 1578 4219 1281 4162 
Q 984 4106 628 3988 
L 628 4550 
Q 988 4650 1302 4700 
Q 1616 4750 1894 4750 
Q 2613 4750 3031 4423 
Q 3450 4097 3450 3541 
Q 3450 3153 3228 2886 
Q 3006 2619 2597 2516 
z
" transform="scale(0.015625)"/>
       </defs>
       <use xlink:href="#DejaVuSans-33"/>
       <use xlink:href="#DejaVuSans-30" x="63.623047"/>
       <use xlink:href="#DejaVuSans-6b" x="127.246094"/>
      </g>
     </g>
    </g>
    <g id="ytick_5">
     <g id="line2d_8">
      <g>
       <use xlink:href="#mcd84230a2d" x="46.39375" y="79.558776" style="stroke: #000000; stroke-width: 0.8"/>
      </g>
     </g>
     <g id="text_8">
      <!-- 40k -->
      <g transform="translate(20.878125 83.357995)scale(0.1 -0.1)">
       <defs>
        <path id="DejaVuSans-34" d="M 2419 4116 
L 825 1625 
L 2419 1625 
L 2419 4116 
z
M 2253 4666 
L 3047 4666 
L 3047 1625 
L 3713 1625 
L 3713 1100 
L 3047 1100 
L 3047 0 
L 2419 0 
L 2419 1100 
L 313 1100 
L 313 1709 
L 2253 4666 
z
" transform="scale(0.015625)"/>
       </defs>
       <use xlink:href="#DejaVuSans-34"/>
       <use xlink:href="#DejaVuSans-30" x="63.623047"/>
       <use xlink:href="#DejaVuSans-6b" x="127.246094"/>
      </g>
     </g>
    </g>
    <g id="ytick_6">
     <g id="line2d_9">
      <g>
       <use xlink:href="#mcd84230a2d" x="46.39375" y="53.098939" style="stroke: #000000; stroke-width: 0.8"/>
      </g>
     </g>
     <g id="text_9">
      <!-- 50k -->
      <g transform="translate(20.878125 56.898158)scale(0.1 -0.1)">
       <defs>
        <path id="DejaVuSans-35" d="M 691 4666 
L 3169 4666 
L 3169 4134 
L 1269 4134 
L 1269 2991 
Q 1406 3038 1543 3061 
Q 1681 3084 1819 3084 
Q 2600 3084 3056 2656 
Q 3513 2228 3513 1497 
Q 3513 744 3044 326 
Q 2575 -91 1722 -91 
Q 1428 -91 1123 -41 
Q 819 9 494 109 
L 494 744 
Q 775 591 1075 516 
Q 1375 441 1709 441 
Q 2250 441 2565 725 
Q 2881 1009 2881 1497 
Q 2881 1984 2565 2268 
Q 2250 2553 1709 2553 
Q 1456 2553 1204 2497 
Q 953 2441 691 2322 
L 691 4666 
z
" transform="scale(0.015625)"/>
       </defs>
       <use xlink:href="#DejaVuSans-35"/>
       <use xlink:href="#DejaVuSans-30" x="63.623047"/>
       <use xlink:href="#DejaVuSans-6b" x="127.246094"/>
      </g>
     </g>
    </g>
    <g id="ytick_7">
     <g id="line2d_10">
      <g>
       <use xlink:href="#mcd84230a2d" x="46.39375" y="26.639102" style="stroke: #000000; stroke-width: 0.8"/>
      </g>
     </g>
     <g id="text_10">
      <!-- 60k -->
      <g transform="translate(20.878125 30.43832)scale(0.1 -0.1)">
       <defs>
        <path id="DejaVuSans-36" d="M 2113 2584 
Q 1688 2584 1439 2293 
Q 1191 2003 1191 1497 
Q 1191 994 1439 701 
Q 1688 409 2113 409 
Q 2538 409 2786 701 
Q 3034 994 3034 1497 
Q 3034 2003 2786 2293 
Q 2538 2584 2113 2584 
z
M 3366 4563 
L 3366 3988 
Q 3128 4100 2886 4159 
Q 2644 4219 2406 4219 
Q 1781 4219 1451 3797 
Q 1122 3375 1075 2522 
Q 1259 2794 1537 2939 
Q 1816 3084 2150 3084 
Q 2853 3084 3261 2657 
Q 3669 2231 3669 1497 
Q 3669 778 3244 343 
Q 2819 -91 2113 -91 
Q 1303 -91 875 529 
Q 447 1150 447 2328 
Q 447 3434 972 4092 
Q 1497 4750 2381 4750 
Q 2619 4750 2861 4703 
Q 3103 4656 3366 4563 
z
" transform="scale(0.015625)"/>
       </defs>
       <use xlink:href="#DejaVuSans-36"/>
       <use xlink:href="#DejaVuSans-30" x="63.623047"/>
       <use xlink:href="#DejaVuSans-6b" x="127.246094"/>
      </g>
     </g>
    </g>
    <g id="text_11">
     <!-- (#) Total iMN -->
     <g transform="translate(14.798437 136.247969)rotate(-90)scale(0.1 -0.1)">
      <defs>
       <path id="DejaVuSans-28" d="M 1984 4856 
Q 1566 4138 1362 3434 
Q 1159 2731 1159 2009 
Q 1159 1288 1364 580 
Q 1569 -128 1984 -844 
L 1484 -844 
Q 1016 -109 783 600 
Q 550 1309 550 2009 
Q 550 2706 781 3412 
Q 1013 4119 1484 4856 
L 1984 4856 
z
" transform="scale(0.015625)"/>
       <path id="DejaVuSans-23" d="M 3272 2816 
L 2363 2816 
L 2100 1772 
L 3016 1772 
L 3272 2816 
z
M 2803 4594 
L 2478 3297 
L 3391 3297 
L 3719 4594 
L 4219 4594 
L 3897 3297 
L 4872 3297 
L 4872 2816 
L 3775 2816 
L 3519 1772 
L 4513 1772 
L 4513 1294 
L 3397 1294 
L 3072 0 
L 2572 0 
L 2894 1294 
L 1978 1294 
L 1656 0 
L 1153 0 
L 1478 1294 
L 494 1294 
L 494 1772 
L 1594 1772 
L 1856 2816 
L 850 2816 
L 850 3297 
L 1978 3297 
L 2297 4594 
L 2803 4594 
z
" transform="scale(0.015625)"/>
       <path id="DejaVuSans-29" d="M 513 4856 
L 1013 4856 
Q 1481 4119 1714 3412 
Q 1947 2706 1947 2009 
Q 1947 1309 1714 600 
Q 1481 -109 1013 -844 
L 513 -844 
Q 928 -128 1133 580 
Q 1338 1288 1338 2009 
Q 1338 2731 1133 3434 
Q 928 4138 513 4856 
z
" transform="scale(0.015625)"/>
       <path id="DejaVuSans-54" d="M -19 4666 
L 3928 4666 
L 3928 4134 
L 2272 4134 
L 2272 0 
L 1638 0 
L 1638 4134 
L -19 4134 
L -19 4666 
z
" transform="scale(0.015625)"/>
       <path id="DejaVuSans-6f" d="M 1959 3097 
Q 1497 3097 1228 2736 
Q 959 2375 959 1747 
Q 959 1119 1226 758 
Q 1494 397 1959 397 
Q 2419 397 2687 759 
Q 2956 1122 2956 1747 
Q 2956 2369 2687 2733 
Q 2419 3097 1959 3097 
z
M 1959 3584 
Q 2709 3584 3137 3096 
Q 3566 2609 3566 1747 
Q 3566 888 3137 398 
Q 2709 -91 1959 -91 
Q 1206 -91 779 398 
Q 353 888 353 1747 
Q 353 2609 779 3096 
Q 1206 3584 1959 3584 
z
" transform="scale(0.015625)"/>
       <path id="DejaVuSans-74" d="M 1172 4494 
L 1172 3500 
L 2356 3500 
L 2356 3053 
L 1172 3053 
L 1172 1153 
Q 1172 725 1289 603 
Q 1406 481 1766 481 
L 2356 481 
L 2356 0 
L 1766 0 
Q 1100 0 847 248 
Q 594 497 594 1153 
L 594 3053 
L 172 3053 
L 172 3500 
L 594 3500 
L 594 4494 
L 1172 4494 
z
" transform="scale(0.015625)"/>
       <path id="DejaVuSans-61" d="M 2194 1759 
Q 1497 1759 1228 1600 
Q 959 1441 959 1056 
Q 959 750 1161 570 
Q 1363 391 1709 391 
Q 2188 391 2477 730 
Q 2766 1069 2766 1631 
L 2766 1759 
L 2194 1759 
z
M 3341 1997 
L 3341 0 
L 2766 0 
L 2766 531 
Q 2569 213 2275 61 
Q 1981 -91 1556 -91 
Q 1019 -91 701 211 
Q 384 513 384 1019 
Q 384 1609 779 1909 
Q 1175 2209 1959 2209 
L 2766 2209 
L 2766 2266 
Q 2766 2663 2505 2880 
Q 2244 3097 1772 3097 
Q 1472 3097 1187 3025 
Q 903 2953 641 2809 
L 641 3341 
Q 956 3463 1253 3523 
Q 1550 3584 1831 3584 
Q 2591 3584 2966 3190 
Q 3341 2797 3341 1997 
z
" transform="scale(0.015625)"/>
       <path id="DejaVuSans-6c" d="M 603 4863 
L 1178 4863 
L 1178 0 
L 603 0 
L 603 4863 
z
" transform="scale(0.015625)"/>
       <path id="DejaVuSans-69" d="M 603 3500 
L 1178 3500 
L 1178 0 
L 603 0 
L 603 3500 
z
M 603 4863 
L 1178 4863 
L 1178 4134 
L 603 4134 
L 603 4863 
z
" transform="scale(0.015625)"/>
       <path id="DejaVuSans-4d" d="M 628 4666 
L 1569 4666 
L 2759 1491 
L 3956 4666 
L 4897 4666 
L 4897 0 
L 4281 0 
L 4281 4097 
L 3078 897 
L 2444 897 
L 1241 4097 
L 1241 0 
L 628 0 
L 628 4666 
z
" transform="scale(0.015625)"/>
      </defs>
      <use xlink:href="#DejaVuSans-28"/>
      <use xlink:href="#DejaVuSans-23" x="39.013672"/>
      <use xlink:href="#DejaVuSans-29" x="122.802734"/>
      <use xlink:href="#DejaVuSans-20" x="161.816406"/>
      <use xlink:href="#DejaVuSans-54" x="193.603516"/>
      <use xlink:href="#DejaVuSans-6f" x="237.6875"/>
      <use xlink:href="#DejaVuSans-74" x="298.869141"/>
      <use xlink:href="#DejaVuSans-61" x="338.078125"/>
      <use xlink:href="#DejaVuSans-6c" x="399.357422"/>
      <use xlink:href="#DejaVuSans-20" x="427.140625"/>
      <use xlink:href="#DejaVuSans-69" x="458.927734"/>
      <use xlink:href="#DejaVuSans-4d" x="486.710938"/>
      <use xlink:href="#DejaVuSans-4e" x="572.990234"/>
     </g>
    </g>
   </g>
   <g id="line2d_11">
    <path d="M 59.437906 175.42726 
L 59.437906 168.17305 
" clip-path="url(#p5030339c16)" style="fill: none; stroke: #424242; stroke-width: 2.7; stroke-linecap: square"/>
   </g>
   <g id="line2d_12">
    <path d="M 113.788555 156.458545 
L 113.788555 131.02981 
" clip-path="url(#p5030339c16)" style="fill: none; stroke: #424242; stroke-width: 2.7; stroke-linecap: square"/>
   </g>
   <g id="line2d_13">
    <path d="M 168.139205 182.424833 
L 168.139205 169.694968 
" clip-path="url(#p5030339c16)" style="fill: none; stroke: #424242; stroke-width: 2.7; stroke-linecap: square"/>
   </g>
   <g id="line2d_14">
    <path d="M 70.308036 167.769477 
L 70.308036 157.144963 
" clip-path="url(#p5030339c16)" style="fill: none; stroke: #424242; stroke-width: 2.7; stroke-linecap: square"/>
   </g>
   <g id="line2d_15">
    <path d="M 124.658685 141.748678 
L 124.658685 112.593151 
" clip-path="url(#p5030339c16)" style="fill: none; stroke: #424242; stroke-width: 2.7; stroke-linecap: square"/>
   </g>
   <g id="line2d_16">
    <path d="M 179.009334 182.341022 
L 179.009334 174.636399 
" clip-path="url(#p5030339c16)" style="fill: none; stroke: #424242; stroke-width: 2.7; stroke-linecap: square"/>
   </g>
   <g id="line2d_17">
    <path d="M 81.178166 154.916714 
L 81.178166 130.272988 
" clip-path="url(#p5030339c16)" style="fill: none; stroke: #424242; stroke-width: 2.7; stroke-linecap: square"/>
   </g>
   <g id="line2d_18">
    <path d="M 135.528815 129.387859 
L 135.528815 100.766525 
" clip-path="url(#p5030339c16)" style="fill: none; stroke: #424242; stroke-width: 2.7; stroke-linecap: square"/>
   </g>
   <g id="line2d_19">
    <path d="M 189.879464 182.44842 
L 189.879464 172.626557 
" clip-path="url(#p5030339c16)" style="fill: none; stroke: #424242; stroke-width: 2.7; stroke-linecap: square"/>
   </g>
   <g id="line2d_20">
    <path d="M 92.048295 168.284979 
L 92.048295 133.896036 
" clip-path="url(#p5030339c16)" style="fill: none; stroke: #424242; stroke-width: 2.7; stroke-linecap: square"/>
   </g>
   <g id="line2d_21">
    <path d="M 146.398945 160.043269 
L 146.398945 124.089491 
" clip-path="url(#p5030339c16)" style="fill: none; stroke: #424242; stroke-width: 2.7; stroke-linecap: square"/>
   </g>
   <g id="line2d_22">
    <path d="M 200.749594 184.361277 
L 200.749594 178.777203 
" clip-path="url(#p5030339c16)" style="fill: none; stroke: #424242; stroke-width: 2.7; stroke-linecap: square"/>
   </g>
   <g id="line2d_23">
    <path d="M 59.437906 85.390524 
L 59.437906 82.765547 
L 113.788555 82.765547 
L 113.788555 85.390524 
" clip-path="url(#p5030339c16)" style="fill: none; stroke: #333333; stroke-width: 1.5; stroke-linecap: square"/>
   </g>
   <g id="line2d_24">
    <path d="M 135.528815 60.399208 
L 135.528815 57.774231 
L 189.879464 57.774231 
L 189.879464 60.399208 
" clip-path="url(#p5030339c16)" style="fill: none; stroke: #333333; stroke-width: 1.5; stroke-linecap: square"/>
   </g>
   <g id="line2d_25">
    <path d="M 81.178166 40.06835 
L 81.178166 37.443373 
L 135.528815 37.443373 
L 135.528815 40.06835 
" clip-path="url(#p5030339c16)" style="fill: none; stroke: #333333; stroke-width: 1.5; stroke-linecap: square"/>
   </g>
   <g id="patch_15">
    <path d="M 46.39375 185.398125 
L 46.39375 22.318125 
" style="fill: none; stroke: #000000; stroke-width: 0.8; stroke-linejoin: miter; stroke-linecap: square"/>
   </g>
   <g id="patch_16">
    <path d="M 213.79375 185.398125 
L 213.79375 22.318125 
" style="fill: none; stroke: #000000; stroke-width: 0.8; stroke-linejoin: miter; stroke-linecap: square"/>
   </g>
   <g id="patch_17">
    <path d="M 46.39375 185.398125 
L 213.79375 185.398125 
" style="fill: none; stroke: #000000; stroke-width: 0.8; stroke-linejoin: miter; stroke-linecap: square"/>
   </g>
   <g id="patch_18">
    <path d="M 46.39375 22.318125 
L 213.79375 22.318125 
" style="fill: none; stroke: #000000; stroke-width: 0.8; stroke-linejoin: miter; stroke-linecap: square"/>
   </g>
   <g id="PathCollection_21">
    <defs>
     <path id="C0_0_ffabb3206d" d="M 0 2.5 
C 0.663008 2.5 1.29895 2.236584 1.767767 1.767767 
C 2.236584 1.29895 2.5 0.663008 2.5 -0 
C 2.5 -0.663008 2.236584 -1.29895 1.767767 -1.767767 
C 1.29895 -2.236584 0.663008 -2.5 0 -2.5 
C -0.663008 -2.5 -1.29895 -2.236584 -1.767767 -1.767767 
C -2.236584 -1.29895 -2.5 -0.663008 -2.5 0 
C -2.5 0.663008 -2.236584 1.29895 -1.767767 1.767767 
C -1.29895 2.236584 -0.663008 2.5 0 2.5 
z
"/>
    </defs>
    <g clip-path="url(#p5030339c16)">
     <use xlink:href="#C0_0_ffabb3206d" x="60.015202" y="168.355344" style="fill: #ffffff; stroke: #000000; stroke-width: 0.4"/>
    </g>
    <g clip-path="url(#p5030339c16)">
     <use xlink:href="#C0_0_ffabb3206d" x="58.330913" y="170.223408" style="fill: #ffffff; stroke: #000000; stroke-width: 0.4"/>
    </g>
   </g>
   <g id="PathCollection_22">
    <defs>
     <path id="C1_0_d5ddb8f1b9" d="M 0 2.5 
C 0.663008 2.5 1.29895 2.236584 1.767767 1.767767 
C 2.236584 1.29895 2.5 0.663008 2.5 -0 
C 2.5 -0.663008 2.236584 -1.29895 1.767767 -1.767767 
C 1.29895 -2.236584 0.663008 -2.5 0 -2.5 
C -0.663008 -2.5 -1.29895 -2.236584 -1.767767 -1.767767 
C -2.236584 -1.29895 -2.5 -0.663008 -2.5 0 
C -2.5 0.663008 -2.236584 1.29895 -1.767767 1.767767 
C -1.29895 2.236584 -0.663008 2.5 0 2.5 
z
"/>
    </defs>
    <g clip-path="url(#p5030339c16)">
     <use xlink:href="#C1_0_d5ddb8f1b9" x="70.199424" y="160.475604" style="fill: #ffffff; stroke: #000000; stroke-width: 0.4"/>
    </g>
    <g clip-path="url(#p5030339c16)">
     <use xlink:href="#C1_0_d5ddb8f1b9" x="70.391881" y="153.572233" style="fill: #ffffff; stroke: #000000; stroke-width: 0.4"/>
    </g>
   </g>
   <g id="PathCollection_23">
    <defs>
     <path id="C2_0_a9f6ee873d" d="M 0 2.5 
C 0.663008 2.5 1.29895 2.236584 1.767767 1.767767 
C 2.236584 1.29895 2.5 0.663008 2.5 -0 
C 2.5 -0.663008 2.236584 -1.29895 1.767767 -1.767767 
C 1.29895 -2.236584 0.663008 -2.5 0 -2.5 
C -0.663008 -2.5 -1.29895 -2.236584 -1.767767 -1.767767 
C -2.236584 -1.29895 -2.5 -0.663008 -2.5 0 
C -2.5 0.663008 -2.236584 1.29895 -1.767767 1.767767 
C -1.29895 2.236584 -0.663008 2.5 0 2.5 
z
"/>
    </defs>
    <g clip-path="url(#p5030339c16)">
     <use xlink:href="#C2_0_a9f6ee873d" x="80.75478" y="97.866337" style="fill: #ffffff; stroke: #000000; stroke-width: 0.4"/>
    </g>
    <g clip-path="url(#p5030339c16)">
     <use xlink:href="#C2_0_a9f6ee873d" x="81.581529" y="89.637328" style="fill: #ffffff; stroke: #000000; stroke-width: 0.4"/>
    </g>
   </g>
   <g id="PathCollection_24">
    <defs>
     <path id="C3_0_daa9977b13" d="M 0 2.5 
C 0.663008 2.5 1.29895 2.236584 1.767767 1.767767 
C 2.236584 1.29895 2.5 0.663008 2.5 -0 
C 2.5 -0.663008 2.236584 -1.29895 1.767767 -1.767767 
C 1.29895 -2.236584 0.663008 -2.5 0 -2.5 
C -0.663008 -2.5 -1.29895 -2.236584 -1.767767 -1.767767 
C -2.236584 -1.29895 -2.5 -0.663008 -2.5 0 
C -2.5 0.663008 -2.236584 1.29895 -1.767767 1.767767 
C -1.29895 2.236584 -0.663008 2.5 0 2.5 
z
"/>
    </defs>
    <g clip-path="url(#p5030339c16)">
     <use xlink:href="#C3_0_daa9977b13" x="90.728158" y="85.390524" style="fill: #ffffff; stroke: #000000; stroke-width: 0.4"/>
    </g>
    <g clip-path="url(#p5030339c16)">
     <use xlink:href="#C3_0_daa9977b13" x="92.596629" y="103.343524" style="fill: #ffffff; stroke: #000000; stroke-width: 0.4"/>
    </g>
   </g>
   <g id="PathCollection_25">
    <defs>
     <path id="C4_0_b81fb8a5ed" d="M 0 2.5 
C 0.663008 2.5 1.29895 2.236584 1.767767 1.767767 
C 2.236584 1.29895 2.5 0.663008 2.5 -0 
C 2.5 -0.663008 2.236584 -1.29895 1.767767 -1.767767 
C 1.29895 -2.236584 0.663008 -2.5 0 -2.5 
C -0.663008 -2.5 -1.29895 -2.236584 -1.767767 -1.767767 
C -2.236584 -1.29895 -2.5 -0.663008 -2.5 0 
C -2.5 0.663008 -2.236584 1.29895 -1.767767 1.767767 
C -1.29895 2.236584 -0.663008 2.5 0 2.5 
z
"/>
    </defs>
    <g clip-path="url(#p5030339c16)">
     <use xlink:href="#C4_0_b81fb8a5ed" x="115.012417" y="96.786776" style="fill: #ffffff; stroke: #000000; stroke-width: 0.4"/>
    </g>
    <g clip-path="url(#p5030339c16)">
     <use xlink:href="#C4_0_b81fb8a5ed" x="114.556514" y="118.838404" style="fill: #ffffff; stroke: #000000; stroke-width: 0.4"/>
    </g>
   </g>
   <g id="PathCollection_26">
    <defs>
     <path id="C5_0_e218d1e2c3" d="M 0 2.5 
C 0.663008 2.5 1.29895 2.236584 1.767767 1.767767 
C 2.236584 1.29895 2.5 0.663008 2.5 -0 
C 2.5 -0.663008 2.236584 -1.29895 1.767767 -1.767767 
C 1.29895 -2.236584 0.663008 -2.5 0 -2.5 
C -0.663008 -2.5 -1.29895 -2.236584 -1.767767 -1.767767 
C -2.236584 -1.29895 -2.5 -0.663008 -2.5 0 
C -2.5 0.663008 -2.236584 1.29895 -1.767767 1.767767 
C -1.29895 2.236584 -0.663008 2.5 0 2.5 
z
"/>
    </defs>
    <g clip-path="url(#p5030339c16)">
     <use xlink:href="#C5_0_e218d1e2c3" x="123.302073" y="92.5876" style="fill: #ffffff; stroke: #000000; stroke-width: 0.4"/>
    </g>
    <g clip-path="url(#p5030339c16)">
     <use xlink:href="#C5_0_e218d1e2c3" x="124.604774" y="110.119888" style="fill: #ffffff; stroke: #000000; stroke-width: 0.4"/>
    </g>
   </g>
   <g id="PathCollection_27">
    <defs>
     <path id="C6_0_4aa4659d60" d="M 0 2.5 
C 0.663008 2.5 1.29895 2.236584 1.767767 1.767767 
C 2.236584 1.29895 2.5 0.663008 2.5 -0 
C 2.5 -0.663008 2.236584 -1.29895 1.767767 -1.767767 
C 1.29895 -2.236584 0.663008 -2.5 0 -2.5 
C -0.663008 -2.5 -1.29895 -2.236584 -1.767767 -1.767767 
C -2.236584 -1.29895 -2.5 -0.663008 -2.5 0 
C -2.5 0.663008 -2.236584 1.29895 -1.767767 1.767767 
C -1.29895 2.236584 -0.663008 2.5 0 2.5 
z
"/>
    </defs>
    <g clip-path="url(#p5030339c16)">
     <use xlink:href="#C6_0_4aa4659d60" x="136.688506" y="60.399208" style="fill: #ffffff; stroke: #000000; stroke-width: 0.4"/>
    </g>
    <g clip-path="url(#p5030339c16)">
     <use xlink:href="#C6_0_4aa4659d60" x="136.846947" y="78.196094" style="fill: #ffffff; stroke: #000000; stroke-width: 0.4"/>
    </g>
   </g>
   <g id="PathCollection_28">
    <defs>
     <path id="C7_0_fb9b3d3761" d="M 0 2.5 
C 0.663008 2.5 1.29895 2.236584 1.767767 1.767767 
C 2.236584 1.29895 2.5 0.663008 2.5 -0 
C 2.5 -0.663008 2.236584 -1.29895 1.767767 -1.767767 
C 1.29895 -2.236584 0.663008 -2.5 0 -2.5 
C -0.663008 -2.5 -1.29895 -2.236584 -1.767767 -1.767767 
C -2.236584 -1.29895 -2.5 -0.663008 -2.5 0 
C -2.5 0.663008 -2.236584 1.29895 -1.767767 1.767767 
C -1.29895 2.236584 -0.663008 2.5 0 2.5 
z
"/>
    </defs>
    <g clip-path="url(#p5030339c16)">
     <use xlink:href="#C7_0_fb9b3d3761" x="145.883788" y="106.539872" style="fill: #ffffff; stroke: #000000; stroke-width: 0.4"/>
    </g>
    <g clip-path="url(#p5030339c16)">
     <use xlink:href="#C7_0_fb9b3d3761" x="145.050917" y="110.974541" style="fill: #ffffff; stroke: #000000; stroke-width: 0.4"/>
    </g>
   </g>
   <g id="PathCollection_29">
    <defs>
     <path id="C8_0_08dad7d5f5" d="M 0 2.5 
C 0.663008 2.5 1.29895 2.236584 1.767767 1.767767 
C 2.236584 1.29895 2.5 0.663008 2.5 -0 
C 2.5 -0.663008 2.236584 -1.29895 1.767767 -1.767767 
C 1.29895 -2.236584 0.663008 -2.5 0 -2.5 
C -0.663008 -2.5 -1.29895 -2.236584 -1.767767 -1.767767 
C -2.236584 -1.29895 -2.5 -0.663008 -2.5 0 
C -2.5 0.663008 -2.236584 1.29895 -1.767767 1.767767 
C -1.29895 2.236584 -0.663008 2.5 0 2.5 
z
"/>
    </defs>
    <g clip-path="url(#p5030339c16)">
     <use xlink:href="#C8_0_08dad7d5f5" x="169.4428" y="160.560276" style="fill: #ffffff; stroke: #000000; stroke-width: 0.4"/>
    </g>
    <g clip-path="url(#p5030339c16)">
     <use xlink:href="#C8_0_08dad7d5f5" x="168.924171" y="168.408264" style="fill: #ffffff; stroke: #000000; stroke-width: 0.4"/>
    </g>
   </g>
   <g id="PathCollection_30">
    <defs>
     <path id="C9_0_c93bae0730" d="M 0 2.5 
C 0.663008 2.5 1.29895 2.236584 1.767767 1.767767 
C 2.236584 1.29895 2.5 0.663008 2.5 -0 
C 2.5 -0.663008 2.236584 -1.29895 1.767767 -1.767767 
C 1.29895 -2.236584 0.663008 -2.5 0 -2.5 
C -0.663008 -2.5 -1.29895 -2.236584 -1.767767 -1.767767 
C -2.236584 -1.29895 -2.5 -0.663008 -2.5 0 
C -2.5 0.663008 -2.236584 1.29895 -1.767767 1.767767 
C -1.29895 2.236584 -0.663008 2.5 0 2.5 
z
"/>
    </defs>
    <g clip-path="url(#p5030339c16)">
     <use xlink:href="#C9_0_c93bae0730" x="179.466061" y="172.91702" style="fill: #ffffff; stroke: #000000; stroke-width: 0.4"/>
    </g>
    <g clip-path="url(#p5030339c16)">
     <use xlink:href="#C9_0_c93bae0730" x="179.759383" y="170.450963" style="fill: #ffffff; stroke: #000000; stroke-width: 0.4"/>
    </g>
   </g>
   <g id="PathCollection_31">
    <defs>
     <path id="Ca_0_4344a11160" d="M 0 2.5 
C 0.663008 2.5 1.29895 2.236584 1.767767 1.767767 
C 2.236584 1.29895 2.5 0.663008 2.5 -0 
C 2.5 -0.663008 2.236584 -1.29895 1.767767 -1.767767 
C 1.29895 -2.236584 0.663008 -2.5 0 -2.5 
C -0.663008 -2.5 -1.29895 -2.236584 -1.767767 -1.767767 
C -2.236584 -1.29895 -2.5 -0.663008 -2.5 0 
C -2.5 0.663008 -2.236584 1.29895 -1.767767 1.767767 
C -1.29895 2.236584 -0.663008 2.5 0 2.5 
z
"/>
    </defs>
    <g clip-path="url(#p5030339c16)">
     <use xlink:href="#Ca_0_4344a11160" x="190.073821" y="166.386732" style="fill: #ffffff; stroke: #000000; stroke-width: 0.4"/>
    </g>
    <g clip-path="url(#p5030339c16)">
     <use xlink:href="#Ca_0_4344a11160" x="190.902134" y="171.493481" style="fill: #ffffff; stroke: #000000; stroke-width: 0.4"/>
    </g>
   </g>
   <g id="PathCollection_32">
    <defs>
     <path id="Cb_0_e6d77bb798" d="M 0 2.5 
C 0.663008 2.5 1.29895 2.236584 1.767767 1.767767 
C 2.236584 1.29895 2.5 0.663008 2.5 -0 
C 2.5 -0.663008 2.236584 -1.29895 1.767767 -1.767767 
C 1.29895 -2.236584 0.663008 -2.5 0 -2.5 
C -0.663008 -2.5 -1.29895 -2.236584 -1.767767 -1.767767 
C -2.236584 -1.29895 -2.5 -0.663008 -2.5 0 
C -2.5 0.663008 -2.236584 1.29895 -1.767767 1.767767 
C -1.29895 2.236584 -0.663008 2.5 0 2.5 
z
"/>
    </defs>
    <g clip-path="url(#p5030339c16)">
     <use xlink:href="#Cb_0_e6d77bb798" x="200.307464" y="177.608349" style="fill: #ffffff; stroke: #000000; stroke-width: 0.4"/>
    </g>
    <g clip-path="url(#p5030339c16)">
     <use xlink:href="#Cb_0_e6d77bb798" x="199.636261" y="175.031161" style="fill: #ffffff; stroke: #000000; stroke-width: 0.4"/>
    </g>
   </g>
   <g id="PathCollection_33">
    <path d="M 55.863393 164.57907 
L 60.863393 164.57907 
L 60.863393 159.57907 
L 55.863393 159.57907 
z
" clip-path="url(#p5030339c16)" style="fill: #ffffff; stroke: #000000; stroke-width: 0.4"/>
    <path d="M 56.273124 165.865019 
L 61.273124 165.865019 
L 61.273124 160.865019 
L 56.273124 160.865019 
z
" clip-path="url(#p5030339c16)" style="fill: #ffffff; stroke: #000000; stroke-width: 0.4"/>
   </g>
   <g id="PathCollection_34">
    <path d="M 68.365173 164.031352 
L 73.365173 164.031352 
L 73.365173 159.031352 
L 68.365173 159.031352 
z
" clip-path="url(#p5030339c16)" style="fill: #ffffff; stroke: #000000; stroke-width: 0.4"/>
    <path d="M 69.095738 161.485915 
L 74.095738 161.485915 
L 74.095738 156.485915 
L 69.095738 156.485915 
z
" clip-path="url(#p5030339c16)" style="fill: #ffffff; stroke: #000000; stroke-width: 0.4"/>
   </g>
   <g id="PathCollection_35">
    <path d="M 79.10764 134.462484 
L 84.10764 134.462484 
L 84.10764 129.462484 
L 79.10764 129.462484 
z
" clip-path="url(#p5030339c16)" style="fill: #ffffff; stroke: #000000; stroke-width: 0.4"/>
    <path d="M 79.664242 128.490498 
L 84.664242 128.490498 
L 84.664242 123.490498 
L 79.664242 123.490498 
z
" clip-path="url(#p5030339c16)" style="fill: #ffffff; stroke: #000000; stroke-width: 0.4"/>
   </g>
   <g id="PathCollection_36">
    <path d="M 88.844639 144.199704 
L 93.844639 144.199704 
L 93.844639 139.199704 
L 88.844639 139.199704 
z
" clip-path="url(#p5030339c16)" style="fill: #ffffff; stroke: #000000; stroke-width: 0.4"/>
    <path d="M 89.958265 151.335922 
L 94.958265 151.335922 
L 94.958265 146.335922 
L 89.958265 146.335922 
z
" clip-path="url(#p5030339c16)" style="fill: #ffffff; stroke: #000000; stroke-width: 0.4"/>
   </g>
   <g id="PathCollection_37">
    <path d="M 112.586383 151.35709 
L 117.586383 151.35709 
L 117.586383 146.35709 
L 112.586383 146.35709 
z
" clip-path="url(#p5030339c16)" style="fill: #ffffff; stroke: #000000; stroke-width: 0.4"/>
    <path d="M 111.805415 159.681355 
L 116.805415 159.681355 
L 116.805415 154.681355 
L 111.805415 154.681355 
z
" clip-path="url(#p5030339c16)" style="fill: #ffffff; stroke: #000000; stroke-width: 0.4"/>
   </g>
   <g id="PathCollection_38">
    <path d="M 121.06606 156.84486 
L 126.06606 156.84486 
L 126.06606 151.84486 
L 121.06606 151.84486 
z
" clip-path="url(#p5030339c16)" style="fill: #ffffff; stroke: #000000; stroke-width: 0.4"/>
    <path d="M 121.208248 148.144866 
L 126.208248 148.144866 
L 126.208248 143.144866 
L 121.208248 143.144866 
z
" clip-path="url(#p5030339c16)" style="fill: #ffffff; stroke: #000000; stroke-width: 0.4"/>
   </g>
   <g id="PathCollection_39">
    <path d="M 132.607551 102.477832 
L 137.607551 102.477832 
L 137.607551 97.477832 
L 132.607551 97.477832 
z
" clip-path="url(#p5030339c16)" style="fill: #ffffff; stroke: #000000; stroke-width: 0.4"/>
    <path d="M 131.962657 121.248441 
L 136.962657 121.248441 
L 136.962657 116.248441 
L 131.962657 116.248441 
z
" clip-path="url(#p5030339c16)" style="fill: #ffffff; stroke: #000000; stroke-width: 0.4"/>
   </g>
   <g id="PathCollection_40">
    <path d="M 143.948311 145.578261 
L 148.948311 145.578261 
L 148.948311 140.578261 
L 143.948311 140.578261 
z
" clip-path="url(#p5030339c16)" style="fill: #ffffff; stroke: #000000; stroke-width: 0.4"/>
    <path d="M 143.304747 152.066213 
L 148.304747 152.066213 
L 148.304747 147.066213 
L 143.304747 147.066213 
z
" clip-path="url(#p5030339c16)" style="fill: #ffffff; stroke: #000000; stroke-width: 0.4"/>
   </g>
   <g id="PathCollection_41">
    <path d="M 166.732286 177.756069 
L 171.732286 177.756069 
L 171.732286 172.756069 
L 166.732286 172.756069 
z
" clip-path="url(#p5030339c16)" style="fill: #ffffff; stroke: #000000; stroke-width: 0.4"/>
    <path d="M 165.073922 180.788367 
L 170.073922 180.788367 
L 170.073922 175.788367 
L 165.073922 175.788367 
z
" clip-path="url(#p5030339c16)" style="fill: #ffffff; stroke: #000000; stroke-width: 0.4"/>
   </g>
   <g id="PathCollection_42">
    <path d="M 177.085442 178.753605 
L 182.085442 178.753605 
L 182.085442 173.753605 
L 177.085442 173.753605 
z
" clip-path="url(#p5030339c16)" style="fill: #ffffff; stroke: #000000; stroke-width: 0.4"/>
    <path d="M 177.756178 179.952236 
L 182.756178 179.952236 
L 182.756178 174.952236 
L 177.756178 174.952236 
z
" clip-path="url(#p5030339c16)" style="fill: #ffffff; stroke: #000000; stroke-width: 0.4"/>
   </g>
   <g id="PathCollection_43">
    <path d="M 187.258648 178.60543 
L 192.258648 178.60543 
L 192.258648 173.60543 
L 187.258648 173.60543 
z
" clip-path="url(#p5030339c16)" style="fill: #ffffff; stroke: #000000; stroke-width: 0.4"/>
    <path d="M 186.156006 176.396034 
L 191.156006 176.396034 
L 191.156006 171.396034 
L 186.156006 171.396034 
z
" clip-path="url(#p5030339c16)" style="fill: #ffffff; stroke: #000000; stroke-width: 0.4"/>
   </g>
   <g id="PathCollection_44">
    <path d="M 198.862905 184.728236 
L 203.862905 184.728236 
L 203.862905 179.728236 
L 198.862905 179.728236 
z
" clip-path="url(#p5030339c16)" style="fill: #ffffff; stroke: #000000; stroke-width: 0.4"/>
    <path d="M 199.391653 184.209624 
L 204.391653 184.209624 
L 204.391653 179.209624 
L 199.391653 179.209624 
z
" clip-path="url(#p5030339c16)" style="fill: #ffffff; stroke: #000000; stroke-width: 0.4"/>
   </g>
   <g id="PathCollection_45">
    <path d="M 60.165556 177.354789 
L 57.665556 182.354789 
L 62.665556 182.354789 
z
" clip-path="url(#p5030339c16)" style="fill: #ffffff; stroke: #000000; stroke-width: 0.4"/>
    <path d="M 59.301944 177.053147 
L 56.801944 182.053147 
L 61.801944 182.053147 
z
" clip-path="url(#p5030339c16)" style="fill: #ffffff; stroke: #000000; stroke-width: 0.4"/>
    <path d="M 60.533659 177.751687 
L 58.033659 182.751687 
L 63.033659 182.751687 
z
" clip-path="url(#p5030339c16)" style="fill: #ffffff; stroke: #000000; stroke-width: 0.4"/>
    <path d="M 58.568426 178.558712 
L 56.068426 183.558712 
L 61.068426 183.558712 
z
" clip-path="url(#p5030339c16)" style="fill: #ffffff; stroke: #000000; stroke-width: 0.4"/>
   </g>
   <g id="PathCollection_46">
    <path d="M 70.707825 172.93335 
L 68.207825 177.93335 
L 73.207825 177.93335 
z
" clip-path="url(#p5030339c16)" style="fill: #ffffff; stroke: #000000; stroke-width: 0.4"/>
    <path d="M 70.118092 172.909536 
L 67.618092 177.909536 
L 72.618092 177.909536 
z
" clip-path="url(#p5030339c16)" style="fill: #ffffff; stroke: #000000; stroke-width: 0.4"/>
    <path d="M 71.174754 169.946035 
L 68.674754 174.946035 
L 73.674754 174.946035 
z
" clip-path="url(#p5030339c16)" style="fill: #ffffff; stroke: #000000; stroke-width: 0.4"/>
    <path d="M 71.646227 173.838277 
L 69.146227 178.838277 
L 74.146227 178.838277 
z
" clip-path="url(#p5030339c16)" style="fill: #ffffff; stroke: #000000; stroke-width: 0.4"/>
   </g>
   <g id="PathCollection_47">
    <path d="M 81.689089 162.082171 
L 79.189089 167.082171 
L 84.189089 167.082171 
z
" clip-path="url(#p5030339c16)" style="fill: #ffffff; stroke: #000000; stroke-width: 0.4"/>
    <path d="M 80.997706 166.122588 
L 78.497706 171.122588 
L 83.497706 171.122588 
z
" clip-path="url(#p5030339c16)" style="fill: #ffffff; stroke: #000000; stroke-width: 0.4"/>
    <path d="M 81.687283 157.38555 
L 79.187283 162.38555 
L 84.187283 162.38555 
z
" clip-path="url(#p5030339c16)" style="fill: #ffffff; stroke: #000000; stroke-width: 0.4"/>
    <path d="M 81.533191 157.589291 
L 79.033191 162.589291 
L 84.033191 162.589291 
z
" clip-path="url(#p5030339c16)" style="fill: #ffffff; stroke: #000000; stroke-width: 0.4"/>
   </g>
   <g id="PathCollection_48">
    <path d="M 92.594392 164.971585 
L 90.094392 169.971585 
L 95.094392 169.971585 
z
" clip-path="url(#p5030339c16)" style="fill: #ffffff; stroke: #000000; stroke-width: 0.4"/>
    <path d="M 93.238388 175.386177 
L 90.738388 180.386177 
L 95.738388 180.386177 
z
" clip-path="url(#p5030339c16)" style="fill: #ffffff; stroke: #000000; stroke-width: 0.4"/>
    <path d="M 91.153191 173.57897 
L 88.653191 178.57897 
L 93.653191 178.57897 
z
" clip-path="url(#p5030339c16)" style="fill: #ffffff; stroke: #000000; stroke-width: 0.4"/>
    <path d="M 91.295125 178.352325 
L 88.795125 183.352325 
L 93.795125 183.352325 
z
" clip-path="url(#p5030339c16)" style="fill: #ffffff; stroke: #000000; stroke-width: 0.4"/>
   </g>
   <g id="PathCollection_49">
    <path d="M 113.035566 157.785093 
L 110.535566 162.785093 
L 115.535566 162.785093 
z
" clip-path="url(#p5030339c16)" style="fill: #ffffff; stroke: #000000; stroke-width: 0.4"/>
    <path d="M 112.916038 158.197867 
L 110.416038 163.197867 
L 115.416038 163.197867 
z
" clip-path="url(#p5030339c16)" style="fill: #ffffff; stroke: #000000; stroke-width: 0.4"/>
    <path d="M 113.560502 163.320491 
L 111.060502 168.320491 
L 116.060502 168.320491 
z
" clip-path="url(#p5030339c16)" style="fill: #ffffff; stroke: #000000; stroke-width: 0.4"/>
    <path d="M 114.585411 158.785275 
L 112.085411 163.785275 
L 117.085411 163.785275 
z
" clip-path="url(#p5030339c16)" style="fill: #ffffff; stroke: #000000; stroke-width: 0.4"/>
   </g>
   <g id="PathCollection_50">
    <path d="M 123.989091 149.145957 
L 121.489091 154.145957 
L 126.489091 154.145957 
z
" clip-path="url(#p5030339c16)" style="fill: #ffffff; stroke: #000000; stroke-width: 0.4"/>
    <path d="M 124.419025 149.206814 
L 121.919025 154.206814 
L 126.919025 154.206814 
z
" clip-path="url(#p5030339c16)" style="fill: #ffffff; stroke: #000000; stroke-width: 0.4"/>
    <path d="M 124.09746 152.829166 
L 121.59746 157.829166 
L 126.59746 157.829166 
z
" clip-path="url(#p5030339c16)" style="fill: #ffffff; stroke: #000000; stroke-width: 0.4"/>
    <path d="M 125.241501 149.029533 
L 122.741501 154.029533 
L 127.741501 154.029533 
z
" clip-path="url(#p5030339c16)" style="fill: #ffffff; stroke: #000000; stroke-width: 0.4"/>
   </g>
   <g id="PathCollection_51">
    <path d="M 134.543005 134.02416 
L 132.043005 139.02416 
L 137.043005 139.02416 
z
" clip-path="url(#p5030339c16)" style="fill: #ffffff; stroke: #000000; stroke-width: 0.4"/>
    <path d="M 136.826061 149.733365 
L 134.326061 154.733365 
L 139.326061 154.733365 
z
" clip-path="url(#p5030339c16)" style="fill: #ffffff; stroke: #000000; stroke-width: 0.4"/>
    <path d="M 134.520221 134.01093 
L 132.020221 139.01093 
L 137.020221 139.01093 
z
" clip-path="url(#p5030339c16)" style="fill: #ffffff; stroke: #000000; stroke-width: 0.4"/>
    <path d="M 136.842165 134.053265 
L 134.342165 139.053265 
L 139.342165 139.053265 
z
" clip-path="url(#p5030339c16)" style="fill: #ffffff; stroke: #000000; stroke-width: 0.4"/>
   </g>
   <g id="PathCollection_52">
    <path d="M 146.755382 172.36711 
L 144.255382 177.36711 
L 149.255382 177.36711 
z
" clip-path="url(#p5030339c16)" style="fill: #ffffff; stroke: #000000; stroke-width: 0.4"/>
    <path d="M 147.361913 169.292477 
L 144.861913 174.292477 
L 149.861913 174.292477 
z
" clip-path="url(#p5030339c16)" style="fill: #ffffff; stroke: #000000; stroke-width: 0.4"/>
    <path d="M 147.607659 175.489371 
L 145.107659 180.489371 
L 150.107659 180.489371 
z
" clip-path="url(#p5030339c16)" style="fill: #ffffff; stroke: #000000; stroke-width: 0.4"/>
    <path d="M 146.296083 174.425685 
L 143.796083 179.425685 
L 148.796083 179.425685 
z
" clip-path="url(#p5030339c16)" style="fill: #ffffff; stroke: #000000; stroke-width: 0.4"/>
   </g>
   <g id="PathCollection_53">
    <path d="M 0 217.974063 
L -1 219.974063 
M 1.75 221.474063 
L 0 217.974063 
" clip-path="url(#p5030339c16)" style="fill: none; stroke: #000000; stroke-width: 0.4"/>
   </g>
   <g id="PathCollection_54">
    <path d="M 0 217.974063 
L -1 219.974063 
M 1.75 221.474063 
L 0 217.974063 
" clip-path="url(#p5030339c16)" style="fill: none; stroke: #000000; stroke-width: 0.4"/>
   </g>
   <g id="PathCollection_55">
    <path d="M 0 217.974063 
L -1 219.974063 
M 1.75 221.474063 
L 0 217.974063 
" clip-path="url(#p5030339c16)" style="fill: none; stroke: #000000; stroke-width: 0.4"/>
   </g>
   <g id="PathCollection_56">
    <path d="M 0 217.974063 
L -1 219.974063 
M 1.75 221.474063 
L 0 217.974063 
" clip-path="url(#p5030339c16)" style="fill: none; stroke: #000000; stroke-width: 0.4"/>
   </g>
   <g id="PathCollection_57">
    <path d="M 60.034105 163.529569 
L 63.569639 159.994035 
L 60.034105 156.458501 
L 56.498571 159.994035 
z
" clip-path="url(#p5030339c16)" style="fill: #ffffff; stroke: #000000; stroke-width: 0.4"/>
    <path d="M 59.0888 171.877648 
L 62.624334 168.342114 
L 59.0888 164.80658 
L 55.553266 168.342114 
z
" clip-path="url(#p5030339c16)" style="fill: #ffffff; stroke: #000000; stroke-width: 0.4"/>
    <path d="M 59.801612 171.261134 
L 63.337146 167.7256 
L 59.801612 164.190066 
L 56.266079 167.7256 
z
" clip-path="url(#p5030339c16)" style="fill: #ffffff; stroke: #000000; stroke-width: 0.4"/>
   </g>
   <g id="PathCollection_58">
    <path d="M 69.190796 151.032588 
L 72.72633 147.497054 
L 69.190796 143.96152 
L 65.655262 147.497054 
z
" clip-path="url(#p5030339c16)" style="fill: #ffffff; stroke: #000000; stroke-width: 0.4"/>
    <path d="M 69.248652 147.082134 
L 72.784186 143.5466 
L 69.248652 140.011067 
L 65.713118 143.5466 
z
" clip-path="url(#p5030339c16)" style="fill: #ffffff; stroke: #000000; stroke-width: 0.4"/>
    <path d="M 71.208694 157.880394 
L 74.744228 154.34486 
L 71.208694 150.809326 
L 67.67316 154.34486 
z
" clip-path="url(#p5030339c16)" style="fill: #ffffff; stroke: #000000; stroke-width: 0.4"/>
   </g>
   <g id="PathCollection_59">
    <path d="M 81.607527 147.693357 
L 85.143061 144.157823 
L 81.607527 140.622289 
L 78.071993 144.157823 
z
" clip-path="url(#p5030339c16)" style="fill: #ffffff; stroke: #000000; stroke-width: 0.4"/>
    <path d="M 82.530975 155.488425 
L 86.066509 151.952891 
L 82.530975 148.417357 
L 78.995441 151.952891 
z
" clip-path="url(#p5030339c16)" style="fill: #ffffff; stroke: #000000; stroke-width: 0.4"/>
    <path d="M 80.438098 145.4575 
L 83.973632 141.921966 
L 80.438098 138.386433 
L 76.902564 141.921966 
z
" clip-path="url(#p5030339c16)" style="fill: #ffffff; stroke: #000000; stroke-width: 0.4"/>
   </g>
   <g id="PathCollection_60">
    <path d="M 2.535534 221.474063 
L 3.535534 220.474063 
L 0 216.938529 
L -1 217.938529 
" clip-path="url(#p5030339c16)" style="fill: none; stroke: #000000; stroke-width: 0.4"/>
   </g>
   <g id="PathCollection_61">
    <path d="M 113.124159 129.967912 
L 116.659693 126.432378 
L 113.124159 122.896844 
L 109.588625 126.432378 
z
" clip-path="url(#p5030339c16)" style="fill: #ffffff; stroke: #000000; stroke-width: 0.4"/>
    <path d="M 113.921991 105.661905 
L 117.457525 102.126371 
L 113.921991 98.590837 
L 110.386457 102.126371 
z
" clip-path="url(#p5030339c16)" style="fill: #ffffff; stroke: #000000; stroke-width: 0.4"/>
    <path d="M 112.498762 138.654676 
L 116.034295 135.119142 
L 112.498762 131.583608 
L 108.963228 135.119142 
z
" clip-path="url(#p5030339c16)" style="fill: #ffffff; stroke: #000000; stroke-width: 0.4"/>
   </g>
   <g id="PathCollection_62">
    <path d="M 124.36982 101.520941 
L 127.905354 97.985407 
L 124.36982 94.449873 
L 120.834286 97.985407 
z
" clip-path="url(#p5030339c16)" style="fill: #ffffff; stroke: #000000; stroke-width: 0.4"/>
    <path d="M 124.994796 85.348688 
L 128.53033 81.813154 
L 124.994796 78.27762 
L 121.459262 81.813154 
z
" clip-path="url(#p5030339c16)" style="fill: #ffffff; stroke: #000000; stroke-width: 0.4"/>
    <path d="M 125.878542 96.633809 
L 129.414076 93.098275 
L 125.878542 89.562741 
L 122.343008 93.098275 
z
" clip-path="url(#p5030339c16)" style="fill: #ffffff; stroke: #000000; stroke-width: 0.4"/>
   </g>
   <g id="PathCollection_63">
    <path d="M 136.843996 131.915356 
L 140.37953 128.379822 
L 136.843996 124.844288 
L 133.308462 128.379822 
z
" clip-path="url(#p5030339c16)" style="fill: #ffffff; stroke: #000000; stroke-width: 0.4"/>
    <path d="M 136.036757 115.952136 
L 139.572291 112.416602 
L 136.036757 108.881068 
L 132.501223 112.416602 
z
" clip-path="url(#p5030339c16)" style="fill: #ffffff; stroke: #000000; stroke-width: 0.4"/>
    <path d="M 134.26378 123.810707 
L 137.799314 120.275174 
L 134.26378 116.73964 
L 130.728246 120.275174 
z
" clip-path="url(#p5030339c16)" style="fill: #ffffff; stroke: #000000; stroke-width: 0.4"/>
   </g>
   <g id="PathCollection_64">
    <path d="M 2.535534 221.474063 
L 3.535534 220.474063 
L 0 216.938529 
L -1 217.938529 
" clip-path="url(#p5030339c16)" style="fill: none; stroke: #000000; stroke-width: 0.4"/>
   </g>
   <g id="PathCollection_65">
    <path d="M 2.535534 221.474063 
L 3.535534 220.474063 
L 0 216.938529 
L -1 217.938529 
" clip-path="url(#p5030339c16)" style="fill: none; stroke: #000000; stroke-width: 0.4"/>
   </g>
   <g id="PathCollection_66">
    <path d="M 2.535534 221.474063 
L 3.535534 220.474063 
L 0 216.938529 
L -1 217.938529 
" clip-path="url(#p5030339c16)" style="fill: none; stroke: #000000; stroke-width: 0.4"/>
   </g>
   <g id="PathCollection_67">
    <path d="M 2.535534 221.474063 
L 3.535534 220.474063 
L 0 216.938529 
L -1 217.938529 
" clip-path="url(#p5030339c16)" style="fill: none; stroke: #000000; stroke-width: 0.4"/>
   </g>
   <g id="PathCollection_68">
    <path d="M 2.535534 221.474063 
L 3.535534 220.474063 
L 0 216.938529 
L -1 217.938529 
" clip-path="url(#p5030339c16)" style="fill: none; stroke: #000000; stroke-width: 0.4"/>
   </g>
   <g id="PathCollection_69">
    <defs>
     <path id="Cc_0_831ff0d0a9" d="M -0.833333 2.5 
L 0.833333 2.5 
L 0.833333 0.833333 
L 2.5 0.833333 
L 2.5 -0.833333 
L 0.833333 -0.833333 
L 0.833333 -2.5 
L -0.833333 -2.5 
L -0.833333 -0.833333 
L -2.5 -0.833333 
L -2.5 0.833333 
L -0.833333 0.833333 
z
"/>
    </defs>
    <g clip-path="url(#p5030339c16)">
     <use xlink:href="#Cc_0_831ff0d0a9" x="59.517387" y="173.49649" style="fill: #ffffff; stroke: #000000; stroke-width: 0.4"/>
    </g>
    <g clip-path="url(#p5030339c16)">
     <use xlink:href="#Cc_0_831ff0d0a9" x="59.76621" y="175.282529" style="fill: #ffffff; stroke: #000000; stroke-width: 0.4"/>
    </g>
    <g clip-path="url(#p5030339c16)">
     <use xlink:href="#Cc_0_831ff0d0a9" x="58.81276" y="173.390651" style="fill: #ffffff; stroke: #000000; stroke-width: 0.4"/>
    </g>
   </g>
   <g id="PathCollection_70">
    <defs>
     <path id="Cd_0_95c6534dd6" d="M -0.833333 2.5 
L 0.833333 2.5 
L 0.833333 0.833333 
L 2.5 0.833333 
L 2.5 -0.833333 
L 0.833333 -0.833333 
L 0.833333 -2.5 
L -0.833333 -2.5 
L -0.833333 -0.833333 
L -2.5 -0.833333 
L -2.5 0.833333 
L -0.833333 0.833333 
z
"/>
    </defs>
    <g clip-path="url(#p5030339c16)">
     <use xlink:href="#Cd_0_95c6534dd6" x="69.948243" y="165.013466" style="fill: #ffffff; stroke: #000000; stroke-width: 0.4"/>
    </g>
    <g clip-path="url(#p5030339c16)">
     <use xlink:href="#Cd_0_95c6534dd6" x="69.144818" y="163.552883" style="fill: #ffffff; stroke: #000000; stroke-width: 0.4"/>
    </g>
    <g clip-path="url(#p5030339c16)">
     <use xlink:href="#Cd_0_95c6534dd6" x="70.079324" y="166.074506" style="fill: #ffffff; stroke: #000000; stroke-width: 0.4"/>
    </g>
   </g>
   <g id="PathCollection_71">
    <defs>
     <path id="Ce_0_1527b5a167" d="M -0.833333 2.5 
L 0.833333 2.5 
L 0.833333 0.833333 
L 2.5 0.833333 
L 2.5 -0.833333 
L 0.833333 -0.833333 
L 0.833333 -2.5 
L -0.833333 -2.5 
L -0.833333 -0.833333 
L -2.5 -0.833333 
L -2.5 0.833333 
L -0.833333 0.833333 
z
"/>
    </defs>
    <g clip-path="url(#p5030339c16)">
     <use xlink:href="#Ce_0_1527b5a167" x="80.16172" y="155.281538" style="fill: #ffffff; stroke: #000000; stroke-width: 0.4"/>
    </g>
    <g clip-path="url(#p5030339c16)">
     <use xlink:href="#Ce_0_1527b5a167" x="81.259206" y="150.579625" style="fill: #ffffff; stroke: #000000; stroke-width: 0.4"/>
    </g>
    <g clip-path="url(#p5030339c16)">
     <use xlink:href="#Ce_0_1527b5a167" x="80.496002" y="164.80708" style="fill: #ffffff; stroke: #000000; stroke-width: 0.4"/>
    </g>
   </g>
   <g id="PathCollection_72">
    <defs>
     <path id="Cf_0_2ece17784d" d="M -0.833333 2.5 
L 0.833333 2.5 
L 0.833333 0.833333 
L 2.5 0.833333 
L 2.5 -0.833333 
L 0.833333 -0.833333 
L 0.833333 -2.5 
L -0.833333 -2.5 
L -0.833333 -0.833333 
L -2.5 -0.833333 
L -2.5 0.833333 
L -0.833333 0.833333 
z
"/>
    </defs>
    <g clip-path="url(#p5030339c16)">
     <use xlink:href="#Cf_0_2ece17784d" x="91.57089" y="153.431996" style="fill: #ffffff; stroke: #000000; stroke-width: 0.4"/>
    </g>
    <g clip-path="url(#p5030339c16)">
     <use xlink:href="#Cf_0_2ece17784d" x="93.080582" y="161.22971" style="fill: #ffffff; stroke: #000000; stroke-width: 0.4"/>
    </g>
    <g clip-path="url(#p5030339c16)">
     <use xlink:href="#Cf_0_2ece17784d" x="93.111151" y="175.346033" style="fill: #ffffff; stroke: #000000; stroke-width: 0.4"/>
    </g>
   </g>
   <g id="PathCollection_73">
    <defs>
     <path id="C10_0_7e7a76a113" d="M -0.833333 2.5 
L 0.833333 2.5 
L 0.833333 0.833333 
L 2.5 0.833333 
L 2.5 -0.833333 
L 0.833333 -0.833333 
L 0.833333 -2.5 
L -0.833333 -2.5 
L -0.833333 -0.833333 
L -2.5 -0.833333 
L -2.5 0.833333 
L -0.833333 0.833333 
z
"/>
    </defs>
    <g clip-path="url(#p5030339c16)">
     <use xlink:href="#C10_0_7e7a76a113" x="113.778183" y="153.839477" style="fill: #ffffff; stroke: #000000; stroke-width: 0.4"/>
    </g>
    <g clip-path="url(#p5030339c16)">
     <use xlink:href="#C10_0_7e7a76a113" x="114.15699" y="169.310544" style="fill: #ffffff; stroke: #000000; stroke-width: 0.4"/>
    </g>
    <g clip-path="url(#p5030339c16)">
     <use xlink:href="#C10_0_7e7a76a113" x="115.063901" y="169.310544" style="fill: #ffffff; stroke: #000000; stroke-width: 0.4"/>
    </g>
   </g>
   <g id="PathCollection_74">
    <defs>
     <path id="C11_0_f05a6c43e0" d="M -0.833333 2.5 
L 0.833333 2.5 
L 0.833333 0.833333 
L 2.5 0.833333 
L 2.5 -0.833333 
L 0.833333 -0.833333 
L 0.833333 -2.5 
L -0.833333 -2.5 
L -0.833333 -0.833333 
L -2.5 -0.833333 
L -2.5 0.833333 
L -0.833333 0.833333 
z
"/>
    </defs>
    <g clip-path="url(#p5030339c16)">
     <use xlink:href="#C11_0_f05a6c43e0" x="124.113299" y="127.019786" style="fill: #ffffff; stroke: #000000; stroke-width: 0.4"/>
    </g>
    <g clip-path="url(#p5030339c16)">
     <use xlink:href="#C11_0_f05a6c43e0" x="125.385144" y="119.367601" style="fill: #ffffff; stroke: #000000; stroke-width: 0.4"/>
    </g>
    <g clip-path="url(#p5030339c16)">
     <use xlink:href="#C11_0_f05a6c43e0" x="123.715518" y="134.722245" style="fill: #ffffff; stroke: #000000; stroke-width: 0.4"/>
    </g>
   </g>
   <g id="PathCollection_75">
    <defs>
     <path id="C12_0_69a647a1fa" d="M -0.833333 2.5 
L 0.833333 2.5 
L 0.833333 0.833333 
L 2.5 0.833333 
L 2.5 -0.833333 
L 0.833333 -0.833333 
L 0.833333 -2.5 
L -0.833333 -2.5 
L -0.833333 -0.833333 
L -2.5 -0.833333 
L -2.5 0.833333 
L -0.833333 0.833333 
z
"/>
    </defs>
    <g clip-path="url(#p5030339c16)">
     <use xlink:href="#C12_0_69a647a1fa" x="135.579553" y="129.641956" style="fill: #ffffff; stroke: #000000; stroke-width: 0.4"/>
    </g>
    <g clip-path="url(#p5030339c16)">
     <use xlink:href="#C12_0_69a647a1fa" x="135.3095" y="129.012212" style="fill: #ffffff; stroke: #000000; stroke-width: 0.4"/>
    </g>
    <g clip-path="url(#p5030339c16)">
     <use xlink:href="#C12_0_69a647a1fa" x="136.538661" y="88.195267" style="fill: #ffffff; stroke: #000000; stroke-width: 0.4"/>
    </g>
   </g>
   <g id="PathCollection_76">
    <defs>
     <path id="C13_0_eabe94b396" d="M -0.833333 2.5 
L 0.833333 2.5 
L 0.833333 0.833333 
L 2.5 0.833333 
L 2.5 -0.833333 
L 0.833333 -0.833333 
L 0.833333 -2.5 
L -0.833333 -2.5 
L -0.833333 -0.833333 
L -2.5 -0.833333 
L -2.5 0.833333 
L -0.833333 0.833333 
z
"/>
    </defs>
    <g clip-path="url(#p5030339c16)">
     <use xlink:href="#C13_0_eabe94b396" x="147.465043" y="102.856663" style="fill: #ffffff; stroke: #000000; stroke-width: 0.4"/>
    </g>
    <g clip-path="url(#p5030339c16)">
     <use xlink:href="#C13_0_eabe94b396" x="145.506916" y="104.86761" style="fill: #ffffff; stroke: #000000; stroke-width: 0.4"/>
    </g>
    <g clip-path="url(#p5030339c16)">
     <use xlink:href="#C13_0_eabe94b396" x="147.683292" y="151.005629" style="fill: #ffffff; stroke: #000000; stroke-width: 0.4"/>
    </g>
   </g>
   <g id="PathCollection_77">
    <defs>
     <path id="C14_0_14c5ec62e9" d="M -0.833333 2.5 
L 0.833333 2.5 
L 0.833333 0.833333 
L 2.5 0.833333 
L 2.5 -0.833333 
L 0.833333 -0.833333 
L 0.833333 -2.5 
L -0.833333 -2.5 
L -0.833333 -0.833333 
L -2.5 -0.833333 
L -2.5 0.833333 
L -0.833333 0.833333 
z
"/>
    </defs>
    <g clip-path="url(#p5030339c16)">
     <use xlink:href="#C14_0_14c5ec62e9" x="167.697979" y="184.855698" style="fill: #ffffff; stroke: #000000; stroke-width: 0.4"/>
    </g>
    <g clip-path="url(#p5030339c16)">
     <use xlink:href="#C14_0_14c5ec62e9" x="168.962019" y="184.231246" style="fill: #ffffff; stroke: #000000; stroke-width: 0.4"/>
    </g>
    <g clip-path="url(#p5030339c16)">
     <use xlink:href="#C14_0_14c5ec62e9" x="169.055383" y="184.741921" style="fill: #ffffff; stroke: #000000; stroke-width: 0.4"/>
    </g>
   </g>
   <g id="PathCollection_78">
    <defs>
     <path id="C15_0_fd70607f4b" d="M -0.833333 2.5 
L 0.833333 2.5 
L 0.833333 0.833333 
L 2.5 0.833333 
L 2.5 -0.833333 
L 0.833333 -0.833333 
L 0.833333 -2.5 
L -0.833333 -2.5 
L -0.833333 -0.833333 
L -2.5 -0.833333 
L -2.5 0.833333 
L -0.833333 0.833333 
z
"/>
    </defs>
    <g clip-path="url(#p5030339c16)">
     <use xlink:href="#C15_0_fd70607f4b" x="178.722669" y="184.493199" style="fill: #ffffff; stroke: #000000; stroke-width: 0.4"/>
    </g>
    <g clip-path="url(#p5030339c16)">
     <use xlink:href="#C15_0_fd70607f4b" x="180.032265" y="184.284166" style="fill: #ffffff; stroke: #000000; stroke-width: 0.4"/>
    </g>
    <g clip-path="url(#p5030339c16)">
     <use xlink:href="#C15_0_fd70607f4b" x="177.698985" y="183.926958" style="fill: #ffffff; stroke: #000000; stroke-width: 0.4"/>
    </g>
   </g>
   <g id="PathCollection_79">
    <defs>
     <path id="C16_0_d33a76229d" d="M -0.833333 2.5 
L 0.833333 2.5 
L 0.833333 0.833333 
L 2.5 0.833333 
L 2.5 -0.833333 
L 0.833333 -0.833333 
L 0.833333 -2.5 
L -0.833333 -2.5 
L -0.833333 -0.833333 
L -2.5 -0.833333 
L -2.5 0.833333 
L -0.833333 0.833333 
z
"/>
    </defs>
    <g clip-path="url(#p5030339c16)">
     <use xlink:href="#C16_0_d33a76229d" x="189.456054" y="184.789549" style="fill: #ffffff; stroke: #000000; stroke-width: 0.4"/>
    </g>
    <g clip-path="url(#p5030339c16)">
     <use xlink:href="#C16_0_d33a76229d" x="189.050879" y="185.027687" style="fill: #ffffff; stroke: #000000; stroke-width: 0.4"/>
    </g>
    <g clip-path="url(#p5030339c16)">
     <use xlink:href="#C16_0_d33a76229d" x="189.095642" y="185.054147" style="fill: #ffffff; stroke: #000000; stroke-width: 0.4"/>
    </g>
   </g>
   <g id="PathCollection_80">
    <defs>
     <path id="C17_0_78104adf84" d="M -0.833333 2.5 
L 0.833333 2.5 
L 0.833333 0.833333 
L 2.5 0.833333 
L 2.5 -0.833333 
L 0.833333 -0.833333 
L 0.833333 -2.5 
L -0.833333 -2.5 
L -0.833333 -0.833333 
L -2.5 -0.833333 
L -2.5 0.833333 
L -0.833333 0.833333 
z
"/>
    </defs>
    <g clip-path="url(#p5030339c16)">
     <use xlink:href="#C17_0_78104adf84" x="200.133092" y="185.136173" style="fill: #ffffff; stroke: #000000; stroke-width: 0.4"/>
    </g>
    <g clip-path="url(#p5030339c16)">
     <use xlink:href="#C17_0_78104adf84" x="199.924889" y="185.347851" style="fill: #ffffff; stroke: #000000; stroke-width: 0.4"/>
    </g>
    <g clip-path="url(#p5030339c16)">
     <use xlink:href="#C17_0_78104adf84" x="200.328955" y="185.379603" style="fill: #ffffff; stroke: #000000; stroke-width: 0.4"/>
    </g>
   </g>
   <g id="text_12">
    <!-- * -->
    <g transform="translate(84.113231 79.685859)scale(0.1 -0.1)">
     <defs>
      <path id="DejaVuSans-2a" d="M 3009 3897 
L 1888 3291 
L 3009 2681 
L 2828 2375 
L 1778 3009 
L 1778 1831 
L 1422 1831 
L 1422 3009 
L 372 2375 
L 191 2681 
L 1313 3291 
L 191 3897 
L 372 4206 
L 1422 3572 
L 1422 4750 
L 1778 4750 
L 1778 3572 
L 2828 4206 
L 3009 3897 
z
" transform="scale(0.015625)"/>
     </defs>
     <use xlink:href="#DejaVuSans-2a"/>
    </g>
   </g>
   <g id="text_13">
    <!-- ** -->
    <g transform="translate(157.70414 54.694543)scale(0.1 -0.1)">
     <use xlink:href="#DejaVuSans-2a"/>
     <use xlink:href="#DejaVuSans-2a" x="50"/>
    </g>
   </g>
   <g id="text_14">
    <!-- ns -->
    <g transform="translate(102.580053 34.363685)scale(0.1 -0.1)">
     <defs>
      <path id="DejaVuSans-73" d="M 2834 3397 
L 2834 2853 
Q 2591 2978 2328 3040 
Q 2066 3103 1784 3103 
Q 1356 3103 1142 2972 
Q 928 2841 928 2578 
Q 928 2378 1081 2264 
Q 1234 2150 1697 2047 
L 1894 2003 
Q 2506 1872 2764 1633 
Q 3022 1394 3022 966 
Q 3022 478 2636 193 
Q 2250 -91 1575 -91 
Q 1294 -91 989 -36 
Q 684 19 347 128 
L 347 722 
Q 666 556 975 473 
Q 1284 391 1588 391 
Q 1994 391 2212 530 
Q 2431 669 2431 922 
Q 2431 1156 2273 1281 
Q 2116 1406 1581 1522 
L 1381 1569 
Q 847 1681 609 1914 
Q 372 2147 372 2553 
Q 372 3047 722 3315 
Q 1072 3584 1716 3584 
Q 2034 3584 2315 3537 
Q 2597 3491 2834 3397 
z
" transform="scale(0.015625)"/>
     </defs>
     <use xlink:href="#DejaVuSans-6e"/>
     <use xlink:href="#DejaVuSans-73" x="63.378906"/>
    </g>
   </g>
   <g id="text_15">
    <!-- 14 dpi, + DDRR -->
    <g transform="translate(82.940313 16.318125)scale(0.12 -0.12)">
     <defs>
      <path id="DejaVuSans-64" d="M 2906 2969 
L 2906 4863 
L 3481 4863 
L 3481 0 
L 2906 0 
L 2906 525 
Q 2725 213 2448 61 
Q 2172 -91 1784 -91 
Q 1150 -91 751 415 
Q 353 922 353 1747 
Q 353 2572 751 3078 
Q 1150 3584 1784 3584 
Q 2172 3584 2448 3432 
Q 2725 3281 2906 2969 
z
M 947 1747 
Q 947 1113 1208 752 
Q 1469 391 1925 391 
Q 2381 391 2643 752 
Q 2906 1113 2906 1747 
Q 2906 2381 2643 2742 
Q 2381 3103 1925 3103 
Q 1469 3103 1208 2742 
Q 947 2381 947 1747 
z
" transform="scale(0.015625)"/>
      <path id="DejaVuSans-70" d="M 1159 525 
L 1159 -1331 
L 581 -1331 
L 581 3500 
L 1159 3500 
L 1159 2969 
Q 1341 3281 1617 3432 
Q 1894 3584 2278 3584 
Q 2916 3584 3314 3078 
Q 3713 2572 3713 1747 
Q 3713 922 3314 415 
Q 2916 -91 2278 -91 
Q 1894 -91 1617 61 
Q 1341 213 1159 525 
z
M 3116 1747 
Q 3116 2381 2855 2742 
Q 2594 3103 2138 3103 
Q 1681 3103 1420 2742 
Q 1159 2381 1159 1747 
Q 1159 1113 1420 752 
Q 1681 391 2138 391 
Q 2594 391 2855 752 
Q 3116 1113 3116 1747 
z
" transform="scale(0.015625)"/>
      <path id="DejaVuSans-2c" d="M 750 794 
L 1409 794 
L 1409 256 
L 897 -744 
L 494 -744 
L 750 256 
L 750 794 
z
" transform="scale(0.015625)"/>
      <path id="DejaVuSans-44" d="M 1259 4147 
L 1259 519 
L 2022 519 
Q 2988 519 3436 956 
Q 3884 1394 3884 2338 
Q 3884 3275 3436 3711 
Q 2988 4147 2022 4147 
L 1259 4147 
z
M 628 4666 
L 1925 4666 
Q 3281 4666 3915 4102 
Q 4550 3538 4550 2338 
Q 4550 1131 3912 565 
Q 3275 0 1925 0 
L 628 0 
L 628 4666 
z
" transform="scale(0.015625)"/>
      <path id="DejaVuSans-52" d="M 2841 2188 
Q 3044 2119 3236 1894 
Q 3428 1669 3622 1275 
L 4263 0 
L 3584 0 
L 2988 1197 
Q 2756 1666 2539 1819 
Q 2322 1972 1947 1972 
L 1259 1972 
L 1259 0 
L 628 0 
L 628 4666 
L 2053 4666 
Q 2853 4666 3247 4331 
Q 3641 3997 3641 3322 
Q 3641 2881 3436 2590 
Q 3231 2300 2841 2188 
z
M 1259 4147 
L 1259 2491 
L 2053 2491 
Q 2509 2491 2742 2702 
Q 2975 2913 2975 3322 
Q 2975 3731 2742 3939 
Q 2509 4147 2053 4147 
L 1259 4147 
z
" transform="scale(0.015625)"/>
     </defs>
     <use xlink:href="#DejaVuSans-31"/>
     <use xlink:href="#DejaVuSans-34" x="63.623047"/>
     <use xlink:href="#DejaVuSans-20" x="127.246094"/>
     <use xlink:href="#DejaVuSans-64" x="159.033203"/>
     <use xlink:href="#DejaVuSans-70" x="222.509766"/>
     <use xlink:href="#DejaVuSans-69" x="285.986328"/>
     <use xlink:href="#DejaVuSans-2c" x="313.769531"/>
     <use xlink:href="#DejaVuSans-20" x="345.556641"/>
     <use xlink:href="#DejaVuSans-2b" x="377.34375"/>
     <use xlink:href="#DejaVuSans-20" x="461.132812"/>
     <use xlink:href="#DejaVuSans-44" x="492.919922"/>
     <use xlink:href="#DejaVuSans-44" x="569.921875"/>
     <use xlink:href="#DejaVuSans-52" x="646.923828"/>
     <use xlink:href="#DejaVuSans-52" x="716.40625"/>
    </g>
   </g>
   <g id="legend_1">
    <g id="text_16">
     <!-- Init. seed -->
     <g transform="translate(227.71875 38.916562)scale(0.1 -0.1)">
      <defs>
       <path id="DejaVuSans-2e" d="M 684 794 
L 1344 794 
L 1344 0 
L 684 0 
L 684 794 
z
" transform="scale(0.015625)"/>
       <path id="DejaVuSans-65" d="M 3597 1894 
L 3597 1613 
L 953 1613 
Q 991 1019 1311 708 
Q 1631 397 2203 397 
Q 2534 397 2845 478 
Q 3156 559 3463 722 
L 3463 178 
Q 3153 47 2828 -22 
Q 2503 -91 2169 -91 
Q 1331 -91 842 396 
Q 353 884 353 1716 
Q 353 2575 817 3079 
Q 1281 3584 2069 3584 
Q 2775 3584 3186 3129 
Q 3597 2675 3597 1894 
z
M 3022 2063 
Q 3016 2534 2758 2815 
Q 2500 3097 2075 3097 
Q 1594 3097 1305 2825 
Q 1016 2553 972 2059 
L 3022 2063 
z
" transform="scale(0.015625)"/>
      </defs>
      <use xlink:href="#DejaVuSans-49"/>
      <use xlink:href="#DejaVuSans-6e" x="29.492188"/>
      <use xlink:href="#DejaVuSans-69" x="92.871094"/>
      <use xlink:href="#DejaVuSans-74" x="120.654297"/>
      <use xlink:href="#DejaVuSans-2e" x="159.863281"/>
      <use xlink:href="#DejaVuSans-20" x="191.650391"/>
      <use xlink:href="#DejaVuSans-73" x="223.4375"/>
      <use xlink:href="#DejaVuSans-65" x="275.537109"/>
      <use xlink:href="#DejaVuSans-65" x="337.060547"/>
      <use xlink:href="#DejaVuSans-64" x="398.583984"/>
     </g>
    </g>
    <g id="patch_19">
     <path d="M 222.79375 53.594687 
L 242.79375 53.594687 
L 242.79375 46.594687 
L 222.79375 46.594687 
z
" style="fill: #4a4c7e"/>
    </g>
    <g id="text_17">
     <!-- 10k -->
     <g transform="translate(250.79375 53.594687)scale(0.1 -0.1)">
      <use xlink:href="#DejaVuSans-31"/>
      <use xlink:href="#DejaVuSans-30" x="63.623047"/>
      <use xlink:href="#DejaVuSans-6b" x="127.246094"/>
     </g>
    </g>
    <g id="patch_20">
     <path d="M 222.79375 68.272812 
L 242.79375 68.272812 
L 242.79375 61.272812 
L 222.79375 61.272812 
z
" style="fill: #367182"/>
    </g>
    <g id="text_18">
     <!-- 5k -->
     <g transform="translate(250.79375 68.272812)scale(0.1 -0.1)">
      <use xlink:href="#DejaVuSans-35"/>
      <use xlink:href="#DejaVuSans-6b" x="63.623047"/>
     </g>
    </g>
    <g id="patch_21">
     <path d="M 222.79375 82.950938 
L 242.79375 82.950938 
L 242.79375 75.950938 
L 222.79375 75.950938 
z
" style="fill: #33977c"/>
    </g>
    <g id="text_19">
     <!-- 2.5k -->
     <g transform="translate(250.79375 82.950938)scale(0.1 -0.1)">
      <use xlink:href="#DejaVuSans-32"/>
      <use xlink:href="#DejaVuSans-2e" x="63.623047"/>
      <use xlink:href="#DejaVuSans-35" x="95.410156"/>
      <use xlink:href="#DejaVuSans-6b" x="159.033203"/>
     </g>
    </g>
    <g id="patch_22">
     <path d="M 222.79375 97.629063 
L 242.79375 97.629063 
L 242.79375 90.629063 
L 222.79375 90.629063 
z
" style="fill: #80c161"/>
    </g>
    <g id="text_20">
     <!-- 1.25k -->
     <g transform="translate(250.79375 97.629063)scale(0.1 -0.1)">
      <use xlink:href="#DejaVuSans-31"/>
      <use xlink:href="#DejaVuSans-2e" x="63.623047"/>
      <use xlink:href="#DejaVuSans-32" x="95.410156"/>
      <use xlink:href="#DejaVuSans-35" x="159.033203"/>
      <use xlink:href="#DejaVuSans-6b" x="222.65625"/>
     </g>
    </g>
   </g>
  </g>
 </g>
 <defs>
  <clipPath id="p5030339c16">
   <rect x="46.39375" y="22.318125" width="167.4" height="163.08"/>
  </clipPath>
 </defs>
</svg>
