<?xml version="1.0" encoding="utf-8" standalone="no"?>
<!DOCTYPE svg PUBLIC "-//W3C//DTD SVG 1.1//EN"
  "http://www.w3.org/Graphics/SVG/1.1/DTD/svg11.dtd">
<svg xmlns:xlink="http://www.w3.org/1999/xlink" width="308.182188pt" height="220.474063pt" viewBox="0 0 308.182188 220.474063" xmlns="http://www.w3.org/2000/svg" version="1.1">
 <metadata>
  <rdf:RDF xmlns:dc="http://purl.org/dc/elements/1.1/" xmlns:cc="http://creativecommons.org/ns#" xmlns:rdf="http://www.w3.org/1999/02/22-rdf-syntax-ns#">
   <cc:Work>
    <dc:type rdf:resource="http://purl.org/dc/dcmitype/StillImage"/>
    <dc:date>2025-01-27T15:17:12.093998</dc:date>
    <dc:format>image/svg+xml</dc:format>
    <dc:creator>
     <cc:Agent>
      <dc:title>Matplotlib v3.5.2, https://matplotlib.org/</dc:title>
     </cc:Agent>
    </dc:creator>
   </cc:Work>
  </rdf:RDF>
 </metadata>
 <defs>
  <style type="text/css">*{stroke-linejoin: round; stroke-linecap: butt}</style>
 </defs>
 <g id="figure_1">
  <g id="patch_1">
   <path d="M 0 220.474063 
L 308.182188 220.474063 
L 308.182188 0 
L 0 0 
L 0 220.474063 
z
" style="fill: none"/>
  </g>
  <g id="axes_1">
   <g id="patch_2">
    <path d="M 64.525937 185.398125 
L 231.925938 185.398125 
L 231.925938 22.318125 
L 64.525937 22.318125 
z
" style="fill: #ffffff"/>
   </g>
   <g id="patch_3">
    <path d="M 72.135028 185.398125 
L 83.005158 185.398125 
L 83.005158 182.975555 
L 72.135028 182.975555 
z
" clip-path="url(#pe5c4f2a3f7)" style="fill: #4a4c7e"/>
   </g>
   <g id="patch_4">
    <path d="M 126.485678 185.398125 
L 137.355808 185.398125 
L 137.355808 178.232556 
L 126.485678 178.232556 
z
" clip-path="url(#pe5c4f2a3f7)" style="fill: #4a4c7e"/>
   </g>
   <g id="patch_5">
    <path d="M 180.836327 185.398125 
L 191.706457 185.398125 
L 191.706457 183.852393 
L 180.836327 183.852393 
z
" clip-path="url(#pe5c4f2a3f7)" style="fill: #4a4c7e"/>
   </g>
   <g id="patch_6">
    <path d="M 83.005158 185.398125 
L 93.875288 185.398125 
L 93.875288 177.314083 
L 83.005158 177.314083 
z
" clip-path="url(#pe5c4f2a3f7)" style="fill: #367182"/>
   </g>
   <g id="patch_7">
    <path d="M 137.355808 185.398125 
L 148.225937 185.398125 
L 148.225937 164.552108 
L 137.355808 164.552108 
z
" clip-path="url(#pe5c4f2a3f7)" style="fill: #367182"/>
   </g>
   <g id="patch_8">
    <path d="M 191.706457 185.398125 
L 202.576587 185.398125 
L 202.576587 182.982677 
L 191.706457 182.982677 
z
" clip-path="url(#pe5c4f2a3f7)" style="fill: #367182"/>
   </g>
   <g id="patch_9">
    <path d="M 93.875288 185.398125 
L 104.745418 185.398125 
L 104.745418 155.802367 
L 93.875288 155.802367 
z
" clip-path="url(#pe5c4f2a3f7)" style="fill: #33977c"/>
   </g>
   <g id="patch_10">
    <path d="M 148.225938 185.398125 
L 159.096067 185.398125 
L 159.096067 136.669821 
L 148.225938 136.669821 
z
" clip-path="url(#pe5c4f2a3f7)" style="fill: #33977c"/>
   </g>
   <g id="patch_11">
    <path d="M 202.576587 185.398125 
L 213.446717 185.398125 
L 213.446717 179.860328 
L 202.576587 179.860328 
z
" clip-path="url(#pe5c4f2a3f7)" style="fill: #33977c"/>
   </g>
   <g id="patch_12">
    <path d="M 104.745418 185.398125 
L 115.615548 185.398125 
L 115.615548 138.292827 
L 104.745418 138.292827 
z
" clip-path="url(#pe5c4f2a3f7)" style="fill: #80c161"/>
   </g>
   <g id="patch_13">
    <path d="M 159.096067 185.398125 
L 169.966197 185.398125 
L 169.966197 125.344699 
L 159.096067 125.344699 
z
" clip-path="url(#pe5c4f2a3f7)" style="fill: #80c161"/>
   </g>
   <g id="patch_14">
    <path d="M 213.446717 185.398125 
L 224.316847 185.398125 
L 224.316847 180.297249 
L 213.446717 180.297249 
z
" clip-path="url(#pe5c4f2a3f7)" style="fill: #80c161"/>
   </g>
   <g id="PathCollection_1"/>
   <g id="PathCollection_2"/>
   <g id="PathCollection_3"/>
   <g id="PathCollection_4"/>
   <g id="PathCollection_5"/>
   <g id="PathCollection_6"/>
   <g id="PathCollection_7"/>
   <g id="PathCollection_8"/>
   <g id="PathCollection_9"/>
   <g id="PathCollection_10"/>
   <g id="PathCollection_11"/>
   <g id="PathCollection_12"/>
   <g id="PathCollection_13"/>
   <g id="PathCollection_14"/>
   <g id="PathCollection_15"/>
   <g id="PathCollection_16"/>
   <g id="PathCollection_17"/>
   <g id="PathCollection_18"/>
   <g id="PathCollection_19"/>
   <g id="PathCollection_20"/>
   <g id="matplotlib.axis_1">
    <g id="xtick_1">
     <g id="line2d_1">
      <defs>
       <path id="md19132d6c0" d="M 0 0 
L 0 3.5 
" style="stroke: #000000; stroke-width: 0.8"/>
      </defs>
      <g>
       <use xlink:href="#md19132d6c0" x="93.875288" y="185.398125" style="stroke: #000000; stroke-width: 0.8"/>
      </g>
     </g>
     <g id="text_1">
      <!-- INL -->
      <g transform="translate(85.873726 199.996563)scale(0.1 -0.1)">
       <defs>
        <path id="DejaVuSans-49" d="M 628 4666 
L 1259 4666 
L 1259 0 
L 628 0 
L 628 4666 
z
" transform="scale(0.015625)"/>
        <path id="DejaVuSans-4e" d="M 628 4666 
L 1478 4666 
L 3547 763 
L 3547 4666 
L 4159 4666 
L 4159 0 
L 3309 0 
L 1241 3903 
L 1241 0 
L 628 0 
L 628 4666 
z
" transform="scale(0.015625)"/>
        <path id="DejaVuSans-4c" d="M 628 4666 
L 1259 4666 
L 1259 531 
L 3531 531 
L 3531 0 
L 628 0 
L 628 4666 
z
" transform="scale(0.015625)"/>
       </defs>
       <use xlink:href="#DejaVuSans-49"/>
       <use xlink:href="#DejaVuSans-4e" x="29.492188"/>
       <use xlink:href="#DejaVuSans-4c" x="104.296875"/>
      </g>
     </g>
    </g>
    <g id="xtick_2">
     <g id="line2d_2">
      <g>
       <use xlink:href="#md19132d6c0" x="148.225938" y="185.398125" style="stroke: #000000; stroke-width: 0.8"/>
      </g>
     </g>
     <g id="text_2">
      <!-- LNI -->
      <g transform="translate(140.224375 199.996563)scale(0.1 -0.1)">
       <use xlink:href="#DejaVuSans-4c"/>
       <use xlink:href="#DejaVuSans-4e" x="55.712891"/>
       <use xlink:href="#DejaVuSans-49" x="130.517578"/>
      </g>
     </g>
    </g>
    <g id="xtick_3">
     <g id="line2d_3">
      <g>
       <use xlink:href="#md19132d6c0" x="202.576587" y="185.398125" style="stroke: #000000; stroke-width: 0.8"/>
      </g>
     </g>
     <g id="text_3">
      <!-- LNI -->
      <g transform="translate(194.575024 199.996563)scale(0.1 -0.1)">
       <use xlink:href="#DejaVuSans-4c"/>
       <use xlink:href="#DejaVuSans-4e" x="55.712891"/>
       <use xlink:href="#DejaVuSans-49" x="130.517578"/>
      </g>
      <!-- + Brn2 -->
      <g transform="translate(185.049243 211.194375)scale(0.1 -0.1)">
       <defs>
        <path id="DejaVuSans-2b" d="M 2944 4013 
L 2944 2272 
L 4684 2272 
L 4684 1741 
L 2944 1741 
L 2944 0 
L 2419 0 
L 2419 1741 
L 678 1741 
L 678 2272 
L 2419 2272 
L 2419 4013 
L 2944 4013 
z
" transform="scale(0.015625)"/>
        <path id="DejaVuSans-20" transform="scale(0.015625)"/>
        <path id="DejaVuSans-42" d="M 1259 2228 
L 1259 519 
L 2272 519 
Q 2781 519 3026 730 
Q 3272 941 3272 1375 
Q 3272 1813 3026 2020 
Q 2781 2228 2272 2228 
L 1259 2228 
z
M 1259 4147 
L 1259 2741 
L 2194 2741 
Q 2656 2741 2882 2914 
Q 3109 3088 3109 3444 
Q 3109 3797 2882 3972 
Q 2656 4147 2194 4147 
L 1259 4147 
z
M 628 4666 
L 2241 4666 
Q 2963 4666 3353 4366 
Q 3744 4066 3744 3513 
Q 3744 3084 3544 2831 
Q 3344 2578 2956 2516 
Q 3422 2416 3680 2098 
Q 3938 1781 3938 1306 
Q 3938 681 3513 340 
Q 3088 0 2303 0 
L 628 0 
L 628 4666 
z
" transform="scale(0.015625)"/>
        <path id="DejaVuSans-72" d="M 2631 2963 
Q 2534 3019 2420 3045 
Q 2306 3072 2169 3072 
Q 1681 3072 1420 2755 
Q 1159 2438 1159 1844 
L 1159 0 
L 581 0 
L 581 3500 
L 1159 3500 
L 1159 2956 
Q 1341 3275 1631 3429 
Q 1922 3584 2338 3584 
Q 2397 3584 2469 3576 
Q 2541 3569 2628 3553 
L 2631 2963 
z
" transform="scale(0.015625)"/>
        <path id="DejaVuSans-6e" d="M 3513 2113 
L 3513 0 
L 2938 0 
L 2938 2094 
Q 2938 2591 2744 2837 
Q 2550 3084 2163 3084 
Q 1697 3084 1428 2787 
Q 1159 2491 1159 1978 
L 1159 0 
L 581 0 
L 581 3500 
L 1159 3500 
L 1159 2956 
Q 1366 3272 1645 3428 
Q 1925 3584 2291 3584 
Q 2894 3584 3203 3211 
Q 3513 2838 3513 2113 
z
" transform="scale(0.015625)"/>
        <path id="DejaVuSans-32" d="M 1228 531 
L 3431 531 
L 3431 0 
L 469 0 
L 469 531 
Q 828 903 1448 1529 
Q 2069 2156 2228 2338 
Q 2531 2678 2651 2914 
Q 2772 3150 2772 3378 
Q 2772 3750 2511 3984 
Q 2250 4219 1831 4219 
Q 1534 4219 1204 4116 
Q 875 4013 500 3803 
L 500 4441 
Q 881 4594 1212 4672 
Q 1544 4750 1819 4750 
Q 2544 4750 2975 4387 
Q 3406 4025 3406 3419 
Q 3406 3131 3298 2873 
Q 3191 2616 2906 2266 
Q 2828 2175 2409 1742 
Q 1991 1309 1228 531 
z
" transform="scale(0.015625)"/>
       </defs>
       <use xlink:href="#DejaVuSans-2b"/>
       <use xlink:href="#DejaVuSans-20" x="83.789062"/>
       <use xlink:href="#DejaVuSans-42" x="115.576172"/>
       <use xlink:href="#DejaVuSans-72" x="184.179688"/>
       <use xlink:href="#DejaVuSans-6e" x="223.542969"/>
       <use xlink:href="#DejaVuSans-32" x="286.921875"/>
      </g>
     </g>
    </g>
   </g>
   <g id="matplotlib.axis_2">
    <g id="ytick_1">
     <g id="line2d_4">
      <defs>
       <path id="mc0768b14d1" d="M 0 0 
L -3.5 0 
" style="stroke: #000000; stroke-width: 0.8"/>
      </defs>
      <g>
       <use xlink:href="#mc0768b14d1" x="64.525937" y="185.398125" style="stroke: #000000; stroke-width: 0.8"/>
      </g>
     </g>
     <g id="text_4">
      <!-- 0 -->
      <g transform="translate(51.163438 189.197344)scale(0.1 -0.1)">
       <defs>
        <path id="DejaVuSans-30" d="M 2034 4250 
Q 1547 4250 1301 3770 
Q 1056 3291 1056 2328 
Q 1056 1369 1301 889 
Q 1547 409 2034 409 
Q 2525 409 2770 889 
Q 3016 1369 3016 2328 
Q 3016 3291 2770 3770 
Q 2525 4250 2034 4250 
z
M 2034 4750 
Q 2819 4750 3233 4129 
Q 3647 3509 3647 2328 
Q 3647 1150 3233 529 
Q 2819 -91 2034 -91 
Q 1250 -91 836 529 
Q 422 1150 422 2328 
Q 422 3509 836 4129 
Q 1250 4750 2034 4750 
z
" transform="scale(0.015625)"/>
       </defs>
       <use xlink:href="#DejaVuSans-30"/>
      </g>
     </g>
    </g>
    <g id="ytick_2">
     <g id="line2d_5">
      <g>
       <use xlink:href="#mc0768b14d1" x="64.525937" y="162.100982" style="stroke: #000000; stroke-width: 0.8"/>
      </g>
     </g>
     <g id="text_5">
      <!-- 500 -->
      <g transform="translate(38.438437 165.900201)scale(0.1 -0.1)">
       <defs>
        <path id="DejaVuSans-35" d="M 691 4666 
L 3169 4666 
L 3169 4134 
L 1269 4134 
L 1269 2991 
Q 1406 3038 1543 3061 
Q 1681 3084 1819 3084 
Q 2600 3084 3056 2656 
Q 3513 2228 3513 1497 
Q 3513 744 3044 326 
Q 2575 -91 1722 -91 
Q 1428 -91 1123 -41 
Q 819 9 494 109 
L 494 744 
Q 775 591 1075 516 
Q 1375 441 1709 441 
Q 2250 441 2565 725 
Q 2881 1009 2881 1497 
Q 2881 1984 2565 2268 
Q 2250 2553 1709 2553 
Q 1456 2553 1204 2497 
Q 953 2441 691 2322 
L 691 4666 
z
" transform="scale(0.015625)"/>
       </defs>
       <use xlink:href="#DejaVuSans-35"/>
       <use xlink:href="#DejaVuSans-30" x="63.623047"/>
       <use xlink:href="#DejaVuSans-30" x="127.246094"/>
      </g>
     </g>
    </g>
    <g id="ytick_3">
     <g id="line2d_6">
      <g>
       <use xlink:href="#mc0768b14d1" x="64.525937" y="138.803839" style="stroke: #000000; stroke-width: 0.8"/>
      </g>
     </g>
     <g id="text_6">
      <!-- 1000 -->
      <g transform="translate(32.075937 142.603058)scale(0.1 -0.1)">
       <defs>
        <path id="DejaVuSans-31" d="M 794 531 
L 1825 531 
L 1825 4091 
L 703 3866 
L 703 4441 
L 1819 4666 
L 2450 4666 
L 2450 531 
L 3481 531 
L 3481 0 
L 794 0 
L 794 531 
z
" transform="scale(0.015625)"/>
       </defs>
       <use xlink:href="#DejaVuSans-31"/>
       <use xlink:href="#DejaVuSans-30" x="63.623047"/>
       <use xlink:href="#DejaVuSans-30" x="127.246094"/>
       <use xlink:href="#DejaVuSans-30" x="190.869141"/>
      </g>
     </g>
    </g>
    <g id="ytick_4">
     <g id="line2d_7">
      <g>
       <use xlink:href="#mc0768b14d1" x="64.525937" y="115.506696" style="stroke: #000000; stroke-width: 0.8"/>
      </g>
     </g>
     <g id="text_7">
      <!-- 1500 -->
      <g transform="translate(32.075937 119.305915)scale(0.1 -0.1)">
       <use xlink:href="#DejaVuSans-31"/>
       <use xlink:href="#DejaVuSans-35" x="63.623047"/>
       <use xlink:href="#DejaVuSans-30" x="127.246094"/>
       <use xlink:href="#DejaVuSans-30" x="190.869141"/>
      </g>
     </g>
    </g>
    <g id="ytick_5">
     <g id="line2d_8">
      <g>
       <use xlink:href="#mc0768b14d1" x="64.525937" y="92.209554" style="stroke: #000000; stroke-width: 0.8"/>
      </g>
     </g>
     <g id="text_8">
      <!-- 2000 -->
      <g transform="translate(32.075937 96.008772)scale(0.1 -0.1)">
       <use xlink:href="#DejaVuSans-32"/>
       <use xlink:href="#DejaVuSans-30" x="63.623047"/>
       <use xlink:href="#DejaVuSans-30" x="127.246094"/>
       <use xlink:href="#DejaVuSans-30" x="190.869141"/>
      </g>
     </g>
    </g>
    <g id="ytick_6">
     <g id="line2d_9">
      <g>
       <use xlink:href="#mc0768b14d1" x="64.525937" y="68.912411" style="stroke: #000000; stroke-width: 0.8"/>
      </g>
     </g>
     <g id="text_9">
      <!-- 2500 -->
      <g transform="translate(32.075937 72.711629)scale(0.1 -0.1)">
       <use xlink:href="#DejaVuSans-32"/>
       <use xlink:href="#DejaVuSans-35" x="63.623047"/>
       <use xlink:href="#DejaVuSans-30" x="127.246094"/>
       <use xlink:href="#DejaVuSans-30" x="190.869141"/>
      </g>
     </g>
    </g>
    <g id="ytick_7">
     <g id="line2d_10">
      <g>
       <use xlink:href="#mc0768b14d1" x="64.525937" y="45.615268" style="stroke: #000000; stroke-width: 0.8"/>
      </g>
     </g>
     <g id="text_10">
      <!-- 3000 -->
      <g transform="translate(32.075937 49.414487)scale(0.1 -0.1)">
       <defs>
        <path id="DejaVuSans-33" d="M 2597 2516 
Q 3050 2419 3304 2112 
Q 3559 1806 3559 1356 
Q 3559 666 3084 287 
Q 2609 -91 1734 -91 
Q 1441 -91 1130 -33 
Q 819 25 488 141 
L 488 750 
Q 750 597 1062 519 
Q 1375 441 1716 441 
Q 2309 441 2620 675 
Q 2931 909 2931 1356 
Q 2931 1769 2642 2001 
Q 2353 2234 1838 2234 
L 1294 2234 
L 1294 2753 
L 1863 2753 
Q 2328 2753 2575 2939 
Q 2822 3125 2822 3475 
Q 2822 3834 2567 4026 
Q 2313 4219 1838 4219 
Q 1578 4219 1281 4162 
Q 984 4106 628 3988 
L 628 4550 
Q 988 4650 1302 4700 
Q 1616 4750 1894 4750 
Q 2613 4750 3031 4423 
Q 3450 4097 3450 3541 
Q 3450 3153 3228 2886 
Q 3006 2619 2597 2516 
z
" transform="scale(0.015625)"/>
       </defs>
       <use xlink:href="#DejaVuSans-33"/>
       <use xlink:href="#DejaVuSans-30" x="63.623047"/>
       <use xlink:href="#DejaVuSans-30" x="127.246094"/>
       <use xlink:href="#DejaVuSans-30" x="190.869141"/>
      </g>
     </g>
    </g>
    <g id="ytick_8">
     <g id="line2d_11">
      <g>
       <use xlink:href="#mc0768b14d1" x="64.525937" y="22.318125" style="stroke: #000000; stroke-width: 0.8"/>
      </g>
     </g>
     <g id="text_11">
      <!-- 3500 -->
      <g transform="translate(32.075937 26.117344)scale(0.1 -0.1)">
       <use xlink:href="#DejaVuSans-33"/>
       <use xlink:href="#DejaVuSans-35" x="63.623047"/>
       <use xlink:href="#DejaVuSans-30" x="127.246094"/>
       <use xlink:href="#DejaVuSans-30" x="190.869141"/>
      </g>
     </g>
    </g>
    <g id="text_12">
     <!-- (%) iMN yield -->
     <g transform="translate(14.798437 137.120625)rotate(-90)scale(0.1 -0.1)">
      <defs>
       <path id="DejaVuSans-28" d="M 1984 4856 
Q 1566 4138 1362 3434 
Q 1159 2731 1159 2009 
Q 1159 1288 1364 580 
Q 1569 -128 1984 -844 
L 1484 -844 
Q 1016 -109 783 600 
Q 550 1309 550 2009 
Q 550 2706 781 3412 
Q 1013 4119 1484 4856 
L 1984 4856 
z
" transform="scale(0.015625)"/>
       <path id="DejaVuSans-25" d="M 4653 2053 
Q 4381 2053 4226 1822 
Q 4072 1591 4072 1178 
Q 4072 772 4226 539 
Q 4381 306 4653 306 
Q 4919 306 5073 539 
Q 5228 772 5228 1178 
Q 5228 1588 5073 1820 
Q 4919 2053 4653 2053 
z
M 4653 2450 
Q 5147 2450 5437 2106 
Q 5728 1763 5728 1178 
Q 5728 594 5436 251 
Q 5144 -91 4653 -91 
Q 4153 -91 3862 251 
Q 3572 594 3572 1178 
Q 3572 1766 3864 2108 
Q 4156 2450 4653 2450 
z
M 1428 4353 
Q 1159 4353 1004 4120 
Q 850 3888 850 3481 
Q 850 3069 1003 2837 
Q 1156 2606 1428 2606 
Q 1700 2606 1854 2837 
Q 2009 3069 2009 3481 
Q 2009 3884 1853 4118 
Q 1697 4353 1428 4353 
z
M 4250 4750 
L 4750 4750 
L 1831 -91 
L 1331 -91 
L 4250 4750 
z
M 1428 4750 
Q 1922 4750 2215 4408 
Q 2509 4066 2509 3481 
Q 2509 2891 2217 2550 
Q 1925 2209 1428 2209 
Q 931 2209 642 2551 
Q 353 2894 353 3481 
Q 353 4063 643 4406 
Q 934 4750 1428 4750 
z
" transform="scale(0.015625)"/>
       <path id="DejaVuSans-29" d="M 513 4856 
L 1013 4856 
Q 1481 4119 1714 3412 
Q 1947 2706 1947 2009 
Q 1947 1309 1714 600 
Q 1481 -109 1013 -844 
L 513 -844 
Q 928 -128 1133 580 
Q 1338 1288 1338 2009 
Q 1338 2731 1133 3434 
Q 928 4138 513 4856 
z
" transform="scale(0.015625)"/>
       <path id="DejaVuSans-69" d="M 603 3500 
L 1178 3500 
L 1178 0 
L 603 0 
L 603 3500 
z
M 603 4863 
L 1178 4863 
L 1178 4134 
L 603 4134 
L 603 4863 
z
" transform="scale(0.015625)"/>
       <path id="DejaVuSans-4d" d="M 628 4666 
L 1569 4666 
L 2759 1491 
L 3956 4666 
L 4897 4666 
L 4897 0 
L 4281 0 
L 4281 4097 
L 3078 897 
L 2444 897 
L 1241 4097 
L 1241 0 
L 628 0 
L 628 4666 
z
" transform="scale(0.015625)"/>
       <path id="DejaVuSans-79" d="M 2059 -325 
Q 1816 -950 1584 -1140 
Q 1353 -1331 966 -1331 
L 506 -1331 
L 506 -850 
L 844 -850 
Q 1081 -850 1212 -737 
Q 1344 -625 1503 -206 
L 1606 56 
L 191 3500 
L 800 3500 
L 1894 763 
L 2988 3500 
L 3597 3500 
L 2059 -325 
z
" transform="scale(0.015625)"/>
       <path id="DejaVuSans-65" d="M 3597 1894 
L 3597 1613 
L 953 1613 
Q 991 1019 1311 708 
Q 1631 397 2203 397 
Q 2534 397 2845 478 
Q 3156 559 3463 722 
L 3463 178 
Q 3153 47 2828 -22 
Q 2503 -91 2169 -91 
Q 1331 -91 842 396 
Q 353 884 353 1716 
Q 353 2575 817 3079 
Q 1281 3584 2069 3584 
Q 2775 3584 3186 3129 
Q 3597 2675 3597 1894 
z
M 3022 2063 
Q 3016 2534 2758 2815 
Q 2500 3097 2075 3097 
Q 1594 3097 1305 2825 
Q 1016 2553 972 2059 
L 3022 2063 
z
" transform="scale(0.015625)"/>
       <path id="DejaVuSans-6c" d="M 603 4863 
L 1178 4863 
L 1178 0 
L 603 0 
L 603 4863 
z
" transform="scale(0.015625)"/>
       <path id="DejaVuSans-64" d="M 2906 2969 
L 2906 4863 
L 3481 4863 
L 3481 0 
L 2906 0 
L 2906 525 
Q 2725 213 2448 61 
Q 2172 -91 1784 -91 
Q 1150 -91 751 415 
Q 353 922 353 1747 
Q 353 2572 751 3078 
Q 1150 3584 1784 3584 
Q 2172 3584 2448 3432 
Q 2725 3281 2906 2969 
z
M 947 1747 
Q 947 1113 1208 752 
Q 1469 391 1925 391 
Q 2381 391 2643 752 
Q 2906 1113 2906 1747 
Q 2906 2381 2643 2742 
Q 2381 3103 1925 3103 
Q 1469 3103 1208 2742 
Q 947 2381 947 1747 
z
" transform="scale(0.015625)"/>
      </defs>
      <use xlink:href="#DejaVuSans-28"/>
      <use xlink:href="#DejaVuSans-25" x="39.013672"/>
      <use xlink:href="#DejaVuSans-29" x="134.033203"/>
      <use xlink:href="#DejaVuSans-20" x="173.046875"/>
      <use xlink:href="#DejaVuSans-69" x="204.833984"/>
      <use xlink:href="#DejaVuSans-4d" x="232.617188"/>
      <use xlink:href="#DejaVuSans-4e" x="318.896484"/>
      <use xlink:href="#DejaVuSans-20" x="393.701172"/>
      <use xlink:href="#DejaVuSans-79" x="425.488281"/>
      <use xlink:href="#DejaVuSans-69" x="484.667969"/>
      <use xlink:href="#DejaVuSans-65" x="512.451172"/>
      <use xlink:href="#DejaVuSans-6c" x="573.974609"/>
      <use xlink:href="#DejaVuSans-64" x="601.757812"/>
     </g>
     <!-- per MEF plated -->
     <g transform="translate(25.99625 141.53)rotate(-90)scale(0.1 -0.1)">
      <defs>
       <path id="DejaVuSans-70" d="M 1159 525 
L 1159 -1331 
L 581 -1331 
L 581 3500 
L 1159 3500 
L 1159 2969 
Q 1341 3281 1617 3432 
Q 1894 3584 2278 3584 
Q 2916 3584 3314 3078 
Q 3713 2572 3713 1747 
Q 3713 922 3314 415 
Q 2916 -91 2278 -91 
Q 1894 -91 1617 61 
Q 1341 213 1159 525 
z
M 3116 1747 
Q 3116 2381 2855 2742 
Q 2594 3103 2138 3103 
Q 1681 3103 1420 2742 
Q 1159 2381 1159 1747 
Q 1159 1113 1420 752 
Q 1681 391 2138 391 
Q 2594 391 2855 752 
Q 3116 1113 3116 1747 
z
" transform="scale(0.015625)"/>
       <path id="DejaVuSans-45" d="M 628 4666 
L 3578 4666 
L 3578 4134 
L 1259 4134 
L 1259 2753 
L 3481 2753 
L 3481 2222 
L 1259 2222 
L 1259 531 
L 3634 531 
L 3634 0 
L 628 0 
L 628 4666 
z
" transform="scale(0.015625)"/>
       <path id="DejaVuSans-46" d="M 628 4666 
L 3309 4666 
L 3309 4134 
L 1259 4134 
L 1259 2759 
L 3109 2759 
L 3109 2228 
L 1259 2228 
L 1259 0 
L 628 0 
L 628 4666 
z
" transform="scale(0.015625)"/>
       <path id="DejaVuSans-61" d="M 2194 1759 
Q 1497 1759 1228 1600 
Q 959 1441 959 1056 
Q 959 750 1161 570 
Q 1363 391 1709 391 
Q 2188 391 2477 730 
Q 2766 1069 2766 1631 
L 2766 1759 
L 2194 1759 
z
M 3341 1997 
L 3341 0 
L 2766 0 
L 2766 531 
Q 2569 213 2275 61 
Q 1981 -91 1556 -91 
Q 1019 -91 701 211 
Q 384 513 384 1019 
Q 384 1609 779 1909 
Q 1175 2209 1959 2209 
L 2766 2209 
L 2766 2266 
Q 2766 2663 2505 2880 
Q 2244 3097 1772 3097 
Q 1472 3097 1187 3025 
Q 903 2953 641 2809 
L 641 3341 
Q 956 3463 1253 3523 
Q 1550 3584 1831 3584 
Q 2591 3584 2966 3190 
Q 3341 2797 3341 1997 
z
" transform="scale(0.015625)"/>
       <path id="DejaVuSans-74" d="M 1172 4494 
L 1172 3500 
L 2356 3500 
L 2356 3053 
L 1172 3053 
L 1172 1153 
Q 1172 725 1289 603 
Q 1406 481 1766 481 
L 2356 481 
L 2356 0 
L 1766 0 
Q 1100 0 847 248 
Q 594 497 594 1153 
L 594 3053 
L 172 3053 
L 172 3500 
L 594 3500 
L 594 4494 
L 1172 4494 
z
" transform="scale(0.015625)"/>
      </defs>
      <use xlink:href="#DejaVuSans-70"/>
      <use xlink:href="#DejaVuSans-65" x="63.476562"/>
      <use xlink:href="#DejaVuSans-72" x="125"/>
      <use xlink:href="#DejaVuSans-20" x="166.113281"/>
      <use xlink:href="#DejaVuSans-4d" x="197.900391"/>
      <use xlink:href="#DejaVuSans-45" x="284.179688"/>
      <use xlink:href="#DejaVuSans-46" x="347.363281"/>
      <use xlink:href="#DejaVuSans-20" x="404.882812"/>
      <use xlink:href="#DejaVuSans-70" x="436.669922"/>
      <use xlink:href="#DejaVuSans-6c" x="500.146484"/>
      <use xlink:href="#DejaVuSans-61" x="527.929688"/>
      <use xlink:href="#DejaVuSans-74" x="589.208984"/>
      <use xlink:href="#DejaVuSans-65" x="628.417969"/>
      <use xlink:href="#DejaVuSans-64" x="689.941406"/>
     </g>
    </g>
   </g>
   <g id="line2d_12">
    <path d="M 77.570093 183.573549 
L 77.570093 182.38893 
" clip-path="url(#pe5c4f2a3f7)" style="fill: none; stroke: #424242; stroke-width: 2.7; stroke-linecap: square"/>
   </g>
   <g id="line2d_13">
    <path d="M 131.920743 180.314195 
L 131.920743 175.859663 
" clip-path="url(#pe5c4f2a3f7)" style="fill: none; stroke: #424242; stroke-width: 2.7; stroke-linecap: square"/>
   </g>
   <g id="line2d_14">
    <path d="M 186.271392 184.857465 
L 186.271392 182.645734 
" clip-path="url(#pe5c4f2a3f7)" style="fill: none; stroke: #424242; stroke-width: 2.7; stroke-linecap: square"/>
   </g>
   <g id="line2d_15">
    <path d="M 88.440223 179.123888 
L 88.440223 175.362083 
" clip-path="url(#pe5c4f2a3f7)" style="fill: none; stroke: #424242; stroke-width: 2.7; stroke-linecap: square"/>
   </g>
   <g id="line2d_16">
    <path d="M 142.790873 170.59554 
L 142.790873 159.817918 
" clip-path="url(#pe5c4f2a3f7)" style="fill: none; stroke: #424242; stroke-width: 2.7; stroke-linecap: square"/>
   </g>
   <g id="line2d_17">
    <path d="M 197.141522 184.401194 
L 197.141522 181.649711 
" clip-path="url(#pe5c4f2a3f7)" style="fill: none; stroke: #424242; stroke-width: 2.7; stroke-linecap: square"/>
   </g>
   <g id="line2d_18">
    <path d="M 99.310353 163.444992 
L 99.310353 145.475704 
" clip-path="url(#pe5c4f2a3f7)" style="fill: none; stroke: #424242; stroke-width: 2.7; stroke-linecap: square"/>
   </g>
   <g id="line2d_19">
    <path d="M 153.661002 145.452614 
L 153.661002 125.916818 
" clip-path="url(#pe5c4f2a3f7)" style="fill: none; stroke: #424242; stroke-width: 2.7; stroke-linecap: square"/>
   </g>
   <g id="line2d_20">
    <path d="M 208.011652 183.344249 
L 208.011652 176.181263 
" clip-path="url(#pe5c4f2a3f7)" style="fill: none; stroke: #424242; stroke-width: 2.7; stroke-linecap: square"/>
   </g>
   <g id="line2d_21">
    <path d="M 110.180483 160.750612 
L 110.180483 111.145387 
" clip-path="url(#pe5c4f2a3f7)" style="fill: none; stroke: #424242; stroke-width: 2.7; stroke-linecap: square"/>
   </g>
   <g id="line2d_22">
    <path d="M 164.531132 150.828122 
L 164.531132 98.622054 
" clip-path="url(#pe5c4f2a3f7)" style="fill: none; stroke: #424242; stroke-width: 2.7; stroke-linecap: square"/>
   </g>
   <g id="line2d_23">
    <path d="M 218.881782 183.89502 
L 218.881782 175.940816 
" clip-path="url(#pe5c4f2a3f7)" style="fill: none; stroke: #424242; stroke-width: 2.7; stroke-linecap: square"/>
   </g>
   <g id="line2d_24">
    <path d="M 77.570093 44.511915 
L 77.570093 41.553305 
L 131.920743 41.553305 
L 131.920743 44.511915 
" clip-path="url(#pe5c4f2a3f7)" style="fill: none; stroke: #333333; stroke-width: 1.5; stroke-linecap: square"/>
   </g>
   <g id="line2d_25">
    <path d="M 153.661002 69.117426 
L 153.661002 66.158815 
L 208.011652 66.158815 
L 208.011652 69.117426 
" clip-path="url(#pe5c4f2a3f7)" style="fill: none; stroke: #333333; stroke-width: 1.5; stroke-linecap: square"/>
   </g>
   <g id="line2d_26">
    <path d="M 99.310353 21.597017 
L 99.310353 18.638406 
L 153.661002 18.638406 
L 153.661002 21.597017 
" clip-path="url(#pe5c4f2a3f7)" style="fill: none; stroke: #333333; stroke-width: 1.5; stroke-linecap: square"/>
   </g>
   <g id="patch_15">
    <path d="M 64.525937 185.398125 
L 64.525937 22.318125 
" style="fill: none; stroke: #000000; stroke-width: 0.8; stroke-linejoin: miter; stroke-linecap: square"/>
   </g>
   <g id="patch_16">
    <path d="M 231.925938 185.398125 
L 231.925938 22.318125 
" style="fill: none; stroke: #000000; stroke-width: 0.8; stroke-linejoin: miter; stroke-linecap: square"/>
   </g>
   <g id="patch_17">
    <path d="M 64.525937 185.398125 
L 231.925938 185.398125 
" style="fill: none; stroke: #000000; stroke-width: 0.8; stroke-linejoin: miter; stroke-linecap: square"/>
   </g>
   <g id="patch_18">
    <path d="M 64.525937 22.318125 
L 231.925938 22.318125 
" style="fill: none; stroke: #000000; stroke-width: 0.8; stroke-linejoin: miter; stroke-linecap: square"/>
   </g>
   <g id="PathCollection_21">
    <defs>
     <path id="C0_0_53f983e3ab" d="M 0 2.5 
C 0.663008 2.5 1.29895 2.236584 1.767767 1.767767 
C 2.236584 1.29895 2.5 0.663008 2.5 -0 
C 2.5 -0.663008 2.236584 -1.29895 1.767767 -1.767767 
C 1.29895 -2.236584 0.663008 -2.5 0 -2.5 
C -0.663008 -2.5 -1.29895 -2.236584 -1.767767 -1.767767 
C -2.236584 -1.29895 -2.5 -0.663008 -2.5 0 
C -2.5 0.663008 -2.236584 1.29895 -1.767767 1.767767 
C -1.29895 2.236584 -0.663008 2.5 0 2.5 
z
"/>
    </defs>
    <g clip-path="url(#pe5c4f2a3f7)">
     <use xlink:href="#C0_0_53f983e3ab" x="76.310551" y="182.396987" style="fill: #ffffff; stroke: #000000; stroke-width: 0.4"/>
    </g>
    <g clip-path="url(#pe5c4f2a3f7)">
     <use xlink:href="#C0_0_53f983e3ab" x="78.508726" y="182.725943" style="fill: #ffffff; stroke: #000000; stroke-width: 0.4"/>
    </g>
   </g>
   <g id="PathCollection_22">
    <defs>
     <path id="C1_0_c6a1c7195b" d="M 0 2.5 
C 0.663008 2.5 1.29895 2.236584 1.767767 1.767767 
C 2.236584 1.29895 2.5 0.663008 2.5 -0 
C 2.5 -0.663008 2.236584 -1.29895 1.767767 -1.767767 
C 1.29895 -2.236584 0.663008 -2.5 0 -2.5 
C -0.663008 -2.5 -1.29895 -2.236584 -1.767767 -1.767767 
C -2.236584 -1.29895 -2.5 -0.663008 -2.5 0 
C -2.5 0.663008 -2.236584 1.29895 -1.767767 1.767767 
C -1.29895 2.236584 -0.663008 2.5 0 2.5 
z
"/>
    </defs>
    <g clip-path="url(#pe5c4f2a3f7)">
     <use xlink:href="#C1_0_c6a1c7195b" x="88.444318" y="176.620693" style="fill: #ffffff; stroke: #000000; stroke-width: 0.4"/>
    </g>
    <g clip-path="url(#pe5c4f2a3f7)">
     <use xlink:href="#C1_0_c6a1c7195b" x="88.209947" y="174.189404" style="fill: #ffffff; stroke: #000000; stroke-width: 0.4"/>
    </g>
   </g>
   <g id="PathCollection_23">
    <defs>
     <path id="C2_0_21c5a34adf" d="M 0 2.5 
C 0.663008 2.5 1.29895 2.236584 1.767767 1.767767 
C 2.236584 1.29895 2.5 0.663008 2.5 -0 
C 2.5 -0.663008 2.236584 -1.29895 1.767767 -1.767767 
C 1.29895 -2.236584 0.663008 -2.5 0 -2.5 
C -0.663008 -2.5 -1.29895 -2.236584 -1.767767 -1.767767 
C -2.236584 -1.29895 -2.5 -0.663008 -2.5 0 
C -2.5 0.663008 -2.236584 1.29895 -1.767767 1.767767 
C -1.29895 2.236584 -0.663008 2.5 0 2.5 
z
"/>
    </defs>
    <g clip-path="url(#pe5c4f2a3f7)">
     <use xlink:href="#C2_0_21c5a34adf" x="99.519243" y="123.742702" style="fill: #ffffff; stroke: #000000; stroke-width: 0.4"/>
    </g>
    <g clip-path="url(#pe5c4f2a3f7)">
     <use xlink:href="#C2_0_21c5a34adf" x="98.171917" y="117.946373" style="fill: #ffffff; stroke: #000000; stroke-width: 0.4"/>
    </g>
   </g>
   <g id="PathCollection_24">
    <defs>
     <path id="C3_0_a3366d42b7" d="M 0 2.5 
C 0.663008 2.5 1.29895 2.236584 1.767767 1.767767 
C 2.236584 1.29895 2.5 0.663008 2.5 -0 
C 2.5 -0.663008 2.236584 -1.29895 1.767767 -1.767767 
C 1.29895 -2.236584 0.663008 -2.5 0 -2.5 
C -0.663008 -2.5 -1.29895 -2.236584 -1.767767 -1.767767 
C -2.236584 -1.29895 -2.5 -0.663008 -2.5 0 
C -2.5 0.663008 -2.236584 1.29895 -1.767767 1.767767 
C -1.29895 2.236584 -0.663008 2.5 0 2.5 
z
"/>
    </defs>
    <g clip-path="url(#pe5c4f2a3f7)">
     <use xlink:href="#C3_0_a3366d42b7" x="109.90193" y="44.511915" style="fill: #ffffff; stroke: #000000; stroke-width: 0.4"/>
    </g>
    <g clip-path="url(#pe5c4f2a3f7)">
     <use xlink:href="#C3_0_a3366d42b7" x="110.477133" y="69.803293" style="fill: #ffffff; stroke: #000000; stroke-width: 0.4"/>
    </g>
   </g>
   <g id="PathCollection_25">
    <defs>
     <path id="C4_0_1a09fb7e2b" d="M 0 2.5 
C 0.663008 2.5 1.29895 2.236584 1.767767 1.767767 
C 2.236584 1.29895 2.5 0.663008 2.5 -0 
C 2.5 -0.663008 2.236584 -1.29895 1.767767 -1.767767 
C 1.29895 -2.236584 0.663008 -2.5 0 -2.5 
C -0.663008 -2.5 -1.29895 -2.236584 -1.767767 -1.767767 
C -2.236584 -1.29895 -2.5 -0.663008 -2.5 0 
C -2.5 0.663008 -2.236584 1.29895 -1.767767 1.767767 
C -1.29895 2.236584 -0.663008 2.5 0 2.5 
z
"/>
    </defs>
    <g clip-path="url(#pe5c4f2a3f7)">
     <use xlink:href="#C4_0_1a09fb7e2b" x="132.887112" y="169.794165" style="fill: #ffffff; stroke: #000000; stroke-width: 0.4"/>
    </g>
    <g clip-path="url(#pe5c4f2a3f7)">
     <use xlink:href="#C4_0_1a09fb7e2b" x="133.217698" y="173.677332" style="fill: #ffffff; stroke: #000000; stroke-width: 0.4"/>
    </g>
   </g>
   <g id="PathCollection_26">
    <defs>
     <path id="C5_0_fb845f5826" d="M 0 2.5 
C 0.663008 2.5 1.29895 2.236584 1.767767 1.767767 
C 2.236584 1.29895 2.5 0.663008 2.5 -0 
C 2.5 -0.663008 2.236584 -1.29895 1.767767 -1.767767 
C 1.29895 -2.236584 0.663008 -2.5 0 -2.5 
C -0.663008 -2.5 -1.29895 -2.236584 -1.767767 -1.767767 
C -2.236584 -1.29895 -2.5 -0.663008 -2.5 0 
C -2.5 0.663008 -2.236584 1.29895 -1.767767 1.767767 
C -1.29895 2.236584 -0.663008 2.5 0 2.5 
z
"/>
    </defs>
    <g clip-path="url(#pe5c4f2a3f7)">
     <use xlink:href="#C5_0_fb845f5826" x="142.276396" y="152.711302" style="fill: #ffffff; stroke: #000000; stroke-width: 0.4"/>
    </g>
    <g clip-path="url(#pe5c4f2a3f7)">
     <use xlink:href="#C5_0_fb845f5826" x="142.59377" y="158.885976" style="fill: #ffffff; stroke: #000000; stroke-width: 0.4"/>
    </g>
   </g>
   <g id="PathCollection_27">
    <defs>
     <path id="C6_0_6686004347" d="M 0 2.5 
C 0.663008 2.5 1.29895 2.236584 1.767767 1.767767 
C 2.236584 1.29895 2.5 0.663008 2.5 -0 
C 2.5 -0.663008 2.236584 -1.29895 1.767767 -1.767767 
C 1.29895 -2.236584 0.663008 -2.5 0 -2.5 
C -0.663008 -2.5 -1.29895 -2.236584 -1.767767 -1.767767 
C -2.236584 -1.29895 -2.5 -0.663008 -2.5 0 
C -2.5 0.663008 -2.236584 1.29895 -1.767767 1.767767 
C -1.29895 2.236584 -0.663008 2.5 0 2.5 
z
"/>
    </defs>
    <g clip-path="url(#pe5c4f2a3f7)">
     <use xlink:href="#C6_0_6686004347" x="153.493705" y="97.351699" style="fill: #ffffff; stroke: #000000; stroke-width: 0.4"/>
    </g>
    <g clip-path="url(#pe5c4f2a3f7)">
     <use xlink:href="#C6_0_6686004347" x="153.077568" y="109.887426" style="fill: #ffffff; stroke: #000000; stroke-width: 0.4"/>
    </g>
   </g>
   <g id="PathCollection_28">
    <defs>
     <path id="C7_0_95add83740" d="M 0 2.5 
C 0.663008 2.5 1.29895 2.236584 1.767767 1.767767 
C 2.236584 1.29895 2.5 0.663008 2.5 -0 
C 2.5 -0.663008 2.236584 -1.29895 1.767767 -1.767767 
C 1.29895 -2.236584 0.663008 -2.5 0 -2.5 
C -0.663008 -2.5 -1.29895 -2.236584 -1.767767 -1.767767 
C -2.236584 -1.29895 -2.5 -0.663008 -2.5 0 
C -2.5 0.663008 -2.236584 1.29895 -1.767767 1.767767 
C -1.29895 2.236584 -0.663008 2.5 0 2.5 
z
"/>
    </defs>
    <g clip-path="url(#pe5c4f2a3f7)">
     <use xlink:href="#C7_0_95add83740" x="163.469677" y="74.306165" style="fill: #ffffff; stroke: #000000; stroke-width: 0.4"/>
    </g>
    <g clip-path="url(#pe5c4f2a3f7)">
     <use xlink:href="#C7_0_95add83740" x="165.282485" y="80.553527" style="fill: #ffffff; stroke: #000000; stroke-width: 0.4"/>
    </g>
   </g>
   <g id="PathCollection_29">
    <defs>
     <path id="C8_0_496dcd392d" d="M 0 2.5 
C 0.663008 2.5 1.29895 2.236584 1.767767 1.767767 
C 2.236584 1.29895 2.5 0.663008 2.5 -0 
C 2.5 -0.663008 2.236584 -1.29895 1.767767 -1.767767 
C 1.29895 -2.236584 0.663008 -2.5 0 -2.5 
C -0.663008 -2.5 -1.29895 -2.236584 -1.767767 -1.767767 
C -2.236584 -1.29895 -2.5 -0.663008 -2.5 0 
C -2.5 0.663008 -2.236584 1.29895 -1.767767 1.767767 
C -1.29895 2.236584 -0.663008 2.5 0 2.5 
z
"/>
    </defs>
    <g clip-path="url(#pe5c4f2a3f7)">
     <use xlink:href="#C8_0_496dcd392d" x="187.436261" y="181.024319" style="fill: #ffffff; stroke: #000000; stroke-width: 0.4"/>
    </g>
    <g clip-path="url(#pe5c4f2a3f7)">
     <use xlink:href="#C8_0_496dcd392d" x="186.731729" y="182.406306" style="fill: #ffffff; stroke: #000000; stroke-width: 0.4"/>
    </g>
   </g>
   <g id="PathCollection_30">
    <defs>
     <path id="C9_0_564a196dfc" d="M 0 2.5 
C 0.663008 2.5 1.29895 2.236584 1.767767 1.767767 
C 2.236584 1.29895 2.5 0.663008 2.5 -0 
C 2.5 -0.663008 2.236584 -1.29895 1.767767 -1.767767 
C 1.29895 -2.236584 0.663008 -2.5 0 -2.5 
C -0.663008 -2.5 -1.29895 -2.236584 -1.767767 -1.767767 
C -2.236584 -1.29895 -2.5 -0.663008 -2.5 0 
C -2.5 0.663008 -2.236584 1.29895 -1.767767 1.767767 
C -1.29895 2.236584 -0.663008 2.5 0 2.5 
z
"/>
    </defs>
    <g clip-path="url(#pe5c4f2a3f7)">
     <use xlink:href="#C9_0_564a196dfc" x="197.803899" y="181.00242" style="fill: #ffffff; stroke: #000000; stroke-width: 0.4"/>
    </g>
    <g clip-path="url(#pe5c4f2a3f7)">
     <use xlink:href="#C9_0_564a196dfc" x="196.711465" y="180.133903" style="fill: #ffffff; stroke: #000000; stroke-width: 0.4"/>
    </g>
   </g>
   <g id="PathCollection_31">
    <defs>
     <path id="Ca_0_e50c92b547" d="M 0 2.5 
C 0.663008 2.5 1.29895 2.236584 1.767767 1.767767 
C 2.236584 1.29895 2.5 0.663008 2.5 -0 
C 2.5 -0.663008 2.236584 -1.29895 1.767767 -1.767767 
C 1.29895 -2.236584 0.663008 -2.5 0 -2.5 
C -0.663008 -2.5 -1.29895 -2.236584 -1.767767 -1.767767 
C -2.236584 -1.29895 -2.5 -0.663008 -2.5 0 
C -2.5 0.663008 -2.236584 1.29895 -1.767767 1.767767 
C -1.29895 2.236584 -0.663008 2.5 0 2.5 
z
"/>
    </defs>
    <g clip-path="url(#pe5c4f2a3f7)">
     <use xlink:href="#Ca_0_e50c92b547" x="208.19307" y="172.006927" style="fill: #ffffff; stroke: #000000; stroke-width: 0.4"/>
    </g>
    <g clip-path="url(#pe5c4f2a3f7)">
     <use xlink:href="#Ca_0_e50c92b547" x="208.61744" y="175.604006" style="fill: #ffffff; stroke: #000000; stroke-width: 0.4"/>
    </g>
   </g>
   <g id="PathCollection_32">
    <defs>
     <path id="Cb_0_749ab89fc8" d="M 0 2.5 
C 0.663008 2.5 1.29895 2.236584 1.767767 1.767767 
C 2.236584 1.29895 2.5 0.663008 2.5 -0 
C 2.5 -0.663008 2.236584 -1.29895 1.767767 -1.767767 
C 1.29895 -2.236584 0.663008 -2.5 0 -2.5 
C -0.663008 -2.5 -1.29895 -2.236584 -1.767767 -1.767767 
C -2.236584 -1.29895 -2.5 -0.663008 -2.5 0 
C -2.5 0.663008 -2.236584 1.29895 -1.767767 1.767767 
C -1.29895 2.236584 -0.663008 2.5 0 2.5 
z
"/>
    </defs>
    <g clip-path="url(#pe5c4f2a3f7)">
     <use xlink:href="#Cb_0_749ab89fc8" x="218.598861" y="174.424239" style="fill: #ffffff; stroke: #000000; stroke-width: 0.4"/>
    </g>
    <g clip-path="url(#pe5c4f2a3f7)">
     <use xlink:href="#Cb_0_749ab89fc8" x="219.355917" y="170.793612" style="fill: #ffffff; stroke: #000000; stroke-width: 0.4"/>
    </g>
   </g>
   <g id="PathCollection_33">
    <path d="M 74.346982 183.791771 
L 79.346982 183.791771 
L 79.346982 178.791771 
L 74.346982 178.791771 
z
" clip-path="url(#pe5c4f2a3f7)" style="fill: #ffffff; stroke: #000000; stroke-width: 0.4"/>
    <path d="M 74.515181 184.018219 
L 79.515181 184.018219 
L 79.515181 179.018219 
L 74.515181 179.018219 
z
" clip-path="url(#pe5c4f2a3f7)" style="fill: #ffffff; stroke: #000000; stroke-width: 0.4"/>
   </g>
   <g id="PathCollection_34">
    <path d="M 85.837501 179.492516 
L 90.837501 179.492516 
L 90.837501 174.492516 
L 85.837501 174.492516 
z
" clip-path="url(#pe5c4f2a3f7)" style="fill: #ffffff; stroke: #000000; stroke-width: 0.4"/>
    <path d="M 85.887154 178.596042 
L 90.887154 178.596042 
L 90.887154 173.596042 
L 85.887154 173.596042 
z
" clip-path="url(#pe5c4f2a3f7)" style="fill: #ffffff; stroke: #000000; stroke-width: 0.4"/>
   </g>
   <g id="PathCollection_35">
    <path d="M 97.606875 150.259261 
L 102.606875 150.259261 
L 102.606875 145.259261 
L 97.606875 145.259261 
z
" clip-path="url(#pe5c4f2a3f7)" style="fill: #ffffff; stroke: #000000; stroke-width: 0.4"/>
    <path d="M 97.310769 146.052729 
L 102.310769 146.052729 
L 102.310769 141.052729 
L 97.310769 141.052729 
z
" clip-path="url(#pe5c4f2a3f7)" style="fill: #ffffff; stroke: #000000; stroke-width: 0.4"/>
   </g>
   <g id="PathCollection_36">
    <path d="M 108.862593 126.337755 
L 113.862593 126.337755 
L 113.862593 121.337755 
L 108.862593 121.337755 
z
" clip-path="url(#pe5c4f2a3f7)" style="fill: #ffffff; stroke: #000000; stroke-width: 0.4"/>
    <path d="M 108.726062 136.390938 
L 113.726062 136.390938 
L 113.726062 131.390938 
L 108.726062 131.390938 
z
" clip-path="url(#pe5c4f2a3f7)" style="fill: #ffffff; stroke: #000000; stroke-width: 0.4"/>
   </g>
   <g id="PathCollection_37">
    <path d="M 128.731251 181.463454 
L 133.731251 181.463454 
L 133.731251 176.463454 
L 128.731251 176.463454 
z
" clip-path="url(#pe5c4f2a3f7)" style="fill: #ffffff; stroke: #000000; stroke-width: 0.4"/>
    <path d="M 128.138388 182.92931 
L 133.138388 182.92931 
L 133.138388 177.92931 
L 128.138388 177.92931 
z
" clip-path="url(#pe5c4f2a3f7)" style="fill: #ffffff; stroke: #000000; stroke-width: 0.4"/>
   </g>
   <g id="PathCollection_38">
    <path d="M 140.880678 176.961514 
L 145.880678 176.961514 
L 145.880678 171.961514 
L 140.880678 171.961514 
z
" clip-path="url(#pe5c4f2a3f7)" style="fill: #ffffff; stroke: #000000; stroke-width: 0.4"/>
    <path d="M 139.984568 173.897474 
L 144.984568 173.897474 
L 144.984568 168.897474 
L 139.984568 168.897474 
z
" clip-path="url(#pe5c4f2a3f7)" style="fill: #ffffff; stroke: #000000; stroke-width: 0.4"/>
   </g>
   <g id="PathCollection_39">
    <path d="M 150.982789 127.729992 
L 155.982789 127.729992 
L 155.982789 122.729992 
L 150.982789 122.729992 
z
" clip-path="url(#pe5c4f2a3f7)" style="fill: #ffffff; stroke: #000000; stroke-width: 0.4"/>
    <path d="M 151.086691 140.951586 
L 156.086691 140.951586 
L 156.086691 135.951586 
L 151.086691 135.951586 
z
" clip-path="url(#pe5c4f2a3f7)" style="fill: #ffffff; stroke: #000000; stroke-width: 0.4"/>
   </g>
   <g id="PathCollection_40">
    <path d="M 162.445088 128.279805 
L 167.445088 128.279805 
L 167.445088 123.279805 
L 162.445088 123.279805 
z
" clip-path="url(#pe5c4f2a3f7)" style="fill: #ffffff; stroke: #000000; stroke-width: 0.4"/>
    <path d="M 161.920812 137.41974 
L 166.920812 137.41974 
L 166.920812 132.41974 
L 161.920812 132.41974 
z
" clip-path="url(#pe5c4f2a3f7)" style="fill: #ffffff; stroke: #000000; stroke-width: 0.4"/>
   </g>
   <g id="PathCollection_41">
    <path d="M 183.083389 186.112166 
L 188.083389 186.112166 
L 188.083389 181.112166 
L 183.083389 181.112166 
z
" clip-path="url(#pe5c4f2a3f7)" style="fill: #ffffff; stroke: #000000; stroke-width: 0.4"/>
    <path d="M 183.430037 186.646137 
L 188.430037 186.646137 
L 188.430037 181.646137 
L 183.430037 181.646137 
z
" clip-path="url(#pe5c4f2a3f7)" style="fill: #ffffff; stroke: #000000; stroke-width: 0.4"/>
   </g>
   <g id="PathCollection_42">
    <path d="M 195.951363 184.677528 
L 200.951363 184.677528 
L 200.951363 179.677528 
L 195.951363 179.677528 
z
" clip-path="url(#pe5c4f2a3f7)" style="fill: #ffffff; stroke: #000000; stroke-width: 0.4"/>
    <path d="M 193.755528 185.099672 
L 198.755528 185.099672 
L 198.755528 180.099672 
L 193.755528 180.099672 
z
" clip-path="url(#pe5c4f2a3f7)" style="fill: #ffffff; stroke: #000000; stroke-width: 0.4"/>
   </g>
   <g id="PathCollection_43">
    <path d="M 204.522632 181.35256 
L 209.522632 181.35256 
L 209.522632 176.35256 
L 204.522632 176.35256 
z
" clip-path="url(#pe5c4f2a3f7)" style="fill: #ffffff; stroke: #000000; stroke-width: 0.4"/>
    <path d="M 205.934163 179.796311 
L 210.934163 179.796311 
L 210.934163 174.796311 
L 205.934163 174.796311 
z
" clip-path="url(#pe5c4f2a3f7)" style="fill: #ffffff; stroke: #000000; stroke-width: 0.4"/>
   </g>
   <g id="PathCollection_44">
    <path d="M 216.256034 183.432529 
L 221.256034 183.432529 
L 221.256034 178.432529 
L 216.256034 178.432529 
z
" clip-path="url(#pe5c4f2a3f7)" style="fill: #ffffff; stroke: #000000; stroke-width: 0.4"/>
    <path d="M 216.319616 182.70193 
L 221.319616 182.70193 
L 221.319616 177.70193 
L 216.319616 177.70193 
z
" clip-path="url(#pe5c4f2a3f7)" style="fill: #ffffff; stroke: #000000; stroke-width: 0.4"/>
   </g>
   <g id="PathCollection_45">
    <path d="M 76.47284 181.921975 
L 73.97284 186.921975 
L 78.97284 186.921975 
z
" clip-path="url(#pe5c4f2a3f7)" style="fill: #ffffff; stroke: #000000; stroke-width: 0.4"/>
    <path d="M 77.013403 181.868857 
L 74.513403 186.868857 
L 79.513403 186.868857 
z
" clip-path="url(#pe5c4f2a3f7)" style="fill: #ffffff; stroke: #000000; stroke-width: 0.4"/>
    <path d="M 78.383028 181.991866 
L 75.883028 186.991866 
L 80.883028 186.991866 
z
" clip-path="url(#pe5c4f2a3f7)" style="fill: #ffffff; stroke: #000000; stroke-width: 0.4"/>
    <path d="M 77.725263 182.133979 
L 75.225263 187.133979 
L 80.225263 187.133979 
z
" clip-path="url(#pe5c4f2a3f7)" style="fill: #ffffff; stroke: #000000; stroke-width: 0.4"/>
   </g>
   <g id="PathCollection_46">
    <path d="M 87.214262 179.388643 
L 84.714262 184.388643 
L 89.714262 184.388643 
z
" clip-path="url(#pe5c4f2a3f7)" style="fill: #ffffff; stroke: #000000; stroke-width: 0.4"/>
    <path d="M 88.514655 179.380256 
L 86.014655 184.380256 
L 91.014655 184.380256 
z
" clip-path="url(#pe5c4f2a3f7)" style="fill: #ffffff; stroke: #000000; stroke-width: 0.4"/>
    <path d="M 89.789191 178.336544 
L 87.289191 183.336544 
L 92.289191 183.336544 
z
" clip-path="url(#pe5c4f2a3f7)" style="fill: #ffffff; stroke: #000000; stroke-width: 0.4"/>
    <path d="M 87.348511 179.707348 
L 84.848511 184.707348 
L 89.848511 184.707348 
z
" clip-path="url(#pe5c4f2a3f7)" style="fill: #ffffff; stroke: #000000; stroke-width: 0.4"/>
   </g>
   <g id="PathCollection_47">
    <path d="M 100.346103 168.235835 
L 97.846103 173.235835 
L 102.846103 173.235835 
z
" clip-path="url(#pe5c4f2a3f7)" style="fill: #ffffff; stroke: #000000; stroke-width: 0.4"/>
    <path d="M 99.824137 171.081814 
L 97.324137 176.081814 
L 102.324137 176.081814 
z
" clip-path="url(#pe5c4f2a3f7)" style="fill: #ffffff; stroke: #000000; stroke-width: 0.4"/>
    <path d="M 99.152933 164.927641 
L 96.652933 169.927641 
L 101.652933 169.927641 
z
" clip-path="url(#pe5c4f2a3f7)" style="fill: #ffffff; stroke: #000000; stroke-width: 0.4"/>
    <path d="M 98.694659 165.071151 
L 96.194659 170.071151 
L 101.194659 170.071151 
z
" clip-path="url(#pe5c4f2a3f7)" style="fill: #ffffff; stroke: #000000; stroke-width: 0.4"/>
   </g>
   <g id="PathCollection_48">
    <path d="M 109.500442 157.644022 
L 107.000442 162.644022 
L 112.000442 162.644022 
z
" clip-path="url(#pe5c4f2a3f7)" style="fill: #ffffff; stroke: #000000; stroke-width: 0.4"/>
    <path d="M 108.888529 172.315631 
L 106.388529 177.315631 
L 111.388529 177.315631 
z
" clip-path="url(#pe5c4f2a3f7)" style="fill: #ffffff; stroke: #000000; stroke-width: 0.4"/>
    <path d="M 109.709675 169.769719 
L 107.209675 174.769719 
L 112.209675 174.769719 
z
" clip-path="url(#pe5c4f2a3f7)" style="fill: #ffffff; stroke: #000000; stroke-width: 0.4"/>
    <path d="M 110.872348 176.494206 
L 108.372348 181.494206 
L 113.372348 181.494206 
z
" clip-path="url(#pe5c4f2a3f7)" style="fill: #ffffff; stroke: #000000; stroke-width: 0.4"/>
   </g>
   <g id="PathCollection_49">
    <path d="M 131.785721 178.475861 
L 129.285721 183.475861 
L 134.285721 183.475861 
z
" clip-path="url(#pe5c4f2a3f7)" style="fill: #ffffff; stroke: #000000; stroke-width: 0.4"/>
    <path d="M 132.297967 178.548548 
L 129.797967 183.548548 
L 134.797967 183.548548 
z
" clip-path="url(#pe5c4f2a3f7)" style="fill: #ffffff; stroke: #000000; stroke-width: 0.4"/>
    <path d="M 132.788388 179.450614 
L 130.288388 184.450614 
L 135.288388 184.450614 
z
" clip-path="url(#pe5c4f2a3f7)" style="fill: #ffffff; stroke: #000000; stroke-width: 0.4"/>
    <path d="M 132.168378 178.651988 
L 129.668378 183.651988 
L 134.668378 183.651988 
z
" clip-path="url(#pe5c4f2a3f7)" style="fill: #ffffff; stroke: #000000; stroke-width: 0.4"/>
   </g>
   <g id="PathCollection_50">
    <path d="M 144.111532 171.010991 
L 141.611532 176.010991 
L 146.611532 176.010991 
z
" clip-path="url(#pe5c4f2a3f7)" style="fill: #ffffff; stroke: #000000; stroke-width: 0.4"/>
    <path d="M 143.990828 171.032424 
L 141.490828 176.032424 
L 146.490828 176.032424 
z
" clip-path="url(#pe5c4f2a3f7)" style="fill: #ffffff; stroke: #000000; stroke-width: 0.4"/>
    <path d="M 142.872706 172.308176 
L 140.372706 177.308176 
L 145.372706 177.308176 
z
" clip-path="url(#pe5c4f2a3f7)" style="fill: #ffffff; stroke: #000000; stroke-width: 0.4"/>
    <path d="M 143.699663 170.969988 
L 141.199663 175.969988 
L 146.199663 175.969988 
z
" clip-path="url(#pe5c4f2a3f7)" style="fill: #ffffff; stroke: #000000; stroke-width: 0.4"/>
   </g>
   <g id="PathCollection_51">
    <path d="M 152.454917 148.472403 
L 149.954917 153.472403 
L 154.954917 153.472403 
z
" clip-path="url(#pe5c4f2a3f7)" style="fill: #ffffff; stroke: #000000; stroke-width: 0.4"/>
    <path d="M 152.507817 159.537614 
L 150.007817 164.537614 
L 155.007817 164.537614 
z
" clip-path="url(#pe5c4f2a3f7)" style="fill: #ffffff; stroke: #000000; stroke-width: 0.4"/>
    <path d="M 154.922887 148.463084 
L 152.422887 153.463084 
L 157.422887 153.463084 
z
" clip-path="url(#pe5c4f2a3f7)" style="fill: #ffffff; stroke: #000000; stroke-width: 0.4"/>
    <path d="M 154.157713 148.492904 
L 151.657713 153.492904 
L 156.657713 153.492904 
z
" clip-path="url(#pe5c4f2a3f7)" style="fill: #ffffff; stroke: #000000; stroke-width: 0.4"/>
   </g>
   <g id="PathCollection_52">
    <path d="M 163.607404 168.062504 
L 161.107404 173.062504 
L 166.107404 173.062504 
z
" clip-path="url(#pe5c4f2a3f7)" style="fill: #ffffff; stroke: #000000; stroke-width: 0.4"/>
    <path d="M 163.381989 163.7311 
L 160.881989 168.7311 
L 165.881989 168.7311 
z
" clip-path="url(#pe5c4f2a3f7)" style="fill: #ffffff; stroke: #000000; stroke-width: 0.4"/>
    <path d="M 164.287261 172.461005 
L 161.787261 177.461005 
L 166.787261 177.461005 
z
" clip-path="url(#pe5c4f2a3f7)" style="fill: #ffffff; stroke: #000000; stroke-width: 0.4"/>
    <path d="M 165.630167 170.962533 
L 163.130167 175.962533 
L 168.130167 175.962533 
z
" clip-path="url(#pe5c4f2a3f7)" style="fill: #ffffff; stroke: #000000; stroke-width: 0.4"/>
   </g>
   <g id="PathCollection_53">
    <path d="M 0 217.974063 
L -1 219.974063 
M 1.75 221.474063 
L 0 217.974063 
" clip-path="url(#pe5c4f2a3f7)" style="fill: none; stroke: #000000; stroke-width: 0.4"/>
   </g>
   <g id="PathCollection_54">
    <path d="M 0 217.974063 
L -1 219.974063 
M 1.75 221.474063 
L 0 217.974063 
" clip-path="url(#pe5c4f2a3f7)" style="fill: none; stroke: #000000; stroke-width: 0.4"/>
   </g>
   <g id="PathCollection_55">
    <path d="M 0 217.974063 
L -1 219.974063 
M 1.75 221.474063 
L 0 217.974063 
" clip-path="url(#pe5c4f2a3f7)" style="fill: none; stroke: #000000; stroke-width: 0.4"/>
   </g>
   <g id="PathCollection_56">
    <path d="M 0 217.974063 
L -1 219.974063 
M 1.75 221.474063 
L 0 217.974063 
" clip-path="url(#pe5c4f2a3f7)" style="fill: none; stroke: #000000; stroke-width: 0.4"/>
   </g>
   <g id="PathCollection_57">
    <path d="M 78.22131 184.460142 
L 81.756844 180.924608 
L 78.22131 177.389074 
L 74.685776 180.924608 
z
" clip-path="url(#pe5c4f2a3f7)" style="fill: #ffffff; stroke: #000000; stroke-width: 0.4"/>
    <path d="M 77.033813 185.930191 
L 80.569347 182.394657 
L 77.033813 178.859123 
L 73.498279 182.394657 
z
" clip-path="url(#pe5c4f2a3f7)" style="fill: #ffffff; stroke: #000000; stroke-width: 0.4"/>
    <path d="M 78.199264 185.821627 
L 81.734798 182.286093 
L 78.199264 178.750559 
L 74.66373 182.286093 
z
" clip-path="url(#pe5c4f2a3f7)" style="fill: #ffffff; stroke: #000000; stroke-width: 0.4"/>
   </g>
   <g id="PathCollection_58">
    <path d="M 88.098282 175.585328 
L 91.633816 172.049794 
L 88.098282 168.51426 
L 84.562748 172.049794 
z
" clip-path="url(#pe5c4f2a3f7)" style="fill: #ffffff; stroke: #000000; stroke-width: 0.4"/>
    <path d="M 88.342756 174.194023 
L 91.87829 170.658489 
L 88.342756 167.122955 
L 84.807222 170.658489 
z
" clip-path="url(#pe5c4f2a3f7)" style="fill: #ffffff; stroke: #000000; stroke-width: 0.4"/>
    <path d="M 89.384652 177.997048 
L 92.920185 174.461514 
L 89.384652 170.92598 
L 85.849118 174.461514 
z
" clip-path="url(#pe5c4f2a3f7)" style="fill: #ffffff; stroke: #000000; stroke-width: 0.4"/>
   </g>
   <g id="PathCollection_59">
    <path d="M 100.004748 159.884917 
L 103.540282 156.349384 
L 100.004748 152.81385 
L 96.469215 156.349384 
z
" clip-path="url(#pe5c4f2a3f7)" style="fill: #ffffff; stroke: #000000; stroke-width: 0.4"/>
    <path d="M 100.632848 165.375588 
L 104.168382 161.840054 
L 100.632848 158.30452 
L 97.097314 161.840054 
z
" clip-path="url(#pe5c4f2a3f7)" style="fill: #ffffff; stroke: #000000; stroke-width: 0.4"/>
    <path d="M 98.847568 158.310031 
L 102.383101 154.774497 
L 98.847568 151.238963 
L 95.312034 154.774497 
z
" clip-path="url(#pe5c4f2a3f7)" style="fill: #ffffff; stroke: #000000; stroke-width: 0.4"/>
   </g>
   <g id="PathCollection_60">
    <path d="M 2.535534 221.474063 
L 3.535534 220.474063 
L 0 216.938529 
L -1 217.938529 
" clip-path="url(#pe5c4f2a3f7)" style="fill: none; stroke: #000000; stroke-width: 0.4"/>
   </g>
   <g id="PathCollection_61">
    <path d="M 132.657364 178.550122 
L 136.192898 175.014588 
L 132.657364 171.479055 
L 129.12183 175.014588 
z
" clip-path="url(#pe5c4f2a3f7)" style="fill: #ffffff; stroke: #000000; stroke-width: 0.4"/>
    <path d="M 132.476689 174.269971 
L 136.012223 170.734437 
L 132.476689 167.198903 
L 128.941155 170.734437 
z
" clip-path="url(#pe5c4f2a3f7)" style="fill: #ffffff; stroke: #000000; stroke-width: 0.4"/>
    <path d="M 132.343471 180.079813 
L 135.879005 176.544279 
L 132.343471 173.008745 
L 128.807937 176.544279 
z
" clip-path="url(#pe5c4f2a3f7)" style="fill: #ffffff; stroke: #000000; stroke-width: 0.4"/>
   </g>
   <g id="PathCollection_62">
    <path d="M 143.416107 158.147882 
L 146.951641 154.612349 
L 143.416107 151.076815 
L 139.880573 154.612349 
z
" clip-path="url(#pe5c4f2a3f7)" style="fill: #ffffff; stroke: #000000; stroke-width: 0.4"/>
    <path d="M 142.466869 152.452197 
L 146.002403 148.916663 
L 142.466869 145.381129 
L 138.931336 148.916663 
z
" clip-path="url(#pe5c4f2a3f7)" style="fill: #ffffff; stroke: #000000; stroke-width: 0.4"/>
    <path d="M 144.14452 156.42669 
L 147.680054 152.891156 
L 144.14452 149.355622 
L 140.608986 152.891156 
z
" clip-path="url(#pe5c4f2a3f7)" style="fill: #ffffff; stroke: #000000; stroke-width: 0.4"/>
   </g>
   <g id="PathCollection_63">
    <path d="M 153.276384 148.771248 
L 156.811918 145.235714 
L 153.276384 141.700181 
L 149.74085 145.235714 
z
" clip-path="url(#pe5c4f2a3f7)" style="fill: #ffffff; stroke: #000000; stroke-width: 0.4"/>
    <path d="M 152.980691 137.527115 
L 156.516225 133.991581 
L 152.980691 130.456048 
L 149.445157 133.991581 
z
" clip-path="url(#pe5c4f2a3f7)" style="fill: #ffffff; stroke: #000000; stroke-width: 0.4"/>
    <path d="M 153.844328 143.062517 
L 157.379862 139.526983 
L 153.844328 135.991449 
L 150.308794 139.526983 
z
" clip-path="url(#pe5c4f2a3f7)" style="fill: #ffffff; stroke: #000000; stroke-width: 0.4"/>
   </g>
   <g id="PathCollection_64">
    <path d="M 2.535534 221.474063 
L 3.535534 220.474063 
L 0 216.938529 
L -1 217.938529 
" clip-path="url(#pe5c4f2a3f7)" style="fill: none; stroke: #000000; stroke-width: 0.4"/>
   </g>
   <g id="PathCollection_65">
    <path d="M 2.535534 221.474063 
L 3.535534 220.474063 
L 0 216.938529 
L -1 217.938529 
" clip-path="url(#pe5c4f2a3f7)" style="fill: none; stroke: #000000; stroke-width: 0.4"/>
   </g>
   <g id="PathCollection_66">
    <path d="M 2.535534 221.474063 
L 3.535534 220.474063 
L 0 216.938529 
L -1 217.938529 
" clip-path="url(#pe5c4f2a3f7)" style="fill: none; stroke: #000000; stroke-width: 0.4"/>
   </g>
   <g id="PathCollection_67">
    <path d="M 2.535534 221.474063 
L 3.535534 220.474063 
L 0 216.938529 
L -1 217.938529 
" clip-path="url(#pe5c4f2a3f7)" style="fill: none; stroke: #000000; stroke-width: 0.4"/>
   </g>
   <g id="PathCollection_68">
    <path d="M 2.535534 221.474063 
L 3.535534 220.474063 
L 0 216.938529 
L -1 217.938529 
" clip-path="url(#pe5c4f2a3f7)" style="fill: none; stroke: #000000; stroke-width: 0.4"/>
   </g>
   <g id="PathCollection_69">
    <defs>
     <path id="Cc_0_23e2b8de1c" d="M -0.833333 2.5 
L 0.833333 2.5 
L 0.833333 0.833333 
L 2.5 0.833333 
L 2.5 -0.833333 
L 0.833333 -0.833333 
L 0.833333 -2.5 
L -0.833333 -2.5 
L -0.833333 -0.833333 
L -2.5 -0.833333 
L -2.5 0.833333 
L -0.833333 0.833333 
z
"/>
    </defs>
    <g clip-path="url(#pe5c4f2a3f7)">
     <use xlink:href="#Cc_0_23e2b8de1c" x="77.952338" y="183.302314" style="fill: #ffffff; stroke: #000000; stroke-width: 0.4"/>
    </g>
    <g clip-path="url(#pe5c4f2a3f7)">
     <use xlink:href="#Cc_0_23e2b8de1c" x="78.509537" y="183.616825" style="fill: #ffffff; stroke: #000000; stroke-width: 0.4"/>
    </g>
    <g clip-path="url(#pe5c4f2a3f7)">
     <use xlink:href="#Cc_0_23e2b8de1c" x="77.289755" y="183.283676" style="fill: #ffffff; stroke: #000000; stroke-width: 0.4"/>
    </g>
   </g>
   <g id="PathCollection_70">
    <defs>
     <path id="Cd_0_65e340fbfb" d="M -0.833333 2.5 
L 0.833333 2.5 
L 0.833333 0.833333 
L 2.5 0.833333 
L 2.5 -0.833333 
L 0.833333 -0.833333 
L 0.833333 -2.5 
L -0.833333 -2.5 
L -0.833333 -0.833333 
L -2.5 -0.833333 
L -2.5 0.833333 
L -0.833333 0.833333 
z
"/>
    </defs>
    <g clip-path="url(#pe5c4f2a3f7)">
     <use xlink:href="#Cd_0_65e340fbfb" x="88.656584" y="178.218877" style="fill: #ffffff; stroke: #000000; stroke-width: 0.4"/>
    </g>
    <g clip-path="url(#pe5c4f2a3f7)">
     <use xlink:href="#Cd_0_65e340fbfb" x="89.294744" y="177.704477" style="fill: #ffffff; stroke: #000000; stroke-width: 0.4"/>
    </g>
    <g clip-path="url(#pe5c4f2a3f7)">
     <use xlink:href="#Cd_0_65e340fbfb" x="89.772638" y="178.592564" style="fill: #ffffff; stroke: #000000; stroke-width: 0.4"/>
    </g>
   </g>
   <g id="PathCollection_71">
    <defs>
     <path id="Ce_0_1d1708b62f" d="M -0.833333 2.5 
L 0.833333 2.5 
L 0.833333 0.833333 
L 2.5 0.833333 
L 2.5 -0.833333 
L 0.833333 -0.833333 
L 0.833333 -2.5 
L -0.833333 -2.5 
L -0.833333 -0.833333 
L -2.5 -0.833333 
L -2.5 0.833333 
L -0.833333 0.833333 
z
"/>
    </defs>
    <g clip-path="url(#pe5c4f2a3f7)">
     <use xlink:href="#Ce_0_1d1708b62f" x="100.269604" y="164.184679" style="fill: #ffffff; stroke: #000000; stroke-width: 0.4"/>
    </g>
    <g clip-path="url(#pe5c4f2a3f7)">
     <use xlink:href="#Ce_0_1d1708b62f" x="98.294468" y="160.872757" style="fill: #ffffff; stroke: #000000; stroke-width: 0.4"/>
    </g>
    <g clip-path="url(#pe5c4f2a3f7)">
     <use xlink:href="#Ce_0_1d1708b62f" x="99.222831" y="170.894256" style="fill: #ffffff; stroke: #000000; stroke-width: 0.4"/>
    </g>
   </g>
   <g id="PathCollection_72">
    <defs>
     <path id="Cf_0_3510719da7" d="M -0.833333 2.5 
L 0.833333 2.5 
L 0.833333 0.833333 
L 2.5 0.833333 
L 2.5 -0.833333 
L 0.833333 -0.833333 
L 0.833333 -2.5 
L -0.833333 -2.5 
L -0.833333 -0.833333 
L -2.5 -0.833333 
L -2.5 0.833333 
L -0.833333 0.833333 
z
"/>
    </defs>
    <g clip-path="url(#pe5c4f2a3f7)">
     <use xlink:href="#Cf_0_3510719da7" x="108.982042" y="140.36568" style="fill: #ffffff; stroke: #000000; stroke-width: 0.4"/>
    </g>
    <g clip-path="url(#pe5c4f2a3f7)">
     <use xlink:href="#Cf_0_3510719da7" x="109.85673" y="151.350749" style="fill: #ffffff; stroke: #000000; stroke-width: 0.4"/>
    </g>
    <g clip-path="url(#pe5c4f2a3f7)">
     <use xlink:href="#Cf_0_3510719da7" x="111.350138" y="171.23719" style="fill: #ffffff; stroke: #000000; stroke-width: 0.4"/>
    </g>
   </g>
   <g id="PathCollection_73">
    <defs>
     <path id="C10_0_0fd0ea0a65" d="M -0.833333 2.5 
L 0.833333 2.5 
L 0.833333 0.833333 
L 2.5 0.833333 
L 2.5 -0.833333 
L 0.833333 -0.833333 
L 0.833333 -2.5 
L -0.833333 -2.5 
L -0.833333 -0.833333 
L -2.5 -0.833333 
L -2.5 0.833333 
L -0.833333 0.833333 
z
"/>
    </defs>
    <g clip-path="url(#pe5c4f2a3f7)">
     <use xlink:href="#C10_0_0fd0ea0a65" x="132.72715" y="179.840825" style="fill: #ffffff; stroke: #000000; stroke-width: 0.4"/>
    </g>
    <g clip-path="url(#pe5c4f2a3f7)">
     <use xlink:href="#C10_0_0fd0ea0a65" x="130.640152" y="182.565192" style="fill: #ffffff; stroke: #000000; stroke-width: 0.4"/>
    </g>
    <g clip-path="url(#pe5c4f2a3f7)">
     <use xlink:href="#C10_0_0fd0ea0a65" x="131.21936" y="182.565192" style="fill: #ffffff; stroke: #000000; stroke-width: 0.4"/>
    </g>
   </g>
   <g id="PathCollection_74">
    <defs>
     <path id="C11_0_7b10a35535" d="M -0.833333 2.5 
L 0.833333 2.5 
L 0.833333 0.833333 
L 2.5 0.833333 
L 2.5 -0.833333 
L 0.833333 -0.833333 
L 0.833333 -2.5 
L -0.833333 -2.5 
L -0.833333 -0.833333 
L -2.5 -0.833333 
L -2.5 0.833333 
L -0.833333 0.833333 
z
"/>
    </defs>
    <g clip-path="url(#pe5c4f2a3f7)">
     <use xlink:href="#C11_0_7b10a35535" x="141.838499" y="164.83793" style="fill: #ffffff; stroke: #000000; stroke-width: 0.4"/>
    </g>
    <g clip-path="url(#pe5c4f2a3f7)">
     <use xlink:href="#C11_0_7b10a35535" x="143.820199" y="162.142917" style="fill: #ffffff; stroke: #000000; stroke-width: 0.4"/>
    </g>
    <g clip-path="url(#pe5c4f2a3f7)">
     <use xlink:href="#C11_0_7b10a35535" x="143.380174" y="167.55065" style="fill: #ffffff; stroke: #000000; stroke-width: 0.4"/>
    </g>
   </g>
   <g id="PathCollection_75">
    <defs>
     <path id="C12_0_1243abd032" d="M -0.833333 2.5 
L 0.833333 2.5 
L 0.833333 0.833333 
L 2.5 0.833333 
L 2.5 -0.833333 
L 0.833333 -0.833333 
L 0.833333 -2.5 
L -0.833333 -2.5 
L -0.833333 -0.833333 
L -2.5 -0.833333 
L -2.5 0.833333 
L -0.833333 0.833333 
z
"/>
    </defs>
    <g clip-path="url(#pe5c4f2a3f7)">
     <use xlink:href="#C12_0_1243abd032" x="153.06132" y="146.124733" style="fill: #ffffff; stroke: #000000; stroke-width: 0.4"/>
    </g>
    <g clip-path="url(#pe5c4f2a3f7)">
     <use xlink:href="#C12_0_1243abd032" x="153.78755" y="145.681156" style="fill: #ffffff; stroke: #000000; stroke-width: 0.4"/>
    </g>
    <g clip-path="url(#pe5c4f2a3f7)">
     <use xlink:href="#C12_0_1243abd032" x="154.133506" y="116.930618" style="fill: #ffffff; stroke: #000000; stroke-width: 0.4"/>
    </g>
   </g>
   <g id="PathCollection_76">
    <defs>
     <path id="C13_0_5a63a39774" d="M -0.833333 2.5 
L 0.833333 2.5 
L 0.833333 0.833333 
L 2.5 0.833333 
L 2.5 -0.833333 
L 0.833333 -0.833333 
L 0.833333 -2.5 
L -0.833333 -2.5 
L -0.833333 -0.833333 
L -2.5 -0.833333 
L -2.5 0.833333 
L -0.833333 0.833333 
z
"/>
    </defs>
    <g clip-path="url(#pe5c4f2a3f7)">
     <use xlink:href="#C13_0_5a63a39774" x="163.871138" y="69.117426" style="fill: #ffffff; stroke: #000000; stroke-width: 0.4"/>
    </g>
    <g clip-path="url(#pe5c4f2a3f7)">
     <use xlink:href="#C13_0_5a63a39774" x="165.032849" y="71.950358" style="fill: #ffffff; stroke: #000000; stroke-width: 0.4"/>
    </g>
    <g clip-path="url(#pe5c4f2a3f7)">
     <use xlink:href="#C13_0_5a63a39774" x="165.773269" y="136.947523" style="fill: #ffffff; stroke: #000000; stroke-width: 0.4"/>
    </g>
   </g>
   <g id="PathCollection_77">
    <defs>
     <path id="C14_0_fbb037fec9" d="M -0.833333 2.5 
L 0.833333 2.5 
L 0.833333 0.833333 
L 2.5 0.833333 
L 2.5 -0.833333 
L 0.833333 -0.833333 
L 0.833333 -2.5 
L -0.833333 -2.5 
L -0.833333 -0.833333 
L -2.5 -0.833333 
L -2.5 0.833333 
L -0.833333 0.833333 
z
"/>
    </defs>
    <g clip-path="url(#pe5c4f2a3f7)">
     <use xlink:href="#C14_0_fbb037fec9" x="185.922302" y="185.302607" style="fill: #ffffff; stroke: #000000; stroke-width: 0.4"/>
    </g>
    <g clip-path="url(#pe5c4f2a3f7)">
     <use xlink:href="#C14_0_fbb037fec9" x="186.292425" y="185.192644" style="fill: #ffffff; stroke: #000000; stroke-width: 0.4"/>
    </g>
    <g clip-path="url(#pe5c4f2a3f7)">
     <use xlink:href="#C14_0_fbb037fec9" x="187.238941" y="185.282571" style="fill: #ffffff; stroke: #000000; stroke-width: 0.4"/>
    </g>
   </g>
   <g id="PathCollection_78">
    <defs>
     <path id="C15_0_cadbd14c2e" d="M -0.833333 2.5 
L 0.833333 2.5 
L 0.833333 0.833333 
L 2.5 0.833333 
L 2.5 -0.833333 
L 0.833333 -0.833333 
L 0.833333 -2.5 
L -0.833333 -2.5 
L -0.833333 -0.833333 
L -2.5 -0.833333 
L -2.5 0.833333 
L -0.833333 0.833333 
z
"/>
    </defs>
    <g clip-path="url(#pe5c4f2a3f7)">
     <use xlink:href="#C15_0_cadbd14c2e" x="196.176454" y="185.07942" style="fill: #ffffff; stroke: #000000; stroke-width: 0.4"/>
    </g>
    <g clip-path="url(#pe5c4f2a3f7)">
     <use xlink:href="#C15_0_cadbd14c2e" x="197.952129" y="185.005801" style="fill: #ffffff; stroke: #000000; stroke-width: 0.4"/>
    </g>
    <g clip-path="url(#pe5c4f2a3f7)">
     <use xlink:href="#C15_0_cadbd14c2e" x="198.052254" y="184.879997" style="fill: #ffffff; stroke: #000000; stroke-width: 0.4"/>
    </g>
   </g>
   <g id="PathCollection_79">
    <defs>
     <path id="C16_0_178cb1d541" d="M -0.833333 2.5 
L 0.833333 2.5 
L 0.833333 0.833333 
L 2.5 0.833333 
L 2.5 -0.833333 
L 0.833333 -0.833333 
L 0.833333 -2.5 
L -0.833333 -2.5 
L -0.833333 -0.833333 
L -2.5 -0.833333 
L -2.5 0.833333 
L -0.833333 0.833333 
z
"/>
    </defs>
    <g clip-path="url(#pe5c4f2a3f7)">
     <use xlink:href="#C16_0_178cb1d541" x="208.970982" y="184.969458" style="fill: #ffffff; stroke: #000000; stroke-width: 0.4"/>
    </g>
    <g clip-path="url(#pe5c4f2a3f7)">
     <use xlink:href="#C16_0_178cb1d541" x="209.025902" y="185.137197" style="fill: #ffffff; stroke: #000000; stroke-width: 0.4"/>
    </g>
    <g clip-path="url(#pe5c4f2a3f7)">
     <use xlink:href="#C16_0_178cb1d541" x="206.671018" y="185.155835" style="fill: #ffffff; stroke: #000000; stroke-width: 0.4"/>
    </g>
   </g>
   <g id="PathCollection_80">
    <defs>
     <path id="C17_0_e8a99b1ab8" d="M -0.833333 2.5 
L 0.833333 2.5 
L 0.833333 0.833333 
L 2.5 0.833333 
L 2.5 -0.833333 
L 0.833333 -0.833333 
L 0.833333 -2.5 
L -0.833333 -2.5 
L -0.833333 -0.833333 
L -2.5 -0.833333 
L -2.5 0.833333 
L -0.833333 0.833333 
z
"/>
    </defs>
    <g clip-path="url(#pe5c4f2a3f7)">
     <use xlink:href="#C17_0_e8a99b1ab8" x="219.950337" y="185.029098" style="fill: #ffffff; stroke: #000000; stroke-width: 0.4"/>
    </g>
    <g clip-path="url(#pe5c4f2a3f7)">
     <use xlink:href="#C17_0_e8a99b1ab8" x="219.755653" y="185.327302" style="fill: #ffffff; stroke: #000000; stroke-width: 0.4"/>
    </g>
    <g clip-path="url(#pe5c4f2a3f7)">
     <use xlink:href="#C17_0_e8a99b1ab8" x="218.066807" y="185.372032" style="fill: #ffffff; stroke: #000000; stroke-width: 0.4"/>
    </g>
   </g>
   <g id="text_13">
    <!-- * -->
    <g transform="translate(102.245418 38.473617)scale(0.1 -0.1)">
     <defs>
      <path id="DejaVuSans-2a" d="M 3009 3897 
L 1888 3291 
L 3009 2681 
L 2828 2375 
L 1778 3009 
L 1778 1831 
L 1422 1831 
L 1422 3009 
L 372 2375 
L 191 2681 
L 1313 3291 
L 191 3897 
L 372 4206 
L 1422 3572 
L 1422 4750 
L 1778 4750 
L 1778 3572 
L 2828 4206 
L 3009 3897 
z
" transform="scale(0.015625)"/>
     </defs>
     <use xlink:href="#DejaVuSans-2a"/>
    </g>
   </g>
   <g id="text_14">
    <!-- ** -->
    <g transform="translate(175.836327 63.079128)scale(0.1 -0.1)">
     <use xlink:href="#DejaVuSans-2a"/>
     <use xlink:href="#DejaVuSans-2a" x="50"/>
    </g>
   </g>
   <g id="text_15">
    <!-- ns -->
    <g transform="translate(120.71224 15.558719)scale(0.1 -0.1)">
     <defs>
      <path id="DejaVuSans-73" d="M 2834 3397 
L 2834 2853 
Q 2591 2978 2328 3040 
Q 2066 3103 1784 3103 
Q 1356 3103 1142 2972 
Q 928 2841 928 2578 
Q 928 2378 1081 2264 
Q 1234 2150 1697 2047 
L 1894 2003 
Q 2506 1872 2764 1633 
Q 3022 1394 3022 966 
Q 3022 478 2636 193 
Q 2250 -91 1575 -91 
Q 1294 -91 989 -36 
Q 684 19 347 128 
L 347 722 
Q 666 556 975 473 
Q 1284 391 1588 391 
Q 1994 391 2212 530 
Q 2431 669 2431 922 
Q 2431 1156 2273 1281 
Q 2116 1406 1581 1522 
L 1381 1569 
Q 847 1681 609 1914 
Q 372 2147 372 2553 
Q 372 3047 722 3315 
Q 1072 3584 1716 3584 
Q 2034 3584 2315 3537 
Q 2597 3491 2834 3397 
z
" transform="scale(0.015625)"/>
     </defs>
     <use xlink:href="#DejaVuSans-6e"/>
     <use xlink:href="#DejaVuSans-73" x="63.378906"/>
    </g>
   </g>
   <g id="text_16">
    <!-- 14 dpi, + DDRR -->
    <g transform="translate(101.0725 16.318125)scale(0.12 -0.12)">
     <defs>
      <path id="DejaVuSans-34" d="M 2419 4116 
L 825 1625 
L 2419 1625 
L 2419 4116 
z
M 2253 4666 
L 3047 4666 
L 3047 1625 
L 3713 1625 
L 3713 1100 
L 3047 1100 
L 3047 0 
L 2419 0 
L 2419 1100 
L 313 1100 
L 313 1709 
L 2253 4666 
z
" transform="scale(0.015625)"/>
      <path id="DejaVuSans-2c" d="M 750 794 
L 1409 794 
L 1409 256 
L 897 -744 
L 494 -744 
L 750 256 
L 750 794 
z
" transform="scale(0.015625)"/>
      <path id="DejaVuSans-44" d="M 1259 4147 
L 1259 519 
L 2022 519 
Q 2988 519 3436 956 
Q 3884 1394 3884 2338 
Q 3884 3275 3436 3711 
Q 2988 4147 2022 4147 
L 1259 4147 
z
M 628 4666 
L 1925 4666 
Q 3281 4666 3915 4102 
Q 4550 3538 4550 2338 
Q 4550 1131 3912 565 
Q 3275 0 1925 0 
L 628 0 
L 628 4666 
z
" transform="scale(0.015625)"/>
      <path id="DejaVuSans-52" d="M 2841 2188 
Q 3044 2119 3236 1894 
Q 3428 1669 3622 1275 
L 4263 0 
L 3584 0 
L 2988 1197 
Q 2756 1666 2539 1819 
Q 2322 1972 1947 1972 
L 1259 1972 
L 1259 0 
L 628 0 
L 628 4666 
L 2053 4666 
Q 2853 4666 3247 4331 
Q 3641 3997 3641 3322 
Q 3641 2881 3436 2590 
Q 3231 2300 2841 2188 
z
M 1259 4147 
L 1259 2491 
L 2053 2491 
Q 2509 2491 2742 2702 
Q 2975 2913 2975 3322 
Q 2975 3731 2742 3939 
Q 2509 4147 2053 4147 
L 1259 4147 
z
" transform="scale(0.015625)"/>
     </defs>
     <use xlink:href="#DejaVuSans-31"/>
     <use xlink:href="#DejaVuSans-34" x="63.623047"/>
     <use xlink:href="#DejaVuSans-20" x="127.246094"/>
     <use xlink:href="#DejaVuSans-64" x="159.033203"/>
     <use xlink:href="#DejaVuSans-70" x="222.509766"/>
     <use xlink:href="#DejaVuSans-69" x="285.986328"/>
     <use xlink:href="#DejaVuSans-2c" x="313.769531"/>
     <use xlink:href="#DejaVuSans-20" x="345.556641"/>
     <use xlink:href="#DejaVuSans-2b" x="377.34375"/>
     <use xlink:href="#DejaVuSans-20" x="461.132812"/>
     <use xlink:href="#DejaVuSans-44" x="492.919922"/>
     <use xlink:href="#DejaVuSans-44" x="569.921875"/>
     <use xlink:href="#DejaVuSans-52" x="646.923828"/>
     <use xlink:href="#DejaVuSans-52" x="716.40625"/>
    </g>
   </g>
   <g id="legend_1">
    <g id="text_17">
     <!-- Init. seed -->
     <g transform="translate(245.850938 38.916562)scale(0.1 -0.1)">
      <defs>
       <path id="DejaVuSans-2e" d="M 684 794 
L 1344 794 
L 1344 0 
L 684 0 
L 684 794 
z
" transform="scale(0.015625)"/>
      </defs>
      <use xlink:href="#DejaVuSans-49"/>
      <use xlink:href="#DejaVuSans-6e" x="29.492188"/>
      <use xlink:href="#DejaVuSans-69" x="92.871094"/>
      <use xlink:href="#DejaVuSans-74" x="120.654297"/>
      <use xlink:href="#DejaVuSans-2e" x="159.863281"/>
      <use xlink:href="#DejaVuSans-20" x="191.650391"/>
      <use xlink:href="#DejaVuSans-73" x="223.4375"/>
      <use xlink:href="#DejaVuSans-65" x="275.537109"/>
      <use xlink:href="#DejaVuSans-65" x="337.060547"/>
      <use xlink:href="#DejaVuSans-64" x="398.583984"/>
     </g>
    </g>
    <g id="patch_19">
     <path d="M 240.925938 53.594687 
L 260.925938 53.594687 
L 260.925938 46.594687 
L 240.925938 46.594687 
z
" style="fill: #4a4c7e"/>
    </g>
    <g id="text_18">
     <!-- 10k -->
     <g transform="translate(268.925938 53.594687)scale(0.1 -0.1)">
      <defs>
       <path id="DejaVuSans-6b" d="M 581 4863 
L 1159 4863 
L 1159 1991 
L 2875 3500 
L 3609 3500 
L 1753 1863 
L 3688 0 
L 2938 0 
L 1159 1709 
L 1159 0 
L 581 0 
L 581 4863 
z
" transform="scale(0.015625)"/>
      </defs>
      <use xlink:href="#DejaVuSans-31"/>
      <use xlink:href="#DejaVuSans-30" x="63.623047"/>
      <use xlink:href="#DejaVuSans-6b" x="127.246094"/>
     </g>
    </g>
    <g id="patch_20">
     <path d="M 240.925938 68.272812 
L 260.925938 68.272812 
L 260.925938 61.272812 
L 240.925938 61.272812 
z
" style="fill: #367182"/>
    </g>
    <g id="text_19">
     <!-- 5k -->
     <g transform="translate(268.925938 68.272812)scale(0.1 -0.1)">
      <use xlink:href="#DejaVuSans-35"/>
      <use xlink:href="#DejaVuSans-6b" x="63.623047"/>
     </g>
    </g>
    <g id="patch_21">
     <path d="M 240.925938 82.950938 
L 260.925938 82.950938 
L 260.925938 75.950938 
L 240.925938 75.950938 
z
" style="fill: #33977c"/>
    </g>
    <g id="text_20">
     <!-- 2.5k -->
     <g transform="translate(268.925938 82.950938)scale(0.1 -0.1)">
      <use xlink:href="#DejaVuSans-32"/>
      <use xlink:href="#DejaVuSans-2e" x="63.623047"/>
      <use xlink:href="#DejaVuSans-35" x="95.410156"/>
      <use xlink:href="#DejaVuSans-6b" x="159.033203"/>
     </g>
    </g>
    <g id="patch_22">
     <path d="M 240.925938 97.629063 
L 260.925938 97.629063 
L 260.925938 90.629063 
L 240.925938 90.629063 
z
" style="fill: #80c161"/>
    </g>
    <g id="text_21">
     <!-- 1.25k -->
     <g transform="translate(268.925938 97.629063)scale(0.1 -0.1)">
      <use xlink:href="#DejaVuSans-31"/>
      <use xlink:href="#DejaVuSans-2e" x="63.623047"/>
      <use xlink:href="#DejaVuSans-32" x="95.410156"/>
      <use xlink:href="#DejaVuSans-35" x="159.033203"/>
      <use xlink:href="#DejaVuSans-6b" x="222.65625"/>
     </g>
    </g>
   </g>
  </g>
 </g>
 <defs>
  <clipPath id="pe5c4f2a3f7">
   <rect x="64.525937" y="22.318125" width="167.4" height="163.08"/>
  </clipPath>
 </defs>
</svg>
