<?xml version="1.0" encoding="utf-8" standalone="no"?>
<!DOCTYPE svg PUBLIC "-//W3C//DTD SVG 1.1//EN"
  "http://www.w3.org/Graphics/SVG/1.1/DTD/svg11.dtd">
<svg xmlns:xlink="http://www.w3.org/1999/xlink" width="173.276909pt" height="218.17pt" viewBox="0 0 173.276909 218.17" xmlns="http://www.w3.org/2000/svg" version="1.1">
 <metadata>
  <rdf:RDF xmlns:dc="http://purl.org/dc/elements/1.1/" xmlns:cc="http://creativecommons.org/ns#" xmlns:rdf="http://www.w3.org/1999/02/22-rdf-syntax-ns#">
   <cc:Work>
    <dc:type rdf:resource="http://purl.org/dc/dcmitype/StillImage"/>
    <dc:date>2025-01-27T13:47:44.006632</dc:date>
    <dc:format>image/svg+xml</dc:format>
    <dc:creator>
     <cc:Agent>
      <dc:title>Matplotlib v3.5.2, https://matplotlib.org/</dc:title>
     </cc:Agent>
    </dc:creator>
   </cc:Work>
  </rdf:RDF>
 </metadata>
 <defs>
  <style type="text/css">*{stroke-linejoin: round; stroke-linecap: butt}</style>
 </defs>
 <g id="figure_1">
  <g id="patch_1">
   <path d="M 0 218.17 
L 173.276909 218.17 
L 173.276909 0 
L 0 0 
L 0 218.17 
z
" style="fill: none"/>
  </g>
  <g id="axes_1">
   <g id="patch_2">
    <path d="M 51.800937 158.218125 
L 163.400937 158.218125 
L 163.400937 22.318125 
L 51.800937 22.318125 
z
" style="fill: #ffffff"/>
   </g>
   <g id="patch_3">
    <path d="M 56.873665 158.218125 
L 78.232516 158.218125 
L 78.232516 157.075237 
L 56.873665 157.075237 
z
" clip-path="url(#p06ac7d23f9)" style="fill: #808080; opacity: 0.3"/>
   </g>
   <g id="patch_4">
    <path d="M 83.572229 158.218125 
L 104.931081 158.218125 
L 104.931081 109.4282 
L 83.572229 109.4282 
z
" clip-path="url(#p06ac7d23f9)" style="fill: #3274a1; opacity: 0.3"/>
   </g>
   <g id="patch_5">
    <path d="M 110.270794 158.218125 
L 131.629646 158.218125 
L 131.629646 111.123324 
L 110.270794 111.123324 
z
" clip-path="url(#p06ac7d23f9)" style="fill: #e1812c; opacity: 0.3"/>
   </g>
   <g id="patch_6">
    <path d="M 136.969359 158.218125 
L 158.32821 158.218125 
L 158.32821 108.830511 
L 136.969359 108.830511 
z
" clip-path="url(#p06ac7d23f9)" style="fill: #c03d3e; opacity: 0.3"/>
   </g>
   <g id="matplotlib.axis_1">
    <g id="xtick_1">
     <g id="line2d_1">
      <defs>
       <path id="m06a8d72e29" d="M 0 0 
L 0 3.5 
" style="stroke: #000000; stroke-width: 0.8"/>
      </defs>
      <g>
       <use xlink:href="#m06a8d72e29" x="67.553091" y="158.218125" style="stroke: #000000; stroke-width: 0.8"/>
      </g>
     </g>
     <g id="text_1">
      <!-- NIL -->
      <g transform="translate(59.551528 172.816563)scale(0.1 -0.1)">
       <defs>
        <path id="DejaVuSans-4e" d="M 628 4666 
L 1478 4666 
L 3547 763 
L 3547 4666 
L 4159 4666 
L 4159 0 
L 3309 0 
L 1241 3903 
L 1241 0 
L 628 0 
L 628 4666 
z
" transform="scale(0.015625)"/>
        <path id="DejaVuSans-49" d="M 628 4666 
L 1259 4666 
L 1259 0 
L 628 0 
L 628 4666 
z
" transform="scale(0.015625)"/>
        <path id="DejaVuSans-4c" d="M 628 4666 
L 1259 4666 
L 1259 531 
L 3531 531 
L 3531 0 
L 628 0 
L 628 4666 
z
" transform="scale(0.015625)"/>
       </defs>
       <use xlink:href="#DejaVuSans-4e"/>
       <use xlink:href="#DejaVuSans-49" x="74.804688"/>
       <use xlink:href="#DejaVuSans-4c" x="104.296875"/>
      </g>
     </g>
    </g>
    <g id="xtick_2">
     <g id="line2d_2">
      <g>
       <use xlink:href="#m06a8d72e29" x="94.251655" y="158.218125" style="stroke: #000000; stroke-width: 0.8"/>
      </g>
     </g>
     <g id="text_2">
      <!-- NIL -->
      <g transform="translate(86.250093 172.816563)scale(0.1 -0.1)">
       <use xlink:href="#DejaVuSans-4e"/>
       <use xlink:href="#DejaVuSans-49" x="74.804688"/>
       <use xlink:href="#DejaVuSans-4c" x="104.296875"/>
      </g>
      <!-- + DD + R -->
      <g transform="translate(69.930561 184.014375)scale(0.1 -0.1)">
       <defs>
        <path id="DejaVuSans-2b" d="M 2944 4013 
L 2944 2272 
L 4684 2272 
L 4684 1741 
L 2944 1741 
L 2944 0 
L 2419 0 
L 2419 1741 
L 678 1741 
L 678 2272 
L 2419 2272 
L 2419 4013 
L 2944 4013 
z
" transform="scale(0.015625)"/>
        <path id="DejaVuSans-20" transform="scale(0.015625)"/>
        <path id="DejaVuSans-44" d="M 1259 4147 
L 1259 519 
L 2022 519 
Q 2988 519 3436 956 
Q 3884 1394 3884 2338 
Q 3884 3275 3436 3711 
Q 2988 4147 2022 4147 
L 1259 4147 
z
M 628 4666 
L 1925 4666 
Q 3281 4666 3915 4102 
Q 4550 3538 4550 2338 
Q 4550 1131 3912 565 
Q 3275 0 1925 0 
L 628 0 
L 628 4666 
z
" transform="scale(0.015625)"/>
        <path id="DejaVuSans-52" d="M 2841 2188 
Q 3044 2119 3236 1894 
Q 3428 1669 3622 1275 
L 4263 0 
L 3584 0 
L 2988 1197 
Q 2756 1666 2539 1819 
Q 2322 1972 1947 1972 
L 1259 1972 
L 1259 0 
L 628 0 
L 628 4666 
L 2053 4666 
Q 2853 4666 3247 4331 
Q 3641 3997 3641 3322 
Q 3641 2881 3436 2590 
Q 3231 2300 2841 2188 
z
M 1259 4147 
L 1259 2491 
L 2053 2491 
Q 2509 2491 2742 2702 
Q 2975 2913 2975 3322 
Q 2975 3731 2742 3939 
Q 2509 4147 2053 4147 
L 1259 4147 
z
" transform="scale(0.015625)"/>
       </defs>
       <use xlink:href="#DejaVuSans-2b"/>
       <use xlink:href="#DejaVuSans-20" x="83.789062"/>
       <use xlink:href="#DejaVuSans-44" x="115.576172"/>
       <use xlink:href="#DejaVuSans-44" x="192.578125"/>
       <use xlink:href="#DejaVuSans-20" x="269.580078"/>
       <use xlink:href="#DejaVuSans-2b" x="301.367188"/>
       <use xlink:href="#DejaVuSans-20" x="385.15625"/>
       <use xlink:href="#DejaVuSans-52" x="416.943359"/>
      </g>
      <!-- + R -->
      <g transform="translate(84.99853 195.212187)scale(0.1 -0.1)">
       <use xlink:href="#DejaVuSans-2b"/>
       <use xlink:href="#DejaVuSans-20" x="83.789062"/>
       <use xlink:href="#DejaVuSans-52" x="115.576172"/>
      </g>
     </g>
    </g>
    <g id="xtick_3">
     <g id="line2d_3">
      <g>
       <use xlink:href="#m06a8d72e29" x="120.95022" y="158.218125" style="stroke: #000000; stroke-width: 0.8"/>
      </g>
     </g>
     <g id="text_3">
      <!-- NIL -->
      <g transform="translate(112.948657 172.816563)scale(0.1 -0.1)">
       <use xlink:href="#DejaVuSans-4e"/>
       <use xlink:href="#DejaVuSans-49" x="74.804688"/>
       <use xlink:href="#DejaVuSans-4c" x="104.296875"/>
      </g>
      <!-- + DDIR -->
      <g transform="translate(102.522095 184.014375)scale(0.1 -0.1)">
       <use xlink:href="#DejaVuSans-2b"/>
       <use xlink:href="#DejaVuSans-20" x="83.789062"/>
       <use xlink:href="#DejaVuSans-44" x="115.576172"/>
       <use xlink:href="#DejaVuSans-44" x="192.578125"/>
       <use xlink:href="#DejaVuSans-49" x="269.580078"/>
       <use xlink:href="#DejaVuSans-52" x="299.072266"/>
      </g>
      <!-- + R -->
      <g transform="translate(111.697095 195.212187)scale(0.1 -0.1)">
       <use xlink:href="#DejaVuSans-2b"/>
       <use xlink:href="#DejaVuSans-20" x="83.789062"/>
       <use xlink:href="#DejaVuSans-52" x="115.576172"/>
      </g>
     </g>
    </g>
    <g id="xtick_4">
     <g id="line2d_4">
      <g>
       <use xlink:href="#m06a8d72e29" x="147.648784" y="158.218125" style="stroke: #000000; stroke-width: 0.8"/>
      </g>
     </g>
     <g id="text_4">
      <!-- NIL -->
      <g transform="translate(139.647222 172.816563)scale(0.1 -0.1)">
       <use xlink:href="#DejaVuSans-4e"/>
       <use xlink:href="#DejaVuSans-49" x="74.804688"/>
       <use xlink:href="#DejaVuSans-4c" x="104.296875"/>
      </g>
      <!-- + RIDD -->
      <g transform="translate(129.220659 184.014375)scale(0.1 -0.1)">
       <use xlink:href="#DejaVuSans-2b"/>
       <use xlink:href="#DejaVuSans-20" x="83.789062"/>
       <use xlink:href="#DejaVuSans-52" x="115.576172"/>
       <use xlink:href="#DejaVuSans-49" x="185.058594"/>
       <use xlink:href="#DejaVuSans-44" x="214.550781"/>
       <use xlink:href="#DejaVuSans-44" x="291.552734"/>
      </g>
      <!-- + R -->
      <g transform="translate(138.395659 195.212187)scale(0.1 -0.1)">
       <use xlink:href="#DejaVuSans-2b"/>
       <use xlink:href="#DejaVuSans-20" x="83.789062"/>
       <use xlink:href="#DejaVuSans-52" x="115.576172"/>
      </g>
     </g>
    </g>
    <g id="text_5">
     <!-- cond -->
     <g transform="translate(95.449375 208.890312)scale(0.1 -0.1)">
      <defs>
       <path id="DejaVuSans-63" d="M 3122 3366 
L 3122 2828 
Q 2878 2963 2633 3030 
Q 2388 3097 2138 3097 
Q 1578 3097 1268 2742 
Q 959 2388 959 1747 
Q 959 1106 1268 751 
Q 1578 397 2138 397 
Q 2388 397 2633 464 
Q 2878 531 3122 666 
L 3122 134 
Q 2881 22 2623 -34 
Q 2366 -91 2075 -91 
Q 1284 -91 818 406 
Q 353 903 353 1747 
Q 353 2603 823 3093 
Q 1294 3584 2113 3584 
Q 2378 3584 2631 3529 
Q 2884 3475 3122 3366 
z
" transform="scale(0.015625)"/>
       <path id="DejaVuSans-6f" d="M 1959 3097 
Q 1497 3097 1228 2736 
Q 959 2375 959 1747 
Q 959 1119 1226 758 
Q 1494 397 1959 397 
Q 2419 397 2687 759 
Q 2956 1122 2956 1747 
Q 2956 2369 2687 2733 
Q 2419 3097 1959 3097 
z
M 1959 3584 
Q 2709 3584 3137 3096 
Q 3566 2609 3566 1747 
Q 3566 888 3137 398 
Q 2709 -91 1959 -91 
Q 1206 -91 779 398 
Q 353 888 353 1747 
Q 353 2609 779 3096 
Q 1206 3584 1959 3584 
z
" transform="scale(0.015625)"/>
       <path id="DejaVuSans-6e" d="M 3513 2113 
L 3513 0 
L 2938 0 
L 2938 2094 
Q 2938 2591 2744 2837 
Q 2550 3084 2163 3084 
Q 1697 3084 1428 2787 
Q 1159 2491 1159 1978 
L 1159 0 
L 581 0 
L 581 3500 
L 1159 3500 
L 1159 2956 
Q 1366 3272 1645 3428 
Q 1925 3584 2291 3584 
Q 2894 3584 3203 3211 
Q 3513 2838 3513 2113 
z
" transform="scale(0.015625)"/>
       <path id="DejaVuSans-64" d="M 2906 2969 
L 2906 4863 
L 3481 4863 
L 3481 0 
L 2906 0 
L 2906 525 
Q 2725 213 2448 61 
Q 2172 -91 1784 -91 
Q 1150 -91 751 415 
Q 353 922 353 1747 
Q 353 2572 751 3078 
Q 1150 3584 1784 3584 
Q 2172 3584 2448 3432 
Q 2725 3281 2906 2969 
z
M 947 1747 
Q 947 1113 1208 752 
Q 1469 391 1925 391 
Q 2381 391 2643 752 
Q 2906 1113 2906 1747 
Q 2906 2381 2643 2742 
Q 2381 3103 1925 3103 
Q 1469 3103 1208 2742 
Q 947 2381 947 1747 
z
" transform="scale(0.015625)"/>
      </defs>
      <use xlink:href="#DejaVuSans-63"/>
      <use xlink:href="#DejaVuSans-6f" x="54.980469"/>
      <use xlink:href="#DejaVuSans-6e" x="116.162109"/>
      <use xlink:href="#DejaVuSans-64" x="179.541016"/>
     </g>
    </g>
   </g>
   <g id="matplotlib.axis_2">
    <g id="ytick_1">
     <g id="line2d_5">
      <defs>
       <path id="m2d996c6e6f" d="M 0 0 
L -3.5 0 
" style="stroke: #000000; stroke-width: 0.8"/>
      </defs>
      <g>
       <use xlink:href="#m2d996c6e6f" x="51.800937" y="158.218125" style="stroke: #000000; stroke-width: 0.8"/>
      </g>
     </g>
     <g id="text_6">
      <!-- 0 -->
      <g transform="translate(38.438437 162.017344)scale(0.1 -0.1)">
       <defs>
        <path id="DejaVuSans-30" d="M 2034 4250 
Q 1547 4250 1301 3770 
Q 1056 3291 1056 2328 
Q 1056 1369 1301 889 
Q 1547 409 2034 409 
Q 2525 409 2770 889 
Q 3016 1369 3016 2328 
Q 3016 3291 2770 3770 
Q 2525 4250 2034 4250 
z
M 2034 4750 
Q 2819 4750 3233 4129 
Q 3647 3509 3647 2328 
Q 3647 1150 3233 529 
Q 2819 -91 2034 -91 
Q 1250 -91 836 529 
Q 422 1150 422 2328 
Q 422 3509 836 4129 
Q 1250 4750 2034 4750 
z
" transform="scale(0.015625)"/>
       </defs>
       <use xlink:href="#DejaVuSans-30"/>
      </g>
     </g>
    </g>
    <g id="ytick_2">
     <g id="line2d_6">
      <g>
       <use xlink:href="#m2d996c6e6f" x="51.800937" y="135.817515" style="stroke: #000000; stroke-width: 0.8"/>
      </g>
     </g>
     <g id="text_7">
      <!-- 10 -->
      <g transform="translate(32.075937 139.616734)scale(0.1 -0.1)">
       <defs>
        <path id="DejaVuSans-31" d="M 794 531 
L 1825 531 
L 1825 4091 
L 703 3866 
L 703 4441 
L 1819 4666 
L 2450 4666 
L 2450 531 
L 3481 531 
L 3481 0 
L 794 0 
L 794 531 
z
" transform="scale(0.015625)"/>
       </defs>
       <use xlink:href="#DejaVuSans-31"/>
       <use xlink:href="#DejaVuSans-30" x="63.623047"/>
      </g>
     </g>
    </g>
    <g id="ytick_3">
     <g id="line2d_7">
      <g>
       <use xlink:href="#m2d996c6e6f" x="51.800937" y="113.416906" style="stroke: #000000; stroke-width: 0.8"/>
      </g>
     </g>
     <g id="text_8">
      <!-- 20 -->
      <g transform="translate(32.075937 117.216125)scale(0.1 -0.1)">
       <defs>
        <path id="DejaVuSans-32" d="M 1228 531 
L 3431 531 
L 3431 0 
L 469 0 
L 469 531 
Q 828 903 1448 1529 
Q 2069 2156 2228 2338 
Q 2531 2678 2651 2914 
Q 2772 3150 2772 3378 
Q 2772 3750 2511 3984 
Q 2250 4219 1831 4219 
Q 1534 4219 1204 4116 
Q 875 4013 500 3803 
L 500 4441 
Q 881 4594 1212 4672 
Q 1544 4750 1819 4750 
Q 2544 4750 2975 4387 
Q 3406 4025 3406 3419 
Q 3406 3131 3298 2873 
Q 3191 2616 2906 2266 
Q 2828 2175 2409 1742 
Q 1991 1309 1228 531 
z
" transform="scale(0.015625)"/>
       </defs>
       <use xlink:href="#DejaVuSans-32"/>
       <use xlink:href="#DejaVuSans-30" x="63.623047"/>
      </g>
     </g>
    </g>
    <g id="ytick_4">
     <g id="line2d_8">
      <g>
       <use xlink:href="#m2d996c6e6f" x="51.800937" y="91.016296" style="stroke: #000000; stroke-width: 0.8"/>
      </g>
     </g>
     <g id="text_9">
      <!-- 30 -->
      <g transform="translate(32.075937 94.815515)scale(0.1 -0.1)">
       <defs>
        <path id="DejaVuSans-33" d="M 2597 2516 
Q 3050 2419 3304 2112 
Q 3559 1806 3559 1356 
Q 3559 666 3084 287 
Q 2609 -91 1734 -91 
Q 1441 -91 1130 -33 
Q 819 25 488 141 
L 488 750 
Q 750 597 1062 519 
Q 1375 441 1716 441 
Q 2309 441 2620 675 
Q 2931 909 2931 1356 
Q 2931 1769 2642 2001 
Q 2353 2234 1838 2234 
L 1294 2234 
L 1294 2753 
L 1863 2753 
Q 2328 2753 2575 2939 
Q 2822 3125 2822 3475 
Q 2822 3834 2567 4026 
Q 2313 4219 1838 4219 
Q 1578 4219 1281 4162 
Q 984 4106 628 3988 
L 628 4550 
Q 988 4650 1302 4700 
Q 1616 4750 1894 4750 
Q 2613 4750 3031 4423 
Q 3450 4097 3450 3541 
Q 3450 3153 3228 2886 
Q 3006 2619 2597 2516 
z
" transform="scale(0.015625)"/>
       </defs>
       <use xlink:href="#DejaVuSans-33"/>
       <use xlink:href="#DejaVuSans-30" x="63.623047"/>
      </g>
     </g>
    </g>
    <g id="ytick_5">
     <g id="line2d_9">
      <g>
       <use xlink:href="#m2d996c6e6f" x="51.800937" y="68.615687" style="stroke: #000000; stroke-width: 0.8"/>
      </g>
     </g>
     <g id="text_10">
      <!-- 40 -->
      <g transform="translate(32.075937 72.414906)scale(0.1 -0.1)">
       <defs>
        <path id="DejaVuSans-34" d="M 2419 4116 
L 825 1625 
L 2419 1625 
L 2419 4116 
z
M 2253 4666 
L 3047 4666 
L 3047 1625 
L 3713 1625 
L 3713 1100 
L 3047 1100 
L 3047 0 
L 2419 0 
L 2419 1100 
L 313 1100 
L 313 1709 
L 2253 4666 
z
" transform="scale(0.015625)"/>
       </defs>
       <use xlink:href="#DejaVuSans-34"/>
       <use xlink:href="#DejaVuSans-30" x="63.623047"/>
      </g>
     </g>
    </g>
    <g id="ytick_6">
     <g id="line2d_10">
      <g>
       <use xlink:href="#m2d996c6e6f" x="51.800937" y="46.215077" style="stroke: #000000; stroke-width: 0.8"/>
      </g>
     </g>
     <g id="text_11">
      <!-- 50 -->
      <g transform="translate(32.075937 50.014296)scale(0.1 -0.1)">
       <defs>
        <path id="DejaVuSans-35" d="M 691 4666 
L 3169 4666 
L 3169 4134 
L 1269 4134 
L 1269 2991 
Q 1406 3038 1543 3061 
Q 1681 3084 1819 3084 
Q 2600 3084 3056 2656 
Q 3513 2228 3513 1497 
Q 3513 744 3044 326 
Q 2575 -91 1722 -91 
Q 1428 -91 1123 -41 
Q 819 9 494 109 
L 494 744 
Q 775 591 1075 516 
Q 1375 441 1709 441 
Q 2250 441 2565 725 
Q 2881 1009 2881 1497 
Q 2881 1984 2565 2268 
Q 2250 2553 1709 2553 
Q 1456 2553 1204 2497 
Q 953 2441 691 2322 
L 691 4666 
z
" transform="scale(0.015625)"/>
       </defs>
       <use xlink:href="#DejaVuSans-35"/>
       <use xlink:href="#DejaVuSans-30" x="63.623047"/>
      </g>
     </g>
    </g>
    <g id="ytick_7">
     <g id="line2d_11">
      <g>
       <use xlink:href="#m2d996c6e6f" x="51.800937" y="23.814468" style="stroke: #000000; stroke-width: 0.8"/>
      </g>
     </g>
     <g id="text_12">
      <!-- 60 -->
      <g transform="translate(32.075937 27.613687)scale(0.1 -0.1)">
       <defs>
        <path id="DejaVuSans-36" d="M 2113 2584 
Q 1688 2584 1439 2293 
Q 1191 2003 1191 1497 
Q 1191 994 1439 701 
Q 1688 409 2113 409 
Q 2538 409 2786 701 
Q 3034 994 3034 1497 
Q 3034 2003 2786 2293 
Q 2538 2584 2113 2584 
z
M 3366 4563 
L 3366 3988 
Q 3128 4100 2886 4159 
Q 2644 4219 2406 4219 
Q 1781 4219 1451 3797 
Q 1122 3375 1075 2522 
Q 1259 2794 1537 2939 
Q 1816 3084 2150 3084 
Q 2853 3084 3261 2657 
Q 3669 2231 3669 1497 
Q 3669 778 3244 343 
Q 2819 -91 2113 -91 
Q 1303 -91 875 529 
Q 447 1150 447 2328 
Q 447 3434 972 4092 
Q 1497 4750 2381 4750 
Q 2619 4750 2861 4703 
Q 3103 4656 3366 4563 
z
" transform="scale(0.015625)"/>
       </defs>
       <use xlink:href="#DejaVuSans-36"/>
       <use xlink:href="#DejaVuSans-30" x="63.623047"/>
      </g>
     </g>
    </g>
    <g id="text_13">
     <!-- (%) iMN -->
     <g transform="translate(14.798437 109.953281)rotate(-90)scale(0.1 -0.1)">
      <defs>
       <path id="DejaVuSans-28" d="M 1984 4856 
Q 1566 4138 1362 3434 
Q 1159 2731 1159 2009 
Q 1159 1288 1364 580 
Q 1569 -128 1984 -844 
L 1484 -844 
Q 1016 -109 783 600 
Q 550 1309 550 2009 
Q 550 2706 781 3412 
Q 1013 4119 1484 4856 
L 1984 4856 
z
" transform="scale(0.015625)"/>
       <path id="DejaVuSans-25" d="M 4653 2053 
Q 4381 2053 4226 1822 
Q 4072 1591 4072 1178 
Q 4072 772 4226 539 
Q 4381 306 4653 306 
Q 4919 306 5073 539 
Q 5228 772 5228 1178 
Q 5228 1588 5073 1820 
Q 4919 2053 4653 2053 
z
M 4653 2450 
Q 5147 2450 5437 2106 
Q 5728 1763 5728 1178 
Q 5728 594 5436 251 
Q 5144 -91 4653 -91 
Q 4153 -91 3862 251 
Q 3572 594 3572 1178 
Q 3572 1766 3864 2108 
Q 4156 2450 4653 2450 
z
M 1428 4353 
Q 1159 4353 1004 4120 
Q 850 3888 850 3481 
Q 850 3069 1003 2837 
Q 1156 2606 1428 2606 
Q 1700 2606 1854 2837 
Q 2009 3069 2009 3481 
Q 2009 3884 1853 4118 
Q 1697 4353 1428 4353 
z
M 4250 4750 
L 4750 4750 
L 1831 -91 
L 1331 -91 
L 4250 4750 
z
M 1428 4750 
Q 1922 4750 2215 4408 
Q 2509 4066 2509 3481 
Q 2509 2891 2217 2550 
Q 1925 2209 1428 2209 
Q 931 2209 642 2551 
Q 353 2894 353 3481 
Q 353 4063 643 4406 
Q 934 4750 1428 4750 
z
" transform="scale(0.015625)"/>
       <path id="DejaVuSans-29" d="M 513 4856 
L 1013 4856 
Q 1481 4119 1714 3412 
Q 1947 2706 1947 2009 
Q 1947 1309 1714 600 
Q 1481 -109 1013 -844 
L 513 -844 
Q 928 -128 1133 580 
Q 1338 1288 1338 2009 
Q 1338 2731 1133 3434 
Q 928 4138 513 4856 
z
" transform="scale(0.015625)"/>
       <path id="DejaVuSans-69" d="M 603 3500 
L 1178 3500 
L 1178 0 
L 603 0 
L 603 3500 
z
M 603 4863 
L 1178 4863 
L 1178 4134 
L 603 4134 
L 603 4863 
z
" transform="scale(0.015625)"/>
       <path id="DejaVuSans-4d" d="M 628 4666 
L 1569 4666 
L 2759 1491 
L 3956 4666 
L 4897 4666 
L 4897 0 
L 4281 0 
L 4281 4097 
L 3078 897 
L 2444 897 
L 1241 4097 
L 1241 0 
L 628 0 
L 628 4666 
z
" transform="scale(0.015625)"/>
      </defs>
      <use xlink:href="#DejaVuSans-28"/>
      <use xlink:href="#DejaVuSans-25" x="39.013672"/>
      <use xlink:href="#DejaVuSans-29" x="134.033203"/>
      <use xlink:href="#DejaVuSans-20" x="173.046875"/>
      <use xlink:href="#DejaVuSans-69" x="204.833984"/>
      <use xlink:href="#DejaVuSans-4d" x="232.617188"/>
      <use xlink:href="#DejaVuSans-4e" x="318.896484"/>
     </g>
     <!-- of all cells -->
     <g transform="translate(25.99625 115.316563)rotate(-90)scale(0.1 -0.1)">
      <defs>
       <path id="DejaVuSans-66" d="M 2375 4863 
L 2375 4384 
L 1825 4384 
Q 1516 4384 1395 4259 
Q 1275 4134 1275 3809 
L 1275 3500 
L 2222 3500 
L 2222 3053 
L 1275 3053 
L 1275 0 
L 697 0 
L 697 3053 
L 147 3053 
L 147 3500 
L 697 3500 
L 697 3744 
Q 697 4328 969 4595 
Q 1241 4863 1831 4863 
L 2375 4863 
z
" transform="scale(0.015625)"/>
       <path id="DejaVuSans-61" d="M 2194 1759 
Q 1497 1759 1228 1600 
Q 959 1441 959 1056 
Q 959 750 1161 570 
Q 1363 391 1709 391 
Q 2188 391 2477 730 
Q 2766 1069 2766 1631 
L 2766 1759 
L 2194 1759 
z
M 3341 1997 
L 3341 0 
L 2766 0 
L 2766 531 
Q 2569 213 2275 61 
Q 1981 -91 1556 -91 
Q 1019 -91 701 211 
Q 384 513 384 1019 
Q 384 1609 779 1909 
Q 1175 2209 1959 2209 
L 2766 2209 
L 2766 2266 
Q 2766 2663 2505 2880 
Q 2244 3097 1772 3097 
Q 1472 3097 1187 3025 
Q 903 2953 641 2809 
L 641 3341 
Q 956 3463 1253 3523 
Q 1550 3584 1831 3584 
Q 2591 3584 2966 3190 
Q 3341 2797 3341 1997 
z
" transform="scale(0.015625)"/>
       <path id="DejaVuSans-6c" d="M 603 4863 
L 1178 4863 
L 1178 0 
L 603 0 
L 603 4863 
z
" transform="scale(0.015625)"/>
       <path id="DejaVuSans-65" d="M 3597 1894 
L 3597 1613 
L 953 1613 
Q 991 1019 1311 708 
Q 1631 397 2203 397 
Q 2534 397 2845 478 
Q 3156 559 3463 722 
L 3463 178 
Q 3153 47 2828 -22 
Q 2503 -91 2169 -91 
Q 1331 -91 842 396 
Q 353 884 353 1716 
Q 353 2575 817 3079 
Q 1281 3584 2069 3584 
Q 2775 3584 3186 3129 
Q 3597 2675 3597 1894 
z
M 3022 2063 
Q 3016 2534 2758 2815 
Q 2500 3097 2075 3097 
Q 1594 3097 1305 2825 
Q 1016 2553 972 2059 
L 3022 2063 
z
" transform="scale(0.015625)"/>
       <path id="DejaVuSans-73" d="M 2834 3397 
L 2834 2853 
Q 2591 2978 2328 3040 
Q 2066 3103 1784 3103 
Q 1356 3103 1142 2972 
Q 928 2841 928 2578 
Q 928 2378 1081 2264 
Q 1234 2150 1697 2047 
L 1894 2003 
Q 2506 1872 2764 1633 
Q 3022 1394 3022 966 
Q 3022 478 2636 193 
Q 2250 -91 1575 -91 
Q 1294 -91 989 -36 
Q 684 19 347 128 
L 347 722 
Q 666 556 975 473 
Q 1284 391 1588 391 
Q 1994 391 2212 530 
Q 2431 669 2431 922 
Q 2431 1156 2273 1281 
Q 2116 1406 1581 1522 
L 1381 1569 
Q 847 1681 609 1914 
Q 372 2147 372 2553 
Q 372 3047 722 3315 
Q 1072 3584 1716 3584 
Q 2034 3584 2315 3537 
Q 2597 3491 2834 3397 
z
" transform="scale(0.015625)"/>
      </defs>
      <use xlink:href="#DejaVuSans-6f"/>
      <use xlink:href="#DejaVuSans-66" x="61.181641"/>
      <use xlink:href="#DejaVuSans-20" x="96.386719"/>
      <use xlink:href="#DejaVuSans-61" x="128.173828"/>
      <use xlink:href="#DejaVuSans-6c" x="189.453125"/>
      <use xlink:href="#DejaVuSans-6c" x="217.236328"/>
      <use xlink:href="#DejaVuSans-20" x="245.019531"/>
      <use xlink:href="#DejaVuSans-63" x="276.806641"/>
      <use xlink:href="#DejaVuSans-65" x="331.787109"/>
      <use xlink:href="#DejaVuSans-6c" x="393.310547"/>
      <use xlink:href="#DejaVuSans-6c" x="421.09375"/>
      <use xlink:href="#DejaVuSans-73" x="448.876953"/>
     </g>
    </g>
   </g>
   <g id="line2d_12">
    <path d="M 67.553091 157.941725 
L 67.553091 156.026774 
" clip-path="url(#p06ac7d23f9)" style="fill: none; stroke: #424242; stroke-width: 2.7; stroke-linecap: square"/>
   </g>
   <g id="line2d_13">
    <path d="M 94.251655 118.096507 
L 94.251655 98.106757 
" clip-path="url(#p06ac7d23f9)" style="fill: none; stroke: #424242; stroke-width: 2.7; stroke-linecap: square"/>
   </g>
   <g id="line2d_14">
    <path d="M 120.95022 122.901169 
L 120.95022 100.543737 
" clip-path="url(#p06ac7d23f9)" style="fill: none; stroke: #424242; stroke-width: 2.7; stroke-linecap: square"/>
   </g>
   <g id="line2d_15">
    <path d="M 147.648784 119.051518 
L 147.648784 97.420372 
" clip-path="url(#p06ac7d23f9)" style="fill: none; stroke: #424242; stroke-width: 2.7; stroke-linecap: square"/>
   </g>
   <g id="line2d_16">
    <path d="M 94.251655 68.656279 
L 94.251655 66.886948 
L 120.95022 66.886948 
L 120.95022 68.656279 
" clip-path="url(#p06ac7d23f9)" style="fill: none; stroke: #333333; stroke-width: 1.5; stroke-linecap: square"/>
   </g>
   <g id="line2d_17">
    <path d="M 120.95022 52.565653 
L 120.95022 50.796322 
L 147.648784 50.796322 
L 147.648784 52.565653 
" clip-path="url(#p06ac7d23f9)" style="fill: none; stroke: #333333; stroke-width: 1.5; stroke-linecap: square"/>
   </g>
   <g id="line2d_18">
    <path d="M 94.251655 36.475027 
L 94.251655 34.705696 
L 147.648784 34.705696 
L 147.648784 36.475027 
" clip-path="url(#p06ac7d23f9)" style="fill: none; stroke: #333333; stroke-width: 1.5; stroke-linecap: square"/>
   </g>
   <g id="patch_7">
    <path d="M 51.800937 158.218125 
L 51.800937 22.318125 
" style="fill: none; stroke: #000000; stroke-width: 0.8; stroke-linejoin: miter; stroke-linecap: square"/>
   </g>
   <g id="patch_8">
    <path d="M 163.400937 158.218125 
L 163.400937 22.318125 
" style="fill: none; stroke: #000000; stroke-width: 0.8; stroke-linejoin: miter; stroke-linecap: square"/>
   </g>
   <g id="patch_9">
    <path d="M 51.800938 158.218125 
L 163.400937 158.218125 
" style="fill: none; stroke: #000000; stroke-width: 0.8; stroke-linejoin: miter; stroke-linecap: square"/>
   </g>
   <g id="patch_10">
    <path d="M 51.800938 22.318125 
L 163.400937 22.318125 
" style="fill: none; stroke: #000000; stroke-width: 0.8; stroke-linejoin: miter; stroke-linecap: square"/>
   </g>
   <g id="PathCollection_1">
    <defs>
     <path id="C0_0_fbf7b46f23" d="M 0 2.5 
C 0.663008 2.5 1.29895 2.236584 1.767767 1.767767 
C 2.236584 1.29895 2.5 0.663008 2.5 -0 
C 2.5 -0.663008 2.236584 -1.29895 1.767767 -1.767767 
C 1.29895 -2.236584 0.663008 -2.5 0 -2.5 
C -0.663008 -2.5 -1.29895 -2.236584 -1.767767 -1.767767 
C -2.236584 -1.29895 -2.5 -0.663008 -2.5 0 
C -2.5 0.663008 -2.236584 1.29895 -1.767767 1.767767 
C -1.29895 2.236584 -0.663008 2.5 0 2.5 
z
"/>
    </defs>
    <g clip-path="url(#p06ac7d23f9)">
     <use xlink:href="#C0_0_fbf7b46f23" x="67.455546" y="158.082199" style="fill: #ffffff; stroke: #000000; stroke-width: 0.4"/>
    </g>
    <g clip-path="url(#p06ac7d23f9)">
     <use xlink:href="#C0_0_fbf7b46f23" x="65.448038" y="158.112719" style="fill: #ffffff; stroke: #000000; stroke-width: 0.4"/>
    </g>
    <g clip-path="url(#p06ac7d23f9)">
     <use xlink:href="#C0_0_fbf7b46f23" x="65.088198" y="158.182737" style="fill: #ffffff; stroke: #000000; stroke-width: 0.4"/>
    </g>
   </g>
   <g id="PathCollection_2">
    <defs>
     <path id="C1_0_fb353ea35b" d="M 0 2.5 
C 0.663008 2.5 1.29895 2.236584 1.767767 1.767767 
C 2.236584 1.29895 2.5 0.663008 2.5 -0 
C 2.5 -0.663008 2.236584 -1.29895 1.767767 -1.767767 
C 1.29895 -2.236584 0.663008 -2.5 0 -2.5 
C -0.663008 -2.5 -1.29895 -2.236584 -1.767767 -1.767767 
C -2.236584 -1.29895 -2.5 -0.663008 -2.5 0 
C -2.5 0.663008 -2.236584 1.29895 -1.767767 1.767767 
C -1.29895 2.236584 -0.663008 2.5 0 2.5 
z
"/>
    </defs>
    <g clip-path="url(#p06ac7d23f9)">
     <use xlink:href="#C1_0_fb353ea35b" x="96.344595" y="106.077193" style="fill: #ffffff; stroke: #000000; stroke-width: 0.4"/>
    </g>
    <g clip-path="url(#p06ac7d23f9)">
     <use xlink:href="#C1_0_fb353ea35b" x="93.862227" y="112.415491" style="fill: #ffffff; stroke: #000000; stroke-width: 0.4"/>
    </g>
    <g clip-path="url(#p06ac7d23f9)">
     <use xlink:href="#C1_0_fb353ea35b" x="93.399448" y="112.396735" style="fill: #ffffff; stroke: #000000; stroke-width: 0.4"/>
    </g>
   </g>
   <g id="PathCollection_3">
    <defs>
     <path id="C2_0_9ffe48d342" d="M 0 2.5 
C 0.663008 2.5 1.29895 2.236584 1.767767 1.767767 
C 2.236584 1.29895 2.5 0.663008 2.5 -0 
C 2.5 -0.663008 2.236584 -1.29895 1.767767 -1.767767 
C 1.29895 -2.236584 0.663008 -2.5 0 -2.5 
C -0.663008 -2.5 -1.29895 -2.236584 -1.767767 -1.767767 
C -2.236584 -1.29895 -2.5 -0.663008 -2.5 0 
C -2.5 0.663008 -2.236584 1.29895 -1.767767 1.767767 
C -1.29895 2.236584 -0.663008 2.5 0 2.5 
z
"/>
    </defs>
    <g clip-path="url(#p06ac7d23f9)">
     <use xlink:href="#C2_0_9ffe48d342" x="118.373482" y="84.625586" style="fill: #ffffff; stroke: #000000; stroke-width: 0.4"/>
    </g>
    <g clip-path="url(#p06ac7d23f9)">
     <use xlink:href="#C2_0_9ffe48d342" x="123.136537" y="88.231918" style="fill: #ffffff; stroke: #000000; stroke-width: 0.4"/>
    </g>
    <g clip-path="url(#p06ac7d23f9)">
     <use xlink:href="#C2_0_9ffe48d342" x="122.863502" y="95.627755" style="fill: #ffffff; stroke: #000000; stroke-width: 0.4"/>
    </g>
   </g>
   <g id="PathCollection_4">
    <defs>
     <path id="C3_0_e107d55985" d="M 0 2.5 
C 0.663008 2.5 1.29895 2.236584 1.767767 1.767767 
C 2.236584 1.29895 2.5 0.663008 2.5 -0 
C 2.5 -0.663008 2.236584 -1.29895 1.767767 -1.767767 
C 1.29895 -2.236584 0.663008 -2.5 0 -2.5 
C -0.663008 -2.5 -1.29895 -2.236584 -1.767767 -1.767767 
C -2.236584 -1.29895 -2.5 -0.663008 -2.5 0 
C -2.5 0.663008 -2.236584 1.29895 -1.767767 1.767767 
C -1.29895 2.236584 -0.663008 2.5 0 2.5 
z
"/>
    </defs>
    <g clip-path="url(#p06ac7d23f9)">
     <use xlink:href="#C3_0_e107d55985" x="146.888087" y="109.161005" style="fill: #ffffff; stroke: #000000; stroke-width: 0.4"/>
    </g>
    <g clip-path="url(#p06ac7d23f9)">
     <use xlink:href="#C3_0_e107d55985" x="147.908573" y="96.750161" style="fill: #ffffff; stroke: #000000; stroke-width: 0.4"/>
    </g>
    <g clip-path="url(#p06ac7d23f9)">
     <use xlink:href="#C3_0_e107d55985" x="145.813041" y="88.71704" style="fill: #ffffff; stroke: #000000; stroke-width: 0.4"/>
    </g>
   </g>
   <g id="PathCollection_5">
    <path d="M 64.971321 159.695914 
L 69.971321 159.695914 
L 69.971321 154.695914 
L 64.971321 154.695914 
z
" clip-path="url(#p06ac7d23f9)" style="fill: #ffffff; stroke: #000000; stroke-width: 0.4"/>
    <path d="M 62.64059 160.213931 
L 67.64059 160.213931 
L 67.64059 155.213931 
L 62.64059 155.213931 
z
" clip-path="url(#p06ac7d23f9)" style="fill: #ffffff; stroke: #000000; stroke-width: 0.4"/>
    <path d="M 64.419103 159.464645 
L 69.419103 159.464645 
L 69.419103 154.464645 
L 64.419103 154.464645 
z
" clip-path="url(#p06ac7d23f9)" style="fill: #ffffff; stroke: #000000; stroke-width: 0.4"/>
   </g>
   <g id="PathCollection_6">
    <path d="M 93.234231 122.219641 
L 98.234231 122.219641 
L 98.234231 117.219641 
L 93.234231 117.219641 
z
" clip-path="url(#p06ac7d23f9)" style="fill: #ffffff; stroke: #000000; stroke-width: 0.4"/>
    <path d="M 92.341872 122.217077 
L 97.341872 122.217077 
L 97.341872 117.217077 
L 92.341872 117.217077 
z
" clip-path="url(#p06ac7d23f9)" style="fill: #ffffff; stroke: #000000; stroke-width: 0.4"/>
    <path d="M 89.822979 130.460221 
L 94.822979 130.460221 
L 94.822979 125.460221 
L 89.822979 125.460221 
z
" clip-path="url(#p06ac7d23f9)" style="fill: #ffffff; stroke: #000000; stroke-width: 0.4"/>
   </g>
   <g id="PathCollection_7">
    <path d="M 118.360119 112.590169 
L 123.360119 112.590169 
L 123.360119 107.590169 
L 118.360119 107.590169 
z
" clip-path="url(#p06ac7d23f9)" style="fill: #ffffff; stroke: #000000; stroke-width: 0.4"/>
    <path d="M 117.260518 106.321609 
L 122.260518 106.321609 
L 122.260518 101.321609 
L 117.260518 101.321609 
z
" clip-path="url(#p06ac7d23f9)" style="fill: #ffffff; stroke: #000000; stroke-width: 0.4"/>
    <path d="M 117.14695 122.268806 
L 122.14695 122.268806 
L 122.14695 117.268806 
L 117.14695 117.268806 
z
" clip-path="url(#p06ac7d23f9)" style="fill: #ffffff; stroke: #000000; stroke-width: 0.4"/>
   </g>
   <g id="PathCollection_8">
    <path d="M 147.482061 136.502007 
L 152.482061 136.502007 
L 152.482061 131.502007 
L 147.482061 131.502007 
z
" clip-path="url(#p06ac7d23f9)" style="fill: #ffffff; stroke: #000000; stroke-width: 0.4"/>
    <path d="M 144.467808 133.143765 
L 149.467808 133.143765 
L 149.467808 128.143765 
L 144.467808 128.143765 
z
" clip-path="url(#p06ac7d23f9)" style="fill: #ffffff; stroke: #000000; stroke-width: 0.4"/>
    <path d="M 143.016331 134.951884 
L 148.016331 134.951884 
L 148.016331 129.951884 
L 143.016331 129.951884 
z
" clip-path="url(#p06ac7d23f9)" style="fill: #ffffff; stroke: #000000; stroke-width: 0.4"/>
   </g>
   <g id="PathCollection_9">
    <path d="M 65.234912 155.584265 
L 62.734912 160.584265 
L 67.734912 160.584265 
z
" clip-path="url(#p06ac7d23f9)" style="fill: #ffffff; stroke: #000000; stroke-width: 0.4"/>
    <path d="M 66.829371 155.213772 
L 64.329371 160.213772 
L 69.329371 160.213772 
z
" clip-path="url(#p06ac7d23f9)" style="fill: #ffffff; stroke: #000000; stroke-width: 0.4"/>
    <path d="M 68.841176 155.44208 
L 66.341176 160.44208 
L 71.341176 160.44208 
z
" clip-path="url(#p06ac7d23f9)" style="fill: #ffffff; stroke: #000000; stroke-width: 0.4"/>
   </g>
   <g id="PathCollection_10">
    <path d="M 92.235992 116.640308 
L 89.735992 121.640308 
L 94.735992 121.640308 
z
" clip-path="url(#p06ac7d23f9)" style="fill: #ffffff; stroke: #000000; stroke-width: 0.4"/>
    <path d="M 96.090599 118.423198 
L 93.590599 123.423198 
L 98.590599 123.423198 
z
" clip-path="url(#p06ac7d23f9)" style="fill: #ffffff; stroke: #000000; stroke-width: 0.4"/>
    <path d="M 95.28407 118.408156 
L 92.78407 123.408156 
L 97.78407 123.408156 
z
" clip-path="url(#p06ac7d23f9)" style="fill: #ffffff; stroke: #000000; stroke-width: 0.4"/>
   </g>
   <g id="PathCollection_11">
    <path d="M 119.579183 140.813977 
L 117.079183 145.813977 
L 122.079183 145.813977 
z
" clip-path="url(#p06ac7d23f9)" style="fill: #ffffff; stroke: #000000; stroke-width: 0.4"/>
    <path d="M 122.40868 138.340792 
L 119.90868 143.340792 
L 124.90868 143.340792 
z
" clip-path="url(#p06ac7d23f9)" style="fill: #ffffff; stroke: #000000; stroke-width: 0.4"/>
    <path d="M 121.80346 133.502983 
L 119.30346 138.502983 
L 124.30346 138.502983 
z
" clip-path="url(#p06ac7d23f9)" style="fill: #ffffff; stroke: #000000; stroke-width: 0.4"/>
   </g>
   <g id="PathCollection_12">
    <path d="M 149.60576 113.40894 
L 147.10576 118.40894 
L 152.10576 118.40894 
z
" clip-path="url(#p06ac7d23f9)" style="fill: #ffffff; stroke: #000000; stroke-width: 0.4"/>
    <path d="M 149.3598 115.820019 
L 146.8598 120.820019 
L 151.8598 120.820019 
z
" clip-path="url(#p06ac7d23f9)" style="fill: #ffffff; stroke: #000000; stroke-width: 0.4"/>
   </g>
   <g id="PathCollection_13">
    <path d="M 69.977603 157.39031 
L 73.513137 153.854776 
L 69.977603 150.319242 
L 66.442069 153.854776 
z
" clip-path="url(#p06ac7d23f9)" style="fill: #ffffff; stroke: #000000; stroke-width: 0.4"/>
    <path d="M 69.416152 158.980438 
L 72.951686 155.444904 
L 69.416152 151.90937 
L 65.880618 155.444904 
z
" clip-path="url(#p06ac7d23f9)" style="fill: #ffffff; stroke: #000000; stroke-width: 0.4"/>
    <path d="M 67.927077 159.146429 
L 71.462611 155.610896 
L 67.927077 152.075362 
L 64.391544 155.610896 
z
" clip-path="url(#p06ac7d23f9)" style="fill: #ffffff; stroke: #000000; stroke-width: 0.4"/>
   </g>
   <g id="PathCollection_14">
    <path d="M 94.841792 77.499805 
L 98.377326 73.964272 
L 94.841792 70.428738 
L 91.306259 73.964272 
z
" clip-path="url(#p06ac7d23f9)" style="fill: #ffffff; stroke: #000000; stroke-width: 0.4"/>
    <path d="M 95.192374 91.903211 
L 98.727908 88.367677 
L 95.192374 84.832143 
L 91.65684 88.367677 
z
" clip-path="url(#p06ac7d23f9)" style="fill: #ffffff; stroke: #000000; stroke-width: 0.4"/>
    <path d="M 96.100375 95.083965 
L 99.635909 91.548431 
L 96.100375 88.012897 
L 92.564841 91.548431 
z
" clip-path="url(#p06ac7d23f9)" style="fill: #ffffff; stroke: #000000; stroke-width: 0.4"/>
   </g>
   <g id="PathCollection_15">
    <path d="M 118.373335 100.981744 
L 121.908869 97.44621 
L 118.373335 93.910676 
L 114.837801 97.44621 
z
" clip-path="url(#p06ac7d23f9)" style="fill: #ffffff; stroke: #000000; stroke-width: 0.4"/>
    <path d="M 121.223214 110.597027 
L 124.758748 107.061493 
L 121.223214 103.525959 
L 117.68768 107.061493 
z
" clip-path="url(#p06ac7d23f9)" style="fill: #ffffff; stroke: #000000; stroke-width: 0.4"/>
    <path d="M 118.420574 110.18412 
L 121.956107 106.648586 
L 118.420574 103.113052 
L 114.88504 106.648586 
z
" clip-path="url(#p06ac7d23f9)" style="fill: #ffffff; stroke: #000000; stroke-width: 0.4"/>
   </g>
   <g id="PathCollection_16">
    <path d="M 147.432245 92.326377 
L 150.967779 88.790843 
L 147.432245 85.255309 
L 143.896711 88.790843 
z
" clip-path="url(#p06ac7d23f9)" style="fill: #ffffff; stroke: #000000; stroke-width: 0.4"/>
    <path d="M 145.064964 86.187127 
L 148.600498 82.651593 
L 145.064964 79.116059 
L 141.52943 82.651593 
z
" clip-path="url(#p06ac7d23f9)" style="fill: #ffffff; stroke: #000000; stroke-width: 0.4"/>
    <path d="M 146.261193 103.273894 
L 149.796727 99.73836 
L 146.261193 96.202826 
L 142.725659 99.73836 
z
" clip-path="url(#p06ac7d23f9)" style="fill: #ffffff; stroke: #000000; stroke-width: 0.4"/>
   </g>
   <g id="text_14">
    <!-- ns -->
    <g transform="translate(101.8275 63.80726)scale(0.1 -0.1)">
     <use xlink:href="#DejaVuSans-6e"/>
     <use xlink:href="#DejaVuSans-73" x="63.378906"/>
    </g>
   </g>
   <g id="text_15">
    <!-- ns -->
    <g transform="translate(128.526065 47.716634)scale(0.1 -0.1)">
     <use xlink:href="#DejaVuSans-6e"/>
     <use xlink:href="#DejaVuSans-73" x="63.378906"/>
    </g>
   </g>
   <g id="text_16">
    <!-- ns -->
    <g transform="translate(115.176782 31.626008)scale(0.1 -0.1)">
     <use xlink:href="#DejaVuSans-6e"/>
     <use xlink:href="#DejaVuSans-73" x="63.378906"/>
    </g>
   </g>
   <g id="text_17">
    <g id="patch_11">
     <path d="M 58.601528 153.075237 
L 76.504653 153.075237 
L 76.504653 141.397112 
L 58.601528 141.397112 
z
" style="fill: #ffffff; opacity: 0.75"/>
    </g>
    <!-- 0.5 -->
    <g transform="translate(59.601528 149.995549)scale(0.1 -0.1)">
     <defs>
      <path id="DejaVuSans-2e" d="M 684 794 
L 1344 794 
L 1344 0 
L 684 0 
L 684 794 
z
" transform="scale(0.015625)"/>
     </defs>
     <use xlink:href="#DejaVuSans-30"/>
     <use xlink:href="#DejaVuSans-2e" x="63.623047"/>
     <use xlink:href="#DejaVuSans-35" x="95.410156"/>
    </g>
   </g>
   <g id="text_18">
    <g id="patch_12">
     <path d="M 82.118843 105.4282 
L 106.384468 105.4282 
L 106.384468 93.750075 
L 82.118843 93.750075 
z
" style="fill: #ffffff; opacity: 0.75"/>
    </g>
    <!-- 21.8 -->
    <g transform="translate(83.118843 102.348512)scale(0.1 -0.1)">
     <defs>
      <path id="DejaVuSans-38" d="M 2034 2216 
Q 1584 2216 1326 1975 
Q 1069 1734 1069 1313 
Q 1069 891 1326 650 
Q 1584 409 2034 409 
Q 2484 409 2743 651 
Q 3003 894 3003 1313 
Q 3003 1734 2745 1975 
Q 2488 2216 2034 2216 
z
M 1403 2484 
Q 997 2584 770 2862 
Q 544 3141 544 3541 
Q 544 4100 942 4425 
Q 1341 4750 2034 4750 
Q 2731 4750 3128 4425 
Q 3525 4100 3525 3541 
Q 3525 3141 3298 2862 
Q 3072 2584 2669 2484 
Q 3125 2378 3379 2068 
Q 3634 1759 3634 1313 
Q 3634 634 3220 271 
Q 2806 -91 2034 -91 
Q 1263 -91 848 271 
Q 434 634 434 1313 
Q 434 1759 690 2068 
Q 947 2378 1403 2484 
z
M 1172 3481 
Q 1172 3119 1398 2916 
Q 1625 2713 2034 2713 
Q 2441 2713 2670 2916 
Q 2900 3119 2900 3481 
Q 2900 3844 2670 4047 
Q 2441 4250 2034 4250 
Q 1625 4250 1398 4047 
Q 1172 3844 1172 3481 
z
" transform="scale(0.015625)"/>
     </defs>
     <use xlink:href="#DejaVuSans-32"/>
     <use xlink:href="#DejaVuSans-31" x="63.623047"/>
     <use xlink:href="#DejaVuSans-2e" x="127.246094"/>
     <use xlink:href="#DejaVuSans-38" x="159.033203"/>
    </g>
   </g>
   <g id="text_19">
    <g id="patch_13">
     <path d="M 108.817407 107.123324 
L 133.083032 107.123324 
L 133.083032 95.445199 
L 108.817407 95.445199 
z
" style="fill: #ffffff; opacity: 0.75"/>
    </g>
    <!-- 21.0 -->
    <g transform="translate(109.817407 104.043636)scale(0.1 -0.1)">
     <use xlink:href="#DejaVuSans-32"/>
     <use xlink:href="#DejaVuSans-31" x="63.623047"/>
     <use xlink:href="#DejaVuSans-2e" x="127.246094"/>
     <use xlink:href="#DejaVuSans-30" x="159.033203"/>
    </g>
   </g>
   <g id="text_20">
    <g id="patch_14">
     <path d="M 135.515972 104.830511 
L 159.781597 104.830511 
L 159.781597 93.152386 
L 135.515972 93.152386 
z
" style="fill: #ffffff; opacity: 0.75"/>
    </g>
    <!-- 22.0 -->
    <g transform="translate(136.515972 101.750823)scale(0.1 -0.1)">
     <use xlink:href="#DejaVuSans-32"/>
     <use xlink:href="#DejaVuSans-32" x="63.623047"/>
     <use xlink:href="#DejaVuSans-2e" x="127.246094"/>
     <use xlink:href="#DejaVuSans-30" x="159.033203"/>
    </g>
   </g>
   <g id="text_21">
    <!-- 14 dpi -->
    <g transform="translate(88.774062 16.318125)scale(0.12 -0.12)">
     <defs>
      <path id="DejaVuSans-70" d="M 1159 525 
L 1159 -1331 
L 581 -1331 
L 581 3500 
L 1159 3500 
L 1159 2969 
Q 1341 3281 1617 3432 
Q 1894 3584 2278 3584 
Q 2916 3584 3314 3078 
Q 3713 2572 3713 1747 
Q 3713 922 3314 415 
Q 2916 -91 2278 -91 
Q 1894 -91 1617 61 
Q 1341 213 1159 525 
z
M 3116 1747 
Q 3116 2381 2855 2742 
Q 2594 3103 2138 3103 
Q 1681 3103 1420 2742 
Q 1159 2381 1159 1747 
Q 1159 1113 1420 752 
Q 1681 391 2138 391 
Q 2594 391 2855 752 
Q 3116 1113 3116 1747 
z
" transform="scale(0.015625)"/>
     </defs>
     <use xlink:href="#DejaVuSans-31"/>
     <use xlink:href="#DejaVuSans-34" x="63.623047"/>
     <use xlink:href="#DejaVuSans-20" x="127.246094"/>
     <use xlink:href="#DejaVuSans-64" x="159.033203"/>
     <use xlink:href="#DejaVuSans-70" x="222.509766"/>
     <use xlink:href="#DejaVuSans-69" x="285.986328"/>
    </g>
   </g>
  </g>
 </g>
 <defs>
  <clipPath id="p06ac7d23f9">
   <rect x="51.800937" y="22.318125" width="111.6" height="135.9"/>
  </clipPath>
 </defs>
</svg>
