<?xml version="1.0" encoding="utf-8" standalone="no"?>
<!DOCTYPE svg PUBLIC "-//W3C//DTD SVG 1.1//EN"
  "http://www.w3.org/Graphics/SVG/1.1/DTD/svg11.dtd">
<svg xmlns:xlink="http://www.w3.org/1999/xlink" width="424.268125pt" height="203.474375pt" viewBox="0 0 424.268125 203.474375" xmlns="http://www.w3.org/2000/svg" version="1.1">
 <metadata>
  <rdf:RDF xmlns:dc="http://purl.org/dc/elements/1.1/" xmlns:cc="http://creativecommons.org/ns#" xmlns:rdf="http://www.w3.org/1999/02/22-rdf-syntax-ns#">
   <cc:Work>
    <dc:type rdf:resource="http://purl.org/dc/dcmitype/StillImage"/>
    <dc:date>2025-01-27T14:18:14.636492</dc:date>
    <dc:format>image/svg+xml</dc:format>
    <dc:creator>
     <cc:Agent>
      <dc:title>Matplotlib v3.5.2, https://matplotlib.org/</dc:title>
     </cc:Agent>
    </dc:creator>
   </cc:Work>
  </rdf:RDF>
 </metadata>
 <defs>
  <style type="text/css">*{stroke-linejoin: round; stroke-linecap: butt}</style>
 </defs>
 <g id="figure_1">
  <g id="patch_1">
   <path d="M 0 203.474375 
L 424.268125 203.474375 
L 424.268125 0 
L 0 0 
L 0 203.474375 
z
" style="fill: none"/>
  </g>
  <g id="axes_1">
   <g id="patch_2">
    <path d="M 58.163438 165.918125 
L 168.675938 165.918125 
L 168.675938 22.318125 
L 58.163438 22.318125 
z
" style="fill: #ffffff"/>
   </g>
   <g id="patch_3">
    <path d="M 63.186733 165.918125 
L 85.512491 165.918125 
L 85.512491 165.463077 
L 63.186733 165.463077 
z
" clip-path="url(#pdbd33dfdfc)" style="opacity: 0.3"/>
   </g>
   <g id="patch_4">
    <path d="M 119.001127 165.918125 
L 141.326884 165.918125 
L 141.326884 163.582033 
L 119.001127 163.582033 
z
" clip-path="url(#pdbd33dfdfc)" style="opacity: 0.3"/>
   </g>
   <g id="patch_5">
    <path d="M 85.512491 165.918125 
L 107.838248 165.918125 
L 107.838248 135.14086 
L 85.512491 135.14086 
z
" clip-path="url(#pdbd33dfdfc)" style="fill: #45ba45; opacity: 0.3"/>
   </g>
   <g id="patch_6">
    <path d="M 141.326884 165.918125 
L 163.652642 165.918125 
L 163.652642 82.378107 
L 141.326884 82.378107 
z
" clip-path="url(#pdbd33dfdfc)" style="fill: #45ba45; opacity: 0.3"/>
   </g>
   <g id="PathCollection_1"/>
   <g id="PathCollection_2"/>
   <g id="PathCollection_3"/>
   <g id="PathCollection_4"/>
   <g id="PathCollection_5"/>
   <g id="PathCollection_6"/>
   <g id="matplotlib.axis_1">
    <g id="xtick_1">
     <g id="line2d_1">
      <defs>
       <path id="m6f0cd35454" d="M 0 0 
L 0 3.5 
" style="stroke: #000000; stroke-width: 0.8"/>
      </defs>
      <g>
       <use xlink:href="#m6f0cd35454" x="85.512491" y="165.918125" style="stroke: #000000; stroke-width: 0.8"/>
      </g>
     </g>
     <g id="text_1">
      <!-- NIL -->
      <g transform="translate(77.510928 180.516562)scale(0.1 -0.1)">
       <defs>
        <path id="DejaVuSans-4e" d="M 628 4666 
L 1478 4666 
L 3547 763 
L 3547 4666 
L 4159 4666 
L 4159 0 
L 3309 0 
L 1241 3903 
L 1241 0 
L 628 0 
L 628 4666 
z
" transform="scale(0.015625)"/>
        <path id="DejaVuSans-49" d="M 628 4666 
L 1259 4666 
L 1259 0 
L 628 0 
L 628 4666 
z
" transform="scale(0.015625)"/>
        <path id="DejaVuSans-4c" d="M 628 4666 
L 1259 4666 
L 1259 531 
L 3531 531 
L 3531 0 
L 628 0 
L 628 4666 
z
" transform="scale(0.015625)"/>
       </defs>
       <use xlink:href="#DejaVuSans-4e"/>
       <use xlink:href="#DejaVuSans-49" x="74.804688"/>
       <use xlink:href="#DejaVuSans-4c" x="104.296875"/>
      </g>
     </g>
    </g>
    <g id="xtick_2">
     <g id="line2d_2">
      <g>
       <use xlink:href="#m6f0cd35454" x="141.326884" y="165.918125" style="stroke: #000000; stroke-width: 0.8"/>
      </g>
     </g>
     <g id="text_2">
      <!-- NIL$^{x3HA}$ -->
      <g transform="translate(123.926884 180.516562)scale(0.1 -0.1)">
       <defs>
        <path id="DejaVuSans-Oblique-78" d="M 3841 3500 
L 2234 1784 
L 3219 0 
L 2559 0 
L 1819 1388 
L 531 0 
L -166 0 
L 1556 1844 
L 641 3500 
L 1300 3500 
L 1972 2234 
L 3144 3500 
L 3841 3500 
z
" transform="scale(0.015625)"/>
        <path id="DejaVuSans-33" d="M 2597 2516 
Q 3050 2419 3304 2112 
Q 3559 1806 3559 1356 
Q 3559 666 3084 287 
Q 2609 -91 1734 -91 
Q 1441 -91 1130 -33 
Q 819 25 488 141 
L 488 750 
Q 750 597 1062 519 
Q 1375 441 1716 441 
Q 2309 441 2620 675 
Q 2931 909 2931 1356 
Q 2931 1769 2642 2001 
Q 2353 2234 1838 2234 
L 1294 2234 
L 1294 2753 
L 1863 2753 
Q 2328 2753 2575 2939 
Q 2822 3125 2822 3475 
Q 2822 3834 2567 4026 
Q 2313 4219 1838 4219 
Q 1578 4219 1281 4162 
Q 984 4106 628 3988 
L 628 4550 
Q 988 4650 1302 4700 
Q 1616 4750 1894 4750 
Q 2613 4750 3031 4423 
Q 3450 4097 3450 3541 
Q 3450 3153 3228 2886 
Q 3006 2619 2597 2516 
z
" transform="scale(0.015625)"/>
        <path id="DejaVuSans-Oblique-48" d="M 1081 4666 
L 1716 4666 
L 1344 2753 
L 3634 2753 
L 4006 4666 
L 4641 4666 
L 3731 0 
L 3097 0 
L 3531 2222 
L 1241 2222 
L 806 0 
L 172 0 
L 1081 4666 
z
" transform="scale(0.015625)"/>
        <path id="DejaVuSans-Oblique-41" d="M 2356 4666 
L 3072 4666 
L 3938 0 
L 3278 0 
L 3084 1197 
L 984 1197 
L 325 0 
L -341 0 
L 2356 4666 
z
M 2584 4044 
L 1275 1722 
L 2988 1722 
L 2584 4044 
z
" transform="scale(0.015625)"/>
       </defs>
       <use xlink:href="#DejaVuSans-4e" transform="translate(0 0.765625)"/>
       <use xlink:href="#DejaVuSans-49" transform="translate(74.804688 0.765625)"/>
       <use xlink:href="#DejaVuSans-4c" transform="translate(104.296875 0.765625)"/>
       <use xlink:href="#DejaVuSans-Oblique-78" transform="translate(160.966797 39.046875)scale(0.7)"/>
       <use xlink:href="#DejaVuSans-33" transform="translate(202.392578 39.046875)scale(0.7)"/>
       <use xlink:href="#DejaVuSans-Oblique-48" transform="translate(244.391211 39.046875)scale(0.7)"/>
       <use xlink:href="#DejaVuSans-Oblique-41" transform="translate(297.02793 39.046875)scale(0.7)"/>
      </g>
     </g>
    </g>
    <g id="text_3">
     <!-- cond -->
     <g transform="translate(101.268125 194.194687)scale(0.1 -0.1)">
      <defs>
       <path id="DejaVuSans-63" d="M 3122 3366 
L 3122 2828 
Q 2878 2963 2633 3030 
Q 2388 3097 2138 3097 
Q 1578 3097 1268 2742 
Q 959 2388 959 1747 
Q 959 1106 1268 751 
Q 1578 397 2138 397 
Q 2388 397 2633 464 
Q 2878 531 3122 666 
L 3122 134 
Q 2881 22 2623 -34 
Q 2366 -91 2075 -91 
Q 1284 -91 818 406 
Q 353 903 353 1747 
Q 353 2603 823 3093 
Q 1294 3584 2113 3584 
Q 2378 3584 2631 3529 
Q 2884 3475 3122 3366 
z
" transform="scale(0.015625)"/>
       <path id="DejaVuSans-6f" d="M 1959 3097 
Q 1497 3097 1228 2736 
Q 959 2375 959 1747 
Q 959 1119 1226 758 
Q 1494 397 1959 397 
Q 2419 397 2687 759 
Q 2956 1122 2956 1747 
Q 2956 2369 2687 2733 
Q 2419 3097 1959 3097 
z
M 1959 3584 
Q 2709 3584 3137 3096 
Q 3566 2609 3566 1747 
Q 3566 888 3137 398 
Q 2709 -91 1959 -91 
Q 1206 -91 779 398 
Q 353 888 353 1747 
Q 353 2609 779 3096 
Q 1206 3584 1959 3584 
z
" transform="scale(0.015625)"/>
       <path id="DejaVuSans-6e" d="M 3513 2113 
L 3513 0 
L 2938 0 
L 2938 2094 
Q 2938 2591 2744 2837 
Q 2550 3084 2163 3084 
Q 1697 3084 1428 2787 
Q 1159 2491 1159 1978 
L 1159 0 
L 581 0 
L 581 3500 
L 1159 3500 
L 1159 2956 
Q 1366 3272 1645 3428 
Q 1925 3584 2291 3584 
Q 2894 3584 3203 3211 
Q 3513 2838 3513 2113 
z
" transform="scale(0.015625)"/>
       <path id="DejaVuSans-64" d="M 2906 2969 
L 2906 4863 
L 3481 4863 
L 3481 0 
L 2906 0 
L 2906 525 
Q 2725 213 2448 61 
Q 2172 -91 1784 -91 
Q 1150 -91 751 415 
Q 353 922 353 1747 
Q 353 2572 751 3078 
Q 1150 3584 1784 3584 
Q 2172 3584 2448 3432 
Q 2725 3281 2906 2969 
z
M 947 1747 
Q 947 1113 1208 752 
Q 1469 391 1925 391 
Q 2381 391 2643 752 
Q 2906 1113 2906 1747 
Q 2906 2381 2643 2742 
Q 2381 3103 1925 3103 
Q 1469 3103 1208 2742 
Q 947 2381 947 1747 
z
" transform="scale(0.015625)"/>
      </defs>
      <use xlink:href="#DejaVuSans-63"/>
      <use xlink:href="#DejaVuSans-6f" x="54.980469"/>
      <use xlink:href="#DejaVuSans-6e" x="116.162109"/>
      <use xlink:href="#DejaVuSans-64" x="179.541016"/>
     </g>
    </g>
   </g>
   <g id="matplotlib.axis_2">
    <g id="ytick_1">
     <g id="line2d_3">
      <defs>
       <path id="m708fe2f2fa" d="M 0 0 
L -3.5 0 
" style="stroke: #000000; stroke-width: 0.8"/>
      </defs>
      <g>
       <use xlink:href="#m708fe2f2fa" x="58.163438" y="165.918125" style="stroke: #000000; stroke-width: 0.8"/>
      </g>
     </g>
     <g id="text_4">
      <!-- 0 -->
      <g transform="translate(44.800938 169.717344)scale(0.1 -0.1)">
       <defs>
        <path id="DejaVuSans-30" d="M 2034 4250 
Q 1547 4250 1301 3770 
Q 1056 3291 1056 2328 
Q 1056 1369 1301 889 
Q 1547 409 2034 409 
Q 2525 409 2770 889 
Q 3016 1369 3016 2328 
Q 3016 3291 2770 3770 
Q 2525 4250 2034 4250 
z
M 2034 4750 
Q 2819 4750 3233 4129 
Q 3647 3509 3647 2328 
Q 3647 1150 3233 529 
Q 2819 -91 2034 -91 
Q 1250 -91 836 529 
Q 422 1150 422 2328 
Q 422 3509 836 4129 
Q 1250 4750 2034 4750 
z
" transform="scale(0.015625)"/>
       </defs>
       <use xlink:href="#DejaVuSans-30"/>
      </g>
     </g>
    </g>
    <g id="ytick_2">
     <g id="line2d_4">
      <g>
       <use xlink:href="#m708fe2f2fa" x="58.163438" y="143.546049" style="stroke: #000000; stroke-width: 0.8"/>
      </g>
     </g>
     <g id="text_5">
      <!-- 50 -->
      <g transform="translate(38.438438 147.345267)scale(0.1 -0.1)">
       <defs>
        <path id="DejaVuSans-35" d="M 691 4666 
L 3169 4666 
L 3169 4134 
L 1269 4134 
L 1269 2991 
Q 1406 3038 1543 3061 
Q 1681 3084 1819 3084 
Q 2600 3084 3056 2656 
Q 3513 2228 3513 1497 
Q 3513 744 3044 326 
Q 2575 -91 1722 -91 
Q 1428 -91 1123 -41 
Q 819 9 494 109 
L 494 744 
Q 775 591 1075 516 
Q 1375 441 1709 441 
Q 2250 441 2565 725 
Q 2881 1009 2881 1497 
Q 2881 1984 2565 2268 
Q 2250 2553 1709 2553 
Q 1456 2553 1204 2497 
Q 953 2441 691 2322 
L 691 4666 
z
" transform="scale(0.015625)"/>
       </defs>
       <use xlink:href="#DejaVuSans-35"/>
       <use xlink:href="#DejaVuSans-30" x="63.623047"/>
      </g>
     </g>
    </g>
    <g id="ytick_3">
     <g id="line2d_5">
      <g>
       <use xlink:href="#m708fe2f2fa" x="58.163438" y="121.173972" style="stroke: #000000; stroke-width: 0.8"/>
      </g>
     </g>
     <g id="text_6">
      <!-- 100 -->
      <g transform="translate(32.075938 124.973191)scale(0.1 -0.1)">
       <defs>
        <path id="DejaVuSans-31" d="M 794 531 
L 1825 531 
L 1825 4091 
L 703 3866 
L 703 4441 
L 1819 4666 
L 2450 4666 
L 2450 531 
L 3481 531 
L 3481 0 
L 794 0 
L 794 531 
z
" transform="scale(0.015625)"/>
       </defs>
       <use xlink:href="#DejaVuSans-31"/>
       <use xlink:href="#DejaVuSans-30" x="63.623047"/>
       <use xlink:href="#DejaVuSans-30" x="127.246094"/>
      </g>
     </g>
    </g>
    <g id="ytick_4">
     <g id="line2d_6">
      <g>
       <use xlink:href="#m708fe2f2fa" x="58.163438" y="98.801896" style="stroke: #000000; stroke-width: 0.8"/>
      </g>
     </g>
     <g id="text_7">
      <!-- 150 -->
      <g transform="translate(32.075938 102.601115)scale(0.1 -0.1)">
       <use xlink:href="#DejaVuSans-31"/>
       <use xlink:href="#DejaVuSans-35" x="63.623047"/>
       <use xlink:href="#DejaVuSans-30" x="127.246094"/>
      </g>
     </g>
    </g>
    <g id="ytick_5">
     <g id="line2d_7">
      <g>
       <use xlink:href="#m708fe2f2fa" x="58.163438" y="76.429819" style="stroke: #000000; stroke-width: 0.8"/>
      </g>
     </g>
     <g id="text_8">
      <!-- 200 -->
      <g transform="translate(32.075938 80.229038)scale(0.1 -0.1)">
       <defs>
        <path id="DejaVuSans-32" d="M 1228 531 
L 3431 531 
L 3431 0 
L 469 0 
L 469 531 
Q 828 903 1448 1529 
Q 2069 2156 2228 2338 
Q 2531 2678 2651 2914 
Q 2772 3150 2772 3378 
Q 2772 3750 2511 3984 
Q 2250 4219 1831 4219 
Q 1534 4219 1204 4116 
Q 875 4013 500 3803 
L 500 4441 
Q 881 4594 1212 4672 
Q 1544 4750 1819 4750 
Q 2544 4750 2975 4387 
Q 3406 4025 3406 3419 
Q 3406 3131 3298 2873 
Q 3191 2616 2906 2266 
Q 2828 2175 2409 1742 
Q 1991 1309 1228 531 
z
" transform="scale(0.015625)"/>
       </defs>
       <use xlink:href="#DejaVuSans-32"/>
       <use xlink:href="#DejaVuSans-30" x="63.623047"/>
       <use xlink:href="#DejaVuSans-30" x="127.246094"/>
      </g>
     </g>
    </g>
    <g id="ytick_6">
     <g id="line2d_8">
      <g>
       <use xlink:href="#m708fe2f2fa" x="58.163438" y="54.057743" style="stroke: #000000; stroke-width: 0.8"/>
      </g>
     </g>
     <g id="text_9">
      <!-- 250 -->
      <g transform="translate(32.075938 57.856962)scale(0.1 -0.1)">
       <use xlink:href="#DejaVuSans-32"/>
       <use xlink:href="#DejaVuSans-35" x="63.623047"/>
       <use xlink:href="#DejaVuSans-30" x="127.246094"/>
      </g>
     </g>
    </g>
    <g id="text_10">
     <!-- (%) iMN yield -->
     <g transform="translate(14.798438 127.380625)rotate(-90)scale(0.1 -0.1)">
      <defs>
       <path id="DejaVuSans-28" d="M 1984 4856 
Q 1566 4138 1362 3434 
Q 1159 2731 1159 2009 
Q 1159 1288 1364 580 
Q 1569 -128 1984 -844 
L 1484 -844 
Q 1016 -109 783 600 
Q 550 1309 550 2009 
Q 550 2706 781 3412 
Q 1013 4119 1484 4856 
L 1984 4856 
z
" transform="scale(0.015625)"/>
       <path id="DejaVuSans-25" d="M 4653 2053 
Q 4381 2053 4226 1822 
Q 4072 1591 4072 1178 
Q 4072 772 4226 539 
Q 4381 306 4653 306 
Q 4919 306 5073 539 
Q 5228 772 5228 1178 
Q 5228 1588 5073 1820 
Q 4919 2053 4653 2053 
z
M 4653 2450 
Q 5147 2450 5437 2106 
Q 5728 1763 5728 1178 
Q 5728 594 5436 251 
Q 5144 -91 4653 -91 
Q 4153 -91 3862 251 
Q 3572 594 3572 1178 
Q 3572 1766 3864 2108 
Q 4156 2450 4653 2450 
z
M 1428 4353 
Q 1159 4353 1004 4120 
Q 850 3888 850 3481 
Q 850 3069 1003 2837 
Q 1156 2606 1428 2606 
Q 1700 2606 1854 2837 
Q 2009 3069 2009 3481 
Q 2009 3884 1853 4118 
Q 1697 4353 1428 4353 
z
M 4250 4750 
L 4750 4750 
L 1831 -91 
L 1331 -91 
L 4250 4750 
z
M 1428 4750 
Q 1922 4750 2215 4408 
Q 2509 4066 2509 3481 
Q 2509 2891 2217 2550 
Q 1925 2209 1428 2209 
Q 931 2209 642 2551 
Q 353 2894 353 3481 
Q 353 4063 643 4406 
Q 934 4750 1428 4750 
z
" transform="scale(0.015625)"/>
       <path id="DejaVuSans-29" d="M 513 4856 
L 1013 4856 
Q 1481 4119 1714 3412 
Q 1947 2706 1947 2009 
Q 1947 1309 1714 600 
Q 1481 -109 1013 -844 
L 513 -844 
Q 928 -128 1133 580 
Q 1338 1288 1338 2009 
Q 1338 2731 1133 3434 
Q 928 4138 513 4856 
z
" transform="scale(0.015625)"/>
       <path id="DejaVuSans-20" transform="scale(0.015625)"/>
       <path id="DejaVuSans-69" d="M 603 3500 
L 1178 3500 
L 1178 0 
L 603 0 
L 603 3500 
z
M 603 4863 
L 1178 4863 
L 1178 4134 
L 603 4134 
L 603 4863 
z
" transform="scale(0.015625)"/>
       <path id="DejaVuSans-4d" d="M 628 4666 
L 1569 4666 
L 2759 1491 
L 3956 4666 
L 4897 4666 
L 4897 0 
L 4281 0 
L 4281 4097 
L 3078 897 
L 2444 897 
L 1241 4097 
L 1241 0 
L 628 0 
L 628 4666 
z
" transform="scale(0.015625)"/>
       <path id="DejaVuSans-79" d="M 2059 -325 
Q 1816 -950 1584 -1140 
Q 1353 -1331 966 -1331 
L 506 -1331 
L 506 -850 
L 844 -850 
Q 1081 -850 1212 -737 
Q 1344 -625 1503 -206 
L 1606 56 
L 191 3500 
L 800 3500 
L 1894 763 
L 2988 3500 
L 3597 3500 
L 2059 -325 
z
" transform="scale(0.015625)"/>
       <path id="DejaVuSans-65" d="M 3597 1894 
L 3597 1613 
L 953 1613 
Q 991 1019 1311 708 
Q 1631 397 2203 397 
Q 2534 397 2845 478 
Q 3156 559 3463 722 
L 3463 178 
Q 3153 47 2828 -22 
Q 2503 -91 2169 -91 
Q 1331 -91 842 396 
Q 353 884 353 1716 
Q 353 2575 817 3079 
Q 1281 3584 2069 3584 
Q 2775 3584 3186 3129 
Q 3597 2675 3597 1894 
z
M 3022 2063 
Q 3016 2534 2758 2815 
Q 2500 3097 2075 3097 
Q 1594 3097 1305 2825 
Q 1016 2553 972 2059 
L 3022 2063 
z
" transform="scale(0.015625)"/>
       <path id="DejaVuSans-6c" d="M 603 4863 
L 1178 4863 
L 1178 0 
L 603 0 
L 603 4863 
z
" transform="scale(0.015625)"/>
      </defs>
      <use xlink:href="#DejaVuSans-28"/>
      <use xlink:href="#DejaVuSans-25" x="39.013672"/>
      <use xlink:href="#DejaVuSans-29" x="134.033203"/>
      <use xlink:href="#DejaVuSans-20" x="173.046875"/>
      <use xlink:href="#DejaVuSans-69" x="204.833984"/>
      <use xlink:href="#DejaVuSans-4d" x="232.617188"/>
      <use xlink:href="#DejaVuSans-4e" x="318.896484"/>
      <use xlink:href="#DejaVuSans-20" x="393.701172"/>
      <use xlink:href="#DejaVuSans-79" x="425.488281"/>
      <use xlink:href="#DejaVuSans-69" x="484.667969"/>
      <use xlink:href="#DejaVuSans-65" x="512.451172"/>
      <use xlink:href="#DejaVuSans-6c" x="573.974609"/>
      <use xlink:href="#DejaVuSans-64" x="601.757812"/>
     </g>
     <!-- per MEF plated -->
     <g transform="translate(25.99625 131.79)rotate(-90)scale(0.1 -0.1)">
      <defs>
       <path id="DejaVuSans-70" d="M 1159 525 
L 1159 -1331 
L 581 -1331 
L 581 3500 
L 1159 3500 
L 1159 2969 
Q 1341 3281 1617 3432 
Q 1894 3584 2278 3584 
Q 2916 3584 3314 3078 
Q 3713 2572 3713 1747 
Q 3713 922 3314 415 
Q 2916 -91 2278 -91 
Q 1894 -91 1617 61 
Q 1341 213 1159 525 
z
M 3116 1747 
Q 3116 2381 2855 2742 
Q 2594 3103 2138 3103 
Q 1681 3103 1420 2742 
Q 1159 2381 1159 1747 
Q 1159 1113 1420 752 
Q 1681 391 2138 391 
Q 2594 391 2855 752 
Q 3116 1113 3116 1747 
z
" transform="scale(0.015625)"/>
       <path id="DejaVuSans-72" d="M 2631 2963 
Q 2534 3019 2420 3045 
Q 2306 3072 2169 3072 
Q 1681 3072 1420 2755 
Q 1159 2438 1159 1844 
L 1159 0 
L 581 0 
L 581 3500 
L 1159 3500 
L 1159 2956 
Q 1341 3275 1631 3429 
Q 1922 3584 2338 3584 
Q 2397 3584 2469 3576 
Q 2541 3569 2628 3553 
L 2631 2963 
z
" transform="scale(0.015625)"/>
       <path id="DejaVuSans-45" d="M 628 4666 
L 3578 4666 
L 3578 4134 
L 1259 4134 
L 1259 2753 
L 3481 2753 
L 3481 2222 
L 1259 2222 
L 1259 531 
L 3634 531 
L 3634 0 
L 628 0 
L 628 4666 
z
" transform="scale(0.015625)"/>
       <path id="DejaVuSans-46" d="M 628 4666 
L 3309 4666 
L 3309 4134 
L 1259 4134 
L 1259 2759 
L 3109 2759 
L 3109 2228 
L 1259 2228 
L 1259 0 
L 628 0 
L 628 4666 
z
" transform="scale(0.015625)"/>
       <path id="DejaVuSans-61" d="M 2194 1759 
Q 1497 1759 1228 1600 
Q 959 1441 959 1056 
Q 959 750 1161 570 
Q 1363 391 1709 391 
Q 2188 391 2477 730 
Q 2766 1069 2766 1631 
L 2766 1759 
L 2194 1759 
z
M 3341 1997 
L 3341 0 
L 2766 0 
L 2766 531 
Q 2569 213 2275 61 
Q 1981 -91 1556 -91 
Q 1019 -91 701 211 
Q 384 513 384 1019 
Q 384 1609 779 1909 
Q 1175 2209 1959 2209 
L 2766 2209 
L 2766 2266 
Q 2766 2663 2505 2880 
Q 2244 3097 1772 3097 
Q 1472 3097 1187 3025 
Q 903 2953 641 2809 
L 641 3341 
Q 956 3463 1253 3523 
Q 1550 3584 1831 3584 
Q 2591 3584 2966 3190 
Q 3341 2797 3341 1997 
z
" transform="scale(0.015625)"/>
       <path id="DejaVuSans-74" d="M 1172 4494 
L 1172 3500 
L 2356 3500 
L 2356 3053 
L 1172 3053 
L 1172 1153 
Q 1172 725 1289 603 
Q 1406 481 1766 481 
L 2356 481 
L 2356 0 
L 1766 0 
Q 1100 0 847 248 
Q 594 497 594 1153 
L 594 3053 
L 172 3053 
L 172 3500 
L 594 3500 
L 594 4494 
L 1172 4494 
z
" transform="scale(0.015625)"/>
      </defs>
      <use xlink:href="#DejaVuSans-70"/>
      <use xlink:href="#DejaVuSans-65" x="63.476562"/>
      <use xlink:href="#DejaVuSans-72" x="125"/>
      <use xlink:href="#DejaVuSans-20" x="166.113281"/>
      <use xlink:href="#DejaVuSans-4d" x="197.900391"/>
      <use xlink:href="#DejaVuSans-45" x="284.179688"/>
      <use xlink:href="#DejaVuSans-46" x="347.363281"/>
      <use xlink:href="#DejaVuSans-20" x="404.882812"/>
      <use xlink:href="#DejaVuSans-70" x="436.669922"/>
      <use xlink:href="#DejaVuSans-6c" x="500.146484"/>
      <use xlink:href="#DejaVuSans-61" x="527.929688"/>
      <use xlink:href="#DejaVuSans-74" x="589.208984"/>
      <use xlink:href="#DejaVuSans-65" x="628.417969"/>
      <use xlink:href="#DejaVuSans-64" x="689.941406"/>
     </g>
    </g>
   </g>
   <g id="line2d_9">
    <path d="M 74.349612 165.619433 
L 74.349612 165.284981 
" clip-path="url(#pdbd33dfdfc)" style="fill: none; stroke: #424242; stroke-width: 2.7; stroke-linecap: square"/>
   </g>
   <g id="line2d_10">
    <path d="M 130.164006 164.710442 
L 130.164006 162.226225 
" clip-path="url(#pdbd33dfdfc)" style="fill: none; stroke: #424242; stroke-width: 2.7; stroke-linecap: square"/>
   </g>
   <g id="line2d_11">
    <path d="M 96.675369 140.533097 
L 96.675369 130.347984 
" clip-path="url(#pdbd33dfdfc)" style="fill: none; stroke: #424242; stroke-width: 2.7; stroke-linecap: square"/>
   </g>
   <g id="line2d_12">
    <path d="M 152.489763 95.635539 
L 152.489763 66.22579 
" clip-path="url(#pdbd33dfdfc)" style="fill: none; stroke: #424242; stroke-width: 2.7; stroke-linecap: square"/>
   </g>
   <g id="line2d_13">
    <path d="M 74.349612 116.71528 
L 74.349612 114.204408 
L 130.164006 114.204408 
L 130.164006 116.71528 
" clip-path="url(#pdbd33dfdfc)" style="fill: none; stroke: #333333; stroke-width: 1.5; stroke-linecap: square"/>
   </g>
   <g id="line2d_14">
    <path d="M 96.675369 38.820185 
L 96.675369 36.309313 
L 152.489763 36.309313 
L 152.489763 38.820185 
" clip-path="url(#pdbd33dfdfc)" style="fill: none; stroke: #333333; stroke-width: 1.5; stroke-linecap: square"/>
   </g>
   <g id="patch_7">
    <path d="M 58.163438 165.918125 
L 58.163438 22.318125 
" style="fill: none; stroke: #000000; stroke-width: 0.8; stroke-linejoin: miter; stroke-linecap: square"/>
   </g>
   <g id="patch_8">
    <path d="M 168.675938 165.918125 
L 168.675938 22.318125 
" style="fill: none; stroke: #000000; stroke-width: 0.8; stroke-linejoin: miter; stroke-linecap: square"/>
   </g>
   <g id="patch_9">
    <path d="M 58.163438 165.918125 
L 168.675938 165.918125 
" style="fill: none; stroke: #000000; stroke-width: 0.8; stroke-linejoin: miter; stroke-linecap: square"/>
   </g>
   <g id="patch_10">
    <path d="M 58.163438 22.318125 
L 168.675938 22.318125 
" style="fill: none; stroke: #000000; stroke-width: 0.8; stroke-linejoin: miter; stroke-linecap: square"/>
   </g>
   <g id="PathCollection_7">
    <defs>
     <path id="C0_0_18f0dea312" d="M 0 2.5 
C 0.663008 2.5 1.29895 2.236584 1.767767 1.767767 
C 2.236584 1.29895 2.5 0.663008 2.5 -0 
C 2.5 -0.663008 2.236584 -1.29895 1.767767 -1.767767 
C 1.29895 -2.236584 0.663008 -2.5 0 -2.5 
C -0.663008 -2.5 -1.29895 -2.236584 -1.767767 -1.767767 
C -2.236584 -1.29895 -2.5 -0.663008 -2.5 0 
C -2.5 0.663008 -2.236584 1.29895 -1.767767 1.767767 
C -1.29895 2.236584 -0.663008 2.5 0 2.5 
z
"/>
    </defs>
    <g clip-path="url(#pdbd33dfdfc)">
     <use xlink:href="#C0_0_18f0dea312" x="75.606398" y="165.38567" style="fill: #ffffff; stroke: #000000; stroke-width: 0.4"/>
    </g>
    <g clip-path="url(#pdbd33dfdfc)">
     <use xlink:href="#C0_0_18f0dea312" x="72.78699" y="165.094833" style="fill: #ffffff; stroke: #000000; stroke-width: 0.4"/>
    </g>
    <g clip-path="url(#pdbd33dfdfc)">
     <use xlink:href="#C0_0_18f0dea312" x="74.834116" y="165.00087" style="fill: #ffffff; stroke: #000000; stroke-width: 0.4"/>
    </g>
    <g clip-path="url(#pdbd33dfdfc)">
     <use xlink:href="#C0_0_18f0dea312" x="75.355073" y="165.282758" style="fill: #ffffff; stroke: #000000; stroke-width: 0.4"/>
    </g>
   </g>
   <g id="PathCollection_8">
    <defs>
     <path id="C1_0_25246477b4" d="M 0 2.5 
C 0.663008 2.5 1.29895 2.236584 1.767767 1.767767 
C 2.236584 1.29895 2.5 0.663008 2.5 -0 
C 2.5 -0.663008 2.236584 -1.29895 1.767767 -1.767767 
C 1.29895 -2.236584 0.663008 -2.5 0 -2.5 
C -0.663008 -2.5 -1.29895 -2.236584 -1.767767 -1.767767 
C -2.236584 -1.29895 -2.5 -0.663008 -2.5 0 
C -2.5 0.663008 -2.236584 1.29895 -1.767767 1.767767 
C -1.29895 2.236584 -0.663008 2.5 0 2.5 
z
"/>
    </defs>
    <g clip-path="url(#pdbd33dfdfc)">
     <use xlink:href="#C1_0_25246477b4" x="98.383824" y="131.662002" style="fill: #ffffff; stroke: #000000; stroke-width: 0.4"/>
    </g>
    <g clip-path="url(#pdbd33dfdfc)">
     <use xlink:href="#C1_0_25246477b4" x="95.850414" y="124.247896" style="fill: #ffffff; stroke: #000000; stroke-width: 0.4"/>
    </g>
    <g clip-path="url(#pdbd33dfdfc)">
     <use xlink:href="#C1_0_25246477b4" x="98.394211" y="133.116187" style="fill: #ffffff; stroke: #000000; stroke-width: 0.4"/>
    </g>
    <g clip-path="url(#pdbd33dfdfc)">
     <use xlink:href="#C1_0_25246477b4" x="94.974873" y="126.310601" style="fill: #ffffff; stroke: #000000; stroke-width: 0.4"/>
    </g>
   </g>
   <g id="PathCollection_9">
    <defs>
     <path id="C2_0_99a89f5c5b" d="M 0 2.5 
C 0.663008 2.5 1.29895 2.236584 1.767767 1.767767 
C 2.236584 1.29895 2.5 0.663008 2.5 -0 
C 2.5 -0.663008 2.236584 -1.29895 1.767767 -1.767767 
C 1.29895 -2.236584 0.663008 -2.5 0 -2.5 
C -0.663008 -2.5 -1.29895 -2.236584 -1.767767 -1.767767 
C -2.236584 -1.29895 -2.5 -0.663008 -2.5 0 
C -2.5 0.663008 -2.236584 1.29895 -1.767767 1.767767 
C -1.29895 2.236584 -0.663008 2.5 0 2.5 
z
"/>
    </defs>
    <g clip-path="url(#pdbd33dfdfc)">
     <use xlink:href="#C2_0_99a89f5c5b" x="129.798138" y="160.231143" style="fill: #ffffff; stroke: #000000; stroke-width: 0.4"/>
    </g>
    <g clip-path="url(#pdbd33dfdfc)">
     <use xlink:href="#C2_0_99a89f5c5b" x="130.63548" y="163.935959" style="fill: #ffffff; stroke: #000000; stroke-width: 0.4"/>
    </g>
    <g clip-path="url(#pdbd33dfdfc)">
     <use xlink:href="#C2_0_99a89f5c5b" x="131.282276" y="160.598045" style="fill: #ffffff; stroke: #000000; stroke-width: 0.4"/>
    </g>
    <g clip-path="url(#pdbd33dfdfc)">
     <use xlink:href="#C2_0_99a89f5c5b" x="131.630911" y="161.739021" style="fill: #ffffff; stroke: #000000; stroke-width: 0.4"/>
    </g>
   </g>
   <g id="PathCollection_10">
    <defs>
     <path id="C3_0_082e976d54" d="M 0 2.5 
C 0.663008 2.5 1.29895 2.236584 1.767767 1.767767 
C 2.236584 1.29895 2.5 0.663008 2.5 -0 
C 2.5 -0.663008 2.236584 -1.29895 1.767767 -1.767767 
C 1.29895 -2.236584 0.663008 -2.5 0 -2.5 
C -0.663008 -2.5 -1.29895 -2.236584 -1.767767 -1.767767 
C -2.236584 -1.29895 -2.5 -0.663008 -2.5 0 
C -2.5 0.663008 -2.236584 1.29895 -1.767767 1.767767 
C -1.29895 2.236584 -0.663008 2.5 0 2.5 
z
"/>
    </defs>
    <g clip-path="url(#pdbd33dfdfc)">
     <use xlink:href="#C3_0_082e976d54" x="150.963554" y="70.510168" style="fill: #ffffff; stroke: #000000; stroke-width: 0.4"/>
    </g>
    <g clip-path="url(#pdbd33dfdfc)">
     <use xlink:href="#C3_0_082e976d54" x="150.44206" y="66.201306" style="fill: #ffffff; stroke: #000000; stroke-width: 0.4"/>
    </g>
    <g clip-path="url(#pdbd33dfdfc)">
     <use xlink:href="#C3_0_082e976d54" x="151.295973" y="66.32659" style="fill: #ffffff; stroke: #000000; stroke-width: 0.4"/>
    </g>
    <g clip-path="url(#pdbd33dfdfc)">
     <use xlink:href="#C3_0_082e976d54" x="153.550392" y="46.3528" style="fill: #ffffff; stroke: #000000; stroke-width: 0.4"/>
    </g>
   </g>
   <g id="PathCollection_11">
    <path d="M 72.852585 167.903567 
L 77.852585 167.903567 
L 77.852585 162.903567 
L 72.852585 162.903567 
z
" clip-path="url(#pdbd33dfdfc)" style="fill: #ffffff; stroke: #000000; stroke-width: 0.4"/>
    <path d="M 69.824564 168.091493 
L 74.824564 168.091493 
L 74.824564 163.091493 
L 69.824564 163.091493 
z
" clip-path="url(#pdbd33dfdfc)" style="fill: #ffffff; stroke: #000000; stroke-width: 0.4"/>
    <path d="M 69.465576 168.257046 
L 74.465576 168.257046 
L 74.465576 163.257046 
L 69.465576 163.257046 
z
" clip-path="url(#pdbd33dfdfc)" style="fill: #ffffff; stroke: #000000; stroke-width: 0.4"/>
    <path d="M 71.039722 168.203353 
L 76.039722 168.203353 
L 76.039722 163.203353 
L 71.039722 163.203353 
z
" clip-path="url(#pdbd33dfdfc)" style="fill: #ffffff; stroke: #000000; stroke-width: 0.4"/>
   </g>
   <g id="PathCollection_12">
    <path d="M 94.039673 140.394862 
L 99.039673 140.394862 
L 99.039673 135.394862 
L 94.039673 135.394862 
z
" clip-path="url(#pdbd33dfdfc)" style="fill: #ffffff; stroke: #000000; stroke-width: 0.4"/>
    <path d="M 94.08191 139.79529 
L 99.08191 139.79529 
L 99.08191 134.79529 
L 94.08191 134.79529 
z
" clip-path="url(#pdbd33dfdfc)" style="fill: #ffffff; stroke: #000000; stroke-width: 0.4"/>
    <path d="M 96.196746 137.598353 
L 101.196746 137.598353 
L 101.196746 132.598353 
L 96.196746 132.598353 
z
" clip-path="url(#pdbd33dfdfc)" style="fill: #ffffff; stroke: #000000; stroke-width: 0.4"/>
    <path d="M 96.1092 136.175489 
L 101.1092 136.175489 
L 101.1092 131.175489 
L 96.1092 131.175489 
z
" clip-path="url(#pdbd33dfdfc)" style="fill: #ffffff; stroke: #000000; stroke-width: 0.4"/>
   </g>
   <g id="PathCollection_13">
    <path d="M 129.789185 167.4606 
L 134.789185 167.4606 
L 134.789185 162.4606 
L 129.789185 162.4606 
z
" clip-path="url(#pdbd33dfdfc)" style="fill: #ffffff; stroke: #000000; stroke-width: 0.4"/>
    <path d="M 128.477662 167.724591 
L 133.477662 167.724591 
L 133.477662 162.724591 
L 128.477662 162.724591 
z
" clip-path="url(#pdbd33dfdfc)" style="fill: #ffffff; stroke: #000000; stroke-width: 0.4"/>
    <path d="M 125.020503 167.61273 
L 130.020503 167.61273 
L 130.020503 162.61273 
L 125.020503 162.61273 
z
" clip-path="url(#pdbd33dfdfc)" style="fill: #ffffff; stroke: #000000; stroke-width: 0.4"/>
    <path d="M 125.172287 167.617205 
L 130.172287 167.617205 
L 130.172287 162.617205 
L 125.172287 162.617205 
z
" clip-path="url(#pdbd33dfdfc)" style="fill: #ffffff; stroke: #000000; stroke-width: 0.4"/>
   </g>
   <g id="PathCollection_14">
    <path d="M 147.683651 86.724251 
L 152.683651 86.724251 
L 152.683651 81.724251 
L 147.683651 81.724251 
z
" clip-path="url(#pdbd33dfdfc)" style="fill: #ffffff; stroke: #000000; stroke-width: 0.4"/>
    <path d="M 149.700222 92.760237 
L 154.700222 92.760237 
L 154.700222 87.760237 
L 149.700222 87.760237 
z
" clip-path="url(#pdbd33dfdfc)" style="fill: #ffffff; stroke: #000000; stroke-width: 0.4"/>
    <path d="M 147.54402 98.715684 
L 152.54402 98.715684 
L 152.54402 93.715684 
L 147.54402 93.715684 
z
" clip-path="url(#pdbd33dfdfc)" style="fill: #ffffff; stroke: #000000; stroke-width: 0.4"/>
    <path d="M 147.622142 88.402157 
L 152.622142 88.402157 
L 152.622142 83.402157 
L 147.622142 83.402157 
z
" clip-path="url(#pdbd33dfdfc)" style="fill: #ffffff; stroke: #000000; stroke-width: 0.4"/>
   </g>
   <g id="PathCollection_15">
    <path d="M 73.548512 163.212302 
L 71.048512 168.212302 
L 76.048512 168.212302 
z
" clip-path="url(#pdbd33dfdfc)" style="fill: #ffffff; stroke: #000000; stroke-width: 0.4"/>
    <path d="M 77.102611 163.198879 
L 74.602611 168.198879 
L 79.602611 168.198879 
z
" clip-path="url(#pdbd33dfdfc)" style="fill: #ffffff; stroke: #000000; stroke-width: 0.4"/>
   </g>
   <g id="PathCollection_16">
    <path d="M 99.251251 137.296489 
L 96.751251 142.296489 
L 101.751251 142.296489 
z
" clip-path="url(#pdbd33dfdfc)" style="fill: #ffffff; stroke: #000000; stroke-width: 0.4"/>
    <path d="M 95.306683 149.811428 
L 92.806683 154.811428 
L 97.806683 154.811428 
z
" clip-path="url(#pdbd33dfdfc)" style="fill: #ffffff; stroke: #000000; stroke-width: 0.4"/>
   </g>
   <g id="PathCollection_17">
    <path d="M 130.757406 162.648526 
L 128.257406 167.648526 
L 133.257406 167.648526 
z
" clip-path="url(#pdbd33dfdfc)" style="fill: #ffffff; stroke: #000000; stroke-width: 0.4"/>
    <path d="M 129.944427 161.252508 
L 127.444427 166.252508 
L 132.444427 166.252508 
z
" clip-path="url(#pdbd33dfdfc)" style="fill: #ffffff; stroke: #000000; stroke-width: 0.4"/>
   </g>
   <g id="PathCollection_18">
    <path d="M 153.597844 99.697977 
L 151.097844 104.697977 
L 156.097844 104.697977 
z
" clip-path="url(#pdbd33dfdfc)" style="fill: #ffffff; stroke: #000000; stroke-width: 0.4"/>
    <path d="M 153.469306 113.089902 
L 150.969306 118.089902 
L 155.969306 118.089902 
z
" clip-path="url(#pdbd33dfdfc)" style="fill: #ffffff; stroke: #000000; stroke-width: 0.4"/>
   </g>
   <g id="text_11">
    <!-- ns -->
    <g transform="translate(96.483371 111.124721)scale(0.1 -0.1)">
     <defs>
      <path id="DejaVuSans-73" d="M 2834 3397 
L 2834 2853 
Q 2591 2978 2328 3040 
Q 2066 3103 1784 3103 
Q 1356 3103 1142 2972 
Q 928 2841 928 2578 
Q 928 2378 1081 2264 
Q 1234 2150 1697 2047 
L 1894 2003 
Q 2506 1872 2764 1633 
Q 3022 1394 3022 966 
Q 3022 478 2636 193 
Q 2250 -91 1575 -91 
Q 1294 -91 989 -36 
Q 684 19 347 128 
L 347 722 
Q 666 556 975 473 
Q 1284 391 1588 391 
Q 1994 391 2212 530 
Q 2431 669 2431 922 
Q 2431 1156 2273 1281 
Q 2116 1406 1581 1522 
L 1381 1569 
Q 847 1681 609 1914 
Q 372 2147 372 2553 
Q 372 3047 722 3315 
Q 1072 3584 1716 3584 
Q 2034 3584 2315 3537 
Q 2597 3491 2834 3397 
z
" transform="scale(0.015625)"/>
     </defs>
     <use xlink:href="#DejaVuSans-6e"/>
     <use xlink:href="#DejaVuSans-73" x="63.378906"/>
    </g>
   </g>
   <g id="text_12">
    <!-- * -->
    <g transform="translate(122.082566 33.229625)scale(0.1 -0.1)">
     <defs>
      <path id="DejaVuSans-2a" d="M 3009 3897 
L 1888 3291 
L 3009 2681 
L 2828 2375 
L 1778 3009 
L 1778 1831 
L 1422 1831 
L 1422 3009 
L 372 2375 
L 191 2681 
L 1313 3291 
L 191 3897 
L 372 4206 
L 1422 3572 
L 1422 4750 
L 1778 4750 
L 1778 3572 
L 2828 4206 
L 3009 3897 
z
" transform="scale(0.015625)"/>
     </defs>
     <use xlink:href="#DejaVuSans-2a"/>
    </g>
   </g>
   <g id="text_13">
    <g id="patch_11">
     <path d="M 65.398049 156.463077 
L 83.301174 156.463077 
L 83.301174 144.784952 
L 65.398049 144.784952 
z
" style="fill: #ffffff; opacity: 0.75"/>
    </g>
    <!-- 1.0 -->
    <g transform="translate(66.398049 153.383389)scale(0.1 -0.1)">
     <defs>
      <path id="DejaVuSans-2e" d="M 684 794 
L 1344 794 
L 1344 0 
L 684 0 
L 684 794 
z
" transform="scale(0.015625)"/>
     </defs>
     <use xlink:href="#DejaVuSans-31"/>
     <use xlink:href="#DejaVuSans-2e" x="63.623047"/>
     <use xlink:href="#DejaVuSans-30" x="95.410156"/>
    </g>
   </g>
   <g id="text_14">
    <g id="patch_12">
     <path d="M 121.212443 154.582033 
L 139.115568 154.582033 
L 139.115568 142.903908 
L 121.212443 142.903908 
z
" style="fill: #ffffff; opacity: 0.75"/>
    </g>
    <!-- 5.2 -->
    <g transform="translate(122.212443 151.502345)scale(0.1 -0.1)">
     <use xlink:href="#DejaVuSans-35"/>
     <use xlink:href="#DejaVuSans-2e" x="63.623047"/>
     <use xlink:href="#DejaVuSans-32" x="95.410156"/>
    </g>
   </g>
   <g id="text_15">
    <g id="patch_13">
     <path d="M 84.542557 126.14086 
L 108.808182 126.14086 
L 108.808182 114.462735 
L 84.542557 114.462735 
z
" style="fill: #ffffff; opacity: 0.75"/>
    </g>
    <!-- 68.8 -->
    <g transform="translate(85.542557 123.061172)scale(0.1 -0.1)">
     <defs>
      <path id="DejaVuSans-36" d="M 2113 2584 
Q 1688 2584 1439 2293 
Q 1191 2003 1191 1497 
Q 1191 994 1439 701 
Q 1688 409 2113 409 
Q 2538 409 2786 701 
Q 3034 994 3034 1497 
Q 3034 2003 2786 2293 
Q 2538 2584 2113 2584 
z
M 3366 4563 
L 3366 3988 
Q 3128 4100 2886 4159 
Q 2644 4219 2406 4219 
Q 1781 4219 1451 3797 
Q 1122 3375 1075 2522 
Q 1259 2794 1537 2939 
Q 1816 3084 2150 3084 
Q 2853 3084 3261 2657 
Q 3669 2231 3669 1497 
Q 3669 778 3244 343 
Q 2819 -91 2113 -91 
Q 1303 -91 875 529 
Q 447 1150 447 2328 
Q 447 3434 972 4092 
Q 1497 4750 2381 4750 
Q 2619 4750 2861 4703 
Q 3103 4656 3366 4563 
z
" transform="scale(0.015625)"/>
      <path id="DejaVuSans-38" d="M 2034 2216 
Q 1584 2216 1326 1975 
Q 1069 1734 1069 1313 
Q 1069 891 1326 650 
Q 1584 409 2034 409 
Q 2484 409 2743 651 
Q 3003 894 3003 1313 
Q 3003 1734 2745 1975 
Q 2488 2216 2034 2216 
z
M 1403 2484 
Q 997 2584 770 2862 
Q 544 3141 544 3541 
Q 544 4100 942 4425 
Q 1341 4750 2034 4750 
Q 2731 4750 3128 4425 
Q 3525 4100 3525 3541 
Q 3525 3141 3298 2862 
Q 3072 2584 2669 2484 
Q 3125 2378 3379 2068 
Q 3634 1759 3634 1313 
Q 3634 634 3220 271 
Q 2806 -91 2034 -91 
Q 1263 -91 848 271 
Q 434 634 434 1313 
Q 434 1759 690 2068 
Q 947 2378 1403 2484 
z
M 1172 3481 
Q 1172 3119 1398 2916 
Q 1625 2713 2034 2713 
Q 2441 2713 2670 2916 
Q 2900 3119 2900 3481 
Q 2900 3844 2670 4047 
Q 2441 4250 2034 4250 
Q 1625 4250 1398 4047 
Q 1172 3844 1172 3481 
z
" transform="scale(0.015625)"/>
     </defs>
     <use xlink:href="#DejaVuSans-36"/>
     <use xlink:href="#DejaVuSans-38" x="63.623047"/>
     <use xlink:href="#DejaVuSans-2e" x="127.246094"/>
     <use xlink:href="#DejaVuSans-38" x="159.033203"/>
    </g>
   </g>
   <g id="text_16">
    <g id="patch_14">
     <path d="M 137.175701 73.378107 
L 167.803826 73.378107 
L 167.803826 61.699982 
L 137.175701 61.699982 
z
" style="fill: #ffffff; opacity: 0.75"/>
    </g>
    <!-- 186.7 -->
    <g transform="translate(138.175701 70.29842)scale(0.1 -0.1)">
     <defs>
      <path id="DejaVuSans-37" d="M 525 4666 
L 3525 4666 
L 3525 4397 
L 1831 0 
L 1172 0 
L 2766 4134 
L 525 4134 
L 525 4666 
z
" transform="scale(0.015625)"/>
     </defs>
     <use xlink:href="#DejaVuSans-31"/>
     <use xlink:href="#DejaVuSans-38" x="63.623047"/>
     <use xlink:href="#DejaVuSans-36" x="127.246094"/>
     <use xlink:href="#DejaVuSans-2e" x="190.869141"/>
     <use xlink:href="#DejaVuSans-37" x="222.65625"/>
    </g>
   </g>
   <g id="text_17">
    <!-- 14 dpi -->
    <g transform="translate(94.592813 16.318125)scale(0.12 -0.12)">
     <defs>
      <path id="DejaVuSans-34" d="M 2419 4116 
L 825 1625 
L 2419 1625 
L 2419 4116 
z
M 2253 4666 
L 3047 4666 
L 3047 1625 
L 3713 1625 
L 3713 1100 
L 3047 1100 
L 3047 0 
L 2419 0 
L 2419 1100 
L 313 1100 
L 313 1709 
L 2253 4666 
z
" transform="scale(0.015625)"/>
     </defs>
     <use xlink:href="#DejaVuSans-31"/>
     <use xlink:href="#DejaVuSans-34" x="63.623047"/>
     <use xlink:href="#DejaVuSans-20" x="127.246094"/>
     <use xlink:href="#DejaVuSans-64" x="159.033203"/>
     <use xlink:href="#DejaVuSans-70" x="222.509766"/>
     <use xlink:href="#DejaVuSans-69" x="285.986328"/>
    </g>
   </g>
  </g>
  <g id="axes_2">
   <g id="patch_15">
    <path d="M 224.700938 165.918125 
L 335.213438 165.918125 
L 335.213438 22.318125 
L 224.700938 22.318125 
z
" style="fill: #ffffff"/>
   </g>
   <g id="patch_16">
    <path d="M 229.724233 165.918125 
L 252.049991 165.918125 
L 252.049991 162.264747 
L 229.724233 162.264747 
z
" clip-path="url(#pf7e83bd004)" style="opacity: 0.3"/>
   </g>
   <g id="patch_17">
    <path d="M 285.538627 165.918125 
L 307.864384 165.918125 
L 307.864384 152.321714 
L 285.538627 152.321714 
z
" clip-path="url(#pf7e83bd004)" style="opacity: 0.3"/>
   </g>
   <g id="patch_18">
    <path d="M 252.049991 165.918125 
L 274.375748 165.918125 
L 274.375748 128.269555 
L 252.049991 128.269555 
z
" clip-path="url(#pf7e83bd004)" style="fill: #45ba45; opacity: 0.3"/>
   </g>
   <g id="patch_19">
    <path d="M 307.864384 165.918125 
L 330.190142 165.918125 
L 330.190142 82.499454 
L 307.864384 82.499454 
z
" clip-path="url(#pf7e83bd004)" style="fill: #45ba45; opacity: 0.3"/>
   </g>
   <g id="PathCollection_19"/>
   <g id="PathCollection_20"/>
   <g id="PathCollection_21"/>
   <g id="PathCollection_22"/>
   <g id="PathCollection_23"/>
   <g id="PathCollection_24"/>
   <g id="matplotlib.axis_3">
    <g id="xtick_3">
     <g id="line2d_15">
      <g>
       <use xlink:href="#m6f0cd35454" x="252.049991" y="165.918125" style="stroke: #000000; stroke-width: 0.8"/>
      </g>
     </g>
     <g id="text_18">
      <!-- NIL -->
      <g transform="translate(244.048428 180.516562)scale(0.1 -0.1)">
       <use xlink:href="#DejaVuSans-4e"/>
       <use xlink:href="#DejaVuSans-49" x="74.804688"/>
       <use xlink:href="#DejaVuSans-4c" x="104.296875"/>
      </g>
     </g>
    </g>
    <g id="xtick_4">
     <g id="line2d_16">
      <g>
       <use xlink:href="#m6f0cd35454" x="307.864384" y="165.918125" style="stroke: #000000; stroke-width: 0.8"/>
      </g>
     </g>
     <g id="text_19">
      <!-- NIL$^{x3HA}$ -->
      <g transform="translate(290.464384 180.516562)scale(0.1 -0.1)">
       <use xlink:href="#DejaVuSans-4e" transform="translate(0 0.765625)"/>
       <use xlink:href="#DejaVuSans-49" transform="translate(74.804688 0.765625)"/>
       <use xlink:href="#DejaVuSans-4c" transform="translate(104.296875 0.765625)"/>
       <use xlink:href="#DejaVuSans-Oblique-78" transform="translate(160.966797 39.046875)scale(0.7)"/>
       <use xlink:href="#DejaVuSans-33" transform="translate(202.392578 39.046875)scale(0.7)"/>
       <use xlink:href="#DejaVuSans-Oblique-48" transform="translate(244.391211 39.046875)scale(0.7)"/>
       <use xlink:href="#DejaVuSans-Oblique-41" transform="translate(297.02793 39.046875)scale(0.7)"/>
      </g>
     </g>
    </g>
    <g id="text_20">
     <!-- cond -->
     <g transform="translate(267.805625 194.194687)scale(0.1 -0.1)">
      <use xlink:href="#DejaVuSans-63"/>
      <use xlink:href="#DejaVuSans-6f" x="54.980469"/>
      <use xlink:href="#DejaVuSans-6e" x="116.162109"/>
      <use xlink:href="#DejaVuSans-64" x="179.541016"/>
     </g>
    </g>
   </g>
   <g id="matplotlib.axis_4">
    <g id="ytick_7">
     <g id="line2d_17">
      <g>
       <use xlink:href="#m708fe2f2fa" x="224.700938" y="165.918125" style="stroke: #000000; stroke-width: 0.8"/>
      </g>
     </g>
     <g id="text_21">
      <!-- 0 -->
      <g transform="translate(211.338438 169.717344)scale(0.1 -0.1)">
       <use xlink:href="#DejaVuSans-30"/>
      </g>
     </g>
    </g>
    <g id="ytick_8">
     <g id="line2d_18">
      <g>
       <use xlink:href="#m708fe2f2fa" x="224.700938" y="130.227504" style="stroke: #000000; stroke-width: 0.8"/>
      </g>
     </g>
     <g id="text_22">
      <!-- 10 -->
      <g transform="translate(204.975938 134.026723)scale(0.1 -0.1)">
       <use xlink:href="#DejaVuSans-31"/>
       <use xlink:href="#DejaVuSans-30" x="63.623047"/>
      </g>
     </g>
    </g>
    <g id="ytick_9">
     <g id="line2d_19">
      <g>
       <use xlink:href="#m708fe2f2fa" x="224.700938" y="94.536883" style="stroke: #000000; stroke-width: 0.8"/>
      </g>
     </g>
     <g id="text_23">
      <!-- 20 -->
      <g transform="translate(204.975938 98.336102)scale(0.1 -0.1)">
       <use xlink:href="#DejaVuSans-32"/>
       <use xlink:href="#DejaVuSans-30" x="63.623047"/>
      </g>
     </g>
    </g>
    <g id="ytick_10">
     <g id="line2d_20">
      <g>
       <use xlink:href="#m708fe2f2fa" x="224.700938" y="58.846262" style="stroke: #000000; stroke-width: 0.8"/>
      </g>
     </g>
     <g id="text_24">
      <!-- 30 -->
      <g transform="translate(204.975938 62.645481)scale(0.1 -0.1)">
       <use xlink:href="#DejaVuSans-33"/>
       <use xlink:href="#DejaVuSans-30" x="63.623047"/>
      </g>
     </g>
    </g>
    <g id="ytick_11">
     <g id="line2d_21">
      <g>
       <use xlink:href="#m708fe2f2fa" x="224.700938" y="23.155641" style="stroke: #000000; stroke-width: 0.8"/>
      </g>
     </g>
     <g id="text_25">
      <!-- 40 -->
      <g transform="translate(204.975938 26.95486)scale(0.1 -0.1)">
       <use xlink:href="#DejaVuSans-34"/>
       <use xlink:href="#DejaVuSans-30" x="63.623047"/>
      </g>
     </g>
    </g>
    <g id="text_26">
     <!-- (%) iMN -->
     <g transform="translate(187.698438 113.803281)rotate(-90)scale(0.1 -0.1)">
      <use xlink:href="#DejaVuSans-28"/>
      <use xlink:href="#DejaVuSans-25" x="39.013672"/>
      <use xlink:href="#DejaVuSans-29" x="134.033203"/>
      <use xlink:href="#DejaVuSans-20" x="173.046875"/>
      <use xlink:href="#DejaVuSans-69" x="204.833984"/>
      <use xlink:href="#DejaVuSans-4d" x="232.617188"/>
      <use xlink:href="#DejaVuSans-4e" x="318.896484"/>
     </g>
     <!-- of all cells -->
     <g transform="translate(198.89625 119.166562)rotate(-90)scale(0.1 -0.1)">
      <defs>
       <path id="DejaVuSans-66" d="M 2375 4863 
L 2375 4384 
L 1825 4384 
Q 1516 4384 1395 4259 
Q 1275 4134 1275 3809 
L 1275 3500 
L 2222 3500 
L 2222 3053 
L 1275 3053 
L 1275 0 
L 697 0 
L 697 3053 
L 147 3053 
L 147 3500 
L 697 3500 
L 697 3744 
Q 697 4328 969 4595 
Q 1241 4863 1831 4863 
L 2375 4863 
z
" transform="scale(0.015625)"/>
      </defs>
      <use xlink:href="#DejaVuSans-6f"/>
      <use xlink:href="#DejaVuSans-66" x="61.181641"/>
      <use xlink:href="#DejaVuSans-20" x="96.386719"/>
      <use xlink:href="#DejaVuSans-61" x="128.173828"/>
      <use xlink:href="#DejaVuSans-6c" x="189.453125"/>
      <use xlink:href="#DejaVuSans-6c" x="217.236328"/>
      <use xlink:href="#DejaVuSans-20" x="245.019531"/>
      <use xlink:href="#DejaVuSans-63" x="276.806641"/>
      <use xlink:href="#DejaVuSans-65" x="331.787109"/>
      <use xlink:href="#DejaVuSans-6c" x="393.310547"/>
      <use xlink:href="#DejaVuSans-6c" x="421.09375"/>
      <use xlink:href="#DejaVuSans-73" x="448.876953"/>
     </g>
    </g>
   </g>
   <g id="line2d_22">
    <path d="M 240.887112 163.128594 
L 240.887112 161.358097 
" clip-path="url(#pf7e83bd004)" style="fill: none; stroke: #424242; stroke-width: 2.7; stroke-linecap: square"/>
   </g>
   <g id="line2d_23">
    <path d="M 296.701506 156.762571 
L 296.701506 146.907647 
" clip-path="url(#pf7e83bd004)" style="fill: none; stroke: #424242; stroke-width: 2.7; stroke-linecap: square"/>
   </g>
   <g id="line2d_24">
    <path d="M 263.212869 134.770877 
L 263.212869 122.282471 
" clip-path="url(#pf7e83bd004)" style="fill: none; stroke: #424242; stroke-width: 2.7; stroke-linecap: square"/>
   </g>
   <g id="line2d_25">
    <path d="M 319.027263 95.782572 
L 319.027263 67.469147 
" clip-path="url(#pf7e83bd004)" style="fill: none; stroke: #424242; stroke-width: 2.7; stroke-linecap: square"/>
   </g>
   <g id="line2d_26">
    <path d="M 240.887112 109.661309 
L 240.887112 107.150437 
L 296.701506 107.150437 
L 296.701506 109.661309 
" clip-path="url(#pf7e83bd004)" style="fill: none; stroke: #333333; stroke-width: 1.5; stroke-linecap: square"/>
   </g>
   <g id="line2d_27">
    <path d="M 263.212869 38.820185 
L 263.212869 36.309313 
L 319.027263 36.309313 
L 319.027263 38.820185 
" clip-path="url(#pf7e83bd004)" style="fill: none; stroke: #333333; stroke-width: 1.5; stroke-linecap: square"/>
   </g>
   <g id="patch_20">
    <path d="M 224.700938 165.918125 
L 224.700938 22.318125 
" style="fill: none; stroke: #000000; stroke-width: 0.8; stroke-linejoin: miter; stroke-linecap: square"/>
   </g>
   <g id="patch_21">
    <path d="M 335.213438 165.918125 
L 335.213438 22.318125 
" style="fill: none; stroke: #000000; stroke-width: 0.8; stroke-linejoin: miter; stroke-linecap: square"/>
   </g>
   <g id="patch_22">
    <path d="M 224.700938 165.918125 
L 335.213438 165.918125 
" style="fill: none; stroke: #000000; stroke-width: 0.8; stroke-linejoin: miter; stroke-linecap: square"/>
   </g>
   <g id="patch_23">
    <path d="M 224.700938 22.318125 
L 335.213438 22.318125 
" style="fill: none; stroke: #000000; stroke-width: 0.8; stroke-linejoin: miter; stroke-linecap: square"/>
   </g>
   <g id="PathCollection_25">
    <defs>
     <path id="C4_0_415eb406a0" d="M 0 2.5 
C 0.663008 2.5 1.29895 2.236584 1.767767 1.767767 
C 2.236584 1.29895 2.5 0.663008 2.5 -0 
C 2.5 -0.663008 2.236584 -1.29895 1.767767 -1.767767 
C 1.29895 -2.236584 0.663008 -2.5 0 -2.5 
C -0.663008 -2.5 -1.29895 -2.236584 -1.767767 -1.767767 
C -2.236584 -1.29895 -2.5 -0.663008 -2.5 0 
C -2.5 0.663008 -2.236584 1.29895 -1.767767 1.767767 
C -1.29895 2.236584 -0.663008 2.5 0 2.5 
z
"/>
    </defs>
    <g clip-path="url(#pf7e83bd004)">
     <use xlink:href="#C4_0_415eb406a0" x="240.748403" y="162.622157" style="fill: #ffffff; stroke: #000000; stroke-width: 0.4"/>
    </g>
    <g clip-path="url(#pf7e83bd004)">
     <use xlink:href="#C4_0_415eb406a0" x="243.585675" y="161.680483" style="fill: #ffffff; stroke: #000000; stroke-width: 0.4"/>
    </g>
    <g clip-path="url(#pf7e83bd004)">
     <use xlink:href="#C4_0_415eb406a0" x="240.163057" y="159.98897" style="fill: #ffffff; stroke: #000000; stroke-width: 0.4"/>
    </g>
    <g clip-path="url(#pf7e83bd004)">
     <use xlink:href="#C4_0_415eb406a0" x="239.532065" y="161.751676" style="fill: #ffffff; stroke: #000000; stroke-width: 0.4"/>
    </g>
   </g>
   <g id="PathCollection_26">
    <defs>
     <path id="C5_0_5a67dbeb1f" d="M 0 2.5 
C 0.663008 2.5 1.29895 2.236584 1.767767 1.767767 
C 2.236584 1.29895 2.5 0.663008 2.5 -0 
C 2.5 -0.663008 2.236584 -1.29895 1.767767 -1.767767 
C 1.29895 -2.236584 0.663008 -2.5 0 -2.5 
C -0.663008 -2.5 -1.29895 -2.236584 -1.767767 -1.767767 
C -2.236584 -1.29895 -2.5 -0.663008 -2.5 0 
C -2.5 0.663008 -2.236584 1.29895 -1.767767 1.767767 
C -1.29895 2.236584 -0.663008 2.5 0 2.5 
z
"/>
    </defs>
    <g clip-path="url(#pf7e83bd004)">
     <use xlink:href="#C5_0_5a67dbeb1f" x="262.515902" y="121.902759" style="fill: #ffffff; stroke: #000000; stroke-width: 0.4"/>
    </g>
    <g clip-path="url(#pf7e83bd004)">
     <use xlink:href="#C5_0_5a67dbeb1f" x="261.423472" y="117.193924" style="fill: #ffffff; stroke: #000000; stroke-width: 0.4"/>
    </g>
    <g clip-path="url(#pf7e83bd004)">
     <use xlink:href="#C5_0_5a67dbeb1f" x="261.895434" y="121.601812" style="fill: #ffffff; stroke: #000000; stroke-width: 0.4"/>
    </g>
    <g clip-path="url(#pf7e83bd004)">
     <use xlink:href="#C5_0_5a67dbeb1f" x="260.983959" y="117.841098" style="fill: #ffffff; stroke: #000000; stroke-width: 0.4"/>
    </g>
   </g>
   <g id="PathCollection_27">
    <defs>
     <path id="C6_0_7732a636ba" d="M 0 2.5 
C 0.663008 2.5 1.29895 2.236584 1.767767 1.767767 
C 2.236584 1.29895 2.5 0.663008 2.5 -0 
C 2.5 -0.663008 2.236584 -1.29895 1.767767 -1.767767 
C 1.29895 -2.236584 0.663008 -2.5 0 -2.5 
C -0.663008 -2.5 -1.29895 -2.236584 -1.767767 -1.767767 
C -2.236584 -1.29895 -2.5 -0.663008 -2.5 0 
C -2.5 0.663008 -2.236584 1.29895 -1.767767 1.767767 
C -1.29895 2.236584 -0.663008 2.5 0 2.5 
z
"/>
    </defs>
    <g clip-path="url(#pf7e83bd004)">
     <use xlink:href="#C6_0_7732a636ba" x="296.23315" y="141.711733" style="fill: #ffffff; stroke: #000000; stroke-width: 0.4"/>
    </g>
    <g clip-path="url(#pf7e83bd004)">
     <use xlink:href="#C6_0_7732a636ba" x="294.150416" y="157.300867" style="fill: #ffffff; stroke: #000000; stroke-width: 0.4"/>
    </g>
    <g clip-path="url(#pf7e83bd004)">
     <use xlink:href="#C6_0_7732a636ba" x="293.947489" y="138.518752" style="fill: #ffffff; stroke: #000000; stroke-width: 0.4"/>
    </g>
    <g clip-path="url(#pf7e83bd004)">
     <use xlink:href="#C6_0_7732a636ba" x="297.091995" y="148.47527" style="fill: #ffffff; stroke: #000000; stroke-width: 0.4"/>
    </g>
   </g>
   <g id="PathCollection_28">
    <defs>
     <path id="C7_0_ce71dc05be" d="M 0 2.5 
C 0.663008 2.5 1.29895 2.236584 1.767767 1.767767 
C 2.236584 1.29895 2.5 0.663008 2.5 -0 
C 2.5 -0.663008 2.236584 -1.29895 1.767767 -1.767767 
C 1.29895 -2.236584 0.663008 -2.5 0 -2.5 
C -0.663008 -2.5 -1.29895 -2.236584 -1.767767 -1.767767 
C -2.236584 -1.29895 -2.5 -0.663008 -2.5 0 
C -2.5 0.663008 -2.236584 1.29895 -1.767767 1.767767 
C -1.29895 2.236584 -0.663008 2.5 0 2.5 
z
"/>
    </defs>
    <g clip-path="url(#pf7e83bd004)">
     <use xlink:href="#C7_0_ce71dc05be" x="316.712739" y="73.371293" style="fill: #ffffff; stroke: #000000; stroke-width: 0.4"/>
    </g>
    <g clip-path="url(#pf7e83bd004)">
     <use xlink:href="#C7_0_ce71dc05be" x="321.483363" y="62.397441" style="fill: #ffffff; stroke: #000000; stroke-width: 0.4"/>
    </g>
    <g clip-path="url(#pf7e83bd004)">
     <use xlink:href="#C7_0_ce71dc05be" x="317.306504" y="63.951467" style="fill: #ffffff; stroke: #000000; stroke-width: 0.4"/>
    </g>
    <g clip-path="url(#pf7e83bd004)">
     <use xlink:href="#C7_0_ce71dc05be" x="318.703796" y="46.3528" style="fill: #ffffff; stroke: #000000; stroke-width: 0.4"/>
    </g>
   </g>
   <g id="PathCollection_29">
    <path d="M 236.267796 162.747468 
L 241.267796 162.747468 
L 241.267796 157.747468 
L 236.267796 157.747468 
z
" clip-path="url(#pf7e83bd004)" style="fill: #ffffff; stroke: #000000; stroke-width: 0.4"/>
    <path d="M 240.478537 165.043235 
L 245.478537 165.043235 
L 245.478537 160.043235 
L 240.478537 160.043235 
z
" clip-path="url(#pf7e83bd004)" style="fill: #ffffff; stroke: #000000; stroke-width: 0.4"/>
    <path d="M 237.596086 167.01129 
L 242.596086 167.01129 
L 242.596086 162.01129 
L 237.596086 162.01129 
z
" clip-path="url(#pf7e83bd004)" style="fill: #ffffff; stroke: #000000; stroke-width: 0.4"/>
    <path d="M 236.120021 165.625705 
L 241.120021 165.625705 
L 241.120021 160.625705 
L 236.120021 160.625705 
z
" clip-path="url(#pf7e83bd004)" style="fill: #ffffff; stroke: #000000; stroke-width: 0.4"/>
   </g>
   <g id="PathCollection_30">
    <path d="M 259.133775 133.098576 
L 264.133775 133.098576 
L 264.133775 128.098576 
L 259.133775 128.098576 
z
" clip-path="url(#pf7e83bd004)" style="fill: #ffffff; stroke: #000000; stroke-width: 0.4"/>
    <path d="M 259.048784 134.412122 
L 264.048784 134.412122 
L 264.048784 129.412122 
L 259.048784 129.412122 
z
" clip-path="url(#pf7e83bd004)" style="fill: #ffffff; stroke: #000000; stroke-width: 0.4"/>
    <path d="M 261.585546 131.200546 
L 266.585546 131.200546 
L 266.585546 126.200546 
L 261.585546 126.200546 
z
" clip-path="url(#pf7e83bd004)" style="fill: #ffffff; stroke: #000000; stroke-width: 0.4"/>
    <path d="M 260.623493 129.677616 
L 265.623493 129.677616 
L 265.623493 124.677616 
L 260.623493 124.677616 
z
" clip-path="url(#pf7e83bd004)" style="fill: #ffffff; stroke: #000000; stroke-width: 0.4"/>
   </g>
   <g id="PathCollection_31">
    <path d="M 294.082661 159.818944 
L 299.082661 159.818944 
L 299.082661 154.818944 
L 294.082661 154.818944 
z
" clip-path="url(#pf7e83bd004)" style="fill: #ffffff; stroke: #000000; stroke-width: 0.4"/>
    <path d="M 296.243961 160.849311 
L 301.243961 160.849311 
L 301.243961 155.849311 
L 296.243961 155.849311 
z
" clip-path="url(#pf7e83bd004)" style="fill: #ffffff; stroke: #000000; stroke-width: 0.4"/>
    <path d="M 294.281308 161.817579 
L 299.281308 161.817579 
L 299.281308 156.817579 
L 294.281308 156.817579 
z
" clip-path="url(#pf7e83bd004)" style="fill: #ffffff; stroke: #000000; stroke-width: 0.4"/>
    <path d="M 295.316718 159.923748 
L 300.316718 159.923748 
L 300.316718 154.923748 
L 295.316718 154.923748 
z
" clip-path="url(#pf7e83bd004)" style="fill: #ffffff; stroke: #000000; stroke-width: 0.4"/>
   </g>
   <g id="PathCollection_32">
    <path d="M 315.850602 85.119175 
L 320.850602 85.119175 
L 320.850602 80.119175 
L 315.850602 80.119175 
z
" clip-path="url(#pf7e83bd004)" style="fill: #ffffff; stroke: #000000; stroke-width: 0.4"/>
    <path d="M 314.359926 91.920127 
L 319.359926 91.920127 
L 319.359926 86.920127 
L 314.359926 86.920127 
z
" clip-path="url(#pf7e83bd004)" style="fill: #ffffff; stroke: #000000; stroke-width: 0.4"/>
    <path d="M 316.47958 96.545986 
L 321.47958 96.545986 
L 321.47958 91.545986 
L 316.47958 91.545986 
z
" clip-path="url(#pf7e83bd004)" style="fill: #ffffff; stroke: #000000; stroke-width: 0.4"/>
    <path d="M 319.140912 92.150246 
L 324.140912 92.150246 
L 324.140912 87.150246 
L 319.140912 87.150246 
z
" clip-path="url(#pf7e83bd004)" style="fill: #ffffff; stroke: #000000; stroke-width: 0.4"/>
   </g>
   <g id="PathCollection_33">
    <path d="M 238.797239 161.021732 
L 236.297239 166.021732 
L 241.297239 166.021732 
z
" clip-path="url(#pf7e83bd004)" style="fill: #ffffff; stroke: #000000; stroke-width: 0.4"/>
    <path d="M 242.654783 160.154754 
L 240.154783 165.154754 
L 245.154783 165.154754 
z
" clip-path="url(#pf7e83bd004)" style="fill: #ffffff; stroke: #000000; stroke-width: 0.4"/>
   </g>
   <g id="PathCollection_34">
    <path d="M 261.919987 132.878178 
L 259.419987 137.878178 
L 264.419987 137.878178 
z
" clip-path="url(#pf7e83bd004)" style="fill: #ffffff; stroke: #000000; stroke-width: 0.4"/>
    <path d="M 262.167135 147.888918 
L 259.667135 152.888918 
L 264.667135 152.888918 
z
" clip-path="url(#pf7e83bd004)" style="fill: #ffffff; stroke: #000000; stroke-width: 0.4"/>
   </g>
   <g id="PathCollection_35">
    <path d="M 294.23032 155.472504 
L 291.73032 160.472504 
L 296.73032 160.472504 
z
" clip-path="url(#pf7e83bd004)" style="fill: #ffffff; stroke: #000000; stroke-width: 0.4"/>
    <path d="M 296.262276 144.328435 
L 293.762276 149.328435 
L 298.762276 149.328435 
z
" clip-path="url(#pf7e83bd004)" style="fill: #ffffff; stroke: #000000; stroke-width: 0.4"/>
   </g>
   <g id="PathCollection_36">
    <path d="M 316.62179 102.908335 
L 314.12179 107.908335 
L 319.12179 107.908335 
z
" clip-path="url(#pf7e83bd004)" style="fill: #ffffff; stroke: #000000; stroke-width: 0.4"/>
    <path d="M 318.025813 115.277666 
L 315.525813 120.277666 
L 320.525813 120.277666 
z
" clip-path="url(#pf7e83bd004)" style="fill: #ffffff; stroke: #000000; stroke-width: 0.4"/>
   </g>
   <g id="text_27">
    <!-- * -->
    <g transform="translate(266.294309 104.070749)scale(0.1 -0.1)">
     <use xlink:href="#DejaVuSans-2a"/>
    </g>
   </g>
   <g id="text_28">
    <!-- * -->
    <g transform="translate(288.620066 33.229625)scale(0.1 -0.1)">
     <use xlink:href="#DejaVuSans-2a"/>
    </g>
   </g>
   <g id="text_29">
    <g id="patch_24">
     <path d="M 231.935549 153.264747 
L 249.838674 153.264747 
L 249.838674 141.586622 
L 231.935549 141.586622 
z
" style="fill: #ffffff; opacity: 0.75"/>
    </g>
    <!-- 1.0 -->
    <g transform="translate(232.935549 150.18506)scale(0.1 -0.1)">
     <use xlink:href="#DejaVuSans-31"/>
     <use xlink:href="#DejaVuSans-2e" x="63.623047"/>
     <use xlink:href="#DejaVuSans-30" x="95.410156"/>
    </g>
   </g>
   <g id="text_30">
    <g id="patch_25">
     <path d="M 287.749943 143.321714 
L 305.653068 143.321714 
L 305.653068 131.643589 
L 287.749943 131.643589 
z
" style="fill: #ffffff; opacity: 0.75"/>
    </g>
    <!-- 3.8 -->
    <g transform="translate(288.749943 140.242027)scale(0.1 -0.1)">
     <use xlink:href="#DejaVuSans-33"/>
     <use xlink:href="#DejaVuSans-2e" x="63.623047"/>
     <use xlink:href="#DejaVuSans-38" x="95.410156"/>
    </g>
   </g>
   <g id="text_31">
    <g id="patch_26">
     <path d="M 251.080057 119.269555 
L 275.345682 119.269555 
L 275.345682 107.59143 
L 251.080057 107.59143 
z
" style="fill: #ffffff; opacity: 0.75"/>
    </g>
    <!-- 10.5 -->
    <g transform="translate(252.080057 116.189868)scale(0.1 -0.1)">
     <use xlink:href="#DejaVuSans-31"/>
     <use xlink:href="#DejaVuSans-30" x="63.623047"/>
     <use xlink:href="#DejaVuSans-2e" x="127.246094"/>
     <use xlink:href="#DejaVuSans-35" x="159.033203"/>
    </g>
   </g>
   <g id="text_32">
    <g id="patch_27">
     <path d="M 306.894451 73.499454 
L 331.160076 73.499454 
L 331.160076 61.821329 
L 306.894451 61.821329 
z
" style="fill: #ffffff; opacity: 0.75"/>
    </g>
    <!-- 23.4 -->
    <g transform="translate(307.894451 70.419766)scale(0.1 -0.1)">
     <use xlink:href="#DejaVuSans-32"/>
     <use xlink:href="#DejaVuSans-33" x="63.623047"/>
     <use xlink:href="#DejaVuSans-2e" x="127.246094"/>
     <use xlink:href="#DejaVuSans-34" x="159.033203"/>
    </g>
   </g>
   <g id="text_33">
    <!-- 14 dpi -->
    <g transform="translate(261.130313 16.318125)scale(0.12 -0.12)">
     <use xlink:href="#DejaVuSans-31"/>
     <use xlink:href="#DejaVuSans-34" x="63.623047"/>
     <use xlink:href="#DejaVuSans-20" x="127.246094"/>
     <use xlink:href="#DejaVuSans-64" x="159.033203"/>
     <use xlink:href="#DejaVuSans-70" x="222.509766"/>
     <use xlink:href="#DejaVuSans-69" x="285.986328"/>
    </g>
   </g>
   <g id="legend_1">
    <g id="text_34">
     <!-- Condition -->
     <g transform="translate(354.780625 38.916562)scale(0.1 -0.1)">
      <defs>
       <path id="DejaVuSans-43" d="M 4122 4306 
L 4122 3641 
Q 3803 3938 3442 4084 
Q 3081 4231 2675 4231 
Q 1875 4231 1450 3742 
Q 1025 3253 1025 2328 
Q 1025 1406 1450 917 
Q 1875 428 2675 428 
Q 3081 428 3442 575 
Q 3803 722 4122 1019 
L 4122 359 
Q 3791 134 3420 21 
Q 3050 -91 2638 -91 
Q 1578 -91 968 557 
Q 359 1206 359 2328 
Q 359 3453 968 4101 
Q 1578 4750 2638 4750 
Q 3056 4750 3426 4639 
Q 3797 4528 4122 4306 
z
" transform="scale(0.015625)"/>
      </defs>
      <use xlink:href="#DejaVuSans-43"/>
      <use xlink:href="#DejaVuSans-6f" x="69.824219"/>
      <use xlink:href="#DejaVuSans-6e" x="131.005859"/>
      <use xlink:href="#DejaVuSans-64" x="194.384766"/>
      <use xlink:href="#DejaVuSans-69" x="257.861328"/>
      <use xlink:href="#DejaVuSans-74" x="285.644531"/>
      <use xlink:href="#DejaVuSans-69" x="324.853516"/>
      <use xlink:href="#DejaVuSans-6f" x="352.636719"/>
      <use xlink:href="#DejaVuSans-6e" x="413.818359"/>
     </g>
    </g>
    <g id="patch_28">
     <path d="M 344.213438 53.594687 
L 364.213438 53.594687 
L 364.213438 46.594687 
L 344.213438 46.594687 
z
" style="opacity: 0.3"/>
    </g>
    <g id="text_35">
     <!--  DDRR -->
     <g transform="translate(372.213438 53.594687)scale(0.1 -0.1)">
      <defs>
       <path id="DejaVuSans-2013" d="M 313 1978 
L 2888 1978 
L 2888 1528 
L 313 1528 
L 313 1978 
z
" transform="scale(0.015625)"/>
       <path id="DejaVuSans-44" d="M 1259 4147 
L 1259 519 
L 2022 519 
Q 2988 519 3436 956 
Q 3884 1394 3884 2338 
Q 3884 3275 3436 3711 
Q 2988 4147 2022 4147 
L 1259 4147 
z
M 628 4666 
L 1925 4666 
Q 3281 4666 3915 4102 
Q 4550 3538 4550 2338 
Q 4550 1131 3912 565 
Q 3275 0 1925 0 
L 628 0 
L 628 4666 
z
" transform="scale(0.015625)"/>
       <path id="DejaVuSans-52" d="M 2841 2188 
Q 3044 2119 3236 1894 
Q 3428 1669 3622 1275 
L 4263 0 
L 3584 0 
L 2988 1197 
Q 2756 1666 2539 1819 
Q 2322 1972 1947 1972 
L 1259 1972 
L 1259 0 
L 628 0 
L 628 4666 
L 2053 4666 
Q 2853 4666 3247 4331 
Q 3641 3997 3641 3322 
Q 3641 2881 3436 2590 
Q 3231 2300 2841 2188 
z
M 1259 4147 
L 1259 2491 
L 2053 2491 
Q 2509 2491 2742 2702 
Q 2975 2913 2975 3322 
Q 2975 3731 2742 3939 
Q 2509 4147 2053 4147 
L 1259 4147 
z
" transform="scale(0.015625)"/>
      </defs>
      <use xlink:href="#DejaVuSans-2013"/>
      <use xlink:href="#DejaVuSans-20" x="50"/>
      <use xlink:href="#DejaVuSans-44" x="81.787109"/>
      <use xlink:href="#DejaVuSans-44" x="158.789062"/>
      <use xlink:href="#DejaVuSans-52" x="235.791016"/>
      <use xlink:href="#DejaVuSans-52" x="305.273438"/>
     </g>
    </g>
    <g id="patch_29">
     <path d="M 344.213438 68.272812 
L 364.213438 68.272812 
L 364.213438 61.272812 
L 344.213438 61.272812 
z
" style="fill: #45ba45; opacity: 0.3"/>
    </g>
    <g id="text_36">
     <!-- + DDRR -->
     <g transform="translate(372.213438 68.272812)scale(0.1 -0.1)">
      <defs>
       <path id="DejaVuSans-2b" d="M 2944 4013 
L 2944 2272 
L 4684 2272 
L 4684 1741 
L 2944 1741 
L 2944 0 
L 2419 0 
L 2419 1741 
L 678 1741 
L 678 2272 
L 2419 2272 
L 2419 4013 
L 2944 4013 
z
" transform="scale(0.015625)"/>
      </defs>
      <use xlink:href="#DejaVuSans-2b"/>
      <use xlink:href="#DejaVuSans-20" x="83.789062"/>
      <use xlink:href="#DejaVuSans-44" x="115.576172"/>
      <use xlink:href="#DejaVuSans-44" x="192.578125"/>
      <use xlink:href="#DejaVuSans-52" x="269.580078"/>
      <use xlink:href="#DejaVuSans-52" x="339.0625"/>
     </g>
    </g>
   </g>
  </g>
 </g>
 <defs>
  <clipPath id="pdbd33dfdfc">
   <rect x="58.163438" y="22.318125" width="110.5125" height="143.6"/>
  </clipPath>
  <clipPath id="pf7e83bd004">
   <rect x="224.700938" y="22.318125" width="110.5125" height="143.6"/>
  </clipPath>
 </defs>
</svg>
