<?xml version="1.0" encoding="utf-8" standalone="no"?>
<!DOCTYPE svg PUBLIC "-//W3C//DTD SVG 1.1//EN"
  "http://www.w3.org/Graphics/SVG/1.1/DTD/svg11.dtd">
<svg xmlns:xlink="http://www.w3.org/1999/xlink" width="196.94375pt" height="234.152188pt" viewBox="0 0 196.94375 234.152188" xmlns="http://www.w3.org/2000/svg" version="1.1">
 <metadata>
  <rdf:RDF xmlns:dc="http://purl.org/dc/elements/1.1/" xmlns:cc="http://creativecommons.org/ns#" xmlns:rdf="http://www.w3.org/1999/02/22-rdf-syntax-ns#">
   <cc:Work>
    <dc:type rdf:resource="http://purl.org/dc/dcmitype/StillImage"/>
    <dc:date>2025-01-27T14:18:32.727877</dc:date>
    <dc:format>image/svg+xml</dc:format>
    <dc:creator>
     <cc:Agent>
      <dc:title>Matplotlib v3.5.2, https://matplotlib.org/</dc:title>
     </cc:Agent>
    </dc:creator>
   </cc:Work>
  </rdf:RDF>
 </metadata>
 <defs>
  <style type="text/css">*{stroke-linejoin: round; stroke-linecap: butt}</style>
 </defs>
 <g id="figure_1">
  <g id="patch_1">
   <path d="M 0 234.152188 
L 196.94375 234.152188 
L 196.94375 -0 
L 0 -0 
L 0 234.152188 
z
" style="fill: none"/>
  </g>
  <g id="axes_1">
   <g id="patch_2">
    <path d="M 43.88125 185.398125 
L 183.38125 185.398125 
L 183.38125 22.318125 
L 43.88125 22.318125 
z
" style="fill: #ffffff"/>
   </g>
   <g id="patch_3">
    <path d="M 43.88125 29.730852 
L 45.269275 29.730852 
L 45.269275 50.179755 
L 43.88125 50.179755 
z
" clip-path="url(#p80afaa52e5)" style="opacity: 0.3"/>
   </g>
   <g id="patch_4">
    <path d="M 43.88125 55.291981 
L 50.18665 55.291981 
L 50.18665 75.740884 
L 43.88125 75.740884 
z
" clip-path="url(#p80afaa52e5)" style="opacity: 0.3"/>
   </g>
   <g id="patch_5">
    <path d="M 43.88125 80.853109 
L 80.297725 80.853109 
L 80.297725 101.302012 
L 43.88125 101.302012 
z
" clip-path="url(#p80afaa52e5)" style="opacity: 0.3"/>
   </g>
   <g id="patch_6">
    <path d="M 43.88125 106.414238 
L 46.761925 106.414238 
L 46.761925 126.863141 
L 43.88125 126.863141 
z
" clip-path="url(#p80afaa52e5)" style="opacity: 0.3"/>
   </g>
   <g id="patch_7">
    <path d="M 43.88125 131.975366 
L 58.9054 131.975366 
L 58.9054 152.424269 
L 43.88125 152.424269 
z
" clip-path="url(#p80afaa52e5)" style="opacity: 0.3"/>
   </g>
   <g id="patch_8">
    <path d="M 43.88125 157.536495 
L 52.565125 157.536495 
L 52.565125 177.985398 
L 43.88125 177.985398 
z
" clip-path="url(#p80afaa52e5)" style="opacity: 0.3"/>
   </g>
   <g id="matplotlib.axis_1">
    <g id="xtick_1">
     <g id="line2d_1">
      <defs>
       <path id="mf87b0b6bc2" d="M 0 0 
L 0 3.5 
" style="stroke: #000000; stroke-width: 0.8"/>
      </defs>
      <g>
       <use xlink:href="#mf87b0b6bc2" x="43.88125" y="185.398125" style="stroke: #000000; stroke-width: 0.8"/>
      </g>
     </g>
     <g id="text_1">
      <!-- 0 -->
      <g transform="translate(40.7 199.996563)scale(0.1 -0.1)">
       <defs>
        <path id="DejaVuSans-30" d="M 2034 4250 
Q 1547 4250 1301 3770 
Q 1056 3291 1056 2328 
Q 1056 1369 1301 889 
Q 1547 409 2034 409 
Q 2525 409 2770 889 
Q 3016 1369 3016 2328 
Q 3016 3291 2770 3770 
Q 2525 4250 2034 4250 
z
M 2034 4750 
Q 2819 4750 3233 4129 
Q 3647 3509 3647 2328 
Q 3647 1150 3233 529 
Q 2819 -91 2034 -91 
Q 1250 -91 836 529 
Q 422 1150 422 2328 
Q 422 3509 836 4129 
Q 1250 4750 2034 4750 
z
" transform="scale(0.015625)"/>
       </defs>
       <use xlink:href="#DejaVuSans-30"/>
      </g>
     </g>
    </g>
    <g id="xtick_2">
     <g id="line2d_2">
      <g>
       <use xlink:href="#mf87b0b6bc2" x="78.75625" y="185.398125" style="stroke: #000000; stroke-width: 0.8"/>
      </g>
     </g>
     <g id="text_2">
      <!-- 5 -->
      <g transform="translate(75.575 199.996563)scale(0.1 -0.1)">
       <defs>
        <path id="DejaVuSans-35" d="M 691 4666 
L 3169 4666 
L 3169 4134 
L 1269 4134 
L 1269 2991 
Q 1406 3038 1543 3061 
Q 1681 3084 1819 3084 
Q 2600 3084 3056 2656 
Q 3513 2228 3513 1497 
Q 3513 744 3044 326 
Q 2575 -91 1722 -91 
Q 1428 -91 1123 -41 
Q 819 9 494 109 
L 494 744 
Q 775 591 1075 516 
Q 1375 441 1709 441 
Q 2250 441 2565 725 
Q 2881 1009 2881 1497 
Q 2881 1984 2565 2268 
Q 2250 2553 1709 2553 
Q 1456 2553 1204 2497 
Q 953 2441 691 2322 
L 691 4666 
z
" transform="scale(0.015625)"/>
       </defs>
       <use xlink:href="#DejaVuSans-35"/>
      </g>
     </g>
    </g>
    <g id="xtick_3">
     <g id="line2d_3">
      <g>
       <use xlink:href="#mf87b0b6bc2" x="113.63125" y="185.398125" style="stroke: #000000; stroke-width: 0.8"/>
      </g>
     </g>
     <g id="text_3">
      <!-- 10 -->
      <g transform="translate(107.26875 199.996563)scale(0.1 -0.1)">
       <defs>
        <path id="DejaVuSans-31" d="M 794 531 
L 1825 531 
L 1825 4091 
L 703 3866 
L 703 4441 
L 1819 4666 
L 2450 4666 
L 2450 531 
L 3481 531 
L 3481 0 
L 794 0 
L 794 531 
z
" transform="scale(0.015625)"/>
       </defs>
       <use xlink:href="#DejaVuSans-31"/>
       <use xlink:href="#DejaVuSans-30" x="63.623047"/>
      </g>
     </g>
    </g>
    <g id="xtick_4">
     <g id="line2d_4">
      <g>
       <use xlink:href="#mf87b0b6bc2" x="148.50625" y="185.398125" style="stroke: #000000; stroke-width: 0.8"/>
      </g>
     </g>
     <g id="text_4">
      <!-- 15 -->
      <g transform="translate(142.14375 199.996563)scale(0.1 -0.1)">
       <use xlink:href="#DejaVuSans-31"/>
       <use xlink:href="#DejaVuSans-35" x="63.623047"/>
      </g>
     </g>
    </g>
    <g id="xtick_5">
     <g id="line2d_5">
      <g>
       <use xlink:href="#mf87b0b6bc2" x="183.38125" y="185.398125" style="stroke: #000000; stroke-width: 0.8"/>
      </g>
     </g>
     <g id="text_5">
      <!-- 20 -->
      <g transform="translate(177.01875 199.996563)scale(0.1 -0.1)">
       <defs>
        <path id="DejaVuSans-32" d="M 1228 531 
L 3431 531 
L 3431 0 
L 469 0 
L 469 531 
Q 828 903 1448 1529 
Q 2069 2156 2228 2338 
Q 2531 2678 2651 2914 
Q 2772 3150 2772 3378 
Q 2772 3750 2511 3984 
Q 2250 4219 1831 4219 
Q 1534 4219 1204 4116 
Q 875 4013 500 3803 
L 500 4441 
Q 881 4594 1212 4672 
Q 1544 4750 1819 4750 
Q 2544 4750 2975 4387 
Q 3406 4025 3406 3419 
Q 3406 3131 3298 2873 
Q 3191 2616 2906 2266 
Q 2828 2175 2409 1742 
Q 1991 1309 1228 531 
z
" transform="scale(0.015625)"/>
       </defs>
       <use xlink:href="#DejaVuSans-32"/>
       <use xlink:href="#DejaVuSans-30" x="63.623047"/>
      </g>
     </g>
    </g>
    <g id="text_6">
     <!-- (%) iMN yield -->
     <g transform="translate(80.36875 213.674688)scale(0.1 -0.1)">
      <defs>
       <path id="DejaVuSans-28" d="M 1984 4856 
Q 1566 4138 1362 3434 
Q 1159 2731 1159 2009 
Q 1159 1288 1364 580 
Q 1569 -128 1984 -844 
L 1484 -844 
Q 1016 -109 783 600 
Q 550 1309 550 2009 
Q 550 2706 781 3412 
Q 1013 4119 1484 4856 
L 1984 4856 
z
" transform="scale(0.015625)"/>
       <path id="DejaVuSans-25" d="M 4653 2053 
Q 4381 2053 4226 1822 
Q 4072 1591 4072 1178 
Q 4072 772 4226 539 
Q 4381 306 4653 306 
Q 4919 306 5073 539 
Q 5228 772 5228 1178 
Q 5228 1588 5073 1820 
Q 4919 2053 4653 2053 
z
M 4653 2450 
Q 5147 2450 5437 2106 
Q 5728 1763 5728 1178 
Q 5728 594 5436 251 
Q 5144 -91 4653 -91 
Q 4153 -91 3862 251 
Q 3572 594 3572 1178 
Q 3572 1766 3864 2108 
Q 4156 2450 4653 2450 
z
M 1428 4353 
Q 1159 4353 1004 4120 
Q 850 3888 850 3481 
Q 850 3069 1003 2837 
Q 1156 2606 1428 2606 
Q 1700 2606 1854 2837 
Q 2009 3069 2009 3481 
Q 2009 3884 1853 4118 
Q 1697 4353 1428 4353 
z
M 4250 4750 
L 4750 4750 
L 1831 -91 
L 1331 -91 
L 4250 4750 
z
M 1428 4750 
Q 1922 4750 2215 4408 
Q 2509 4066 2509 3481 
Q 2509 2891 2217 2550 
Q 1925 2209 1428 2209 
Q 931 2209 642 2551 
Q 353 2894 353 3481 
Q 353 4063 643 4406 
Q 934 4750 1428 4750 
z
" transform="scale(0.015625)"/>
       <path id="DejaVuSans-29" d="M 513 4856 
L 1013 4856 
Q 1481 4119 1714 3412 
Q 1947 2706 1947 2009 
Q 1947 1309 1714 600 
Q 1481 -109 1013 -844 
L 513 -844 
Q 928 -128 1133 580 
Q 1338 1288 1338 2009 
Q 1338 2731 1133 3434 
Q 928 4138 513 4856 
z
" transform="scale(0.015625)"/>
       <path id="DejaVuSans-20" transform="scale(0.015625)"/>
       <path id="DejaVuSans-69" d="M 603 3500 
L 1178 3500 
L 1178 0 
L 603 0 
L 603 3500 
z
M 603 4863 
L 1178 4863 
L 1178 4134 
L 603 4134 
L 603 4863 
z
" transform="scale(0.015625)"/>
       <path id="DejaVuSans-4d" d="M 628 4666 
L 1569 4666 
L 2759 1491 
L 3956 4666 
L 4897 4666 
L 4897 0 
L 4281 0 
L 4281 4097 
L 3078 897 
L 2444 897 
L 1241 4097 
L 1241 0 
L 628 0 
L 628 4666 
z
" transform="scale(0.015625)"/>
       <path id="DejaVuSans-4e" d="M 628 4666 
L 1478 4666 
L 3547 763 
L 3547 4666 
L 4159 4666 
L 4159 0 
L 3309 0 
L 1241 3903 
L 1241 0 
L 628 0 
L 628 4666 
z
" transform="scale(0.015625)"/>
       <path id="DejaVuSans-79" d="M 2059 -325 
Q 1816 -950 1584 -1140 
Q 1353 -1331 966 -1331 
L 506 -1331 
L 506 -850 
L 844 -850 
Q 1081 -850 1212 -737 
Q 1344 -625 1503 -206 
L 1606 56 
L 191 3500 
L 800 3500 
L 1894 763 
L 2988 3500 
L 3597 3500 
L 2059 -325 
z
" transform="scale(0.015625)"/>
       <path id="DejaVuSans-65" d="M 3597 1894 
L 3597 1613 
L 953 1613 
Q 991 1019 1311 708 
Q 1631 397 2203 397 
Q 2534 397 2845 478 
Q 3156 559 3463 722 
L 3463 178 
Q 3153 47 2828 -22 
Q 2503 -91 2169 -91 
Q 1331 -91 842 396 
Q 353 884 353 1716 
Q 353 2575 817 3079 
Q 1281 3584 2069 3584 
Q 2775 3584 3186 3129 
Q 3597 2675 3597 1894 
z
M 3022 2063 
Q 3016 2534 2758 2815 
Q 2500 3097 2075 3097 
Q 1594 3097 1305 2825 
Q 1016 2553 972 2059 
L 3022 2063 
z
" transform="scale(0.015625)"/>
       <path id="DejaVuSans-6c" d="M 603 4863 
L 1178 4863 
L 1178 0 
L 603 0 
L 603 4863 
z
" transform="scale(0.015625)"/>
       <path id="DejaVuSans-64" d="M 2906 2969 
L 2906 4863 
L 3481 4863 
L 3481 0 
L 2906 0 
L 2906 525 
Q 2725 213 2448 61 
Q 2172 -91 1784 -91 
Q 1150 -91 751 415 
Q 353 922 353 1747 
Q 353 2572 751 3078 
Q 1150 3584 1784 3584 
Q 2172 3584 2448 3432 
Q 2725 3281 2906 2969 
z
M 947 1747 
Q 947 1113 1208 752 
Q 1469 391 1925 391 
Q 2381 391 2643 752 
Q 2906 1113 2906 1747 
Q 2906 2381 2643 2742 
Q 2381 3103 1925 3103 
Q 1469 3103 1208 2742 
Q 947 2381 947 1747 
z
" transform="scale(0.015625)"/>
      </defs>
      <use xlink:href="#DejaVuSans-28"/>
      <use xlink:href="#DejaVuSans-25" x="39.013672"/>
      <use xlink:href="#DejaVuSans-29" x="134.033203"/>
      <use xlink:href="#DejaVuSans-20" x="173.046875"/>
      <use xlink:href="#DejaVuSans-69" x="204.833984"/>
      <use xlink:href="#DejaVuSans-4d" x="232.617188"/>
      <use xlink:href="#DejaVuSans-4e" x="318.896484"/>
      <use xlink:href="#DejaVuSans-20" x="393.701172"/>
      <use xlink:href="#DejaVuSans-79" x="425.488281"/>
      <use xlink:href="#DejaVuSans-69" x="484.667969"/>
      <use xlink:href="#DejaVuSans-65" x="512.451172"/>
      <use xlink:href="#DejaVuSans-6c" x="573.974609"/>
      <use xlink:href="#DejaVuSans-64" x="601.757812"/>
     </g>
     <!-- per MEF plated -->
     <g transform="translate(75.959375 224.8725)scale(0.1 -0.1)">
      <defs>
       <path id="DejaVuSans-70" d="M 1159 525 
L 1159 -1331 
L 581 -1331 
L 581 3500 
L 1159 3500 
L 1159 2969 
Q 1341 3281 1617 3432 
Q 1894 3584 2278 3584 
Q 2916 3584 3314 3078 
Q 3713 2572 3713 1747 
Q 3713 922 3314 415 
Q 2916 -91 2278 -91 
Q 1894 -91 1617 61 
Q 1341 213 1159 525 
z
M 3116 1747 
Q 3116 2381 2855 2742 
Q 2594 3103 2138 3103 
Q 1681 3103 1420 2742 
Q 1159 2381 1159 1747 
Q 1159 1113 1420 752 
Q 1681 391 2138 391 
Q 2594 391 2855 752 
Q 3116 1113 3116 1747 
z
" transform="scale(0.015625)"/>
       <path id="DejaVuSans-72" d="M 2631 2963 
Q 2534 3019 2420 3045 
Q 2306 3072 2169 3072 
Q 1681 3072 1420 2755 
Q 1159 2438 1159 1844 
L 1159 0 
L 581 0 
L 581 3500 
L 1159 3500 
L 1159 2956 
Q 1341 3275 1631 3429 
Q 1922 3584 2338 3584 
Q 2397 3584 2469 3576 
Q 2541 3569 2628 3553 
L 2631 2963 
z
" transform="scale(0.015625)"/>
       <path id="DejaVuSans-45" d="M 628 4666 
L 3578 4666 
L 3578 4134 
L 1259 4134 
L 1259 2753 
L 3481 2753 
L 3481 2222 
L 1259 2222 
L 1259 531 
L 3634 531 
L 3634 0 
L 628 0 
L 628 4666 
z
" transform="scale(0.015625)"/>
       <path id="DejaVuSans-46" d="M 628 4666 
L 3309 4666 
L 3309 4134 
L 1259 4134 
L 1259 2759 
L 3109 2759 
L 3109 2228 
L 1259 2228 
L 1259 0 
L 628 0 
L 628 4666 
z
" transform="scale(0.015625)"/>
       <path id="DejaVuSans-61" d="M 2194 1759 
Q 1497 1759 1228 1600 
Q 959 1441 959 1056 
Q 959 750 1161 570 
Q 1363 391 1709 391 
Q 2188 391 2477 730 
Q 2766 1069 2766 1631 
L 2766 1759 
L 2194 1759 
z
M 3341 1997 
L 3341 0 
L 2766 0 
L 2766 531 
Q 2569 213 2275 61 
Q 1981 -91 1556 -91 
Q 1019 -91 701 211 
Q 384 513 384 1019 
Q 384 1609 779 1909 
Q 1175 2209 1959 2209 
L 2766 2209 
L 2766 2266 
Q 2766 2663 2505 2880 
Q 2244 3097 1772 3097 
Q 1472 3097 1187 3025 
Q 903 2953 641 2809 
L 641 3341 
Q 956 3463 1253 3523 
Q 1550 3584 1831 3584 
Q 2591 3584 2966 3190 
Q 3341 2797 3341 1997 
z
" transform="scale(0.015625)"/>
       <path id="DejaVuSans-74" d="M 1172 4494 
L 1172 3500 
L 2356 3500 
L 2356 3053 
L 1172 3053 
L 1172 1153 
Q 1172 725 1289 603 
Q 1406 481 1766 481 
L 2356 481 
L 2356 0 
L 1766 0 
Q 1100 0 847 248 
Q 594 497 594 1153 
L 594 3053 
L 172 3053 
L 172 3500 
L 594 3500 
L 594 4494 
L 1172 4494 
z
" transform="scale(0.015625)"/>
      </defs>
      <use xlink:href="#DejaVuSans-70"/>
      <use xlink:href="#DejaVuSans-65" x="63.476562"/>
      <use xlink:href="#DejaVuSans-72" x="125"/>
      <use xlink:href="#DejaVuSans-20" x="166.113281"/>
      <use xlink:href="#DejaVuSans-4d" x="197.900391"/>
      <use xlink:href="#DejaVuSans-45" x="284.179688"/>
      <use xlink:href="#DejaVuSans-46" x="347.363281"/>
      <use xlink:href="#DejaVuSans-20" x="404.882812"/>
      <use xlink:href="#DejaVuSans-70" x="436.669922"/>
      <use xlink:href="#DejaVuSans-6c" x="500.146484"/>
      <use xlink:href="#DejaVuSans-61" x="527.929688"/>
      <use xlink:href="#DejaVuSans-74" x="589.208984"/>
      <use xlink:href="#DejaVuSans-65" x="628.417969"/>
      <use xlink:href="#DejaVuSans-64" x="689.941406"/>
     </g>
    </g>
   </g>
   <g id="matplotlib.axis_2">
    <g id="ytick_1">
     <g id="line2d_6">
      <defs>
       <path id="m9857346be8" d="M 0 0 
L -3.5 0 
" style="stroke: #000000; stroke-width: 0.8"/>
      </defs>
      <g>
       <use xlink:href="#m9857346be8" x="43.88125" y="39.955304" style="stroke: #000000; stroke-width: 0.8"/>
      </g>
     </g>
     <g id="text_7">
      <!-- ILN -->
      <g transform="translate(20.878125 43.754522)scale(0.1 -0.1)">
       <defs>
        <path id="DejaVuSans-49" d="M 628 4666 
L 1259 4666 
L 1259 0 
L 628 0 
L 628 4666 
z
" transform="scale(0.015625)"/>
        <path id="DejaVuSans-4c" d="M 628 4666 
L 1259 4666 
L 1259 531 
L 3531 531 
L 3531 0 
L 628 0 
L 628 4666 
z
" transform="scale(0.015625)"/>
       </defs>
       <use xlink:href="#DejaVuSans-49"/>
       <use xlink:href="#DejaVuSans-4c" x="29.492188"/>
       <use xlink:href="#DejaVuSans-4e" x="85.205078"/>
      </g>
     </g>
    </g>
    <g id="ytick_2">
     <g id="line2d_7">
      <g>
       <use xlink:href="#m9857346be8" x="43.88125" y="65.516432" style="stroke: #000000; stroke-width: 0.8"/>
      </g>
     </g>
     <g id="text_8">
      <!-- INL -->
      <g transform="translate(20.878125 69.315651)scale(0.1 -0.1)">
       <use xlink:href="#DejaVuSans-49"/>
       <use xlink:href="#DejaVuSans-4e" x="29.492188"/>
       <use xlink:href="#DejaVuSans-4c" x="104.296875"/>
      </g>
     </g>
    </g>
    <g id="ytick_3">
     <g id="line2d_8">
      <g>
       <use xlink:href="#m9857346be8" x="43.88125" y="91.077561" style="stroke: #000000; stroke-width: 0.8"/>
      </g>
     </g>
     <g id="text_9">
      <!-- NIL -->
      <g transform="translate(20.878125 94.876779)scale(0.1 -0.1)">
       <use xlink:href="#DejaVuSans-4e"/>
       <use xlink:href="#DejaVuSans-49" x="74.804688"/>
       <use xlink:href="#DejaVuSans-4c" x="104.296875"/>
      </g>
     </g>
    </g>
    <g id="ytick_4">
     <g id="line2d_9">
      <g>
       <use xlink:href="#m9857346be8" x="43.88125" y="116.638689" style="stroke: #000000; stroke-width: 0.8"/>
      </g>
     </g>
     <g id="text_10">
      <!-- LIN -->
      <g transform="translate(20.878125 120.437908)scale(0.1 -0.1)">
       <use xlink:href="#DejaVuSans-4c"/>
       <use xlink:href="#DejaVuSans-49" x="55.712891"/>
       <use xlink:href="#DejaVuSans-4e" x="85.205078"/>
      </g>
     </g>
    </g>
    <g id="ytick_5">
     <g id="line2d_10">
      <g>
       <use xlink:href="#m9857346be8" x="43.88125" y="142.199818" style="stroke: #000000; stroke-width: 0.8"/>
      </g>
     </g>
     <g id="text_11">
      <!-- NLI -->
      <g transform="translate(20.878125 145.999037)scale(0.1 -0.1)">
       <use xlink:href="#DejaVuSans-4e"/>
       <use xlink:href="#DejaVuSans-4c" x="74.804688"/>
       <use xlink:href="#DejaVuSans-49" x="130.517578"/>
      </g>
     </g>
    </g>
    <g id="ytick_6">
     <g id="line2d_11">
      <g>
       <use xlink:href="#m9857346be8" x="43.88125" y="167.760946" style="stroke: #000000; stroke-width: 0.8"/>
      </g>
     </g>
     <g id="text_12">
      <!-- LNI -->
      <g transform="translate(20.878125 171.560165)scale(0.1 -0.1)">
       <use xlink:href="#DejaVuSans-4c"/>
       <use xlink:href="#DejaVuSans-4e" x="55.712891"/>
       <use xlink:href="#DejaVuSans-49" x="130.517578"/>
      </g>
     </g>
    </g>
    <g id="text_13">
     <!-- cond -->
     <g transform="translate(14.798438 116.009688)rotate(-90)scale(0.1 -0.1)">
      <defs>
       <path id="DejaVuSans-63" d="M 3122 3366 
L 3122 2828 
Q 2878 2963 2633 3030 
Q 2388 3097 2138 3097 
Q 1578 3097 1268 2742 
Q 959 2388 959 1747 
Q 959 1106 1268 751 
Q 1578 397 2138 397 
Q 2388 397 2633 464 
Q 2878 531 3122 666 
L 3122 134 
Q 2881 22 2623 -34 
Q 2366 -91 2075 -91 
Q 1284 -91 818 406 
Q 353 903 353 1747 
Q 353 2603 823 3093 
Q 1294 3584 2113 3584 
Q 2378 3584 2631 3529 
Q 2884 3475 3122 3366 
z
" transform="scale(0.015625)"/>
       <path id="DejaVuSans-6f" d="M 1959 3097 
Q 1497 3097 1228 2736 
Q 959 2375 959 1747 
Q 959 1119 1226 758 
Q 1494 397 1959 397 
Q 2419 397 2687 759 
Q 2956 1122 2956 1747 
Q 2956 2369 2687 2733 
Q 2419 3097 1959 3097 
z
M 1959 3584 
Q 2709 3584 3137 3096 
Q 3566 2609 3566 1747 
Q 3566 888 3137 398 
Q 2709 -91 1959 -91 
Q 1206 -91 779 398 
Q 353 888 353 1747 
Q 353 2609 779 3096 
Q 1206 3584 1959 3584 
z
" transform="scale(0.015625)"/>
       <path id="DejaVuSans-6e" d="M 3513 2113 
L 3513 0 
L 2938 0 
L 2938 2094 
Q 2938 2591 2744 2837 
Q 2550 3084 2163 3084 
Q 1697 3084 1428 2787 
Q 1159 2491 1159 1978 
L 1159 0 
L 581 0 
L 581 3500 
L 1159 3500 
L 1159 2956 
Q 1366 3272 1645 3428 
Q 1925 3584 2291 3584 
Q 2894 3584 3203 3211 
Q 3513 2838 3513 2113 
z
" transform="scale(0.015625)"/>
      </defs>
      <use xlink:href="#DejaVuSans-63"/>
      <use xlink:href="#DejaVuSans-6f" x="54.980469"/>
      <use xlink:href="#DejaVuSans-6e" x="116.162109"/>
      <use xlink:href="#DejaVuSans-64" x="179.541016"/>
     </g>
    </g>
   </g>
   <g id="line2d_12">
    <path d="M 44.260542 39.955304 
L 47.281562 39.955304 
" clip-path="url(#p80afaa52e5)" style="fill: none; stroke: #424242; stroke-width: 2.7; stroke-linecap: square"/>
   </g>
   <g id="line2d_13">
    <path d="M 47.593287 65.516432 
L 54.001341 65.516432 
" clip-path="url(#p80afaa52e5)" style="fill: none; stroke: #424242; stroke-width: 2.7; stroke-linecap: square"/>
   </g>
   <g id="line2d_14">
    <path d="M 64.225 91.077561 
L 102.57975 91.077561 
" clip-path="url(#p80afaa52e5)" style="fill: none; stroke: #424242; stroke-width: 2.7; stroke-linecap: square"/>
   </g>
   <g id="line2d_15">
    <path d="M 45.2065 116.638689 
L 49.23805 116.638689 
" clip-path="url(#p80afaa52e5)" style="fill: none; stroke: #424242; stroke-width: 2.7; stroke-linecap: square"/>
   </g>
   <g id="line2d_16">
    <path d="M 52.632101 142.199818 
L 66.90154 142.199818 
" clip-path="url(#p80afaa52e5)" style="fill: none; stroke: #424242; stroke-width: 2.7; stroke-linecap: square"/>
   </g>
   <g id="line2d_17">
    <path d="M 47.381405 167.760946 
L 59.7455 167.760946 
" clip-path="url(#p80afaa52e5)" style="fill: none; stroke: #424242; stroke-width: 2.7; stroke-linecap: square"/>
   </g>
   <g id="line2d_18">
    <path d="M 151.150473 91.077561 
L 153.01217 91.077561 
L 153.01217 142.199818 
L 151.150473 142.199818 
" clip-path="url(#p80afaa52e5)" style="fill: none; stroke: #333333; stroke-width: 1.5; stroke-linecap: square"/>
   </g>
   <g id="line2d_19">
    <path d="M 167.69222 91.077561 
L 169.553917 91.077561 
L 169.553917 167.760946 
L 167.69222 167.760946 
" clip-path="url(#p80afaa52e5)" style="fill: none; stroke: #333333; stroke-width: 1.5; stroke-linecap: square"/>
   </g>
   <g id="patch_9">
    <path d="M 43.88125 185.398125 
L 43.88125 22.318125 
" style="fill: none; stroke: #000000; stroke-width: 0.8; stroke-linejoin: miter; stroke-linecap: square"/>
   </g>
   <g id="patch_10">
    <path d="M 183.38125 185.398125 
L 183.38125 22.318125 
" style="fill: none; stroke: #000000; stroke-width: 0.8; stroke-linejoin: miter; stroke-linecap: square"/>
   </g>
   <g id="patch_11">
    <path d="M 43.88125 185.398125 
L 183.38125 185.398125 
" style="fill: none; stroke: #000000; stroke-width: 0.8; stroke-linejoin: miter; stroke-linecap: square"/>
   </g>
   <g id="patch_12">
    <path d="M 43.88125 22.318125 
L 183.38125 22.318125 
" style="fill: none; stroke: #000000; stroke-width: 0.8; stroke-linejoin: miter; stroke-linecap: square"/>
   </g>
   <g id="PathCollection_1">
    <path d="M 0 236.652188 
C 0.663008 236.652188 1.29895 236.388772 1.767767 235.919954 
C 2.236584 235.451137 2.5 234.815195 2.5 234.152188 
C 2.5 233.48918 2.236584 232.853238 1.767767 232.384421 
C 1.29895 231.915603 0.663008 231.652188 0 231.652188 
C -0.663008 231.652188 -1.29895 231.915603 -1.767767 232.384421 
C -2.236584 232.853238 -2.5 233.48918 -2.5 234.152188 
C -2.5 234.815195 -2.236584 235.451137 -1.767767 235.919954 
C -1.29895 236.388772 -0.663008 236.652188 0 236.652188 
" clip-path="url(#p80afaa52e5)" style="fill: none; stroke: #000000; stroke-width: 0.4"/>
   </g>
   <g id="PathCollection_2">
    <path d="M 0 236.652188 
C 0.663008 236.652188 1.29895 236.388772 1.767767 235.919954 
C 2.236584 235.451137 2.5 234.815195 2.5 234.152188 
C 2.5 233.48918 2.236584 232.853238 1.767767 232.384421 
C 1.29895 231.915603 0.663008 231.652188 0 231.652188 
C -0.663008 231.652188 -1.29895 231.915603 -1.767767 232.384421 
C -2.236584 232.853238 -2.5 233.48918 -2.5 234.152188 
C -2.5 234.815195 -2.236584 235.451137 -1.767767 235.919954 
C -1.29895 236.388772 -0.663008 236.652188 0 236.652188 
" clip-path="url(#p80afaa52e5)" style="fill: none; stroke: #000000; stroke-width: 0.4"/>
   </g>
   <g id="PathCollection_3">
    <path d="M 0 236.652188 
C 0.663008 236.652188 1.29895 236.388772 1.767767 235.919954 
C 2.236584 235.451137 2.5 234.815195 2.5 234.152188 
C 2.5 233.48918 2.236584 232.853238 1.767767 232.384421 
C 1.29895 231.915603 0.663008 231.652188 0 231.652188 
C -0.663008 231.652188 -1.29895 231.915603 -1.767767 232.384421 
C -2.236584 232.853238 -2.5 233.48918 -2.5 234.152188 
C -2.5 234.815195 -2.236584 235.451137 -1.767767 235.919954 
C -1.29895 236.388772 -0.663008 236.652188 0 236.652188 
" clip-path="url(#p80afaa52e5)" style="fill: none; stroke: #000000; stroke-width: 0.4"/>
   </g>
   <g id="PathCollection_4">
    <path d="M 0 236.652188 
C 0.663008 236.652188 1.29895 236.388772 1.767767 235.919954 
C 2.236584 235.451137 2.5 234.815195 2.5 234.152188 
C 2.5 233.48918 2.236584 232.853238 1.767767 232.384421 
C 1.29895 231.915603 0.663008 231.652188 0 231.652188 
C -0.663008 231.652188 -1.29895 231.915603 -1.767767 232.384421 
C -2.236584 232.853238 -2.5 233.48918 -2.5 234.152188 
C -2.5 234.815195 -2.236584 235.451137 -1.767767 235.919954 
C -1.29895 236.388772 -0.663008 236.652188 0 236.652188 
" clip-path="url(#p80afaa52e5)" style="fill: none; stroke: #000000; stroke-width: 0.4"/>
   </g>
   <g id="PathCollection_5">
    <path d="M 0 236.652188 
C 0.663008 236.652188 1.29895 236.388772 1.767767 235.919954 
C 2.236584 235.451137 2.5 234.815195 2.5 234.152188 
C 2.5 233.48918 2.236584 232.853238 1.767767 232.384421 
C 1.29895 231.915603 0.663008 231.652188 0 231.652188 
C -0.663008 231.652188 -1.29895 231.915603 -1.767767 232.384421 
C -2.236584 232.853238 -2.5 233.48918 -2.5 234.152188 
C -2.5 234.815195 -2.236584 235.451137 -1.767767 235.919954 
C -1.29895 236.388772 -0.663008 236.652188 0 236.652188 
" clip-path="url(#p80afaa52e5)" style="fill: none; stroke: #000000; stroke-width: 0.4"/>
   </g>
   <g id="PathCollection_6">
    <path d="M 0 236.652188 
C 0.663008 236.652188 1.29895 236.388772 1.767767 235.919954 
C 2.236584 235.451137 2.5 234.815195 2.5 234.152188 
C 2.5 233.48918 2.236584 232.853238 1.767767 232.384421 
C 1.29895 231.915603 0.663008 231.652188 0 231.652188 
C -0.663008 231.652188 -1.29895 231.915603 -1.767767 232.384421 
C -2.236584 232.853238 -2.5 233.48918 -2.5 234.152188 
C -2.5 234.815195 -2.236584 235.451137 -1.767767 235.919954 
C -1.29895 236.388772 -0.663008 236.652188 0 236.652188 
" clip-path="url(#p80afaa52e5)" style="fill: none; stroke: #000000; stroke-width: 0.4"/>
   </g>
   <g id="PathCollection_7">
    <path d="M 2.5 235.152188 
L 2.5 231.652188 
L -1 231.652188 
" clip-path="url(#p80afaa52e5)" style="fill: none; stroke: #000000; stroke-width: 0.4"/>
   </g>
   <g id="PathCollection_8">
    <path d="M 2.5 235.152188 
L 2.5 231.652188 
L -1 231.652188 
" clip-path="url(#p80afaa52e5)" style="fill: none; stroke: #000000; stroke-width: 0.4"/>
   </g>
   <g id="PathCollection_9">
    <path d="M 2.5 235.152188 
L 2.5 231.652188 
L -1 231.652188 
" clip-path="url(#p80afaa52e5)" style="fill: none; stroke: #000000; stroke-width: 0.4"/>
   </g>
   <g id="PathCollection_10">
    <path d="M 2.5 235.152188 
L 2.5 231.652188 
L -1 231.652188 
" clip-path="url(#p80afaa52e5)" style="fill: none; stroke: #000000; stroke-width: 0.4"/>
   </g>
   <g id="PathCollection_11">
    <path d="M 2.5 235.152188 
L 2.5 231.652188 
L -1 231.652188 
" clip-path="url(#p80afaa52e5)" style="fill: none; stroke: #000000; stroke-width: 0.4"/>
   </g>
   <g id="PathCollection_12">
    <path d="M 2.5 235.152188 
L 2.5 231.652188 
L -1 231.652188 
" clip-path="url(#p80afaa52e5)" style="fill: none; stroke: #000000; stroke-width: 0.4"/>
   </g>
   <g id="PathCollection_13">
    <path d="M 0 231.652188 
L -1 233.652188 
M 1.75 235.152188 
L 0 231.652188 
" clip-path="url(#p80afaa52e5)" style="fill: none; stroke: #000000; stroke-width: 0.4"/>
   </g>
   <g id="PathCollection_14">
    <path d="M 0 231.652188 
L -1 233.652188 
M 1.75 235.152188 
L 0 231.652188 
" clip-path="url(#p80afaa52e5)" style="fill: none; stroke: #000000; stroke-width: 0.4"/>
   </g>
   <g id="PathCollection_15">
    <path d="M 0 231.652188 
L -1 233.652188 
M 1.75 235.152188 
L 0 231.652188 
" clip-path="url(#p80afaa52e5)" style="fill: none; stroke: #000000; stroke-width: 0.4"/>
   </g>
   <g id="PathCollection_16">
    <path d="M 0 231.652188 
L -1 233.652188 
M 1.75 235.152188 
L 0 231.652188 
" clip-path="url(#p80afaa52e5)" style="fill: none; stroke: #000000; stroke-width: 0.4"/>
   </g>
   <g id="PathCollection_17">
    <path d="M 0 231.652188 
L -1 233.652188 
M 1.75 235.152188 
L 0 231.652188 
" clip-path="url(#p80afaa52e5)" style="fill: none; stroke: #000000; stroke-width: 0.4"/>
   </g>
   <g id="PathCollection_18">
    <path d="M 0 231.652188 
L -1 233.652188 
M 1.75 235.152188 
L 0 231.652188 
" clip-path="url(#p80afaa52e5)" style="fill: none; stroke: #000000; stroke-width: 0.4"/>
   </g>
   <g id="PathCollection_19">
    <path d="M 44.788 44.058616 
L 48.323534 40.523082 
L 44.788 36.987548 
L 41.252466 40.523082 
z
" clip-path="url(#p80afaa52e5)" style="fill: #ffffff; stroke: #000000; stroke-width: 0.4"/>
    <path d="M 45.346 40.955145 
L 48.881534 37.419611 
L 45.346 33.884077 
L 41.810466 37.419611 
z
" clip-path="url(#p80afaa52e5)" style="fill: #ffffff; stroke: #000000; stroke-width: 0.4"/>
    <path d="M 46.25275 41.644451 
L 49.788284 38.108917 
L 46.25275 34.573383 
L 42.717216 38.108917 
z
" clip-path="url(#p80afaa52e5)" style="fill: #ffffff; stroke: #000000; stroke-width: 0.4"/>
    <path d="M 43.88125 45.856998 
L 47.416784 42.321464 
L 43.88125 38.78593 
L 40.345716 42.321464 
z
" clip-path="url(#p80afaa52e5)" style="fill: #ffffff; stroke: #000000; stroke-width: 0.4"/>
   </g>
   <g id="PathCollection_20">
    <path d="M 62.15575 71.142187 
L 65.691284 67.606653 
L 62.15575 64.07112 
L 58.620216 67.606653 
z
" clip-path="url(#p80afaa52e5)" style="fill: #ffffff; stroke: #000000; stroke-width: 0.4"/>
    <path d="M 49.74025 70.488714 
L 53.275784 66.95318 
L 49.74025 63.417646 
L 46.204716 66.95318 
z
" clip-path="url(#p80afaa52e5)" style="fill: #ffffff; stroke: #000000; stroke-width: 0.4"/>
    <path d="M 55.948 66.767912 
L 59.483534 63.232378 
L 55.948 59.696844 
L 52.412466 63.232378 
z
" clip-path="url(#p80afaa52e5)" style="fill: #ffffff; stroke: #000000; stroke-width: 0.4"/>
    <path d="M 49.46125 69.427752 
L 52.996784 65.892218 
L 49.46125 62.356684 
L 45.925716 65.892218 
z
" clip-path="url(#p80afaa52e5)" style="fill: #ffffff; stroke: #000000; stroke-width: 0.4"/>
   </g>
   <g id="PathCollection_21">
    <path d="M 132.5335 93.12134 
L 136.069034 89.585806 
L 132.5335 86.050273 
L 128.997966 89.585806 
z
" clip-path="url(#p80afaa52e5)" style="fill: #ffffff; stroke: #000000; stroke-width: 0.4"/>
    <path d="M 74.7805 95.708373 
L 78.316034 92.172839 
L 74.7805 88.637305 
L 71.244966 92.172839 
z
" clip-path="url(#p80afaa52e5)" style="fill: #ffffff; stroke: #000000; stroke-width: 0.4"/>
    <path d="M 126.814 96.569115 
L 130.349534 93.033581 
L 126.814 89.498047 
L 123.278466 93.033581 
z
" clip-path="url(#p80afaa52e5)" style="fill: #ffffff; stroke: #000000; stroke-width: 0.4"/>
    <path d="M 109.02775 96.180083 
L 112.563284 92.644549 
L 109.02775 89.109015 
L 105.492216 92.644549 
z
" clip-path="url(#p80afaa52e5)" style="fill: #ffffff; stroke: #000000; stroke-width: 0.4"/>
   </g>
   <g id="PathCollection_22">
    <path d="M 54.553 122.578561 
L 58.088534 119.043027 
L 54.553 115.507493 
L 51.017466 119.043027 
z
" clip-path="url(#p80afaa52e5)" style="fill: #ffffff; stroke: #000000; stroke-width: 0.4"/>
    <path d="M 46.0435 121.355701 
L 49.579034 117.820168 
L 46.0435 114.284634 
L 42.507966 117.820168 
z
" clip-path="url(#p80afaa52e5)" style="fill: #ffffff; stroke: #000000; stroke-width: 0.4"/>
    <path d="M 47.578 121.567945 
L 51.113534 118.032412 
L 47.578 114.496878 
L 44.042466 118.032412 
z
" clip-path="url(#p80afaa52e5)" style="fill: #ffffff; stroke: #000000; stroke-width: 0.4"/>
    <path d="M 45.7645 122.39995 
L 49.300034 118.864416 
L 45.7645 115.328883 
L 42.228966 118.864416 
z
" clip-path="url(#p80afaa52e5)" style="fill: #ffffff; stroke: #000000; stroke-width: 0.4"/>
   </g>
   <g id="PathCollection_23">
    <path d="M 69.34 144.449843 
L 72.875534 140.914309 
L 69.34 137.378776 
L 65.804466 140.914309 
z
" clip-path="url(#p80afaa52e5)" style="fill: #ffffff; stroke: #000000; stroke-width: 0.4"/>
    <path d="M 75.0595 145.631465 
L 78.595034 142.095931 
L 75.0595 138.560398 
L 71.523966 142.095931 
z
" clip-path="url(#p80afaa52e5)" style="fill: #ffffff; stroke: #000000; stroke-width: 0.4"/>
    <path d="M 60.48175 144.876145 
L 64.017284 141.340611 
L 60.48175 137.805077 
L 56.946216 141.340611 
z
" clip-path="url(#p80afaa52e5)" style="fill: #ffffff; stroke: #000000; stroke-width: 0.4"/>
    <path d="M 80.9185 146.86201 
L 84.454034 143.326476 
L 80.9185 139.790942 
L 77.382966 143.326476 
z
" clip-path="url(#p80afaa52e5)" style="fill: #ffffff; stroke: #000000; stroke-width: 0.4"/>
   </g>
   <g id="PathCollection_24">
    <path d="M 57.55225 171.859277 
L 61.087784 168.323744 
L 57.55225 164.78821 
L 54.016716 168.323744 
z
" clip-path="url(#p80afaa52e5)" style="fill: #ffffff; stroke: #000000; stroke-width: 0.4"/>
    <path d="M 59.92375 170.081264 
L 63.459284 166.54573 
L 59.92375 163.010197 
L 56.388216 166.54573 
z
" clip-path="url(#p80afaa52e5)" style="fill: #ffffff; stroke: #000000; stroke-width: 0.4"/>
    <path d="M 62.365 172.493294 
L 65.900534 168.95776 
L 62.365 165.422226 
L 58.829466 168.95776 
z
" clip-path="url(#p80afaa52e5)" style="fill: #ffffff; stroke: #000000; stroke-width: 0.4"/>
    <path d="M 70.38625 169.923404 
L 73.921784 166.38787 
L 70.38625 162.852336 
L 66.850716 166.38787 
z
" clip-path="url(#p80afaa52e5)" style="fill: #ffffff; stroke: #000000; stroke-width: 0.4"/>
   </g>
   <g id="PathCollection_25">
    <defs>
     <path id="C0_0_11805ebeb9" d="M -0.833333 2.5 
L 0.833333 2.5 
L 0.833333 0.833333 
L 2.5 0.833333 
L 2.5 -0.833333 
L 0.833333 -0.833333 
L 0.833333 -2.5 
L -0.833333 -2.5 
L -0.833333 -0.833333 
L -2.5 -0.833333 
L -2.5 0.833333 
L -0.833333 0.833333 
z
"/>
    </defs>
    <g clip-path="url(#p80afaa52e5)">
     <use xlink:href="#C0_0_11805ebeb9" x="44.99725" y="41.068513" style="fill: #ffffff; stroke: #000000; stroke-width: 0.4"/>
    </g>
    <g clip-path="url(#p80afaa52e5)">
     <use xlink:href="#C0_0_11805ebeb9" x="44.3695" y="42.025925" style="fill: #ffffff; stroke: #000000; stroke-width: 0.4"/>
    </g>
    <g clip-path="url(#p80afaa52e5)">
     <use xlink:href="#C0_0_11805ebeb9" x="50.57725" y="41.669218" style="fill: #ffffff; stroke: #000000; stroke-width: 0.4"/>
    </g>
    <g clip-path="url(#p80afaa52e5)">
     <use xlink:href="#C0_0_11805ebeb9" x="44.3695" y="39.716733" style="fill: #ffffff; stroke: #000000; stroke-width: 0.4"/>
    </g>
   </g>
   <g id="PathCollection_26">
    <defs>
     <path id="C1_0_60877a2677" d="M -0.833333 2.5 
L 0.833333 2.5 
L 0.833333 0.833333 
L 2.5 0.833333 
L 2.5 -0.833333 
L 0.833333 -0.833333 
L 0.833333 -2.5 
L -0.833333 -2.5 
L -0.833333 -0.833333 
L -2.5 -0.833333 
L -2.5 0.833333 
L -0.833333 0.833333 
z
"/>
    </defs>
    <g clip-path="url(#p80afaa52e5)">
     <use xlink:href="#C1_0_60877a2677" x="50.43775" y="66.026942" style="fill: #ffffff; stroke: #000000; stroke-width: 0.4"/>
    </g>
    <g clip-path="url(#p80afaa52e5)">
     <use xlink:href="#C1_0_60877a2677" x="46.8805" y="65.315388" style="fill: #ffffff; stroke: #000000; stroke-width: 0.4"/>
    </g>
    <g clip-path="url(#p80afaa52e5)">
     <use xlink:href="#C1_0_60877a2677" x="46.6015" y="67.105518" style="fill: #ffffff; stroke: #000000; stroke-width: 0.4"/>
    </g>
    <g clip-path="url(#p80afaa52e5)">
     <use xlink:href="#C1_0_60877a2677" x="47.7175" y="65.810521" style="fill: #ffffff; stroke: #000000; stroke-width: 0.4"/>
    </g>
   </g>
   <g id="PathCollection_27">
    <defs>
     <path id="C2_0_db497923ca" d="M -0.833333 2.5 
L 0.833333 2.5 
L 0.833333 0.833333 
L 2.5 0.833333 
L 2.5 -0.833333 
L 0.833333 -0.833333 
L 0.833333 -2.5 
L -0.833333 -2.5 
L -0.833333 -0.833333 
L -2.5 -0.833333 
L -2.5 0.833333 
L -0.833333 0.833333 
z
"/>
    </defs>
    <g clip-path="url(#p80afaa52e5)">
     <use xlink:href="#C2_0_db497923ca" x="58.80775" y="91.824326" style="fill: #ffffff; stroke: #000000; stroke-width: 0.4"/>
    </g>
    <g clip-path="url(#p80afaa52e5)">
     <use xlink:href="#C2_0_db497923ca" x="54.6925" y="90.170879" style="fill: #ffffff; stroke: #000000; stroke-width: 0.4"/>
    </g>
    <g clip-path="url(#p80afaa52e5)">
     <use xlink:href="#C2_0_db497923ca" x="56.43625" y="92.302064" style="fill: #ffffff; stroke: #000000; stroke-width: 0.4"/>
    </g>
    <g clip-path="url(#p80afaa52e5)">
     <use xlink:href="#C2_0_db497923ca" x="56.3665" y="89.179101" style="fill: #ffffff; stroke: #000000; stroke-width: 0.4"/>
    </g>
   </g>
   <g id="PathCollection_28">
    <defs>
     <path id="C3_0_3ddec214c7" d="M -0.833333 2.5 
L 0.833333 2.5 
L 0.833333 0.833333 
L 2.5 0.833333 
L 2.5 -0.833333 
L 0.833333 -0.833333 
L 0.833333 -2.5 
L -0.833333 -2.5 
L -0.833333 -0.833333 
L -2.5 -0.833333 
L -2.5 0.833333 
L -0.833333 0.833333 
z
"/>
    </defs>
    <g clip-path="url(#p80afaa52e5)">
     <use xlink:href="#C3_0_3ddec214c7" x="45.27625" y="115.289376" style="fill: #ffffff; stroke: #000000; stroke-width: 0.4"/>
    </g>
    <g clip-path="url(#p80afaa52e5)">
     <use xlink:href="#C3_0_3ddec214c7" x="45.625" y="115.700756" style="fill: #ffffff; stroke: #000000; stroke-width: 0.4"/>
    </g>
    <g clip-path="url(#p80afaa52e5)">
     <use xlink:href="#C3_0_3ddec214c7" x="44.02075" y="116.477934" style="fill: #ffffff; stroke: #000000; stroke-width: 0.4"/>
    </g>
    <g clip-path="url(#p80afaa52e5)">
     <use xlink:href="#C3_0_3ddec214c7" x="48.62425" y="114.638296" style="fill: #ffffff; stroke: #000000; stroke-width: 0.4"/>
    </g>
   </g>
   <g id="PathCollection_29">
    <defs>
     <path id="C4_0_9c9d7cd2d2" d="M -0.833333 2.5 
L 0.833333 2.5 
L 0.833333 0.833333 
L 2.5 0.833333 
L 2.5 -0.833333 
L 0.833333 -0.833333 
L 0.833333 -2.5 
L -0.833333 -2.5 
L -0.833333 -0.833333 
L -2.5 -0.833333 
L -2.5 0.833333 
L -0.833333 0.833333 
z
"/>
    </defs>
    <g clip-path="url(#p80afaa52e5)">
     <use xlink:href="#C4_0_9c9d7cd2d2" x="54.4135" y="144.199939" style="fill: #ffffff; stroke: #000000; stroke-width: 0.4"/>
    </g>
    <g clip-path="url(#p80afaa52e5)">
     <use xlink:href="#C4_0_9c9d7cd2d2" x="54.20425" y="141.192208" style="fill: #ffffff; stroke: #000000; stroke-width: 0.4"/>
    </g>
    <g clip-path="url(#p80afaa52e5)">
     <use xlink:href="#C4_0_9c9d7cd2d2" x="49.87975" y="144.261294" style="fill: #ffffff; stroke: #000000; stroke-width: 0.4"/>
    </g>
    <g clip-path="url(#p80afaa52e5)">
     <use xlink:href="#C4_0_9c9d7cd2d2" x="49.32175" y="143.979659" style="fill: #ffffff; stroke: #000000; stroke-width: 0.4"/>
    </g>
   </g>
   <g id="PathCollection_30">
    <defs>
     <path id="C5_0_1bbc7bef2b" d="M -0.833333 2.5 
L 0.833333 2.5 
L 0.833333 0.833333 
L 2.5 0.833333 
L 2.5 -0.833333 
L 0.833333 -0.833333 
L 0.833333 -2.5 
L -0.833333 -2.5 
L -0.833333 -0.833333 
L -2.5 -0.833333 
L -2.5 0.833333 
L -0.833333 0.833333 
z
"/>
    </defs>
    <g clip-path="url(#p80afaa52e5)">
     <use xlink:href="#C5_0_1bbc7bef2b" x="46.95025" y="168.070776" style="fill: #ffffff; stroke: #000000; stroke-width: 0.4"/>
    </g>
    <g clip-path="url(#p80afaa52e5)">
     <use xlink:href="#C5_0_1bbc7bef2b" x="46.6015" y="167.602945" style="fill: #ffffff; stroke: #000000; stroke-width: 0.4"/>
    </g>
    <g clip-path="url(#p80afaa52e5)">
     <use xlink:href="#C5_0_1bbc7bef2b" x="44.16025" y="170.061983" style="fill: #ffffff; stroke: #000000; stroke-width: 0.4"/>
    </g>
    <g clip-path="url(#p80afaa52e5)">
     <use xlink:href="#C5_0_1bbc7bef2b" x="45.69475" y="165.9351" style="fill: #ffffff; stroke: #000000; stroke-width: 0.4"/>
    </g>
   </g>
   <g id="PathCollection_31">
    <defs>
     <path id="C6_0_be1f70c74a" d="M -1.25 2.5 
L 0 1.25 
L 1.25 2.5 
L 2.5 1.25 
L 1.25 -0 
L 2.5 -1.25 
L 1.25 -2.5 
L 0 -1.25 
L -1.25 -2.5 
L -2.5 -1.25 
L -1.25 0 
L -2.5 1.25 
z
"/>
    </defs>
    <g clip-path="url(#p80afaa52e5)">
     <use xlink:href="#C6_0_be1f70c74a" x="44.02075" y="42.162526" style="fill: #ffffff; stroke: #000000; stroke-width: 0.4"/>
    </g>
    <g clip-path="url(#p80afaa52e5)">
     <use xlink:href="#C6_0_be1f70c74a" x="44.0905" y="39.437138" style="fill: #ffffff; stroke: #000000; stroke-width: 0.4"/>
    </g>
   </g>
   <g id="PathCollection_32">
    <defs>
     <path id="C7_0_28f5678a16" d="M -1.25 2.5 
L 0 1.25 
L 1.25 2.5 
L 2.5 1.25 
L 1.25 -0 
L 2.5 -1.25 
L 1.25 -2.5 
L 0 -1.25 
L -1.25 -2.5 
L -2.5 -1.25 
L -1.25 0 
L -2.5 1.25 
z
"/>
    </defs>
    <g clip-path="url(#p80afaa52e5)">
     <use xlink:href="#C7_0_28f5678a16" x="45.7645" y="67.920138" style="fill: #ffffff; stroke: #000000; stroke-width: 0.4"/>
    </g>
    <g clip-path="url(#p80afaa52e5)">
     <use xlink:href="#C7_0_28f5678a16" x="47.1595" y="63.177755" style="fill: #ffffff; stroke: #000000; stroke-width: 0.4"/>
    </g>
   </g>
   <g id="PathCollection_33">
    <defs>
     <path id="C8_0_e6c54923d7" d="M -1.25 2.5 
L 0 1.25 
L 1.25 2.5 
L 2.5 1.25 
L 1.25 -0 
L 2.5 -1.25 
L 1.25 -2.5 
L 0 -1.25 
L -1.25 -2.5 
L -2.5 -1.25 
L -1.25 0 
L -2.5 1.25 
z
"/>
    </defs>
    <g clip-path="url(#p80afaa52e5)">
     <use xlink:href="#C8_0_e6c54923d7" x="55.87825" y="91.959705" style="fill: #ffffff; stroke: #000000; stroke-width: 0.4"/>
    </g>
    <g clip-path="url(#p80afaa52e5)">
     <use xlink:href="#C8_0_e6c54923d7" x="77.64025" y="89.19755" style="fill: #ffffff; stroke: #000000; stroke-width: 0.4"/>
    </g>
   </g>
   <g id="PathCollection_34">
    <defs>
     <path id="C9_0_ffbf93b60b" d="M -1.25 2.5 
L 0 1.25 
L 1.25 2.5 
L 2.5 1.25 
L 1.25 -0 
L 2.5 -1.25 
L 1.25 -2.5 
L 0 -1.25 
L -1.25 -2.5 
L -2.5 -1.25 
L -1.25 0 
L -2.5 1.25 
z
"/>
    </defs>
    <g clip-path="url(#p80afaa52e5)">
     <use xlink:href="#C9_0_ffbf93b60b" x="45.7645" y="117.026592" style="fill: #ffffff; stroke: #000000; stroke-width: 0.4"/>
    </g>
    <g clip-path="url(#p80afaa52e5)">
     <use xlink:href="#C9_0_ffbf93b60b" x="44.3695" y="117.785279" style="fill: #ffffff; stroke: #000000; stroke-width: 0.4"/>
    </g>
   </g>
   <g id="PathCollection_35">
    <defs>
     <path id="Ca_0_62a3a6fd5a" d="M -1.25 2.5 
L 0 1.25 
L 1.25 2.5 
L 2.5 1.25 
L 1.25 -0 
L 2.5 -1.25 
L 1.25 -2.5 
L 0 -1.25 
L -1.25 -2.5 
L -2.5 -1.25 
L -1.25 0 
L -2.5 1.25 
z
"/>
    </defs>
    <g clip-path="url(#p80afaa52e5)">
     <use xlink:href="#Ca_0_62a3a6fd5a" x="46.3225" y="140.498644" style="fill: #ffffff; stroke: #000000; stroke-width: 0.4"/>
    </g>
    <g clip-path="url(#p80afaa52e5)">
     <use xlink:href="#Ca_0_62a3a6fd5a" x="49.1125" y="140.065695" style="fill: #ffffff; stroke: #000000; stroke-width: 0.4"/>
    </g>
   </g>
   <g id="PathCollection_36">
    <defs>
     <path id="Cb_0_8abb9f7752" d="M -1.25 2.5 
L 0 1.25 
L 1.25 2.5 
L 2.5 1.25 
L 1.25 -0 
L 2.5 -1.25 
L 1.25 -2.5 
L 0 -1.25 
L -1.25 -2.5 
L -2.5 -1.25 
L -1.25 0 
L -2.5 1.25 
z
"/>
    </defs>
    <g clip-path="url(#p80afaa52e5)">
     <use xlink:href="#Cb_0_8abb9f7752" x="46.183" y="167.641375" style="fill: #ffffff; stroke: #000000; stroke-width: 0.4"/>
    </g>
    <g clip-path="url(#p80afaa52e5)">
     <use xlink:href="#Cb_0_8abb9f7752" x="45.83425" y="169.98303" style="fill: #ffffff; stroke: #000000; stroke-width: 0.4"/>
    </g>
   </g>
   <g id="text_14">
    <!-- ns -->
    <g transform="translate(156.091857 110.865252)rotate(-270)scale(0.1 -0.1)">
     <defs>
      <path id="DejaVuSans-73" d="M 2834 3397 
L 2834 2853 
Q 2591 2978 2328 3040 
Q 2066 3103 1784 3103 
Q 1356 3103 1142 2972 
Q 928 2841 928 2578 
Q 928 2378 1081 2264 
Q 1234 2150 1697 2047 
L 1894 2003 
Q 2506 1872 2764 1633 
Q 3022 1394 3022 966 
Q 3022 478 2636 193 
Q 2250 -91 1575 -91 
Q 1294 -91 989 -36 
Q 684 19 347 128 
L 347 722 
Q 666 556 975 473 
Q 1284 391 1588 391 
Q 1994 391 2212 530 
Q 2431 669 2431 922 
Q 2431 1156 2273 1281 
Q 2116 1406 1581 1522 
L 1381 1569 
Q 847 1681 609 1914 
Q 372 2147 372 2553 
Q 372 3047 722 3315 
Q 1072 3584 1716 3584 
Q 2034 3584 2315 3537 
Q 2597 3491 2834 3397 
z
" transform="scale(0.015625)"/>
     </defs>
     <use xlink:href="#DejaVuSans-6e"/>
     <use xlink:href="#DejaVuSans-73" x="63.378906"/>
    </g>
   </g>
   <g id="text_15">
    <!-- * -->
    <g transform="translate(172.633605 126.919254)rotate(-270)scale(0.1 -0.1)">
     <defs>
      <path id="DejaVuSans-2a" d="M 3009 3897 
L 1888 3291 
L 3009 2681 
L 2828 2375 
L 1778 3009 
L 1778 1831 
L 1422 1831 
L 1422 3009 
L 372 2375 
L 191 2681 
L 1313 3291 
L 191 3897 
L 372 4206 
L 1422 3572 
L 1422 4750 
L 1778 4750 
L 1778 3572 
L 2828 4206 
L 3009 3897 
z
" transform="scale(0.015625)"/>
     </defs>
     <use xlink:href="#DejaVuSans-2a"/>
    </g>
   </g>
   <g id="text_16">
    <g id="patch_13">
     <path d="M 54.269275 45.794366 
L 72.1724 45.794366 
L 72.1724 34.116241 
L 54.269275 34.116241 
z
" style="fill: #ffffff; opacity: 0.75"/>
    </g>
    <!-- 0.2 -->
    <g transform="translate(55.269275 42.714679)scale(0.1 -0.1)">
     <defs>
      <path id="DejaVuSans-2e" d="M 684 794 
L 1344 794 
L 1344 0 
L 684 0 
L 684 794 
z
" transform="scale(0.015625)"/>
     </defs>
     <use xlink:href="#DejaVuSans-30"/>
     <use xlink:href="#DejaVuSans-2e" x="63.623047"/>
     <use xlink:href="#DejaVuSans-32" x="95.410156"/>
    </g>
   </g>
   <g id="text_17">
    <g id="patch_14">
     <path d="M 59.18665 71.355495 
L 77.089775 71.355495 
L 77.089775 59.67737 
L 59.18665 59.67737 
z
" style="fill: #ffffff; opacity: 0.75"/>
    </g>
    <!-- 0.9 -->
    <g transform="translate(60.18665 68.275807)scale(0.1 -0.1)">
     <defs>
      <path id="DejaVuSans-39" d="M 703 97 
L 703 672 
Q 941 559 1184 500 
Q 1428 441 1663 441 
Q 2288 441 2617 861 
Q 2947 1281 2994 2138 
Q 2813 1869 2534 1725 
Q 2256 1581 1919 1581 
Q 1219 1581 811 2004 
Q 403 2428 403 3163 
Q 403 3881 828 4315 
Q 1253 4750 1959 4750 
Q 2769 4750 3195 4129 
Q 3622 3509 3622 2328 
Q 3622 1225 3098 567 
Q 2575 -91 1691 -91 
Q 1453 -91 1209 -44 
Q 966 3 703 97 
z
M 1959 2075 
Q 2384 2075 2632 2365 
Q 2881 2656 2881 3163 
Q 2881 3666 2632 3958 
Q 2384 4250 1959 4250 
Q 1534 4250 1286 3958 
Q 1038 3666 1038 3163 
Q 1038 2656 1286 2365 
Q 1534 2075 1959 2075 
z
" transform="scale(0.015625)"/>
     </defs>
     <use xlink:href="#DejaVuSans-30"/>
     <use xlink:href="#DejaVuSans-2e" x="63.623047"/>
     <use xlink:href="#DejaVuSans-39" x="95.410156"/>
    </g>
   </g>
   <g id="text_18">
    <g id="patch_15">
     <path d="M 89.297725 96.916623 
L 107.20085 96.916623 
L 107.20085 85.238498 
L 89.297725 85.238498 
z
" style="fill: #ffffff; opacity: 0.75"/>
    </g>
    <!-- 5.2 -->
    <g transform="translate(90.297725 93.836936)scale(0.1 -0.1)">
     <use xlink:href="#DejaVuSans-35"/>
     <use xlink:href="#DejaVuSans-2e" x="63.623047"/>
     <use xlink:href="#DejaVuSans-32" x="95.410156"/>
    </g>
   </g>
   <g id="text_19">
    <g id="patch_16">
     <path d="M 55.761925 122.477752 
L 73.66505 122.477752 
L 73.66505 110.799627 
L 55.761925 110.799627 
z
" style="fill: #ffffff; opacity: 0.75"/>
    </g>
    <!-- 0.4 -->
    <g transform="translate(56.761925 119.398064)scale(0.1 -0.1)">
     <defs>
      <path id="DejaVuSans-34" d="M 2419 4116 
L 825 1625 
L 2419 1625 
L 2419 4116 
z
M 2253 4666 
L 3047 4666 
L 3047 1625 
L 3713 1625 
L 3713 1100 
L 3047 1100 
L 3047 0 
L 2419 0 
L 2419 1100 
L 313 1100 
L 313 1709 
L 2253 4666 
z
" transform="scale(0.015625)"/>
     </defs>
     <use xlink:href="#DejaVuSans-30"/>
     <use xlink:href="#DejaVuSans-2e" x="63.623047"/>
     <use xlink:href="#DejaVuSans-34" x="95.410156"/>
    </g>
   </g>
   <g id="text_20">
    <g id="patch_17">
     <path d="M 67.9054 148.03888 
L 85.808525 148.03888 
L 85.808525 136.360755 
L 67.9054 136.360755 
z
" style="fill: #ffffff; opacity: 0.75"/>
    </g>
    <!-- 2.2 -->
    <g transform="translate(68.9054 144.959193)scale(0.1 -0.1)">
     <use xlink:href="#DejaVuSans-32"/>
     <use xlink:href="#DejaVuSans-2e" x="63.623047"/>
     <use xlink:href="#DejaVuSans-32" x="95.410156"/>
    </g>
   </g>
   <g id="text_21">
    <g id="patch_18">
     <path d="M 61.565125 173.600009 
L 79.46825 173.600009 
L 79.46825 161.921884 
L 61.565125 161.921884 
z
" style="fill: #ffffff; opacity: 0.75"/>
    </g>
    <!-- 1.2 -->
    <g transform="translate(62.565125 170.520321)scale(0.1 -0.1)">
     <use xlink:href="#DejaVuSans-31"/>
     <use xlink:href="#DejaVuSans-2e" x="63.623047"/>
     <use xlink:href="#DejaVuSans-32" x="95.410156"/>
    </g>
   </g>
   <g id="text_22">
    <!-- 14 dpi, – DDRR -->
    <g transform="translate(68.505625 16.318125)scale(0.12 -0.12)">
     <defs>
      <path id="DejaVuSans-2c" d="M 750 794 
L 1409 794 
L 1409 256 
L 897 -744 
L 494 -744 
L 750 256 
L 750 794 
z
" transform="scale(0.015625)"/>
      <path id="DejaVuSans-2013" d="M 313 1978 
L 2888 1978 
L 2888 1528 
L 313 1528 
L 313 1978 
z
" transform="scale(0.015625)"/>
      <path id="DejaVuSans-44" d="M 1259 4147 
L 1259 519 
L 2022 519 
Q 2988 519 3436 956 
Q 3884 1394 3884 2338 
Q 3884 3275 3436 3711 
Q 2988 4147 2022 4147 
L 1259 4147 
z
M 628 4666 
L 1925 4666 
Q 3281 4666 3915 4102 
Q 4550 3538 4550 2338 
Q 4550 1131 3912 565 
Q 3275 0 1925 0 
L 628 0 
L 628 4666 
z
" transform="scale(0.015625)"/>
      <path id="DejaVuSans-52" d="M 2841 2188 
Q 3044 2119 3236 1894 
Q 3428 1669 3622 1275 
L 4263 0 
L 3584 0 
L 2988 1197 
Q 2756 1666 2539 1819 
Q 2322 1972 1947 1972 
L 1259 1972 
L 1259 0 
L 628 0 
L 628 4666 
L 2053 4666 
Q 2853 4666 3247 4331 
Q 3641 3997 3641 3322 
Q 3641 2881 3436 2590 
Q 3231 2300 2841 2188 
z
M 1259 4147 
L 1259 2491 
L 2053 2491 
Q 2509 2491 2742 2702 
Q 2975 2913 2975 3322 
Q 2975 3731 2742 3939 
Q 2509 4147 2053 4147 
L 1259 4147 
z
" transform="scale(0.015625)"/>
     </defs>
     <use xlink:href="#DejaVuSans-31"/>
     <use xlink:href="#DejaVuSans-34" x="63.623047"/>
     <use xlink:href="#DejaVuSans-20" x="127.246094"/>
     <use xlink:href="#DejaVuSans-64" x="159.033203"/>
     <use xlink:href="#DejaVuSans-70" x="222.509766"/>
     <use xlink:href="#DejaVuSans-69" x="285.986328"/>
     <use xlink:href="#DejaVuSans-2c" x="313.769531"/>
     <use xlink:href="#DejaVuSans-20" x="345.556641"/>
     <use xlink:href="#DejaVuSans-2013" x="377.34375"/>
     <use xlink:href="#DejaVuSans-20" x="427.34375"/>
     <use xlink:href="#DejaVuSans-44" x="459.130859"/>
     <use xlink:href="#DejaVuSans-44" x="536.132812"/>
     <use xlink:href="#DejaVuSans-52" x="613.134766"/>
     <use xlink:href="#DejaVuSans-52" x="682.617188"/>
    </g>
   </g>
  </g>
 </g>
 <defs>
  <clipPath id="p80afaa52e5">
   <rect x="43.88125" y="22.318125" width="139.5" height="163.08"/>
  </clipPath>
 </defs>
</svg>
